<svg version="1.1" viewBox="0 0 10 10" xmlns="http://www.w3.org/2000/svg"><g transform="translate(-.26114 7.9829)"><path fill="#fff" d="m7.4626 1.8986c-0.055122-0.080394-0.18342-0.25208-0.28511-0.38153-0.33822-0.43055-0.859-1.1312-1.1619-1.5633-0.42854-0.6112-0.62712-0.68453-1.9454-0.71843l-1.1224-0.028856 0.00879-0.26617c0.00504-0.15263-0.026877-0.25839-0.074824-0.24792-0.11147 0.024327-0.15779-1.9684-0.048768-2.0976 0.099083-0.1174 0.10103-0.26133 0.00257-0.18922-0.099956 0.0732-0.098966-0.8891 0.00114-1.1107 0.04178-0.0925 0.11754-0.15311 0.16835-0.13469 0.25688 0.09314 0.80685 0.12727 0.76524 0.04749-0.02881-0.05523 0.20651-0.08759 0.63706-0.08759 0.37677 0 0.75599-0.04634 0.84618-0.1034 0.25364-0.16047 0.49195-0.49847 1.0894-1.5452 0.64426-1.1287 0.8841-1.4544 1.0708-1.4544 0.12004 0 0.13565 0.08431 0.13565 0.73274 0 0.403 0.053838 1.4503 0.11965 2.3272 0.13655 1.8198 0.11608 6.8799-0.028053 6.9368-0.043013 0.016989-0.12331-0.034887-0.17843-0.11528z"><animate attributeName="display" values="inline;none;none" keyTimes="0;0.5;1" dur="0.5s" begin="0s" repeatCount="indefinite" /></path><path fill="#fff" d="m6.689 0.98335c-0.4895-0.56855-0.93014-1.0348-0.97921-1.0362-0.04907-0.0014-0.11605-0.05313-0.14885-0.11508-0.0328-0.06195-0.15408-0.21399-0.26952-0.33788-0.19739-0.21184-0.27213-0.22794-1.2551-0.27031l-1.0452-0.04505-0.1025-0.48646c-0.05638-0.26756-0.08732-0.50486-0.06877-0.52735 0.01855-0.02249 0.0039-0.13607-0.03261-0.2524-0.04254-0.13564-0.0327-0.36869 0.02742-0.64967 0.05586-0.26105 0.07034-0.54428 0.03583-0.70071-0.03186-0.1444-0.03827-0.38512-0.01425-0.53492 0.02402-0.1498 0.04546-0.32398 0.04764-0.38705 0.0052-0.15119 0.14781-0.18104 1.2009-0.25139 1.0315-0.06891 0.97106-0.02199 1.7079-1.326 0.2418-0.42793 0.47274-0.75325 0.5132-0.72294 0.04046 0.03031 0.05283 0.01444 0.02749-0.03526-0.02534-0.04971 0.01514-0.17003 0.08995-0.26738 0.07482-0.09735 0.17518-0.26568 0.22303-0.37406 0.04785-0.10838 0.13682-0.19705 0.19771-0.19705 0.06089 0 0.14251-0.10137 0.18136-0.22526 0.03886-0.12389 0.09656-0.22464 0.12823-0.22388 0.18678 0.0045 0.2419 0.20251 0.27651 0.9935 0.02051 0.46872 0.09006 1.2982 0.15457 1.8434 0.08469 0.71567 0.11299 1.5671 0.10185 3.0635-0.0085 1.1398 0.01128 2.5285 0.04392 3.086 0.0497 0.84886 0.04221 1.0137-0.04607 1.0137-0.05798 0-0.50592-0.46518-0.99542-1.0337z"><animate attributeName="display" values="none;inline;none" keyTimes="0;0.5;1" dur="0.5s" begin="0s" repeatCount="indefinite" /></path></g></svg>
