<svg version="1.1" viewBox="0 0 55 5" xmlns="http://www.w3.org/2000/svg">
<path d="m0.61227 4.9736c-0.018008-0.02325-0.018388-0.19399-8.5031e-4 -0.37943 0.022607-0.23896 0.004282-0.38859-0.062915-0.51376-0.052147-0.097132-0.087919-0.20912-0.079493-0.24885 0.008427-0.039735-0.013155-0.072248-0.047962-0.072248-0.034804 0-0.045348-0.028898-0.023428-0.064219 0.1278-0.20593 0.12751-0.20392 0.026704-0.1847-0.083276 0.015876-0.10502-0.036808-0.14025-0.33976-0.069136-0.59466-0.15076-1.1678-0.23577-1.6555-0.064849-0.37205-0.064526-0.50428 0.0016573-0.67854 0.045212-0.11904 0.06309-0.25427 0.039731-0.30051-0.030268-0.059913-0.017139-0.084072 0.045689-0.084072 0.048488 0 0.1408-0.028899 0.20514-0.06422 0.06634-0.036419 0.084666-0.06422 0.042333-0.06422-0.041058 0-0.075534 0.018062-0.076614 0.040137-0.001082 0.022076-0.034812 0.012008-0.074958-0.022372-0.054635-0.046787-0.05414-0.065632 0.001964-0.074923 0.041228-0.006827 0.074958-0.037377 0.074958-0.067887 0-0.09481 0.54813-0.14221 1.379-0.11925 2.4682 0.068213 7.7599 0.042946 9.7376-0.046495 1.3217-0.059772 5.9167-0.034505 8.8868 0.048867 1.7821 0.050024 5.5978 0.096597 7.5446 0.092088 0.77434-0.001793 1.1966 0.00852 1.1716 0.028614-0.02505 0.020142 0.1899 0.024723 0.59895 0.012764 0.35092-0.010259 0.89979-0.015588 1.2197-0.011841 0.61296 0.007178 1.4622 0.002862 2.0036-0.010185 0.17774-0.004283 0.49039 0.001474 0.69479 0.012793 0.22959 0.012715 0.37163 0.008457 0.37163-0.01114 0-0.017447 0.0308-0.031722 0.06846-0.031722 0.03765 0 0.05048 0.01445 0.02851 0.03211-0.02544 0.020451 0.16091 0.03211 0.51324 0.03211 0.30425 0 0.55318-0.013171 0.55318-0.029269 0-0.031648 0.09225-0.027369 0.28121 0.013043 0.07864 0.016816 0.13919 0.010226 0.17674-0.019232 0.04782-0.037513 0.05744-0.036968 0.05911 0.003349 0.0013 0.032296 0.01762 0.036156 0.04947 0.011716 0.03146-0.024147 0.37468-0.038091 1.017-0.041314 0.90288-0.004532 1.5715-0.01565 2.5206-0.041919 0.3007-0.008322 0.39765 3.0569e-4 0.43172 0.03842 0.03723 0.041656 0.04463 0.040815 0.04848-0.005515 0.0036-0.044267 0.04451-0.050746 0.2146-0.034056 0.11554 0.011336 1.4025 0.023552 2.8599 0.027146 1.4574 0.003595 2.6644 0.009041 2.6822 0.012103 0.01777 0.003063 0.35224 0.011987 0.74326 0.019832 0.39102 0.007845 1.2054 0.033575 1.8097 0.057178 0.60431 0.023603 2.0149 0.046792 3.1346 0.05153 1.1197 0.004739 2.2177 0.011465 2.4398 0.014948 0.22217 0.003483 0.40395-0.004955 0.40395-0.018751 0-0.073661 0.18624 0.026244 0.2519 0.13513 0.04206 0.069719 0.10774 0.12676 0.14601 0.12676 0.03913 0 0.05623 0.034698 0.03905 0.079303-0.01678 0.043616-0.0057 0.071663 0.02478 0.062325 0.03041-0.009338 0.05819 0.001936 0.06175 0.025054 0.0036 0.023118 0.02694 0.005908 0.052-0.038242 0.03882-0.068398 0.06071-0.050583 0.14791 0.12041 0.05631 0.11038 0.07653 0.20069 0.04496 0.20069s-0.05742-0.01445-0.05742-0.03211c0-0.01766-0.02909-0.03211-0.06464-0.03211-0.11296 0-0.06954 0.059118 0.05824 0.079267 0.08826 0.013915 0.1528 0.080127 0.22911 0.23496 0.05843 0.11857 0.10543 0.24448 0.10446 0.27981-0.01383 0.49482-0.06934 0.97234-0.13261 1.1399-0.04333 0.11479-0.09225 0.45192-0.10869 0.74917-0.02577 0.46573-0.04344 0.53787-0.1278 0.52179-0.05386-0.010267-0.1118-0.018666-0.12877-0.018666-0.01696 0-0.01304-0.014284 0.0086-0.031742 0.0221-0.017756-2e-3 -0.023833-0.05467-0.013791-0.05796 0.011047-0.10419 0.075735-0.12021 0.16821-0.04121 0.23761-0.01179 0.26264 0.30833 0.26264 0.15371 0 0.2977 0.014642 0.31997 0.032538 0.07388 0.059381 0.05312 0.23006-0.03112 0.25592-0.04561 0.014004-0.06294 0.041526-0.03852 0.061161 0.02797 0.022479-0.01414 0.0357-0.11378 0.0357-0.12877 0-0.16588-0.020327-0.19947-0.10928-0.03599-0.095284-0.23165-0.19408-0.23165-0.11697 0 0.036841-0.33982 0.090665-0.71095 0.11261-0.15996 0.00946-0.4508 0.039113-0.64631 0.0659-0.29184 0.039986-0.64469 0.045541-1.9713 0.031035-1.9914-0.021776-2.562-0.019013-3.2639 0.015799-0.30215 0.014987-0.942 0.022238-1.4219 0.016113-0.86772-0.011074-1.2375-0.036208-2.7772-0.18878-0.73265-0.072599-0.92305-0.080686-0.83175-0.035326 0.01757 0.00873 0.32052 0.047419 0.67324 0.085987 0.66359 0.072559 0.71537 0.080774 0.66547 0.10557-0.0163 0.00812-0.21686-0.00694-0.44565-0.033455-0.2288-0.026518-0.51839-0.055363-0.64354-0.064102-0.12514-0.00874-0.36721-0.029817-0.53791-0.046839-0.1707-0.017022-0.447-0.038541-0.614-0.047817-0.167-0.00928-0.5363-0.02984-0.82068-0.045696-0.54544-0.030411-4.668-0.017832-4.9443 0.015087-0.08887 0.010586-0.33608 0.025618-0.54937 0.033402-0.21328 0.00778-0.53321 0.022288-0.71095 0.032231-0.36592 0.02047-1.243 0.050306-1.3896 0.047267-0.05332-0.0011-0.15511-3.533e-4 -0.22621 0.00168-0.53281 0.015189-1.669-0.00806-2.4883-0.050903-0.47443-0.024813-2.7789-0.013555-3.4813 0.017006-0.86166 0.037491-3.2931 0.034499-3.3412-0.00411-0.0182-0.01463-0.10477-0.01306-0.19238 0.00349-0.10182 0.019229-0.15929 0.018787-0.15929-0.00123 0-0.017224-0.0308-0.031315-0.06846-0.031315-0.03765 0-0.05048 0.01445-0.02851 0.03211s-0.01994 0.03211-0.09314 0.03211-0.13308-0.012181-0.13308-0.027068c0-0.014888-0.39264-0.030063-0.87252-0.033723-0.47989-0.00366-0.87249 0.00491-0.87245 0.019041 0 0.014133-0.29322 0.021315-0.65171 0.01596-0.35848-0.00536-0.68571 0.00363-0.72718 0.019959-0.04147 0.016331-0.13355 0.024382-0.20466 0.017889-0.18719-0.017096-1.8722-0.017043-2.7953 9.6e-5 -0.57715 0.010709-0.792 0.00453-0.79273-0.022809-6.49e-4 -0.024003-0.01809-0.025832-0.04848-0.00508-0.02612 0.017829-0.23653 0.034151-0.46759 0.036271-0.85833 0.00786-2.7161 0.076875-3.7809 0.14044-1.893 0.11301-2.2376 0.12689-3.1669 0.12752-0.49766 3.403e-4 -1.355-0.022541-1.9053-0.050849-0.83681-0.043061-1.1645-0.045589-2.0036-0.015466-0.55173 0.019807-1.454 0.050919-2.0049 0.069139-0.96876 0.032033-1.9231 0.094528-2.1422 0.14028-0.063498 0.01326-0.11947 0.0051765-0.13903-0.020077zm52.371-0.39892c0-0.00694-0.04363-0.012619-0.09695-0.012619s-0.09695 0.013996-0.09695 0.031102 0.04363 0.022785 0.09695 0.012619c0.05332-0.010165 0.09695-0.024161 0.09695-0.031102zm0.43626-0.066864c-0.06222-0.00808-0.164-0.00808-0.22621 0-0.06222 0.00808-0.01132 0.014685 0.1131 0.014685 0.1244 0 0.17531-0.00661 0.11312-0.014685zm-34.256-0.061485c-0.02148-0.01067-0.07722-0.011811-0.12387-0.00254-0.05156 0.01025-0.03624 0.017858 0.03905 0.0194 0.06814 0.00139 0.10632-0.0062 0.08483-0.016865zm23.382-0.01271c-0.0711-0.015178-0.18743-0.027596-0.25852-0.027596h-0.12926l0.12926 0.027597c0.0711 0.015178 0.18743 0.027597 0.25852 0.027597h0.12926zm-0.87252-0.064219c-0.12657-0.040638-0.21213-0.040638-0.16158 0 0.02197 0.01766 0.08914 0.031889 0.14923 0.031618 0.0942-4.238e-4 0.09589-0.00479 0.01241-0.031618zm0.30566 0.01271c-0.02148-0.01067-0.07722-0.011811-0.12387-0.00254-0.05156 0.01025-0.03624 0.017858 0.03905 0.0194 0.06814 0.0014 0.1063-0.00619 0.08483-0.016864zm0.28729-0.11629c-0.03555-0.017661-0.09935-0.021447-0.14178-0.00842-0.05863 0.018-0.05684 0.029934 0.0074 0.04967 0.11024 0.033854 0.21858 5.938e-4 0.13435-0.041253zm-41.137-0.19143c-0.020632-0.025615-0.035946-0.018006-0.039048 0.0194-0.00281 0.033849 0.012469 0.052814 0.033944 0.042144 0.021477-0.01067 0.023773-0.038365 0.0051-0.061544zm53.515-0.35321c-0.02063-0.025615-0.03594-0.018006-0.03905 0.0194-0.0028 0.033849 0.01242 0.052814 0.03395 0.042144 0.02148-0.01067 0.02378-0.038365 5e-3 -0.061544zm0.02048-0.19043c0-0.017661-0.02909-0.02318-0.06464-0.012265s-0.06464 0.034294-0.06464 0.051954c0 0.017661 0.02909 0.02318 0.06464 0.012265s0.06464-0.034294 0.06464-0.051954zm-0.02048-0.13067c-0.02063-0.025615-0.03594-0.018006-0.03905 0.0194-0.0028 0.033849 0.01242 0.052814 0.03395 0.042144 0.02148-0.01067 0.02378-0.038365 5e-3 -0.061544zm-54.355-1.2523c-0.020632-0.025615-0.035946-0.018006-0.039048 0.0194-0.002808 0.033849 0.012469 0.052814 0.033946 0.042144 0.021476-0.01067 0.023772-0.038365 0.005102-0.061544zm45.844-1.8242c-0.05332-0.01712-0.12602-0.031126-0.16158-0.031126-0.03555 0-0.02101 0.014007 0.03233 0.031126 0.05332 0.01712 0.12602 0.031126 0.16158 0.031126 0.03555 0 0.02101-0.014007-0.03233-0.031126zm-5.8815-0.06422c0-0.01766-0.02909-0.03211-0.06464-0.03211s-0.06464 0.014449-0.06464 0.03211 0.02909 0.03211 0.06464 0.03211 0.06464-0.014449 0.06464-0.03211zm1.4865 0.01949c0-0.03046-0.19346-0.045812-0.22795-0.018088-0.02101 0.016889 0.02169 0.030708 0.09489 0.030708s0.13308-0.005678 0.13308-0.01262zm-17.257-0.0516c0-0.01766-0.0308-0.03211-0.06846-0.03211-0.03765 0-0.05048 0.014449-0.02851 0.03211 0.02197 0.01766 0.05277 0.03211 0.06846 0.03211 0.01572 0 0.02851-0.014449 0.02851-0.03211zm0.90484 0c0-0.01766-0.01289-0.03211-0.02851-0.03211-0.01572 0-0.04649 0.014449-0.06846 0.03211-0.02197 0.01766-0.0091 0.03211 0.02851 0.03211 0.03765 0 0.06846-0.014449 0.06846-0.03211zm-3.4255-0.03211c0-0.01766-0.02909-0.03211-0.06464-0.03211s-0.06464 0.01445-0.06464 0.03211 0.02909 0.03211 0.06464 0.03211 0.06464-0.01445 0.06464-0.03211zm-9.824-0.05191c0-0.00677-0.05817-0.01231-0.12926-0.01231-0.07109 0-0.12926 0.013097-0.12926 0.029104s0.05817 0.021546 0.12926 0.01231c0.0711-0.009237 0.12926-0.022333 0.12926-0.029104z">
<animate attributeName="display" begin="0s" dur="0.5s" keyTimes="0;0.5;1" repeatCount="indefinite" values="inline;none;none"/>
</path>
<path d="m35.181 4.978c-0.41391-0.0078-0.69611-0.0215-0.62713-0.0305 0.09933-0.01295 0.10336-0.01695 0.01938-0.01935-0.05834-0.0015-0.11909 0.0057-0.13502 0.01635-0.01595 0.01065-0.44798 0.0117-0.96007 0.0025-0.51209-0.0094-1.1568-0.0192-1.4328-0.02185-0.47654-0.0045-1.305-0.02695-2.9162-0.07867-0.39666-0.01275-0.82398-0.02305-0.9496-0.0229-0.12562 1.55e-4 -0.80292-0.01685-1.5051-0.0378-0.70219-0.02095-2.0951-0.04525-3.0954-0.05404-1.0003-0.0088-2.2138-0.02695-2.6967-0.0404-1.1781-0.0328-6.3448-0.08227-6.5972-0.06317-0.25305 0.01915-3.0087 0.02135-3.2901 0.0025-0.11526-0.0077-0.83042-0.0262-1.5892-0.0412-1.4051-0.0278-1.9169-0.0453-3.4179-0.11706-0.52782-0.02525-1.4134-0.04111-2.3517-0.04221-1.624-2e-3 -2.4785-0.0226-2.9024-0.07045-0.26716-0.03015-0.31881-0.09753-0.053743-0.07012 0.12297 0.0127 0.12498 0.01105 0.024278-0.01995-0.06036-0.0186-0.10975-0.05377-0.10975-0.07818 0-0.0279-0.094101-0.05958-0.25329-0.0853-0.26232-0.0424-0.23843-0.0827 0.049473-0.08351 0.077607-2.1e-4 0.1411-0.01105 0.1411-0.0241 0-0.013 0.016773-0.04495 0.037272-0.07094 0.022683-0.02875 0.016546-0.03585-0.015679-0.01805-0.029123 0.01605-0.1235 0.02935-0.20973 0.02955-0.08623 1.8e-4 -0.19911 0.0045-0.25085 0.0095-0.079834 0.0078-0.093895-0.03967-0.092919-0.3133 0.0012101-0.33886 0.11788-1.0071 0.22478-1.2874 0.062318-0.16342 0.18544-0.276 0.26572-0.24297 0.022775 0.0094 0.041409-0.0015 0.041409-0.0238 0-0.02245-0.028792-0.0448-0.063983-0.0496-0.04312-0.0059-0.04389-0.05235-0.00236-0.14243 0.053422-0.11587 0.067278-0.47664 0.041907-1.0913-0.008663-0.20986 0.1849-0.51867 0.31247-0.49854 0.048535 0.0077 0.088243 1e-3 0.088243-0.0146 0-0.0157-0.032923-0.02855-0.073164-0.02855-0.23916 0 0.17517-0.04826 0.49648-0.05785 0.13165-4e-3 0.08754-0.04471-0.082883-0.07666-0.12995-0.02435-0.17192-0.02315-0.21608 0.0063-0.030146 0.02005-0.074478 0.0284-0.098514 0.0185-0.024037-0.0099-0.009033-0.03515 0.033344-0.05617 0.042377-0.021 0.058844-0.0503 0.036592-0.06511-0.05528-0.03679 0.067415-0.03339 0.43054 0.0119 0.27167 0.0339 2.1815 0.19348 3.6755 0.30712 0.58876 0.0448 1.7295 0.1006 2.9789 0.14575 1.1889 0.04295 6.2468 0.06064 7.4942 0.0262 5.4308-0.15001 13.582-0.14396 19.159 0.01425 0.75883 0.0215 1.9018 0.044 2.5399 0.05001 0.6381 6e-3 1.4706 0.0225 1.85 0.0367s0.93556 0.03075 1.2359 0.0368c0.30032 6e-3 0.64024 0.02495 0.75538 0.04205 0.17085 0.0254 0.2918 0.0234 0.65789-0.0108 0.51806-0.04846 1.0791-0.05338 1.6153-0.0141 0.20695 0.01515 0.57458 0.0365 0.81694 0.04745s0.49895 0.03275 0.57019 0.04841c0.08584 0.0189 0.66889 0.0276 1.7287 0.02585 1.4072-0.0025 1.6248 0.0025 1.8129 0.04245 0.274 0.0578 1.3014 0.08937 3.5376 0.10871 1.235 0.01065 1.7376 0.024 1.8573 0.0493 0.24788 0.05238 0.63531 0.38732 0.89313 0.77211 0.26588 0.39683 0.34193 0.5895 0.35639 0.90287 0.0059 0.12769 0.01846 0.29874 0.02794 0.3801 0.0099 0.08534-0.0072 0.14173-0.04048 0.13327-0.03318-0.0085-0.04033 0.0138-0.01687 0.05232 0.02306 0.0378 0.0095 0.08251-0.03104 0.10263-0.03954 0.0196-0.06759 0.04556-0.0623 0.05771 0.0053 0.01215 0.0048 0.02785-0.0012 0.03495-0.0061 0.0071-0.02396 0.16076-0.04004 0.34147-0.01613 0.18072-0.05865 0.3604-0.0946 0.39931-0.0458 0.04956-0.04541 0.07347 0.0012 0.07986 0.15547 0.0213 0.05949 0.07286-0.11594 0.06227-0.13866-0.0084-0.19974 2e-3 -0.254 0.04391-0.03929 0.0302-0.09825 0.0481-0.13101 0.03975-0.03276-0.0083-0.05956-3e-3 -0.05956 0.01215 0 0.01505 0.04257 0.0273 0.0946 0.0273 0.16856 0-0.03481 0.09698-0.23852 0.11374-0.15884 0.01305-0.17807 0.0237-0.14394 0.07965 0.02273 0.03725 0.01247 0.06457-0.02451 0.06457-0.03514 0-0.06391-0.011-0.06391-0.0245 0-0.01345-0.09786-0.0077-0.21748 0.0129-0.28032 0.04821-0.91216 0.04881-1.0709 1e-3 -0.08408-0.0253-0.1549-0.02885-0.23278-0.0117-0.06156 0.01355-0.14394 0.0165-0.18304 0.0065-0.04499-0.01145-0.05372-0.0065-0.02376 0.01345 0.03188 0.0212 0.0093 0.02885-0.0687 0.02335-0.06697-0.0045-0.10941 0.0055-0.10036 0.02405 0.0086 0.01775-0.02833 0.03225-0.0821 0.03225s-0.08034-0.0116-0.05902-0.0258c0.0213-0.0142 0.0088-0.0258-0.02766-0.0258-0.03654 0-0.0664 0.0101-0.0664 0.0224s-0.08466 0.01835-0.18814 0.0134c-0.10347-5e-3 -0.18814 0.0025-0.18814 0.0163 0 0.0311-0.13986 0.02185-0.20286-0.0134-0.02855-0.016-0.04644-0.0135-0.04702 0.0064-5.09e-4 0.01775-0.06915 0.03225-0.15252 0.03225-0.08334 0-0.16579 0.0145-0.18319 0.03225-0.0207 0.0211-0.03335 0.02205-0.03658 0.0025-0.0035-0.0202-0.07275-0.02325-0.2196-0.0096-0.12921 0.012-0.24008 0.0095-0.27855-0.0064-0.0434-0.01785-0.13354-0.0127-0.28086 0.01605-0.23924 0.04671-0.31532 0.0529-0.26876 0.0219 0.01687-0.01125-0.02438-0.02215-0.09172-0.02425-0.06734-2e-3 -0.10606 0.0071-0.08602 0.02045 0.04754 0.03165-0.01247 0.03075-0.16326-0.0025-0.08362-0.0184-0.12129-0.0184-0.12129 0 0 0.0147-0.02988 0.0267-0.0664 0.0267s-0.04523-0.0145-0.01931-0.03225c0.03694-0.0253 0.02712-0.0256-0.04552-0.0015-0.05095 0.01695-0.1904 0.0306-0.30992 0.03035-0.18212-3.9e-4 -0.68301 5e-4 -1.0639 2e-3 -0.05174 2.05e-4 -0.32689 1e-3 -0.61145 2e-3 -0.35826 1e-3 -0.51768 0.01125-0.51834 0.03275-6.31e-4 0.0205-0.01978 0.0188-0.05645-0.0051-0.0444-0.02885-0.17778-0.0326-0.66838-0.0188-0.33709 0.0095-0.65034 0.03-0.69612 0.04566-0.06076 0.02075-0.08322 0.0206-0.08322-5e-4 0-0.0159-0.06351-0.02875-0.14109-0.02855-0.11411 3.2e-4 -0.12311 0.0052-0.04703 0.0254 0.08039 0.02135 0.07812 0.02505-0.01577 0.0254-0.06035 2.05e-4 -0.11018-0.0141-0.11072-0.03185-7.06e-4 -0.0236-0.0154-0.02285-0.05513 3e-3 -0.04572 0.0297-0.05945 0.0297-0.08816 0-0.02415-0.02495-0.03544-0.0258-0.03896-3e-3 -0.0027 0.01775-0.03483 0.03225-0.07135 0.03225-0.03654 0-0.04976-0.0111-0.02937-0.02465 0.02228-0.01485-0.12622-0.02335-0.37258-0.0214-0.22529 2e-3 -0.40961 0.0148-0.40961 0.02895s-0.01857 0.01805-0.04127 0.0087c-0.0227-0.0094-0.07915-4e-3 -0.12544 0.01175-0.06507 0.0222-0.08417 0.01825-0.08417-0.0174 0-0.0254-0.01705-0.03915-0.0378-0.0306-0.02079 0.0086-0.10545 5e-3 -0.18814-8e-3 -0.09495-0.01485-0.15033-0.01425-0.15033 0.0015 0 0.01385-0.02117 0.0238-0.04702 0.0221-0.02587-0.0015-0.46241-0.0015-0.97008 0-0.73031 0.0025-0.9165 0.0101-0.8917 0.03665 0.02244 0.02405-0.04503 0.03475-0.23714 0.0376-0.19537 3e-3 -0.23433-2e-3 -0.14306-0.0175 0.06899-0.0118 0.14465-0.01695 0.16814-0.0114 0.02349 0.0056 0.0614-0.0025 0.08426-0.01755 0.02814-0.01875-0.08673-0.02615-0.35627-0.023-0.53924 0.0063-0.7765 0.0251-0.66941 0.05305 0.05412 0.0141 0.0062 0.02125-0.13603 0.02035-0.17936-1e-3 -0.19655-0.0055-0.09407-0.0236 0.06899-0.0122 0.11132-0.0237 0.09407-0.02555-0.13404-0.01445-2.0695-0.01125-2.0695 0.0035 0 0.01035 0.09172 0.02355 0.20382 0.02925 0.29932 0.0153-1.8657 0.01065-2.7437-0.0059zm2.127-0.03055c-0.03856-0.02565-0.33965-0.0191-0.33965 0.0074 0 0.01015 0.08369 0.01745 0.18598 0.01625 0.10228-1e-3 0.17144-0.01185 0.15367-0.02365zm0.31884 0.0035c-0.02132-0.0142-0.07942-0.0258-0.12912-0.0258-0.0497 0-0.09036 0.0116-0.09036 0.0258s0.05812 0.0258 0.12912 0.0258c0.071 0 0.11169-0.0116 0.09036-0.0258zm3.0043-0.20245c0.03016-0.02005-2.2967-0.01165-2.4399 0.0089-0.03449 5e-3 0.49298 0.0099 1.1722 0.011 0.67919 1e-3 1.2497-0.0078 1.2677-0.01985zm0.77412-0.0217c-0.06035-0.0065-0.15913-0.0065-0.21949 0-0.06035 0.0065-0.011 0.0118 0.10974 0.0118 0.12072 0 0.17012-0.0053 0.10974-0.0118zm0.53306-4.11e-4c-0.07761-0.0061-0.2046-0.0061-0.28221 0-0.0776 0.0062-0.01412 0.0112 0.14109 0.0112 0.15521 0 0.21871-0.0051 0.14109-0.0112zm1.0504-0.0076c0-0.0308-0.17065-0.0308-0.34492 0-0.10061 0.0178-0.07891 0.02255 0.10974 0.024 0.12934 1e-3 0.23517-0.0098 0.23517-0.024zm0.68982-5e-3c1.3e-5 -0.0098-0.14108-0.0174-0.31354-0.01685-0.17246 5.01e-4 -0.31356 0.01105-0.31356 0.0233s0.14109 0.01985 0.31354 0.01685c0.17244-3e-3 0.31355-0.0135 0.31356-0.0233zm0.61147-0.0128c-0.06035-0.0065-0.15913-0.0065-0.21949 0-0.06035 0.0065-0.011 0.0118 0.10974 0.0118 0.12071 0 0.17012-0.0053 0.10974-0.0118zm0.40883 1e-3c-0.04246-0.0071-0.1271-0.0075-0.18814-1e-3 -0.06101 0.0066-0.02627 0.0123 0.0772 0.01285 0.10347 5e-4 0.1534-5e-3 0.11094-0.0119zm0.48483-0.0081c0-0.01375-0.04233-0.0183-0.09407-0.01015-0.05174 0.0082-0.09407 0.0194-0.09407 0.025s0.04235 0.01015 0.09407 0.01015c0.05174 0 0.09407-0.01125 0.09407-0.025zm0.25085 0c0-0.01375-0.04233-0.0183-0.09407-0.01015-0.05174 0.0082-0.09407 0.0194-0.09407 0.025s0.04233 0.01015 0.09407 0.01015 0.09407-0.01125 0.09407-0.025zm0.18814-1e-3c0-0.0142-0.01247-0.0258-0.02766-0.0258-0.01522 0-0.0451 0.0116-0.0664 0.0258s-0.0088 0.0258 0.02766 0.0258c0.03652 0 0.0664-0.0116 0.0664-0.0258zm0.5017-0.01565c0-0.0056-0.04233-0.01015-0.09407-0.01015s-0.09407 0.01125-0.09407 0.025 0.04235 0.0183 0.09407 0.01015c0.05174-0.0082 0.09407-0.0194 0.09407-0.025zm0.62713-2.6e-4c0-0.0055-0.05645-0.0099-0.12544-0.0099-0.06899 0-0.12544 0.0105-0.12544 0.0234 0 0.01285 0.05645 0.0173 0.12544 0.0099 0.06899-0.0074 0.12544-0.01795 0.12544-0.0234zm1.1288 0.03035c0-0.0063-0.02822-0.01855-0.06272-0.0273-0.03448-0.0088-0.06272-0.0035-0.06272 0.0114 0 0.015 0.02822 0.0273 0.06272 0.0273 0.03449 0 0.06272-0.0051 0.06272-0.01135zm0.43899-0.0144c0-0.0142-0.01247-0.0258-0.02766-0.0258-0.01522 0-0.0451 0.0116-0.0664 0.0258s-0.0088 0.0258 0.02766 0.0258c0.03652 0 0.0664-0.0116 0.0664-0.0258zm2.3661-0.0414c-0.02085-0.0086-0.07493-0.0095-0.12019-2e-3 -0.05001 0.0083-0.03516 0.01435 0.03789 0.0156 0.06611 1e-3 0.10314-5e-3 0.08232-0.01355zm-21.807-0.08759c0-0.0142-0.02821-0.0258-0.06272-0.0258-0.03449 0-0.06272 0.0116-0.06272 0.0258s0.02821 0.0258 0.06272 0.0258c0.03449 0 0.06272-0.0116 0.06272-0.0258zm0.43899 0.0159c0-0.0055-0.07056-0.01545-0.15679-0.0222-0.08622-0.0068-0.15679-0.0025-0.15679 0.0099 0 0.0122 0.07056 0.0222 0.15679 0.0222 0.08622 0 0.15679-0.0045 0.15679-0.0099zm-8.87-0.14748c0.0143-0.0096-0.03008-0.02335-0.09867-0.03075-0.07115-0.0076-0.12512-5e-4 -0.12568 0.0164-6.3e-4 0.01965-0.01668 0.02075-0.04703 3e-3 -0.02964-0.01715-0.77257-0.0289-2.0842-0.033-1.1509-0.0035-2.0031 0.0035-1.9577 0.01575 0.04427 0.0122 0.80563 0.02485 1.6919 0.02815 0.88628 0.0035 1.6255 0.01175 1.6426 0.0188 0.04589 0.0189 0.94826 0.0015 0.9788-0.01865zm-4.4565-0.0232c0.02206-0.0147-0.03193-0.0258-0.12543-0.0258-0.09348 0-0.14749 0.0111-0.12543 0.0258 0.02131 0.0142 0.07775 0.0258 0.12543 0.0258 0.04766 0 0.10411-0.0116 0.12543-0.0258zm-9.94-0.33529c0-0.0142-0.028221-0.0258-0.062713-0.0258s-0.062715 0.0116-0.062715 0.0258 0.02822 0.0258 0.062715 0.0258c0.034491 0 0.062713-0.0116 0.062713-0.0258zm48.5-0.11608c-0.03932-0.04215-0.14812-0.05321-0.14812-0.01505 0 0.01955 0.04395 0.0329 0.17048 0.0517 0.0075 1e-3 -0.0026-0.01535-0.02238-0.03665zm-33.605-0.21927c0.02132-0.0142 0.01045-0.0258-0.02394-0.0258-0.03449 0-0.08015 0.0116-0.10148 0.0258-0.02132 0.0142-0.01045 0.0258 0.02394 0.0258 0.03449 0 0.08015-0.0116 0.10148-0.0258zm33.426-0.33535c0.02132-0.0142 0.0088-0.0258-0.02767-0.0258-0.03652 0-0.0664 0.0116-0.0664 0.0258s0.01247 0.0258 0.02766 0.0258c0.01522 0 0.0451-0.0116 0.0664-0.0258zm0.28221-0.07739c0-0.0142-0.02988-0.0258-0.0664-0.0258-0.03654 0-0.04899 0.0116-0.02766 0.0258 0.0213 0.0142 0.05121 0.0258 0.0664 0.0258 0.01522 0 0.02766-0.0116 0.02766-0.0258zm-0.06272-0.08876c0-0.0063-0.02822-0.01855-0.06272-0.0273-0.03448-0.0088-0.06272-0.0035-0.06272 0.0114 0 0.015 0.02821 0.0273 0.06272 0.0273 0.03449 0 0.06272-0.0051 0.06272-0.01135zm0.12542-0.13164c0-3e-3 -0.04233-0.0199-0.09407-0.03755-0.07628-0.02605-0.09407-0.025-0.09407 0.0055 0 0.02065 0.04233 0.03755 0.09407 0.03755s0.09407-0.0025 0.09407-0.0055zm0.0066-0.12139c0.01302-0.06332-0.01969-0.18744-0.05583-0.21164-0.02022-0.01355-0.04015-0.05417-0.04427-0.09029-0.02475-0.21598-0.03461-0.23335-0.13273-0.23335-0.07212 0-0.08738 0.01285-0.05364 0.04515 0.02592 0.0248 0.04373 0.06546 0.03955 0.09028-0.0042 0.0248-0.0062 0.06546-0.0046 0.09029 0.0016 0.0248 0.0061 0.09447 0.0097 0.15478 0.0038 0.0603 0.02994 0.10963 0.05823 0.10963s0.05143 0.0174 0.05143 0.0387c0 0.0465 0.1226 0.0525 0.13207 0.0065zm-0.25842-0.59331c0.0015 0.04996 0.10468 0.038 0.11165-0.0129 0.01045-0.07615-0.12496-0.42972-0.18022-0.47078-0.03907-0.029-0.05278-0.02255-0.05494 0.0258-0.0022 0.04996-0.01595 0.05594-0.06122 0.02655-0.03208-0.02085-0.07738-0.0301-0.10063-0.02055-0.06188 0.02545 0.02609 0.14878 0.1061 0.14878 0.03753 0 0.05197-0.0174 0.03214-0.0387-0.01985-0.0213-0.0088-0.0387 0.02464-0.0387 0.0334 0 0.06112 0.0203 0.0616 0.04516 5.1e-4 0.0248 0.01668 0.06953 0.03623 0.09934 0.02022 0.031-0.0042 0.07046-0.05698 0.09218-0.0574 0.0236-0.07981 0.06501-0.05916 0.1094 0.024 0.05163 0.04796 0.06182 0.08651 0.0368 0.03969-0.02575 0.05359-0.02635 0.05429-0.0025zm-0.09579-0.19814c0.01985-0.0132 0.0073-0.0313-0.02766-0.0402-0.03505-0.0089-0.06374 2e-3 -0.06374 0.024 0 0.0453 0.03764 0.05198 0.09139 0.0162zm-0.21327-0.38363c-0.03137-0.04501-0.03432-0.08755-0.0066-0.09461 0.02776-0.0071 0.0673 0.0218 0.08789 0.06414 0.02059 0.04236 0.06371 0.07697 0.09585 0.07697 0.03438 0 0.03067-0.03715-9e-3 -0.09029-0.04495-0.06025-0.10558-0.09028-0.18227-0.09028-0.0632 0-0.1149-0.0116-0.1149-0.0258s-0.02572-0.0258-0.05716-0.0258c-0.07194 0-0.05368 0.0474 0.04741 0.12307 0.04307 0.0322 0.05924 0.07124 0.03599 0.08672-0.02326 0.0155-0.0042 0.0378 0.04231 0.04966 0.11752 0.0299 0.12573 0.01985 0.06045-0.07378zm-52.997-0.18074c-7.501e-4 -0.0543-0.014203-0.06099-0.061753-0.0307-0.080078 0.05097-0.080078 0.13644 0 0.11608 0.034492-0.0088 0.062281-0.04716 0.061753-0.08536zm31.357 0.02085c0-0.0142-0.02821-0.0258-0.06272-0.0258-0.03449 0-0.06272 0.0116-0.06272 0.0258s0.02822 0.0258 0.06272 0.0258c0.03448 0 0.06272-0.0116 0.06272-0.0258zm21.448-0.09181c0-0.0221-0.02822-0.03305-0.06272-0.02425-0.03448 0.0088-0.06272 0.02685-0.06272 0.04021 0 0.01335 0.02821 0.02425 0.06272 0.02425 0.03449 0 0.06272-0.0181 0.06272-0.0402zm-52.824-0.067784c-0.020021-0.0206-0.034881-0.01445-0.03789 0.0156-0.00272 0.0272 0.0121 0.04245 0.032938 0.03385 0.02084-0.0086 0.023067-0.0308 0.00495-0.04946zm52.858-0.08143c0.07374 0.01165 0.0774 2.65e-4 0.0213-0.06592-0.03727-0.044-0.09235-0.07998-0.12239-0.07998-0.03003 0-0.03823 0.01755-0.01815 0.039 0.02002 0.02145 0.0018 0.05614-0.04033 0.07706-0.04571 0.02265-0.05676 0.05643-0.02734 0.08351 0.04393 0.0404 0.05208 0.0392 0.07364-0.01115 0.01558-0.0363 0.05621-0.05157 0.11334-0.04255zm-0.09691-0.19749c0-0.0142-0.02822-0.0258-0.06272-0.0258-0.03448 0-0.06272 0.0116-0.06272 0.0258s0.02821 0.0258 0.06272 0.0258c0.03449 0 0.06272-0.0116 0.06272-0.0258zm-7.1179-0.07739c0.0213-0.0142 0.0088-0.0258-0.02766-0.0258-0.03654 0-0.0664 0.0116-0.0664 0.0258s0.01247 0.0258 0.02767 0.0258c0.01522 0 0.0451-0.0116 0.0664-0.0258zm-2.8848-0.05159c0.02132-0.0142-7e-3 -0.0258-0.06272-0.0258-0.05582 0-0.08402 0.0116-0.06272 0.0258s0.04954 0.0258 0.06272 0.0258c0.0132 0 0.0414-0.0116 0.06272-0.0258zm-1.2856-0.0516c0-0.0142 0.10584-0.02595 0.23517-0.0262 0.17494-2.95e-4 0.21108-0.0068 0.14109-0.0254-0.05174-0.01375-0.18249-0.0252-0.29057-0.0254-0.14423-2.9e-4 -0.20523 0.01335-0.2293 0.0512-0.02132 0.0335-0.0018 0.05159 0.05539 0.05159 0.04851 0 0.0882-0.0116 0.0882-0.0258zm-8.4348-0.20644c0.02557-0.01705 0.0858-0.016 0.17616 3e-3 0.1285 0.02705 0.13072 0.02605 0.03454-0.0155-0.10457-0.04516-0.36759-0.03495-0.36759 0.01425 0 0.032 0.10793 0.03075 0.1569-2e-3zm1.149-0.04951c0.06523 0.0015 0.07539 7e-3 0.02677 0.01505-0.18201 0.0302-0.05517 0.06024 0.25085 0.05939 0.31713-1e-3 0.32348-0.0025 0.17246-0.0378-0.15592-0.03665-0.15539-0.03685 0.09093-0.0378 0.44673-0.0015 0.15152-0.0489-0.39933-0.06395-0.29034-0.0079-0.54197-0.0202-0.55919-0.0273-0.01723-0.0071 0.26032-0.01285 0.61673-0.01285 0.35642 0 0.63185-0.0067 0.61208-0.0148-0.04195-0.01725-0.29545-0.024-2.3888-0.06345-1.5236-0.02875-2.0249-0.02345-1.2044 0.0127 0.23672 0.0104 0.39527 0.0286 0.37384 0.04285-0.02046 0.0136-0.08422 0.0187-0.14168 0.01135-0.05746-0.0074-0.3538-0.01635-0.65853-0.01995-0.5872-0.0069-0.8219-0.04395-0.31194-0.04921l0.30159-3e-3 -0.36719-0.02425c-0.37379-0.0247-0.51851-0.01175-0.35219 0.0315 0.11524 0.03 0.11975 0.02985-0.75437 0.0219-0.94499-0.0086-1.0037-0.0073-1.0769 0.02275-0.0462 0.019 0.04981 0.02415 0.31996 0.0172 0.29131-0.0075 0.37536-2e-3 0.34274 0.0216-0.03254 0.02375-0.02235 0.0236 0.04123-5e-4 0.09057-0.03455 0.27418-0.04505 0.22583-0.0129-0.01595 0.01065 0.2716 0.02055 0.6391 0.02205 1.3998 0.0057 1.9332 0.0245 2.1207 0.0747 0.13954 0.03735 0.16014 0.0387 0.09533 0.0061-0.07297-0.03665-0.05936-0.04125 0.11535-0.0392 0.1391 0.0015 0.21386 0.0184 0.25118 0.05637 0.03918 0.03985 0.05418 0.0429 0.05711 0.01165 0.0022-0.0233 0.03925-0.04775 0.08235-0.05428 0.14746-0.0224 1.302 0.02525 1.2924 0.0533-0.01522 0.04481 0.02662 0.06413 0.0521 0.024 0.01577-0.02485 0.07599-0.04425 0.13382-0.0431zm-2.4347 0.02375c0-0.0142-0.04939-0.0256-0.10974-0.0254-0.09378 3.4e-4 -0.09609 4e-3 -0.01577 0.0254 0.11834 0.03145 0.12544 0.03145 0.12544 0zm-1.1288-0.0258c0-0.0142-0.01247-0.0258-0.02766-0.0258-0.01522 0-0.0451 0.0116-0.0664 0.0258s-0.0088 0.0258 0.02766 0.0258c0.03654 0 0.0664-0.0116 0.0664-0.0258zm0.21682 2e-3c0.01985-0.0132 0.0073-0.0313-0.02766-0.0402-0.03505-0.0089-0.06375 2e-3 -0.06375 0.024 0 0.0453 0.03764 0.05198 0.09139 0.0162zm-4.2932-0.0276c0-0.0142-0.04939-0.0256-0.10974-0.0254-0.09378 3.35e-4 -0.09609 4e-3 -0.01577 0.0254 0.11834 0.03145 0.12544 0.03145 0.12544 0zm0.68984 0c0-0.0142-0.05812-0.0258-0.12912-0.0258-0.071 0-0.11169 0.0116-0.09036 0.0258 0.0213 0.0142 0.07942 0.0258 0.12912 0.0258 0.0497 0 0.09037-0.0116 0.09037-0.0258zm0.47035 0c0.02198-0.01465-0.03071-0.0258-0.12172-0.0258-0.08827 0-0.16049 0.0116-0.16049 0.0258s0.05478 0.0258 0.12172 0.0258c0.06694 0 0.13917-0.0116 0.16049-0.0258zm0.7212 0c-0.1227-0.0326-0.25085-0.0326-0.25085 0 0 0.0142 0.07761 0.0256 0.17246 0.0254 0.13438-3.1e-4 0.15169-0.0059 0.07838-0.0254zm0.21207-0.01425c0.02141-0.02295 0.01082-0.0333-0.02466-0.02425-0.0341 0.0087-0.06198 0.0267-0.06198 0.04005 0 0.0371 0.04494 0.02895 0.08663-0.01575zm-4.0219-3e-3c-0.04312-0.0072-0.11367-0.0072-0.15679 0-0.04312 0.0071-0.0079 0.013 0.07839 0.013 0.08622 0 0.1215-0.0059 0.07837-0.013zm1.2856-5e-4c-0.06035-0.0065-0.15913-0.0065-0.2195 0-0.06035 0.0065-0.011 0.0118 0.10974 0.0118 0.12072 0 0.17012-0.0053 0.10974-0.0118zm-13.86-0.0356c0.5605 2.55e-4 1.0191-0.0096 1.0191-0.0218 0-0.01225-0.03528-0.02175-0.07839-0.0211-0.20969 3e-3 -0.29789-0.0103-0.29789-0.04561 0-0.03225-0.12659-0.0387-0.76301-0.0387-0.41965 0-0.75125 0.0045-0.73688 0.01015 0.01437 0.0056 0.31626 0.0156 0.67086 0.0223 0.3546 0.0067 0.66349 0.01985 0.68642 0.0293 0.04778 0.01965-3.1426 0.01335-4.2945-0.0085-0.6957-0.0132-0.92728 5.01e-4 -0.67588 0.04031 0.17908 0.02825 1.519 0.05107 2.479 0.0422 0.53463-5e-3 1.4306-0.0088 1.9911-0.0086zm1.4581-0.02405c0-0.0142-0.02822-0.0258-0.06271-0.0258s-0.06271 0.0116-0.06271 0.0258 0.02822 0.0258 0.06271 0.0258 0.06271-0.0116 0.06271-0.0258zm-6.0831-0.03365c0-0.024-0.12712-0.0351-0.44291-0.03885-0.3138-0.0035-0.43024 3e-3 -0.39946 0.0237 0.025868 0.0172 0.14807 0.02405 0.30205 0.0169 0.14223-0.0066 0.31493-3e-3 0.38378 0.0081 0.068849 0.01105 0.13224 0.0209 0.14086 0.0219 0.00863 1e-3 0.015675-0.0133 0.015675-0.0318zm19.065-0.0207c0-0.01265-0.18344-0.02305-0.40763-0.02305-0.24281 0-0.40764 0.01095-0.40764 0.0271 0 0.0169 0.10527 0.022 0.2795 0.01355 0.15372-0.0075 0.29573-0.0025 0.31557 0.0105 0.04237 0.0282 0.2202 0.0055 0.2202-0.0281zm0.75255 0.0278c0.01723-0.0025 0.09486-3e-3 0.17246-2.5e-4 0.0776 0.0025 0.14109-0.0078 0.14109-0.02295 0-0.017-0.16859-0.02765-0.43899-0.02765-0.27914 0-0.43899 0.0104-0.43899 0.02855 0 0.0157 0.04233 0.02185 0.09407 0.0137 0.05174-0.0082 0.09407-0.0061 0.09407 0.0045 0 0.01645 0.27882 0.0194 0.37628 4e-3zm0.83085 0.0071c0.01595 0.01965 0.05791 0.01955 0.14454-4.7e-4 0.09973-0.023 0.10487-0.0307 0.02801-0.0419-0.15893-0.02315-0.52138-0.0045-0.54778 0.02825-0.01833 0.02265 0.0257 0.02495 0.1639 0.0087 0.12465-0.0147 0.1965-0.01285 0.21132 0.0055zm-3.1512-0.04781c0-0.0056-0.05812-0.01015-0.12912-0.01015-0.071 0-0.11246 0.0111-0.09205 0.02465 0.03346 0.02225 0.22119 0.01 0.22119-0.01455zm0.62713 0.0109c0-0.0116-0.12866-0.02105-0.28591-0.02105-0.15724 0-0.27279 0.0087-0.25677 0.01935 0.0398 0.02645 0.54268 0.028 0.54268 0.0015zm-19.2-0.02115c-0.046108-0.0097-0.41618-0.0312-0.82237-0.04786-0.62405-0.0256-1.2625-0.06804-2.6166-0.17388-0.15455-0.0121-0.20094-9e-3 -0.15678 0.0104 0.097251 0.04276 1.7405 0.16905 2.8534 0.21928 0.35687 0.0161 0.83292 0.011 0.74232-8e-3zm3.8828 0.0081c-0.06036-0.0065-0.15913-0.0065-0.2195 0-0.06036 0.0065-0.01096 0.0118 0.10975 0.0118 0.12072 0 0.17011-0.0053 0.10975-0.0118zm0.45467-0.01345c0-0.02335-0.22726-0.01285-0.29122 0.01345-0.02398 0.0099 0.03173 0.01535 0.12381 0.01225 0.09208-3e-3 0.16741-0.0147 0.16741-0.0257zm11.163 0.011c0-0.01115-0.05645-0.02025-0.12544-0.02025-0.06899 0-0.12544 0.0091-0.12544 0.02025s0.05645 0.02025 0.12544 0.02025c0.06899 0 0.12544-0.0091 0.12544-0.02025zm0.59677-0.0035c-0.11473-0.01845-0.34592-0.0093-0.34592 0.01375 0 0.0055 0.10582 0.0091 0.23517 0.0081 0.17914-0.0015 0.20552-0.0066 0.11075-0.0218zm0.73588 0.0066c-0.04312-0.0072-0.11367-0.0072-0.15679 0s-0.0079 0.013 0.07838 0.013c0.08622 0 0.1215-0.0059 0.07838-0.013zm0.69071-1e-3c-0.07715-0.0061-0.21824-0.0063-0.31357-3.5e-4 -0.09531 0.0059-0.03221 0.01095 0.14025 0.01115 0.17246 1.95e-4 0.25046-0.0045 0.17332-0.0108zm0.71903 0.0025c-0.02084-0.0086-0.07493-0.0095-0.12019-2e-3 -0.05005 0.0082-0.03516 0.01435 0.0379 0.0156 0.06611 1e-3 0.10314-5e-3 0.08232-0.01355zm5.4103-0.036c0-0.0142-0.02988-0.0258-0.0664-0.0258s-0.04897 0.0116-0.02766 0.0258c0.02132 0.0142 0.0512 0.0258 0.0664 0.0258 0.01522 0 0.02766-0.0116 0.02766-0.0258zm-2.4772-0.0258c0.0231-0.01535-0.04506-0.02475-0.16876-0.0232-0.1951 0.0025-0.19814 4e-3 -0.05075 0.0232 0.08622 0.01135 0.16218 0.0218 0.16876 0.0232 0.0066 0.0015 0.02942-0.0091 0.05075-0.0232zm0.59577-3e-3c0-0.0124-0.07056-0.02255-0.15679-0.02255-0.08622 0-0.15679 0.01015-0.15679 0.02255s0.07057 0.02255 0.15679 0.02255c0.08622 0 0.15679-0.01015 0.15679-0.02255zm1.1236 0.01835c-0.04692-0.01915-0.68053-0.0254-0.72496-0.0071-0.0238 0.0098 0.13545 0.0178 0.35391 0.0178 0.21845 0 0.38542-5e-3 0.37105-0.01065zm0.33566-0.0063c-0.04246-7e-3 -0.1271-0.0075-0.18814-1e-3 -0.06101 0.0066-0.02627 0.0123 0.0772 0.01285 0.10347 5e-4 0.1534-5e-3 0.11094-0.0119zm-4.0475-0.02445c-0.02085-0.0086-0.07493-0.0095-0.12019-2e-3 -0.05003 0.0083-0.03516 0.01435 0.03789 0.0156 0.06611 1e-3 0.10314-5e-3 0.08232-0.01355zm0.56442 0c-0.02084-0.0086-0.07493-0.0095-0.12019-2e-3 -0.05003 0.0083-0.03516 0.01435 0.0379 0.0156 0.06611 1e-3 0.10314-5e-3 0.08232-0.01355zm1.0034 0c-0.02085-0.0086-0.07493-0.0095-0.12019-2e-3 -0.05003 0.0083-0.03516 0.01435 0.03789 0.0156 0.06611 1e-3 0.10314-5e-3 0.08232-0.01355zm-24.504-0.16524c0-0.0142-0.028221-0.0258-0.062713-0.0258s-0.062713 0.0116-0.062713 0.0258 0.028221 0.0258 0.062713 0.0258 0.062713-0.0116 0.062713-0.0258zm-1.3483-0.12672c-0.22448-0.03625-0.53306-0.05313-0.53306-0.0291 0 0.02345 0.20752 0.04301 0.5017 0.04716 0.13907 2e-3 0.14261-6e-5 0.031356-0.01805z">
<animate attributeName="display" begin="0s" dur="0.5s" keyTimes="0;0.5;1" repeatCount="indefinite" values="none;inline;none"/>
</path>
</svg>
