<svg xmlns="http://www.w3.org/2000/svg"><g><path transform="rotate(5 25 25)" d="m 23.796044,52.875894 c -0.31694,-0.03527 -0.7059,-0.102673 -0.86436,-0.149712 -0.15847,-0.04702 -0.43219,-0.118008 -0.60828,-0.157623 -0.198101,-0.0379 -0.379074,-0.14239 -0.5442,-0.211414 -0.20041,-0.03559 -1.2132,-0.468336 -1.25901,-0.537915 -0.0206,-0.03134 -0.14287,-0.102253 -0.27163,-0.15754 -0.12875,-0.05534 -0.23409,-0.130779 -0.23409,-0.167741 0,-0.03696 -0.0435,-0.06719 -0.0967,-0.06719 -1.929101,-2.478101 -2.293549,-2.726402 -3.37231,-4.929195 -0.0333,-0.03993 -0.0605,-0.13228 -0.0605,-0.20517 0,-0.07286 -0.0729,-0.15652 -0.16206,-0.185877 -0.0891,-0.02934 -0.29173,-0.116301 -0.45019,-0.193205 -0.15847,-0.07688 -0.60464,-0.260405 -0.99149,-0.407783 -0.38685,-0.147366 -0.84063,-0.367657 -1.00841,-0.489518 -0.261469,-0.234215 -0.313295,-0.217834 -0.61143,-0.08239 -0.16851,0.07657 -0.71954,0.430239 -1.22451,0.785981 -0.93077,0.655712 -4.4954301,3.089121 -5.0238401,3.429529 -2.05938,1.32666 -3.17198,2.157142 -3.6629,2.73411 -0.14708,0.17285 -0.29323,0.297334 -0.32479,0.276629 -0.0316,-0.02071 -0.0975,-0.237151 -0.14654,-0.480981 -0.049,-0.24383 -0.11632,-0.555023 -0.14952,-0.691525 -0.0585,-0.240625 -0.0504,-0.252878 0.26608,-0.401528 0.17955,-0.0843 0.34175,-0.153325 0.36046,-0.153325 0.0692,0 0.92615,-0.570734 1.10015,-0.7327 0.099,-0.09218 0.29352,-0.227234 0.43218,-0.300106 0.67474,-0.35464 1.86247,-1.284865 2.29562,-1.797936 0.29924,-0.354447 0.72519,-0.731565 1.22451,-1.084123 0.42111,-0.297334 0.78186,-0.564098 0.80166,-0.592819 0.048,-0.06957 2.3174201,-1.709584 2.9744401,-2.149496 0.62275,-0.416967 1.08092,-0.621586 1.25518,-0.560543 0.27708,0.09706 0.63374,0.286707 0.72862,0.387449 0.13265,0.140837 0.77205,0.482363 0.90309,0.482363 0.0571,0 0.32285,0.104358 0.59066,0.23197 -0.393531,-2.351259 -1.604268,-4.906961 -1.92292,-6.838103 l -0.16025,-0.984783 -0.32969,-0.162954 c -0.18133,-0.0896 -0.55826,-0.326203 -0.83762,-0.525713 -0.27936,-0.199521 -0.53103,-0.362775 -0.55926,-0.362775 -0.0282,0 -0.54516,0.236621 -1.14875,0.525822 -0.60359,0.289201 -1.7619101,0.807176 -2.5740401,1.151049 -0.81214,0.343872 -1.57386,0.672349 -1.69271,0.72995 -0.11885,0.05766 -0.45919,0.20735 -0.75631,0.332778 -0.88083,0.371831 -2.06635,0.919227 -2.87781,1.328771 -1.31893,0.665682 -2.03954997,0.987862 -2.12845997,0.951643 -0.0508,-0.02071 -0.10591,-0.287746 -0.13458,-0.652705 -0.0267,-0.3397 -0.0676,-0.718771 -0.0908,-0.842384 -0.0394,-0.209152 -0.018,-0.236411 0.30773,-0.392759 0.19253,-0.0924 0.99832997,-0.487311 1.79065997,-0.877572 0.79233,-0.390261 2.04025,-0.974303 2.77315,-1.297863 1.43302,-0.632657 2.25507,-1.000529 2.48503,-1.112069 0.0792,-0.03844 0.31963,-0.141418 0.53422,-0.228859 0.65722,-0.267796 1.62342,-0.777042 1.6842801,-0.887702 0.0317,-0.05766 0.12892,-0.104779 0.21609,-0.104884 0.0872,-7.4e-5 0.35124,-0.123602 0.58682,-0.274432 0.37946,-0.242948 0.48402,-0.274229 0.91651,-0.274229 0.45358,0 0.51053,0.01943 0.80359,0.274432 0.47692,0.414938 0.50804,0.387235 0.44345,-0.394785 -0.0304,-0.36806 -0.0588,-2.001514 -0.0631,-3.629891 l -0.008,-2.960686 -0.39616,-0.393383 c -0.21789,-0.216362 -0.59131,-0.587661 -0.82982,-0.825119 -0.62755,-0.62476 -1.7015901,-1.659075 -2.2471901,-2.164042 -0.46412,-0.429571 -0.60009,-0.425632 -1.78501,0.05174 -1.48817,0.599477 -7.07867997,2.464222 -7.52711997,2.510707 -0.0862,0.0085 -0.11233,-0.110193 -0.12919,-0.588096 -0.0142,-0.4019 0.004,-0.583053 0.054,-0.549977 0.0487,0.03198 0.0752,-0.09917 0.0752,-0.373136 0,-0.325514 0.0292,-0.439053 0.12719,-0.494744 0.07,-0.03972 0.59667,-0.216022 1.17047997,-0.391706 1.57448,-0.482076 4.18802,-1.427954 5.32908,-1.928673 0.97483,-0.427763 1.2955,-0.517602 1.90942,-0.534955 0.57233,-0.01615 0.5797,-0.01394 0.97932,0.299545 0.22145,0.173709 0.4481101,0.361657 0.5036701,0.417677 0.0556,0.05607 0.35805,0.342735 0.67218,0.637172 0.31413,0.294447 0.7193,0.684592 0.90037,0.867006 0.64157,0.646305 1.21057,1.159714 1.28529,1.159714 0.0416,0 0.0963,-0.146274 0.1214,-0.325047 0.15134,-1.076735 0.37082,-1.754382 0.75929,-2.344303 0.17649,-0.268018 0.30007,-0.556835 0.33045,-0.772284 0.0334,-0.236909 0.11294,-0.408376 0.25521,-0.550179 0.11368,-0.113305 0.20669,-0.264579 0.20669,-0.336165 0,-0.196942 1.53647,-2.482802 2.16401,-3.219475 0.18576,-0.218061 0.35428,-0.463601 0.37448,-0.545625 0.0335,-0.135867 -0.12988,-0.744103 -0.30154,-1.122867 -0.0381,-0.08408 -0.19862,-0.600383 -0.35664,-1.147215 -0.27809,-0.962293 -0.46558,-1.528218 -0.79815,-2.409147 -0.0874,-0.231353 -0.20772,-0.575514 -0.26749,-0.764809 -0.0598,-0.189285 -0.15259,-0.447409 -0.20624,-0.573603 -0.15202,-0.357548 -0.66395,-1.9730248 -0.93308,-2.944513 -0.26045,-0.9400909 -0.37948,-1.3327422 -0.66077,-2.179714 -0.15717,-0.4732201 -0.24361,-0.7194182 -0.45646,-1.3001663 -0.098,-0.2674021 -0.29644,-0.7542556 -0.44215,-1.0847922 -0.0776,-0.1759923 -0.14609,-0.3910905 -0.15226,-0.4780089 -0.006,-0.086853 -0.0359,-0.1580268 -0.0661,-0.1580268 -0.158553,-0.4871764 -0.22264,-0.6446287 -0.26973,-0.8030212 -0.04704,-0.2121845 -0.121562,-0.3105229 -0.19437,-0.4868959 -0.161549,-0.58494622 0.288248,-0.41205811 0.7619,-0.71852658 L 13.091544,0 l 0.0808,0.22613024 c 0.0909,0.25446945 0.70288,1.74538706 1.00318,2.44406856 0.10849,0.2523885 0.26581,0.6481721 0.34962,0.8795264 0.42703,1.1788776 0.51896,1.4469698 0.51896,1.5133426 0,0.039818 0.0625,0.2404327 0.13888,0.445847 0.0764,0.205415 0.22355,0.6832328 0.32702,1.0618045 0.10348,0.3785827 0.21925,0.7480974 0.25729,0.8211384 0.038,0.073049 0.0691,0.1735182 0.0691,0.2232737 0,0.105332 0.59878,1.9031487 0.90033,2.7031576 0.0476,0.126194 0.12722,0.349893 0.17702,0.49712 0.0498,0.147229 0.13273,0.370939 0.1843,0.497131 0.16818,0.411553 0.44532,1.277425 0.80164,2.504519 0.27077,0.932466 0.37718,1.204391 0.47139,1.204573 0.11927,2.22e-4 0.52265,-0.33041 1.11,-0.90983 0.4113,-0.405744 1.01953,-0.879771 1.3614,-1.061009 0.36899,-0.195614 1.19783,-0.437895 1.99174,-0.582202 0.34274,-0.06233 1.15901,-0.303747 1.81392,-0.536566 1.49609,-0.531843 2.49413,-0.755371 3.22101,-0.721394 0.45572,0.02134 0.63316,0.07223 1.0935,0.313802 0.310017,1.019893 1.731483,0.759029 2.19819,1.336809 0.468032,0.419873 0.256548,0.266304 0.64825,0.584561 0.10894,0.06074 0.31153,0.232617 0.45019,0.381937 0.42038,0.45273 0.4815,0.421067 1.65668,-0.858226 0.57444,-0.625322 1.10926,-1.231574 1.1885,-1.347235 0.18004,-0.262796 0.51942,-0.7435 0.59663,-0.845093 0.032,-0.04203 0.38587,-0.609937 0.78645,-1.261942 0.40057,-0.6519942 0.89571,-1.4263606 1.10032,-1.7208173 0.39361,-0.5664562 1.80237,-2.8409881 1.80237,-2.9100368 0,-0.045869 0.30045,-0.5109987 0.36811,-0.5698433 0.0242,-0.021023 0.0975,-0.1491396 0.16289,-0.2846883 0.12526,-0.2596084 0.42493,-0.7604565 0.54844,-0.916657 0.0402,-0.050751 0.073,-0.1255995 0.073,-0.1662132 0,-0.040665 0.0755,-0.1711292 0.16782,-0.2900289 0.0923,-0.1189103 0.18852,-0.2764169 0.21383,-0.3500309 0.0568,-0.1652044 0.30789,-0.1763216 0.36576,-0.016245 0.0234,0.064661 0.20374,0.1969521 0.40079,0.2938938 0.27131,0.1334675 0.33804,0.1977274 0.27492,0.2647582 -0.0459,0.048627 -0.0535,0.088446 -0.0169,0.088446 -0.343345,0.4128779 -0.346472,0.9564969 -0.51089,1.2564629 -1.160639,1.8760353 -2.173811,3.7044983 -3.06391,5.2311306 -0.83053,1.4247152 -2.37271,3.8700362 -2.61298,4.1432232 -0.12949,0.147219 -0.36555,0.445976 -0.52457,0.663889 -0.15903,0.217911 -0.39399,0.48988 -0.52215,0.604383 -0.12815,0.114491 -0.31969,0.299882 -0.42565,0.411964 -0.10595,0.112083 -0.25576,0.241072 -0.33291,0.286633 -0.17124,0.101189 -0.122,0.236895 0.26117,0.720033 0.92133,1.161697 1.24903,1.592733 1.41692,1.863715 0.10425,0.168251 0.20606,0.323122 0.22624,0.344158 0.0957,0.09971 0.3684,0.709543 0.56434,1.261932 0.43769,1.233899 0.57501,1.701704 0.76336,2.600353 0.22455,1.071467 0.52642,2.157989 0.61584,2.216674 0.0344,0.02261 0.49249,-0.199912 1.01798,-0.494423 0.52548,-0.29451 1.01721,-0.556296 1.09273,-0.581746 0.0755,-0.02546 0.43417,-0.191238 0.79701,-0.368422 0.36283,-0.177171 0.83797,-0.404235 1.05586,-0.504585 0.21789,-0.100336 0.50961,-0.270353 0.64827,-0.377795 0.21249,-0.164645 0.32381,-0.193715 0.70846,-0.184977 0.43598,0.0096 0.48419,0.03124 1.08044,0.47664 1.20564,0.900738 2.09049,1.539452 2.13272,1.539452 0.0235,0 0.35809,0.219929 0.74363,0.488731 0.93705,0.653323 3.03596,1.783921 4.41051,2.375764 1.19578,0.514862 1.16868,0.496452 1.18777,0.806591 0.009,0.147219 0.0413,0.606784 0.0718,1.021245 0.0547,0.745465 0.0537,0.752654 -0.0932,0.669206 -0.0816,-0.04638 -0.24629,-0.0844 -0.36588,-0.0844 -0.11959,0 -0.29189,-0.03294 -0.38289,-0.07318 -0.091,-0.04024 -0.61925,-0.260426 -1.17388,-0.489381 -2.59426,-1.070904 -3.44799,-1.572198 -7.12412,-4.183148 -0.23394,-0.166149 -0.47467,-0.302091 -0.53496,-0.302091 -0.17519,0 -1.31228,0.609405 -1.35436,0.725854 -0.153357,0.104333 -0.376421,0.112944 -0.54705,0.174339 -0.16918,0.08281 -0.46967,0.227212 -0.66775,0.320882 -0.56848,0.268816 -2.08505,1.205733 -2.23337,1.37975 -0.13156,0.154353 -0.13093,0.168252 0.0285,0.633136 0.0897,0.261427 0.27302,0.836696 0.40741,1.27837 0.13439,0.441685 0.34021,1.098372 0.45738,1.459307 0.139,0.4282 0.24002,0.946474 0.29069,1.491375 0.0427,0.459322 0.12508,1.196492 0.18305,1.638178 0.058,0.441674 0.10644,0.966518 0.10769,1.166326 0.002,0.280951 0.0284,0.363282 0.11748,0.363282 0.1104,0 0.8781,-0.4581 1.11498,-0.66532 0.445035,-0.279974 0.621635,-0.567721 1.08481,-0.532673 0.47975,0.04078 0.44005,0.01329 1.39831,0.968547 0.35867,0.357537 0.95835,0.8813 1.33261,1.163887 0.60642,0.457898 2.28068,1.420679 3.05746,1.758191 0.15846,0.06881 0.4988,0.217986 0.75631,0.331418 0.25751,0.113422 0.9706,0.42391 1.58466,0.689975 0.61405,0.266063 1.4489,0.65778 1.85521,0.870489 0.40631,0.212699 0.77584,0.386737 0.82116,0.386737 0.0886,0 0.038,1.305846 -0.0656,1.691554 l -0.0538,0.20019 -0.64827,-0.338784 c -0.6865,-0.358771 -2.14305,-1.010119 -3.45744,-1.546133 -0.43578,-0.177712 -0.85715,-0.353705 -0.93638,-0.391088 -0.0792,-0.03738 -0.56544,-0.263042 -1.08045,-0.501445 -1.61761,-0.74883 -2.82179,-1.502045 -3.76974,-2.357967 -0.33024,-0.298172 -0.69206,-0.62167 -0.80406,-0.718877 l -0.20364,-0.176746 c -0.243938,0.193828 -0.501274,0.382153 -0.76178,0.544688 -0.0263,0 -0.2816,0.163486 -0.56743,0.363283 -0.52379,0.366161 -0.8199,0.632024 -0.79439,0.713261 -0.32914,0.734246 -0.429291,1.068626 -0.52144,2.020897 -0.0241,0.25239 -0.075,0.61376 -0.11312,0.803058 -0.0382,0.189286 -0.0991,0.636704 -0.13545,0.994242 -0.0363,0.357547 -0.11239,0.811751 -0.16898,1.00933 -0.0044,0.36071 -0.156107,0.529313 -0.25826,0.80706 -0.0541,0.199809 -0.14333,0.458559 -0.19831,0.574985 -0.0845,0.178994 -0.0847,0.21791 -10e-4,0.25193 0.14363,0.0585 1.4493,-0.454716 1.64218,-0.645517 0.11332,-0.112094 0.26565,-0.164993 0.49261,-0.171078 0.93847,-0.02515 0.98957,-0.0021 2.09353,0.948109 0.46308,0.398544 0.83798,0.681193 1.90384,1.435364 0.67089,0.474706 1.28675,0.922392 1.36857,0.994858 0.0818,0.07255 0.55394,0.480907 1.04914,0.907622 0.49521,0.426723 1.1921,1.05316 1.54865,1.392076 0.99682,0.947555 1.86408,1.530425 2.77006,1.861716 0.30739,0.112402 0.33652,0.253143 0.1984,0.958438 -0.0937,0.47834 -0.10514,0.496506 -0.30311,0.480877 -0.51094,-0.04035 -1.82814,-0.63062 -2.50528,-1.122688 -0.14965,-0.10875 -0.36753,-0.250138 -0.48417,-0.314174 -0.11664,-0.06401 -0.70729,-0.55604 -1.31256,-1.09333 -1.51364,-1.343625 -2.27932,-1.971708 -3.08131,-2.527579 -1.1566,-0.801654 -1.81475,-1.286298 -2.34856,-1.729427 l -0.51181,-0.424867 -0.35255,0.127564 c -0.19391,0.07018 -0.44979,0.1701 -0.56864,0.222107 -0.23402,0.102358 -1.09905,0.329655 -2.01684,0.529856 -0.98054,0.213888 -1.04172,0.247833 -1.67278,0.92822 -1.214879,1.998405 -3.072971,4.009709 -4.8715,5.075441 -0.12486,0.0703 -0.37429,0.213249 -0.55428,0.317635 -2.419334,0.941371 -4.433533,1.182529 -7.01979,0.903058 z m 4.39382,-2.353338 c 1.11016,-0.367658 2.37424,-1.248382 3.64192,-2.537453 0.062,-0.06306 0.61283,-0.579349 1.22395,-1.147216 2.03854,-1.894281 2.577942,-2.69342 3.40385,-4.253545 0.553662,-1.045858 0.48561,-1.315442 0.62609,-2.744461 0.043,-0.42064 0.14338,-1.22943 0.22299,-1.797299 0.35312,-2.51868 0.45027,-4.160245 0.28516,-4.81829 -0.142434,-0.739947 -0.126759,-1.406831 -0.32044,-2.153745 -0.0573,-0.140473 -0.16841,-0.411402 -0.24702,-0.602058 -0.0786,-0.190655 -0.181,-0.500401 -0.22755,-0.688328 -0.0466,-0.187926 -0.18167,-0.634221 -0.30027,-0.991767 -0.35229,-1.062124 -0.4124,-1.304459 -0.59964,-2.417323 -0.56746,-3.372939 -1.2984,-5.985172 -1.94776,-6.960939 -0.13654,-0.205183 -0.28939,-0.438787 -0.33966,-0.519133 -0.0503,-0.08037 -0.30184,-0.407306 -0.55903,-0.726567 -0.52244,-0.648542 -0.48508,-0.599368 -0.83329,-1.096734 -0.13988,-0.199799 -0.28218,-0.363284 -0.31622,-0.363284 -0.034,0 -0.14616,-0.152693 -0.24917,-0.339329 -0.10301,-0.186619 -0.45159,-0.591013 -0.77464,-0.898647 -0.32304,-0.307624 -0.75726,-0.744135 -0.96492,-0.970033 -0.22225,-0.24176 -0.41161,-0.388361 -0.46033,-0.356392 -0.095,0.06233 -0.54675,-0.142493 -0.75981,-0.344447 -0.0962,-0.09124 -0.35952,-0.164194 -0.79233,-0.219726 -1.11396,-0.142939 -1.30192,-0.119102 -2.57439,0.326565 -1.32171,0.4629 -1.60045,0.54193 -2.34718,0.665501 -0.83049,0.137427 -1.96595,0.777423 -2.63939,1.48769 -0.0804,0.08482 -0.37951,0.353971 -0.66463,0.598089 -0.28511,0.244116 -0.62929,0.574184 -0.76484,0.733495 -0.25776,0.302941 -0.76962,1.179325 -0.76962,1.317708 0,0.04416 -0.16228,0.424441 -0.36062,0.845115 -0.29013,0.61536 -0.82718,1.45628 -1.37792,2.157585 -0.34055,0.433638 -0.42219,0.549903 -0.42227,0.601304 -6e-5,0.03283 -0.13359,0.238945 -0.29676,0.458122 -0.16317,0.219184 -0.37023,0.575097 -0.46012,0.790928 -0.32873,0.789242 -0.36081,1.265298 -0.34217,5.077487 0.0178,3.632354 0.0741,4.695051 0.30592,5.774313 0.0723,0.336513 0.15249,0.76672 0.17821,0.956007 0.0257,0.189295 0.0739,0.413005 0.10709,0.49713 0.0611,0.15481 0.15489,0.69107 0.32783,1.87378 0.0523,0.357549 0.1983,0.97478 0.32448,1.371635 0.22555,0.709343 0.4423,1.537573 0.86574,3.308051 0.31748,1.327444 0.81162,2.579161 1.33787,3.389044 0.246,0.378582 0.51077,0.759299 0.58839,0.846047 0.468951,0.819524 1.193708,1.479733 1.79238,1.956068 0.23165,0.182991 0.44711,0.375929 0.47879,0.428753 0.0317,0.05289 0.0907,0.09611 0.13115,0.09611 0.0405,0 0.27788,0.154807 0.5276,0.34402 0.24973,0.189222 0.83898,0.552567 1.30945,0.807442 l 0.8554,0.463419 1.87277,-0.04078 c 1.55217,-0.03379 1.94677,-0.06528 2.30496,-0.183881 z M 0.17008393,25.806005 c 0.0245,-0.04203 0.0102,-0.07645 -0.0318,-0.07645 -0.042,0 -0.0763,0.03442 -0.0763,0.07645 0,0.04203 0.0143,0.07646 0.0318,0.07646 0.0175,0 0.0518,-0.03442 0.0763,-0.07646 z"><animate attributeName="display" values="inline;none;none" keyTimes="0;0.5;1" dur="0.5s" begin="0s" repeatCount="indefinite" /></path><path transform="rotate(-5 25 25)" d="m 49.929014,52.335027 c -0.309552,-0.319902 -0.803573,-0.79194 -1.097824,-1.048978 -0.294253,-0.257036 -0.578776,-0.506547 -0.632278,-0.554466 -0.423447,-0.37928 -1.186027,-0.94703 -2.431832,-1.810527 -3.057924,-2.119525 -3.765234,-2.692306 -5.016957,-4.06275 L 39.915918,43.94498 39.52969,44.096343 c -0.212424,0.08325 -1.106448,0.549601 -1.986719,1.036334 -1.30091,0.71932 -1.649649,0.961128 -1.863107,1.291833 -0.662005,1.025624 -3.040251,3.739601 -3.468507,3.958149 -0.194895,0.09946 -0.399149,0.236238 -0.453896,0.303952 -0.194149,0.240133 -1.897161,1.187898 -2.435535,1.355432 -0.565872,0.17609 -4.562329,0.469737 -5.295424,0.389091 -0.347752,-0.03826 -0.807368,-0.124348 -1.021369,-0.191317 -0.214002,-0.06697 -0.454753,-0.131878 -0.535004,-0.144239 -0.300081,-0.04622 -1.500242,-0.584752 -1.838113,-0.824782 -0.192795,-0.136965 -0.479903,-0.321049 -0.638019,-0.409072 -0.779314,-0.433851 -2.091955,-2.312668 -3.129873,-4.479871 -0.384028,-0.801861 -0.492021,-0.943359 -0.856757,-1.122571 -0.279982,-0.137568 -0.461502,-0.315871 -0.551511,-0.54174 -0.07379,-0.185174 -0.193864,-0.336681 -0.266827,-0.336681 -0.07296,0 -0.359311,0.255264 -0.636328,0.567253 -0.465178,0.523905 -1.070779,1.142538 -1.770539,1.808641 -1.103735,1.050649 -3.6874977,2.983594 -5.6812112,4.250187 -0.3477525,0.220925 -0.6979367,0.444163 -0.7781869,0.496085 -0.325726,0.210742 -2.1619947,1.197543 -2.2284238,1.197543 -0.0393,0 -0.1627893,-0.230953 -0.2744195,-0.513229 -0.3803604,-0.961802 -0.3913941,-0.918264 0.3371802,-1.330313 0.3612274,-0.204295 0.99949,-0.602398 1.4183606,-0.884674 0.4188712,-0.282275 0.7835348,-0.513229 0.8103659,-0.513229 0.026829,0 0.3628559,-0.229322 0.7467263,-0.509607 0.8814184,-0.643568 1.0309079,-0.746556 1.3302233,-0.916435 0.1337505,-0.07591 0.286956,-0.190009 0.3404563,-0.253553 0.1369784,-0.162689 0.8026865,-0.697465 0.868229,-0.697465 0.029914,0 0.1532097,-0.092 0.273992,-0.204448 0.1207828,-0.112446 0.6792218,-0.608541 1.2409748,-1.102431 1.022462,-0.898945 3.600067,-3.712477 3.598029,-3.927358 -5.51e-4,-0.06278 -0.170566,-0.624675 -0.377713,-1.248653 -0.34109,-1.027443 -0.876121,-3.232406 -1.025448,-4.226057 -0.03226,-0.214691 -0.14535,-0.47749 -0.251306,-0.584 -0.105953,-0.106507 -0.192643,-0.238132 -0.192643,-0.292498 0,-0.152983 -0.581965,-1.056191 -0.680536,-1.056191 -0.04815,0 -0.341518,0.233428 -0.651921,0.518729 -1.015838,0.933681 -2.7253966,2.274878 -3.2393877,2.541391 -0.08025,0.04161 -0.2639339,0.160209 -0.4081844,0.263551 -0.1442512,0.103343 -1.0415961,0.682049 -1.9941023,1.286018 -2.0889083,1.324542 -3.8373845,2.305394 -4.1096184,2.305394 -0.1099742,0 -0.1999522,0.04862 -0.1999522,0.108048 0,0.05943 -0.038802,0.108049 -0.086227,0.108049 -0.047425,0 -0.1167031,-0.230954 -0.1539494,-0.513229 C 1.3762246,40.776104 1.2635182,40.336589 1.1630133,40.081679 L 0.98027544,39.618208 1.2256189,39.514597 c 0.5065286,-0.213915 1.2583291,-0.5758 1.3521251,-0.650857 0.0535,-0.04281 0.4036838,-0.255781 0.7781869,-0.473263 1.3643997,-0.792343 3.6525012,-2.286949 4.8376198,-3.159971 0.5206799,-0.383561 1.4338982,-1.119368 2.0293733,-1.635127 0.595477,-0.515759 1.218782,-1.047144 1.385125,-1.180853 0.31045,-0.249547 0.881727,-0.327575 0.988842,-0.135061 0.03307,0.05943 0.116923,0.108049 0.186352,0.108049 0.0974,0 0.12911,-0.376436 0.138816,-1.647735 0.0069,-0.906254 0.035,-1.939465 0.0624,-2.296023 l 0.04982,-0.64829 -0.559152,-0.460485 C 12.167593,27.081715 11.587678,26.583525 11.186425,26.227896 10.785177,25.872265 10.128582,25.332732 9.7273294,25.028934 9.3260772,24.725134 8.8549652,24.325845 8.6804136,24.141622 l -0.3173667,-0.33495 -0.6482,0.355049 c -0.3565103,0.195276 -0.979722,0.58536 -1.3849157,0.866854 -1.0853162,0.753982 -1.6851756,1.153828 -2.8767286,1.917533 -0.5885045,0.377192 -1.1356653,0.731407 -1.2159168,0.787147 -0.08025,0.05574 -0.6164684,0.36769 -1.1915965,0.693226 L 0,29.018361 v -1.117396 c 0,-1.055139 0.01188092,-1.121583 0.21323334,-1.192568 0.11727799,-0.04135 0.49011955,-0.26342 0.82853586,-0.493498 0.338417,-0.230078 0.6348775,-0.418324 0.6588006,-0.418324 0.045785,0 1.5281521,-0.983102 2.5485683,-1.690204 0.330763,-0.229205 1.0967898,-0.760542 1.7022824,-1.180747 1.5266236,-1.059466 2.0360913,-1.384729 2.3072366,-1.473024 0.2444424,-0.0796 0.5932125,0.06282 0.5932125,0.242228 0,0.152601 0.6686898,0.798855 1.4804074,1.430737 0.978612,0.761801 1.886616,1.546129 2.438159,2.106066 0.255951,0.259846 0.518431,0.4528 0.583288,0.428786 0.06486,-0.02401 0.146293,-0.209845 0.180967,-0.412957 0.304484,-1.783606 0.474178,-2.426176 0.967811,-3.664764 0.177631,-0.445699 0.480121,-1.05347 0.672199,-1.350602 0.192079,-0.297132 0.626456,-1.002147 0.965282,-1.566699 0.338827,-0.564551 0.807395,-1.246925 1.041265,-1.516385 0.233869,-0.269461 0.425217,-0.552013 0.425217,-0.627894 0,-0.203425 -1.082396,-3.674148 -1.555237,-4.9869 C 15.826476,10.910237 15.257047,9.1301997 14.78583,7.5785739 14.314613,6.0269502 13.785628,4.3981236 13.610309,3.9589595 13.164812,2.8430255 12.358559,0.4718974 12.406497,0.41864931 c 0.02188,-0.0243033 0.09568,0.007344 0.164001,0.0703223 0.148284,0.13669765 0.519532,-0.11281707 0.423815,-0.28484625 -0.03289,-0.0591018 0.028,-0.13840767 0.135298,-0.17623417 0.207176,-0.07303932 0.391377,0.0030862 0.391377,0.16174455 0,0.0526745 0.34368,0.96286366 0.763733,2.02264106 0.420053,1.0597797 1.116677,3.0933273 1.548053,4.5189944 0.431377,1.4256669 1.001325,3.1989564 1.26655,3.9406418 0.265227,0.741685 0.642502,1.907669 0.83839,2.591073 0.502274,1.752311 0.64429,2.160964 0.750976,2.160964 0.05137,0 0.321333,-0.190489 0.599914,-0.423307 0.844041,-0.705394 1.883206,-1.251496 3.608771,-1.896478 2.076372,-0.776109 3.154364,-0.933882 5.068695,-0.741841 0.757793,0.07602 1.277547,0.08706 1.296977,0.02754 0.05189,-0.158941 0.379229,-0.114544 0.439389,0.0596 0.03019,0.0874 0.344755,0.304893 0.699025,0.483321 0.35427,0.178426 0.854657,0.520202 1.11197,0.759501 0.257314,0.239298 0.529948,0.435088 0.605854,0.435088 0.07591,0 0.533018,-0.44975 1.015803,-0.999445 1.067509,-1.215454 1.818307,-2.312134 2.939011,-4.2929684 0.286392,-0.5061958 0.559973,-0.9365639 0.607958,-0.956372 0.04798,-0.01981 0.08725,-0.1008462 0.08725,-0.1800815 0,-0.079235 0.03455,-0.1602703 0.07679,-0.1800799 0.04223,-0.019807 0.211676,-0.279125 0.376537,-0.5762561 0.164861,-0.2971334 0.619032,-1.0993913 1.009271,-1.7827953 0.390238,-0.6834048 0.757426,-1.3397984 0.815972,-1.4586515 0.321938,-0.6535548 0.791283,-1.4586484 0.850346,-1.4586484 0.0374,0 0.09669,0.1004372 0.131767,0.2231943 0.03508,0.1227579 0.194952,0.3891462 0.355278,0.5919757 l 0.291503,0.368779 -1.001613,1.8661215 c -0.550887,1.0263658 -1.30969,2.4089399 -1.686231,3.0723842 -0.376539,0.663445 -1.10046,1.9430974 -1.608713,2.8436714 -0.932226,1.651814 -2.095894,3.328382 -2.755026,3.969341 -0.196745,0.191321 -0.357719,0.413969 -0.357719,0.494774 0,0.08081 0.277322,0.604975 0.616272,1.164819 0.772731,1.276323 1.004782,1.746143 1.463354,2.962767 0.201592,0.534838 0.436655,1.14261 0.52236,1.350603 0.14617,0.354727 1.120364,3.322784 1.462901,4.456987 0.174721,0.578535 0.27697,0.619143 0.669721,0.26598 0.151231,-0.135987 0.953447,-0.754004 1.782702,-1.37337 1.621992,-1.211458 2.288292,-1.737427 2.546501,-2.010176 0.22168,-0.234163 0.789258,-0.21733 1.174,0.03482 0.173987,0.114027 0.666524,0.521085 1.094526,0.904575 0.991619,0.888489 2.938073,2.316048 4.620482,3.388731 0.722253,0.460501 1.849407,1.233126 2.504786,1.716943 l 1.191598,0.879668 v 1.221162 1.221161 l -0.753868,-0.631012 c -0.683832,-0.57239 -2.594691,-1.971855 -2.692412,-1.971855 -0.02212,0 -0.42668,-0.24969 -0.899027,-0.554867 -0.472347,-0.305176 -1.099565,-0.702833 -1.393815,-0.88368 -0.871981,-0.535922 -1.837825,-1.244488 -2.810313,-2.061715 -1.234484,-1.037393 -1.387324,-1.144582 -1.632993,-1.145242 -0.116554,-3.06e-4 -0.26976,0.06367 -0.340457,0.142188 -0.0707,0.07852 -0.785134,0.645876 -1.587638,1.260799 -2.406171,1.843745 -2.874083,2.262995 -2.820383,2.527077 0.193887,0.95349 0.250438,1.410268 0.337893,2.72925 0.209705,3.162702 0.315516,4.036887 0.488625,4.036887 0.173071,0 1.858243,-1.778539 2.037305,-2.150181 0.08679,-0.180124 0.201763,-0.226878 0.557921,-0.226878 0.489182,0 0.672665,0.134617 1.975466,1.449351 0.575131,0.580401 2.584218,2.401163 4.756803,4.310919 0.460529,0.404815 0.917225,0.808603 1.014879,0.897306 0.831766,0.75552 2.657804,2.351342 2.853647,2.49388 0.212402,0.154585 0.237841,0.235519 0.194398,0.618478 -0.07065,0.622775 -0.28885,1.467076 -0.379151,1.467076 -0.09589,0 -0.985245,-0.685627 -1.435985,-1.107038 -0.187251,-0.175066 -0.800072,-0.704398 -1.361826,-1.176291 -1.696177,-1.424853 -2.320436,-1.954321 -3.098836,-2.628291 -1.761805,-1.525443 -3.028773,-2.669332 -3.698084,-3.338834 -0.394537,-0.394649 -0.747664,-0.717545 -0.784727,-0.717545 -0.03706,0 -0.292913,0.279575 -0.568556,0.621277 -0.464903,0.576322 -1.162056,1.222323 -2.113049,1.958011 -0.374147,0.28944 -0.396704,0.340913 -0.554504,1.265286 -0.09047,0.529963 -0.367125,1.636348 -0.614788,2.458632 -0.247662,0.822285 -0.426954,1.520991 -0.398425,1.552679 0.02853,0.03169 0.436915,-0.123019 0.907528,-0.343797 0.47061,-0.220777 0.986975,-0.452691 1.147476,-0.515367 0.1605,-0.06267 0.387915,-0.162098 0.505366,-0.22094 0.328859,-0.164757 0.931202,-0.01559 1.093546,0.270816 0.23692,0.417971 1.273808,1.50948 2.243383,2.361562 0.998516,0.877515 1.594475,1.33778 3.842295,2.967438 1.456109,1.055675 2.845368,2.221429 3.695645,3.101094 l 0.449381,0.464913 -0.252871,0.889147 c -0.139079,0.489034 -0.271278,0.88915 -0.293775,0.88915 -0.0225,0 -0.294175,-0.261739 -0.603727,-0.58164 z M 28.32577,50.113274 c 1.306893,-0.15362 2.64565,-0.964574 3.968961,-2.404207 1.363821,-1.483703 2.377323,-2.761712 2.59828,-3.27639 0.08877,-0.206779 0.191679,-0.375961 0.228683,-0.375961 0.08337,0 0.365625,-0.722714 0.827312,-2.118364 0.8614,-2.603952 1.142693,-3.808089 1.023765,-4.382448 -0.07069,-0.341373 -0.05651,-0.4035 0.102636,-0.449727 0.128204,-0.03724 0.183264,-0.147366 0.180111,-0.360246 -0.0025,-0.168636 0.0328,-0.564985 0.07844,-0.880777 0.05444,-0.37672 0.0377,-0.989792 -0.0487,-1.782794 -0.07242,-0.664746 -0.171639,-1.889333 -0.220478,-2.721304 -0.104056,-1.772575 -0.220662,-2.323036 -0.492094,-2.323036 -0.189229,0 -0.484293,-0.487893 -0.484293,-0.800786 0,-0.08978 0.09442,-0.260939 0.209824,-0.380363 l 0.209824,-0.217133 -0.20005,-0.678474 c -0.389381,-1.320585 -1.109755,-3.600169 -1.238739,-3.919917 -0.07192,-0.17828 -0.310575,-0.806039 -0.530355,-1.395021 -0.551856,-1.478906 -1.424726,-3.247138 -2.175635,-4.407331 -0.903379,-0.917811 -1.49691,-1.573059 -2.205484,-2.410329 -0.0017,-0.05999 -0.09703,-0.174259 -0.21189,-0.253936 -0.204533,-0.399349 0.05003,-0.196598 -0.424551,-0.341295 -0.03636,-0.06535 -0.168024,-0.10399 -0.29258,-0.08586 -0.128698,0.01873 -0.324158,-0.06567 -0.452757,-0.195512 -0.175803,-0.1775 -0.443323,-0.254771 -1.199025,-0.346334 -2.063556,-0.250024 -3.649196,0.242435 -7.052313,2.190264 -0.862837,0.493859 -2.817251,2.749906 -3.749393,4.328052 -1.20975,2.048143 -1.481959,2.846576 -2.136534,6.266794 -0.440833,2.303399 -0.467687,2.564391 -0.466921,4.538023 9.92e-4,2.552026 0.393525,5.614361 0.997187,7.779469 0.765564,2.745784 3.191485,7.75731 4.516101,9.329471 0.779947,0.925701 2.5081,1.917572 3.789113,2.174753 0.566312,0.113695 3.561051,0.05241 4.851553,-0.09928 z"><animate attributeName="display" values="none;inline;none" keyTimes="0;0.5;1" dur="0.5s" begin="0s" repeatCount="indefinite" /></path></g></svg>
