<svg version="1.1" viewBox="0 0 180 180" xmlns="http://www.w3.org/2000/svg">
<g transform="translate(-1,-1)">
<path d="m91 1c-49.707 0-89.992 40.281-90 89.986 5.56e-5 2e-3 -5.571e-5 4e-3 0 6e-3v0.0079c0.068666 2.4211 0.25618 4.8356 0.51949 7.2432 0.26985-0.03039 0.47012-0.06956 0.88688-0.09086 0.70085-0.03581 1.5886-0.05866 2.556-0.05925 3.6508-2e-3 6.4304-0.334 8.5844-1.0528 2.154-0.7188 3.6869-1.8071 4.9243-3.3915l1.0844-1.3886 0.57282 1.5229c0.1207 0.32148 0.16935 0.71866 0.2153 1.2622 0.04595 0.54352 0.07208 1.2079 0.07308 1.9357 1e-3 0.6817 0.01221 1.1993 0.04346 1.5525 0.01388 0.1569 0.01422 0.12769 0.03555 0.21135 0.12361-0.09325 0.2416-0.17752 0.45826-0.3832l4e-3 -0.0039 0.0039-0.0039c4.6557-4.2526 9.5098-8.6597 15.288-11.227l2e-3 -2e-3h2e-3c-0.0026 0.0011 0.15472-0.11713 0.30419-0.33382 0.14947-0.21668 0.3115-0.51852 0.45431-0.8533 0.28535-0.66896 0.49301-1.4826 0.50171-2.0266l0.0059-0.51356-1.9081-0.72096c-1.1493-0.43463-2.5978-1.0449-3.7885-1.5782-0.59537-0.26667-1.1254-0.51385-1.5249-0.71306-0.19977-0.09961-0.36558-0.18684-0.49776-0.26271-0.06609-0.03794-0.12348-0.07131-0.17777-0.10864-0.05428-0.03733-0.09835-0.05382-0.18962-0.1758 0.09725 0.12995 0.03788 0.0413-0.05926-0.01382-0.09713-0.05513-0.2493-0.13288-0.4464-0.22518-0.3942-0.18459-0.97096-0.4321-1.7106-0.73282-0.56014-0.22775-1.1278-0.4832-1.4281-0.67158-0.49096-0.30802-1.9089-0.89948-3.5317-1.4301-1.3617-0.44522-2.0754-0.63575-4.1974-1.1239-0.42822-0.0985-0.74557-0.16991-0.98762-0.2311-0.24205-0.06119-0.40219-0.09812-0.58467-0.20345-0.09124-0.05267-0.20351-0.13593-0.27851-0.28444-0.07499-0.14851-0.07308-0.32799-0.04741-0.43653 0.05136-0.21707 0.12029-0.28562 0.17382-0.38517 0.15367-0.28576 0.43132-0.46018 0.72294-0.55504 0.29162-0.09486 0.62022-0.12981 1.0034-0.12839 0.7664 0.0029 1.7598 0.15548 3.0201 0.44443 1.4517 0.33285 3.1745 0.8534 4.6438 1.3748 0.73466 0.26068 1.4052 0.52122 1.9496 0.76047 0.5444 0.23925 0.94509 0.43452 1.2326 0.66961-0.05266-0.04309 0.0024-0.0012 0.06716 0.0316 0.0648 0.03281 0.1566 0.07674 0.26468 0.12444 0.21616 0.0954 0.49788 0.20886 0.78022 0.31406 0.30042 0.11194 0.59327 0.23132 0.83158 0.33579 0.11915 0.05224 0.22303 0.10144 0.31209 0.14617 0.08906 0.04473 0.14526 0.06446 0.25086 0.15012-0.06439-0.05223-0.01339-0.0099 0.04741 0.01975 0.0608 0.02962 0.15169 0.07001 0.26468 0.11852 0.22598 0.09701 0.54174 0.22421 0.92046 0.37135 0.75746 0.29428 1.7698 0.66965 2.8602 1.0548 1.0859 0.38357 2.9298 0.7801 3.9169 0.85133 0.19157 0.01384 0.34684 0.02287 0.51356 0.05925 0.16672 0.03639 0.37665 0.12424 0.51949 0.29629 0.28567 0.3441 0.23762 0.65201 0.26666 1.116 0.04544 0.72664-0.12251 1.5874-0.46023 2.5678-0.19219 0.55793-0.32841 0.98365-0.399 1.276-0.02238 0.09272-0.01576 0.05206-0.02173 0.11456 0.13528-0.03928 0.25589-0.06812 0.49974-0.1679 0.88018-0.36012 3.0123-1.0831 4.3001-1.4637 0.25759-0.07611 0.72731-0.16863 1.4024-0.29629 0.67511-0.12766 1.5249-0.27886 2.4197-0.43258 1.7895-0.30743 3.7548-0.62279 4.8769-0.76837 0.29832-0.03871 0.50911-0.06854 0.61825-0.09877 0.10915-0.03023 0.09477-0.03044 0.11259-0.05333 0.03564-0.04577 0.15833-0.44764 0.31801-1.3372 0.10498-0.58513 0.53507-2.6862 0.96392-4.7208 0.42836-2.0323 0.86797-4.1236 0.97774-4.6477 0.18871-0.90133 0.19819-1.3851 0.18567-1.4202-0.0063-0.01754 0.04334 0.02399-0.02173-0.0039-0.06507-0.02794-0.24077-0.06907-0.49974-0.10469-0.82104-0.11293-1.9547-0.51555-3.3717-1.1397-1.417-0.62417-3.0952-1.4746-4.9045-2.4888-0.8776-0.49193-1.6883-0.95541-2.2873-1.3076-0.29954-0.1761-0.545-0.32249-0.72492-0.43455-0.08995-0.05604-0.164-0.10387-0.2232-0.14419-0.0296-0.02016-0.05478-0.0374-0.08296-0.05925-0.02818-0.02186-0.04297-0.0026-0.13827-0.14617 0.09564 0.14414 0.05068 0.06093 4e-3 0.02568-0.04673-0.03525-0.1213-0.08665-0.21135-0.14617-0.18017-0.11901-0.42502-0.26936-0.68152-0.41676-0.56946-0.32723-1.4091-0.90419-1.9436-1.3333-0.24624-0.19766-0.48124-0.37728-0.6538-0.50369-0.08629-0.0632-0.1577-0.11353-0.20148-0.14222-0.0087-0.0058-0.0078-0.0062-0.01383-0.0099-0.0019-8.09e-4 -0.0021-0.0012-4e-3 -2e-3 -0.02639-0.01029-0.04347-0.0186-0.05728-0.02568-0.02957-0.01513-0.04881-0.02692-0.06913-0.0395-0.04066-0.02516-0.08249-0.05239-0.13234-0.08691-0.09969-0.06905-0.22759-0.16326-0.3832-0.27851-0.31122-0.2305-0.72555-0.54436-1.1693-0.89083-0.86767-0.67738-2.0144-1.4927-2.4513-1.752-0.28518-0.16931-0.54925-0.37344-0.76639-0.5827s-0.39893-0.37641-0.48986-0.70911c-0.0083-0.03056-0.03057-0.06683-0.04741-0.08691-0.04864-0.0016-0.0938-1.61e-4 -0.15604-0.01185-0.04806-9e-3 -0.105-0.01942-0.1916-0.06716-0.0866-0.04773-0.22361-0.16919-0.26666-0.34567-0.04305-0.17648 0.01329-0.31938 0.05531-0.39505 0.04202-0.07567 0.08021-0.11342 0.11259-0.14617 0.06477-0.0655 0.11921-0.10468 0.1837-0.15209 0.36795-0.27052 0.76662-0.26653 1.1417-0.04149 0.12862 0.07713 0.80945 0.4534 1.4419 0.79405 1.1771 0.63397 2.2691 1.3553 4.1105 2.712 1.5181 1.1186 3.4244 2.2391 6.1944 3.6285 2.6275 1.318 4.2442 2.0947 5.3983 2.556 1.1542 0.4613 1.8279 0.6087 2.6765 0.69134 0.61542 0.05993 0.95576 0.06981 1.1298 0.0395 0.17408-0.03031 0.23306-0.06937 0.45826-0.26271 0.13368-0.11478 0.23998-0.2051 0.34764-0.28246 0.10766-0.07736 0.21325-0.16218 0.42665-0.18765 0.2134-0.02547 0.48144 0.1216 0.58072 0.24493 0.09928 0.12334 0.13334 0.21734 0.17777 0.31801 0.29635 0.6715 0.43151 1.3734 0.239 3.0063-0.19251 1.6329-0.6817 4.3015-1.6098 9.2204-0.13237 0.70158-0.25458 1.4189-0.34172 2.0049-0.08708 0.58602-0.13611 1.0802-0.13624 1.1773v0.18767l3.9683-0.02568c2.7494-0.01805 4.2495-0.01178 5.2087 0.32987 0.47961 0.17082 0.86416 0.51265 0.99355 0.94812 0.1294 0.43547 0.05807 0.86497-0.04741 1.353-0.02939 0.13599-0.05702 0.25892-0.12049 0.39702-0.06347 0.1381-0.19354 0.30448-0.36937 0.3911-0.35166 0.17324-0.6048 0.08283-0.94219 0.01778-0.41687-0.08034-0.82494-0.1719-1.1022-0.28444 0.07674 0.03115 0.03463 0.01063-0.0158 0.0039-0.05044-0.0067-0.12832-0.01287-0.22518-0.01975-0.19371-0.01366-0.46319-0.02508-0.78022-0.03358-0.63406-0.01695-1.462-0.02304-2.3189-0.01778-1.7139 0.01043-3.5912 0.07262-4.1559 0.14814-0.37021 0.04952-0.6181 0.11137-0.73084 0.15999-0.03825 0.0165-0.03849 0.01594-0.04543 0.01778-0.17501 0.70846-0.66961 4.8164-0.66961 5.6808 1e-6 0.47917-0.01797 0.83022-0.12246 1.1634-0.10449 0.3332-0.29834 0.6036-0.54122 0.86516-0.16859 0.18155-0.34214 0.33632-0.51356 0.45431-0.08571 0.059-0.16938 0.10843-0.27258 0.15012-0.1032 0.04169-0.23522 0.11833-0.48986 0.01975-0.36919-0.14292-0.47422-0.43383-0.56097-0.70714-0.08675-0.27331-0.13717-0.59232-0.16592-0.96787-0.0575-0.75111-0.02496-1.7238 0.10074-2.8147 0.13449-1.1672 0.28805-2.6103 0.33777-3.1841l0.04148-0.48394-1.6948 0.10469c-1.2566 0.07732-2.7626 0.16945-3.3461 0.20543-1.5211 0.09375-2.768 0.30328-3.9327 0.6538-0.32145 0.09673-0.65519 0.16737-0.95207 0.2074-0.28478 0.03836-0.49599 0.0727-0.7822-6e-3 -0.1566 0.29442-0.39811 0.41216-0.66961 0.51751-0.31408 0.12188-0.71063 0.22344-1.2049 0.31604-0.38382 0.07191-0.73466 0.15814-0.96985 0.23308-0.08877 0.02829-0.13697 0.05006-0.18172 0.06913-0.0692 0.10594-0.15599 0.18742-0.239 0.23703-0.15512 0.09269-0.31545 0.13068-0.48788 0.13432 0.0758-0.0016-0.05429 0.01761-0.21925 0.28048-0.16496 0.26288-0.34736 0.69489-0.48986 1.2365-0.13414 0.50984-0.31008 1.0975-0.43258 1.4044 0.0079-0.01992-0.03944 0.12315-0.08691 0.30221s-0.10817 0.42068-0.17777 0.70516c-0.1392 0.56897-0.31529 1.3138-0.49776 2.1096-0.36494 1.5916-0.76023 3.3931-0.95799 4.4068-0.16215 0.83116-0.355 1.4967-0.60245 2.0108s-0.55721 0.92192-1.0469 1.0647c-0.89306 0.26032-1.7767-0.57692-1.5387-1.4795 0.53313-2.0217 0.85794-3.3759 1.0508-4.3692 0.13764-0.7088 0.48648-2.1609 0.78615-3.2809 0.29519-1.1032 0.59906-2.3243 0.65183-2.5994 0.01274-0.06671 0.0054-0.05323 0.0079-0.09877-0.10245 0.02948-0.39715 0.08973-0.95997 0.42863l-0.0079 6e-3 -0.0099 0.0039c-4.268 2.3488-7.7989 5.3747-11.739 8.8846l-2e-3 0.0039-4e-3 2e-3c-0.20369 0.17474-0.59408 0.57796-0.7901 0.81973-0.1316 0.1623-0.27132 0.30757-0.40888 0.42468-0.06878 0.0585-0.13655 0.11078-0.2153 0.15802-0.07875 0.0472-0.14912 0.11061-0.36542 0.11061 0.19052 0 0.17861-0.0424 0.1679-0.0356-0.01071 7e-3 -0.04854 0.0355-0.09284 0.0751-0.08858 0.0791-0.20971 0.20599-0.31801 0.34171-0.20738 0.25988-0.23059 0.24684-0.28444 0.73282-0.05384 0.48598-0.06448 1.4012-0.06913 3.1485-0.0051 2.0018-0.04733 4.2728-0.09876 5.1139-0.04896 0.80029-0.13932 2.2723-0.1995 3.273-0.05081 0.84481-0.07568 1.3101-0.18765 1.6948-0.11197 0.38463-0.4252 0.67006-0.68936 0.80986-0.11342 0.06-0.22501 0.12441-0.37925 0.17579-0.15423 0.0514-0.41859 0.0881-0.64986-0.0553-0.23127-0.14336-0.318-0.35938-0.37135-0.559-0.05335-0.19963-0.07826-0.42445-0.09481-0.71898-0.06621-1.1782 0.0413-3.4972 0.24888-8.1953 0.05428-1.2274 0.07187-1.9195 0.04741-2.2557-0.0066-0.0909-0.0082-0.0837-0.0158-0.11852-0.01717 0.0173-0.11566 0.0118-0.26271 0.0968-0.09076 0.0524-0.17057 0.12061-0.20938 0.16592-0.0388 0.0453-0.01975 0.0555-0.01975-0.0197 0 0.16745-0.03548 0.32621-0.12839 0.478-0.05197 0.0849-0.14116 0.1709-0.25283 0.23704-3.706 3.6267-6.2969 8.6169-8.0096 12.985-0.73783 1.8911-1.22 4.0191-1.4518 5.9949 1.8983 4.8693 4.218 9.5633 6.9311 14.03 0.1699 0.0935 0.34117 0.18718 0.46616 0.24493 0.15791 0.0729 0.31574 0.0869 0.1916 0.0869 0.27161 0 0.41584 0.0736 0.63603 0.15999 0.22019 0.0864 0.46234 0.19856 0.69331 0.32789 0.33858 0.18961 1.3523 0.61458 2.1194 0.87109 0.79604 0.26613 1.8921 0.63414 2.4394 0.81972 2.2589 0.76593 6.8006 1.1618 9.651 0.81578 0.47582-0.0578 0.68656-0.11757 0.73677-0.13234 5.7e-5 -4e-3 0 9e-5 0-4e-3 0-0.0285-5.6e-4 -0.0193-2e-3 -0.0356-0.0079 3e-3 -0.09572-0.0411-0.37727-0.0849-0.29352-0.0458-1.4255-0.0239-2.2656 0.0869-1.1909 0.15716-2.0417 0.15911-2.637-0.32197-0.29761-0.24054-0.45282-0.66113-0.40492-1.039 0.0479-0.37784 0.23072-0.72972 0.50369-1.1081 0.43222-0.59916 0.98361-0.93426 1.7303-1.0587 0.7243-0.12073 1.8076-0.1719 2.8206-0.16988 0.5065 8.1e-4 0.99201 0.0157 1.4004 0.0454s0.71313 0.0571 0.9896 0.15407c1.1718 0.41091 2.5167 0.71091 3.986 0.88293 0.45009 0.0527 0.88427 0.1266 1.2365 0.20741 0.17612 0.0404 0.32958 0.0824 0.46418 0.12838 0.1346 0.0459 0.23053 0.05 0.4069 0.21926 0.02882 0.0276 0.39476 0.20237 0.70516 0.25283 0.1552 0.0248 0.30212 0.0298 0.37727 0.0217 0.07515-8e-3 1.07e-4 -0.0658-0.11061 0.14223 0.09261-0.17403 0.24821-0.31554 0.4464-0.37925 0.13388-0.0431 0.2858-0.0254 0.4306 0.0197-1e-3 -2.2e-4 0.01584-1e-3 0.04938-6e-3 0.07505-9e-3 0.20445-0.0344 0.36147-0.0731 0.31404-0.0774 0.74277-0.20727 1.1871-0.36739 0.92016-0.33156 2.1463-0.76649 2.7357-0.96984 0.2853-0.0984 0.57982-0.20593 0.81775-0.29826 0.23793-0.0923 0.4453-0.18655 0.4543-0.19161 0.2518-0.13812 0.76834-0.35531 1.3076-0.57281 0.46951-0.18936 1.5922-0.7585 2.394-1.2227 0.74905-0.43366 1.1093-0.78215 1.1792-0.88096-0.03224-0.0269-0.04793-0.0514-0.17777-0.11259-0.29422-0.13851-0.96352-0.45634-1.4933-0.70714-0.45215-0.21404-1.8187-0.6974-2.9056-1.0153-0.95566-0.27948-1.7992-0.60386-2.4295-0.92441-0.31517-0.16027-0.57501-0.31707-0.78417-0.48788s-0.44048-0.34614-0.44048-0.74861c0-0.22329 0.05724-0.26836 0.09679-0.3437 0.03954-0.0754 0.08438-0.14471 0.13629-0.21925 0.10382-0.14916 0.23585-0.31329 0.3832-0.47406 0.16802-0.18332 0.34764-0.6746 0.34764-0.72689 0-0.24289-0.0669-0.44236 0.19555-0.73874 0.13123-0.14819 0.38287-0.2204 0.53529-0.20543 0.15243 0.015 0.24537 0.0618 0.33777 0.10667 0.0112 5e-3 0.21295 0.0782 0.43653 0.14024 0.22358 0.062 0.49242 0.12817 0.74467 0.17975 0.60516 0.12371 1.4115 0.34656 2.1155 0.56887 0.35199 0.11115 0.67778 0.22225 0.94022 0.32197 0.26244 0.0997 0.41371 0.13383 0.62813 0.3022-0.04521-0.0355 0.23803 0.12783 0.5669 0.26075 0.32886 0.13289 0.75136 0.28791 1.1911 0.4385 0.87943 0.30118 1.8644 0.58801 2.236 0.64788 0.5969 0.0961 1.1986 0.26717 1.6236 0.5906 0.15572 0.1186 0.36412 0.15117 0.48986 0.11456-0.09562 0.0279 0.04565-0.0263 0.1837-0.12049 0.13805-0.0941 0.32273-0.2307 0.53727-0.39702 0.42907-0.33266 0.97586-0.78378 1.5466-1.2721 1.1415-0.97655 2.3888-2.1179 2.9787-2.7555 1.0533-1.1384 2.3522-2.9389 3.3698-4.5806 0.50876-0.82084 0.94928-1.6044 1.2563-2.2399 0.28813-0.59653 0.41325-1.0562 0.4306-1.1753-0.07029-0.0316-0.22427-0.0889-0.55109-0.13234-0.73099-0.0972-2.0817-0.1387-4.3179-0.15407-0.98477-7e-3 -1.9176-0.0232-2.631-0.0454-0.35673-0.0111-0.65766-0.0242-0.88688-0.0375-0.11461-7e-3 -0.21031-0.0136-0.29036-0.0217-0.08005-8e-3 -0.11976-4e-3 -0.23505-0.0375-0.19996-0.0579-0.3953-0.16869-0.52936-0.35159-0.13407-0.18291-0.18025-0.42415-0.15209-0.62813 0.05632-0.40796 0.3126-0.70568 0.65973-0.96984 0.06812-0.0519 0.15591-0.15169 0.21135-0.24493 0.05544-0.0932 0.06913-0.18902 0.06913-0.16 0-0.14421 0.0085-0.27322 0.02765-0.39307 0.0096-0.06 0.0199-0.11459 0.04938-0.19358 0.01473-0.0394 0.02975-0.086 0.08494-0.15802 0.05519-0.072 0.19285-0.2074 0.41875-0.2074-0.11313 0-0.06281 4e-3 -0.05136 2e-3s0.03496-7e-3 0.06321-0.0118c0.05649-0.0111 0.13807-0.0281 0.23703-0.0493 0.19792-0.0424 0.46304-0.10103 0.74664-0.16593 0.39819-0.091 1.0658-0.13544 1.9693-0.17579 0.90355-0.0403 1.9986-0.0623 3.0774-0.0572 1.1586 5e-3 2.1381-0.0131 2.8246-0.0474 0.33548-0.0168 0.59566-0.0373 0.76837-0.0593 0.0074-0.0296 0.0036-0.0132 0.0099-0.0474 0.02951-0.16125 0.06118-0.38255 0.09086-0.64393 0.05936-0.52276 0.11434-1.205 0.15604-1.9278 0.08341-1.4458 0.11423-3.076 0.05136-3.9406-0.041-0.56382-0.07029-0.979-0.11061-1.2385-0.04031-0.25996-0.10712-0.30254-0.03951-0.25086 0.06762 0.0517 0.0871 0.0107-0.12247 0.0632s-0.558 0.17935-1.0311 0.3516c-1.0605 0.38612-1.9892 0.64348-2.7673 0.76046-0.77808 0.11698-1.4069 0.1255-1.9239-0.14024-0.4288-0.22045-0.75873-0.4949-0.91454-0.8928-0.0779-0.19896-0.09889-0.4406-0.0237-0.66171 0.07518-0.22112 0.23465-0.40216 0.42073-0.52542 0.08092-0.0536 0.45154-0.39033 0.64986-0.62812 0.3435-0.41193 0.80949-0.68739 1.357-0.68739 0.10761 0 0.47114-0.0391 0.89281-0.10666 0.42167-0.0676 0.92315-0.16183 1.4064-0.26073 0.48322-0.0989 0.95139-0.20253 1.2997-0.29234 0.13024-0.0336 0.221-0.0619 0.31011-0.0889-3.03e-4 -0.0959 6.95e-4 -0.19299-0.0079-0.33776-0.0231-0.39115-0.07637-0.92571-0.15407-1.4933-0.16146-1.1796-0.38605-3.3823-0.50566-4.9342-0.12261-1.5906-0.2542-2.7548-0.39307-3.514-0.05608-0.30656-0.11074-0.49646-0.16394-0.66368-0.19234 0.18199-0.43434 0.43788-0.68738 0.75652-0.53037 0.66785-1.4323 1.6362-2.3012 2.5086-0.43442 0.43619-0.85867 0.84656-1.2227 1.1792s-0.6467 0.57855-0.89083 0.73282c-0.64121 0.40518-1.4437 0.2245-1.7757-0.30024s-0.22006-1.2902 0.34172-1.8034c0.19022-0.17376 0.44647-0.6029 0.45826-0.64393 0.08573-0.31376 0.24439-0.48883 0.44838-0.73677 0.20399-0.24794 0.45639-0.51247 0.72492-0.75059 1.6609-1.4729 4.2577-4.5798 6.459-7.7607 0.51125-0.73875 1.5743-2.1835 2.3802-3.2374 0.79661-1.0419 1.7691-2.3583 2.1392-2.8918 0.40001-0.57666 1.0947-1.4827 1.5782-2.0562 0.43949-0.52131 1.474-1.89 2.2538-2.9885 0.79498-1.12 1.8931-2.5738 2.475-3.273 0.34654-0.41638 0.47253-0.63626 0.61825-0.87108-0.08366 0.01418-0.14164 0.02243-0.239 0.0395-0.47661 0.08359-1.1037 0.20006-1.7639 0.32789-1.5955 0.30894-2.7491 0.47282-3.6621 0.48591-0.91295 0.01309-1.6064-0.13613-2.1807-0.46616-0.47354-0.27214-0.82788-0.46867-0.9975-0.91059-0.08476-0.22096-0.06953-0.48003 2e-3 -0.67948 0.07149-0.19946 0.17988-0.36288 0.31011-0.53727 0.17381-0.23275 0.41267-0.47752 0.74467-0.54912 0.332-0.07161 0.61498-0.0044 1.0271 0.08493 0.45791 0.09934 0.80974 0.13672 1.677 0.08493 0.86724-0.05177 2.2201-0.19996 4.5608-0.47603l2.872-0.34172 0.58862-0.75257 1.9377-2.473-0.42665 2.6745-0.02173 0.13432 3.273-0.01581c1.0686-0.0053 2.0569 0.0017 2.793 0.01778 0.36804 8e-3 0.67164 0.01915 0.89676 0.0316 0.11256 0.0063 0.20432 0.01116 0.28246 0.01975 0.03907 0.0042 0.07302 0.0098 0.11456 0.01778 0.04154 8e-3 0.05807-0.02869 0.23308 0.09481-0.13759-0.09709-0.13362-0.06605-0.13827-0.06716-0.0046-0.0011 0.0072 0.0027 0.02765 6e-3 0.04083 0.0066 0.11445 0.0139 0.2074 0.02371 0.18589 0.01961 0.45639 0.04386 0.78417 0.06716 0.65556 0.04661 1.5436 0.09542 2.5026 0.13629 0.98926 0.04216 1.7082 0.08398 2.2123 0.09086 0.50403 0.0069 0.78733-0.04078 0.86121-0.07309 0.07388-0.0323 0.04461 0.01875 0.08889-0.16987 0.04428-0.18862 0.07234-0.55739 0.13432-1.0706 0.61393-5.0835 1.7392-8.7837 3.7095-12.126 0.2389-0.40527 0.45641-0.81051 0.61035-1.1259 0.071-0.14562 0.12394-0.26606 0.16197-0.3595-0.0488-0.05102-0.0994-0.10538-0.18567-0.17975-0.22839-0.19698-0.56265-0.44624-0.92837-0.67948-1.628-1.0383-2.0935-1.569-2.6448-2.9806-0.77696-1.9893-0.49694-4.7379 0.67553-8.1834 0.44994-1.3222 1.4248-3.7874 2.39-6.1193 0.96377-2.3284 1.89-4.4689 2.3249-5.264 1e-3 -0.0012 3e-3 -0.0067 4e-3 -0.0079 1.7418-3.7458 3.8696-6.7702 5.8033-10.301l-0.0632 0.24493c0-0.24806 0.0606-0.28684 0.10863-0.38715 0.048-0.1003 0.10718-0.20736 0.17777-0.32592 0.14124-0.23712 0.32606-0.5176 0.5274-0.8059 0.40269-0.57661 0.82768-1.1478 1.1713-1.4617 0.17781-0.16243 0.29511-0.27006 0.47011-0.36344 0.0875-0.04669 0.21903-0.17701 0.53331-0.03556 0.15714 0.07072 0.27082 0.24558 0.30024 0.36147 0.0296 0.11589 0.019 0.18841 0.01 0.2469-0.0363 0.23399-0.11169 0.34677-0.22123 0.55307-0.10793 0.20327-0.2564 0.4567-0.44641 0.76639l-6e-3 0.01185c-2.2603 3.931-3.7843 7.783-6.303 12.324v2e-3l-2e-3 2e-3c-0.0826 0.14602-0.22414 0.4586-0.27258 0.59455-0.12743 0.35775-0.44695 1.1718-1.6158 4.1421-1.8039 4.5841-2.6636 7.9776-2.7239 10.589-0.0354 1.5348-0.01 1.7305 0.39309 2.5678 0.22128 0.46021 0.70729 1.0506 1.2088 1.4893 0.50155 0.43869 1.0892 0.68541 1.1516 0.68541-0.0836 0 0.0799-0.02352 0.28048-0.1758 0.20055-0.15227 0.4588-0.39794 0.73874-0.71504 2.0702-2.3449 3.5737-3.7262 6.4966-5.9633 0.34783-0.26622 0.66765-0.52728 0.89083-0.72492 0.0619-0.05486 0.0932-0.08751 0.13827-0.13036-0.0163-0.03659-0.0251-0.05957-0.0454-0.10271-0.0991-0.21064-0.24055-0.48978-0.39702-0.77627-0.91004-1.6662-1.3137-3.3289-1.1595-5.0902 0.15424-1.7613 0.84988-3.6043 2.0661-5.7045 1.3338-2.3032 2.0823-3.4808 3.0794-4.8393 0.31934-0.43506 0.93095-1.2866 1.353-1.8844 0.44104-0.62457 1.3632-1.8211 2.076-2.6982 0.70414-0.86651 1.6031-1.9808 1.995-2.471 1.3769-1.7224 2.5844-3.1532 3.5199-4.1776 0.46774-0.5122 0.86703-0.92203 1.193-1.2227 0.16302-0.15032 0.30615-0.2728 0.44049-0.37135 0.13433-0.09853 0.24266-0.17917 0.4385-0.22913 0.20943-0.05339 0.38375-0.09432 0.61232-0.05531 0.11429 0.0195 0.25708 0.06874 0.37728 0.18962 0.12018 0.12089 0.17965 0.30051 0.1837 0.43653 9e-3 0.27204-0.0875 0.42871-0.19358 0.60837-0.10605 0.17966-0.24738 0.37004-0.42863 0.59257-0.28256 0.34705-1.306 1.6381-2.2597 2.8483-0.95718 1.2147-2.2051 2.765-2.7851 3.4626-0.5339 0.64212-1.7313 2.3263-2.5994 3.6661-0.88008 1.3582-1.9439 2.9651-2.3782 3.5949-0.59424 0.86176-1.3064 2.1123-1.9022 3.2987-0.59572 1.1864-1.0785 2.3381-1.2187 2.9016-0.26732 1.0744-0.3199 2.3404-0.17974 3.4745 0.14015 1.1341 0.4876 2.1379 0.90071 2.6705 0.0568 0.0732 0.0329 0.05517 0.0731 0.06123 0.0401 6e-3 0.19263-1e-3 0.46615-0.09877 0.54706-0.19541 1.5287-0.71413 3.1525-1.6434 0.26637-0.15244 0.52658-0.29145 0.74072-0.39505 0.10708-0.0518 0.20293-0.09416 0.28839-0.12839 0.0855-0.03422 0.0853-0.07901 0.32789-0.07901-0.1072 0-0.095 0.0118-0.0889 0.0099 7e-3 -0.0019 0.0305-0.0099 0.0612-0.02172 0.0615-0.02358 0.1543-0.06271 0.26468-0.11259 0.22079-0.09976 0.51095-0.24156 0.80985-0.39702 2.1589-1.1229 3.4052-1.7621 4.1934-2.1293s1.1713-0.48394 1.5269-0.48394c-0.0917 0-0.0147-0.03268-0.0198-0.01383 0.0778-0.28788 0.28002-0.83725 0.47801-1.3412 0.19221-0.48922 0.76053-1.9522 1.2622-3.2453 1.811-4.6684 5.2335-10.867 7.901-14.289 0.22944-0.29433 0.75149-1.0297 1.2266-1.7007-14.297-8.9485-30.809-13.735-47.682-13.744zm-49.847 138.4c1.21e-4 2e-5 -0.0068 0-0.0059 0 0.0081 2.7e-4 0.05137-0.0332 0.2074 0.079-0.05971-0.0429-0.1319-0.0573-0.20147-0.079zm-24.104-34.164c0.01594-0.0156 0.02946-0.0339 0.04543-0.0494l-0.35554 0.1442c0.12266 0 0.22216-0.0427 0.31011-0.0948zm22.642-17.291c0.01026-0.01571 0.01069-0.0403 0.01975-0.05728-0.0264 0.02944-0.05549 0.0575-0.06716 0.06716-0.03122 0.02586-0.02827 0.02002-0.01185 0.01185 8e-3 -4e-3 0.04473-0.01553 0.05926-0.02172zm0.01975-0.05728c0.04427-0.04937 0.08889-0.12422 0.08889-0.28048 0 0.11309-0.04485 0.19801-0.08889 0.28048zm3.0063-1.0785c0.02456-0.04618 0.06586-0.05882 0.08494-0.11654-0.0014 0.0043-0.0486 0.07306-0.10074 0.09481-0.05213 0.02175-0.06673 0.0029-0.01778 0.01778 0.01246 0.0037 0.02141 6.08e-4 0.03358 0.0039zm13.564-1.3412c0.0013-0.0051 0.0047-0.03479 0.0059-0.0395-0.0081 0.03119-0.01944 0.04308-0.0059 0.0395zm84.232-69.572c-0.29095 0.46635-0.58198 0.9334-0.89281 1.4301-1.2456 1.9904-1.1711 1.8644-2.793 4.7663-0.91056 1.6292-2.2262 4.49-3.275 7.0003-0.52437 1.2551-0.98359 2.4247-1.2958 3.3105-0.15608 0.44289-0.27537 0.81693-0.34567 1.0824-5e-3 0.01911-6e-3 0.02548-0.01 0.04346 0.1593-0.03715 0.29671-0.06249 0.69924-0.19555 3.8278-1.2653 9.1826-2.5545 12.274-2.9451 2.9538-0.37318 6.6943-0.12794 8.9321 0.6222 2.964 0.99364 5.1436 1.9609 6.9608 3.1841-5.7729-7.0833-12.597-13.255-20.254-18.299zm7.2551 17.005c-1.8084 0.01445-3.3152 0.16623-4.7169 0.47011-1.231 0.26688-3.4816 0.82921-5.428 1.3412-0.97316 0.25599-1.8724 0.4995-2.5323 0.68738-0.20471 0.05829-0.33502 0.09825-0.48789 0.14419 0.27493 0.16035 0.64915 0.35215 1.3056 0.58467 4.3587 1.5437 5.4366 1.8238 8.5271 2.1965 1.1292 0.13617 1.8028 0.23252 2.2854 0.49184 0.12064 0.06483 0.24119 0.14384 0.34172 0.29431 0.10053 0.15047 0.14137 0.393 0.0889 0.57085-0.10496 0.35569-0.32787 0.47561-0.5669 0.62418-0.45312 0.28162-1.0184 0.33499-1.7343 0.33974-0.71593 0.0048-1.5682-0.07775-2.4809-0.24493-1.9525-0.35758-3.2335-0.75191-8.0847-2.4849-1.051-0.37544-2.2538-0.76002-2.5026-0.81775l-0.0691-0.01778-0.0632-0.03358c-0.42839-0.23692-0.64288-0.29422-0.76442-0.29431-0.12153-9.5e-5 -0.2518 0.04952-0.55109 0.20938l-0.11259 0.06124h-0.081c-0.0189 0.0058-0.0419 0.01437-0.079 0.02765-0.0908 0.03249-0.22366 0.08411-0.3832 0.15012-0.31909 0.13201-0.74762 0.31932-1.2227 0.53529-0.95012 0.43194-2.0868 0.97544-2.9234 1.4083-1.777 0.91965-3.4814 1.7694-5.5484 2.7653-0.52729 0.25407-1.0192 0.52075-1.3748 0.73676-0.12312 0.07481-0.20069 0.12964-0.28443 0.18765 0.11374 0.12368 0.28 0.28391 0.53924 0.48591 0.58244 0.45385 1.4946 1.0516 2.6646 1.7343 0.90728 0.5294 2.2472 1.3862 3.0241 1.9318 0.71175 0.49986 1.786 1.0377 2.1096 1.1219 0.27018 0.07032 0.55003 0.1633 0.798 0.26073 0.24797 0.09743 0.44713 0.1819 0.63207 0.31604 0.0912 0.06614 0.17646 0.12717 0.26667 0.22715 0.0902 0.09998 0.18412 0.26714 0.19949 0.44246 0.0308 0.35063-0.11361 0.52554-0.25283 0.77232-0.0901 0.15963-0.186 0.33782-0.39307 0.48788-0.20707 0.15007-0.49073 0.19633-0.74269 0.16987-0.50394-0.05291-1.0868-0.28748-2.232-0.72096-0.85094-0.3221-2.015-0.93991-2.7219-1.4498-0.60024-0.43295-1.9596-1.2578-2.9431-1.7777-1.0275-0.5432-2.3583-1.3281-3.028-1.7955l-0.86713-0.60838-0.89084 0.53727c-1.2691 0.76618-3.7018 2.7412-5.3174 4.3357-0.70732 0.69808-1.2379 1.2324-1.5842 1.6335-0.34627 0.40112-0.48273 0.68111-0.49184 0.73677 4e-3 0.0053 0.0311 0.04046 0.11852 0.09678 0.18435 0.11879 0.58399 0.27999 1.1377 0.47208 4.8166 1.6708 5.6153 1.9002 6.3741 1.9002 0.61244 0 1.1193 0.09214 1.4518 0.50961 0.16627 0.20874 0.23089 0.52929 0.15605 0.7901-0.0749 0.26081-0.23972 0.46081-0.44838 0.638-0.50864 0.43195-1.2297 0.49436-2.1886 0.37332-0.95883-0.12103-2.2112-0.44481-3.8853-0.97972-0.62018-0.19816-1.5718-0.46709-2.0701-0.58467-0.29237-0.06898-0.59482-0.16849-0.86318-0.27653-0.26835-0.10804-0.48787-0.2051-0.68739-0.3674-0.2748-0.22353-0.47002-0.25952-0.6775-0.20938-0.20749 0.05014-0.47491 0.23109-0.7427 0.62418-1.3593 1.9953-2.2901 4.1902-2.8838 6.8225-0.48935 2.1695-0.70088 7.8046-0.37925 9.7933 0.0944 0.58377 0.74613 2.441 1.4301 4.0868 0.34198 0.82289 0.69482 1.6117 0.98961 2.2103 0.14739 0.29932 0.28134 0.55112 0.38714 0.72886 0.10577 0.17774 0.23946 0.29892 0.1442 0.22913 0.0424 0.0312 0.0104 0.01054-8e-3 0.01185-0.0183 0.0014 0.0175 0.0024 0.11061-0.06518 0.18242-0.13231 0.31264-0.30349 0.69528-0.26073 0.19132 0.02138 0.37244 0.15982 0.45234 0.27258 0.0116 0.01642 0.01 0.02786 0.0198 0.04346 0.1106-0.11375 0.21278-0.21803 0.36345-0.38122 0.44357-0.48049 1.0367-1.1495 1.6651-1.8844 0.71852-0.84028 1.3363-1.518 1.8152-1.997 0.23949-0.2395 0.44125-0.42906 0.61825-0.57084 0.0885-0.07089 0.16976-0.13022 0.25876-0.18172 0.089-0.05151 0.17185-0.11456 0.38122-0.11456 0.15307 0 0.29155 0.01611 0.43456 0.06321 0.0715 0.02354 0.14671 0.05066 0.23702 0.12049 0.0903 0.06983 0.22715 0.22239 0.22715 0.45233 0 0.21971-0.0507 0.26811-0.0928 0.35949-0.0422 0.09138-0.095 0.18682-0.15802 0.29431-0.12607 0.21498-0.29728 0.47749-0.50171 0.7743-0.40886 0.59361-0.95069 1.3219-1.5071 2.0108-1.6422 2.0332-5.6157 7.8832-6.7988 10.007-0.33831 0.60721-0.79747 1.2174-1.2444 1.6967-0.22346 0.23968-0.44139 0.44642-0.6538 0.6064-0.14986 0.11287-0.30341 0.20043-0.49183 0.25481-1.2528 0.838-2.2117 2.2763-3.1683 3.751-0.91839 1.4158-1.8586 2.8301-3.19 3.7154-5e-3 0.0099-0.0052 0.03355-0.0099 0.04346-0.03368 0.07182-0.07281 0.13629-0.11654 0.20542-0.08747 0.13827-0.19848 0.29143-0.33184 0.46418-0.26672 0.34551-0.61726 0.76098-0.98565 1.1733-0.36838 0.41231-0.7533 0.81941-1.0864 1.1456-0.16654 0.16312-0.32061 0.30643-0.45826 0.4227-0.08262 0.0698-0.16753 0.11472-0.2469 0.1679-2.1066 2.363-4.2195 4.9531-6.0423 7.5375-0.40258 0.57086-0.79447 1.089-1.1121 1.4735-0.15879 0.19227-0.29741 0.35143-0.41875 0.47406-0.06067 0.0613-0.11634 0.11338-0.18172 0.16395-0.06538 0.0507-0.08648 0.14814-0.3911 0.14814-0.12956 0-0.28435-0.0238-0.43455-0.12247-0.1502-0.0987-0.25799-0.27575-0.29234-0.42862-0.06869-0.30574 0.01525-0.52199 0.11851-0.77825 0.20482-0.50828 0.61466-1.175 1.2484-2.1076 1.5817-2.8363 3.7502-5.0742 5.3233-7.5454-5.5875 1.3886-10.873 3.4037-16.24 5.5425l-1.3116 0.52147 0.05333 2.1886c0.03404 1.4301-0.0442 3.6619-0.1758 5.0329-0.12937 1.3481-0.13511 2.0772-0.08889 2.2222 0.02307 0.0725-0.04117-2e-3 -2e-3 0.0118 0.0392 0.0135 0.21626 0.0355 0.48788 0.0375 0.4674 3e-3 0.96009 0.20695 1.2918 0.62023 0.33172 0.41327 0.57597 0.98209 0.89874 1.8508 0.27194 0.73191 0.58539 1.55 0.67553 1.7678 0.20414 0.49329 0.5073 1.6219 0.83948 2.9411 0.33218 1.3192 0.66605 2.7656 0.83948 3.7056 0.17658 0.95703 0.38828 2.0958 0.47011 2.5224 0.08329 0.43435 0.3376 1.78 0.56492 2.9964 1.1828 6.3296 2.0304 10.272 2.8839 13.426 0.54419 2.0108 1.0146 4.6422 1.1259 6.3287 0.05444 0.8249 0.08745 1.2483 0.04938 1.5782-0.0095 0.0825-0.01787 0.16274-0.07308 0.27851-0.05522 0.11576-0.23208 0.3018-0.4464 0.32789-0.21432 0.0261-0.33325-0.0546-0.4069-0.10271-0.07365-0.0482-0.11969-0.09-0.16394-0.13234-0.16812-0.16102-0.26568-0.33303-0.37727-0.54122-0.11159-0.20819-0.21504-0.44187-0.29234-0.67356-0.12025-0.36049-0.47903-1.2911-0.77824-2.0088-0.15658-0.37557-0.29796-0.75454-0.40295-1.0706-0.0525-0.15802-0.09609-0.30062-0.12839-0.42467-0.03231-0.12405-0.06123-0.20351-0.06123-0.36345 1e-6 0.0502-0.0048-0.0345-0.02568-0.13036-0.02087-0.0959-0.052-0.22545-0.09284-0.37332-0.08168-0.29576-0.19658-0.66664-0.32196-1.0311-0.26489-0.76999-0.80162-3.0856-1.436-5.9909-0.63438-2.9053-1.3429-6.3355-1.8646-9.1039-0.82999-4.4043-1.4935-7.5212-2.0444-9.5464-0.27546-1.0126-0.52578-1.7528-0.73874-2.2261-0.21296-0.47334-0.44178-0.6144-0.33382-0.58072-0.36698-0.11476-0.81091-0.14601-1.1318-0.10667-0.16045 0.0197-0.28993 0.0599-0.34962 0.0889-0.05969 0.029-0.01448 0.0307 0.01383-0.0671-0.0773 0.26727-0.20405 0.58698-0.33579 0.8296-0.05443 0.10022-0.31023 0.68891-0.48986 1.1674-0.3515 0.93623-0.92872 1.9984-1.4637 2.6686-0.04601 0.0576-0.12839 0.33724-0.12839 0.29234 0 0.30398-0.0956 0.4354-0.1995 0.63603-0.1039 0.20061-0.23768 0.41359-0.3911 0.61232-0.94509 1.2242-1.3441 1.7623-1.9456 2.631-1.1735 1.6948-2.9365 3.6749-4.5016 5.0546-1.0417 0.9183-1.6882 1.5112-2.0424 1.8804-0.16792 0.17499-0.25999 0.29239-0.29826 0.35159 0.2819 0.98264 0.29653 2.5162 0.15407 4.5391-0.14898 2.1154-0.49118 4.7035-1.0054 7.4506-0.07884 0.4212-0.29942 2.1742-0.46616 3.7688-0.16747 1.6015-0.38837 3.7176-0.49184 4.703-0.10332 0.98407-0.36538 3.504-0.58072 5.5978-0.21587 2.099-0.46865 4.2846-0.57875 4.9559-0.48927 2.9828-0.82569 4.735-1.1239 6.1568 11.758 5.4017 24.538 8.2247 37.48 8.2368 49.711 0 90-40.289 90-90-4e-3 -13.698-3.2807-27.136-9.2777-39.414 0.0128 0.3619 0.0603 0.63322 0.0573 1.0587-0.0333 4.2644-1.2642 8.2089-3.7747 12.14-0.61879 0.9689-2.0474 2.7844-3.4488 4.468-0.7007 0.84179-1.39 1.6446-1.9614 2.2775s-0.96305 1.0622-1.3037 1.2977c-0.2067 0.1429-0.75912 0.62995-1.1061 0.99355-0.3969 0.41585-0.92195 0.89147-1.2839 1.1417-0.23991 0.16586-0.3013 0.29416-0.29826 0.28048 3e-3 -0.01367-0.0412-0.05671 0.0751 0.05531 0.0523 0.05042 0.45732 0.29743 1.0034 0.52739 0.54611 0.22996 1.2572 0.48486 2.0404 0.73479 1.5665 0.49985 3.4327 0.98114 4.9282 1.2326 1.1193 0.18816 2.41 0.42322 2.9194 0.53529 0.4663 0.10261 1.2907 0.26747 1.8113 0.36147 0.62222 0.11239 1.2682 0.34151 1.7007 0.71109 0.0168 0.01433 0.21584 0.13618 0.47011 0.24295 0.25427 0.10678 0.57639 0.2196 0.90861 0.32197 0.66444 0.20472 1.413 0.35823 1.6987 0.36147 0.4046 0.0042 0.9699 0.12485 1.6316 0.28246 0.66166 0.15761 1.3647 0.35527 1.8725 0.54319 0.2085 0.07715 0.32258 0.09056 0.5274 0.239 0.0512 0.03711 0.13326 0.07636 0.20345 0.26073 0.0353 0.09219 0.0495 0.23565 8e-3 0.35752-0.0416 0.12187-0.11891 0.20292-0.17777 0.24888-0.23546 0.18384-0.29426 0.12648-0.39307 0.13629-0.3951 0.03935-1.0849 0.0072-2.4848-0.04346-1.6721-0.06047-4.3566-0.29408-6.0284-0.52542-1.6357-0.22633-3.4412-0.42722-3.8498-0.44245-0.95649-0.03563-2.2602-0.31573-4.7919-0.99157-1.5943-0.42558-4.5962-1.6314-5.9-2.3782-0.50662-0.29021-0.7753-0.37005-1.0094-0.34567-0.23406 0.02438-0.55306 0.18146-1.0864 0.58665-0.20545 0.15609-0.40324 0.29764-0.56493 0.40492-0.0808 0.05364-0.15072 0.09861-0.21727 0.13629-0.0333 0.01884-0.064 0.03519-0.10469 0.05333-3e-3 0.0014-0.0167 0.0022-0.0198 0.0039-3.0434 2.1432-5.5904 3.6754-8.8985 5.4181l0.10865-0.07703c-0.1107 0.10188-0.17966 0.13508-0.29036 0.1995-0.1107 0.06442-0.2452 0.13774-0.399 0.21728-0.30762 0.15907-0.69179 0.34342-1.0864 0.52146-0.45594 0.20572-0.78907 0.38067-0.98171 0.50961 0.16954 0.09044 0.42613 0.20272 0.81776 0.33382 0.39625 0.13264 0.79193 0.27725 1.118 0.40492 0.32606 0.12767 0.54038 0.20639 0.73676 0.32987 0.0661 0.04154 0.38788 0.13234 0.43653 0.13234 0.19266 0 0.28974 0.03485 0.47208 0.07902 0.18234 0.04415 0.40552 0.1044 0.65973 0.17777 0.50843 0.14675 1.1398 0.34478 1.7698 0.55109 0.63005 0.20631 1.2574 0.42146 1.7619 0.6064 0.25227 0.09248 0.4734 0.17697 0.65183 0.25086 0.17844 0.07389 0.29315 0.11588 0.43455 0.21135-1e-3 -7.55e-4 0.41847 0.14024 0.63011 0.14024 0.21569 0 0.41229 0.02906 0.60047 0.10469 0.0941 0.03781 0.18776 0.08635 0.28444 0.17777 0.0386 0.03656 0.0482 0.12581 0.083 0.1837 0.26928 0.0031 0.5229 0.02509 0.76243 0.11852 0.1604 0.06256 0.31365 0.1358 0.45431 0.2232 0.14068 0.0874 0.27494 0.16526 0.39506 0.38122-0.0797-0.14319-0.12133-0.13253-0.10667-0.12444 0.0146 0.0081 0.0706 0.0331 0.15605 0.06518 0.17091 0.06416 0.4651 0.15744 0.9007 0.28048 0.87123 0.2461 2.3144 0.61718 4.6004 1.1891 1.6996 0.42524 4.1831 1.3315 5.3312 1.9693l0.76837 0.42863-0.31407 0.95009-0.67355-0.08888c-1.4436-0.19266-5.1916-0.82935-6.8798-1.1674-4.5269-0.90642-12.183-3.0834-18.099-5.1455-0.43813-0.15271-1.6652-0.51752-2.6626-0.78417-1.0149-0.2713-2.0926-0.57832-2.4928-0.71899-0.13765-0.04838-0.28519-0.08266-0.3832-0.09481-0.0489-0.0062-0.0858-0.0063-0.0909-6e-3 -0.0255 0.0052-0.0801 0.03749-0.10468 0.04346-0.0601 0.01446-0.12041 0.02608-0.1916 0.03753-0.14245 0.02291-0.32182 0.04486-0.53332 0.06716-0.40958 0.04317-0.94456 0.08351-1.5091 0.11654h-2e-3c-2.9518 0.45804-5.3844 0.49392-7.7232 1.3274l-0.0296 0.01185-0.0336 6e-3c-0.34171 0.07415-0.31839 0.01597-0.64393 0.46616-0.32553 0.45019-0.85067 1.3863-1.8291 3.1703-0.67931 1.2386-1.2896 2.6174-1.6809 3.7154-0.19567 0.54902-0.33777 1.0304-0.40493 1.3708-0.0245 0.12296-0.0275 0.19646-0.0336 0.27258 0.0523 0.01276 0.0865 0.02333 0.15802 0.03753 0.27003 0.05362 0.66038 0.11255 1.1298 0.16987 0.93891 0.11465 2.1953 0.22441 3.5061 0.29629h-0.0197c7.4898 0.11318 13.23 2.7182 20.383 4.306l4e-3 2e-3c0.70911 0.15142 1.6968 0.39968 2.5777 0.63997 0.88227 0.24069 1.5942 0.44152 1.9535 0.60048 0.7896 0.34932 1.5031 0.72465 2.0384 1.0607 0.26766 0.16802 0.48972 0.32341 0.66566 0.47801 0.088 0.0773 0.16456 0.15421 0.23505 0.24887 0.0705 0.0947 0.15802 0.20943 0.15802 0.43258 0 0.10528-0.0105 0.22738-0.077 0.36148-0.0665 0.13408-0.20871 0.26456-0.3516 0.31998-0.28578 0.11085-0.48092 0.0363-0.6775-0.0296-0.17192-0.0577-0.82286-0.22289-1.3392-0.33185-0.56229-0.11871-1.4247-0.35399-1.9832-0.53924-0.4931-0.16358-1.6754-0.48841-2.5639-0.70318l-0.0158-4e-3 -0.0138-4e-3c-6.4985-1.9865-13.779-3.3977-19.822-3.5574-1.5609-0.0392-2.9969-0.0993-4.1046-0.16986-0.55384-0.0353-1.0268-0.0737-1.3945-0.11259-0.36772-0.0389-0.59544-0.0609-0.8217-0.1363-0.74995-0.24994-1.4454-0.65697-1.9812-1.118-0.53583-0.46101-0.96985-0.95092-0.96985-1.6039 0-0.33254 0.0992-0.58154 0.22913-0.97972 0.12994-0.39818 0.30502-0.87157 0.49382-1.3471 0.18877-0.47555 0.39139-0.95153 0.57874-1.353 0.18734-0.40151 0.33651-0.70846 0.51356-0.94022 0.1209-0.15825 0.558-0.89479 0.85528-1.4893 0.30928-0.61856 0.64443-1.2751 0.76442-1.4972 0.2675-0.49522 0.52769-1.0426 0.71701-1.4913 0.0921-0.21818 0.16514-0.40997 0.2153-0.55899-0.0932-0.0099-0.13744-0.02349-0.32986-0.01975-0.55621 0.01016-1.6064-0.04955-2.4236-0.13432-0.74837-0.07764-3.0234-0.20251-4.9776-0.26863-2.4016-0.08127-3.9395-0.17466-5.0211-0.35159-1.0815-0.17693-1.7484-0.464-2.2459-0.91651-0.0638-0.05803-0.39973-0.25782-0.55306-0.31209l-0.27061-0.09678-0.0593-0.28246c-0.14287-0.69958-0.17831-1.1816 0.0118-1.6098 0.0951-0.21412 0.2854-0.41079 0.50765-0.49579 0.22224-0.08498 0.4405-0.06975 0.63009-0.02568 0.69341 0.1612 1.2802 0.71957 1.8093 1.2266-0.0144-0.0076 0.10496 0.0187 0.28837 0.03556 0.2023 0.01859 0.47605 0.03544 0.79406 0.05136 0.63602 0.03184 1.4553 0.05613 2.2972 0.06321 1.7154 0.01435 4.3944 0.12822 5.9968 0.25481 2.2048 0.17416 3.5126 0.26034 4.2784 0.26073 0.38288 2.03e-4 0.62816-0.02375 0.76245-0.05333 0.13431-0.02957 0.14331-0.04532 0.16394-0.06518-2e-3 0.0019 0.1961-0.25982 0.38122-0.57677 0.18513-0.31695 0.39881-0.71686 0.5985-1.116 0.1997-0.39916 0.38664-0.79975 0.51949-1.118 0.0664-0.15912 0.11913-0.29837 0.15209-0.399 0.0336-0.10065 0.0356-0.18919 0.0356-0.10864v-0.10278l0.0395-0.09481c0.22996-0.54741 0.68492-0.86906 1.0785-1.0765 0.39357-0.20745 0.79409-0.32997 0.85133-0.35357l0.34172-0.14024 0.23901 0.28048c0.34464 0.40028 0.39067 0.95708 0.27455 1.5486-0.11611 0.59152-0.38911 1.2775-0.81577 2.1234-0.17734 0.35161-0.33976 0.69327-0.45431 0.95207-0.0154 0.03453-0.022 0.05155-0.0356 0.08296 0.062 0.01838 0.1008 0.0359 0.17382 0.05136 0.32015 0.06777 0.76294 0.03749 0.72492 0.05136 0.1778-0.06486 0.25673-0.06462 0.4543-0.09678s0.45466-0.0677 0.75652-0.10864c0.60371-0.08188 1.3873-0.1778 2.2083-0.26863 1.5522-0.17174 2.3798-0.30822 2.6567-0.43258 0.13822-0.06219 0.12295-0.06232 0.14024-0.10469 0.0173-0.04238 0.0405-0.18746 0.0415-0.43653 4e-3 -0.74332 0.40724-1.5887 1.039-2.6587 0.63175-1.07 1.5188-2.3111 2.5738-3.5851 1.1241-1.3574 2.2713-2.7662 2.4947-3.0597 0.33067-0.43436 0.82438-0.68492 1.3155-0.82763 0.24557-0.07136 0.49224-0.11197 0.73874-0.10074 0.2465 0.01124 0.52889 0.0694 0.74467 0.31999 0.22046 0.25602 0.18921 0.57222 0.12246 0.798-0.0668 0.22578-0.18194 0.44559-0.34369 0.70911-0.32349 0.52705-0.84602 1.2139-1.5999 2.1293-1.5224 1.8486-2.571 3.2277-3.194 4.2053-0.31151 0.48879-0.51441 0.87944-0.61825 1.1555-0.0925 0.24596-0.08 0.34562-0.079 0.37135 0.0169 0.01585 0.0302 0.03111 0.0731 0.05333 0.12332 0.06386 0.32574 0.13625 0.56097 0.19358 0.46986 0.11452 1.0758 0.16864 1.5367 0.11654h2e-3c5.549-0.75178 9.7345-4.4464 14.303-7.3183 0.38299-0.23986 0.71454-0.48319 0.93231-0.67356 0.0685-0.05985 0.0999-0.09796 0.14222-0.14222-0.02-0.02836-0.0287-0.04774-0.0553-0.08099-0.12107-0.15116-0.3041-0.33845-0.49776-0.50171-0.50486-0.42565-1.0306-1.043-1.2977-1.5743h2e-3l-0.50171-0.99157 1.0271-1.7362c0.49482-0.83658 1.0683-1.7351 1.3669-2.1135 0.16125-0.20444 0.69964-1.0594 1.199-1.916 0.49934-0.85661 1.0001-1.7732 1.1713-2.155 0.11687-0.26048 0.3422-0.51856 0.6301-0.65381 0.2879-0.13524 0.59989-0.18243 1.0192-0.22123 0.31616-0.02925 0.57631-0.04312 0.80787-0.02963 0.23157 0.01349 0.45089 0.04047 0.66961 0.20148 0.21869 0.161 0.32862 0.48669 0.31011 0.71701-0.0185 0.23033-0.0938 0.41594-0.1916 0.62813-0.10038 0.21791-0.28691 0.52147-0.55109 0.94812-0.26418 0.42665-0.59206 0.94099-0.92046 1.4459-0.32841 0.50488-0.65658 0.99952-0.92046 1.3846-0.13195 0.19256-0.24756 0.35728-0.34172 0.48591-0.0942 0.12864-0.11632 0.18433-0.25876 0.31011 0.0609-0.05379 0.0417-0.04275 0.0316-0.02963-0.01 0.01312-0.0288 0.03953-0.0514 0.07309-0.0452 0.06711-0.1084 0.16644-0.18172 0.28444-0.14669 0.23598-0.33557 0.55153-0.5274 0.88491-0.469 0.81509-0.63514 1.3083-0.62219 1.5407 6e-3 0.11622 0.0319 0.19058 0.12444 0.31011 0.0926 0.11953 0.26143 0.27013 0.51553 0.44838 0.23403 0.16418 0.46016 0.3142 0.62814 0.41875 0.0169 0.01051 0.0238 0.0142 0.0395 0.0237 0.0503-0.0368 0.0895-0.06335 0.15406-0.11259 0.23027-0.17574 0.53682-0.42029 0.85134-0.67751 0.62902-0.51444 1.3339-1.1308 1.4538-1.2602 0.18198-0.19634 0.72768-0.73344 1.2839-1.2661 1.5515-1.4858 3.6729-4.1224 5.6235-7.0161 1.6025-2.3773 2.7245-6.454 3.0676-11.439 0.11947-1.7359-0.0307-3.0126-0.79602-4.7189-0.76531-1.7062-2.1711-3.8323-4.5569-7.0951-2.1787-2.9796-3.6121-4.1281-6.8778-5.5169-3.9495-1.6796-5.3909-2.0179-8.4936-1.993zm-11.883 50.764c-0.0317-0.02969-0.0382-0.04041-0.01 0.04543 1e-4 3.2e-4 0.01-0.04228 0.01-0.04543zm-78.273 51.923c-0.0129-0.045-0.01754-0.10557-0.0316-0.14815 0.04595 0.13907-0.01719 0.22225 0.0158 0.1679 0.0017-3e-3 0.0137-0.0165 0.0158-0.0197zm42.667-45.543c0.0111-0.0074 0.0205-0.01837 0.0316-0.02568l-0.28048 0.08296c0.10424 0 0.17024-0.03459 0.24888-0.05728zm-3.3164-20.953c-0.42126 7e-3 -0.84951 0.04165-1.278 0.09877-0.97735 0.13028-1.9221 0.30897-2.7811 0.23308h-2e-3c-1.455-0.13293-6.0976 0.13874-8.4027 0.51751-1.5456 0.25397-2.2807 0.38348-2.6271 0.54319-0.17317 0.07985-0.26391 0.15262-0.39505 0.30419s-0.29054 0.38804-0.51949 0.72491c-0.21788 0.3206-0.41928 0.66647-0.56294 0.94812-0.07184 0.14082-0.13032 0.26529-0.16592 0.35752-0.03556 0.09223-0.04203 0.16886-0.03951 0.10864-0.03421 0.81828-0.46385 1.5805-1.4064 2.7416-1.4459 1.7812-1.7574 2.201-2.8187 3.7925-0.5819 0.87261-1.574 2.292-2.2202 3.1762-0.63446 0.86822-1.3444 1.89-1.5249 2.1846-0.21968 0.35864-0.46042 0.72957-0.6143 0.92442-0.01085 0.01374-0.25758 0.37254-0.54319 0.80787s-0.64416 0.98879-0.99947 1.5427c-0.35531 0.55388-0.70819 1.1084-0.9817 1.5446-0.27351 0.43624-0.49912 0.81849-0.49184 0.80392 0.07083-0.14261 0.0116-0.02183 0.0316 0.11456 0.02001 0.1364 0.06867 0.3171 0.13234 0.47406 0.21598 0.53246 0.41056 1.4161 0.59455 2.4592 0.18399 1.0431 0.34093 2.2174 0.41678 3.2256 0.05863 0.77937 0.23908 2.4992 0.39702 3.7846 0.0797 0.64859 0.15206 1.2725 0.20542 1.756 0.02668 0.24173 0.04972 0.44753 0.06518 0.6064 9.11e-4 9e-3 0.0011 0.0106 2e-3 0.0197 0.05535 2e-3 0.07248 9e-3 0.15012 2e-3 0.33711-0.0287 0.83584-0.14299 1.3037-0.32591l0.0316-0.0118 0.03358-8e-3c5.9858-1.4603 12.03-4.8741 18.579-5.3964l0.01975-2e-3h0.01975c0.1315-2.26e-4 0.29466-0.0499 0.62615-0.35554 0.33149-0.30564 0.78344-0.84794 1.3945-1.677 2.4383-3.308 2.8458-3.8438 4.4443-5.8526 0.52347-0.65786 1.4793-1.9138 2.1076-2.7693 0.63618-0.8662 1.5745-2.1198 2.0957-2.7969 0.43337-0.563 0.75409-0.94271 0.93033-1.2227 0.17625-0.27997 0.22105-0.4197 0.20345-0.69331-0.0351-0.54721-0.53685-1.6865-1.6236-4.2152-1.8182-4.2304-2.2073-5.4549-2.4848-7.8417l-0.06321-0.56294c-0.40293-0.0514-0.81721-0.07215-1.2385-0.06518zm-79.053 28.963c-0.11903 0.05087-0.40495 0.1703-0.96984 0.49579-2.7877 1.6063-5.7199 2.2846-10.415 2.4434-2.1967 0.0742-3.6707-0.0468-4.7643-0.31999 0.75817 6.868 2.3603 13.602 4.6635 20.114 0.012926-0.0328 0.019093-0.0831 0.033579-0.11457 0.053191-0.11542 0.3459-0.97766 0.55307-1.7106v-4e-3c1.76-6.1156 5.4506-11.262 8.699-15.113l2.2439-2.6547v-1.7876c0-0.67557-0.01075-1.1101-0.04345-1.3491zm37.081 39.444c-0.04391 0.0221-0.071 0.0334-0.12049 0.0593-0.2917 0.15286-0.67196 0.36924-1.0568 0.6064-2.0283 1.2501-3.2466 1.9498-3.9465 2.1886-0.18632 0.0635-0.72427 0.31604-1.0647 0.51358-1.4025 0.81385-2.2004 1.1237-5.0626 1.9634l-2.6034 0.76442-0.08691 0.69331c-0.07478 0.59136-0.30043 1.9998-0.50764 3.1762-0.20343 1.155-0.63059 3.8791-0.94417 6.0304-0.1577 1.0819-0.32015 2.1156-0.45826 2.9135-0.06905 0.39894-0.13298 0.73903-0.18567 0.99948-0.05269 0.26043-0.06571 0.3867-0.14419 0.57677 5e-3 -0.012-0.0728 0.25265-0.14419 0.58862-0.07138 0.33597-0.15782 0.78355-0.25283 1.3056-0.17403 0.95627-0.3792 2.1915-0.57677 3.4389 4.2779 3.1905 8.8372 5.9797 13.611 8.3632 0.13136-1.1089 0.26963-2.2709 0.48789-2.8681-0.01335 0.0365 0.071-0.35222 0.11851-0.7822 0.04751-0.42997 0.09223-0.97014 0.12049-1.5071 0.05853-1.1128 0.172-2.3312 0.29234-2.8819 0.07202-0.32962 0.22424-1.7546 0.29431-2.9708 0.07159-1.2422 0.21035-3.0035 0.31011-3.9446 0.09728-0.91757 0.22509-2.2783 0.28246-3.0083 0.10431-1.3272 0.27378-3.0127 0.44048-4.4542 0.08335-0.72073 0.16613-1.3802 0.239-1.9041 0.07287-0.52398 0.12795-0.88686 0.18962-1.1219 0.07887-0.30065 0.28216-1.7179 0.44443-3.1643 0.16227-1.4464 0.30342-3.0025 0.32987-3.7786 0.03088-0.90729 0.02508-1.4683-0.0059-1.7955zm-35.985 6.9706c4.7885 6.432 10.369 12.224 16.687 17.167 0.07813-0.51939 0.17521-1.1519 0.30419-1.916 0.16532-0.97926 0.37614-2.3439 0.46616-3.0083 0.16416-1.2118 0.49798-3.3731 1.3669-8.857 0.11645-0.73494 0.22529-1.4796 0.30616-2.0839 0.08087-0.60429 0.13412-1.0983 0.13827-1.2148 0.0023-0.0631 0.0083-0.0248 0.0059-0.0671-0.32237 0.0107-1.2168 0.18297-3.028 0.5748-4.4949 0.97245-7.1691 1.1439-11.156 0.71108-1.126-0.12221-3.6082-0.787-5.0902-1.3056z" fill="#ff8080" stroke-width="1"/>
<animate attributeName="display" values="inline;none;none" keyTimes="0;0.5;1" dur="0.5s" begin="0s" repeatCount="indefinite" />
</g>
<g transform="matrix(1.0113 0 0 1.0113 -1.0132 -1.0132)">
<path d="m90 1.002c-49.152 0-88.988 39.83-88.998 88.98 0.03293 0.55658 0.075757 1.1122 0.11914 1.668 0.020741-3.1e-4 0.033246-0.01153 0.054687-0.01172 0.30268-0.0027 0.6977 0.02126 1.2656 0.0625l0.037109 2e-3 0.037109 0.0098c0.80892 0.18445 1.3178 0.21763 1.6543 0.18945 0.33646-0.02818 0.50586-0.10591 0.73438-0.2168s0.52231-0.27055 0.94336-0.34375c0.42105-0.0732 0.94569-0.05909 1.6895 0.08984l0.035156 0.0078 0.033203 0.01172c0.034116 0.0121 0.51109 0.08933 1.0859 0.11719 0.57486 0.02791 1.3013 0.03604 2.0645 0.02734 1.5263-0.01735 3.2151-0.11058 4.1309-0.25391 1.065-0.16668 2.6275-0.39873 3.4824-0.51758l0.03906-0.0059 0.04102 2e-3c0.87788 0.02076 1.4461-0.38035 1.9141-0.88867 0.23398-0.25416 0.43114-0.53275 0.60352-0.78516 0.17237-0.2524 0.2977-0.47033 0.50391-0.66602l0.42188-0.40039 0.33398 0.47852c1.0374 1.4881 1.322 3.0735 1.2988 4.3945v2e-3c-0.0095 0.41689 0.0041 0.73834 0.01758 1.0312 0.36781-0.31951 0.95702-0.70351 1.7793-1.1973 0.86713-0.52069 1.9233-1.1163 2.9688-1.6816 1.0454-0.56532 2.079-1.0997 2.9082-1.4961 0.41459-0.19821 0.77827-0.36222 1.0723-0.48047 0.294-0.11825 0.44383-0.20954 0.75586-0.21094-0.05358 2.5e-4 0.06345-0.01019 0.17383-0.04687 0.11037-0.03668 0.242-0.09228 0.34766-0.14648 0.3133-0.16073 0.92204-0.41696 1.4316-0.60937 0.36532-0.13794 0.52526-0.22717 0.63086-0.33008 0.1056-0.10291 0.20601-0.27061 0.36328-0.64258 0.2052-0.48533 0.44746-1.1322 0.50781-1.3379 0.09614-0.32764 0.3211-0.89463 0.53125-1.3633 0.17165-0.3828 0.39037-1.1407 0.44336-1.5273l0.07031-0.50586-1.3125-0.7168c-3.612-1.9683-5.0795-2.7236-9.4121-4.8517-1.2482-0.61309-2.4366-1.2031-3.3477-1.6602s-1.4831-0.74343-1.7051-0.87695c-0.17729-0.10665-1.4265-0.74741-2.6152-1.3262-0.60112-0.29267-1.1479-0.56932-1.5488-0.78125-0.20046-0.10596-0.36259-0.19632-0.48438-0.26758-0.06089-0.03563-0.1099-0.06436-0.1582-0.09766-0.02414-0.01665-0.04823-0.03246-0.08398-0.06445-0.01787-0.01599-0.03766-0.03359-0.07031-0.07617-0.01632-0.02129-0.03696-0.04981-0.05859-0.0957-0.01082-0.02295-0.03113-0.08549-0.03125-0.08594-1.2e-4 -4.47e-4 -0.01758-0.13047-0.01758-0.13086 0-0.24292 0.18858-0.41758 0.28711-0.4707s0.16147-0.0639 0.2207-0.07422c0.11846-0.02063 0.22228-0.02133 0.34375-0.01953 0.24295 0.0035 0.53968 0.03106 0.85742 0.07227 0.63548 0.08242 1.2929 0.1903 1.7383 0.39062 0.31394 0.14121 0.95334 0.37906 1.3477 0.49805 0.22979 0.06934 0.45609 0.15154 0.64844 0.23242 0.19235 0.08088 0.3091 0.10278 0.50195 0.28125-0.03471-0.03212 0.14244 0.03711 0.08984 0.03711 0.16888 0 0.22071 0.02899 0.32031 0.05859 0.0996 0.02959 0.2129 0.06866 0.33789 0.11523 0.24999 0.09314 0.54893 0.21793 0.84961 0.35547 0.28452 0.13014 0.55727 0.24827 0.76172 0.33203 0.10222 0.04188 0.18777 0.07543 0.24414 0.0957 0.02819 0.01018 0.04849 0.01578 0.05469 0.01758s0.0341-0.0098-0.09375-0.0098c0.11685 0 0.12726 0.01594 0.1543 0.02344s0.04868 0.01389 0.07031 0.02148c0.04326 0.01523 0.08858 0.03275 0.14258 0.05469 0.108 0.04388 0.24644 0.1043 0.41211 0.17773 0.33134 0.14687 0.76791 0.34572 1.2324 0.56641 1.6436 0.78086 3.0341 1.3996 4.084 1.8184 0.52493 0.20937 0.96665 0.36836 1.3027 0.47266 0.33608 0.1043 0.58994 0.14648 0.62695 0.14648 0.17178 0 0.21171 0.02699 0.30859 0.05469s0.20898 0.06345 0.33398 0.10742c0.25002 0.08794 0.55361 0.20754 0.86133 0.33789 2.6236 1.1114 3.4938 1.3726 3.9082 1.3887 0.23264-0.15629 0.44309-0.31606 0.59961-0.4668 0.1929-0.18578 0.31124-0.3804 0.65234-0.50586 0.17055-0.06272 0.42647-0.05265 0.60352 0.04102s0.28514 0.22162 0.38867 0.36523c0.20706 0.28724 0.40232 0.68369 0.68945 1.3066l0.01563 0.03516 0.01172 0.03906c0.27953 0.98842-0.09221 2.2707-1.3613 6.1953-0.1002 0.30988-0.16903 0.57976-0.22461 0.81641 0.06735-0.01097 0.10436-0.01349 0.18164-0.02734 0.47394-0.08495 1.122-0.22085 1.8184-0.38672 2.1706-0.51701 4.5845-0.95044 6.6973-1.2305 2.1128-0.28003 3.8902-0.41599 4.9297-0.29883 0.2369 0.0267 0.35555 0.02007 0.43164 0.01367 0.0087-0.03812 0.0024-0.01536 0.0098-0.0625 0.02183-0.13879 0.04812-0.33055 0.07617-0.55664 0.05611-0.45218 0.11856-1.0425 0.17578-1.6582 0.11561-1.2439 0.28155-2.8895 0.36914-3.6719 0.04204-0.3755 0.07151-0.75644 0.08398-1.0566 0.0063-0.1501 0.0078-0.2798 0.0059-0.375-2e-3 -0.0952-0.02004-0.17706-0.0059-0.12305 0.05726 0.21832 0.06557 0.11984-2e-3 0.0625-0.06752-0.05734-0.18528-0.14156-0.33203-0.23633-0.2935-0.18954-0.70923-0.42261-1.1621-0.64063-0.95157-0.45809-2.2508-1.1892-2.9668-1.6758-0.6706-0.45572-1.3951-0.93526-1.5215-1.0117-0.10177-0.06157-0.20243-0.12844-0.29102-0.19336s-0.14872-0.0991-0.24609-0.21289c0.0908 0.10612 0.05389 0.0519 0.0332 0.03711-0.02069-0.01478-0.05676-0.03949-0.10352-0.07031-0.09353-0.06164-0.22862-0.14789-0.39258-0.25-0.32792-0.20423-0.77125-0.47243-1.2461-0.75391-0.96161-0.57001-2.2158-1.3427-2.8145-1.7324-0.28843-0.18778-0.57233-0.36708-0.79492-0.50391-0.1113-0.06841-0.20821-0.12675-0.2793-0.16797s-0.14253-0.07512-0.09766-0.05664c-0.22112-0.09103-0.43847-0.23221-0.7793-0.44531-0.34082-0.2131-0.7513-0.47904-1.1523-0.74609s-0.79135-0.5347-1.0938-0.75c-0.1512-0.10765-0.27972-0.2026-0.38086-0.28125-0.05057-0.03933-0.09435-0.07376-0.13477-0.10938-0.04042-0.03561-0.06781-0.03555-0.14844-0.16602-0.05402-0.08741-0.10864-0.23139-0.08203-0.39648 0.02661-0.1651 0.13399-0.29788 0.2207-0.36328 0.17342-0.1308 0.28633-0.13029 0.40039-0.14453 0.22812-0.02848 0.46712-0.01304 0.73047 0.01953s0.54005 0.08458 0.79297 0.1582c0.25292 0.07362 0.47309 0.13678 0.69531 0.33789 0.06958 0.06297 0.15048 0.12421 0.20703 0.16016 0.02827 0.01798 0.05023 0.03015 0.05273 0.03125 0.01522 0.0064 0.06507 0.01023 0.08203 0.01563 0.04311 0.01374 0.08686 0.02981 0.13672 0.04883 0.09971 0.03804 0.2232 0.08807 0.36914 0.15039 0.29188 0.12464 0.6704 0.29415 1.0684 0.48047 0.38566 0.18056 0.79259 0.35985 1.1328 0.5 0.34022 0.14015 0.64214 0.24544 0.69922 0.25976 0.16937 0.04251 0.32747 0.10043 0.46875 0.16797s0.25755 0.06813 0.42188 0.33398c-0.06647-0.10756 0.0394 0.02876 0.19922 0.11914 0.15982 0.09038 0.37839 0.19305 0.59961 0.28125 0.22122 0.0882 0.44756 0.16424 0.62109 0.20703 0.17353 0.04278 0.34444 0.0016 0.18945 0.05078 0.40395-0.1282 0.65356 0.01355 1.0059 0.16602 0.3523 0.15247 0.7769 0.38473 1.293 0.70117 1.9461 1.1933 4.2185 2.2611 5.2656 2.5254 0.57596 0.14536 0.96861 0.26184 1.3066 0.49023 0.33803 0.2284 0.55021 0.54933 0.75195 0.93945 0.66463 1.2852 0.72421 2.8393 0.39844 6.8574-0.12193 1.5035-0.18663 2.4665-0.19727 3.0449-0.0046 0.25295 0.0068 0.40135 0.01758 0.50391 0.05952 0.02022 0.0574 0.0187 0.17383 0.04492 0.20429 0.04601 0.46659 0.09159 0.72266 0.125 2.5382 0.33113 5.2758 1.0026 7.4688 1.7559 1.0965 0.37662 2.054 0.77362 2.7949 1.168 0.51548 0.27436 0.77624 0.58326 1.0684 0.89648 0.286-0.15838 0.68392-0.415 1.207-0.83789 0.60856-0.49197 1.3134-1.1112 2.0234-1.7617 1.4202-1.301 2.8615-2.724 3.6406-3.5039l0.0625-0.0625 0.08008-0.03711c1.2982-0.60874 2.3098-1.5815 3.3398-2.5996 1.03-1.0181 2.0769-2.0834 3.4766-2.7656l0.05273-0.02539 0.05664-0.01172c0.17489-0.03925 0.31332-0.07023 0.44922-0.08789 0.1359-0.01766 0.28548-0.04089 0.48828 0.05078s0.33723 0.32972 0.36914 0.47656c0.0319 0.14684 0.0293 0.25372 0.0293 0.37695 0 0.27878-0.11322 0.46717-0.25976 0.68945s-0.3519 0.47743-0.64453 0.80859c-0.58527 0.66233-1.5175 1.6196-2.959 3.0605-3.754 3.7526-5.5914 5.5833-6.3438 6.5527-0.37617 0.4847-0.44587 0.71415-0.44727 0.81836-0.0014 0.10422 0.07142 0.25163 0.24805 0.5918 0.1547 0.29795 0.36603 0.74228 0.48828 1.0293 0.11086 0.26029 0.41276 0.9569 0.66797 1.5391 0.81398 1.8568 1.4917 3.8865 1.9199 5.6309 0.21411 0.87217 0.36493 1.6715 0.43945 2.3516s0.08831 1.2274-0.05078 1.6856c-0.0875 0.28824-0.22632 0.94132-0.28516 1.3574-0.03936 0.27854-0.02176 0.38081-0.03516 0.38281 0.03951 8e-3 0.08032 0.0205 0.20117 0.0195 0.64283-7e-3 2.2666-0.34286 5.3887-1.0312 0.71564-0.15779 2.3976-0.46227 3.9707-0.73242 0.78655-0.13507 1.543-0.26131 2.1289-0.35351 0.29296-0.0461 0.54348-0.0827 0.73633-0.10938 0.19284-0.0266 0.28355-0.0449 0.43164-0.0449 0.44088 0 0.76953 0.37601 0.76953 0.78906 0 0.16996-0.03916 0.33246-0.13867 0.48242-0.0538 0.0811-0.14101 0.15905-0.24609 0.21875v0.21875l-2.541 2-0.03906 0.0195c-0.22092 0.11831-0.49682 0.20572-0.85938 0.31446s-0.78619 0.2211-1.1973 0.3125c-0.78473 0.1744-2.4381 0.57071-3.6543 0.875-1.2206 0.30541-2.947 0.73631-3.8379 0.95898-0.43859 0.10962-0.87136 0.22796-1.209 0.32813-0.16881 0.0501-0.31477 0.0962-0.42188 0.13281-0.06062 0.0207-0.06055 0.0192-0.08984 0.0312v2e-3c-0.03752 0.0645-0.09399 0.17228-0.1582 0.31055-0.12905 0.27792-0.29525 0.67553-0.47461 1.1387-0.35872 0.92629-0.77558 2.1196-1.1133 3.2227-0.04027 0.13154-0.09043 0.25769-0.14453 0.37109-0.0541 0.1134-0.05719 0.19028-0.24219 0.34766 0.0108-9e-3 -0.08883 0.0958-0.18359 0.22265-0.09476 0.12685-0.20324 0.28778-0.30469 0.44532s-0.19699 0.31473-0.25977 0.43164c-0.03139 0.0584-0.0538 0.10751-0.06445 0.13281-0.01066 0.0253 0.0078 0.0616 0.0078-0.0859 0 0.23202-0.04518 0.24669-0.08203 0.33789s-0.08454 0.19299-0.14062 0.30664c-0.11217 0.2273-0.2607 0.50322-0.42578 0.78321-0.15656 0.26552-0.29951 0.51529-0.40039 0.70117-0.05044 0.0929-0.09117 0.1716-0.11524 0.2207-0.01208 0.0245-0.02055 0.0429-0.02148 0.0449-4e-4 1e-3 0.0011-3e-3 0.0059-0.0176 0.0048-0.0149 0.02148-0.0243 0.02148-0.13867 0 0.19462-0.03521 0.19182-0.05078 0.22852-0.01556 0.0367-0.02962 0.0665-0.04687 0.0996-0.0345 0.0662-0.07783 0.14363-0.13476 0.24023-0.11388 0.19325-0.27949 0.46064-0.5 0.81055-0.44103 0.69983-1.1011 1.7232-1.9863 3.0801-0.33386 0.5117-0.63779 0.99144-0.85547 1.3476-0.10884 0.17811-0.19708 0.32685-0.25391 0.42774-0.0274 0.0486-0.04705 0.0844-0.05664 0.10351-0.02573 0.11632-0.06791 0.18114-0.10938 0.25-0.05792 0.0962-0.13079 0.20181-0.22852 0.33399-0.19546 0.26435-0.48824 0.63301-0.91016 1.1504 0.05344-0.0656-0.01015 0.0227-0.03516 0.13086-0.02502 0.10812-0.04102 0.24987-0.04102 0.36523 0 0.22438 0.01215 0.19268-0.0078 0.17188-0.01996-0.0208 0.10377 0.0633 0.43359 0.16211 0.55084 0.16503 1.0758 0.46403 1.4004 0.91992 0.31735 0.44567 0.73005 1.2353 1.1973 2.2129 0.46722 0.97756 0.97182 2.1262 1.4023 3.2148 0.6949 1.7571 2.8403 8.51 3.2695 10.295 0.06437 0.26767 0.23325 0.71575 0.30273 0.84374 0.08003 0.14746 0.11671 0.26898 0.19531 0.49024s0.17499 0.50679 0.2832 0.83594c0.21643 0.65829 0.48027 1.4912 0.73633 2.3223 0.25605 0.83105 0.50435 1.6598 0.68945 2.3047 0.09255 0.32245 0.16973 0.59837 0.22461 0.81055 0.02744 0.10609 0.04996 0.19578 0.06641 0.27148s0.0332 0.10216 0.0332 0.23828c0 0.19139-0.06002 0.25324-0.09375 0.30664-0.03373 0.0533-0.06301 0.0887-0.09375 0.12305-0.06149 0.0687-0.12756 0.12901-0.20312 0.19531-0.15115 0.13254-0.33914 0.2793-0.53516 0.42188-0.19602 0.14257-0.39732 0.27883-0.57617 0.38672-0.08942 0.0539-0.17253 0.10122-0.25586 0.14062s-0.12662 0.0918-0.3457 0.0918c-0.28578 0-0.45665-0.19126-0.5332-0.32813s-0.1028-0.27113-0.10352-0.41406c5.1e-4 0.10192-0.01214-0.0421-0.05859-0.16797-0.04644-0.12586-0.11509-0.2837-0.1875-0.42187-0.1328-0.25343-0.28055-0.66833-0.49023-1.2695-0.20969-0.60121-0.45671-1.3454-0.68945-2.0938-0.46039-1.4804-1.3661-4.3034-2.0098-6.2637-0.64476-1.9637-1.4399-4.3938-1.7676-5.4043-0.37638-1.1608-0.93605-2.6988-1.4395-3.9941-0.2517-0.64766-0.48951-1.2351-0.68164-1.6816-0.19213-0.44659-0.39194-0.81195-0.36914-0.78125 0.02312 0.0311-0.04063-0.0379-0.21484-0.0937-0.17422-0.0558-0.44177-0.10708-0.7832-0.13868-0.31531-0.0292-0.62043-0.0667-0.86523-0.10546-0.1224-0.0194-0.22971-0.0396-0.32227-0.0605s-0.12788-1e-3 -0.30273-0.10938c0.07295 0.0451 0.11692 0.0246 0.06445 0.0371-0.05247 0.0126-0.1693 0.0578-0.31445 0.14649-0.29031 0.17733-0.69752 0.51332-1.1543 0.97851-0.57617 0.5868-1.8258 1.6466-2.8516 2.4297-1.0025 0.76538-2.07 1.6151-2.2676 1.793-0.32098 0.28889-0.83099 0.62504-1.2559 0.84375l0.05859-0.0352c-1.1171 0.78758-2.9241 1.9338-4.418 3.0625-0.74693 0.56433-1.4147 1.1244-1.8594 1.6074-0.43395 0.47142-0.56961 0.85096-0.56641 0.94336 0.02254 0.0501 0.07136 0.10226 0.0957 0.16016 0.06433 0.15291 0.12952 0.33495 0.19531 0.54297 0.13159 0.41603 0.26739 0.93271 0.38086 1.4688 0.37469 1.7701 0.40043 2.39 0.28125 7.2188-0.07091 2.8733-0.21307 6.0614-0.32813 7.1797-0.10288 0.99993-0.1963 3.8225-0.19726 6.1699-6e-4 1.3619-0.01796 2.4284-0.05078 3.1562-0.01641 0.36391-0.03558 0.63881-0.0625 0.84375-0.01346 0.10247-0.02493 0.18251-0.05859 0.28515-0.01683 0.0513-0.02482 0.1103-0.12109 0.21875-0.04814 0.0542-0.13354 0.12981-0.27148 0.16211-0.13794 0.0323-0.2993-9e-3 -0.38867-0.0645-0.25453-0.15713-0.24881-0.28828-0.2832-0.39648-0.03438-0.10821-0.05432-0.21642-0.07031-0.33594-0.03197-0.23904-0.04344-0.52095-0.03125-0.82031 0.04426-1.0867 0.03898-1.7059-0.0039-1.9199h-0.9668v-3.4746c0-0.86533-0.02038-1.6091-0.05273-2.1289-0.01618-0.25989-0.03597-0.46654-0.05469-0.58984-0.0058-0.0384-0.0078-0.0466-0.01172-0.0645-0.0046-8e-3 -0.01573-0.0184-0.01953-0.0254-0.03098-0.0566-0.04128-0.0916-0.05078-0.12305-0.01903-0.063-0.02636-0.11236-0.03516-0.16796-0.01765-0.11127-0.03123-0.24513-0.04492-0.41602-0.02737-0.34178-0.05328-0.82247-0.07617-1.4356-0.04578-1.2262-0.08219-2.973-0.10547-5.0938-0.06014-5.478-0.15187-7.2053-0.36914-8.1074-0.27895-1.1583-0.5382-1.7738-0.63086-1.8691-0.04633-0.0476 0.01172-0.0285-0.06445-0.0195s-0.26835 0.0748-0.5332 0.21289c-0.86646 0.45184-3.6204 1.3848-4.6445 1.5898l-0.20312 0.041 0.08398 1.1309c0.1142 1.5147 0.0545 1.8752-0.61914 3.4512-1.4036 3.2838-1.776 4.315-2.1621 5.9922-0.21988 0.95516-0.62996 2.7322-0.91016 3.9492-0.28271 1.228-0.60276 2.4776-0.78516 2.9609-0.0011 3e-3 -0.06433 0.19279-0.12305 0.37696-0.01802 0.0565-0.03246 0.10275-0.05078 0.16015 15.216 11.261 33.621 17.39 52.557 17.471 49.157-1e-3 88.996-39.841 88.996-88.998-9e-3 -2.2521-0.11165-4.5032-0.29102-6.748-0.35862-0.18901-0.72404-0.37763-1.1445-0.63672-0.41143-0.2535-1.1095-0.65609-1.5195-0.87695-0.44374-0.239-0.999-0.57226-1.3027-0.78516-0.63908-0.44796-1.4631-0.90162-3.7969-2.0742-2.7346-1.374-3.1998-1.61-4.5469-2.3301-2.6998-1.4431-3.7104-2.017-4.3398-2.4805-0.15272-0.11245-0.31592-0.21563-0.43945-0.28516-0.01-0.0056-0.0134-0.0065-0.0234-0.01172-0.0255 0.02024-0.0399 0.02875-0.0703 0.05469-0.14892 0.12721-0.3453 0.31628-0.53711 0.52148-0.44246 0.47342-1.4187 1.3809-2.2266 2.0801-0.79445 0.68756-1.6663 1.4505-1.9219 1.6797-0.3281 0.29422-1.1115 0.87517-1.875 1.4258-0.38176 0.2753-0.75094 0.53608-1.0371 0.73047-0.14308 0.09719-0.26518 0.17744-0.36328 0.23828-0.0491 0.03043-0.0903 0.05448-0.13477 0.07813-0.0222 0.01182-0.045 0.02343-0.0781 0.03711s-0.0505 0.04492-0.21094 0.04492c-7e-4 0 0.0628-0.0045 0.082-0.0078 0.0193-0.0033 0.0322-0.0069 0.043-0.0098 0.0215-0.0058 0.033-0.0088 0.041-0.01172-9e-3 0.0048-0.0193 0.01127-0.041 0.02344-0.0569 0.03199-0.14599 0.08333-0.25195 0.14844-0.21192 0.13022-0.49803 0.31391-0.80274 0.51562-0.63899 0.42301-1.5247 0.94533-2.0488 1.1992-0.76517 0.37066-1.6046 0.79907-2.2774 1.1602-0.33639 0.18054-0.63034 0.34408-0.85156 0.47266-0.22122 0.12858-0.40204 0.25935-0.36914 0.23047-0.062 0.05451-0.12941 0.08834-0.19531 0.12891 0.10954 0.02485 0.12861 0.03999 0.31445 0.06641l0.22266 0.03125 0.12304 0.1875c0.10059 0.1515 0.57845 0.52814 1.2774 0.90039 0.69889 0.37225 1.6178 0.78231 2.6387 1.2148 2.0417 0.86507 4.4941 1.8202 6.5312 2.8105l0.0508 0.02344 0.043 0.03516c-0.0361-0.02871 0.30744 0.15831 0.51953 0.2207 0.2182 0.06417 0.44278 0.17396 0.71875 0.32031s0.57984 0.32476 0.85937 0.50586c0.48866 0.31658 1.6264 0.94197 2.4551 1.3438 1.5899 0.77081 4.7594 2.6814 5.7949 3.5176 0.34312 0.27708 0.76886 0.74141 1.1445 1.1914 0.18784 0.225 0.35699 0.44156 0.48828 0.62891 0.0656 0.09367 0.12262 0.17982 0.16992 0.26562 0.0474 0.08579 0.11328 0.1227 0.11328 0.375 0 0.14556-0.0691 0.29119-0.14453 0.37695-0.0754 0.08576-0.14869 0.12937-0.21289 0.16016-0.12831 0.06159-0.23451 0.08015-0.3457 0.0957-0.2224 0.03109-0.4647 0.02989-0.72071 0.01172-0.256-0.01817-0.51797-0.05553-0.75586-0.11328-0.23788-0.05775-0.44274-0.08923-0.67383-0.32031-0.0544-0.05438-0.12337-0.10856-0.17187-0.14062-0.0485-0.03206-0.13436-0.01601 0.0586-0.0078-0.24547-0.01042-0.24707-0.06702-0.29687-0.09766s-0.0922-0.06207-0.13867-0.09766c-0.093-0.07119-0.19933-0.16064-0.32227-0.26953-0.24587-0.21778-0.55398-0.50949-0.87305-0.83008-0.29843-0.29985-0.64286-0.60946-0.94921-0.85938-0.30636-0.24992-0.60189-0.44744-0.67969-0.48438-0.1932-0.09168-0.37366-0.19224-0.52344-0.28906-0.0749-0.04841-0.14138-0.0934-0.20508-0.14648-0.0637-0.05308-0.12944-0.07126-0.21484-0.27148 0.0554 0.12988 0.0865 0.13405 0.0996 0.14648 0.013 0.0124 0.0128 0.01191 8e-3 0.0078-0.0108-0.0081-0.0438-0.03161-0.0898-0.06055-0.0919-0.05788-0.23638-0.14066-0.41211-0.23828-0.35146-0.19523-0.83468-0.44843-1.3594-0.70898-0.53475-0.26555-1.0322-0.522-1.4062-0.72266-0.18703-0.10033-0.34205-0.18637-0.46094-0.25586-0.0595-0.03474-0.10919-0.06598-0.15429-0.0957s-0.0534 0.0085-0.18164-0.16016c0.0792 0.10356 0.0882 0.08387 0.0742 0.07617-0.0142-0.0078-0.0519-0.02601-0.0996-0.04492-0.0955-0.03781-0.23508-0.08241-0.3711-0.11524-0.25062-0.06046-0.62835-0.20261-1.1758-0.41211s-1.2189-0.47762-1.8867-0.75586l-8e-3 -4e-3c-3.1907-1.3881-6.3775-2.4107-9.6133-3.8926h-2e-3c-0.78888-0.3649-1.2421-0.53374-1.5312-0.56641-0.28914-0.03267-0.47767 0.02564-0.92579 0.23828-0.32886 0.15606-0.61362 0.27603-0.95703 0.26953s-0.6457-0.11235-1.1426-0.28125c-0.99072-0.33676-0.79723-0.33355-1.8438-0.01758-2.7026 0.93656-4.6222 1.4748-6.416 1.9863-0.62676 0.17862-1.3493 0.3193-1.832 0.3125-0.12246-0.0017-0.2221 0.01325-0.2832 0.02539-5e-3 0.0045-8e-3 0.02139-0.0117 0.02539-0.0654 0.06251-0.11702 0.09106-0.16602 0.11719-0.098 0.05227-0.18984 0.08317-0.29492 0.11524-0.21017 0.06412-0.46573 0.11715-0.75 0.15625l-0.61133 0.08594-0.23047 1.0215c-0.28378 1.2477-0.71738 4.2022-1.0469 7.207-0.0445 0.40584-0.10407 0.78781-0.16797 1.0898-0.032 0.15102-0.0643 0.27982-0.10156 0.39453-0.0187 0.05736-0.0374 0.1122-0.0664 0.17188s-0.0413 0.13027-0.19336 0.24024c0.14846-0.10733 0.0271-0.0188-0.0312 0.0996-0.0584 0.11844-0.12801 0.28546-0.19141 0.46093-0.093 0.25739-0.12725 0.44946-0.16015 0.60742 0.23608 0.0469 0.66759 0.095 1.3945 0.14258 2.2754 0.14914 4.6194 0.78587 5.957 1.7031 0.46442 0.31851 1.6917 1.2432 2.7891 2.0957 5.9868 3.9051 10.076 7.2751 15.625 9.3574 0.36414 0.13644 0.72934 0.26031 1.0156 0.34961 0.14314 0.0447 0.26732 0.0804 0.35742 0.10352 0.0901 0.0233 0.17842 0.0293 0.10352 0.0273 0.40677 9e-3 0.66463 0.18598 0.91211 0.36719 0.12374 0.0906 0.23171 0.17477 0.33398 0.33008 0.0511 0.0777 0.11933 0.18142 0.11133 0.37695s-0.18864 0.42463-0.33594 0.49024c-0.15533 0.0694-0.2011 0.0575-0.2793 0.0644-0.0782 8e-3 -0.16256 0.0107-0.25586 0.0117-0.1865 3e-3 -0.40672-5e-3 -0.63281-0.0215l-0.0449-2e-3 -0.043-0.0117c-6.1023-1.5554-12.507-3.7902-17.752-7.5918l-4e-3 -2e-3 -2e-3 -2e-3c-0.54346-0.40495-1.6295-1.2165-2.4141-1.8047-2.9575-2.2172-3.5749-2.5021-6.5859-3.0059-0.65101-0.10891-1.2596-0.22596-1.7246-0.32812-0.23252-0.0511-0.42808-0.0974-0.58203-0.14063-0.077-0.0217-0.14188-0.0409-0.20508-0.0645-0.0632-0.0235-0.0995 4e-3 -0.25781-0.15235l-0.15235-0.15234 2e-3 -0.21484c0.0349-2.0795-0.15508-3.6684 0.16796-5.3086 0.20403-1.0304 0.45855-2.9423 0.63672-4.5977 0.0891-0.82768 0.16037-1.596 0.19727-2.1582 0.0126-0.18931 0.0136-0.31218 0.0176-0.44726-0.0893 0.0059-0.15209 0.0088-0.26367 0.01758-0.45951 0.03611-1.0894 0.09683-1.7754 0.16992-2.9901 0.31858-6.1643 0.3545-8.5039 0.08984-0.88937-0.10061-2.4094-0.23724-3.3496-0.30078-0.98882-0.06682-2.6698-0.28563-3.8047-0.49414-0.55084-0.1012-1.0567-0.18871-1.4238-0.24609-0.12268-0.01918-0.20021-0.02903-0.28711-0.04102-0.0409 0.07141-0.083 0.14331-0.13476 0.24023-0.13979 0.26153-0.31046 0.59741-0.47656 0.93945-0.16611 0.34205-0.32776 0.69004-0.45313 0.97461-0.1254 0.28457-0.21998 0.54778-0.2207 0.55078-0.10978 0.4541-0.40844 0.96297-0.74414 1.5-0.16785 0.26851-0.34272 0.52699-0.50781 0.74414-0.16512 0.21715-0.28799 0.38257-0.49805 0.52734-0.20996 0.14471-0.42793 0.30316-0.79102 0.19922-0.18154-0.05197-0.34235-0.21036-0.41015-0.35547-0.0496-0.10667-0.0516-0.19917-0.0586-0.29297-0.11945-0.04616-0.25176-0.065-0.32226-0.16016-0.11677-0.15752-0.14297-0.30243-0.16407-0.44922-0.0423-0.29358-0.0326-0.64766-4e-3 -1.209 0.0205-0.40048 0.0591-0.80561 0.10742-1.1465 0.0483-0.34087 0.0706-0.56738 0.19141-0.82617 0.28888-0.61914 0.53415-1.2603 0.68945-1.7715 0.0777-0.25561 0.13276-0.47877 0.16016-0.64062 6e-3 -0.03502 4e-3 -0.01134 6e-3 -0.04102-1.2472-0.78414-2.6011-1.3663-3.9453-2.1113l-0.04688-0.02734c-1.147-0.80738-1.4252-0.89636-1.75-1.0586-0.32204-0.16084-0.61554-0.3868-1.4453-1.2305-0.0016-0.0016-0.0023-0.0044-0.0039-0.0059-1.3248-1.2627-2.6657-2.8419-3.6289-4.5312-0.96436-1.6914-1.5655-3.5054-1.3027-5.2344v-2e-3c0.18371-1.1625 0.25393-1.8147 0.23047-2.0391-0.01173-0.1122-0.01676-0.0702 0.01172-0.04492s0.0055-0.0018-0.12305-0.02734c-0.25599-0.05084-1.2896-0.13683-2.8066-0.20703s-3.5667-0.1377-6.0469-0.19727c-1.1472-0.02755-2.2647-0.06116-3.1426-0.0957s-1.46-0.06104-1.7383-0.09961c-0.34524-0.04788-1.1684-0.1411-1.7988-0.20312-0.66991-0.06591-1.4746-0.20094-1.9316-0.3418l-2.2834-0.70056 2.1953-0.63477c0.14804-0.04263 0.21681-0.03783 0.35742-0.04883 0.14061-0.011 0.31703-0.02205 0.53125-0.03125 0.42844-0.01833 1.0031-0.03378 1.6816-0.04687 1.3571-0.02617 3.1336-0.04207 4.9824-0.04687 3.6977-0.0095 7.6602 0.02403 9.1758 0.11328 0.65486 0.0386 1.1134 0.0466 1.3848 0.0293 0.09644-0.0062 0.13446-0.01514 0.17773-0.02344 0.01866-0.04017 0.01003-0.02363 0.0332-0.08203 0.05318-0.13404 0.12238-0.31963 0.20312-0.53906 0.16151-0.43887 0.36554-1.0155 0.57227-1.6211 0.85115-2.4936 2.6812-6.5558 4.4473-9.8848 0.30813-0.5808 0.58864-1.1524 0.78906-1.5977 0.10021-0.22264 0.18078-0.41444 0.23242-0.55274 0.05169-0.13828 0.05859-0.29247 0.05859-0.14258 0 0.18127-0.01175-1e-3 -0.17383-0.18555-0.16208-0.18452-0.42125-0.42818-0.74609-0.68555-0.62387-0.49427-1.4752-1.2185-1.9316-1.6465-1.3604-1.2755-1.9948-1.8309-3.1543-2.7578-1.5227-1.2172-2.5429-2.3843-3.0645-3.666-0.52156-1.2817-0.51313-2.6507-0.06836-4.1484 0.44824-1.5094 2.6602-6.6113 3.5273-8.1641 0.17468-0.31279 0.3353-0.62655 0.44727-0.86914 0.05598-0.1213 0.10051-0.2262 0.12695-0.29688 0.02643-0.07067 0.01953-0.16104 0.01953-0.01172 0-0.14424 0.02536-0.18932 0.04687-0.25976 0.02153-0.07044 0.04779-0.14335 0.08008-0.22656 0.06457-0.16641 0.15165-0.36862 0.25586-0.59961 0.20843-0.46197 0.4834-1.0341 0.76562-1.5957 0.28223-0.56163 0.56954-1.1107 0.80273-1.5273 0.1166-0.20832 0.21886-0.38268 0.30664-0.51758 0.04389-0.06745 0.08285-0.12355 0.13086-0.18164 0.024-0.02905 0.04898-0.05986 0.0957-0.09961 0.02559-0.02177 0.06246-0.05676 0.12305-0.08594 0.02247-0.02403 0.05103-0.05265 0.0918-0.10547 0.1034-0.13398 0.24069-0.33803 0.37109-0.56055 0.16972-0.2896 0.31704-0.51426 0.46094-0.68945 0.07195-0.0876 0.14063-0.16244 0.22852-0.23242 0.08789-0.06999 0.19729-0.15316 0.39844-0.16602 0.20115-0.01286 0.44933 0.13909 0.53711 0.28125s0.10095 0.25516 0.11133 0.36328c0.02076 0.21624-0.0022 0.43862-0.04883 0.72852-0.13951 0.86684-0.65599 2.4935-1.3809 4.5332-0.72487 2.0397-1.6567 4.4527-2.6133 6.7266-0.87808 2.0872-1.451 3.8216-1.709 5.1094-0.25795 1.2878-0.12373 2.0957 0.04492 2.2969 0.03799 0.04531 0.27138 0.27227 0.55273 0.51758s0.62716 0.53343 0.96484 0.79883c0.70869 0.55698 1.7477 1.4524 2.3516 2.0273 0.83278 0.79284 1.8033 1.6255 2.6016 2.252 0.39914 0.3132 0.75654 0.5756 1.0234 0.75195 0.11456 0.07569 0.20196 0.12498 0.27344 0.16406 0.05333-0.04199 0.11094-0.08821 0.18945-0.16406 0.20215-0.19529 0.45523-0.48208 0.69336-0.79492 3.3521-4.4039 7.9056-9.1565 11.496-11.988 0.25811-0.20357 0.49502-0.42446 0.6543-0.59961 0.0596-0.06546 0.094-0.11166 0.12695-0.15625-0.0313-0.06597-0.0715-0.14885-0.13086-0.25-0.1358-0.23113-0.33308-0.52352-0.54687-0.80469-1.2959-1.7043-1.8944-2.7116-3.166-5.3125-1.2721-2.6018-1.3174-2.7047-2.9199-6.5703-0.48481-1.1695-0.74862-1.8197-0.87305-2.2832-0.0624-0.23176-0.0963-0.42955-0.0664-0.64062 0.0142-0.10037 0.0762-0.15894 0.11914-0.24414-0.0903-0.59342-0.14919-1.0417-0.0586-1.4883 0.0993-0.48947 0.32466-0.93605 0.70313-1.7031 0.90303-1.8399 2.5585-4.4714 3.6484-5.7773 0.19928-0.23879 0.38123-0.47104 0.50781-0.64453 0.0633-0.08674 0.11362-0.15978 0.14062-0.20312 0.0136-0.02165 0.0196-0.03585 0.0176-0.03125s-0.0351-0.01048-0.0351 0.17578c0-0.21584 0.0481-0.23023 0.0723-0.27734 0.0243-0.0471 0.0488-0.08481 0.0762-0.12695 0.0548-0.08427 0.12299-0.18022 0.20899-0.29492 0.17203-0.22941 0.41227-0.53004 0.70117-0.88477 0.5778-0.70945 1.3529-1.6302 2.1602-2.5684s1.646-1.8925 2.3457-2.668c0.61411-0.68055 1.0324-1.1204 1.3535-1.4199-8.5529-2.6677-17.454-4.0567-26.416-4.0645zm4.7383 26.988c-6e-3 0.0064-0.01978 0.02572-0.02344 0.0293-0.0087 0.0085-0.01062 0.0072 0.01172-0.0078 0.02234-0.01501 0.06387-0.06641 0.23633-0.06641-0.11113 0-0.17457 0.02083-0.22461 0.04492zm-25.365 95.85c0.01021-0.0462 0.02539-0.0753 0.02539-0.15429 0 0.16319-0.02521 0.15175-0.0293 0.16211-0.0041 0.0103-0.0026 5e-3 2e-3 -4e-3 3.24e-4 -6.6e-4 0.0016-3e-3 2e-3 -4e-3zm21.83-20.307v-0.0254c0-0.0384 0.01596-0.0693 0.0059-0.0488-0.01014 0.0204-0.09337 0.16407-0.31445 0.16407 0.11848 0 0.21931-0.0391 0.30859-0.0899zm27.816-97.631c-2.9018 2.6773-4.7616 6.156-7.4297 9.4473v2e-3c-0.49142 0.60109-1.5938 2.4722-2.5156 4.2266-0.46093 0.87716-0.88656 1.7351-1.1934 2.4141-0.1534 0.33947-0.27758 0.63459-0.35938 0.85742-0.0818 0.22283-0.1078 0.41671-0.10742 0.34961 3e-4 -0.05924 0.0177 0.10728 0.0742 0.30273s0.14209 0.45817 0.25195 0.76758c0.21974 0.61881 0.53313 1.4252 0.89454 2.3105 0.72282 1.7708 1.6417 3.8576 2.4062 5.4062 0.62803 1.2721 1.4257 2.6649 2.123 3.752 0.34866 0.54353 0.67327 1.0114 0.93164 1.3438 0.11145 0.14337 0.20265 0.24768 0.28125 0.33203 1.1504-0.727 2.6889-1.4387 4.127-2.2461 1.5465-0.86827 2.8356-1.8601 3.1621-2.7852 0.0456-1.4009 0.71362-3.1961 2.2676-6.4082 1.9834-5.785 5.3049-9.7678 7.4121-13.912 0.0683-0.1822 0.18962-0.44332 0.30274-0.69141-4.0633-2.1451-8.2833-3.9758-12.629-5.4688zm2.6465 26.48c-1e-3 0.04328-0.0154 0.09613-0.0156 0.13867l0.0273-0.1582c-2e-3 0.0065-9e-3 0.01304-0.0117 0.01953zm11.422-20.197c-1.7479 4.3827-3.8323 9.1112-5.5078 12.793l-4e-3 0.0078c-0.16408 0.37974-0.50578 1.1515-0.76758 1.7344-0.25613 0.57029-0.54411 1.294-0.60351 1.4863-0.0515 0.16661-0.11766 0.32303-0.19336 0.46289-0.0757 0.13986-0.10499 0.25457-0.33399 0.40234 0.11636-0.07509 0.11996-0.11268 0.12696-0.125s1e-3 -0.0058-6e-3 0.01172c-0.0143 0.0351-0.04 0.10912-0.0664 0.20117-0.0528 0.18411-0.11372 0.44766-0.16992 0.72852-0.0957 0.47848-0.15173 0.95635-0.17383 1.2793 0.11894-0.01796 0.26218-0.03447 0.52735-0.16016 3.8465-1.8233 8.053-3.2221 12.918-4.2988 2.6331-0.58272 4.4598-0.82631 7.4512-0.99805 0.59558-0.03419 1.1508-0.07534 1.5625-0.11133 0.20587-0.018 0.37802-0.03455 0.49414-0.04883 0.0581-0.0071 0.1023-0.01358 0.125-0.01758 0.012-0.0021 0.0168-0.0038 0.01-2e-3 -7e-3 0.0018-0.0137-0.0089-0.10547 0.04492 0.18164-0.10642 0.26833-0.09372 0.37891-0.10352 0.11058-0.0099 0.22993-0.01226 0.36719-0.0098 0.27452 5e-3 0.6192 0.02927 1.0195 0.06641 0.33872 0.03142 0.80996 0.10177 1.2129 0.15039-5.5016-5.2451-11.609-9.8111-18.262-13.494zm20.213 15.137c0-6.98e-4 0.0197 0.14327 0.0195 0.14258-1e-4 -2.1e-4 0.0106 0.02343 0.0156 0.03516-5e-3 -0.02696-0.0352-0.17743-0.0352-0.17773zm0.0586 0.22656c6e-3 0.01274 9e-3 0.0211 0.0137 0.0293 4e-3 0.0068 8e-3 0.0075 0.0117 0.01367-0.0117-0.01973-0.0152-0.02577-0.0254-0.04297zm-0.66797 0.19141c-1.9915-0.03217-6.2639 0.07832-7.7148 0.23047-0.88708 0.09303-2.1109 0.2642-2.6602 0.36914-0.59478 0.11365-1.3682 0.24226-1.7695 0.29102-0.6715 0.08159-2.2019 0.44552-3.6309 0.84766-0.71447 0.20107-1.4111 0.4118-1.9805 0.60156-0.56941 0.18976-1.0285 0.37183-1.1856 0.45703l-0.0644 0.03516-0.0723 0.01563c-1.005 0.2096-1.9792 0.73364-2.9785 1.1211l-0.0156 0.0039-0.0137 0.0059c-0.58923 0.18672-1.5422 0.57973-2.3848 0.9707-0.42128 0.19549-0.8168 0.39046-1.1309 0.55859-0.24839 0.13298-0.38191 0.22523-0.47851 0.29102 0.0844 0.02701 0.13076 0.04608 0.23242 0.07617 0.5283 0.15639 1.2719 0.34981 2.0898 0.54492 1.6359 0.39023 3.5824 0.79056 4.7383 0.94531 0.96755 0.12953 1.9477 0.13329 2.9609 0.01367 0.82054-0.0969 1.5289-0.12829 2.1055-0.0918 0.57658 0.03649 1.0224 0.09448 1.3867 0.40234 0.0755 0.06381 0.34145 0.26401 0.5332 0.39648 0.21202 0.14648 0.38957 0.31541 0.48047 0.57031 0.091 0.2549 0.0162 0.59243-0.15234 0.78516-0.33709 0.38546-0.8042 0.45651-1.3984 0.4707-2.4295 0.05804-4.9067-0.0992-6.502-0.42774-0.48724-0.10034-1.4046-0.27578-2.0234-0.38476-0.99021-0.17438-2.2598-0.41344-3.3633-0.65234-0.55176-0.11945-1.0606-0.2399-1.4785-0.35156-0.41795-0.11167-0.72107-0.19648-0.9707-0.33008l-0.0312-0.01563-0.0273-0.02148c-0.77372-0.56649-1.3211-0.56109-1.9277-0.36133-0.60364 0.19878-1.2342 0.66128-1.8984 1.0703l-0.01 0.0059c-1.5958 1.3924-3.5187 1.9347-4.6191 3.1465l-0.0176 0.01953-0.0195 0.01758c-0.13809 0.12303-0.26296 0.25343-0.34766 0.35352 0.0391 0.06503 0.08 0.133 0.14844 0.23047 0.17981 0.25619 0.44902 0.60151 0.77148 0.99023 0.64494 0.77744 1.5075 1.7354 2.3496 2.584 0.90417 0.91108 1.4423 1.4892 1.7578 2.0684 0.31558 0.57919 0.34265 1.1602 0.24218 1.7793-0.0705 0.43456-0.0698 0.6941-0.32421 1.002-0.12721 0.15392-0.45552 0.27455-0.66797 0.21484s-0.31262-0.16417-0.41407-0.26562c5e-3 0.0052-0.21204-0.08008-0.18164-0.08008-0.22113 0-0.33437-0.08093-0.4375-0.15039-0.10313-0.06946-0.19119-0.14924-0.27929-0.24023-0.17615-0.18199-0.3465-0.40941-0.4961-0.66406-0.2102-0.35782-0.9171-1.2719-1.4863-1.8926-0.60068-0.655-1.6338-1.832-2.3125-2.6348-0.33272-0.39356-0.65205-0.7583-0.89648-1.0254-0.0919-0.10048-0.15921-0.17074-0.22461-0.23828-0.0179 0.01066-0.0209 0.01064-0.041 0.02344-0.18463 0.11748-0.45745 0.32072-0.78126 0.58594-0.64761 0.53044-1.5108 1.3125-2.459 2.2207-1.8965 1.8165-4.1397 4.1472-5.75 6.0547-0.92817 1.0994-1.8648 2.3403-2.5332 3.3164-0.33419 0.48804-0.60225 0.9127-0.76172 1.2051-0.0165 0.03042-0.0172 0.03691-0.0312 0.06445 0.0103 0.0046 0.0148 0.0069 0.0254 0.01172 0.22912 0.10385 0.54065 0.24073 0.88672 0.39062 0.69213 0.29978 1.5258 0.65126 2.1348 0.89648 0.55114 0.22194 1.4641 0.51609 1.9414 0.62891 0.55092 0.13022 0.92349 0.1976 1.2266 0.55664 0.15158 0.17952 0.21288 0.49822 0.14258 0.71875s-0.19607 0.36208-0.33789 0.50391c-0.0481 0.04807-0.10211 0.11962-0.13281 0.17188s-0.0176 0.11927-0.0176-0.01953c0 0.14932-0.0645 0.32161-0.16406 0.43359-0.0996 0.11199-0.21293 0.16855-0.31446 0.20508-0.20305 0.07306-0.38764 0.07906-0.59765 0.07227-0.42004-0.0136-0.93694-0.11021-1.5371-0.26367-1.2003-0.30692-2.7101-0.85188-4.0664-1.5215-0.31096-0.15353-0.5881-0.28119-0.80273-0.375-0.87817 1.3421-2.3847 4.3914-3.6426 7.3184-0.65782 1.5307-1.2425 2.9965-1.627 4.0938-0.19221 0.54863-0.33409 1.0074-0.4082 1.3203-0.0097 0.0412-0.0083 0.05203-0.01563 0.08789 0.16442 0.01888 0.35235 0.04053 0.60742 0.06055 0.61344 0.04815 1.4455 0.09496 2.3418 0.12891 2.9438 0.11151 4.7245 0.21003 5.8398 0.375 0.55767 0.08248 0.95136 0.1765 1.2695 0.33398s0.57149 0.44038 0.65039 0.74219c0.0655 0.2503 0.0748 0.60778-0.14258 0.875-0.21736 0.26722-0.51548 0.35494-0.85742 0.41406-0.68386 0.11823-1.726 0.09971-3.5078 0.03125-1.8134-0.06968-4.2114-0.17829-5.3438-0.24414l-1.6035-0.09375-0.22852 1.209-0.0078 0.02344c-0.55333 1.914-0.55061 2.8518-0.23047 3.5508 0.32015 0.69897 1.0736 1.3 2.2148 2.3398l0.01563 0.01563 0.01367 0.01563c2.566 2.7797 2.7549 2.9276 5.4102 4.1953 0.70517 0.33668 1.368 0.64276 1.8652 0.86328 0.24862 0.11026 0.4558 0.20086 0.60156 0.25976 0.0729 0.02946 0.13212 0.05074 0.16602 0.0625 0.0174 0.0059 0.0274 0.0084 0.0254 0.0078s6.4e-4 -0.0098-0.0977-0.0098c0.208 0 0.3435 0.12809 0.45508 0.24805 0.31727-0.43585 0.78371-1.1973 1.4473-2.4434 0.9566-1.7964 1.4808-2.7984 1.7539-3.3965 0.27311-0.59806 0.28711-0.72049 0.28711-0.96484 0-0.55069 0.10513-1.0384 0.42774-1.4023 0.3226-0.36394 0.80042-0.52201 1.334-0.56445 0.26659-0.02125 0.48776-0.04157 0.73047-2e-3 0.24271 0.03961 0.53325 0.20434 0.67578 0.44531 0.28503 0.48195 0.22833 0.975 0.23633 1.9141 6e-3 0.76886-0.0983 1.4567-0.4668 2.377-0.36845 0.92021-0.99092 2.095-2.0449 3.9863-0.21928 0.39346-0.40309 0.76646-0.51758 1.0352-1e-3 0.0026-9.5e-4 0.0033-2e-3 0.0059 0.0982 0.02332 0.17765 0.04387 0.31054 0.07031 0.44495 0.08852 1.062 0.18993 1.7734 0.29102 1.423 0.20216 3.2238 0.40507 4.8164 0.52734 3.7031 0.28433 7.5122 0.16307 9.8711-0.29492h2e-3l1.3789-0.26758v-1.1699c0-0.87899 0.10782-2.0169 0.26367-3.0684 0.15586-1.0515 0.34032-1.9803 0.57813-2.5488l0.0332-0.07813 0.0586-0.06445c0.24891-0.2755 0.55611-0.25604 0.77735-0.22461s0.43129 0.10335 0.64453 0.18945c0.42648 0.1722 0.85132 0.40943 1.127 0.58398l0.14063 0.08789 0.0586 0.15625c0.12445 0.32566 0.14355 0.68794 0.15625 1.2422s-5e-3 1.2727-0.0508 2.166l-0.10742 2.1152c0.0388-0.0045 0.0848-0.0093 0.20117-0.0293 0.15806-0.02714 0.36512-0.06719 0.60352-0.11719 0.47678-0.1 1.0776-0.23878 1.6816-0.39062 3.0379-0.7637 4.5697-1.1576 5.123-1.4004 0.0548-0.02404 0.0505-0.02614 0.084-0.04492-0.0212-0.03037-0.0144-0.0026-0.11133-0.13867l-0.0391-0.05664-0.0234-0.0625c-0.49587-1.3589-0.791-2.8182-0.50977-3.8984 0.19529-0.74625 0.50844-1.6421 0.76563-2.1367 0.0648-0.12458 0.25061-0.60149 0.44727-1.1797s0.42107-1.2847 0.63281-1.9844c0.21173-0.69964 0.41033-1.393 0.55469-1.9414 0.0721-0.27418 0.13072-0.5128 0.16992-0.69336 0.0392-0.18056 0.0547-0.33385 0.0547-0.29883v-0.2168l0.15625-0.14844c0.40113-0.37689 0.93191-0.38626 1.2852-0.33789 0.32466 0.04446 0.55966 0.07698 0.79883 0.03516 0.0281-0.01976 0.0162-0.06208 0.0488-0.07617 0.24258-0.10476 0.4575-0.02799 0.59765 0.05859 0.34419 0.21272 0.44999 0.60753 0.45899 0.99609 9e-3 0.38856-0.0638 0.85463-0.20508 1.4668-0.28262 1.2243-0.85807 3.0252-1.7812 5.6523-0.5198 1.4793-0.78552 2.2732-0.85352 2.625-0.0244 0.12854-0.0194 0.11147-0.0234 0.10547 0.0285 0.01368 0.22191 0.09011 0.44921 0.16016 0.23233 0.07159 0.51114 0.14792 0.77149 0.20898 0.51817 0.12152 0.70164 0.15485 1.1894 0.02148 0.48781-0.13337 1.2693-0.4769 2.7031-1.1406 0.63794-0.29531 1.7682-0.81513 2.5117-1.1562 2.1976-1.0083 6.8565-4.016 8.3945-5.4043 0.12362-0.11158 0.88281-0.79611 1.6875-1.5234 0.38892-0.35154 0.74596-0.71201 0.99414-0.99609 0.11442-0.13097 0.19826-0.24032 0.25586-0.32226-0.0523-0.05788-0.13244-0.12537-0.21094-0.16602-0.35745-0.18521-1.3066-0.77101-2.2383-1.3613-0.96823-0.47466-1.8514-1.0085-2.4961-1.7344-0.64463-0.72592-1.0229-1.6696-0.93164-2.7949l4e-3 -0.06641 0.0215-0.06055c0.1796-0.50773 0.58513-0.96974 1.084-1.4434s1.0919-0.92266 1.6758-1.2246c0.26367-0.13635 0.88368-0.52612 1.2871-0.81836 0.36334-0.2632 0.5676-0.43849 0.90039-0.51367 0.16639-0.03758 0.36643-0.01699 0.51367 0.04102s0.24853 0.13153 0.35157 0.20703c0.17667 0.12945 0.58276 0.37117 0.80468 0.47656 0.13498 0.0641 0.26514 0.12724 0.36719 0.17774s0.11598 0.04729 0.23437 0.12305c0.16499 0.1056 0.2854 0.36765 0.2754 0.54297-0.01 0.17532-0.0702 0.28012-0.12891 0.37695-0.11747 0.19366-0.27464 0.35617-0.48242 0.54883-0.41557 0.38531-1.0357 0.85537-1.8242 1.3809-0.61918 0.41262-1.0724 0.74526-1.3633 0.99805-0.29086 0.25278-0.39136 0.45789-0.37696 0.40039-0.0282 0.11104-0.0292 0.14832-0.0312 0.16602 0.0521 0.04864 0.3696 0.24714 1.0215 0.57031 0.63006 0.31234 1.6317 0.92291 2.3106 1.4043 0.31218 0.22136 0.63029 0.42295 0.8789 0.56445 0.10759 0.06124 0.19312 0.10505 0.26367 0.13867 0.0353-0.01572 0.0655-0.02442 0.11133-0.0625 0.14305-0.11893 0.34238-0.31397 0.57031-0.56055 0.45588-0.49316 1.0306-1.1944 1.625-1.9766 1.1888-1.5643 2.4634-3.4691 3.0801-4.7031 1.1464-2.2942 2.1324-4.8558 2.6914-6.9883 0.48933-1.8667 0.85035-3.6105 1.125-5.2715-4.1269-8.2583-9.5114-15.824-15.965-22.426-2e-3 -9e-4 -8e-3 -0.0049-0.01-0.0059-0.0289-0.0038-0.065-0.0089-0.13281-0.01367-0.17355-0.01221-0.44342-0.02194-0.77539-0.02734zm7.6797 42.035c-0.0749 0.03338-0.11368 0.04297 0.041 0.04297 0.15739 0 0.0722 0.01096 0-0.02148-0.01-0.0044-0.0301-0.01626-0.041-0.02148zm11.311-14.912c-0.0374 0.19076-0.0714 0.44489-0.10937 0.61133-0.41123 1.8007-1.3431 4.6593-2.1621 6.6406-1.1244 2.7199-2.6665 5.2228-5.2285 8.5078-0.26914 0.3451-0.45353 0.62053-0.54883 0.82226-0.0949 0.20174-0.10254 0.30742-0.0859 0.39258 0.0333 0.17033 0.31751 0.50345 1.0957 1.0195 1.3242 0.87814 3.856 2.2896 6.4609 3.5957 1.932 0.9687 5.5942 3.1984 7.375 4.4141-0.9297-8.9674-3.2326-17.726-6.7969-26.004zm-120 33.088v2e-3c-1.0619 0.0094-2.279 0.05784-2.832 0.12695-1.6615 0.20766-4.1507 0.68542-6.2598 1.1641-1.0545 0.23932-2.0162 0.47915-2.7305 0.68359-0.35715 0.10222-0.65296 0.19707-0.85938 0.27344-0.10068 0.03724-0.17802 0.07026-0.22656 0.09375-0.0037 0.0068-0.0065 0.0083-0.0098 0.01563-0.02906 0.06587-0.06819 0.16836-0.11328 0.29492-0.09017 0.25312-0.20152 0.60464-0.32031 1.0078-0.23759 0.80634-0.50545 1.8252-0.71094 2.7441-0.1681 0.75182-0.33054 2.4032-0.35547 3.7578-0.02833 1.5393-0.01989 2.2285-0.10352 2.6855-0.0209 0.11427-0.0482 0.22004-0.11328 0.33789-0.06509 0.11784-0.19209 0.24504-0.32617 0.30274-0.26816 0.1154-0.39853 0.0567-0.49414 0.0547-0.78825-0.0119-1.4893-0.48631-2.166-1.2969-0.26078-0.31239-0.46969-0.61026-0.55664-1.0176-0.08695-0.40731-0.0793-0.8649-0.06445-1.6836 0.02524-1.3914 0.29863-3.2186 0.7793-5.5332-0.38097 0.18089-0.90608 0.39632-1.3789 0.55469-0.92791 0.31079-2.959 1.3175-4.7656 2.3223-0.9033 0.5024-1.7596 1.0073-2.416 1.4277-0.32822 0.21021-0.60642 0.39987-0.81055 0.55274-0.20413 0.15287-0.34288 0.29552-0.33398 0.2832-0.12614 0.17523-0.2554 0.2585-0.40234 0.35352-0.14694 0.09501-0.30869 0.18225-0.47266 0.25781s-0.32715 0.13872-0.48633 0.18164c-0.04106 0.01107-0.08638 0.01554-0.12891 0.02344-0.01967 0.06701-0.0186 0.05004-0.04492 0.17969-0.11216 0.55241-0.28378 1.6704-0.5918 3.7344l-2e-3 0.0117-2e-3 0.01c-0.56272 2.9162 0.02501 5.0607 0.06055 7.8066l2e-3 0.21094-0.15039 0.15039c-0.34434 0.34432-0.90133 0.4296-1.3711 0.26563-0.46976-0.16396-0.92378-0.50109-1.4473-0.9961l-1.1602-1.0976 0.02734-2.4102c0.0074-0.6154 0.03923-1.2593 0.08398-1.8086s0.09147-0.97561 0.17578-1.2793c0.08042-0.28969 0.10328-0.58217 0.13281-0.86719-0.33754 0.33248-0.74535 0.7485-1.1602 1.1856-0.44554 0.46943-0.88548 0.94692-1.209 1.3144-0.16175 0.18376-0.29522 0.34072-0.38086 0.44922-0.04153 0.0526-0.07153 0.0926-0.08398 0.11133 8e-3 -0.0161 0.04102-0.0311 0.04102-0.19141 0 0.34834-0.28208 0.66016-0.65234 0.66016 0.14233 0 0.17333-0.04 0.17773-0.043s-0.01993 0.0145-0.05273 0.0449c-0.0656 0.0608-0.17225 0.17439-0.29492 0.32422-0.24535 0.29966-0.56448 0.74276-0.9082 1.2559-0.68744 1.0262-1.4742 2.3427-2.0293 3.4492-2.5054 4.9938-2.3184 4.2778-2.3184 8.3633v3.4883l0.70508 2.1426c0.4019 1.2231 1.0318 3.1784 1.4043 4.3496 0.64906 2.0409 1.5938 3.7979 2.7402 5.1289 0.58277 0.67656 1.2758 1.4208 1.8926 2.0449s1.1838 1.1427 1.4121 1.3066c1.5522 1.1145 4.9156 2.476 8.4473 3.3574 0.20754 0.0518 0.25004 0.0417 0.43359 0.084-0.17827-0.11817-0.36257-0.23687-0.50391-0.35547-0.09892-0.083-0.1866-0.16291-0.26562-0.25781s-0.18945-0.18655-0.18945-0.46484v-0.41797l0.41016-0.0742c0.24672-0.045 0.34575-0.1202 0.4043-0.1875 0.05856-0.0673 0.0921-0.15309 0.10352-0.2793 0.02284-0.25242-0.08647-0.61497-0.14258-0.75976l-0.16016-0.41406 0.39062-0.20899c0.44607-0.23873 0.90949-0.18666 1.5254-0.10156 0.6159 0.0851 1.3628 0.26117 2.2031 0.50976 1.6806 0.49718 3.7306 1.2877 5.7266 2.2461v-2e-3l1.377 0.66016 1.8457-0.49609c1.0987-0.29594 3.0133-0.87057 4.2207-1.2676 1.1068-0.36392 1.6705-0.56677 1.8438-0.67188 0.08662-0.0525 0.05945-0.038 0.06055-0.041 6.9e-4 -2e-3 0.01083-0.0888 0.01953-0.14844-0.02135-0.0777-0.04243-0.13435-0.07031-0.16016-0.03541-0.0328-0.10458-0.0735-0.23438-0.10937-0.2596-0.0719-0.71661-0.0947-1.2148-0.28125l-0.02344-0.01-0.02148-0.0117c-0.58367-0.28523-1.5186-0.68947-2.0176-0.87305-1.1617-0.34058-1.8296-0.67713-2.1445-1.248-0.15929-0.28882-0.16906-0.64831-0.0625-0.92187 0.10656-0.27355 0.28986-0.477 0.49219-0.65235 0.40466-0.3507 0.91697-0.59962 1.3594-0.77734 0.2212-0.0889 0.42323-0.15653 0.58984-0.20313 0.08331-0.0233 0.15599-0.0421 0.22852-0.0547 0.03627-7e-3 0.07166-0.0117 0.11719-0.0137 0.04553-2e-3 0.09074-0.0173 0.22266 0.0273l0.04102 0.0137 0.03906 0.0215c0.89844 0.48799 2.0473 0.94219 3.1211 1.5 1.0737 0.55781 2.0942 1.222 2.6875 2.2246l0.0293 0.0488 0.01563 0.0527c0.04245 0.13285 0.07584 0.17188 0.12109 0.28125 0.0016-1e-3 0.0023-3e-3 0.0039-4e-3 0.22846-0.16726 0.52101-0.34692 0.8457-0.51758 1.1971-0.62918 1.2976-0.69227 2.8984-1.7383l0.01563-0.01 0.01953-0.01c2.0031-1.0828 3.8724-2.5559 5.2441-3.6856 0.9794-0.80813 1.6021-1.3137 2.0098-1.627 0.11157-0.0857 0.17776-0.12955 0.26172-0.18945-0.12546-0.0334-0.17084-0.0585-0.37109-0.0957-0.81785-0.15182-2.2639-0.3267-4.6406-0.58203-2.1769-0.23384-3.3346-0.68986-4.332-1.7578l-0.27539-0.29492 0.23047-0.33203c0.42283-0.61173 1.1602-0.888 2-1.0684 0.83978-0.1804 1.8173-0.245 2.7949-0.25 1.9553-0.0107 3.9105 0.21664 4.623 0.31054 2.0087 0.26754 2.9544 0.39639 3.3438 0.40039 0.19468 2e-3 0.19795-0.0168 0.18359-8e-3 -0.01436 9e-3 0.035-0.0446 0.16602-0.18945 0.46773-0.51723 0.80518-0.90611 1.0176-1.1699 0.1062-0.13191 0.18211-0.23377 0.2207-0.29297v-0.0469l0.08008-0.125c2.0728-3.1822 3.7727-5.4708 5.5918-8.3867l0.0078-0.012c0.2083-0.31286 0.41093-0.62965 0.56641-0.88477 0.15548-0.25512 0.28139-0.50909 0.26367-0.46289 0.05188-0.13537 0.15334-0.35616 0.30859-0.69141s0.35378-0.75467 0.55859-1.1816c0.39149-0.81613 0.78429-1.8879 0.83594-2.1484-0.27648 0.0585-0.54557 0.11842-0.88086 0.16992-0.47283 0.0726-1.0499 0.16828-1.2324 0.20508-0.19882 0.0401-0.43478 0.0536-0.7832 0.0723-0.34843 0.0188-0.76997 0.0331-1.1875 0.0391-0.67319 0.0103-1.0974 7e-3 -1.4883-0.0801-0.39092-0.087-0.70367-0.26516-1.0566-0.50977l-0.02539-0.0176-0.02148-0.0215c-1.1605-1.0368-1.7565-1.7228-1.9531-2.4004-0.09831-0.33881-0.04822-0.73562 0.16602-0.99805 0.21424-0.26243 0.5026-0.37481 0.79297-0.44531 0.58074-0.1411 1.2669-0.11472 1.9473-0.0742 0.68034 0.0405 1.3521 0.10461 1.7676 0.0996 0.75265-0.0119 1.9823-0.14322 3.0723-0.3086 0.54499-0.0827 1.0583-0.17451 1.4609-0.26171 0.37519-0.0813 0.64294-0.17295 0.69336-0.19141 0.0098-0.0126 0.01905-0.0214 0.0332-0.0547 0.04149-0.0977 0.0917-0.26449 0.13477-0.47265 0.08613-0.41633 0.14892-0.99804 0.17773-1.6309 0.05763-1.2657-0.02912-2.7605-0.25586-3.6543-0.20962-0.82629-0.74537-2.452-1.2617-3.8906-0.25818-0.71929-0.51219-1.3952-0.71875-1.9082-0.10328-0.25651-0.19408-0.47373-0.26562-0.62891-0.07154-0.15517-0.16539-0.283-0.10156-0.20898-0.12926-0.14988-0.10312-0.29521-0.14062-0.43555-0.40936 0.40062-1.1166 1.2514-2.2305 2.7109-0.42504 0.55693-1.1324 1.4793-1.5723 2.0527-0.41442 0.54029-1.0109 1.4683-1.2695 1.9688-0.15015 0.2906-0.31705 0.5778-0.47266 0.81836s-0.2511 0.4069-0.45508 0.57617c-0.38285 0.31769-0.866 0.39089-1.3203 0.34179s-0.91046-0.22382-1.2227-0.60937l-0.081967-0.10046-0.023437-0.12891c-0.42252-2.4409 0.98368-4.5636 2.3633-6.3125l2e-3 -2e-3c0.39581-0.49719 0.77573-0.96042 1.0742-1.3125 0.14924-0.17604 0.27874-0.32505 0.38086-0.4375 0.05106-0.05623 0.09393-0.10165 0.13477-0.14258 0.04084-0.04092 0.04823-0.06363 0.16016-0.13281-0.11514 0.07115-0.08057 0.07876-0.06836 0.04687 0.0122-0.03188 0.02539-0.09184 0.02539-0.12891 0 0.05416 0.06283 0.08301-0.10742-0.03906-0.17025-0.12207-0.52156-0.30852-1.0703-0.55859-1.615-0.736-3.2177-1.3017-4.4375-1.5742-0.64181-0.14338-2.0029-0.39495-3.1934-0.59961-0.59522-0.10233-1.15-0.19278-1.5547-0.25391-0.1032-0.01559-0.16085-0.02188-0.24219-0.0332-0.02487 0.10536-0.04764 0.2015-0.07813 0.34375-0.09145 0.42675-0.20402 0.9959-0.31445 1.5918-0.22086 1.1918-0.439 2.5217-0.48437 3.0098-0.05869 0.63131-0.18221 1.1497-0.38672 1.5664-0.20451 0.41672-0.50956 0.75144-0.92383 0.88086-0.41427 0.12942-0.86429 0.01433-1.2383-0.23828-0.37399-0.25261-0.71202-0.63755-1.0391-1.1543-0.27695-0.4376-0.35757-0.997-0.30664-1.7637 0.05093-0.76667 0.23129-1.7786 0.54688-3.2246 0.10323-0.47297 0.18727-0.91583 0.23633-1.2363 0.0047-0.03048 0.0038-0.04208 0.0078-0.07031-0.05643-0.0031-0.0883-0.0073-0.1543-0.0098-0.36416-0.0138-0.86155-0.01837-1.3926-0.01367zm23.107 17.055c-0.01893 0.0243-0.02293 0.0258 0.05078-0.0137-8.15e-4 4.1e-4 -0.04709 0.0123-0.05078 0.0137zm-36.016-14.711c0.02907-0.05365 0.06452-0.08827-0.01172-0.0078-0.06277 0.06628-0.04234 0.03332 0.0059 0.0098 0.0012-5.78e-4 0.0046-0.0014 0.0059-2e-3zm-37.518 3.25c0.36316 9.3625 2.2627 18.574 5.502 27.348-0.00695-0.22035-0.020711-0.40331-0.025391-0.62891-0.03427-1.6535-0.012664-3.3536 0.10938-4.2441 0.11316-0.82567 0.37141-1.8981 0.62695-2.5312 1.5764-3.9058 2.1811-5.0457 4.332-8.1894 1.3921-2.0347 2.5007-3.2967 5.627-6.4121 1.1806-1.1765 1.7883-1.7971 2.0781-2.1836 0.28978-0.38648 0.29226-0.49501 0.35742-0.96875 0.03355-0.24397 0.05189-0.47374 0.05469-0.64844-0.16351-0.01093-0.38789-0.01904-0.83008-0.01953-1.0176-0.0011-2.8922 0.02931-6.3379 0.0918-4.1634 0.07543-6.0152-0.11681-9.9629-1.0293-0.79415-0.18356-1.0995-0.39001-1.5312-0.58398zm16.32 47.967c4.7887 6.6471 10.436 12.629 16.861 17.727 0.26769-1.1708 0.50529-2.1964 0.9707-4.4082 0.59653-2.835 1.5871-6.1548 2.3633-7.8535 0.20821-0.45567 0.43858-1.2448 0.47461-1.5605 0.03604-0.3159 0.01548-0.45913 0.01758-0.45313s0.03954 0.019-0.12109-0.0664c-0.46567-0.24778-1.0564-0.2815-2.6289-8e-3 -1.7553 0.30557-6.1509 0.32681-7.7676 0.0195-3.5072-0.6668-5.4203-1.193-7.5762-2.0898-1.131-0.47049-1.8716-0.85954-2.5938-1.3066z" fill="#ff8080" stroke-width="1"/>
<animate attributeName="display" values="none;inline;none" keyTimes="0;0.5;1" dur="0.5s" begin="0s" repeatCount="indefinite" />
</g>
</svg>
