<svg version="1.1" viewBox="0 0 195.66 157.8" xmlns="http://www.w3.org/2000/svg" fill="#d42424"><g transform="translate(-.26114 7.9829)"><path d="m152.34 103.94c-5.6492-2.9242-9.2346-8.4509-14.269-12.105 1.2539-4.4467 2.7543-9.0278 4.7895-13.082-4.2034-0.13166-8.9944 1.1236-13.463 0.31246-4.5989-1.0082-6.0421-1.7016-8.6228 2.4632-2.3276 1.8105-2.3336 1.8041-4.1956 4.1273-0.91129 1.826-2.9414 4.1374-5.0524 6.7192-1.7719 1.4883-5.0698 6.6121-6.548 5.0988 5.9691-6.5241 4.5453-6.0623 12.544-16.412 2.048-2.4935 5.6996-5.2772 1.7341-7.8174-2.5688-2.6643-2.042-8.1892-2.7269-10.967-4.8693-0.15065-9.7556 1.1054-14.345 2.9251-3.7414 0.70976-11.236 5.0382-10.929 2.5551 2.0488-1.9013 8.3497-4.8464 27.077-9.5177 2.7431-4.8131 5.8466-9.4465 9.0535-13.955-2.469-1.5207-5.2922-3.0034-7.509-5.2797-5.3936-1.7961-3.1098-6.3306-2.2861-10.608 0.96276-3.3945-0.39133-10.576 1.1446-11.823 0 0 1.3331-3.4427 1.8249 0.55694 0.37598 6.062 0.22643 12.209-1.3563 18.095 3.8623 1.1888 6.605 7.1269 10.851 6.0075 4.3536-4.2065 9.2719-7.7453 14.266-11.12-1.8623-0.80631-4.6735-2.7636-6.5722-4.353-2.2452-6.283-2.2398-13.15-3.4788-19.684 0.37525-2.3062 2.0052-1.8839 2.0052-1.8839 1.4198 3.385 0.84152 7.5677 1.8733 11.068 0.68352 3.4178 0.83015 6.5611 2.8228 9.9201 3.1 2.7401 5.9185 5.3056 9.6535 1.8889 2.994-1.0791 6.9642-2.5649 2.253-4.9437-2.0463-2.9548 2e-3 -6.583-1.0022-12.291 0 0-3.7879-10.388 1.7689-9.7908-0.79948-0.28874 2.0765 6.5279 1.5051 9.8807 1.2061 4.253-2.2249 12.218 4.8739 11.882 3.6709 1.3699 7.327-0.70849 11.378-0.8553 6.1942-0.58991 12.884 2.0883 15.76 7.8613 3.6089 6.1541 4.7154 13.836 2.9208 20.727-2.2163 7.533-9.5364 11.67-15.602 15.8-0.62093 4.1864-5.0156 10.233 0.44303 12.803 3.0935 3.1005 9.7316 4.2302 11.427 7.1251-4.8165-0.79656-9.9944-3.6173-14.251-6.4822-5.4938-1.6669-0.71702-9.4014-2.0116-11.03-3.7311 2.8359-10.875 2.7546-11.918 7.9894-1.2527 3.8224-2.3359 7.7209 2.3759 9.3834 4.1366 3.7262 8.145 7.7162 12.495 11.119-3.8125 0.949-6.9981-4.7105-10.42-6.4153-2.3084-3.5917-9.7647-4.6066-8.3915-9.5605 0.81712-2.9218 2.0676-7.3404-2.3688-4.3802-2.4472 1.2249-6.3383 0.65904-6.0932 4.0269-1.5098 3.3814-4.9792 8.355-3.8797 11.811 4.2054 4.6236 8.394 9.4478 14.059 12.336 1.7204 1.6643-3.3121 0.74862-3.6051-0.12664zm-15.295-27.424c9.5962-1.0197 18.559-4.7494 27.113-9.0319 7.8744-4.0834 16.458-8.0424 21.777-15.422 3.3786-6.1794 3.1724-14.064 0.27761-20.377-2.0138-4.8731-7.1158-7.7111-12.295-7.4166-6.8297-0.13685-13.291 2.5744-19.664 4.6896-11.973 4.9716-22.955 13-29.736 24.223-2.3111 2.7471-4.4966 6.6608 1.1593 5.2205 2.0819 0.09338 7.9487-2.1756 5.9693 2.1524-3.6496 2.6757-9.974-0.85916-12.38 2.3422-1.1172 6.3045 3.348 13.385 5.808 9.4858 2.4562-1.3901 7.2945-9.9621 8.9611-4.7769-0.95331 2.7552-8.7063 6.2744-6.9194 8.5028 3.1828 1.0065 6.6566 0.78426 9.9283 0.4078z"/><path d="m38.873 149.82c0.46261-2.8528 2.1735-6.8715 3.2929-9.7968 2.2519-5.1138 5.1036-10.154 6.0546-15.706-3.8602-1.5931-8.2683-2.749-11.159-5.9667-1.6455-1.5795-5.2303-0.63236-6.676-1.1141-7.028 0.40306-14.917-1.4822-19.496-7.1543-2.3255-2.4644-4.0409-8.1074-4.0076-12.323-0.30034-8.7091 4.6609-16.68 11.366-21.895 3.7059-2.7936 8.4349-4.7084 8.2039-10.187 1.9153-4.8642-6.212-2.519-8.7772-3.8997-5.6485-1.048-11.495-1.206-17.059-2.5269 1.6853-0.40162-2.0894-2.2122 0.72685-2.1086 9.0074 0.03549 17.89 1.8848 26.794 3.0526 3.1322 2.4216-3.1563 11.898 3.7396 7.6695 1.2331-3.1645 8.3278-8.9168 1.795-10.291-6.6452-3.2905-13.41-6.551-20.014-9.7798 4.0155-3.5527 8.76 2.0494 12.917 3.0922 4.1734 2.4942 9.6146 3.6563 13.306 6.278 1.2153 3.0718-6.3965 10.316-0.1195 7.8082 5.9073 0.24647 8.9087-3.9897 11.571-8.573 0.32894-3.7861-7.4561-4.7659-10.493-7.2429-2.7294-2.1788-10.8-3.262-10.122-6.3677 0.74965-2.3905 7.5774 2.5054 10.58 3.3394 4.5512 2.3157 9.3937 4.2162 13.704 6.9122 2.35 3.5233-5.5039 7.9112-3.224 9.8137 4.4892-0.4714 9.1495-0.68998 13.607-0.28422 2.9085 2.1785 5.4416 2.996 8.0566 0.13805 4.8797-5.5767 9.2196-14.301 11.403-12.79-0.88403 3.1959-2.0195 3.8323-4.5025 7.3968-2.1483 4.133-8.1122 7.1981-8.1576 11.814 3.4795 4.6533 4.2768 10.514 4.3173 16.163 7.7453-0.74089 15.359-2.5749 23.067-3.4604 7.981-1.1082 3.4392 1.7369 2.0998 2.1486-8.696 2.4085-17.79 3.1756-26.494 5.4078-1.9529 5.69-5.9063 10.341-9.7256 14.869 3.8753 2.9993 11.389 2.3698 12.51 8.0898 0.71249 4.8261 0.53498 9.7233 0.69039 14.587-3.8142 4.7626-1.7153-4.6773-2.4447-7.1136 0.78475-5.7474-2.2732-9.9172-8.1428-10.601-4.8165-3.9832-8.924-0.45133-13.276 2.3606 0.55811 2.4481 9.7937 3.4756 9.2674 9.1587 0.8787 5.7636 0.4141 11.693-0.14145 17.479-3.8753 3.898-1.3676-3.2958-1.7803-5.2002 0.14088-4.7545 0.49108-9.8069-1.4582-14.27-2.829-1.7158-6.0411-2.6946-8.9066-4.2553-0.06464-0.46638 0 0-1.5007-1.0343-3.3995 1.9287-7.9913 1.828-10.415 3.6448 3.0044 3.0009 10.146 2.1118 11.077 6.369-0.69331 8.277-4.2908 14.692-7.8797 23.54-0.9061 2.564-2.5139 2.7309-4.1748 2.8083zm-2.416-35.956c12.285-1.6513 24.241-7.6492 31.669-17.767 1.565-1.6409 6.5313-7.9527 0.61129-6.0296-2.0555-0.21604-9.8578 1.5449-7.3177-1.8451 0.13905-2.4497 7.1703-0.80491 10.091-2.042 5.2343-1.8257 1.6904-11.172-0.84464-14.882-1.1436-3.7892-4.6984 4.2077-6.9164 5.088-1.9441 1.913-7.3358 8.0461-8.8327 4.7172-0.39851-3.5857 5.822-4.4328 7.7113-8.013 1.9536-2.4997 8.6986-6.2548 1.7454-7.0586-8.7881-0.98927-17.818 0.25979-26.269 2.7545-10.02 3.4797-19.982 8.8944-26.034 17.919-4.1014 6.4839-5.7104 16.393 0.59908 22.044 6.2417 5.8366 15.782 5.9712 23.788 5.1157z"/><animate attributeName="display" values="inline;none;none" keyTimes="0;0.5;1" dur="0.5s" begin="0s" repeatCount="indefinite" /></g><g transform="matrix(-.99476 0 0 -1 338.39 255.06)"><path d="m295.3 217.16c-5.6492-2.9242-9.2346-8.4509-14.269-12.105 1.2539-4.4466 2.7543-9.0278 4.7895-13.082-4.2034-0.13166-8.9944 1.1236-13.463 0.31246-4.5989-1.0082-6.0421-1.7016-8.6228 2.4632-2.3276 1.8105-2.3336 1.8041-4.1956 4.1273-0.91129 1.826-2.9414 4.1374-5.0524 6.7192-1.7719 1.4883-5.0698 6.6121-6.548 5.0988 5.9691-6.5241 4.5453-6.0623 12.544-16.412 2.048-2.4935 5.6996-5.2772 1.7341-7.8174-2.5688-2.6643-2.042-8.1892-2.7269-10.967-4.8693-0.15065-9.7556 1.1054-14.345 2.9251-3.7414 0.70977-11.236 5.0382-10.929 2.5551 2.0488-1.9013 8.3497-4.8464 27.077-9.5177 2.7431-4.8131 5.8466-9.4465 9.0535-13.955-2.469-1.5207-5.2922-3.0034-7.509-5.2797-5.3936-1.7961-3.1098-6.3306-2.2861-10.608 0.96276-3.3945-0.39133-10.576 1.1446-11.823 0 0 1.3331-3.4427 1.8249 0.55694 0.37598 6.062 0.22643 12.209-1.3563 18.095 3.8623 1.1888 6.605 7.1269 10.851 6.0076 4.3536-4.2065 9.2719-7.7453 14.266-11.12-1.8623-0.80632-4.6735-2.7636-6.5722-4.353-2.2452-6.283-2.2398-13.15-3.4788-19.684 0.37525-2.3062 2.0052-1.8839 2.0052-1.8839 1.4198 3.385 0.84152 7.5677 1.8733 11.068 0.68352 3.4178 0.83015 6.5611 2.8228 9.9201 3.1 2.7401 5.9185 5.3056 9.6535 1.889 2.994-1.0791 6.9642-2.5649 2.253-4.9437-2.0463-2.9548 2e-3 -6.583-1.0022-12.291 0 0-3.7879-10.388 1.7689-9.7908-0.79948-0.28874 2.0765 6.5279 1.5051 9.8807 1.2061 4.253-2.2249 12.218 4.8739 11.882 3.6709 1.3699 7.327-0.70849 11.378-0.8553 6.1942-0.58991 12.884 2.0883 15.76 7.8613 3.6089 6.1541 4.7154 13.836 2.9208 20.727-2.2163 7.533-9.5364 11.67-15.602 15.8-0.62093 4.1864-5.0156 10.233 0.44303 12.803 3.0935 3.1005 9.7316 4.2302 11.427 7.1251-4.8165-0.79657-9.9944-3.6174-14.251-6.4822-5.4938-1.6669-0.71702-9.4014-2.0116-11.03-3.7311 2.8359-10.875 2.7546-11.918 7.9894-1.2527 3.8224-2.3359 7.7209 2.3759 9.3834 4.1366 3.7262 8.145 7.7162 12.495 11.119-3.8125 0.949-6.9981-4.7105-10.42-6.4153-2.3084-3.5917-9.7647-4.6066-8.3915-9.5605 0.81712-2.9218 2.0676-7.3404-2.3688-4.3802-2.4472 1.2249-6.3383 0.65904-6.0932 4.0269-1.5098 3.3814-4.9792 8.355-3.8797 11.811 4.2054 4.6236 8.394 9.4478 14.059 12.336 1.7204 1.6643-3.3121 0.74862-3.6051-0.12664zm-15.295-27.424c9.5962-1.0197 18.559-4.7494 27.113-9.0319 7.8744-4.0834 16.458-8.0424 21.777-15.422 3.3786-6.1794 3.1724-14.064 0.27761-20.377-2.0138-4.8731-7.1158-7.7111-12.295-7.4166-6.8297-0.13685-13.291 2.5744-19.664 4.6896-11.973 4.9716-22.955 13-29.736 24.223-2.3111 2.7471-4.4966 6.6608 1.1593 5.2205 2.0819 0.0934 7.9487-2.1756 5.9693 2.1524-3.6496 2.6757-9.974-0.85916-12.38 2.3422-1.1172 6.3045 3.348 13.385 5.808 9.4858 2.4562-1.39 7.2945-9.9621 8.9611-4.7768-0.95331 2.7552-8.7063 6.2744-6.9194 8.5028 3.1828 1.0065 6.6566 0.78426 9.9283 0.4078z"/><path d="m181.83 263.04c0.46261-2.8528 2.1735-6.8715 3.2929-9.7968 2.2519-5.1138 5.1036-10.154 6.0546-15.706-3.8602-1.5931-8.2683-2.749-11.159-5.9667-1.6455-1.5795-5.2303-0.63236-6.676-1.1141-7.028 0.40306-14.917-1.4822-19.496-7.1543-2.3255-2.4644-4.0409-8.1074-4.0076-12.323-0.30034-8.7091 4.6609-16.68 11.366-21.895 3.7059-2.7936 8.4349-4.7084 8.2039-10.187 1.9153-4.8642-6.212-2.519-8.7772-3.8997-5.6485-1.048-11.495-1.206-17.059-2.527 1.6853-0.40162-2.0894-2.2122 0.72685-2.1086 9.0074 0.0355 17.89 1.8848 26.794 3.0526 3.1322 2.4216-3.1563 11.898 3.7396 7.6695 1.2331-3.1645 8.3278-8.9168 1.795-10.291-6.6452-3.2905-13.41-6.551-20.014-9.7798 4.0155-3.5527 8.76 2.0494 12.917 3.0922 4.1734 2.4942 9.6146 3.6563 13.306 6.278 1.2153 3.0718-6.3964 10.316-0.11949 7.8082 5.9073 0.24647 8.9088-3.9897 11.571-8.573 0.32894-3.7861-7.4561-4.7659-10.493-7.2429-2.7294-2.1788-10.8-3.262-10.122-6.3677 0.74965-2.3905 7.5774 2.5054 10.58 3.3394 4.5512 2.3157 9.3937 4.2162 13.704 6.9122 2.35 3.5233-5.5039 7.9112-3.224 9.8137 4.4892-0.4714 9.1495-0.68998 13.607-0.28422 2.9085 2.1785 5.4416 2.996 8.0566 0.13805 4.8797-5.5767 9.2196-14.301 11.403-12.79-0.88403 3.1959-2.0195 3.8323-4.5025 7.3968-2.1483 4.133-8.1122 7.1981-8.1576 11.814 3.4795 4.6533 4.2768 10.514 4.3173 16.163 7.7453-0.74089 15.359-2.5749 23.067-3.4604 7.981-1.1082 3.4392 1.7369 2.0998 2.1486-8.696 2.4085-17.79 3.1756-26.494 5.4078-1.9529 5.69-5.9063 10.341-9.7256 14.869 3.8753 2.9993 11.389 2.3698 12.51 8.0898 0.71249 4.8261 0.53498 9.7233 0.69039 14.587-3.8142 4.7626-1.7153-4.6773-2.4447-7.1136 0.78474-5.7474-2.2732-9.9172-8.1428-10.601-4.8165-3.9832-8.924-0.45133-13.276 2.3606 0.55811 2.4481 9.7937 3.4756 9.2674 9.1587 0.87869 5.7636 0.41409 11.693-0.14145 17.479-3.8753 3.898-1.3676-3.2958-1.7802-5.2002 0.14088-4.7545 0.49108-9.8069-1.4582-14.27-2.829-1.7158-6.0411-2.6946-8.9066-4.2553-0.0646-0.46638 0 0-1.5007-1.0343-3.3995 1.9287-7.9913 1.828-10.415 3.6448 3.0044 3.0009 10.146 2.1118 11.077 6.369-0.69332 8.277-4.2908 14.692-7.8798 23.54-0.90609 2.564-2.5139 2.7309-4.1748 2.8083zm-2.416-35.956c12.285-1.6513 24.241-7.6492 31.669-17.767 1.565-1.6408 6.5313-7.9527 0.61129-6.0296-2.0555-0.21605-9.8578 1.5448-7.3177-1.8451 0.13905-2.4497 7.1702-0.80491 10.091-2.042 5.2343-1.8257 1.6904-11.172-0.84463-14.882-1.1436-3.7892-4.6984 4.2077-6.9164 5.088-1.9441 1.913-7.3358 8.0461-8.8327 4.7172-0.39851-3.5857 5.822-4.4328 7.7113-8.013 1.9536-2.4997 8.6986-6.2548 1.7454-7.0586-8.7882-0.98928-17.818 0.25978-26.269 2.7545-10.02 3.4797-19.982 8.8944-26.034 17.919-4.1014 6.4839-5.7104 16.393 0.59908 22.044 6.2417 5.8366 15.782 5.9712 23.788 5.1157z"/><animate attributeName="display" values="none;inline;none" keyTimes="0;0.5;1" dur="0.5s" begin="0s" repeatCount="indefinite" /></g></svg>
