<svg version="1.1" viewBox="0 0 180.94 174.11" xmlns="http://www.w3.org/2000/svg">
<g>
<path d="m32.71 170.74c-0.31412-0.19414-0.29601-1.5671 0.0373-2.8278 0.16929-0.64034 0.44093-1.7755 0.60366-2.5226 0.16272-0.74707 0.47225-2.1005 0.68785-3.0077 0.47638-2.0045 0.81244-3.5303 1.5599-7.0826 0.59279-2.8172 1.5996-6.1658 2.3428-7.7926 0.23606-0.51664 0.46931-1.2908 0.51832-1.7204 0.07642-0.66986 0.02407-0.8156-0.36781-1.024-0.61165-0.32522-1.3554-0.34025-2.9656-0.0599-1.608 0.27994-6.2019 0.29268-7.6301 0.0212-3.5123-0.66778-5.3837-1.1834-7.5192-2.0718-2.6221-1.0908-3.3652-1.5916-5.496-3.7036-3.2896-3.2606-4.6604-5.6346-6.2447-10.815-0.55488-1.8143-1.0923-3.6044-1.1944-3.9779-0.27706-1.0143-0.38636-6.2957-0.16388-7.9191 0.10693-0.78025 0.3773-1.8718 0.60081-2.4255 1.5815-3.9185 2.1477-4.9895 4.3039-8.141 1.3847-2.0239 2.459-3.2474 5.597-6.3745 2.376-2.3677 2.4611-2.4812 2.5953-3.4567 0.0763-0.55476 0.07898-1.0685 6e-3 -1.1417-0.13567-0.13602-0.7383-0.1369-7.6688-0.01122-4.1693 0.075551-5.9443-0.10757-9.8963-1.021-1.8907-0.43703-2.5679-0.79457-2.3887-1.2613 0.10502-0.27369 0.35861-0.29899 1.8857-0.18811 0.97038 0.07045 2.0481 0.17898 2.395 0.24117 0.54135 0.09707 0.63064 0.05736 0.63064-0.28044 0-0.21643-0.10915-0.44333-0.24255-0.50421-0.33587-0.15329 1.8008 0.09428 2.28 0.26417 0.77716 0.27553 5.61 0.22096 7.5677-0.08545 1.0672-0.16704 2.639-0.40083 3.4928-0.51953s1.6397-0.31849 1.7464-0.44397c0.10672-0.12548 0.33583-0.28125 0.50912-0.34616 0.17329-0.06491 0.37207-0.42184 0.44173-0.79317 0.12682-0.67598 0.69852-1.4177 0.69852-0.90619 0 0.13396 0.15281 0.38478 0.33958 0.55737 0.68896 0.63672 0.92361 1.5885 0.87865 3.5641-0.02452 1.0772 0.03521 1.8919 0.13869 1.8919 0.09996 0 0.38129-0.18306 0.62518-0.40679 1.0947-1.0042 8.5284-5.0242 9.2971-5.0276 0.14653-6.56e-4 0.48471-0.11319 0.75152-0.25008 0.26681-0.13688 0.89073-0.40203 1.3865-0.58922 0.77354-0.29208 0.95614-0.46988 1.2876-1.2538 0.21241-0.50239 0.45027-1.1317 0.52856-1.3985 0.0783-0.26681 0.30804-0.85461 0.51055-1.3062 0.20251-0.45161 0.42086-1.2054 0.48523-1.675l0.11705-0.85393-1.6241-0.88496c-3.635-1.9807-5.124-2.7484-9.4829-4.8894-2.508-1.2319-4.7783-2.3712-5.0451-2.5317-0.26681-0.1605-1.4675-0.7701-2.6681-1.3547-1.2006-0.58456-2.183-1.1039-2.183-1.1541 0-0.19429 2.1486 0.08445 2.7556 0.35749 0.35209 0.15838 0.98945 0.39336 1.4163 0.52218 0.4269 0.12882 0.85913 0.31099 0.96051 0.40482 0.10139 0.09383 0.29527 0.1706 0.43085 0.1706 0.13558 0 0.72376 0.21829 1.3071 0.48511 0.5833 0.26681 1.1151 0.4851 1.1819 0.4851 0.06671 0 0.88002 0.36047 1.8073 0.80104 3.3186 1.5767 5.6285 2.4977 6.2642 2.4977 0.12342 0 0.71559 0.20807 1.3159 0.46237 2.7229 1.1534 3.6573 1.4791 4.2421 1.4786 0.54112-6.57e-4 0.66975-0.10038 0.92938-0.72178l0.30135-0.72122 0.47352 0.57569c0.26044 0.31662 0.56277 0.89127 0.67186 1.277 0.20423 0.72214-0.08952 2.0025-1.3629 5.9403-0.24942 0.77132-0.39492 1.461-0.32333 1.5325 0.07159 0.07159 1.2888-0.14581 2.7049-0.48311 4.3251-1.0302 9.6597-1.7382 11.518-1.5287 0.60909 0.06866 0.86189 0.01926 0.93974-0.18361 0.05857-0.15264 0.20138-1.2983 0.31733-2.546 0.11596-1.2476 0.28215-2.9054 0.3693-3.684 0.08717-0.77852 0.11938-1.5644 0.07161-1.7464-0.04861-0.18517-0.83007-0.68867-1.7745-1.1433-0.92817-0.44683-2.2418-1.189-2.9192-1.6494-0.67738-0.46033-1.3759-0.92428-1.5523-1.031-0.17641-0.10672-0.36441-0.24507-0.41777-0.30743-0.05336-0.06236-0.8829-0.57923-1.8434-1.1486-0.96052-0.56937-2.2266-1.3479-2.8136-1.73-0.58698-0.38214-1.1546-0.73076-1.2613-0.7747-0.43072-0.17733-3.3572-2.1263-3.4722-2.3124-0.19837-0.32096 1.6263-0.09562 2.0057 0.2477 0.18306 0.16567 0.39549 0.30121 0.47206 0.30121 0.07658 0 0.78655 0.30306 1.5777 0.67348s1.6612 0.72937 1.9333 0.79767c0.27213 0.0683 0.5381 0.19428 0.59105 0.27994 0.20629 0.33379 1.8483 0.9892 2.1992 0.87782 0.24515-0.0778 0.88278 0.19769 1.8972 0.81973 1.989 1.2196 4.2494 2.3012 5.4342 2.6002 1.1315 0.28557 1.3658 0.44381 1.7464 1.1798 0.59758 1.1556 0.67312 2.5982 0.34678 6.6224-0.2457 3.0298-0.26181 3.8893-0.07509 4.0047 0.13076 0.08081 0.685 0.20528 1.2316 0.2766 5.023 0.65529 10.917 2.68 11.47 3.9401 0.35314 0.80493 0.87569 0.41914 0.87569-0.64651 0-0.37344 0.10088-0.46924 0.49413-0.46924 0.34583 0 0.59334-0.17435 0.82468-0.58091 0.1818-0.31949 0.44891-0.58145 0.59357-0.58213 0.25325-0.0012 1.767-1.3898 4.4702-4.1007 0.70518-0.7072 1.5145-1.34 1.7984-1.4062 0.28396-0.0662 0.83129-0.42627 1.2163-0.80016 0.385-0.37389 0.78574-0.6798 0.89052-0.6798 0.10478 0 0.19051-0.12094 0.19051-0.26875 0-0.14781 0.22561-0.41657 0.50135-0.59724 0.27574-0.18067 0.73417-0.58829 1.0187-0.90582 0.29383-0.32788 0.83178-0.64788 1.245-0.74062 0.69302-0.15554 0.72766-0.1398 0.72766 0.33055 0 0.3827-0.84075 1.3343-3.7353 4.2278-7.5491 7.5462-7.3489 7.2882-6.6696 8.5965 0.14708 0.28328 0.36041 0.73335 0.47405 1.0002s0.41716 0.96537 0.67448 1.5523c1.6109 3.6747 2.6921 8.0808 2.3 9.3727-0.10362 0.34132-0.24061 0.98984-0.30443 1.4412-0.18616 1.3165-0.08652 1.3154 6.1936-0.0693 1.3792-0.3041 6.807-1.2364 7.1983-1.2364 0.1498 0 0.27237 0.13099 0.27237 0.29107 0 0.16009-0.08732 0.29107-0.19404 0.29107-0.10672 0-0.19404 0.17463-0.19404 0.38808 0 0.44608 0.37961 0.48888 1.8654 0.21034 2.0096-0.37673 7.8377-0.26644 7.8363 0.14829 0 0.0696-1.0262 0.13171-2.28 0.13811-3.3995 0.0174-8.6261 0.73288-9.7503 1.3348-0.26681 0.14288-1.14 0.40531-1.9404 0.5832-0.80044 0.17789-2.4595 0.57468-3.6868 0.88176-1.2273 0.30709-2.9645 0.74155-3.8604 0.96548-0.89589 0.22392-1.7601 0.48057-1.9205 0.57031-0.23352 0.13068-1.2375 2.721-1.925 4.9669-0.06535 0.21345-0.17014 0.43175-0.23286 0.48511-0.25537 0.21726-0.98724 1.3559-0.98724 1.536 0 0.10635-0.26196 0.63764-0.58213 1.1807-0.32017 0.54301-0.58213 1.0254-0.58213 1.072 0 0.0966-0.8725 1.4813-2.6515 4.208-0.67615 1.0363-1.2294 1.9406-1.2294 2.0094 0 0.10746-0.3227 0.54423-1.1672 1.5798-0.10511 0.1289-0.19112 0.4965-0.19112 0.8169 0 0.51285 0.09415 0.61073 0.78718 0.81837 0.43295 0.12972 0.94758 0.4611 1.1436 0.73642 0.54188 0.76099 1.7002 3.1852 2.5562 5.3497 0.66456 1.6804 2.858 8.5875 3.2663 10.286 0.07718 0.32094 0.23476 0.75754 0.3502 0.97021 0.25134 0.46306 2.1808 6.7228 2.1808 7.0752 0 0.16003-1.3909 1.1702-1.6113 1.1702-0.07431 0-0.13564-0.10915-0.1363-0.24256-6.57e-4 -0.1334-0.13847-0.50451-0.30626-0.82468-0.16778-0.32017-0.68524-1.8046-1.1499-3.2987-0.46466-1.4941-1.3753-4.332-2.0235-6.3064-0.64828-1.9744-1.4477-4.4193-1.7764-5.4332-0.76678-2.3647-2.2609-6.209-2.5799-6.6379-0.16235-0.21828-0.62772-0.36679-1.3624-0.43476-0.6137-0.0568-1.1888-0.14836-1.278-0.20348-0.31751-0.19624-1.0819 0.27044-2.0382 1.2443-0.53362 0.54346-1.799 1.6209-2.8121 2.3942-1.013 0.77339-2.0536 1.5967-2.3124 1.8296-0.25879 0.23292-0.77886 0.5822-1.1557 0.77618-0.72621 0.37383-1.2164 0.72053-1.8018 1.2744-0.19741 0.18678-0.44625 0.33958-0.55297 0.33958-0.10673 0-0.19404 0.0873-0.19404 0.19404 0 0.10673-0.08946 0.19405-0.1988 0.19405-0.10934 0-0.75185 0.34928-1.4278 0.77617-0.67594 0.4269-1.3287 0.77617-1.4506 0.77617s-0.22159 0.0767-0.22159 0.17051c0 0.0938-0.2693 0.28205-0.59845 0.41839-0.87204 0.3612-1.2272 1.4386-0.66088 2.0049 0.16116 0.16115 0.47436 1.1497 0.69602 2.1968 0.37334 1.7637 0.39349 2.2896 0.2737 7.143-0.07112 2.8815-0.21915 6.1124-0.32895 7.1796-0.1098 1.0672-0.20043 3.8821-0.20141 6.2553-0.0012 2.7306-0.07072 4.2722-0.18955 4.1988-0.10328-0.0638-0.1695-0.56472-0.14718-1.1131 0.08938-2.195 0.03768-2.4524-0.49266-2.4524h-0.48511v-2.9915c0-1.7555-0.07765-3.0182-0.18793-3.0562-0.11459-0.0394-0.21785-2.7906-0.2646-7.0502-0.06052-5.5125-0.14173-7.2556-0.38514-8.2663-0.5669-2.3539-0.81492-2.6086-1.9592-2.0118-0.6906 0.36014-3.6588 1.3741-4.537 1.5499l-0.63936 0.12798 0.11938 1.5835c0.11428 1.5158 0.08921 1.6541-0.58563 3.2329-1.4139 3.3078-1.8072 4.3997-2.2014 6.1124-0.22112 0.96052-0.63256 2.7476-0.91431 3.9714-0.28174 1.2238-0.6287 2.5336-0.77101 2.9107-0.14231 0.37708-0.62315 1.8644-1.0685 3.3052-0.44539 1.4408-1.0289 3.2308-1.2967 3.9779-0.26781 0.74707-0.52946 1.5462-0.58143 1.7759-0.09505 0.42004-0.81893 0.70395-1.1978 0.46979zm-3.8337-29.218c-0.06143-0.16009-0.31627-0.29106-0.56631-0.29106-0.48633 0-2.2205-1.0716-2.2205-1.3721 0-0.0992 0.22104-0.18029 0.4912-0.18029 0.67592 0 0.81429-0.50381 0.29128-1.0605-0.42974-0.45743-0.42983-0.4592-0.03639-0.66977 0.88062-0.47129 5.0869 0.77242 9.0531 2.6768l1.5524 0.74537 2.0374-0.54881c1.1206-0.30184 3.0416-0.87898 4.269-1.2825 2.2262-0.732 2.2316-0.73528 2.2943-1.3907 0.05611-0.58725 0.01891-0.64553-0.35051-0.54893-0.24669 0.0645-0.85863-0.10953-1.5181-0.43179-0.60765-0.29693-1.5414-0.70049-2.075-0.89682-0.92686-0.34101-2.2315-1.2032-2.2315-1.4748-7e-6 -0.0707 0.24012-0.10184 0.53361-0.0693 0.67388 0.0747 1.6613-0.41338 1.4813-0.73221-0.07273-0.12885-0.3091-0.43076-0.52528-0.67088-0.48692-0.54088-0.47593-0.5406 1.2133 0.0309 1.3218 0.44721 4.6971 2.3061 4.8324 2.6614 0.03557 0.0934 0.18161 0.16986 0.32453 0.16986 0.14291 0 0.36448 0.32745 0.49238 0.72766 0.24611 0.77016 0.57374 1.2648 0.57374 0.86629 0-0.12654 0.50208-0.49396 1.1157-0.8165 1.2058-0.63377 1.3439-0.71644 2.9546-1.7689 0.58951-0.38521 1.2683-0.7622 1.5084-0.83776 0.24012-0.0756 0.43659-0.22156 0.43659-0.32445 0-0.10288 0.15281-0.24248 0.33958-0.31023 0.37526-0.13611 1.2861-0.8145 3.0711-2.2874 1.9674-1.6234 2.5011-2.033 2.6531-2.0367 0.08004-2e-3 0.14554-0.12758 0.14554-0.27918 0-0.37671-1.0358-0.56951-5.8213-1.0836-2.1458-0.23051-3.1128-0.61567-4.041-1.6095-0.49064-0.52535-0.42414-0.63069 0.43157-0.68369 0.30938-0.0191 0.66739-0.12188 0.79558-0.22826 0.23895-0.19831 0.92621-0.16201 1.9211 0.10147 0.38399 0.1017 0.52168 0.0828 0.43378-0.0594-0.33242-0.53787 0.97537-0.52114 5.4071 0.0692 4.0366 0.53766 3.7111 0.53424 4.1549 0.0436 0.94703-1.0472 1.3754-1.5786 1.3754-1.706 0-0.0748 0.17464-0.33738 0.38808-0.58348 0.21345-0.24612 0.38809-0.56509 0.38809-0.70885 0-0.14375 0.08144-0.26137 0.18097-0.26137 0.09953 0 0.23848-0.18122 0.30878-0.40271 0.0703-0.2215 0.1739-0.35663 0.23022-0.30031 0.16713 0.16714 0.67372-0.44104 0.54324-0.65217-0.06591-0.10665 0.08133-0.39943 0.32721-0.65063 0.24587-0.2512 0.61678-0.75402 0.82424-1.1174 0.20746-0.36335 0.49205-0.77683 0.63242-0.91885 0.14037-0.14201 0.20561-0.33847 0.14496-0.43659-0.06064-0.0981 0.01733-0.1784 0.17328-0.1784 0.15594 0 0.37927-0.24013 0.49628-0.53363 0.11701-0.29348 0.56156-1.0575 0.9879-1.6979 0.42634-0.64035 0.82536-1.2952 0.88671-1.4553 0.06135-0.16008 0.44694-0.99024 0.85686-1.8448 0.40992-0.85454 0.80841-1.8901 0.88554-2.3012 0.126-0.67163 0.10318-0.73692-0.22492-0.64344-0.20083 0.0572-0.75809 0.16436-1.2383 0.23811-0.48025 0.0737-1.0478 0.16926-1.2613 0.21226-0.21344 0.043-1.0643 0.0886-1.8908 0.10133-1.3393 0.0206-1.5854-0.0342-2.2634-0.50404-1.0385-0.7197-1.4446-1.203-1.3087-1.5574 0.06296-0.16407 0.29184-0.2983 0.50865-0.2983 0.50432 0 0.5076-0.31373 0.0061-0.58213-0.21345-0.11423-0.38809-0.35016-0.38809-0.52428 0-0.17411 0.05686-0.25972 0.12635-0.19023 0.06949 0.0695 0.22369-7e-3 0.34267-0.16949 0.19261-0.26341 0.29042-0.25852 0.89238 0.0446 0.49315 0.24831 1.0961 0.33378 2.2284 0.31588 1.609-0.0254 4.9691-0.53447 5.5382-0.83899 0.60844-0.32563 0.79344-4.4133 0.28963-6.3992-0.44385-1.7495-2.1527-6.5144-2.4671-6.8788-0.08744-0.10139-0.15899-0.34152-0.15899-0.53362 0-0.8489-0.67882-0.2069-3.0077 2.8446-0.42689 0.55936-1.1378 1.4885-1.5799 2.0648s-1.0377 1.5007-1.3238 2.0543c-0.28605 0.55361-0.64942 1.1139-0.80751 1.2451-0.47495 0.39417-1.4503 0.28942-1.8451-0.19818-0.33006-0.40761-0.33311-0.48417-0.04569-1.1481 0.4685-1.0822 0.55682-1.4734 0.29633-1.3124-0.68992 0.42639 0.39261-1.4399 2.0233-3.4883 0.79028-0.99268 1.5246-1.8591 1.6319-1.9254 0.10728-0.0663 0.19506-0.295 0.19506-0.50822 0-0.29468-0.35482-0.54937-1.4792-1.0618-1.6495-0.75172-3.2804-1.3295-4.5591-1.6152-1.3402-0.29941-5.4566-1.0076-5.4989-0.94602-0.13859 0.20194-0.91083 4.3733-1.0129 5.4713-0.22034 2.3702-1.4668 2.7599-2.6827 0.83867-0.39625-0.6261-0.32129-1.7503 0.30938-4.6399 0.21148-0.96896 0.34001-1.8063 0.28562-1.8606-0.1409-0.1409-3.7742-0.10849-4.999 0.04459-3.4066 0.42576-10.029 1.9291-10.448 2.3719-0.19197 0.20272-0.85461 2.4552-1.2739 4.3302-0.18682 0.83555-0.34442 2.4883-0.37005 3.8809-0.05704 3.0992-0.02277 2.9118-0.5311 2.9038-0.60028-9e-3 -1.1639-0.36104-1.7997-1.1226-0.50686-0.60716-0.53608-0.74474-0.50634-2.3845 0.02546-1.4038 0.2861-3.2457 0.807-5.7031 0.12599-0.59439-0.0083-0.68733-0.57186-0.39589-0.31187 0.16127-0.9886 0.43442-1.5038 0.60699-2.0522 0.68735-8.0757 4.0376-8.6208 4.7949-0.19525 0.27124-1.1752 0.72246-1.3434 0.61854-0.19857-0.12272-0.26518 0.20532-0.88487 4.3577-0.47234 3.165-0.48507 3.4268-0.19601 4.033 0.35967 0.75424 0.39714 1.3339 0.09817 1.5187-0.11629 0.0719-0.15394 0.31646-0.08392 0.54507 0.37412 1.2214 0.42884 1.6584 0.23224 1.855-0.44255 0.44255-1.1322 0.20211-2.132-0.7433l-1.0071-0.95233 0.02669-2.2034c0.01468-1.2119 0.12334-2.5515 0.24147-2.977 0.25574-0.92119 0.28367-2.0349 0.05102-2.0349-0.20792 0-3.7149 3.6951-3.7149 3.9142 0 0.0884-0.06824 0.16075-0.15164 0.16075-0.38409 0-2.4327 3.0568-3.5763 5.3362-2.5168 5.0166-2.3845 4.5374-2.3845 8.6349v3.5898l0.73326 2.2315c0.40329 1.2273 1.0391 3.1932 1.4129 4.3687 0.67007 2.107 1.6469 3.9329 2.8534 5.3335 1.191 1.3827 2.8091 3.0207 3.4104 3.4525 1.6771 1.2042 5.0711 2.557 8.6658 3.4542 2.1436 0.53497 3.0426 0.58982 2.8838 0.17593z"/>
<path d="m154.26 116.44c-0.77436-0.0552-4.3643-1.0697-4.9837-1.4083-0.17968-0.0982-0.87823-0.36052-1.5524-0.58285-0.67411-0.22234-1.6865-0.61816-2.2497-0.8796-0.56321-0.26145-1.0701-0.47536-1.1264-0.47536-0.67314 0-5.9725-2.8717-7.7673-4.2091-0.54545-0.40644-1.6369-1.2227-2.4255-1.8139-2.9876-2.2398-3.7896-2.605-6.8418-3.1156-1.2946-0.21658-2.4264-0.46534-2.5152-0.55279-0.0888-0.0875-0.0535-0.33184 0.0784-0.54306 0.19691-0.3153 0.18239-0.46605-0.0811-0.84223-0.42336-0.60443-0.40705-0.9966 0.16081-3.8646 0.42496-2.1463 1.0207-7.6822 0.84562-7.8574-0.0364-0.0364-1.2013 0.05477-2.5887 0.2026-2.9732 0.31678-6.1446 0.35111-8.4408 0.09135-0.90716-0.10262-2.4327-0.23952-3.3901-0.30423-0.9574-0.0647-2.6532-0.28528-3.7685-0.49018-1.1152-0.2049-2.0472-0.35107-2.071-0.32483-0.22915 0.25297-1.4179 2.6989-1.523 3.1337-0.13743 0.56844-1.1736 2.226-1.5564 2.4898-0.32438 0.22356-0.49792 0.17387-0.49792-0.14256 0-0.16008-0.12238-0.29106-0.27195-0.29106-0.21485 0-0.25684-0.2954-0.2-1.4068 0.0396-0.77375 0.15343-1.5815 0.25303-1.7949 0.60104-1.2881 1.0134-2.6443 0.9065-2.9811-0.0708-0.22295-0.3657-0.44098-0.69415-0.51312-0.31411-0.06899-0.62092-0.20604-0.68181-0.30455-0.0609-0.09852-0.28293-0.17912-0.49342-0.17912-0.2105 0-0.43299-0.13098-0.49442-0.29106-0.0614-0.16009-0.31631-0.29106-0.5664-0.29106-0.25009 0-0.53396-0.14163-0.63083-0.31472-0.09687-0.1731-0.39597-0.33886-0.66467-0.36835-0.93837-0.10301-1.3268-0.38053-3.1564-2.2551-2.1245-2.1767-2.6806-2.6891-2.9185-2.6891-0.12964 0-0.33791-0.12312-0.4628-0.27361-0.18501-0.22291-0.11543-0.29813 0.37549-0.40596 0.5121-0.11248 0.59361-0.20978 0.54289-0.64809-0.04929-0.42596-0.17046-0.52641-0.69598-0.57698-0.49554-0.04768-0.75075-0.23417-1.1536-0.84298-0.67269-1.0165-0.80226-2.0381-0.50059-3.9469 0.37078-2.3462 0.34748-2.57-0.28053-2.6947-0.7306-0.1451-3.996-0.2963-8.9889-0.41623-2.3025-0.0553-4.4854-0.14204-4.8511-0.19272-0.36563-0.0507-1.1887-0.14372-1.8291-0.20672-0.64034-0.063-1.4699-0.20873-1.8434-0.32385l-0.67915-0.20931 0.58213-0.1677c0.63664-0.1834 13.697-0.21696 16.654-0.0428 1.3337 0.07854 1.878 0.04349 1.9838-0.12773 0.08021-0.12978 0.48793-1.2382 0.90604-2.4631 0.83839-2.4562 2.6768-6.5402 4.4406-9.8648 0.62923-1.1861 1.1441-2.3302 1.1441-2.5424 0-0.23804-0.42765-0.7248-1.1157-1.27-0.61366-0.48619-1.4735-1.2195-1.9108-1.6295-1.372-1.2864-2.0296-1.8611-3.2022-2.7985-2.9875-2.3881-3.831-4.4595-2.9813-7.321 0.40466-1.3627 2.6895-6.6493 3.5044-8.1086 0.36333-0.6506 0.66059-1.2937 0.66059-1.4291 0-0.37167 2.157-4.6646 2.3438-4.6646 0.08933 0 0.3927-0.39293 0.67414-0.87319 0.65109-1.111 0.93825-1.1292 0.76432-0.04851-0.2468 1.5335-2.0658 6.6537-3.9816 11.208-1.7823 4.2366-2.3493 7.0677-1.5956 7.9667 0.18677 0.22274 0.90716 0.85105 1.6009 1.3962 0.6937 0.5452 1.7415 1.4485 2.3285 2.0073 1.7029 1.6213 3.938 3.3755 4.3007 3.3755 0.18352 0 0.74908-0.54575 1.2568-1.2128 3.3433-4.3923 7.9124-9.1582 11.47-11.964 0.5603-0.44191 1.0187-0.94631 1.0187-1.1209 0-0.17459-0.3711-0.8055-0.82468-1.402-1.2912-1.6981-1.8592-2.6511-3.1333-5.2571-1.279-2.616-1.3129-2.6922-2.9244-6.5794-0.97311-2.3473-1.0498-2.6332-0.78489-2.9259 0.38621-0.42675 0.37109-0.56922-0.10412-0.98136-0.21874-0.18971-0.31737-0.39459-0.21918-0.45527 0.0982-0.06069 0.51158-0.78891 0.91864-1.6183 0.88333-1.7998 2.563-4.4594 3.6041-5.7068 0.41318-0.49507 0.75124-0.95939 0.75124-1.0318 0-0.30244 5.9838-7.2558 6.9719-8.1016 0.43441-0.37184 0.78983-0.73942 0.78983-0.81685 0-0.16544 0.50528-0.69519 0.66307-0.69519 0.21091 0 0.88928-0.67116 0.88928-0.87983 0-0.22785 0.74069-0.80237 1.6008-1.2417 0.2935-0.14991 0.53362-0.43244 0.53362-0.62785 0-0.19541 0.0802-0.3553 0.17818-0.3553 0.098 0 0.31629-0.053 0.4851-0.11778 1.0585-0.40618-0.71512 2.2735-3.1373 4.74-0.66702 0.67924-1.2128 1.3142-1.2128 1.4111s-0.13098 0.17607-0.29106 0.17607c-0.16009 0-0.29107 0.097538-0.29107 0.21675 0 0.11921-0.33757 0.54436-0.75017 0.94476-0.41259 0.40041-0.91167 1.0014-1.1091 1.3356-0.1974 0.33417-0.421 0.60758-0.49688 0.60758-0.0759 0-0.4215 0.50209-0.76805 1.1158-0.50664 0.89714-1.9056 2.8766-2.8456 4.0264-1.1477 1.4039-4.3074 7.4185-4.312 8.2081-4e-3 0.6501 2.1446 5.9126 3.6994 9.0617 1.2838 2.6003 3.2362 5.6438 3.7459 5.8394 0.13272 0.05093 1.2836-0.59159 2.5576-1.4278 1.2739-0.83622 2.9275-1.8578 3.6746-2.2702 1.5674-0.86518 1.6424-0.94818 1.6464-1.8224 6e-3 -1.2723 0.63916-3.0678 2.2665-6.4254 0.9068-1.871 1.8249-3.7947 2.0402-4.275 0.21532-0.48025 0.50945-1.1352 0.6536-1.4553 0.14417-0.32018 0.38439-0.88775 0.53383-1.2613 0.14944-0.37354 0.7782-1.7488 1.3972-3.0562 0.95511-2.0171 1.1926-2.377 1.5685-2.377 0.27253 0 0.49034-0.14932 0.56613-0.38809 0.0677-0.21345 0.18706-0.38809 0.26515-0.38809 0.0781 0 0.25954-0.32744 0.40321-0.72766 0.14366-0.40021 0.53694-1.2962 0.87394-1.991 0.337-0.69482 0.72859-1.6772 0.87022-2.183 0.14162-0.50583 0.37258-0.91969 0.51325-0.91969 0.19057 0 0.21272 0.13598 0.0869 0.53362-0.91028 2.8766-1.327 4.0106-2.1693 5.9033-0.538 1.2089-1.1029 2.609-1.2554 3.1113-0.15246 0.50235-0.36225 0.96594-0.4662 1.0302-0.10396 0.06424-0.18901 0.28629-0.18901 0.49344 0 0.20715-0.066 0.37663-0.14679 0.37663-0.0807 0-0.2528 0.33964-0.38236 0.75475-0.12955 0.41511-0.66427 1.6594-1.1883 2.7651-0.524 1.1057-1.0847 2.316-1.2461 2.6895-0.16135 0.37353-0.50905 1.1594-0.77268 1.7464-0.26362 0.58698-0.54677 1.2855-0.62922 1.5523-0.0825 0.26681-0.22753 0.5352-0.3224 0.59642-0.16372 0.10566-0.54785 2.026-0.55025 2.7508-1e-3 0.41197 0.50244 0.44053 1.2788 0.0725 3.8297-1.8153 8.023-3.2102 12.885-4.2863 2.6291-0.58183 4.4186-0.82173 7.4115-0.99355 1.2065-0.06927 2.253-0.16069 2.3255-0.20317 0.5379-0.31501 9.2807 1.0169 9.749 1.4852 0.10451 0.10451 0.42645 0.19001 0.71543 0.19001 0.45245 0 1.5532 0.44884 2.9868 1.2179 0.21345 0.1145 0.71258 0.3822 1.1092 0.59488 0.80551 0.43195 2.0308 1.6124 1.8556 1.7876-0.13105 0.13105-0.83732-0.2518-1.3307-0.72138-0.46673-0.44419-3.1831-1.7147-3.666-1.7147-0.21648 0-0.3936-0.08106-0.3936-0.18013 0-0.09907-0.50209-0.28006-1.1158-0.4022-0.61366-0.12214-1.4214-0.2996-1.7949-0.39436-0.37354-0.09475-1.1812-0.22566-1.7949-0.29091-0.61366-0.06525-1.1157-0.17783-1.1157-0.2502 4e-5 -0.17954-6.883-0.0626-8.926 0.15165-0.90715 0.09513-2.1296 0.26473-2.7166 0.37688-0.58698 0.11216-1.3728 0.24105-1.7464 0.28644-1.5098 0.18344-6.0894 1.4731-7.0155 1.9757-0.28328 0.15372-0.713 0.27949-0.95494 0.27949s-0.57774 0.11976-0.74624 0.26613c-0.16849 0.14638-0.7866 0.41832-1.3736 0.60434-1.2715 0.40294-3.8395 1.5948-4.3175 2.0038-0.18677 0.15982-0.33958 0.39135-0.33958 0.51452 0 0.25112 5.425 1.5446 7.8271 1.8662 1.0159 0.136 2.0466 0.14151 3.1047 0.01659 1.6075-0.18979 2.7541-0.11795 3.1255 0.19584 0.11268 0.09521 0.37186 0.28848 0.57597 0.42949 0.64453 0.44529 0.25431 0.89158-0.80161 0.9168-2.4123 0.05763-4.8909-0.10446-6.4232-0.42005-0.49939-0.10285-1.4224-0.27759-2.0512-0.38832-1.9804-0.34876-5.3476-1.2256-5.9552-1.5508-0.20472-0.10957-0.37221-0.37077-0.37221-0.58047 0-0.44897-0.15693-0.47045-0.65923-0.09024-0.46068 0.3487-0.69908 0.21247-0.69908-0.3995 0-0.26051-0.0857-0.47365-0.19035-0.47365-0.17858 0-0.2978 0.34591-0.43472 1.2613-0.0345 0.23072-0.23428 0.41323-0.49266 0.4501-0.23904 0.0341-0.43461 0.12777-0.43461 0.20816 0 0.08038-0.39294 0.3424-0.8732 0.58225s-0.87319 0.51116-0.87319 0.60291c0 0.09175-0.39294 0.36306-0.8732 0.60292-0.48026 0.23985-0.87319 0.50443-0.87319 0.58795 0 0.08352-0.34928 0.2565-0.77618 0.38441-0.4269 0.1279-0.77617 0.30537-0.77617 0.39438 0 0.089-0.26196 0.39524-0.58213 0.68051-0.32018 0.28527-0.58213 0.5982-0.58213 0.69539 0 0.33988 1.7802 2.4859 3.4979 4.2168 1.8049 1.8187 2.0574 2.2826 1.8703 3.4357-0.13566 0.83595-0.25643 0.98286-0.55913 0.68015-0.12629-0.12629-0.36924-0.22962-0.53989-0.22962s-0.52429-0.36433-0.78588-0.80961c-0.26158-0.44529-0.9623-1.3403-1.5572-1.9889s-1.6352-1.8342-2.3119-2.6347-1.3025-1.4842-1.3906-1.5194c-0.54667-0.2185-6.3132 5.3052-9.5878 9.1841-1.8918 2.2409-3.7974 5.0248-3.5612 5.2027 0.11829 0.08906 2.2382 1.0074 3.4769 1.5062 0.58698 0.23637 1.4984 0.53166 2.0253 0.65621 1.0517 0.24859 1.2529 0.4865 0.79703 0.94239-0.16485 0.16485-0.29973 0.39328-0.29973 0.50763 0 0.63282-3.3342-0.21871-5.9896-1.5297-0.67956-0.3355-1.2538-0.58388-1.2761-0.55195-1.853 2.6544-6.4974 13.464-5.9891 13.94 0.08632 0.08079 1.6414 0.20312 3.4557 0.27184 5.9128 0.22396 7.1574 0.40771 7.3339 1.0829 0.18945 0.72447-0.45326 0.83608-4.0243 0.69889-1.8203-0.06994-4.2341-0.18091-5.364-0.24661l-2.0543-0.11946-0.30808 1.6265c-0.50161 2.6481-0.56339 3.4066-0.34388 4.2217 0.17124 0.63595 0.32807 0.81247 0.88513 0.99632 0.37683 0.12437 1.085 0.66537 1.5971 1.2202 2.5845 2.7997 2.9113 3.053 5.5903 4.3321 1.4256 0.68062 2.6825 1.2375 2.7932 1.2375s0.20128 0.13098 0.20128 0.29107c0 0.86587 0.70279-0.0353 2.1564-2.7651 1.925-3.615 2.1125-4.0253 2.1125-4.6217 0-0.97848 0.37528-1.4021 1.3078-1.4763 1.0472-0.08328 1.0917-0.0079 1.1068 1.8728 0.0117 1.4627-0.34422 2.3525-2.4595 6.1481-0.45558 0.81749-0.76678 1.5485-0.69156 1.6244 0.24259 0.24492 4.2761 0.81745 7.5063 1.0655 3.7604 0.28872 7.6097 0.17246 10.063-0.30394l1.7949-0.34849v-1.591c0-1.6836 0.42208-4.5315 0.80858-5.4556 0.22172-0.53013 0.23397-0.53449 0.3076-0.10942 0.0676 0.39014 0.15523 0.42797 0.73835 0.31858 0.5984-0.11227 0.68193-0.0711 0.87356 0.43048 0.14152 0.3704 0.16654 1.4408 0.0753 3.2227l-0.13656 2.6681 0.46147-0.0035c0.25381-2e-3 1.4656-0.25591 2.693-0.56445 6.1091-1.5358 6.0319-1.5019 5.4103-2.375-0.26997-0.37914-0.37236-0.74635-0.30499-1.0939 0.0641-0.33094-0.0149-0.65272-0.21513-0.87564-0.29288-0.3261-0.29116-0.44935 0.0229-1.6494 0.18666-0.71331 0.51449-1.6336 0.72849-2.0452 0.42261-0.81271 1.9262-5.7801 1.9262-6.3636 0-0.22943 0.13992-0.3588 0.38808-0.3588 0.21345 0 0.38809 0.08732 0.38809 0.19404 0 0.10672 0.26196 0.19404 0.58213 0.19404s0.58213-0.09248 0.58213-0.2055c0-0.11302 0.0873-0.15153 0.19405-0.08557 0.55702 0.34426 0.10671 2.2965-1.7456 7.5677-1.0463 2.9774-1.0763 3.133-0.64849 3.3542 0.19613 0.10139 0.80566 0.28967 1.3545 0.41839 1.0818 0.25372 1.3533 0.17964 4.2413-1.1573 0.64034-0.29643 1.7755-0.8194 2.5226-1.1622 2.3034-1.0569 6.9238-4.0316 8.5703-5.5177 0.12452-0.1124 0.88857-0.80288 1.6979-1.5344 0.80931-0.73152 1.4715-1.4892 1.4715-1.6837 0-0.1945-0.24013-0.47807-0.53362-0.63013-0.29349-0.15207-1.311-0.76969-2.2611-1.3725-0.95012-0.60282-1.8451-1.096-1.9889-1.096s-0.26146-0.12475-0.26146-0.27721c0-0.15246-0.11966-0.39686-0.2659-0.54311-0.14625-0.14624-0.40637-0.53752-0.57805-0.86952-0.26219-0.50703-0.27398-0.71148-0.0737-1.2778 0.24199-0.68412 1.4773-1.8553 2.5324-2.4009 0.31873-0.16483 0.92984-0.55346 1.358-0.86362 0.71954-0.52123 0.80913-0.5415 1.1829-0.26765 0.2224 0.16296 0.62266 0.39995 0.88947 0.52666 0.26681 0.1267 0.51401 0.24887 0.54934 0.27148 0.25977 0.16627-0.62109 0.98367-2.1785 2.0215-1.2642 0.84243-1.8761 1.375-1.9588 1.7045-0.14623 0.58262-0.0853 0.6461 1.2595 1.3127 0.58698 0.29099 1.6022 0.90843 2.2561 1.3721 0.6539 0.46368 1.3205 0.84305 1.4812 0.84305 0.67782 0 4.5247-5.0612 5.8257-7.6647 1.1682-2.3377 2.1683-4.9366 2.7421-7.1253 2.1748-8.2964 2.2675-14.582 0.28352-19.224-0.41361-0.96773-0.75203-1.7906-0.75203-1.8286 0-0.03797 0.15932 0.01623 0.35405 0.12044 0.41445 0.2218 1.9612 3.2696 2.5417 5.0083 0.39474 1.1823 0.71788 2.8684 0.92342 4.8183 0.16559 1.5709-0.53989 8.0226-1.1872 10.857-0.40224 1.7614-1.3397 4.6393-2.1492 6.5975-1.1103 2.6859-2.6279 5.1536-5.1883 8.4366-1.1231 1.4401-1.0318 1.9072 0.58213 2.9776 1.3702 0.90865 3.9167 2.3265 6.549 3.6463 2.2004 1.1033 7.4968 4.2821 8.4454 5.0689 0.40403 0.33508 1.1597 1.3285 1.1597 1.5246 0 0.16837-1.3106-0.47056-2.6196-1.2771-0.4269-0.26303-1.1255-0.66635-1.5524-0.89628-0.4269-0.22992-0.99447-0.57105-1.2613-0.75807-0.67817-0.47535-1.5301-0.94125-3.8809-2.1224-2.7497-1.3816-3.2073-1.6163-4.56-2.3394-2.7118-1.4495-3.7219-2.0254-4.3045-2.4545-0.33973-0.25015-0.70347-0.45482-0.80832-0.45482-0.10484 0-0.52544 0.35822-0.93465 0.79604-0.40921 0.43783-1.3989 1.3628-2.1994 2.0556-0.80043 0.69274-1.6736 1.4553-1.9404 1.6945-0.53678 0.48135-3.252 2.4394-3.3827 2.4394-0.0454 0-0.59086 0.33648-1.2121 0.74772s-1.5224 0.93806-2.0027 1.1707c-1.5539 0.75276-3.3897 1.7391-3.6301 1.9505-0.1289 0.11331-0.32537 0.20602-0.4366 0.20602s-0.20223 0.16248-0.20223 0.36106c0 0.28781 0.20668 0.39045 1.0187 0.50592 0.56031 0.07968 1.4117 0.21115 1.8919 0.29217l0.87319 0.14731-0.72766 0.02593c-0.58724 0.02093-0.72766 0.1001-0.72766 0.41032 0 0.25907 0.17397 0.42595 0.53362 0.51186 0.29349 0.07011 0.62094 0.19137 0.72766 0.26947 0.10673 0.0781 0.53989 0.25354 0.96258 0.38987 0.4227 0.13633 1.1776 0.45332 1.6776 0.70444s0.98465 0.45657 1.0771 0.45657c0.22302 0 4.148 1.7063 4.4168 1.9201 0.11542 0.09181 0.42816 0.23113 0.69497 0.30961 0.26681 0.07847 0.9217 0.42554 1.4553 0.77125 0.53362 0.34572 1.6688 0.96725 2.5226 1.3812 1.5354 0.74443 4.8027 2.7261 5.7322 3.4766 0.56027 0.45244 1.7385 1.8632 1.7385 2.0817 0 0.27835-1.7104 0.15816-2.0097-0.14123-0.16009-0.16009-0.3628-0.29411-0.45047-0.29782-0.0877-0.0037-0.67364-0.52346-1.3022-1.155-0.62853-0.63152-1.4292-1.2841-1.7793-1.4503-0.35009-0.16612-0.66537-0.36975-0.70064-0.4525-0.0353-0.08275-0.9373-0.58408-2.0046-1.1141-1.0672-0.52997-1.985-1.0222-2.0394-1.0937-0.0544-0.07158-0.36005-0.19313-0.67915-0.27012-0.31911-0.07698-1.6717-0.59472-3.0057-1.1505-1.334-0.55582-3.7353-1.5158-5.3362-2.1334-1.6009-0.61754-3.5456-1.4165-4.3217-1.7755-1.6053-0.74254-1.9462-0.78123-2.8993-0.329-0.64254 0.30491-0.74319 0.30296-1.7332-0.03355-1.0049-0.34158-1.0997-0.34255-2.1608-0.02219-0.61037 0.18428-1.2844 0.41495-1.4979 0.51259-0.34653 0.15853-1.2412 0.4267-4.9481 1.4831-0.58698 0.16728-1.351 0.30018-1.6979 0.29532-0.34685-0.0049-0.63064 0.06409-0.63064 0.15321 0 0.08912-0.43129 0.22136-0.95843 0.29385l-0.95844 0.13182-0.31129 1.3686c-0.29851 1.3125-0.72818 4.2711-1.0608 7.3041-0.0862 0.78612-0.23328 1.4847-0.32686 1.5523-0.20429 0.14773-0.65318 1.3886-0.65318 1.8055 0 0.2378 0.38309 0.32174 1.9317 0.42322 2.2115 0.14494 4.5418 0.80535 5.7394 1.6266 0.43041 0.29516 1.6818 1.2352 2.7808 2.089 2.2596 1.7554 5.1573 3.6136 8.2246 5.2742 1.644 0.89003 2.0858 1.2167 2.086 1.542 0 0.54803 0.17146 0.65572 2.3287 1.4644 1.0139 0.38009 2.4568 0.9209 3.2065 1.2018s1.4919 0.5135 1.6494 0.5169c0.35567 8e-3 1.0461 0.5131 0.83149 0.60869-0.0864 0.0385-0.50643 0.0451-0.93332 0.0147z"/>
<animate attributeName="display" begin="0s" dur="0.5s" keyTimes="0;0.5;1" repeatCount="indefinite" values="none;inline;none"/>
</g>
<path d="m50.977 173.79c-0.22644-0.68532 0.23625-5.0933 0.65485-6.2385 0.08953-0.24497 0.2096-1.3352 0.26682-2.4227 0.05722-1.0875 0.18332-2.3402 0.28023-2.7837 0.0969-0.44354 0.23395-1.8086 0.30453-3.0334 0.07058-1.2249 0.20802-2.9786 0.30541-3.8973 0.09739-0.91865 0.22432-2.2715 0.28208-3.0065 0.20593-2.6201 0.67597-6.6919 0.84836-7.3491 0.22173-0.84527 0.73347-5.3975 0.78858-7.015 0.0646-1.8959 0.0032-2.4497-0.27203-2.4497-0.13911 0-0.89416 0.3952-1.6779 0.87822-2.009 1.2382-3.265 1.9373-3.8219 2.1272-0.26366 0.0899-0.78141 0.33875-1.1505 0.55296-1.3728 0.79659-2.0821 1.071-4.9211 1.9039l-2.9077 0.85303-0.12869 1.018c-0.07078 0.55988-0.29637 1.97-0.50131 3.1336-0.20494 1.1636-0.62825 3.8694-0.94068 6.0129-0.31243 2.1435-0.65082 4.0977-0.75197 4.3426-0.18434 0.44646-0.79756 3.8565-1.2676 7.0492-0.13801 0.9374-0.38156 2.3404-0.54121 3.1178-0.15966 0.77739-0.3893 2.14-0.51033 3.028-0.12102 0.88802-0.28534 1.6146-0.36516 1.6146s-0.23877 0.22549-0.35321 0.50107l-0.20809 0.50108-0.01298-0.52239c-0.0071-0.2873-0.15602-0.80363-0.33086-1.1474-0.34555-0.67935-0.3594-0.54679 0.52379-5.0112 0.5007-2.531 0.73638-3.8294 0.84887-4.6767 0.04878-0.36746 0.22404-1.4698 0.38945-2.4497 0.16542-0.97988 0.37542-2.3328 0.46669-3.0064 0.16172-1.1938 0.49356-3.3441 1.3575-8.7966 0.23288-1.4698 0.4341-2.9731 0.44715-3.3405 0.02886-0.81275 0.095-0.81258-3.6185-9e-3 -4.4418 0.96096-7.0039 1.1246-10.931 0.69833-1.0604-0.1151-3.9318-0.85309-5.2733-1.3553-0.4746-0.17767-1.3375-0.48835-1.9176-0.69038-1.379-0.4803-3.7438-1.7724-4.5968-2.5116-3.6086-3.1272-6.3333-8.8198-6.3333-13.232 0-1.4999 0.64389-5.7112 0.9871-6.456 0.1077-0.23371 0.36744-1.032 0.57719-1.7741 0.52658-1.8629 2.7572-7.0725 3.0282-7.0725 0.070193 0 0.27136-0.37581 0.44703-0.83513 0.17567-0.45933 0.53744-1.1063 0.80393-1.4378 0.26649-0.33149 0.48454-0.65848 0.48454-0.72664 0-0.19339 1.2305-1.7434 3.7872-4.7705l2.349-2.7813v-1.9621c0-2.2984-0.0057-2.3026-1.7674-1.2875-2.6937 1.5521-5.4931 2.2054-10.122 2.3619-3.6943 0.12489-5.8157-0.22243-5.9082-0.96734-0.035843-0.28883 0.078722-0.56452 0.28764-0.69215 0.19097-0.11666 2.0299-0.21315 4.0865-0.21442 7.3211-0.0041 11.257-1.3174 13.831-4.6143l0.52176-0.66809 0.25084 0.66809c0.15316 0.40796 0.25209 1.5764 0.25405 3.0008 0.0038 2.7299 0.15279 2.9165 1.3904 1.7416 0.42508-0.40356 1.2239-1.1346 1.7751-1.6245 0.55121-0.48994 1.4458-1.2917 1.9881-1.7816 0.54223-0.48993 1.1241-0.99102 1.2931-1.1135 0.16896-0.12249 1.075-0.80524 2.0135-1.5172 3.1861-2.4173 5.9012-4.1283 7.9965-5.0394 0.65722-0.28576 1.5387-2.3532 1.5586-3.6556l0.01321-0.8653-2.2313-0.84359c-2.2559-0.85308-5.742-2.4134-5.9184-2.6492-0.10645-0.14226-0.93701-0.53176-2.4171-1.1335-0.5384-0.21891-1.1424-0.50062-1.3423-0.62602-0.59452-0.37299-1.9898-0.94104-3.6233-1.4751-1.3633-0.44575-2.1044-0.64438-4.2187-1.1308-1.7086-0.39304-1.6244-0.34446-1.3811-0.79686 0.29857-0.55521 1.6951-0.55002 4.1616 0.01549 2.8319 0.64931 6.8069 2.0596 7.5744 2.6872 0.10546 0.0863 0.66635 0.33367 1.2464 0.54981 0.58006 0.21614 1.141 0.46299 1.2464 0.54855 0.17995 0.146 2.0417 0.86874 4.2187 1.6377 1.1414 0.40319 2.9623 0.79938 4.0269 0.8762 0.75483 0.05452 0.76796 0.07024 0.82546 0.98906 0.03843 0.61404-0.10929 1.4206-0.43145 2.3558-0.77106 2.2383-0.6896 2.4392 0.75013 1.8502 0.82703-0.33837 2.9669-1.0671 4.2251-1.4389 0.74647-0.22057 6.3763-1.1878 8.5722-1.4727 1.1804-0.15316 1.1606-0.12784 1.4777-1.894 0.09894-0.55119 0.52843-2.6557 0.95442-4.6767 0.42599-2.021 0.86402-4.1019 0.9734-4.6242 0.37885-1.8092 0.31834-1.9783-0.76078-2.1267-1.418-0.19505-4.4778-1.5426-8.0529-3.5466-1.7402-0.97544-3.2071-1.8385-3.2599-1.9179-0.05273-0.07942-0.52733-0.39231-1.0547-0.69534-0.52733-0.30302-1.3678-0.87926-1.8677-1.2805-0.49989-0.40126-0.94739-0.72957-0.99445-0.72957-0.04707 0-0.803-0.5601-1.6798-1.2447-0.87685-0.68456-1.9978-1.4842-2.4909-1.777-0.49317-0.29279-0.95201-0.73484-1.0196-0.98234-0.06763-0.2475-0.26817-0.45152-0.44563-0.4534-0.26361-0.0022-0.27316-0.03982-0.05218-0.20227 0.14876-0.10937 0.40764-0.11654 0.57527-0.01596 0.16764 0.10054 0.82199 0.46147 1.4541 0.80193 1.1447 0.61654 2.2051 1.3168 4.0281 2.66 1.5426 1.1366 3.4635 2.2619 6.2321 3.6506 5.2311 2.624 6.4507 3.1118 8.2079 3.2829 1.2401 0.12077 1.4644 0.08149 1.9585-0.34269 0.52145-0.44772 0.56922-0.45353 0.73022-0.08871 0.54592 1.237 0.44664 2.0788-1.3988 11.859-0.26578 1.4086-0.48368 2.8749-0.48422 3.2584l-9.73e-4 0.69738 4.4584-0.02926c5.4551-0.03581 6.0173 0.16441 5.6203 2.0015-0.10673 0.4939-0.18888 0.53443-0.83195 0.41044-0.39244-0.07563-0.84295-0.19012-1.0012-0.25434-0.40742-0.16538-6.3965-0.12908-7.711 0.04671-0.77905 0.10421-1.1229 0.25303-1.1907 0.51534-0.22162 0.85747-0.68617 4.7935-0.68617 5.8136 0 0.92064-0.08849 1.2022-0.52589 1.6732-0.28924 0.31148-0.61116 0.53331-0.71538 0.49296-0.41829-0.16193-0.5442-1.8132-0.29993-3.9333 0.13426-1.1653 0.28558-2.5976 0.33626-3.1829l0.09215-1.0641-2.272 0.13979c-1.2496 0.07689-2.7466 0.16904-3.3267 0.2048-1.5418 0.09502-2.8262 0.30882-4.0271 0.67025-0.58365 0.17564-1.2419 0.26446-1.4628 0.19738-0.25477-0.07735-0.44193-2.2e-5 -0.51184 0.21155-0.07188 0.21756-0.61452 0.42802-1.5605 0.60524-0.79766 0.14944-1.4503 0.35818-1.4503 0.46386 0 0.1057-0.15101 0.19529-0.33558 0.19915-0.42337 0.0092-0.88055 0.73791-1.1826 1.886-0.1289 0.48993-0.31436 1.0912-0.41214 1.3362-0.16457 0.4123-1.3379 5.5284-1.7366 7.5718-0.31229 1.6007-0.75258 2.5154-1.2856 2.6708-0.52057 0.15174-1.0344-0.33762-0.89793-0.85516 0.53139-2.0151 0.85706-3.369 1.0527-4.3767 0.13082-0.67367 0.47919-2.1268 0.77413-3.2291 0.29496-1.1024 0.58957-2.2821 0.6547-2.6216 0.18402-0.95934-0.34214-1.0212-1.7051-0.20055-0.64534 0.38857-1.2778 0.70651-1.4054 0.70651-0.12767 0-0.23212 0.10019-0.23212 0.2227 0 0.12248-0.16202 0.2227-0.36004 0.2227s-0.46746 0.15032-0.59875 0.33406c-0.13129 0.18372-0.35758 0.33404-0.50287 0.33404s-0.26416 0.15032-0.26416 0.33406c0 0.19527-0.17924 0.33781-0.43145 0.3431-0.2373 0.0046-0.73022 0.30562-1.0954 0.6681-0.36515 0.36248-0.75936 0.65905-0.87602 0.65905s-0.55137 0.35067-0.96603 0.77927c-0.41466 0.4286-0.83009 0.77935-0.92319 0.77944-0.0931 8.2e-5 -0.30882 0.18628-0.47939 0.41374-0.17057 0.22745-0.48907 0.47912-0.70778 0.55929-0.21871 0.08025-0.56387 0.32008-0.76703 0.53316-0.42346 0.44413-1.5045 1.4529-2.155 2.011-0.2438 0.20916-0.6261 0.60576-0.84955 0.88136-0.22345 0.27559-0.48868 0.50107-0.5894 0.50107-0.10072 0-0.38718 0.25571-0.63657 0.56822-0.43699 0.54762-0.4538 0.69912-0.46314 4.1756-0.0053 1.9841-0.0495 4.2588-0.09815 5.055-0.04866 0.79615-0.13744 2.2618-0.1973 3.2571-0.10061 1.6728-0.14622 1.8294-0.60355 2.0714-0.91059 0.48184-0.90882 0.51329-0.49599-8.8301 0.10806-2.4456 0.08681-2.7371-0.20924-2.869-0.40079-0.17862-1.2624 0.31923-1.2624 0.72941 0 0.16302-0.0815 0.29642-0.18111 0.29642-0.20396 0-2.6928 2.8344-2.6997 3.0745-0.0025 0.0851-0.31598 0.5555-0.69673 1.0454-0.38076 0.48994-0.8311 1.1413-1.0008 1.4476-0.16967 0.30621-0.37491 0.65696-0.4561 0.77945-0.08119 0.12249-0.39827 0.60178-0.70463 1.0651-0.48201 0.72897-1.5287 3.0632-2.568 5.7272-1.4643 3.7532-2.0451 8.4136-1.3738 11.024 0.28529 1.1092 0.84953 2.572 1.0738 2.7838 0.064847 0.0613 0.3892 0.67221 0.72079 1.3577 0.51938 1.0737 1.087 1.8267 2.6782 3.553 0.68891 0.74738 2.9916 2.2157 3.4748 2.2157 0.17542 0 0.65874 0.19027 1.074 0.42285 0.41531 0.23255 1.4023 0.63922 2.1933 0.90369 0.791 0.26446 1.8819 0.63128 2.4242 0.81516 2.3838 0.80826 6.8813 1.1898 9.8201 0.83303 1.0538-0.12792 1.1787-0.19559 1.1787-0.63878 0-0.41393-0.13296-0.51642-0.80591-0.62123-0.44325-0.0691-1.5216-0.0311-2.3964 0.0843-2.2657 0.29899-3.0172-0.30831-2.0465-1.6539 0.38315-0.53114 0.7217-0.7378 1.3914-0.84944 1.317-0.2195 4.2959-0.21443 4.9313 8e-3 1.2069 0.4232 2.5793 0.72719 4.0722 0.90198 0.85996 0.10067 1.6718 0.28695 1.8041 0.41394 0.38302 0.36759 1.6164 0.56811 1.7659 0.28709 0.0721-0.13548 0.21947-0.18289 0.3275-0.10536 0.10803 0.0776 0.9434-0.12819 1.8564-0.45719 0.91298-0.32899 2.1346-0.76189 2.7146-0.96201 0.58006-0.2001 1.1841-0.43481 1.3423-0.52157 0.1582-0.0868 0.71909-0.33176 1.2464-0.54445s1.6275-0.77387 2.4449-1.2471c1.6148-0.93489 1.8782-1.4529 0.95879-1.8858-0.29004-0.13655-0.95879-0.45253-1.4861-0.70218-0.52733-0.24964-1.8601-0.71749-2.9618-1.0397-1.851-0.54133-3.2703-1.2622-3.2703-1.6611 0-0.0911 0.21573-0.40107 0.47939-0.68876 0.26367-0.28767 0.47939-0.76682 0.47939-1.0648 0-0.42971 0.0694-0.50798 0.33557-0.37846 0.18456 0.0898 0.76703 0.25151 1.2944 0.35932 1.1402 0.23308 3.1812 0.87761 3.4516 1.09 0.37836 0.2971 3.2787 1.2904 4.2027 1.4393 0.51857 0.0835 1.1435 0.30469 1.3888 0.49135 0.27598 0.21001 0.63236 0.28506 0.93487 0.19688 0.49707-0.14489 4.2025-3.3148 5.4467-4.6596 2.173-2.3486 5.1892-7.2155 5.1892-8.3733 0-0.56301-0.91334-0.68468-5.3692-0.71535-1.9511-0.0134-3.6985-0.068-3.8831-0.12141-0.48047-0.13896-0.41392-0.6243 0.14382-1.0487 0.26367-0.20064 0.47939-0.56292 0.47939-0.80505 0-0.24215 0.03137-0.44028 0.0697-0.44028s0.53451-0.10627 1.1026-0.23626c0.56809-0.12995 2.7742-0.22832 4.9025-0.21861 2.3168 0.0103 3.9158-0.0692 3.9848-0.19889 0.26782-0.50326 0.53566-5.1433 0.40255-6.9737-0.16247-2.2341-0.10305-2.1888-1.9748-1.5073-2.0647 0.75171-3.5962 0.9822-4.2598 0.64107-0.71223-0.36615-0.91818-0.89402-0.46572-1.1937 0.18491-0.12249 0.52423-0.44818 0.75406-0.72378 0.23942-0.28709 0.64943-0.50108 0.96011-0.50108 0.74585 0 4.1722-0.70064 4.3613-0.89182 0.08447-0.0854 0.02467-1.0972-0.13291-2.2485-0.15757-1.1512-0.38306-3.3459-0.50107-4.8769-0.24512-3.1799-0.51643-4.6649-0.88205-4.8278-0.14358-0.06392-0.68971 0.43543-1.2562 1.1488-1.0014 1.2609-3.5786 3.8494-4.2639 4.2824-0.9311 0.58835-1.6405-0.53218-0.81457-1.2867 0.26596-0.24294 0.53783-0.64032 0.60415-0.883 0.06633-0.24267 0.52221-0.79738 1.0131-1.2327 1.7183-1.5237 4.2976-4.6206 6.5044-7.8093 0.49715-0.71837 1.5552-2.158 2.3513-3.1991 0.79605-1.0411 1.7602-2.3439 2.1425-2.8951 0.38234-0.55119 1.0754-1.4531 1.54-2.0043 0.46468-0.55118 1.4851-1.9041 2.2676-3.0064 0.78249-1.1024 1.879-2.5525 2.4367-3.2226 0.99425-1.1946 1.2513-1.7882 0.77429-1.7881-0.13183 2.2e-5 -1.3183 0.2089-2.6367 0.46417-3.1485 0.60964-4.5028 0.62898-5.4616 0.07793-0.89531-0.51453-0.98824-0.75629-0.52775-1.3729 0.30662-0.4106 0.45384-0.44243 1.2484-0.27004 0.97616 0.21179 1.7104 0.1678 6.3686-0.3816l3.0659-0.36159 0.71628-0.9153 0.71628-0.91529-0.11471 0.72317-0.1147 0.72316 3.8499-0.01905c2.1175-0.01033 3.9187 0.0295 4.0028 0.08883 0.0841 0.05934 1.7202 0.17463 3.6357 0.25629 3.9201 0.1671 3.5614 0.32384 3.8011-1.661 0.60518-5.0112 1.7029-8.6059 3.6221-11.862 0.48789-0.82764 0.88708-1.6451 0.88708-1.8166 0-0.17146-0.62561-0.71075-1.3902-1.1984-1.6009-1.021-1.8948-1.35-2.4302-2.7208-0.69736-1.7855-0.46768-4.4211 0.67891-7.7905 0.87456-2.57 3.8799-9.8271 4.6574-11.246 0.26839-0.48993 0.62747-1.2416 0.79794-1.6702 0.17048-0.42869 0.45307-0.91699 0.62798-1.0851 0.17491-0.1681 0.31802-0.40278 0.31802-0.52152 0-0.11874 0.17716-0.48228 0.39367-0.80785 0.21651-0.3256 0.83531-1.3937 1.3751-2.3736 0.53979-0.97988 1.0319-1.8317 1.0935-1.893 0.21807-0.21662 1.1646-1.7539 1.1646-1.8914 0-0.25833 1.31-2.1349 1.8079-2.5897 0.66137-0.60416 0.62116-0.34566-0.13864 0.89136-0.64485 1.0499-1.1966 2.1349-2.3916 4.7033-0.37044 0.79615-0.87718 1.7666-1.1261 2.1565-0.2489 0.38991-0.45256 0.75291-0.45256 0.80667 0 0.0925-1.9038 3.8968-2.3064 4.6087-0.1039 0.18373-0.24246 0.48437-0.30789 0.6681-0.11828 0.33208-0.43776 1.1518-1.5999 4.1051-1.8047 4.5862-2.6817 8.0075-2.7439 10.704-0.0356 1.5412 0.0239 1.9168 0.44081 2.7838 0.53492 1.1124 2.0646 2.4497 2.8022 2.4497 0.29014 0 0.80537-0.39095 1.3941-1.0578 2.0436-2.3148 3.4962-3.6474 6.3897-5.862 0.70856-0.5423 1.291-1.0577 1.2944-1.1453 3e-3 -0.08757-0.25582-0.6388-0.57591-1.2249-1.7362-3.1789-1.477-6.138 0.89675-10.237 1.3227-2.284 2.051-3.4286 3.0315-4.7646 0.32161-0.43818 0.92992-1.2855 1.3518-1.8829 0.42187-0.5974 1.3408-1.7922 2.042-2.6552 0.70123-0.86292 1.5954-1.9698 1.9871-2.4598 2.7286-3.4133 4.7845-5.6661 5.288-5.7945 0.70435-0.17966 0.71391 0.11316 0.031 0.95172-0.29002 0.35621-1.304 1.6332-2.2532 2.8377s-2.1911 2.7498-2.7599 3.4338c-0.56874 0.68402-1.7484 2.346-2.6214 3.6934-0.87305 1.3473-1.9329 2.9508-2.3552 3.5632-1.2262 1.7783-2.8535 5.018-3.1804 6.3317-0.56856 2.2854-0.20385 5.2366 0.80845 6.5418 0.42508 0.54811 1.0866 0.3124 4.3255-1.5412 0.5107-0.29228 1.0043-0.5314 1.0969-0.5314s0.66711-0.2594 1.2767-0.57642c4.2916-2.232 4.9552-2.5414 5.4523-2.5414 0.20136 0 0.41352-0.17538 0.47145-0.38973 0.0579-0.21434 0.26284-0.79058 0.45534-1.2805 0.1925-0.48994 0.75821-1.9431 1.2571-3.2292 1.7773-4.5814 5.1854-10.746 7.7836-14.079 0.35509-0.45552 1.1634-1.5764 1.7962-2.4909 0.6328-0.91445 1.2584-1.6692 1.3902-1.6772 0.13184-0.0081 0.23969-0.19282 0.23969-0.41076s0.18749-0.54364 0.41664-0.72378c0.22914-0.18015 0.69655-0.65324 1.0387-1.0513 0.34213-0.39808 0.67543-0.72379 0.74067-0.72379 0.20788 0-0.32216 0.97589-0.88517 1.6297-0.29908 0.34735-0.54377 0.77414-0.54377 0.94844 0 0.17431-0.12944 0.31692-0.28764 0.31692s-0.28763 0.18068-0.28763 0.40153c0 0.22084-0.2772 0.84718-0.61599 1.3919s-1.0938 1.7539-1.6779 2.6871c-1.2384 1.9788-1.1782 1.8762-2.7909 4.7615-1.854 3.3171-5.2222 11.381-5.0153 12.007 0.095 0.28738 0.28113 0.2742 1.4134-0.10008 3.7692-1.2459 9.1016-2.5253 12.109-2.9053 2.8532-0.36048 6.5696-0.10501 8.6582 0.59514 5.884 1.9725 8.5075 3.7448 11.472 7.75 0.91491 1.2361 1.822 2.4486 2.0158 2.6946 0.57542 0.73016 2.5431 3.9541 2.8784 4.716 0.98017 2.2276 1.1802 3.2391 1.1597 5.864-0.0324 4.1461-1.2196 7.96-3.6739 11.803-1.1548 1.8082-5.7122 7.2836-6.5373 7.8541-0.27894 0.19286-0.80917 0.6671-1.1783 1.0539-0.36913 0.38676-0.90845 0.86724-1.1985 1.0677-0.57302 0.39609-0.66371 0.7506-0.28532 1.1153 0.71369 0.68788 5.1498 2.1038 8.1953 2.6158 1.1074 0.18616 2.4018 0.42392 2.8764 0.52834 0.4746 0.10444 1.2944 0.26776 1.8217 0.36299 0.52734 0.09526 1.1798 0.36196 1.4498 0.59274 0.44862 0.38333 2.5604 1.0343 3.3853 1.0435 0.54718 0.0057 2.3761 0.44117 3.3145 0.78843 0.80769 0.29889 0.67273 0.31244-2.1093 0.21186-1.6347-0.05911-4.3098-0.29252-5.9445-0.51872-1.6347-0.2262-3.3797-0.42646-3.8776-0.44502-0.8657-0.03225-2.1471-0.29882-4.6556-0.96844-1.5014-0.40077-4.5414-1.6256-5.7429-2.3138-1.0721-0.61411-1.5349-0.56585-2.6424 0.27551-0.39325 0.29875-0.76169 0.54319-0.81878 0.54319-0.0571 0-0.46882 0.27225-0.91496 0.605-1.14 0.85027-2.0718 1.4479-4.1669 2.6727-1.0019 0.58573-1.8648 1.1256-1.9176 1.1997-0.0528 0.07414-0.44105 0.26254-0.86291 0.41875-0.42186 0.15619-0.87151 0.38016-0.99921 0.49769-0.12771 0.11753-0.86117 0.4975-1.6299 0.84436-1.8731 0.84515-1.8953 1.1859-0.11567 1.7816 0.77138 0.25822 1.5524 0.5637 1.7355 0.67884s0.49982 0.20936 0.70375 0.20936c0.47107 0 4.9885 1.4798 5.4325 1.7795 0.18312 0.12364 0.59302 0.2248 0.91084 0.2248 0.31783 0 0.57788 0.10456 0.57788 0.23246 0 0.12786 0.10786 0.20842 0.23969 0.17904 0.31461-0.07012 1.169 0.26371 1.3062 0.51035 0.0961 0.17281 1.2879 0.50915 5.8367 1.6472 1.634 0.4088 4.1373 1.3324 5.1774 1.9103l0.76704 0.42613-0.67115-0.08964c-1.4038-0.18735-5.1509-0.82286-6.8074-1.1545-4.4556-0.89215-12.07-3.0584-17.929-5.1006-0.4746-0.16543-1.6827-0.51992-2.6846-0.78777-1.0019-0.26785-2.1004-0.58497-2.4412-0.70472-0.34071-0.11975-0.69436-0.16397-0.7859-0.09824-0.0915 0.06565-1.1071 0.17326-2.2569 0.239-3.1443 0.17982-4.9326 0.44464-5.0182 0.74311-0.0512 0.17848-0.3224 0.21994-0.82636 0.12636-0.42412-0.07873-0.85472-0.03891-0.99083 0.09171-0.1324 0.12707-0.55488 0.29921-0.93881 0.38252-0.73657 0.15984-0.85027 0.31702-2.797 3.8667-1.3799 2.5161-2.4607 5.5475-2.1193 5.944 0.1708 0.19835 2.5689 0.4918 5.1963 0.63586 1.2466 0.06841 2.3649 0.19487 2.485 0.28112 0.12018 0.08627 0.85545 0.13324 1.6339 0.10432 0.86068-0.03186 1.5209 0.04921 1.6846 0.20696 0.14803 0.14269 0.48743 0.21097 0.75423 0.15173 0.26678-0.05922 0.53557-0.01286 0.59729 0.10318 0.0618 0.11598 0.31325 0.15227 0.55895 0.08066 0.24569-0.07157 0.50025-0.02961 0.56567 0.09332 0.0654 0.12294 0.3943 0.22569 0.73083 0.22834 0.67837 0.0061 2.9614 0.59294 5.5976 1.4407 1.6237 0.52214 4.711 1.4001 5.561 1.5815 1.3759 0.29356 3.9274 0.98978 4.4104 1.2034 1.5312 0.6774 2.7805 1.4607 2.7805 1.7434 0 0.21975-0.12921 0.27031-0.43146 0.16886-0.2373-0.0796-0.8629-0.23587-1.3902-0.34715-0.52733-0.11133-1.3902-0.34546-1.9176-0.52038-0.52733-0.17494-1.6923-0.49535-2.5887-0.71206-0.89646-0.2167-2.6223-0.66935-3.8352-1.0059-2.507-0.6956-6.373-1.6003-8.9167-2.0867-1.0531-0.20137-3.8187-0.3826-7.095-0.46496-3.0933-0.0777-5.6943-0.24333-6.1362-0.39061-1.3525-0.45078-2.5887-1.5144-2.5887-2.2273 0-0.54254 1.2529-3.6969 1.7017-4.2845 0.18913-0.24756 0.5944-0.95118 0.90062-1.5636 0.30621-0.61243 0.64414-1.2753 0.75094-1.473 0.54937-1.017 1.0571-2.22 1.0571-2.5046 0-0.23678-0.23864-0.31619-0.91084-0.30309-0.50097 0.0092-1.558-0.04936-2.349-0.13139-0.791-0.08206-3.0346-0.20316-4.9857-0.26918-4.7642-0.16123-6.0753-0.3756-6.9033-1.1287-0.1582-0.14388-0.48179-0.33033-0.71909-0.41431-0.51699-0.18298-0.58143-0.96599-0.0959-1.165 0.18456-0.07563 0.51427-0.32365 0.73268-0.5511 0.39191-0.40814 0.402-0.40273 0.77251 0.41438 0.21848 0.48184 0.57351 0.89204 0.84931 0.98129 0.26067 0.08435 1.8546 0.1649 3.542 0.179 1.6875 0.01412 4.3549 0.1273 5.9276 0.25154 4.3895 0.34675 5.2075 0.34683 5.5668 7.46e-4 0.42507-0.4096 1.8327-3.2248 1.8327-3.6653 0-0.19134 0.30203-0.49444 0.67116-0.67356 0.36913-0.17912 0.67115-0.43815 0.67115-0.57564 0-0.14197 0.13074-0.09813 0.30259 0.10146 0.41075 0.47703 0.21874 1.4546-0.60744 3.0925-0.35966 0.71307-0.65394 1.3784-0.65394 1.4784 0 0.2406 1.2695 0.51071 1.6862 0.35876 0.17996-0.06565 1.657-0.26641 3.2822-0.44623 3.0935-0.34226 3.2687-0.42081 3.2742-1.4677 5e-3 -1.0155 1.4071-3.39 3.4763-5.8886 1.1194-1.3517 2.2411-2.7281 2.4928-3.0587 0.43986-0.57779 1.6871-0.94035 1.9969-0.58052 0.22123 0.25692-0.33228 1.159-1.8182 2.9632-3.0396 3.6907-4.2038 5.5168-3.9694 6.226 0.13877 0.42 1.6297 0.78328 2.7102 0.6604 1.1006-0.12517 4.063-1.0116 5.1816-1.5505 1.3173-0.63463 4.4004-2.3549 4.5037-2.5128 0.0541-0.08286 0.40049-0.33993 0.76962-0.57127 0.36914-0.23133 1.1026-0.74183 1.6299-1.1344 0.52734-0.39259 1.5838-1.1053 2.3477-1.5837 0.79914-0.50048 1.3845-1.0117 1.3785-1.2039-6e-3 -0.18372-0.36707-0.63473-0.80298-1.0022-0.43589-0.3675-0.95968-1.0005-1.1639-1.4067l-0.37139-0.73855 0.88031-1.4884c0.48417-0.81861 1.0779-1.7389 1.3195-2.0451 0.44793-0.56787 2.0337-3.2867 2.4228-4.1539 0.16851-0.37559 0.43364-0.49954 1.225-0.57276 1.2085-0.11178 1.4215 0.04465 1.0774 0.79148-0.25475 0.55299-2.603 4.1627-2.8498 4.3806-0.0694 0.06129-0.44247 0.66119-0.82915 1.3332-0.95772 1.6644-0.92809 2.1867 0.16766 2.9554 0.47889 0.33595 0.92096 0.61081 0.98237 0.61081 0.12613 0 2.3908-1.8541 2.7876-2.2823 0.14208-0.1533 0.70777-0.70912 1.2571-1.2352 1.5918-1.5244 3.7054-4.161 5.6601-7.0608 1.6803-2.4926 2.7918-6.6117 3.1368-11.624 0.24441-3.5513-0.66399-5.576-5.4202-12.08-2.1944-3.0011-3.754-4.2519-7.0482-5.6528-3.9474-1.6787-5.5239-2.0472-8.6502-2.0222-1.8243 0.01458-3.3605 0.16806-4.7939 0.47881-2.486 0.53897-8.9396 2.2358-9.0673 2.3841-0.29316 0.34046 0.32424 0.77255 1.9027 1.3316 4.3414 1.5376 5.4975 1.8348 8.5877 2.2074 2.2139 0.26696 2.7274 0.54302 1.9309 1.0381-0.54414 0.3382-2.071 0.34841-3.8334 0.0256-1.9159-0.35088-3.1376-0.72682-7.9579-2.4488-1.0547-0.37675-2.1998-0.75047-2.5448-0.83048-0.34495-0.07999-0.67363-0.23275-0.7304-0.33942-0.14289-0.26852-0.8476-0.24461-0.8476 0.02881 0 0.12249-0.0972 0.2227-0.21592 0.2227-0.23508 0-3.0811 1.2929-4.7698 2.1668-1.7626 0.91218-3.4504 1.7533-5.5025 2.7421-1.0753 0.51811-2.001 1.0813-2.0573 1.2515-0.12094 0.36602 1.2051 1.3994 3.556 2.7711 0.88379 0.5157 2.222 1.3696 2.9737 1.8976 0.75177 0.52797 1.7684 1.0645 2.2592 1.1922 0.49081 0.12774 1.054 0.34946 1.2515 0.49271 0.32811 0.23797 0.33405 0.3049 0.0688 0.77504-0.33031 0.58547-0.45318 0.5725-2.7266-0.28801-0.78297-0.29637-1.9479-0.91704-2.5887-1.3793-0.64083-0.46224-1.9849-1.2738-2.9868-1.8034-1.0019-0.52966-2.3323-1.3194-2.9564-1.7549l-1.1347-0.7919-1.1664 0.70416c-1.3418 0.8101-3.7463 2.7682-5.3837 4.3842-2.8208 2.7839-2.8549 2.9898-0.62451 3.7635 4.7921 1.6623 5.6516 1.9153 6.5065 1.9153 1.0588 0 1.4547 0.49768 0.82276 1.0343-0.65481 0.55608-2.2534 0.35448-5.5555-0.70059-0.63279-0.20219-1.5774-0.46834-2.0991-0.59145-0.52171-0.12309-1.1234-0.36601-1.337-0.53981-0.72839-0.5925-1.5237-0.40048-2.1502 0.51912-1.3886 2.0384-2.3406 4.2896-2.9427 6.9594-0.51821 2.2974-0.73007 7.7868-0.38329 9.931 0.23898 1.4777 2.5955 7.1475 3.135 7.5426 0.21909 0.16049 0.42576 0.14455 0.69949-0.05394 0.32382-0.23486 0.40719-0.22531 0.50057 0.05727 0.0617 0.1865 0.19445 0.33909 0.29516 0.33909 0.10072 0 1.2114-1.2026 2.4683-2.6724 1.4177-1.658 2.4323-2.6724 2.6727-2.6724 0.21317 0 0.38759 0.05681 0.38759 0.12621 0 0.2333-1.0459 1.7523-2.1353 3.1011-1.6787 2.0784-5.5922 7.8393-6.809 10.023-0.62106 1.1147-1.7622 2.3384-2.1806 2.3384-0.44852 0-5.5497 6.2844-5.5552 6.8438-2e-3 0.15077-0.21844 0.33702-0.4821 0.41387-0.26367 0.07688-0.47938 0.23393-0.47938 0.34906 0 0.35742-2.6167 3.2866-3.144 3.5195-0.27574 0.12175-0.50126 0.39752-0.50356 0.61574-2e-3 0.22257-0.27004 0.54119-0.61274 0.7293-0.33472 0.18373-0.74274 0.65747-0.9067 1.0528-0.16396 0.3953-0.43412 0.721-0.60034 0.72377-0.16623 2e-3 -0.55454 0.36308-0.86291 0.80065-0.30836 0.43757-0.6901 0.97671-0.84831 1.1981-0.15819 0.22138-0.9322 1.3165-1.72 2.4336-0.7878 1.1171-1.5428 2.0311-1.6779 2.0311-0.51573 0-0.19989-0.78466 1.0633-2.6415 0.71983-1.0581 1.6322-2.4239 2.0275-3.0351 0.39529-0.61116 1.409-1.9422 2.2527-2.9578s1.4967-1.9687 1.4512-2.118c-0.04694-0.15382-0.36513-0.25282-0.73465-0.22857-0.67252 0.04421-4.3773 1.1519-7.7437 2.3154-1.0547 0.36451-2.2627 0.77714-2.6846 0.91691-0.42187 0.13979-0.84901 0.33695-0.9492 0.43814-0.1002 0.10118-0.36738 0.18397-0.59375 0.18397-0.22637 0-0.69384 0.16354-1.0388 0.36341-0.34498 0.19986-0.89755 0.4479-1.2279 0.55119-0.33039 0.1033-1.3342 0.48078-2.2306 0.83882l-1.6299 0.65101 0.06024 2.528c0.03312 1.3904-0.04411 3.6155-0.17166 4.9446-0.25787 2.6872-0.21966 2.807 0.89666 2.8135 0.7347 4e-3 1.0756 0.42912 1.7063 2.1266 0.2715 0.73074 0.57659 1.5291 0.67796 1.774 0.31318 0.75675 1.3024 4.6856 1.6387 6.5083 0.17572 0.9524 0.38679 2.0824 0.46902 2.5111 0.08223 0.42869 0.33437 1.7686 0.56029 2.9776 1.1772 6.2996 2.0224 10.234 2.8768 13.391 0.53099 1.9621 0.99686 4.5764 1.1035 6.1924 0.10784 1.6346 0.0893 1.795-0.17796 1.539-0.16409-0.15716-0.4059-0.60813-0.53735-1.0021-0.13144-0.39402-0.48589-1.3086-0.78766-2.0325-0.30177-0.72385-0.54867-1.4676-0.54867-1.6528s-0.20956-0.94583-0.46569-1.6904c-0.44992-1.3078-2.2273-9.4469-3.2621-14.938-1.6527-8.7703-2.6465-12.425-3.4464-12.674-0.88737-0.27671-1.9822-0.14162-2.098 0.25886-0.06197 0.21436-0.19429 0.54006-0.29404 0.72378-0.09975 0.18373-0.33186 0.73492-0.5158 1.2249-0.32798 0.8736-0.90004 1.9198-1.3754 2.5153-0.13183 0.16516-0.2397 0.4383-0.2397 0.60696s-0.21674 0.58741-0.48165 0.93056c-0.94175 1.2199-1.3477 1.7693-1.9496 2.6386-1.1362 1.6409-2.8785 3.5967-4.3952 4.9339-2.0772 1.8312-2.5876 2.3631-2.5057 2.611 0.52306 1.5831 0.18494 6.3894-0.83152 11.82-0.09171 0.48994-0.30298 2.1936-0.46948 3.7859-0.1665 1.5923-0.38692 3.6968-0.4898 4.6767-0.10288 0.97988-0.36227 3.4853-0.57642 5.5675-0.21414 2.0822-0.47155 4.287-0.57201 4.8994-0.75363 4.5945-1.2411 7.143-1.5868 8.2956-0.22886 0.76307-0.59988 0.94894-0.78369 0.39263zm20.203-71.816c0.99983-0.39092 3.2246-1.1063 4.7939-1.5414 0.89646-0.24859 2.3634-0.71822 3.2599-1.0436 1.9524-0.70864 9.6405-2.7674 10.34-2.769 0.58337-1e-3 1.1866-0.55685 2.4168-2.2259 2.4241-3.2887 2.8201-3.8102 4.4084-5.8063 0.52903-0.66483 1.4771-1.9103 2.1068-2.7677 0.62972-0.8574 1.565-2.1046 2.0785-2.7716 1.6938-2.2005 1.7329-1.5909-0.42346-6.6081-1.8046-4.1988-2.1592-5.3152-2.4315-7.6568l-0.11655-1.0022-2.0945-0.0404c-1.3881-0.02685-2.0945 0.04029-2.0945 0.19904 0 0.16195-0.48122 0.19554-1.4861 0.10375-1.592-0.14544-6.1287 0.1324-8.4853 0.51962-3.0701 0.50448-2.9532 0.45055-3.8561 1.7791-0.45783 0.67367-0.8408 1.4253-0.85103 1.6703-0.02719 0.65067-0.37059 1.2984-1.2868 2.4271-1.4399 1.7738-1.7728 2.2216-2.831 3.8085-0.57176 0.8574-1.5598 2.2708-2.1956 3.1408-0.63582 0.87008-1.3286 1.8637-1.5396 2.2081-0.21094 0.34437-0.46981 0.7354-0.57528 0.86894-0.27044 0.34243-2.8807 4.411-3.0547 4.7613-0.07911 0.15926-0.01377 0.61023 0.14522 1.0022 0.35259 0.86923 0.82508 3.5419 0.97245 5.5006 0.0599 0.79616 0.23822 2.4998 0.39625 3.7859 0.15804 1.2861 0.28893 2.4724 0.29086 2.6363 0.0037 0.31217 1.0933 0.22012 2.1128-0.1785z">
<animate attributeName="display" begin="0s" dur="0.5s" keyTimes="0;0.5;1" repeatCount="indefinite" values="inline;none;none"/>
</path>
</svg>
