<svg xmlns="http://www.w3.org/2000/svg" width="180" height="165" viewBox="0 0 180 165" fill="none">
<path fill-rule="evenodd" clip-rule="evenodd" d="M179.685 77.04C179.611 76.1751 179.525 75.3138 179.427 74.4562C177.574 73.3074 175.315 71.9912 173.928 71.3035C171.265 69.9826 168.676 68.5552 167.322 67.6671C166.526 67.1452 166.236 66.8083 166.202 66.6361C166.185 66.55 166.192 66.4431 166.29 66.2391C166.387 66.0351 166.576 65.7565 166.851 65.4075C169.47 62.0854 171.047 59.5542 172.197 56.8036C172.752 55.4755 173.358 53.7576 173.825 52.2198C173.201 50.6529 172.532 49.1078 171.821 47.5859C171.643 48.4 171.442 49.2361 171.214 50.0982C170.642 52.2548 169.634 54.8453 168.462 57.1654C167.831 58.4134 166.528 60.3397 165.312 61.9217C164.705 62.7127 164.117 63.4219 163.651 63.9206C163.418 64.17 163.214 64.3672 163.068 64.4875C163.029 64.5192 163.001 64.5308 162.973 64.5428C162.966 64.5453 162.96 64.5479 162.954 64.5507C162.882 64.5167 162.794 64.4724 162.684 64.4105C162.43 64.2674 162.105 64.0635 161.786 63.8397C161.091 63.3528 160.067 62.7353 159.423 62.4195C158.756 62.0927 158.432 61.8919 158.379 61.8427C158.379 61.8405 158.379 61.838 158.379 61.8352C158.381 61.8145 158.385 61.7734 158.41 61.6748C158.405 61.6951 158.414 61.6831 158.441 61.6479C158.491 61.5824 158.602 61.4364 158.796 61.2699C159.093 61.0143 159.557 60.6779 160.19 60.2606C160.996 59.7291 161.63 59.2537 162.055 58.8641C162.268 58.6692 162.428 58.5049 162.548 58.3091C162.608 58.2111 162.67 58.1051 162.68 57.9278C162.69 57.7505 162.567 57.4855 162.399 57.3787C162.314 57.3253 162.282 57.3107 162.234 57.2894C162.214 57.2802 162.19 57.2697 162.159 57.2543C162.055 57.2032 161.921 57.1394 161.783 57.0746C161.557 56.968 161.141 56.7235 160.961 56.5926C160.855 56.5163 160.752 56.4419 160.601 56.3832C160.451 56.3246 160.246 56.3037 160.076 56.3417C159.78 56.4079 159.583 56.5508 159.292 56.7622C159.249 56.7937 159.204 56.8267 159.155 56.8612C158.743 57.1568 158.109 57.5509 157.839 57.6888C157.242 57.9942 156.636 58.4483 156.126 58.9273C155.616 59.4063 155.201 59.8735 155.017 60.387L154.995 60.4482L154.991 60.5154C154.898 61.6534 155.285 62.6077 155.944 63.3419C156.603 64.076 157.506 64.6158 158.496 65.0959C159.449 65.6928 160.419 66.2852 160.785 66.4725C160.865 66.5136 160.947 66.5819 161.001 66.6404C160.942 66.7233 160.856 66.8339 160.739 66.9663C160.485 67.2536 160.12 67.6182 159.722 67.9737C158.9 68.7092 158.123 69.4015 157.997 69.5143C156.424 70.9183 151.661 73.96 149.414 74.9797C148.653 75.3246 147.498 75.8503 146.845 76.1489C145.379 76.8201 144.58 77.1675 144.082 77.3024C143.583 77.4373 143.395 77.4036 142.865 77.2807C142.599 77.2189 142.314 77.1418 142.077 77.0694C141.851 77.0007 141.659 76.9261 141.62 76.9089C141.622 76.9012 141.627 76.875 141.641 76.8007C141.711 76.4449 141.982 75.6421 142.514 74.1461C143.458 71.4893 144.046 69.668 144.335 68.4299C144.48 67.8108 144.554 67.3395 144.545 66.9465C144.536 66.5536 144.427 66.1543 144.076 65.9392C143.932 65.8516 143.712 65.774 143.464 65.8799C143.447 65.8875 143.442 65.9031 143.437 65.9191C143.432 65.9332 143.428 65.9476 143.415 65.9569C143.171 65.999 142.932 65.9666 142.602 65.922L142.598 65.9214C142.236 65.8725 141.694 65.882 141.284 66.2631L141.124 66.4132V66.6325C141.124 66.597 141.108 66.7521 141.068 66.9347C141.028 67.1173 140.968 67.3586 140.894 67.6359C140.747 68.1905 140.544 68.8917 140.327 69.5992C140.111 70.3068 139.881 71.0213 139.68 71.606C139.479 72.1908 139.289 72.6731 139.223 72.7991C138.96 73.2992 138.639 74.2052 138.44 74.9599C138.152 76.0523 138.454 77.5281 138.961 78.9024L138.985 78.9656L139.025 79.0228C139.092 79.1157 139.11 79.1331 139.122 79.144C139.128 79.1493 139.132 79.1531 139.139 79.1631C139.117 79.1754 139.111 79.1806 139.094 79.1893C139.085 79.1941 139.073 79.1999 139.053 79.2085C138.487 79.454 136.921 79.8524 133.815 80.6247C133.197 80.7783 132.583 80.9186 132.095 81.0198C131.851 81.0703 131.64 81.1108 131.478 81.1383C131.397 81.1521 131.349 81.1588 131.314 81.163C131.298 81.165 131.285 81.1665 131.272 81.1679L131.382 79.0288C131.429 78.1254 131.447 77.3989 131.434 76.8383C131.421 76.2778 131.402 75.9114 131.274 75.5821L131.215 75.4241L131.071 75.3352C130.789 75.1587 130.354 74.9188 129.918 74.7446C129.7 74.6575 129.486 74.5848 129.259 74.553C129.033 74.5212 128.719 74.5016 128.465 74.7802L128.405 74.8454L128.371 74.9244C128.127 75.4993 127.939 76.4386 127.779 77.502C127.62 78.5654 127.51 79.7161 127.51 80.605V81.7882L126.1 82.0588H126.098C123.686 82.5219 119.791 82.6446 116.005 82.357C114.376 82.2334 112.535 82.0282 111.08 81.8237C110.353 81.7215 109.722 81.6189 109.267 81.5294C109.131 81.5027 109.05 81.4819 108.949 81.4583L108.95 81.4552L108.951 81.4523C109.068 81.1806 109.256 80.8034 109.481 80.4054C110.558 78.4928 111.195 77.3047 111.571 76.3741C111.948 75.4434 112.055 74.7478 112.049 73.9702C112.047 73.8166 112.048 73.6747 112.048 73.5428C112.05 72.8594 112.051 72.443 111.807 72.0345C111.661 71.7908 111.364 71.6242 111.116 71.5842C110.878 71.5458 110.661 71.5631 110.403 71.5835L110.369 71.5862C109.824 71.6291 109.335 71.789 109.005 72.157C108.675 72.525 108.568 73.0182 108.568 73.5752C108.568 73.8223 108.554 73.9461 108.274 74.5509C107.995 75.1558 107.459 76.1691 106.481 77.9858C105.802 79.246 105.325 80.016 105.001 80.4568C104.887 80.3355 104.748 80.2059 104.536 80.2059C104.576 80.2059 104.599 80.2074 104.613 80.2092L104.61 80.208C104.575 80.1961 104.514 80.1746 104.44 80.1448C104.291 80.0852 104.079 79.9936 103.825 79.8821C103.316 79.659 102.639 79.3495 101.918 79.009C99.2027 77.727 99.0095 77.5774 96.3858 74.7663L96.3718 74.7505L96.3558 74.7347C96.1735 74.5704 96.0008 74.4169 95.838 74.2722C94.959 73.4908 94.3674 72.9649 94.0912 72.3685C93.7639 71.6616 93.7611 70.7132 94.3269 68.7775L94.3348 68.7538L94.5685 67.5312L96.2081 67.626C97.3659 67.6926 99.8179 67.8024 101.672 67.8729C103.494 67.9421 104.56 67.9608 105.259 67.8413C105.608 67.7815 105.913 67.6928 106.135 67.4225C106.358 67.1523 106.348 66.7908 106.281 66.5377C106.201 66.2324 105.942 65.9463 105.616 65.7871C105.291 65.6278 104.888 65.5327 104.318 65.4493C103.178 65.2825 101.357 65.1829 98.347 65.0701C97.4306 65.0358 96.5798 64.9884 95.9526 64.9397C95.6934 64.9196 95.5021 64.8979 95.3347 64.8789L95.3315 64.8785C95.3347 64.8628 95.3363 64.8518 95.3378 64.8411C95.3399 64.827 95.3418 64.8132 95.3475 64.7896C95.4232 64.4732 95.5683 64.0092 95.7648 63.4544C96.158 62.3447 96.7558 60.8623 97.4284 59.3143C98.7146 56.3543 100.255 53.2705 101.153 51.9132C101.372 52.0081 101.656 52.1372 101.974 52.2925C103.361 52.9697 104.904 53.5208 106.132 53.8312C106.745 53.9864 107.274 54.0841 107.703 54.0978C107.918 54.1047 108.107 54.0986 108.314 54.0247C108.418 53.9878 108.534 53.9306 108.636 53.8173C108.738 53.7041 108.804 53.5298 108.804 53.3788C108.804 53.4233 108.802 53.4469 108.801 53.4567C108.803 53.4458 108.808 53.4209 108.822 53.3986C108.853 53.3457 108.908 53.2734 108.957 53.2248C109.102 53.0813 109.231 52.9382 109.303 52.7152C109.375 52.4921 109.312 52.1698 109.157 51.9883C108.867 51.6485 108.515 51.567 108.009 51.45C107.975 51.442 107.939 51.4338 107.903 51.4254C107.415 51.3113 106.481 51.0138 105.918 50.7893C105.295 50.5413 104.443 50.1859 103.735 49.8827C103.381 49.7311 103.063 49.5927 102.828 49.4877C102.818 49.4828 102.813 49.4805 102.802 49.4758C102.809 49.4638 102.812 49.4557 102.816 49.448C102.82 49.4378 102.825 49.4281 102.834 49.4107C102.997 49.115 103.271 48.6855 103.613 48.1919C104.297 47.2048 105.254 45.9499 106.203 44.8381C107.85 42.909 110.144 40.552 112.083 38.715C113.052 37.7965 113.935 37.0056 114.597 36.4692C114.928 36.2009 115.207 35.9954 115.396 35.8766C115.408 35.8692 115.414 35.866 115.42 35.8626C115.425 35.8601 115.43 35.8575 115.438 35.8529C115.505 35.9212 115.573 35.9923 115.667 36.0939C115.917 36.364 116.244 36.7328 116.584 37.1309C117.278 37.9427 118.334 39.133 118.949 39.7954C119.531 40.4231 120.253 41.3475 120.468 41.7094C120.621 41.9669 120.795 42.1969 120.976 42.381C121.066 42.473 121.156 42.5537 121.261 42.6239L121.27 42.6301C121.373 42.6989 121.489 42.776 121.709 42.776C121.677 42.776 121.899 42.8623 121.894 42.857L121.902 42.8652C122.003 42.9652 122.106 43.0668 122.318 43.1256C122.535 43.186 122.871 43.064 123.001 42.9083C123.22 42.6454 123.254 42.4173 123.303 42.088C123.311 42.0274 123.321 41.9633 123.332 41.895C123.435 41.2689 123.407 40.6814 123.084 40.0956C122.762 39.5099 122.212 38.9252 121.287 38.0038C120.426 37.1457 119.544 36.1769 118.885 35.3906C118.555 34.9975 118.28 34.6483 118.096 34.3892C118.026 34.2907 117.984 34.2219 117.944 34.1562C118.031 34.0549 118.158 33.9231 118.3 33.7986L118.32 33.7809L118.337 33.7611C118.926 33.1205 119.744 32.665 120.623 32.1749C121.427 31.7274 122.282 31.2512 123.061 30.5791L123.071 30.5731C123.229 30.4765 123.386 30.3769 123.541 30.2785C124.05 29.9555 124.539 29.6448 125.012 29.4907C125.632 29.2887 126.192 29.2832 126.983 29.8561L127.011 29.8778L127.043 29.8936C127.298 30.0287 127.608 30.1145 128.035 30.2274C128.463 30.3404 128.983 30.4622 129.547 30.583C130.675 30.8246 131.973 31.0663 132.986 31.2427C133.619 31.3529 134.557 31.5303 135.055 31.6318C136.686 31.9641 139.219 32.1231 141.703 32.0644C142.311 32.05 142.788 31.9782 143.133 31.5884C143.305 31.3934 143.382 31.0521 143.289 30.7943C143.196 30.5365 143.014 30.3657 142.797 30.2176C142.601 30.0836 142.329 29.8811 142.252 29.8166C141.88 29.5053 141.424 29.4466 140.834 29.4097C140.245 29.3728 139.521 29.4046 138.682 29.5026C137.646 29.6235 136.643 29.6197 135.654 29.4887C134.472 29.3322 132.482 28.9274 130.809 28.5327C129.973 28.3354 129.213 28.1398 128.672 27.9817C128.609 27.9631 128.567 27.9487 128.524 27.9342C128.496 27.9248 128.468 27.9153 128.435 27.9046L128.445 27.8979C128.543 27.8318 128.678 27.7403 128.924 27.6103C129.245 27.4403 129.65 27.2431 130.08 27.0454C130.942 26.65 131.916 26.2526 132.519 26.0638L132.533 26.0578L132.549 26.0538C132.866 25.9323 133.18 25.7974 133.494 25.6628C134.192 25.3637 134.885 25.0663 135.594 24.9201L135.668 24.9043L135.734 24.8687C135.895 24.7825 136.364 24.5984 136.946 24.4065C137.528 24.2146 138.241 24.0015 138.971 23.7982C140.432 23.3915 141.997 23.0234 142.684 22.9409C143.094 22.8916 143.885 22.7615 144.493 22.6466C145.055 22.5405 146.306 22.3674 147.213 22.2733C148.421 22.1481 151.54 22.0507 153.757 22.0364C152.965 21.2549 152.158 20.488 151.337 19.7359C151.242 19.7362 151.154 19.7394 151.071 19.7467C151.054 19.7483 151.037 19.7493 151.02 19.7502C150.944 19.7546 150.871 19.7589 150.759 19.8116C150.734 19.8155 150.698 19.8205 150.654 19.8258C150.535 19.8402 150.359 19.857 150.149 19.8752C149.728 19.9116 149.16 19.9532 148.551 19.9878C145.492 20.1614 143.624 20.4078 140.932 20.9971C135.958 22.0859 131.657 23.5006 127.724 25.3445C127.467 25.4649 127.322 25.4862 127.204 25.5035L127.184 25.5064C127.207 25.1798 127.264 24.6966 127.362 24.2127C127.42 23.9286 127.482 23.6621 127.536 23.4759C127.556 23.4068 127.575 23.3478 127.59 23.3074C127.701 23.2156 127.743 23.1336 127.788 23.0446C127.799 23.0236 127.809 23.0022 127.822 22.9801C127.899 22.8387 127.967 22.6805 128.019 22.512C128.08 22.3176 128.374 21.5857 128.636 21.0089C128.904 20.4194 129.253 19.639 129.421 19.2549L129.425 19.247C130.976 15.877 132.869 11.6398 134.539 7.57955C134.026 7.29125 133.509 7.00779 132.989 6.72922C132.299 8.00631 131.504 9.27619 130.678 10.5955C128.918 13.4079 127.017 16.4448 125.696 20.2547C124.108 23.5031 123.425 25.3186 123.378 26.7353C123.044 27.6708 121.726 28.6739 120.145 29.552C119.549 29.8829 118.936 30.1979 118.34 30.5045C117.464 30.9544 116.624 31.3862 115.925 31.8234C115.844 31.7381 115.751 31.6326 115.637 31.4877C115.373 31.1515 115.041 30.6783 114.685 30.1287C113.972 29.0293 113.156 27.6207 112.514 26.3343C111.732 24.7682 110.793 22.6578 110.054 20.867C109.684 19.9717 109.364 19.1562 109.139 18.5304C109.027 18.2175 108.939 17.9518 108.881 17.7541C108.849 17.6439 108.829 17.5428 108.818 17.4853C108.815 17.4711 108.813 17.4595 108.811 17.4512C108.814 17.442 108.818 17.4271 108.822 17.4076C108.839 17.3416 108.868 17.2227 108.915 17.0944C108.999 16.8691 109.126 16.5706 109.283 16.2273C109.596 15.5406 110.032 14.673 110.503 13.7859C111.446 12.0117 112.573 10.1194 113.075 9.51156V9.50954C114.082 8.28081 114.977 7.02626 115.854 5.79619C117.078 4.07955 118.268 2.41059 119.682 0.926032C118.816 0.628415 117.943 0.343467 117.064 0.0714111C116.93 0.215478 116.784 0.373361 116.626 0.546682C115.911 1.33095 115.053 2.29603 114.228 3.24483C113.402 4.19363 112.61 5.12479 112.019 5.84225C111.724 6.20099 111.478 6.50502 111.302 6.73702C111.214 6.85302 111.144 6.95005 111.088 7.03527C111.06 7.07789 111.035 7.11603 111.011 7.16366C111.006 7.17308 111 7.1812 110.994 7.18986C110.976 7.21382 110.956 7.24188 110.945 7.31277C110.916 7.35749 110.869 7.42489 110.811 7.50338C110.681 7.67883 110.495 7.91371 110.291 8.1552C109.177 9.47585 107.484 12.1371 106.561 13.9978L106.523 14.0744C106.159 14.8037 105.94 15.2416 105.842 15.7201C105.749 16.1718 105.81 16.6251 105.902 17.2252C105.888 17.2534 105.871 17.2786 105.855 17.3034C105.822 17.3546 105.79 17.4038 105.78 17.4721C105.75 17.6856 105.784 17.8856 105.848 18.12C105.975 18.5887 106.245 19.2463 106.741 20.429C108.379 24.3383 108.426 24.4423 109.726 27.0735C111.027 29.7038 111.638 30.7225 112.964 32.4461C113.182 32.7304 113.384 33.0261 113.523 33.2599C113.583 33.3622 113.624 33.446 113.656 33.5127C113.623 33.5578 113.588 33.6045 113.527 33.6707C113.364 33.8478 113.122 34.0712 112.858 34.2771C109.187 37.1406 104.531 41.9469 101.103 46.4006C100.86 46.7169 100.601 47.007 100.394 47.2045C100.314 47.2812 100.255 47.3279 100.2 47.3704C100.127 47.3308 100.038 47.281 99.9208 47.2045C99.648 47.0261 99.2825 46.7607 98.8744 46.444C98.0582 45.8104 97.0658 44.9684 96.2143 44.1666C95.5968 43.5852 94.5344 42.6796 93.8098 42.1164C93.4645 41.8479 93.1109 41.5566 92.8233 41.3085C92.5356 41.0604 92.2969 40.8309 92.2581 40.7851C92.0856 40.5816 91.9484 39.7646 92.2122 38.4622C92.476 37.1599 93.0618 35.4059 93.9596 33.2951C94.9377 30.9955 95.8905 28.5552 96.6317 26.4925C97.3729 24.4297 97.901 22.7847 98.0436 21.908C98.0913 21.6149 98.1148 21.39 98.0936 21.1713C98.083 21.0619 98.0695 20.9477 97.9797 20.8039C97.89 20.6601 97.6362 20.5065 97.4305 20.5195C97.2249 20.5325 97.113 20.6166 97.0231 20.6874C96.9333 20.7581 96.8631 20.8338 96.7895 20.9224C96.6423 21.0996 96.4917 21.3268 96.3182 21.6197C96.1848 21.8447 96.0445 22.051 95.9387 22.1865C95.8971 22.24 95.8679 22.2689 95.8449 22.2932C95.7901 22.3193 95.7543 22.35 95.7287 22.3719C95.7253 22.3748 95.7221 22.3776 95.7191 22.3801C95.6713 22.4203 95.6457 22.4515 95.6212 22.4808C95.5721 22.5396 95.5323 22.5963 95.4874 22.6645C95.3977 22.801 95.2931 22.9773 95.1739 23.188C94.9354 23.6093 94.6417 24.1645 94.3531 24.7325C94.0645 25.3005 93.7834 25.8791 93.5702 26.3463C93.4637 26.5799 93.3746 26.7844 93.3086 26.9526C93.2756 27.0368 93.2488 27.1105 93.2267 27.1818C93.2229 27.1942 93.219 27.2058 93.2151 27.2173C93.1965 27.2719 93.1788 27.324 93.1788 27.4445C93.1788 27.3846 93.1796 27.3628 93.1796 27.3628C93.1796 27.3628 93.1752 27.4132 93.1589 27.4563C93.1318 27.5278 93.0863 27.6339 93.029 27.7565C92.9146 28.0019 92.7503 28.3192 92.5717 28.6355C91.6851 30.2059 89.4234 35.3654 88.9651 36.8919C88.5103 38.4065 88.5017 39.791 89.035 41.0871C89.5683 42.3833 90.6115 43.5636 92.1684 44.7946C93.354 45.7319 94.0027 46.2936 95.3937 47.5835C95.8603 48.0164 96.7308 48.7488 97.3687 49.2486C97.7009 49.5089 97.9658 49.7553 98.1316 49.9419C98.209 50.0291 98.2528 50.1157 98.2776 50.1647C98.2788 50.167 98.2799 50.1692 98.281 50.1713C98.2729 50.2031 98.2626 50.2389 98.2494 50.2738C98.1966 50.4136 98.1142 50.6076 98.0118 50.8328C97.8068 51.2831 97.52 51.8611 97.2049 52.4485C95.3991 55.8151 93.5279 59.9232 92.6576 62.445C92.4462 63.0575 92.2376 63.6406 92.0725 64.0844C91.9899 64.3063 91.9192 64.494 91.8648 64.6296C91.8411 64.6886 91.8499 64.6719 91.8308 64.7125C91.8262 64.7134 91.8216 64.7143 91.817 64.7152C91.7777 64.7228 91.7373 64.7306 91.6491 64.7362C91.3716 64.7537 90.9028 64.7456 90.2332 64.7066C88.6835 64.6163 84.6318 64.5824 80.851 64.592C78.9606 64.5969 77.1441 64.613 75.7565 64.6394C75.0627 64.6527 74.4752 64.6683 74.0371 64.6869C73.818 64.6962 73.6376 64.7073 73.4939 64.7185C73.4635 64.7208 73.4364 64.7224 73.4111 64.724C73.3168 64.7297 73.2478 64.7338 73.1284 64.7678L70.8837 65.4098L73.2185 66.1182C73.6858 66.2607 74.5086 66.3973 75.1936 66.4639C75.8381 66.5266 76.6798 66.6209 77.0328 66.6693C77.3174 66.7083 77.9126 66.7351 78.8102 66.7701C79.7079 66.805 80.8505 66.839 82.0235 66.8668C84.5595 66.9271 86.6553 66.9953 88.2064 67.0663C89.7575 67.1373 90.8144 67.2243 91.0761 67.2757C91.1279 67.2859 91.1629 67.2963 91.1846 67.3036C91.1861 67.3148 91.1879 67.3295 91.19 67.3488C91.214 67.5757 91.1422 68.2353 90.9543 69.4109V69.4129C90.6856 71.1615 91.3003 72.996 92.2863 74.7065C93.2712 76.4149 94.6422 78.0119 95.9968 79.2889L95.9989 79.2919L96.0008 79.2949C96.8493 80.1481 97.1494 80.3766 97.4786 80.5393C97.5264 80.5629 97.5731 80.5849 97.6217 80.6078C97.9109 80.7442 98.2638 80.9107 99.268 81.6098L99.3159 81.6375C99.8602 81.9358 100.406 82.2084 100.946 82.478C101.77 82.8892 102.58 83.2937 103.35 83.7726C103.348 83.8027 103.35 83.7787 103.344 83.8141C103.316 83.9778 103.26 84.2035 103.18 84.462C103.021 84.979 102.771 85.6274 102.475 86.2535C102.364 86.4898 102.334 86.6994 102.293 86.9916C102.289 87.0231 102.284 87.0555 102.279 87.089C102.23 87.4338 102.191 87.8435 102.17 88.2485C102.14 88.8161 102.13 89.1742 102.174 89.4711C102.195 89.6196 102.222 89.7661 102.341 89.9254C102.396 89.9979 102.486 90.0266 102.579 90.0564C102.61 90.0661 102.641 90.0759 102.671 90.0874C102.672 90.0964 102.672 90.1055 102.673 90.1145C102.679 90.2002 102.685 90.2861 102.731 90.3837C102.8 90.5304 102.965 90.6906 103.15 90.7432C103.513 90.8459 103.734 90.695 103.945 90.5514L103.959 90.5417C104.168 90.3994 104.292 90.2373 104.454 90.0266L104.468 90.0084C104.637 89.7888 104.816 89.5274 104.988 89.2558C105.331 88.7127 105.636 88.1981 105.748 87.7389C105.749 87.7359 105.846 87.4697 105.974 87.1819C106.102 86.8941 106.268 86.5422 106.437 86.1963C106.607 85.8504 106.782 85.5107 106.925 85.2462C106.952 85.1954 106.977 85.1514 107 85.1107C107.022 85.0729 107.042 85.038 107.062 85.0033C107.125 85.0117 107.182 85.0192 107.254 85.0295C107.285 85.0339 107.318 85.0389 107.356 85.0447C107.731 85.1028 108.249 85.1913 108.812 85.2936C109.972 85.5045 111.691 85.7258 112.702 85.7933C113.663 85.8576 115.218 85.9958 116.127 86.0975C118.519 86.3652 121.765 86.3288 124.822 86.0067C125.524 85.9327 126.168 85.8713 126.638 85.8348C126.752 85.8259 126.816 85.823 126.907 85.817C126.906 85.8462 126.906 85.8748 126.905 85.9036C126.902 86.0097 126.899 86.1188 126.889 86.2694C126.851 86.8379 126.779 87.6149 126.687 88.4519C126.505 90.126 126.245 92.0595 126.036 93.1016C125.809 94.2415 125.83 95.357 125.854 96.6258C125.865 97.2032 125.876 97.8124 125.865 98.4702L125.863 98.6875L126.018 98.8415C126.144 98.9644 126.195 98.975 126.241 98.9847C126.255 98.9875 126.268 98.9903 126.282 98.9956C126.347 99.0194 126.413 99.0389 126.492 99.0608C126.649 99.1045 126.849 99.1514 127.087 99.203C127.562 99.3063 128.185 99.4247 128.85 99.5349C131.929 100.044 132.56 100.332 135.584 102.575C136.387 103.17 137.497 103.99 138.053 104.4L138.055 104.402L138.059 104.404C143.422 108.248 149.971 110.508 156.21 112.081L156.254 112.093L156.3 112.095C156.531 112.112 156.756 112.12 156.947 112.117C157.042 112.116 157.129 112.113 157.209 112.105C157.223 112.104 157.237 112.103 157.251 112.103C157.31 112.1 157.365 112.097 157.494 112.04C157.645 111.974 157.83 111.742 157.838 111.544C157.846 111.347 157.776 111.242 157.724 111.163C157.619 111.006 157.509 110.921 157.382 110.829C157.131 110.647 156.869 110.469 156.458 110.458C156.49 110.459 156.482 110.457 156.454 110.453C156.428 110.448 156.386 110.441 156.344 110.43C156.252 110.407 156.125 110.371 155.978 110.326C155.686 110.235 155.312 110.11 154.94 109.972C150.686 108.393 147.271 106.082 143.249 103.36C141.906 102.452 140.496 101.497 138.964 100.509C137.841 99.6468 136.587 98.7117 136.112 98.3896C134.744 97.462 132.347 96.8181 130.021 96.6672C129.277 96.6191 128.836 96.5705 128.595 96.523C128.599 96.5054 128.602 96.4874 128.606 96.4689C128.637 96.3196 128.674 96.1403 128.759 95.9088C128.823 95.7313 128.895 95.5624 128.954 95.4426C128.981 95.3892 129.02 95.3417 129.042 95.3152C129.07 95.2824 129.07 95.2818 128.986 95.3419C129.119 95.2472 129.147 95.1814 129.171 95.1267C129.176 95.1171 129.18 95.1079 129.184 95.0989C129.214 95.0386 129.233 94.9831 129.252 94.9251C129.29 94.8091 129.323 94.6788 129.356 94.5261C129.421 94.2207 129.482 93.8344 129.527 93.424C129.864 90.3853 130.308 87.3974 130.598 86.1356L130.834 85.1025L131.459 85.0156C131.749 84.9761 132.011 84.9224 132.225 84.8576C132.333 84.8252 132.427 84.7939 132.527 84.7411C132.577 84.7146 132.63 84.6858 132.697 84.6225C132.701 84.6185 132.704 84.6014 132.709 84.5969C132.771 84.5846 132.873 84.5695 132.998 84.5712C133.492 84.5781 134.231 84.4358 134.872 84.2552L135.144 84.1782C136.902 83.6831 138.805 83.1468 141.432 82.2464C141.976 82.0839 142.192 82.0032 142.407 82.0079C142.614 82.0125 142.819 82.0968 143.317 82.2642L143.358 82.2778C143.842 82.4407 144.144 82.5422 144.485 82.5486C144.837 82.5552 145.128 82.4339 145.464 82.276C145.922 82.061 146.115 82.002 146.411 82.0351C146.706 82.0681 147.17 82.2389 147.976 82.6079H147.978C149.79 83.4285 151.586 84.1098 153.377 84.7888C154.856 85.3498 156.332 85.9093 157.808 86.5445L157.816 86.5485C158.499 86.8299 159.185 87.101 159.745 87.3129C160.305 87.5248 160.691 87.6685 160.947 87.7297C161.086 87.7629 161.229 87.808 161.327 87.8462C161.359 87.8588 161.387 87.8711 161.406 87.8802C161.463 87.9467 161.486 87.9548 161.508 87.9626C161.518 87.9659 161.527 87.9691 161.539 87.9766C161.585 88.0066 161.635 88.0382 161.696 88.0734C161.818 88.1436 161.976 88.2307 162.168 88.3321C162.55 88.535 163.059 88.7944 163.605 89.063C164.142 89.3264 164.636 89.5825 164.995 89.7799C165.175 89.8787 165.323 89.9624 165.417 90.0209C165.434 90.0317 165.45 90.0417 165.463 90.0505C165.507 90.1188 165.546 90.1471 165.583 90.1741C165.595 90.1826 165.607 90.1911 165.618 90.2007C165.683 90.2543 165.751 90.2999 165.828 90.3488C165.981 90.4467 166.166 90.5484 166.363 90.6411C166.443 90.6785 166.745 90.8782 167.058 91.131C167.371 91.3837 167.724 91.6968 168.029 92.0001C168.355 92.3243 168.67 92.6193 168.921 92.8395C169.047 92.9497 169.156 93.0401 169.251 93.1121C169.281 93.1348 169.309 93.1557 169.339 93.1759C169.356 93.1878 169.374 93.1994 169.393 93.2109C169.403 93.2173 169.412 93.2248 169.421 93.2328C169.446 93.2558 169.476 93.2828 169.574 93.2984L169.575 93.2982C169.578 93.298 169.588 93.299 169.599 93.302C169.627 93.3054 169.659 93.3081 169.696 93.3096C169.654 93.3079 169.625 93.3057 169.606 93.3038C169.616 93.3068 169.627 93.3113 169.636 93.3175C169.686 93.35 169.756 93.4047 169.812 93.4597C170.028 93.6731 170.221 93.7182 170.438 93.7689C170.459 93.7737 170.48 93.7786 170.501 93.7837C170.744 93.8421 171.012 93.8799 171.274 93.8982C171.536 93.9166 171.783 93.9178 172.011 93.8864C172.125 93.8707 172.233 93.8519 172.364 93.7896C172.43 93.7585 172.505 93.7144 172.582 93.6276C172.659 93.5409 172.73 93.3936 172.73 93.2464C172.73 93.0413 172.686 92.9769 172.644 92.9145C172.634 92.8993 172.623 92.8842 172.614 92.8672C172.566 92.7804 172.507 92.6933 172.44 92.5986C172.306 92.4091 172.133 92.1901 171.941 91.9625C171.557 91.5075 171.122 91.0379 170.771 90.7577C169.712 89.912 166.471 87.9798 164.845 87.2003C163.998 86.794 162.835 86.1615 162.335 85.8413C162.049 85.6582 161.739 85.4778 161.456 85.3298C161.174 85.1818 160.945 85.0707 160.722 85.0058C160.58 84.9646 160.381 84.8697 160.27 84.8168C160.213 84.7895 160.179 84.7734 160.189 84.7819L160.146 84.7471L160.094 84.7234C158.59 84.0001 156.865 83.2954 155.235 82.6302C154.609 82.3743 153.996 82.1242 153.416 81.8811C152.372 81.4437 151.433 81.029 150.718 80.6526C150.004 80.2761 149.515 79.8952 149.412 79.742L149.286 79.5524L149.059 79.5208C148.926 79.5022 148.877 79.4891 148.821 79.4744C148.796 79.468 148.771 79.4613 148.737 79.4537C148.753 79.4437 148.77 79.4342 148.786 79.4246C148.838 79.3948 148.889 79.365 148.937 79.3233C148.924 79.3346 148.944 79.3216 148.986 79.2938C149.053 79.2501 149.176 79.1697 149.314 79.0902C149.54 78.9602 149.841 78.7948 150.185 78.6122C150.873 78.247 151.731 77.8137 152.514 77.4389C153.049 77.1822 153.955 76.6539 154.608 76.2261C154.92 76.0221 155.213 75.8364 155.429 75.7047C155.538 75.6388 155.629 75.5869 155.687 75.5546C155.691 75.5521 155.695 75.5499 155.699 75.5478C155.727 75.5408 155.743 75.5321 155.756 75.5246C155.762 75.521 155.768 75.5177 155.775 75.5151C155.809 75.5013 155.832 75.4895 155.855 75.4776C155.9 75.4537 155.942 75.4293 155.992 75.3986C156.093 75.337 156.218 75.2559 156.364 75.1576C156.656 74.961 157.034 74.6973 157.424 74.4189C158.205 73.862 159.006 73.2745 159.341 72.9769C159.603 72.7452 160.494 71.9736 161.307 71.2783C162.133 70.5712 163.131 69.6534 163.583 69.1747C163.779 68.9671 163.98 68.7759 164.132 68.6473C164.164 68.6211 164.178 68.6124 164.204 68.592C164.209 68.5943 164.212 68.5957 164.215 68.5971C164.219 68.5989 164.222 68.6006 164.228 68.6038C164.355 68.6741 164.521 68.7785 164.678 68.8922C165.321 69.361 166.354 69.9413 169.115 71.4007C170.492 72.129 170.968 72.3677 173.764 73.7572C176.15 74.943 176.993 75.4018 177.646 75.8548C177.957 76.0701 178.525 76.4072 178.978 76.6488C179.171 76.7513 179.425 76.8925 179.685 77.04ZM155.699 75.5478C155.713 75.5397 155.721 75.5348 155.729 75.5309C155.721 75.5338 155.709 75.5369 155.687 75.5427C155.68 75.5445 155.673 75.5465 155.664 75.5486C155.658 75.5499 155.651 75.5513 155.643 75.5526C155.633 75.5542 155.614 75.5561 155.595 75.5577C155.576 75.5593 155.559 75.5605 155.559 75.5605C155.627 75.5605 155.67 75.5551 155.699 75.5478ZM165.463 90.0505C165.486 90.0656 165.502 90.077 165.509 90.0821C165.514 90.0863 165.514 90.0868 165.5 90.0743C165.498 90.0722 165.496 90.0704 165.493 90.0683C165.476 90.0571 165.446 90.0364 165.399 89.9261C165.421 89.9787 165.443 90.0189 165.463 90.0505ZM161.412 87.8832C161.41 87.8822 161.408 87.8813 161.406 87.8802C161.391 87.8628 161.373 87.8412 161.353 87.8146C161.38 87.8498 161.399 87.871 161.412 87.8832ZM161.429 87.8916C161.425 87.8895 161.419 87.8866 161.412 87.8832C161.437 87.9073 161.438 87.8968 161.429 87.8916ZM91.1846 67.3036C91.2039 67.3102 91.2131 67.3135 91.2131 67.3135C91.2131 67.3135 91.2094 67.3099 91.202 67.3034C91.1874 67.2906 91.1805 67.2739 91.1805 67.2739C91.1805 67.2739 91.1816 67.2819 91.1846 67.3036ZM98.281 50.1713C98.3062 50.2209 98.3093 50.2233 98.3093 50.1296C98.3093 50.0461 98.3072 50.0559 98.2964 50.1049C98.2925 50.1227 98.2875 50.1457 98.281 50.1713ZM95.8449 22.2932C95.896 22.2688 95.9609 22.2477 96.0745 22.2477C95.9195 22.2477 95.8679 22.2878 95.8422 22.3078C95.8387 22.3106 95.8356 22.313 95.8328 22.3148C95.81 22.33 95.812 22.3313 95.8209 22.3227C95.8227 22.321 95.8268 22.3156 95.8314 22.3098C95.8363 22.3035 95.8417 22.2966 95.8449 22.2932ZM110.946 7.31055C110.944 7.32306 110.941 7.33931 110.94 7.36048C110.941 7.34268 110.943 7.32688 110.945 7.31277L110.946 7.31055ZM110.972 7.26656C110.971 7.27009 110.965 7.28203 110.954 7.29797C110.952 7.30192 110.949 7.30612 110.946 7.31055C110.955 7.27317 110.966 7.26928 110.97 7.26763L110.972 7.26656ZM108.805 17.448C108.806 17.4297 108.807 17.4327 108.811 17.4512C108.807 17.4654 108.805 17.4658 108.805 17.448ZM123.378 26.7353C123.379 26.7323 123.381 26.7291 123.384 26.726C123.386 26.7222 123.389 26.7185 123.39 26.715L123.362 26.8749C123.362 26.8528 123.366 26.8281 123.37 26.8034C123.374 26.78 123.377 26.7566 123.378 26.7353ZM127.601 23.2796C127.598 23.2875 127.594 23.2968 127.59 23.3074C127.559 23.3331 127.523 23.3595 127.48 23.387C127.563 23.3344 127.59 23.3 127.601 23.2796ZM127.601 23.2796C127.602 23.2771 127.603 23.2747 127.604 23.2725C127.611 23.2548 127.617 23.2482 127.61 23.2606C127.61 23.2606 127.608 23.2642 127.607 23.2666C127.606 23.2701 127.604 23.2744 127.601 23.2796ZM150.765 19.8107C150.755 19.8144 150.74 19.8209 150.718 19.8325C150.732 19.8248 150.746 19.8179 150.759 19.8116L150.765 19.8107ZM150.765 19.8107C150.779 19.806 150.784 19.8061 150.788 19.8062L150.792 19.806C150.799 19.8042 150.794 19.8059 150.782 19.808C150.777 19.8088 150.771 19.8097 150.765 19.8107ZM141.62 76.9089L141.617 76.9074C141.618 76.9091 141.619 76.9116 141.619 76.9116C141.619 76.9116 141.62 76.9109 141.62 76.9089ZM162.954 64.5507C162.965 64.556 162.986 64.5675 162.996 64.572C163.039 64.5911 163.087 64.5955 163.087 64.5955C163.087 64.5955 163.063 64.5937 162.996 64.5937C162.854 64.5937 162.871 64.5863 162.932 64.5604C162.938 64.5574 162.946 64.5542 162.954 64.5507Z" fill="#DE3232"/>
<path fill-rule="evenodd" clip-rule="evenodd" d="M0.258952 88.5888C0.35682 88.6323 0.448341 88.6765 0.540368 88.7208C0.863408 88.8766 1.19269 89.0354 1.82466 89.1799C5.86116 90.1027 7.75461 90.2971 12.0117 90.2208C15.5349 90.1576 17.4516 90.1269 18.4921 90.128C18.9443 90.1285 19.1737 90.1367 19.3409 90.1477C19.338 90.3244 19.3193 90.5568 19.2849 90.8035L19.2755 90.8718C19.2174 91.2941 19.2012 91.4116 18.9195 91.7832C18.6232 92.1741 18.0018 92.8017 16.7946 93.9915C13.598 97.1421 12.4645 98.4183 11.0411 100.476C8.8418 103.655 8.2235 104.808 6.61164 108.758C6.35035 109.398 6.08629 110.483 5.97059 111.318C5.8458 112.218 5.8237 113.938 5.85875 115.61C5.86144 115.738 5.86709 115.853 5.87278 115.969L5.87521 116.019C8.91337 123.855 13.0514 131.158 18.1037 137.744C18.5326 137.96 19.0144 138.18 19.5978 138.42C21.8022 139.327 23.7583 139.859 27.3444 140.533C28.9974 140.844 33.4919 140.822 35.2867 140.513C36.8946 140.237 37.4986 140.271 37.9747 140.521C38.0553 140.564 38.0871 140.582 38.0984 140.589L38.0988 140.595C38.1012 140.627 38.1121 140.773 38.0806 141.047C38.0437 141.366 37.8082 142.164 37.5953 142.625C36.8016 144.343 35.7888 147.7 35.1788 150.567C34.828 152.216 34.6038 153.213 34.4006 154.097C35.4364 154.899 36.4906 155.678 37.5623 156.435C37.7514 155.823 38.01 154.805 38.2436 153.802C38.3918 153.165 38.5756 152.376 38.7496 151.63C38.9119 150.934 39.0657 150.274 39.1742 149.808C39.569 148.112 39.9498 147.069 41.385 143.748C42.0738 142.154 42.1348 141.789 42.018 140.258L41.9322 139.114L42.1398 139.073C43.187 138.865 46.0029 137.922 46.8888 137.465C47.1596 137.325 47.3561 137.259 47.434 137.249C47.4747 137.245 47.4785 137.238 47.4785 137.238C47.4785 137.238 47.4773 137.246 47.4999 137.269C47.5947 137.366 47.8597 137.988 48.145 139.159C48.3671 140.072 48.4609 141.819 48.5224 147.358C48.5462 149.503 48.5834 151.27 48.6302 152.51C48.6536 153.13 48.6801 153.616 48.7081 153.962C48.7221 154.134 48.736 154.27 48.7541 154.382L48.7553 154.39C48.7638 154.443 48.7715 154.492 48.79 154.552L48.7906 154.554C48.8001 154.585 48.8109 154.62 48.8419 154.677C48.8439 154.68 48.8476 154.684 48.8515 154.689C48.8555 154.694 48.8595 154.698 48.8619 154.702C48.8659 154.72 48.868 154.729 48.8739 154.768C48.893 154.892 48.9133 155.101 48.9298 155.364C48.9629 155.89 48.9837 156.642 48.9837 157.517V161.031H49.9723C50.0161 161.247 50.0215 161.873 49.9762 162.972C49.9638 163.275 49.9755 163.56 50.0082 163.802L50.0086 163.805C50.3784 163.986 50.7497 164.164 51.1225 164.34C51.1446 164.301 51.1537 164.271 51.1619 164.244C51.1641 164.237 51.1662 164.23 51.1685 164.223C51.2029 164.119 51.2146 164.038 51.2284 163.934C51.2559 163.727 51.2755 163.449 51.2923 163.081C51.3258 162.345 51.3436 161.267 51.3442 159.889C51.3452 157.515 51.4407 154.661 51.5459 153.65C51.6636 152.519 51.8089 149.295 51.8814 146.389C52.0033 141.505 51.977 140.879 51.5938 139.088C51.4778 138.546 51.339 138.024 51.2044 137.603C51.1371 137.393 51.0705 137.209 51.0047 137.054C50.9915 137.023 50.9711 136.993 50.9514 136.965C50.9342 136.94 50.9176 136.916 50.9069 136.892C50.9036 136.799 51.0423 136.415 51.486 135.938C51.9407 135.449 52.6235 134.883 53.3872 134.312C54.3765 133.573 55.5001 132.826 56.4794 132.176C57.0005 131.829 57.4808 131.51 57.8782 131.234L57.8447 131.251L57.9046 131.215L57.8782 131.234C58.3057 131.012 58.809 130.682 59.1289 130.398C59.3309 130.218 60.4224 129.358 61.4475 128.584C62.4963 127.792 63.7741 126.721 64.3632 126.127C64.8303 125.657 65.2466 125.317 65.5435 125.138C65.6911 125.048 65.8101 125.003 65.8642 124.99C65.8447 124.979 65.8232 124.967 65.7991 124.952C65.8509 124.984 65.8885 124.984 65.8885 124.984C65.8885 124.984 65.8805 124.986 65.8642 124.99C65.9554 125.039 66.0002 125.045 66.0499 125.052C66.068 125.055 66.0867 125.058 66.1086 125.063C66.2033 125.084 66.313 125.104 66.4381 125.124C66.6884 125.163 67.0004 125.201 67.3228 125.23C67.6719 125.262 67.9455 125.314 68.1236 125.371C68.2372 125.407 68.3049 125.448 68.3329 125.465C68.3385 125.469 68.3425 125.471 68.345 125.472C68.3411 125.464 68.3404 125.461 68.3433 125.465C68.3489 125.473 68.3495 125.475 68.345 125.472C68.3509 125.485 68.3642 125.511 68.3831 125.548C68.4499 125.679 68.5872 125.948 68.7208 126.255C68.9172 126.707 69.1604 127.301 69.4177 127.956C69.9325 129.266 70.5048 130.821 70.8896 131.995C71.2247 133.017 72.0377 135.475 72.697 137.461C73.3552 139.443 74.2812 142.298 74.752 143.795C74.99 144.552 75.2425 145.305 75.4569 145.913C75.6713 146.521 75.8224 146.94 75.9582 147.196C76.0322 147.336 76.1024 147.496 76.1499 147.623C76.1722 147.683 76.1869 147.747 76.1962 147.787C76.2066 147.832 76.2101 147.848 76.2098 147.793C76.2106 147.938 76.2374 148.073 76.3157 148.212C76.3939 148.35 76.5687 148.544 76.8609 148.544C77.0423 148.544 77.1058 148.509 77.1687 148.474C77.1834 148.466 77.1981 148.458 77.2143 148.451C77.2995 148.411 77.3845 148.363 77.476 148.309C77.6588 148.199 77.8647 148.062 78.0651 147.917C78.2655 147.773 78.4577 147.625 78.6123 147.491C78.6895 147.424 78.7571 147.363 78.82 147.293C78.8514 147.258 78.8813 147.223 78.9158 147.169C78.92 147.162 78.9246 147.156 78.9295 147.148C78.9644 147.098 79.0117 147.029 79.0117 146.859C79.0117 146.752 79.0014 146.712 78.9889 146.663C78.9853 146.649 78.9815 146.635 78.9777 146.618C78.9609 146.541 78.9379 146.45 78.9098 146.343C78.8537 146.129 78.7748 145.85 78.6802 145.523C78.4909 144.871 78.237 144.033 77.9752 143.193C77.7134 142.352 77.4436 141.51 77.2223 140.844C77.1117 140.511 77.0131 140.223 76.9328 139.999C76.9191 139.961 76.9067 139.926 76.8951 139.893C76.8384 139.732 76.801 139.627 76.7331 139.503C76.662 139.374 76.4893 138.92 76.4235 138.65C75.9847 136.845 73.791 130.015 73.0805 128.238C72.6403 127.138 72.1244 125.976 71.6466 124.987C71.1689 123.999 70.7469 123.2 70.4224 122.749C70.0905 122.288 69.5537 121.986 68.9905 121.819C68.7571 121.75 68.6246 121.688 68.5719 121.663L68.5586 121.657C68.559 121.666 68.5582 121.67 68.5582 121.67C68.5582 121.67 68.5539 121.662 68.5472 121.655C68.5423 121.65 68.5458 121.651 68.5586 121.657C68.5578 121.636 68.5551 121.587 68.5551 121.481C68.5551 121.365 68.5715 121.221 68.5971 121.112C68.6098 121.057 68.6324 121.008 68.6451 120.98C68.6578 120.952 68.6604 120.946 68.633 120.98C69.0644 120.456 69.3638 120.084 69.5637 119.816C69.6636 119.683 69.7381 119.576 69.7973 119.478L69.8052 119.465C69.8444 119.401 69.8833 119.338 69.908 119.231L69.9092 119.226C69.9118 119.214 69.9148 119.203 69.9178 119.192C69.9266 119.161 69.9353 119.13 69.9353 119.07C69.9353 119.133 69.9315 119.17 69.9266 119.193C69.9371 119.174 69.9507 119.15 69.9671 119.121C70.0252 119.019 70.1154 118.868 70.2267 118.688C70.4493 118.328 70.76 117.843 71.1014 117.326C72.0065 115.953 72.6814 114.918 73.1324 114.211C73.3579 113.857 73.5272 113.586 73.6436 113.391C73.7018 113.293 73.7461 113.215 73.7814 113.148C73.7991 113.115 73.8134 113.084 73.8293 113.047C73.8328 113.039 73.8371 113.033 73.8418 113.027C73.8537 113.01 73.868 112.99 73.8757 112.928C73.8687 112.942 73.8625 112.955 73.8586 112.963L73.8535 112.974L73.8593 112.956C73.8602 112.954 73.8614 112.951 73.8629 112.948C73.8682 112.938 73.8769 112.921 73.8803 112.869C73.8812 112.854 73.8813 112.837 73.8813 112.816C73.8813 112.836 73.8809 112.853 73.8803 112.869C73.8793 112.892 73.8777 112.911 73.8757 112.928C73.9003 112.878 73.9418 112.799 73.9931 112.706C74.0962 112.518 74.2424 112.265 74.4025 111.996C74.5713 111.713 74.7231 111.434 74.8378 111.204C74.8952 111.09 74.9439 110.987 74.9816 110.894C74.9904 110.873 74.9997 110.855 75.0087 110.839C75.0339 110.791 75.0573 110.748 75.0637 110.625L75.0632 110.626C75.0586 110.686 75.049 110.659 75.0575 110.639L75.0632 110.626C75.0639 110.618 75.0644 110.609 75.0648 110.598C75.0652 110.585 75.0655 110.57 75.0655 110.553C75.0655 110.569 75.0652 110.584 75.0648 110.598C75.0645 110.608 75.0642 110.617 75.0637 110.625C75.076 110.598 75.0965 110.555 75.1234 110.505C75.1876 110.387 75.2853 110.228 75.389 110.069C75.4928 109.909 75.6037 109.747 75.7006 109.618C75.7695 109.527 75.841 109.447 75.8725 109.412C75.8853 109.397 75.8915 109.391 75.8883 109.393C76.0407 109.265 76.0723 109.19 76.1078 109.105C76.1164 109.085 76.1252 109.064 76.1359 109.042C76.1912 108.927 76.2425 108.799 76.2837 108.666C76.629 107.551 77.0553 106.344 77.422 105.407C77.6054 104.939 77.7754 104.537 77.9073 104.256C77.973 104.116 78.0307 104.007 78.0691 103.942V103.94C78.0877 103.932 78.0947 103.93 78.1123 103.924C78.123 103.921 78.1375 103.916 78.1609 103.908C78.2705 103.871 78.4197 103.824 78.5923 103.774C78.9375 103.672 79.3801 103.553 79.8285 103.442L81.0357 103.144C81.9083 102.928 82.9401 102.673 83.7527 102.472C84.9963 102.164 86.6869 101.763 87.4892 101.587C87.9096 101.495 88.3427 101.381 88.7135 101.271C89.0842 101.161 89.3663 101.073 89.5922 100.953L89.6321 100.933L92.2303 98.9107V98.6895C92.139 98.7409 92.036 98.7806 91.9148 98.7806C92.1409 98.7806 92.226 98.6353 92.2364 98.6147C92.2386 98.6101 92.2396 98.608 92.2397 98.6081C92.2402 98.6082 92.2303 98.6338 92.2303 98.664L92.2303 98.6895C92.3377 98.6291 92.4269 98.5503 92.4819 98.4683C92.5836 98.3166 92.6237 98.1523 92.6237 97.9804C92.6237 97.5627 92.2876 97.1824 91.8368 97.1824C91.715 97.1824 91.6311 97.1944 91.5003 97.2131C91.4686 97.2177 91.434 97.2226 91.3955 97.2279C91.1983 97.2548 90.9421 97.2918 90.6426 97.3385C90.0435 97.4317 89.2701 97.5594 88.4658 97.696C86.8573 97.9692 85.1375 98.2771 84.4058 98.4367C81.2135 99.1328 79.5532 99.4724 78.8959 99.4795C78.7873 99.4804 78.7419 99.4707 78.705 99.4629L78.6902 99.4598C78.6956 99.459 78.6961 99.4424 78.6971 99.4054C78.6988 99.3485 78.7018 99.2433 78.7262 99.0727C78.7863 98.6519 78.9283 97.9914 79.0177 97.6999C79.1599 97.2365 79.1458 96.6831 79.0696 95.9953C78.9934 95.3075 78.8392 94.4991 78.6203 93.6171C78.1825 91.853 77.4895 89.8004 76.6572 87.9226C76.3963 87.3338 76.0876 86.6293 75.9742 86.3661C75.8492 86.0758 75.6331 85.6265 75.475 85.3252C75.2944 84.9811 75.2199 84.8321 75.2213 84.7267C75.2228 84.6213 75.294 84.3892 75.6787 83.8991C76.4275 82.9448 78.2274 81.1654 81.8625 77.5715L82.1652 77.2723C83.6391 75.8151 84.5923 74.847 85.1907 74.1772C85.4899 73.8423 85.6999 73.5843 85.8497 73.3595C85.9996 73.1347 86.1153 72.9442 86.1153 72.6623L86.1154 72.6361C86.1156 72.5222 86.1157 72.4191 86.0854 72.2811C86.0528 72.1326 85.9153 71.8918 85.7079 71.7991C85.5068 71.7092 85.3569 71.7286 85.2213 71.7461L85.2087 71.7478C85.0697 71.7656 84.9282 71.7969 84.7494 71.8366L84.6914 71.8485L84.6375 71.8742C83.2635 72.5365 82.222 73.556 81.2091 74.5474L81.0827 74.671C80.0296 75.7006 78.9952 76.6844 77.6678 77.3L77.5859 77.3375L77.522 77.4007C76.7254 78.1894 75.2517 79.6285 73.7995 80.9442C73.0736 81.6021 72.3529 82.2283 71.7306 82.7258C71.1958 83.1535 70.7889 83.413 70.4965 83.5732C70.4704 83.5455 70.4446 83.5179 70.4188 83.4904C70.1492 83.2022 69.8851 82.9198 69.404 82.6666C68.6465 82.2677 67.6674 81.8662 66.5463 81.4854C64.3039 80.7236 61.5048 80.0445 58.9095 79.7096C58.6476 79.6758 58.3794 79.6298 58.1706 79.5832L58.1295 79.5741C58.051 79.5567 58.0457 79.5556 57.9928 79.5378C57.9818 79.4341 57.9701 79.284 57.9749 79.0282C57.9857 78.4433 58.0519 77.4694 58.1766 75.9489C58.5097 71.8854 58.4487 70.3137 57.7691 69.014C57.5629 68.6195 57.3459 68.2949 57.0003 68.0639C56.6547 67.833 56.2532 67.7152 55.6643 67.5682C54.5936 67.3009 52.2701 66.221 50.2803 65.0142C49.7526 64.6942 49.3184 64.4593 48.9582 64.3051C48.9247 64.2908 48.8921 64.2766 48.8602 64.2626C48.5491 64.1266 48.3043 64.0196 47.9296 64.1372C48.0151 64.1104 48.0037 64.1102 47.9473 64.1089C47.899 64.1077 47.8178 64.1058 47.7359 64.0859C47.5585 64.0426 47.3271 63.9657 47.1009 63.8765C46.8747 63.7873 46.6512 63.6835 46.4878 63.5921C46.4096 63.5483 46.344 63.494 46.3044 63.4611C46.2611 63.4252 46.2486 63.4149 46.2841 63.4716C46.1476 63.2533 46.0436 63.2118 45.9319 63.1674C45.9061 63.1571 45.8799 63.1467 45.8527 63.1338C45.7083 63.0655 45.5466 63.007 45.3734 62.964C45.3151 62.9495 45.0063 62.843 44.6585 62.7013C44.3106 62.5596 43.8945 62.3782 43.5002 62.1956C43.0932 62.0072 42.7062 61.8358 42.4078 61.7097C42.2585 61.6467 42.1323 61.5961 42.0303 61.5576C41.9793 61.5384 41.9346 61.5222 41.8905 61.5083C41.8826 61.5058 41.8677 61.5036 41.8524 61.5014C41.8341 61.4987 41.8151 61.496 41.8066 61.4925C41.8041 61.4913 41.7816 61.479 41.7527 61.4609C41.6949 61.4245 41.6122 61.3626 41.541 61.2989C41.3153 61.0969 41.0917 61.0325 40.8353 60.9587L40.8301 60.9572C40.5715 60.8827 40.2886 60.8301 40.0193 60.7972C39.75 60.7642 39.5056 60.7486 39.2724 60.7774C39.2601 60.7789 39.2479 60.7803 39.2356 60.7817C39.1308 60.7932 39.0217 60.8052 38.863 60.9236C38.7743 60.9897 38.6645 61.124 38.6373 61.291C38.6101 61.4579 38.666 61.6035 38.7212 61.6919C38.7853 61.7946 38.8165 61.8173 38.8467 61.8393C38.8553 61.8456 38.8638 61.8518 38.873 61.8598C38.9143 61.8959 38.9591 61.9307 39.0108 61.9705C39.1142 62.05 39.2456 62.146 39.4002 62.2549C39.7095 62.4726 40.1086 62.7433 40.5186 63.0134C40.9286 63.2834 41.3483 63.5524 41.6968 63.7679L41.7921 63.8269C42.0872 64.0098 42.2889 64.1348 42.4937 64.2182C42.4678 64.2077 42.4797 64.214 42.5081 64.229C42.53 64.2405 42.5618 64.2573 42.5935 64.2755C42.6662 64.3172 42.7653 64.3762 42.8791 64.4454C43.1067 64.5837 43.397 64.7651 43.6919 64.955C44.3041 65.3491 45.5865 66.1305 46.5697 66.7069C47.0552 66.9916 47.5085 67.2628 47.8438 67.4694C48.0115 67.5726 48.1496 67.6599 48.2452 67.7222C48.2912 67.7522 48.327 67.7764 48.3485 67.7915C48.3403 67.7823 48.33 67.7706 48.3171 67.7558C48.3287 67.7692 48.3398 67.7815 48.3505 67.7929C48.3604 67.7999 48.3745 67.816 48.3766 67.8198C48.4302 67.873 48.4747 67.9044 48.5262 67.9407C48.5398 67.9503 48.5539 67.9603 48.5688 67.9711C48.6594 68.0367 48.7623 68.1044 48.8663 68.1666C48.9956 68.2439 49.7364 68.7289 50.4221 69.1898C51.1542 69.6819 52.4826 70.4212 53.4556 70.8845C53.9186 71.105 54.3437 71.3407 54.6438 71.5324C54.7939 71.6282 54.9143 71.7134 54.9833 71.7714L54.9885 71.7759C54.9875 71.7635 54.9864 71.7518 54.9853 71.7414C54.9841 71.7294 54.9828 71.719 54.9818 71.7108C54.9791 71.6874 54.9784 71.6819 54.9854 71.7082C54.9975 71.7539 55.0075 71.7858 55.0151 71.8073C55.0272 71.8257 55.0327 71.8415 55.0322 71.8443C55.0318 71.847 55.0258 71.8377 55.0151 71.8073C55.0119 71.8025 55.0083 71.7976 55.0043 71.7926C54.9996 71.787 54.9944 71.7813 54.9885 71.7759C54.9899 71.7935 54.991 71.8128 54.9914 71.8326C54.9934 71.9289 54.9918 72.06 54.9854 72.2118C54.9726 72.5154 54.9425 72.9006 54.8995 73.2804C54.8099 74.0716 54.6403 75.7358 54.5221 76.9938C54.4636 77.6164 54.3997 78.2134 54.3423 78.6707C54.3136 78.8993 54.2868 79.0933 54.2645 79.2336C54.2611 79.2548 54.2605 79.262 54.2601 79.2669C54.2596 79.273 54.2594 79.2754 54.2544 79.2968C54.1766 79.3033 54.0553 79.31 53.8131 79.283C52.7502 79.1645 50.9328 79.302 48.7725 79.5852C46.6122 79.8684 44.144 80.3068 41.9245 80.8296C41.2125 80.9974 40.5498 81.1348 40.0652 81.2207C40.0198 81.2288 39.988 81.233 39.956 81.2373C39.9324 81.2405 39.9088 81.2436 39.8795 81.2484C39.9364 81.009 40.0067 80.7361 40.1092 80.4227C41.4068 76.4538 41.7869 75.157 41.5011 74.1574L41.4891 74.1179L41.4731 74.0824C41.1796 73.4524 40.9799 73.0515 40.7682 72.761C40.6623 72.6158 40.5518 72.4864 40.3708 72.3916C40.1897 72.2969 39.9281 72.2867 39.7537 72.3502C39.4829 72.4487 39.3494 72.5893 39.2109 72.7352C39.1711 72.7772 39.1308 72.8197 39.0867 72.8617C38.9266 73.0142 38.7114 73.1758 38.4736 73.3338C38.0498 73.3175 37.1601 73.0534 34.4775 71.9294C34.1628 71.7976 33.8524 71.6766 33.5968 71.5877C33.4689 71.5432 33.3543 71.5071 33.2553 71.4791C33.2352 71.4734 33.2175 71.4677 33.2006 71.4623C33.1341 71.4411 33.0798 71.4238 32.9397 71.4238C32.9019 71.4238 32.6423 71.3811 32.2987 71.2756C31.9551 71.1702 31.5034 71.0094 30.9667 70.7976C29.8932 70.3741 28.4714 69.7484 26.7908 68.9587C26.3159 68.7355 25.8695 68.5344 25.5307 68.3859C25.3613 68.3116 25.2197 68.2505 25.1093 68.2061C25.0541 68.1839 25.0078 68.1662 24.9635 68.1508C24.9504 68.1463 24.9374 68.1422 24.9231 68.138C24.9133 68.1351 24.9029 68.1322 24.8916 68.1291C24.8859 68.1275 24.881 68.1256 24.8756 68.1235C24.8658 68.1197 24.8547 68.1154 24.8355 68.112C24.8396 68.1143 24.8325 68.1161 24.8297 68.1153L24.8275 68.1147C24.8231 68.1134 24.8154 68.1112 24.8052 68.108C24.7869 68.1064 24.7638 68.1054 24.7339 68.1054C24.7645 68.1054 24.7864 68.106 24.8019 68.107C24.7938 68.1044 24.7844 68.1013 24.7738 68.0975C24.7162 68.077 24.6287 68.0431 24.5242 68.0007C24.3151 67.916 24.0362 67.7966 23.7453 67.665C23.4379 67.5259 23.1322 67.3997 22.8766 67.3055C22.7488 67.2584 22.633 67.2189 22.5311 67.1889C22.5126 67.1835 22.4957 67.1781 22.4794 67.1728C22.406 67.1493 22.3449 67.1297 22.2036 67.1297C22.2574 67.1297 22.0762 67.0597 22.1117 67.0922C21.9516 66.9456 21.8428 66.9035 21.7023 66.849C21.6697 66.8364 21.6355 66.8231 21.5985 66.8077C21.4018 66.7259 21.1704 66.6428 20.9355 66.5727C20.5322 66.4524 19.8785 66.2118 19.5575 66.069C19.102 65.8664 18.4298 65.7573 17.7801 65.674C17.4552 65.6323 17.1518 65.6044 16.9034 65.6009C16.7792 65.5991 16.673 65.5998 16.5519 65.6206C16.4916 65.631 16.4265 65.6423 16.3262 65.6957C16.2255 65.7494 16.0326 65.9261 16.0326 66.1717L16.0506 66.3041C16.0506 66.3041 16.0715 66.3678 16.0826 66.391C16.1047 66.4374 16.1258 66.4662 16.1425 66.4877C16.1756 66.5305 16.1958 66.5483 16.2139 66.5644C16.2472 66.5938 16.271 66.6101 16.2936 66.6254L16.3002 66.63C16.3496 66.6636 16.3997 66.6927 16.462 66.7287C16.5865 66.8008 16.7523 66.8922 16.9573 66.9993C17.3672 67.2136 17.9263 67.4934 18.5409 67.7894C19.7563 68.3747 21.0337 69.0227 21.2149 69.1306C21.4356 69.2619 21.9947 69.5393 22.8819 69.9795L22.9584 70.0174C23.89 70.4797 25.1051 71.0764 26.3814 71.6964C30.8114 73.8486 32.3119 74.6124 36.0052 76.6029L37.3472 77.3278L37.2753 77.8394C37.2211 78.2304 36.9975 78.9968 36.822 79.384C36.6071 79.8579 36.3771 80.4313 36.2788 80.7627C36.2171 80.9707 35.9694 81.6249 35.7596 82.1157C35.5987 82.4919 35.4961 82.6615 35.3881 82.7655C35.2801 82.8696 35.1166 82.9598 34.743 83.0993C34.222 83.2939 33.5996 83.553 33.2793 83.7156C33.1712 83.7704 33.0366 83.8266 32.9238 83.8637C32.8618 83.8841 32.7979 83.8964 32.7618 83.9034C32.7321 83.9092 32.7213 83.9112 32.746 83.9111C32.4833 83.9123 32.3331 83.9751 32.1203 84.064C32.0747 84.0831 32.0262 84.1033 31.9732 84.1245C31.6725 84.244 31.3007 84.4099 30.8768 84.6104C30.0289 85.0112 28.9721 85.5517 27.9031 86.1234C26.8341 86.6951 25.7542 87.2974 24.8676 87.824C24.0268 88.3233 23.4243 88.7117 23.0482 89.0348C23.0345 88.7386 23.0206 88.4135 23.0303 87.9919V87.9899C23.054 86.654 22.763 85.0507 21.7022 83.5458L21.3608 83.0618L20.9294 83.4668C20.7611 83.6247 20.6455 83.797 20.516 83.99C20.4833 84.0387 20.4497 84.0888 20.4141 84.1403C20.2379 84.3956 20.0363 84.6773 19.7971 84.9343C19.3185 85.4484 18.7375 85.854 17.8399 85.833L17.798 85.831L17.758 85.837C16.8839 85.9572 15.2862 86.1918 14.1973 86.3604C13.2609 86.5054 11.5341 86.5996 9.97347 86.6172C9.1931 86.626 8.45032 86.6178 7.86253 86.5895C7.27479 86.5614 6.78709 86.4833 6.7522 86.471L6.71826 86.4592L6.68231 86.4513C5.92177 86.3007 5.38533 86.2864 4.95481 86.3604C4.56745 86.427 4.28543 86.5644 4.06258 86.673L4.05961 86.6744C4.03582 86.686 4.01272 86.6973 3.99023 86.7081C3.75657 86.8202 3.58336 86.8988 3.23933 86.9273C2.89526 86.9558 2.37494 86.9223 1.54782 86.7357L1.50988 86.7258L1.47193 86.7238C0.891259 86.6821 0.487354 86.6579 0.177866 86.6606C0.166766 86.6607 0.158007 86.6636 0.149312 86.6666C0.140835 86.6694 0.269422 88.5887 0.258952 88.5888ZM51.8202 82.9336V82.9316C52.3632 82.9269 52.8719 82.9312 53.2442 82.9452C53.2841 82.9467 53.3118 82.9487 53.3398 82.9509C53.359 82.9523 53.3784 82.9538 53.402 82.9551C53.4013 82.9602 53.4007 82.9647 53.4002 82.969C53.3995 82.9758 53.3989 82.9817 53.3984 82.9877C53.3984 82.9881 53.3984 82.9884 53.3983 82.9888C53.3981 82.9914 53.3979 82.994 53.3977 82.9967C53.3972 83.0017 53.3966 83.0071 53.3959 83.0132C53.3954 83.0172 53.3947 83.0214 53.394 83.0262C53.3438 83.3503 53.2579 83.7981 53.1524 84.2764C52.8297 85.7388 52.6453 86.7621 52.5932 87.5375C52.5411 88.3128 52.6235 88.8786 52.9067 89.3211C53.2412 89.8437 53.5868 90.233 53.9692 90.4885C54.3516 90.7439 54.8118 90.8603 55.2353 90.7294C55.6589 90.5985 55.9708 90.26 56.18 89.8386C56.3891 89.4172 56.5154 88.893 56.5754 88.2545C56.6218 87.7609 56.8448 86.416 57.0706 85.2107C57.1836 84.6081 57.2987 84.0325 57.3922 83.6009C57.4226 83.4604 57.4455 83.3644 57.4703 83.2607L57.472 83.2533C57.5025 83.2575 57.5298 83.261 57.5573 83.2645C57.6047 83.2707 57.6529 83.2769 57.7197 83.2869C58.1335 83.3487 58.7007 83.4401 59.3094 83.5436C60.5266 83.7506 61.9183 84.005 62.5746 84.15C63.8218 84.4256 65.4606 84.9977 67.1119 85.742C67.673 85.9949 68.0322 86.1835 68.2063 86.3069C68.2652 86.3487 68.2969 86.373 68.3129 86.3848C68.3149 86.3708 68.3161 86.3576 68.3161 86.3464C68.3161 86.3716 68.3297 86.3914 68.3274 86.3934C68.3274 86.3934 68.3224 86.3917 68.3129 86.3848C68.3083 86.4167 68.2994 86.4522 68.2908 86.4749C68.3085 86.4621 68.3308 86.4473 68.36 86.4294C68.3235 86.4517 68.3018 86.4678 68.2894 86.4785C68.2853 86.4882 68.2792 86.4938 68.2766 86.4948C68.2736 86.4959 68.2752 86.4908 68.2894 86.4785L68.2901 86.4768L68.2908 86.4749C68.2542 86.5016 68.2375 86.5197 68.2197 86.5391C68.2125 86.5469 68.2052 86.5549 68.1963 86.5637C68.1545 86.6051 68.1107 86.651 68.0585 86.7079C67.9541 86.8216 67.8216 86.9723 67.6691 87.1503C67.3639 87.5064 66.9754 87.9749 66.5707 88.4777L66.5686 88.4797C65.158 90.2483 63.7202 92.395 64.1522 94.8635L64.1762 94.9939L64.26 95.0955C64.5792 95.4854 65.0456 95.6621 65.5102 95.7117C65.9747 95.7614 66.4687 95.6874 66.8602 95.3661C67.0468 95.2129 67.1446 95.062 67.2772 94.8576L67.3255 94.7834C67.4846 94.5401 67.6552 94.2497 67.8088 93.9558C68.0732 93.4496 68.6831 92.5111 69.1068 91.9647C69.5566 91.3849 70.2799 90.4521 70.7145 89.8888C71.8534 88.4128 72.5766 87.5525 72.9952 87.1473C73.0064 87.189 73.0121 87.2311 73.0178 87.2736C73.0315 87.3759 73.0456 87.4807 73.1389 87.5878C73.1053 87.5492 73.1145 87.5648 73.1413 87.6104C73.1665 87.6534 73.2073 87.723 73.2428 87.7991C73.3159 87.9561 73.4088 88.1757 73.5144 88.4351C73.7256 88.9539 73.9853 89.6375 74.2493 90.3649C74.7772 91.8198 75.3251 93.4638 75.5394 94.2995C75.7712 95.2034 75.8599 96.7151 75.801 97.9951C75.7715 98.6351 75.7073 99.2234 75.6193 99.6444C75.5752 99.8549 75.5239 100.024 75.4815 100.122C75.4691 100.151 75.4604 100.162 75.4519 100.172L75.4475 100.178C75.396 100.196 75.1222 100.289 74.7386 100.371C74.3269 100.459 73.8021 100.552 73.2448 100.636C72.1303 100.803 70.873 100.936 70.1034 100.948C69.8155 100.951 69.4073 100.923 68.9575 100.891C68.7436 100.876 68.5203 100.861 68.296 100.847C67.6003 100.806 66.8987 100.78 66.3049 100.922C66.008 100.994 65.7132 101.107 65.4941 101.373C65.2751 101.638 65.2239 102.039 65.3244 102.382C65.5254 103.067 66.1348 103.761 67.3214 104.81L67.3434 104.831L67.3693 104.849C67.7302 105.096 68.05 105.277 68.4497 105.365C68.8494 105.453 69.2831 105.456 69.9715 105.446C70.3984 105.44 70.8294 105.425 71.1857 105.406C71.5419 105.387 71.7832 105.374 71.9865 105.333C72.1731 105.296 72.7632 105.199 73.2466 105.126C73.5492 105.08 73.7991 105.027 74.048 104.975L74.1473 104.954C74.0945 105.217 73.6928 106.301 73.2926 107.126C73.0831 107.558 72.8801 107.982 72.7214 108.321C72.5627 108.66 72.4589 108.884 72.4059 109.021C72.4129 109.002 72.3976 109.03 72.3669 109.087C72.3188 109.175 72.2332 109.331 72.1363 109.489C71.9773 109.747 71.7701 110.067 71.5571 110.383L71.5491 110.396C70.4977 112.063 69.4852 113.527 68.4207 115.066C67.6022 116.25 66.7529 117.478 65.8316 118.877L65.7497 119.003V119.051C65.7102 119.111 65.6326 119.214 65.524 119.347C65.3068 119.614 64.9618 120.007 64.4835 120.53L64.4395 120.578C64.3564 120.669 64.3162 120.713 64.3118 120.721C64.3226 120.719 64.3196 120.718 64.3138 120.722C64.3115 120.723 64.3108 120.723 64.3118 120.721C64.2952 120.725 64.2464 120.731 64.1261 120.73C63.75 120.726 62.8666 120.61 61.0395 120.369L60.707 120.325C59.9785 120.23 57.9793 120 55.9801 120.011C54.9805 120.016 53.981 120.081 53.1223 120.264C52.2636 120.446 51.5097 120.726 51.0773 121.344L50.8417 121.68L51.1232 121.978C52.1431 123.058 53.3268 123.52 55.5527 123.756C57.9828 124.014 59.4614 124.191 60.2977 124.345C60.438 124.37 60.5039 124.39 60.5728 124.411C60.6045 124.421 60.6367 124.431 60.6771 124.441C60.6545 124.457 60.6331 124.472 60.6119 124.487C60.5524 124.528 60.4935 124.569 60.4095 124.633C59.9926 124.95 59.3559 125.461 58.3545 126.278C56.9519 127.421 55.0406 128.911 52.9924 130.006L52.9725 130.016L52.9565 130.026C51.3197 131.084 51.2169 131.148 49.9929 131.784C49.6609 131.956 49.3618 132.138 49.1282 132.307L49.1242 132.311C49.1066 132.269 49.0907 132.237 49.0755 132.207C49.0506 132.157 49.0273 132.11 49.0004 132.027L48.9844 131.974L48.9544 131.924C48.3478 130.91 47.3043 130.239 46.2065 129.674C45.6775 129.403 45.1306 129.155 44.6032 128.916C44.036 128.66 43.4912 128.413 43.0152 128.158L42.9752 128.136L42.9333 128.122C42.8205 128.084 42.7697 128.089 42.7289 128.093C42.7209 128.093 42.7133 128.094 42.7056 128.094C42.6591 128.096 42.6229 128.101 42.5858 128.108C42.5116 128.121 42.4373 128.14 42.3521 128.163C42.1818 128.211 41.9752 128.279 41.749 128.369C41.2966 128.549 40.7728 128.8 40.359 129.155C40.1522 129.332 39.9647 129.538 39.8558 129.815C39.7468 130.091 39.7568 130.455 39.9197 130.747C40.2417 131.324 40.9246 131.665 42.1124 132.009C42.6227 132.195 43.5786 132.604 44.1754 132.892L44.1974 132.904L44.2213 132.914C44.5555 133.038 44.8715 133.09 45.1243 133.132C45.2569 133.154 45.3721 133.173 45.4635 133.198C45.5962 133.235 45.6669 133.276 45.7031 133.309C45.7316 133.335 45.7532 133.392 45.775 133.471C45.7712 133.497 45.7671 133.528 45.7637 133.555C45.7621 133.567 45.7606 133.579 45.7593 133.589C45.7591 133.59 45.7589 133.592 45.7587 133.593C45.7582 133.597 45.7577 133.601 45.7573 133.605L45.755 133.621L45.7568 133.621C45.7604 133.621 45.7631 133.621 45.6931 133.663C45.5159 133.769 44.9395 133.974 43.8079 134.342C42.5733 134.744 40.6156 135.325 39.4922 135.624L37.605 136.126L36.197 135.458V135.46C34.1561 134.491 32.06 133.691 30.3416 133.189C29.4824 132.937 28.7187 132.759 28.089 132.673C27.4592 132.587 26.9854 132.534 26.5293 132.776L26.1299 132.987L26.2936 133.406C26.351 133.552 26.4628 133.919 26.4394 134.174C26.4277 134.302 26.3934 134.389 26.3336 134.457C26.2737 134.525 26.1724 134.601 25.9202 134.646L25.5008 134.721V135.144C25.5008 135.394 25.59 135.495 25.6665 135.582C25.6733 135.59 25.68 135.597 25.6865 135.605C25.6869 135.605 25.6873 135.606 25.6877 135.606C25.69 135.609 25.6923 135.611 25.6945 135.614C25.7753 135.71 25.8649 135.791 25.9661 135.875C26.0949 135.982 26.2585 136.089 26.4216 136.195L26.4813 136.234C26.3956 136.215 26.34 136.206 26.2846 136.198C26.2187 136.188 26.1533 136.178 26.038 136.149C22.4268 135.258 18.9878 133.881 17.4007 132.754C17.1672 132.588 16.5875 132.064 15.9568 131.433C15.3261 130.802 14.6175 130.049 14.0216 129.365C12.8495 128.019 11.8835 126.242 11.2198 124.178C10.8389 122.993 10.1949 121.016 9.78393 119.779L9.06299 117.612V114.085C9.06299 112.284 9.02667 111.406 9.1977 110.57C9.41914 109.487 9.98814 108.476 11.4335 105.627C12.0011 104.508 12.8056 103.176 13.5085 102.139C13.8599 101.62 14.1862 101.172 14.4371 100.868C14.5625 100.717 14.6716 100.602 14.7387 100.541C14.7462 100.534 14.7534 100.527 14.7598 100.522C14.732 100.528 14.7035 100.533 14.6743 100.536C14.7343 100.53 14.7648 100.515 14.7798 100.505C14.7831 100.503 14.7856 100.501 14.7876 100.5C14.7892 100.498 14.7904 100.497 14.7913 100.496L14.7926 100.495C14.7926 100.495 14.7931 100.495 14.7913 100.496C14.7904 100.497 14.7892 100.498 14.7876 100.5C14.7856 100.501 14.7831 100.503 14.7798 100.505C14.7744 100.51 14.7676 100.515 14.7598 100.522C15.0066 100.465 15.1953 100.271 15.2566 100.036C15.2475 100.048 15.2405 100.058 15.2359 100.065C15.2372 100.062 15.2391 100.06 15.2413 100.057C15.2464 100.05 15.2534 100.041 15.2599 100.023C15.2717 99.9735 15.2779 99.9227 15.2779 99.871C15.2779 99.9523 15.2694 99.9966 15.2599 100.023L15.2566 100.036C15.2725 100.015 15.2947 99.9859 15.3218 99.952C15.4094 99.8423 15.5458 99.6836 15.7112 99.4977C16.042 99.1261 16.4918 98.6432 16.9474 98.1685C17.3716 97.7264 17.7886 97.3057 18.1337 96.9695L18.1236 97.0681C18.0974 97.325 18.0708 97.5868 17.9979 97.8465C17.9117 98.1536 17.8639 98.5847 17.8182 99.1402C17.7724 99.6957 17.7399 100.347 17.7323 100.969L17.7043 103.407L18.8906 104.517C19.4259 105.017 19.8902 105.358 20.3705 105.524C20.8508 105.69 21.4204 105.604 21.7724 105.255L21.9262 105.103L21.9242 104.89C21.9121 103.969 21.8379 103.115 21.7652 102.277C21.6186 100.589 21.4777 98.9662 21.8623 96.9952L21.8643 96.9851L21.8663 96.9732C22.1813 94.8859 22.3568 93.7553 22.4715 93.1966C22.4922 93.0957 22.4963 93.0826 22.5063 93.051C22.5093 93.0416 22.5128 93.0305 22.5174 93.0149C22.5609 93.0069 22.6072 93.0024 22.6492 92.9912C22.812 92.9478 22.9788 92.8839 23.1465 92.8075C23.3141 92.7311 23.4795 92.6429 23.6298 92.5468L23.6313 92.5458C23.7809 92.4501 23.9126 92.3659 24.0411 92.1893C24.0389 92.1923 24.0456 92.1861 24.0599 92.1728C24.1047 92.1312 24.2245 92.02 24.3826 91.9029C24.5914 91.7483 24.8758 91.5565 25.2114 91.3439C25.8826 90.9188 26.7581 90.4081 27.6818 89.9001C29.529 88.8839 31.6058 87.8658 32.5546 87.5515C33.038 87.3914 33.5749 87.1735 33.9645 86.9906C33.473 89.3313 33.1934 91.1792 33.1676 92.5863C33.1525 93.4142 33.1446 93.877 33.2335 94.2889C33.3224 94.7009 33.5361 95.0021 33.8027 95.318C34.4946 96.1378 35.2114 96.6175 36.0174 96.6296C36.0382 96.63 36.0605 96.633 36.0855 96.6364C36.1781 96.6489 36.3067 96.6662 36.5227 96.5743C36.6598 96.5159 36.7896 96.3873 36.8562 96.2681C36.9227 96.1489 36.9506 96.042 36.972 95.9264C37.0362 95.5793 37.0474 95.0996 37.0612 94.2228C37.0621 94.1643 37.063 94.104 37.064 94.042C37.0678 93.7955 37.0721 93.52 37.0779 93.2105C37.1033 91.8406 37.2694 90.1706 37.4413 89.4103C37.6514 88.481 37.9253 87.4506 38.1683 86.6352C38.2897 86.2275 38.4036 85.872 38.4958 85.616C38.5419 85.488 38.5819 85.3843 38.6116 85.3177C38.615 85.3103 38.6178 85.3088 38.6216 85.3019L38.6149 85.3041C38.593 85.3147 38.5768 85.3271 38.571 85.3318C38.5756 85.3277 38.5876 85.3165 38.6089 85.2942C38.6428 85.2588 38.656 85.246 38.656 85.246C38.656 85.246 38.6384 85.2713 38.6216 85.3019C38.6712 85.2782 38.7503 85.2448 38.8533 85.2071C39.0643 85.1299 39.3668 85.034 39.732 84.9306C40.4623 84.7238 41.4457 84.4813 42.5239 84.2393C44.6804 83.7552 47.2256 83.272 48.9245 83.062C49.4899 82.9921 50.7344 82.9431 51.8202 82.9336ZM75.4351 100.197C75.4351 100.197 75.4393 100.189 75.4469 100.179C75.4482 100.179 75.4547 100.177 75.4627 100.175C75.478 100.171 75.4989 100.165 75.4989 100.165L75.4897 100.17C75.451 100.191 75.4366 100.199 75.4351 100.197Z" fill="#DE3232"/>
<path fill-rule="evenodd" clip-rule="evenodd" d="M55.0043 71.7926C55.0083 71.7976 55.0119 71.8025 55.0151 71.8073C55.0258 71.8377 55.0318 71.847 55.0322 71.8443C55.0327 71.8415 55.0272 71.8257 55.0151 71.8073C55.0075 71.7858 54.9975 71.7539 54.9854 71.7082C54.9784 71.6819 54.9791 71.6874 54.9818 71.7108C54.9828 71.719 54.9841 71.7294 54.9853 71.7414C54.9864 71.7518 54.9875 71.7635 54.9885 71.7759C54.9944 71.7813 54.9996 71.787 55.0043 71.7926ZM91.9148 98.7806C92.036 98.7806 92.139 98.7409 92.2303 98.6895L92.2303 98.664C92.2303 98.6338 92.2402 98.6082 92.2397 98.6081C92.2396 98.608 92.2386 98.6101 92.2364 98.6147C92.226 98.6353 92.1409 98.7806 91.9148 98.7806ZM75.0648 110.598C75.0644 110.609 75.0639 110.618 75.0632 110.626L75.0575 110.639C75.049 110.659 75.0586 110.686 75.0632 110.626L75.0637 110.625C75.0649 110.604 75.0655 110.58 75.0655 110.553C75.0655 110.57 75.0652 110.585 75.0648 110.598ZM73.8803 112.869C73.8793 112.892 73.8777 112.911 73.8757 112.928C73.8687 112.942 73.8625 112.955 73.8586 112.963L73.8535 112.974L73.8593 112.956C73.8602 112.954 73.8614 112.951 73.8629 112.948C73.8697 112.935 73.8813 112.911 73.8813 112.816C73.8813 112.836 73.8809 112.853 73.8803 112.869ZM69.9266 119.193C69.9191 119.207 69.9132 119.218 69.9092 119.226C69.9118 119.214 69.9148 119.203 69.9178 119.192C69.9266 119.161 69.9353 119.13 69.9353 119.07C69.9353 119.133 69.9315 119.17 69.9266 119.193ZM68.5582 121.67C68.5582 121.67 68.5539 121.662 68.5472 121.655C68.5423 121.65 68.5458 121.651 68.5586 121.657C68.559 121.666 68.5582 121.67 68.5582 121.67ZM68.3433 125.465C68.3489 125.473 68.3495 125.475 68.345 125.472C68.3411 125.464 68.3404 125.461 68.3433 125.465ZM65.8885 124.984C65.8885 124.984 65.8805 124.986 65.8642 124.99C65.8447 124.979 65.8232 124.967 65.7991 124.952C65.8509 124.984 65.8885 124.984 65.8885 124.984ZM57.9046 131.215L57.8782 131.234L57.8447 131.251L57.9046 131.215ZM38.6216 85.3019C38.6384 85.2713 38.656 85.246 38.656 85.246C38.656 85.246 38.6428 85.2588 38.6089 85.2942C38.5876 85.3165 38.5756 85.3277 38.571 85.3318C38.5768 85.3271 38.593 85.3147 38.6149 85.3041L38.6216 85.3019ZM53.3983 82.9888C53.3984 82.9884 53.3984 82.9881 53.3984 82.9877C53.3989 82.9817 53.3995 82.9758 53.4002 82.969C53.3994 82.9762 53.3989 82.9825 53.3983 82.9888ZM68.3129 86.3848C68.3224 86.3917 68.3274 86.3934 68.3274 86.3934C68.3297 86.3914 68.3161 86.3716 68.3161 86.3464C68.3161 86.3576 68.3149 86.3708 68.3129 86.3848ZM68.2908 86.4749L68.2901 86.4768L68.2894 86.4785C68.2752 86.4908 68.2736 86.4959 68.2766 86.4948C68.2792 86.4938 68.2853 86.4882 68.2894 86.4785C68.3018 86.4678 68.3235 86.4517 68.36 86.4294C68.3308 86.4473 68.3085 86.4621 68.2908 86.4749ZM64.3138 120.722C64.3115 120.723 64.3108 120.723 64.3118 120.721C64.3226 120.719 64.3196 120.718 64.3138 120.722ZM45.7587 133.593L45.7593 133.589C45.7606 133.579 45.7621 133.567 45.7637 133.555C45.7618 133.569 45.7601 133.582 45.7587 133.593ZM25.6877 135.606C25.6873 135.606 25.6869 135.605 25.6865 135.605C25.68 135.597 25.6733 135.59 25.6665 135.582C25.6736 135.59 25.6809 135.598 25.6877 135.606ZM14.7598 100.522C14.7676 100.515 14.7744 100.51 14.7798 100.505C14.7831 100.503 14.7856 100.501 14.7876 100.5C14.7892 100.498 14.7904 100.497 14.7913 100.496C14.7893 100.498 14.7855 100.502 14.7798 100.505C14.7648 100.515 14.7343 100.53 14.6743 100.536C14.7035 100.533 14.732 100.528 14.7598 100.522ZM15.2566 100.036L15.2599 100.023C15.2694 99.9966 15.2779 99.9523 15.2779 99.871C15.2779 99.9227 15.2717 99.9735 15.2599 100.023C15.2534 100.041 15.2464 100.05 15.2413 100.057C15.2391 100.06 15.2372 100.062 15.2359 100.065C15.2405 100.058 15.2475 100.048 15.2566 100.036ZM75.4469 100.179C75.4393 100.189 75.4351 100.197 75.4351 100.197C75.4366 100.199 75.451 100.191 75.4897 100.17L75.4989 100.165C75.4989 100.165 75.478 100.171 75.4627 100.175C75.4547 100.177 75.4482 100.179 75.4469 100.179Z" fill="#DE3232"/>
</svg>
