<svg version="1.1" viewBox="0 0 10 10" xmlns="http://www.w3.org/2000/svg">
<g transform="translate(-.26114 7.9829)">
<path fill="#fff" d="m4.5286 2.0051c-0.44262-0.039748-1.2142-0.26019-1.3146-0.37561-0.023366-0.026845-0.042882-0.032309-0.043369-0.012142-0.00112 0.046284-1.0694-0.40998-1.3014-0.55585-0.095135-0.059804-0.2072-0.14677-0.24903-0.19326-0.041834-0.04649-0.10481-0.084527-0.13995-0.084527-0.068332 0-0.44986-0.3379-0.44993-0.39848-9.68e-5 -0.078761-0.020633-0.11894-0.20366-0.39848-0.10436-0.15939-0.27453-0.5289-0.37817-0.82112-0.17087-0.48183-0.18831-0.58979-0.18726-1.1592 6.3627e-4 -0.34535 0.041188-0.83586 0.09011-1.09 0.092293-0.47947 0.43338-1.2817 0.8118-1.9094 0.55605-0.9223 1.9521-2.1523 2.9951-2.6388 0.50808-0.23698 0.91009-0.32467 1.5541-0.33897l0.54755-0.012161 0.12263 0.1932c0.073368 0.11559 0.10004 0.20565 0.066386 0.22417-0.0339 0.018665-0.018732 0.075708 0.038178 0.14358 0.1297 0.15468 0.12015 0.23259-0.024642 0.20096-0.086639-0.018925-0.12756 0.00113-0.15026 0.073633-0.017157 0.054802-0.067662 0.11133-0.11223 0.12562-0.044571 0.014287-0.08104 0.059261-0.08104 0.099944 0 0.040682-0.026021 0.073967-0.057825 0.073967s-0.057825 0.035508-0.057825 0.078908c0 0.043399-0.061399 0.12491-0.13644 0.18113-0.075044 0.056222-0.21166 0.22177-0.30358 0.36788-0.091927 0.14611-0.19967 0.28304-0.23942 0.30428-0.039754 0.021245-0.072281 0.066781-0.072281 0.10119 0 0.034411-0.052961 0.1026-0.11769 0.15153-0.064729 0.048931-0.10458 0.11751-0.088553 0.15239 0.016026 0.034883 0.00393 0.063424-0.026873 0.063424-0.030806 0-0.051879 0.016301-0.04683 0.036225 0.014266 0.056292-0.075463 0.22056-0.17149 0.31396-0.047801 0.04649-0.069199 0.084527-0.047551 0.084527s-0.00575 0.07064-0.060895 0.15698c-0.05514 0.086338-0.10262 0.16785-0.10552 0.18113-0.026375 0.12095-0.10413 0.23801-0.14431 0.21727-0.027316-0.014102-0.06601-0.00355-0.085987 0.023449s-0.00226 0.049422 0.039373 0.049829c0.046228 4.564e-4 0.053184 0.014553 0.017869 0.036226-0.031804 0.019517-0.058251 0.057221-0.058771 0.083787-0.00257 0.13127-0.15946 0.40808-0.21504 0.37939-0.035636-0.018397-0.045402-0.00949-0.022918 0.020896 0.060924 0.082341-0.09595 0.44449-0.19441 0.4488-0.059341 0.0026-0.06407 0.01158-0.014833 0.028176 0.039755 0.0134 0.072281 0.046612 0.072281 0.073806s-0.044744 0.035102-0.099431 0.017573-0.081624-0.016997-0.059859 0.00118c0.021764 0.018179 0.01187 0.07629-0.021988 0.12913-0.047421 0.074013-0.045016 0.08754 0.010468 0.058896 0.054012-0.027883 0.061987-0.00377 0.031886 0.096409-0.022077 0.073475-0.055062 0.19591-0.073299 0.27208-0.018237 0.076166-0.054213 0.12761-0.079947 0.11433-0.025734-0.013285-0.065618 0.00129-0.088631 0.032398-0.027235 0.036808-0.016679 0.043561 0.030237 0.019341 0.056216-0.02902 0.063235 0.031774 0.031895 0.27623-0.047895 0.37358-0.00704 0.45298 0.32967 0.64061 0.13707 0.076381 0.27894 0.16813 0.31526 0.20389 0.079023 0.077782 1.1201 0.38258 1.5426 0.45162 0.63879 0.10439 2.3221 0.036767 3.2707-0.13139l0.42686-0.075666 0.13928 0.12546c0.076602 0.069005 0.18708 0.12546 0.24551 0.12546 0.14569 0 0.23635 0.10389 0.25895 0.29672 0.01045 0.089176 0.03747 0.19821 0.06005 0.2423 0.02967 0.057936 0.0038 0.090051-0.09323 0.11582-0.12847 0.034115-0.12928 0.03718-0.01864 0.070674 0.10213 0.03092 0.09037 0.045219-0.10061 0.12232-0.11894 0.048018-0.23129 0.12686-0.24965 0.1752-0.018368 0.048339-0.069758 0.08789-0.1142 0.08789-0.093125 0-0.21539 0.16469-0.15791 0.2127 0.057282 0.047851-0.38526 0.3554-1.0546 0.73288-0.15645 0.088238-0.61591 0.25163-0.79651 0.28325-0.086395 0.015127-0.26241 0.068998-0.41781 0.12788-0.063608 0.0241-0.16769 0.051409-0.2313 0.060689-0.063607 0.00928-0.1807 0.039032-0.26021 0.066115-0.85871 0.2925-1.6304 0.4193-2.2263 0.36579zm-0.54934-0.46987c0-0.011714-0.026021-0.034733-0.057825-0.051152-0.031803-0.016419-0.057825-0.00683-0.057825 0.0213 0 0.028134 0.026021 0.051152 0.057825 0.051152s0.057825-0.00959 0.057825-0.0213zm-1.2143-0.33637c0-0.036318-0.51145-0.27025-0.58855-0.2692-0.042042 5.7191e-4 0.066676 0.064456 0.2416 0.14196 0.35475 0.15718 0.34695 0.15432 0.34695 0.12724zm0.52043-0.31213c0-0.057347-0.39185-0.26776-0.62162-0.33379-0.30486-0.087613-0.21554 0.015634 0.17347 0.20053 0.38125 0.18121 0.44814 0.2011 0.44814 0.13326zm3.9032-0.05472c0.019656-0.026566 0.00818-0.048301-0.025499-0.048301-0.033681 0-0.061238 0.021735-0.061238 0.048301s0.011474 0.048301 0.025499 0.048301 0.041583-0.021736 0.061237-0.048301zm-0.34274-0.37052c-0.027097-0.058981-0.0521-0.06286-0.11667-0.018101-0.070512 0.048882-0.068363 0.070525 0.01514 0.15246 0.083538 0.081969 0.10006 0.084533 0.11667 0.018101 0.010641-0.042564 0.00383-0.11117-0.015139-0.15246zm-4.9131-0.23719c-0.019305-0.042021-0.0351-0.094234-0.0351-0.11603 0-0.040984-0.31549-0.14707-0.42786-0.14386-0.072213 0.0020572 0.37206 0.33447 0.4485 0.33558 0.027256 3.8705e-4 0.033761-0.033662 0.014457-0.075684zm-0.4977-0.38883c0-0.1037-0.21185-0.38762-0.31355-0.42022-0.15037-0.048198-0.14098 0.025528 0.033391 0.26224 0.1779 0.24151 0.28016 0.29917 0.28016 0.15797zm3.2384-0.57305c-0.074577-0.066309-0.14834-0.10992-0.16391-0.096908-0.028203 0.023557 0.21198 0.21747 0.26936 0.21747 0.01658 0-0.030873-0.054253-0.10545-0.12056zm1.0406 0.10158c0-0.010441-0.039032-0.031494-0.086738-0.046786-0.047705-0.015291-0.086737-0.006749-0.086737 0.018983 0 0.025732 0.039032 0.046786 0.086737 0.046786 0.047706 0 0.086738-0.008543 0.086738-0.018983zm-1.376-0.36712c-0.10939-0.16058-0.19299-0.19064-0.16875-0.060681 0.023441 0.12567 0.095813 0.20528 0.18662 0.20528 0.064985 0 0.061517-0.028065-0.017869-0.1446zm-0.83715-0.34659c-0.090591-0.046767-0.1104-0.022775-0.064217 0.077762 0.029745 0.064747 0.048777 0.069282 0.085046 0.020263 0.027036-0.03654 0.018259-0.077847-0.020829-0.098025zm-0.056922-1.4362c-0.016307-0.72689-0.09853-0.74395-0.099833-0.020715-7.975e-4 0.44216 0.027894 0.64394 0.091564 0.64394 0.012238 0 0.015959-0.28045 0.00827-0.62323zm0.18841 0.40017c0-0.039849-0.026021-0.059019-0.057825-0.0426s-0.057825 0.062455-0.057825 0.1023c0 0.039849 0.026022 0.059019 0.057825 0.0426s0.057825-0.062455 0.057825-0.1023zm-2.4599-0.72561c0.020891-0.093019 0.053986-0.20396 0.073545-0.24653 0.026487-0.057655 0.010867-0.069492-0.061216-0.046387-0.12915 0.041396-0.12416 0.0091 0.068905-0.44663 0.091125-0.2151 0.14317-0.40271 0.11565-0.41691-0.027517-0.014206-0.050031 0.00749-0.050031 0.048216 0 0.040725-0.074954 0.23219-0.16656 0.42549-0.091609 0.19329-0.18435 0.46082-0.20608 0.59451-0.035655 0.2193-0.028403 0.24377 0.074144 0.25022 0.086676 0.00545 0.12268-0.033005 0.15165-0.16197zm1.6851-1.4445c0.020328-0.067651 0.018696-0.13826-0.00363-0.1569-0.059572-0.04976-0.202 0.13277-0.16553 0.21215 0.048648 0.10589 0.12859 0.079787 0.16916-0.055245zm1.9891-1.3002c0-0.038913-0.049441-0.092854-0.10987-0.11987-0.14494-0.064795-0.21812 0.070199-0.07566 0.13957 0.13819 0.067294 0.18553 0.062265 0.18553-0.019705zm-1.0842-0.8659c0.055656-0.035291 0.10119-0.07807 0.10119-0.095066 0-0.066537-0.16098-0.025892-0.26021 0.065701-0.12371 0.11419-0.00835 0.13549 0.15902 0.029365z">
<animate attributeName="display" values="inline;none;none" keyTimes="0;0.5;1" dur="0.5s" begin="0s" repeatCount="indefinite" />
</path>
<path fill="#fff" d="m2.0166-5.9575c-0.33368 0.32128-0.81192 0.99943-0.81486 1.1555-6.896e-4 0.036294-0.012865 0.053359-0.027032 0.037936-0.032575-0.035437-0.59142 1.0216-0.68082 1.2877-0.036656 0.10911-0.068526 0.25055-0.070826 0.3143-0.00231 0.063754-0.027627 0.13478-0.056274 0.15782-0.055711 0.044805-0.13561 0.559-0.09422 0.60639 0.053804 0.061606 0.064548 0.10647 0.10657 0.44491 0.023961 0.19298 0.138 0.59329 0.25343 0.88959 0.19032 0.48855 0.24995 0.58434 0.64038 1.0286 0.23678 0.26945 0.60541 0.62614 0.81917 0.79267 0.40326 0.31415 1.2302 0.7174 1.9681 0.95975 1.0843 0.35611 3.064 0.40185 4.2472 0.098138 0.57637-0.14796 2.0204-1.1806 1.4989-0.7541l0.45474-0.34951-0.03219-0.23138c-0.01926-0.13843-0.05913-0.22629-0.09924-0.2187-0.04041 0.0076504-0.06707-0.046876-0.0671-0.13722-7.2e-5 -0.20591-0.06116-0.26053-0.15757-0.14088-0.057691 0.071596-0.10478 0.082757-0.17288 0.040986-0.051481-0.031573-0.13133-0.042629-0.17744-0.024568-0.046112 0.018061-0.10661 0.0068242-0.13445-0.024961-0.027832-0.03179-0.071817-0.040737-0.097749-0.019884-0.025931 0.020853-0.071436 0.01017-0.10113-0.023745-0.029691-0.033913-0.13551-0.057346-0.23516-0.052074-0.099647 0.005274-0.32428-0.034514-0.49919-0.088412-0.17491-0.053898-0.35642-0.090252-0.40337-0.080786-0.046948 0.009466-0.10462-0.004794-0.12816-0.031678-0.023542-0.026889-0.11337-0.045448-0.19962-0.041241-0.086249 0.004203-0.16565-0.023251-0.17645-0.061016-0.010796-0.037766-0.040185-0.052137-0.0653-0.03194-0.025117 0.020198-0.053449 0.021282-0.062963 0.002397-0.026882-0.053341-0.21242-0.12286-0.35461-0.13288-0.070778-0.004988-0.11425-0.020678-0.096595-0.034872 0.017644-0.014198-0.053015-0.051428-0.15704-0.08274-0.10402-0.031311-0.1985-0.063868-0.20995-0.072349-0.10425-0.07722-0.24773-0.11771-0.2663-0.075154-0.012623 0.028931-0.05139 0.046056-0.086149 0.038052-0.034759-0.007997-0.035653-0.037137-0.00199-0.064753 0.037377-0.030668 0.033401-0.046245-0.010217-0.040023-0.039281 0.0056-0.086639-0.006518-0.10524-0.026937-0.091902-0.10089-0.40919-0.21432-0.43487-0.15546-0.016467 0.037742-0.030524 0.037184-0.032981-0.00131-0.00666-0.10429-0.38231-0.28441-0.46554-0.22322-0.05016 0.036878-0.060159 0.032961-0.031368-0.012293 0.02325-0.036535 0.027043-0.083816 0.00844-0.10507-0.018603-0.02125-0.060494 0.00191-0.093089 0.051463-0.032592 0.049555-0.05492 0.066801-0.049611 0.038327 0.00531-0.028476-0.042515-0.067396-0.10627-0.08649-0.089296-0.026741-0.09659-0.038888-0.031758-0.052885 0.063112-0.013625 0.053117-0.037697-0.039958-0.096243-0.068265-0.042935-0.17892-0.11698-0.24589-0.16454-0.066978-0.047556-0.13151-0.06417-0.1434-0.036918-0.011895 0.027254-0.054382 0.042017-0.094426 0.032798-0.047386-0.010905-0.043399-0.023102 0.011423-0.034937 0.065686-0.014186 0.029819-0.066291-0.16297-0.23676-0.29463-0.26052-0.31563-0.34935-0.16948-0.71674 0.059498-0.14956 0.1124-0.31427 0.11755-0.36603 0.011215-0.11259 0.65152-1.0334 0.94875-1.3644 0.44939-0.50041 1.8681-1.5513 2.7565-2.0419l0.39979-0.22076 0.027719-0.18936c0.015245-0.10414 0.066695-0.2207 0.11433-0.25901 0.11878-0.095528 0.12163-0.23615 0.00812-0.40165-0.052492-0.076545-0.10505-0.17945-0.1168-0.22871-0.015446-0.064723-0.058507-0.072863-0.15525-0.029378-0.12807 0.057582-0.13083 0.055736-0.063547-0.042995 0.062115-0.091132 0.042744-0.09459-0.16571-0.029612-0.12981 0.040507-0.27535 0.052523-0.3234 0.026797-0.048047-0.025726-0.117-0.022941-0.15324 0.00622-0.075921 0.061061-0.28828 0.012536-0.27426-0.062673 0.013964-0.074954-0.55724-0.025104-1.3612 0.11877-0.18792 0.033631-0.6743 0.20722-0.84317 0.30097-0.080792 0.044821-0.26115 0.11814-0.42813 0.17403-0.068347 0.02287-0.17191 0.069742-0.2301 0.10424-0.058219 0.034447-0.17403 0.08799-0.25738 0.11896-0.90022 0.33447-1.6161 0.74139-2.0653 1.1739zm-0.12643 0.72735c0.00801 0.00918 0.00254 0.044209-0.012151 0.077882-0.014654 0.033703-0.042493 0.04323-0.061717 0.021268-0.019242-0.021972-0.013773-0.057032 0.012152-0.077882 0.025931-0.02086 0.053711-0.030418 0.061716-0.021268zm-0.75993 1.0591c0.024847 0.028381-0.2321 0.54653-0.29568 0.59626-0.034671 0.027118 0.01026-0.09409 0.099857-0.26934 0.1817-0.35543 0.1773-0.34808 0.19582-0.32692zm0.63784-0.097333c0.039234 0.044813-0.1363 0.46616-0.27845 0.66841-0.18862 0.26835-0.18643 0.12911 0.00425-0.27044 0.18687-0.39157 0.2278-0.45098 0.27421-0.39797zm3.2197-2.5165c0.034205 0.00785 0.039715 0.032377 0.012255 0.054461s-0.064793 0.023176-0.082969 0.00245c-0.01818-0.020768-0.02369-0.04526-0.012256-0.054461 0.011435-0.00918 0.048773-0.010282 0.082969-0.00245zm-0.02596 0.51426c0.018257 0.063856 5.267e-4 0.083278-0.082735 0.090643-0.090931 0.00806-0.10398-0.010282-0.091958-0.12906 0.012033-0.11883 0.023749-0.13166 0.082734-0.090643 0.037789 0.026277 0.079178 0.084359 0.091959 0.12906zm-3.8435 3.4068c0.013007 0.045494 0.035847 0.096647 0.050758 0.11368 0.028036 0.032023-0.15661 0.32178-0.25042 0.39296-0.060312 0.045708 0.074525-0.50531 0.13609-0.5563 0.021997-0.018149 0.050554 0.00416 0.063562 0.049658zm-0.13977 0.63017c0.070939 0.081028 0.092452 0.4418 0.031837 0.53395-0.08959 0.13627-0.13241 0.07249-0.15218-0.22681-0.020176-0.30536 0.023751-0.41747 0.12035-0.30714zm3.0323-1.6756c-0.015443 0.10071-0.045748 0.18315-0.067345 0.1832-0.039108 8.49e-5 0.024053-0.30893 0.070836-0.34655 0.013544-0.010858 0.011943 0.062635-0.0035 0.16335zm0.77895-0.7617c0.00714 0.00816-0.010281 0.050197-0.03871 0.093431-0.028435 0.043227-0.066134 0.062107-0.083702 0.042041-0.017603-0.020105-1.87e-4 -0.062154 0.038707-0.093433 0.038894-0.031285 0.076532-0.050228 0.083704-0.042037zm-0.87073 1.1891c0.020669 0.19721-0.026924 0.27551-0.096071 0.15806-0.066862-0.11357-0.062319-0.22323 0.011715-0.28277 0.052986-0.042607 0.069352-0.018407 0.084356 0.12471zm-0.44543 0.81973c-0.041867 0.095942-0.074434 0.090186-0.10556-0.01866-0.020041-0.070099-0.00763-0.086119 0.05548-0.071595 0.047038 0.010824 0.068145 0.048863 0.050079 0.090255zm0.93611 1.1596c0.48399 0.57869 0.42862 0.64594-0.067223 0.081646-0.30314-0.34499-0.41779-0.52147-0.36588-0.56322 0.00998-0.00802 0.20487 0.20868 0.43311 0.48157zm-0.12016-0.43623c0.027262 0.031138 0.019157 0.06318-0.018001 0.071203-0.037162 0.00803-0.089872-0.010888-0.11713-0.042026-0.027261-0.031138-0.019158-0.063182 0.018002-0.071203 0.037161-0.00803 0.089872 0.010888 0.11713 0.042025zm-1.5091 2.1799c0.080668 0.058987 0.18355 0.12398 0.22862 0.14442 0.061037 0.027685 0.056401 0.047177-0.018176 0.076386-0.13361 0.052331-0.10746 0.074302 0.36173 0.30382 0.22145 0.10833 0.39223 0.22081 0.37951 0.24995-0.012714 0.029144-0.045914 0.026951-0.073777-0.00488-0.027862-0.031819-0.21996-0.13229-0.42689-0.22326-0.20693-0.090975-0.46556-0.23922-0.57474-0.32943-0.1791-0.14798-0.18993-0.17186-0.11073-0.24414 0.06694-0.06109 0.1226-0.054652 0.23445 0.027134zm2.3621 0.023882c0.062854 0.039538 0.10983 0.095778 0.10438 0.12499-0.014527 0.077943-0.25552 0.028695-0.2801-0.057238-0.032779-0.11465 0.050254-0.14666 0.17571-0.067743zm2.5112-0.28825c0.026622 0.030407 0.023212 0.10497-0.00758 0.16571-0.073844 0.14567-0.22586 0.088166-0.15717-0.059455 0.066627-0.14319 0.10866-0.17031 0.16475-0.10625zm-0.29158 1.3875c0.069521-0.00892 0.13591-0.00535 0.14754 0.00794 0.045519 0.051992-0.11353 0.12578-0.2571 0.11928-0.17898-0.00811-0.099501-0.1004 0.10956-0.12721z">
<animate attributeName="display" values="none;inline;none" keyTimes="0;0.5;1" dur="0.5s" begin="0s" repeatCount="indefinite" />
</path>
</g>
</svg>
