<svg version="1.1" viewBox="0 0 10 10" xmlns="http://www.w3.org/2000/svg"><path fill="#fff" d="m2.6523 9.8679c-0.0325-0.048874-0.095784-0.089017-0.14063-0.089208-0.044849-2.099e-4 -0.13408-0.074453-0.19828-0.16503-0.11478-2.0582-0.15443-2.0014-0.18943-3.0209l-0.017093-0.13964-0.59424 0.015912c-0.32683 0.00875-0.66202 0.040445-0.74485 0.070431-0.19315 0.069915-0.49721-0.070158-0.61574-0.28366 0 0-0.2498-0.33835-0.045673-0.72362 1.4749-2.0274 4.1816-5.426 4.8479-5.5054 0.62054 0.24687 0.87708 0.86395 1.3393 1.2592 0.67166 0.57065 1.1995 1.0896 1.7437 1.7142 0.24332 0.27928 0.65647 0.69975 0.91812 0.93439 0.26957 0.20007 1.0581 1.4766 1.0168 1.8838-0.44513 0.65193-0.7251 0.31172-1.4229 0.38281-0.2853 0.030631-0.3626 0.24172-0.33528 0.34402-0.072443 0.54202-0.049588 0.87799-0.054092 1.3043-0.0061999 0.66454 0.030164 1.835-0.0090878 1.9635-0.63363 0.16487-1.0578 0.18033-2.0455 0.060211-0.16406-0.33163-0.057398-1.043-0.013665-1.5239-1.194e-4 -0.53591 0.099304-0.37086-0.054985-1.2615l-0.042808-0.2285-0.29581-0.038527c-0.49978-0.065092-1.2649-0.09546-1.3289-0.052745-0.042986 0.028688-0.052562 0.32652-0.032844 1.0215 0.010445 0.68114 0.087887 0.58318 0.08671 1.9963-0.44762 0.10203-1.669 0.19127-1.7707 0.082016z"><animate attributeName="display" values="inline;none;none" keyTimes="0;0.5;1" dur="0.5s" begin="0s" repeatCount="indefinite" /></path><path fill="#fff" d="m6.6504 9.9168c-0.30714-0.19142-0.15419-0.6935-0.29034-1.0554-0.08519-0.50219 0.0081044-1.304-0.10567-1.7985-0.72829-0.34581-0.5849-0.59256-1.9489-0.074339 3.575e-4 0.54351-0.094206 1.1105 0.10943 1.6253-0.13872 0.31992-0.090271 0.73494 0.026383 0.99673-0.57772 0.55932-1.5282 0.22704-2.3718 0.20094-0.42482-0.0072677-0.36423-0.57209-0.30374-0.9901 0.0029699-0.79073 0.079904-1.5813 0.050694-2.3718-0.34495-0.15245-0.86417-0.22305-1.2547-0.20344-0.35902 0.10628-0.75646-0.12969-0.38557-0.48783 0.42006-0.62109 0.8066-1.2719 1.3182-1.8153 0.89538-1.1697 1.8798-2.2615 2.7032-3.4933 0.19295-0.35192 0.52633-0.62823 0.82207-0.21493 0.4742 0.15639 0.83251 0.51845 1.1749 0.8873 0.65715 0.55334 1.2132 1.2279 1.7101 1.9452 0.54301 0.74403 1.1534 1.4314 1.7214 2.1508 0.10366 0.33734 0.72278 1.0992-0.002467 0.99678-0.42415-0.17253-1.1537-0.039527-1.0478 0.97778 0.025213 0.96996 0.20837 1.5351 0.070884 2.4248-0.28819 0.42553-0.65128 0.31673-1.0946 0.35489-0.2194-0.011468-0.69254 0.021334-0.90188-0.05547z"><animate attributeName="display" values="none;inline;none" keyTimes="0;0.5;1" dur="0.5s" begin="0s" repeatCount="indefinite" /></path></svg>
