<svg version="1.1" viewBox="0 0 10 10" xmlns="http://www.w3.org/2000/svg">
<g transform="translate(-.26114 7.9829)">
<path fill="#fff" d="m6.1483-7.982c-0.057346-0.00715-0.12483 0.029595-0.2098 0.10932-0.094638 0.088793-0.16287 0.25245-0.30722 0.73677-0.10206 0.34245-0.20507 0.72051-0.2289 0.84015-0.045345 0.22767-0.023281 0.36039 0.052626 0.31654 0.072106-0.041662 0.12217 0.074063 0.12291 0.28407 6.65e-4 0.1911-0.00307 0.19642-0.16582 0.23665-1.3032 0.32208-1.5202 0.41254-1.8981 0.79095-0.09768 0.097821-0.21257 0.21287-0.2553 0.25566-0.042735 0.042793-0.077705 0.096483-0.077705 0.11931 0 0.02283-0.021154 0.04151-0.047015 0.04151s-0.038196 0.014012-0.027413 0.031135c0.034637 0.054994-0.053777 0.21792-0.11826 0.21792-0.038536 0-0.073338 0.064171-0.091095 0.16799-0.015804 0.092393-0.045372 0.15838-0.065706 0.14663-0.04265-0.024642-0.22771 0.57552-0.22771 0.73847 0 0.12508 0.00263 0.12405-0.16361 0.064015-0.06874-0.024827-0.3148-0.079967-0.54679-0.12253-0.23199-0.042565-0.59164-0.11472-0.79921-0.16034-0.4721-0.10376-0.80509-0.12641-0.83132-0.056539-0.01059 0.02821 0.02853 0.071648 0.08694 0.096526 0.05841 0.024879 0.14485 0.11387 0.19209 0.19776 0.04724 0.08389 0.10909 0.17551 0.13745 0.2036 0.06684 0.066198 0.5912 0.22552 1.1253 0.3419 0.89764 0.19561 0.91446 0.20316 0.96176 0.43148 0.045592 0.2201 0.45279 0.85402 0.70176 1.0925l0.26789 0.2566-0.1554 0.16274c-0.08547 0.089506-0.2489 0.22152-0.36318 0.29337-0.11428 0.071848-0.46393 0.36388-0.777 0.64896-0.31307 0.28509-0.5842 0.51858-0.60252 0.51887-0.01832 3e-4 -0.0333 0.021821-0.0333 0.047841s-0.03497 0.072124-0.0777 0.10245c-0.07195 0.051062-0.0703 0.055241 0.02221 0.056461 0.05495 7.25e-4 0.0999 0.023108 0.0999 0.049743 0 0.026634 0.01168 0.037508 0.02595 0.024164 0.03786-0.035394 0.19605 0.10179 0.19605 0.17001 0 0.049357 0.01107 0.04953 0.07342 0.00116 0.04038-0.031336 0.11038-0.051114 0.15556-0.043959 0.05423 0.00859 0.2367-0.1258 0.53708-0.39556 0.50249-0.45127 0.87604-0.73995 1.0082-0.77917 0.11151-0.033088 0.22376-0.24477 0.22376-0.42198 0-0.15587 0.025715-0.16727 0.16771-0.074294 0.054274 0.035538 0.098688 0.051934 0.098688 0.036429 0-0.015504 0.024975-0.009916 0.0555 0.012412 0.10162 0.074333 0.24057 0.083912 0.67508 0.046572 0.45591-0.03918 0.53907-0.050492 0.64582-0.087839 0.10198-0.035676 0.2664-0.066226 0.2664-0.0495 0 0.048905-0.10904 0.22637-0.13909 0.22637-0.070757 0-0.18746 0.48275-0.19065 0.78866-0.00179 0.17122 0.02378 0.47476 0.056827 0.67452 0.0557 0.33668 0.067648 0.36319 0.16362 0.36319 0.16687 0 0.32149 0.071748 0.35269 0.16366 0.029958 0.08824 0.11181 0.11886 0.11181 0.041829 0-0.023964-0.029904-0.097631-0.066452-0.1637-0.049454-0.089405-0.055127-0.14796-0.022195-0.22894 0.024337-0.059843 0.044246-0.32945 0.044246-0.59914 0-0.35391 0.019604-0.53419 0.070466-0.648 0.13836-0.30958-0.036327-0.69386-0.27903-0.61381-0.20643 0.068086 0.046815-0.071892 0.43057-0.238 0.23199-0.10041 0.43179-0.19421 0.444-0.20845s0.088029-0.057428 0.16849-0.095974c0.16614-0.079592 0.58632-0.45013 0.58632-0.51705 0-0.02429 0.039953-0.064159 0.088793-0.088595s0.088803-0.071783 0.088803-0.10522c0-0.033441 0.029967-0.060806 0.066597-0.060806 0.036631 0 0.061605-0.023348 0.0555-0.051885-0.0061-0.028537 0.016262-0.046477 0.049702-0.039861 0.043957 0.0087 0.055405-0.02231 0.041332-0.11195-0.011613-0.073973-0.00204-0.11392 0.023741-0.099028 0.04228 0.024428 0.019708-0.56668-0.037577-0.98404-0.014103-0.10273-0.032594-0.24282-0.041085-0.31131-0.062285-0.5024-0.81628-1.5213-1.3024-1.76-0.05545-0.027227-0.1183-0.039402-0.13966-0.027062-0.021357 0.01234-0.050821-0.00681-0.065488-0.042538-0.020379-0.049647-0.086915-0.06347-0.28215-0.058623-0.14052 0.00349-0.27969 0.00482-0.30928 0.00295-0.029583-0.00187-0.075817-0.079855-0.10273-0.1733-0.041534-0.1442-0.03796-0.17741 0.023626-0.21951 0.045717-0.031252 0.086012-0.14884 0.1089-0.31782 0.019984-0.14752 0.087229-0.44576 0.14943-0.66276 0.062198-0.217 0.12279-0.44459 0.13466-0.50575 0.011864-0.061162 0.055339-0.17773 0.096614-0.25905 0.083114-0.16374 0.065801-0.34084-0.059825-0.61192-0.044419-0.095853-0.091634-0.1469-0.14898-0.15405zm-4.1878 0.61779c-0.02757 0-0.08872 0.026388-0.13589 0.058634-0.08334 0.056969-0.08232 0.061613 0.03592 0.16405 0.13095 0.11346 0.14898 0.19168 0.07425 0.32221-0.04047 0.070691-0.0123 0.12052 0.19203 0.33972 0.1317 0.14128 0.30681 0.36311 0.38914 0.49296 0.082326 0.12985 0.16575 0.22681 0.18538 0.21547 0.019626-0.01134 0.035679 0.010422 0.035679 0.048365 0 0.080679 0.4899 0.63204 0.64689 0.72804 0.13903 0.085016 0.37432 0.08769 0.37432 0.00426 0-0.14801-0.20025-0.55367-0.36497-0.73933-0.32258-0.36361-0.68072-0.81991-0.85002-1.083-0.16039-0.24926-0.47968-0.55137-0.58272-0.55137zm3.9117 1.301c0.00531 8.34e-4 0.011143 0.00297 0.017248 0.0065 0.02442 0.014109 0.044391 0.033895 0.044391 0.043963s-0.019971 0.018297-0.044391 0.018297-0.044402-0.019776-0.044402-0.043953c0-0.018132 0.011232-0.027306 0.027154-0.024803zm4.1611 0.94763c-0.15038-0.00298-0.44476 0.11687-1.1207 0.40296-0.53684 0.22723-0.80318 0.38111-0.80318 0.46405 0 0.016258 0.089444 0.042105 0.19876 0.057431s0.20845 0.042489 0.22027 0.06037c0.011821 0.01788-0.03597 0.072229-0.1062 0.12077-0.13837 0.095639-0.14298 0.23981-0.00857 0.2678 0.15778 0.032863 0.99495-0.31523 1.2761-0.53059 0.10363-0.079384 0.22556-0.14433 0.27096-0.14433 0.25047 0 0.37339-0.25724 0.25504-0.53375-0.04414-0.10313-0.07962-0.16266-0.18251-0.1647zm-4.5963 0.12829c0.0054 9.44e-4 0.00847 0.00355 0.00847 0.00816 0 0.00905-0.031396 0.045807-0.069771 0.081682-0.081463 0.076158-0.16724 0.086574-0.14254 0.017308 0.013823-0.038768 0.16601-0.11376 0.20384-0.10715zm0.17802 0.23809c0.025968 0 0.060385 0.019925 0.076482 0.044274 0.047786 0.072285-0.00664 0.087592-0.067541 0.018995-0.03502-0.039449-0.038382-0.063269-0.00894-0.063269zm-0.90215 0.1673c0.02442 0 0.014435 0.01811-0.022196 0.04024-0.03663 0.022131-0.086589 0.04024-0.11101 0.04024-0.02442 0-0.014425-0.018109 0.022206-0.04024 0.03663-0.02213 0.086579-0.04024 0.111-0.04024zm1.5396 0.076126c0.00608 0.00184 0.0037 0.0083-0.011534 0.02076-0.010175 0.00832-0.068451 0.037366-0.1295 0.064548-0.10466 0.046599-0.10609 0.045741-0.02482-0.015126 0.053047-0.039732 0.1476-0.075707 0.16586-0.070182zm-1.9562 0.17165c0.02442 0 0.03205 0.01868 0.016958 0.04151-0.015093 0.02283-0.047415 0.04151-0.071835 0.04151s-0.032051-0.01868-0.016958-0.04151 0.047415-0.04151 0.071835-0.04151zm2.7783 0.12517c0.029084-3.5e-4 0.065227 0.01804 0.080319 0.04087 0.034068 0.051534 0.018701 0.051534-0.066598 0-0.040017-0.024177-0.045495-0.040488-0.013721-0.04087zm-2.5119 0.04087c0.02442 0 0.032051 0.01868 0.016958 0.04151-0.015092 0.022829-0.047415 0.04151-0.071835 0.04151s-0.03205-0.018681-0.016958-0.04151c0.015092-0.02283 0.047415-0.04151 0.071835-0.04151zm-0.68558 0.093424c0.011546-7.96e-4 0.014334 0.012614 0.014334 0.039823 0 0.034704-0.041407 0.11232-0.092019 0.17247-0.050613 0.060153-0.12299 0.10936-0.16084 0.10936-0.055214 0-0.058218-0.011938-0.015163-0.060437 0.029512-0.033244 0.04077-0.07994 0.025017-0.10377-0.015753-0.02383-0.00406-0.043333 0.025981-0.043333 0.030043 0 0.091171-0.030915 0.13583-0.068698 0.035013-0.029623 0.055311-0.044621 0.066856-0.045418zm3.3669 0.1692c0.011593 0.00266 0.026317 0.020479 0.037162 0.046901 0.030022 0.073143 0.00444 0.086005-0.039341 0.01978-0.016096-0.024348-0.019749-0.053173-0.00811-0.064054 0.00291-0.00272 0.00642-0.00352 0.010289-0.00263zm-2.8006 0.87768c0.041523 4.55e-4 0.069636 0.026547 0.069636 0.070356 0 0.046355-0.12154 0.044308-0.15253-0.00257-0.013511-0.020437 0.00334-0.047166 0.037442-0.059399 0.016276-0.00584 0.031608-0.00854 0.045449-0.00839zm0.12753 0.31305c0.016387 0.00231 0.035549 0.014403 0.051206 0.038087 0.01405 0.021253 0.00733 0.049166-0.014925 0.062028-0.02226 0.012861-0.051931-0.00453-0.065933-0.03864-0.017252-0.042031 0.00234-0.065332 0.029652-0.061475zm2.8898 1.1774c0.015922 3e-4 0.027153 0.015972 0.027153 0.041655 0 0.034244-0.019971 0.073807-0.044391 0.087917-0.02442 0.014109-0.044402-0.00237-0.044402-0.036613 0-0.034245 0.019982-0.073807 0.044402-0.087917 0.0061-0.00352 0.011931-0.00514 0.017238-0.00504zm0.88225 0.17179c-0.10812-5.25e-4 -0.18934 0.048394-0.26537 0.14097-0.088904 0.10825-0.065891 0.15324 0.11807 0.23079 0.18539 0.078155 0.25708 0.17414 0.18228 0.24407-0.030718 0.028717 0.00257 0.069781 0.1037 0.12795 0.081916 0.047118 0.36509 0.23874 0.62927 0.42582 0.26418 0.18708 0.55153 0.35644 0.63855 0.37635 0.087022 0.01991 0.20817 0.024015 0.26922 0.009115 0.11157-0.02723 0.12367-0.07891 0.08134-0.34736-0.01734-0.10998-0.28555-0.34049-0.89183-0.76645-0.43013-0.3022-0.68503-0.44039-0.86522-0.44126zm-1.0225 0.020042c0.025988 0 0.021675 0.026372-0.010185 0.06226-0.0304 0.034244-0.062189 0.06227-0.070642 0.06227-0.00845 0-0.00387-0.028026 0.010185-0.06227 0.014057-0.034245 0.045845-0.06226 0.070642-0.06226zm-2.4694 0.55387c0.00531 8.35e-4 0.011133 0.00297 0.017238 0.006497 0.02442 0.01411 0.044402 0.033886 0.044402 0.043954 0 0.010068-0.019982 0.018306-0.044402 0.018306s-0.044402-0.019786-0.044402-0.043964c0-0.018132 0.011242-0.027296 0.027164-0.024794zm-2.7594 1.8951c0.03422 0 0.07554 0.039241 0.09182 0.087198 0.01628 0.047959 0.0083 0.10712-0.01776 0.13147-0.03354 0.031355-0.05425 0.024075-0.071-0.02494-0.01301-0.038062-0.03302-0.097218-0.04446-0.13146-0.01169-0.034976 0.0064-0.062269 0.0414-0.062269zm3.9025 0.47224c0.021878 0.00172 0.038835 0.0079 0.045584 0.018113 0.013499 0.02042-0.024059 0.057829-0.083472 0.083136-0.073348 0.031244-0.11708 0.032304-0.13625 0.00331-0.034021-0.051461-0.024746-0.060454 0.099019-0.095975 0.026445-0.00759 0.053244-0.010308 0.075123-0.00858z">
<animate attributeName="display" values="inline;none;none" keyTimes="0;0.5;1" dur="0.5s" begin="0s" repeatCount="indefinite" />
</path>
<path fill="#fff" d="m10.26-2.0957c0.0072-0.057346-0.02959-0.12483-0.10932-0.2098-0.08879-0.094638-0.25245-0.16287-0.73677-0.30722-0.34245-0.10206-0.72051-0.20507-0.84015-0.2289-0.22767-0.045345-0.36039-0.023281-0.31654 0.052626 0.041662 0.072106-0.074063 0.12217-0.28407 0.12291-0.1911 6.65e-4 -0.19642-0.00307-0.23665-0.16582-0.32208-1.3032-0.41254-1.5202-0.79095-1.8981-0.097821-0.09768-0.21287-0.21257-0.25566-0.2553-0.042793-0.042735-0.096483-0.077705-0.11931-0.077705-0.02283 0-0.04151-0.021154-0.04151-0.047015s-0.014012-0.038196-0.031135-0.027413c-0.054994 0.034637-0.21792-0.053777-0.21792-0.11826 0-0.038536-0.064171-0.073338-0.16799-0.091095-0.092393-0.015804-0.15838-0.045372-0.14663-0.065706 0.024642-0.04265-0.57552-0.22771-0.73847-0.22771-0.12508 0-0.12405 0.0026-0.064015-0.1636 0.024827-0.06874 0.079967-0.3148 0.12253-0.54679 0.042565-0.23199 0.11472-0.59164 0.16034-0.79921 0.10376-0.4721 0.12641-0.80509 0.056539-0.83132-0.02821-0.01059-0.071648 0.02853-0.096526 0.08694-0.024879 0.05841-0.11387 0.14485-0.19776 0.19209-0.08389 0.04724-0.17551 0.10909-0.2036 0.13745-0.066198 0.06684-0.22552 0.5912-0.3419 1.1253-0.19561 0.89764-0.20316 0.91446-0.43148 0.96176-0.2201 0.045592-0.85402 0.45279-1.0925 0.70176l-0.2566 0.26789-0.16274-0.1554c-0.08951-0.08547-0.22152-0.2489-0.29337-0.36318-0.07185-0.11428-0.36388-0.46393-0.64896-0.777-0.28508-0.31307-0.51858-0.5842-0.51887-0.60252-3e-4 -0.01832-0.02182-0.0333-0.04784-0.0333s-0.07212-0.03497-0.10245-0.0777c-0.05106-0.07195-0.05524-0.0703-0.05646 0.02221-7.25e-4 0.05495-0.02311 0.0999-0.04974 0.0999s-0.03751 0.01168-0.02416 0.02595c0.03539 0.03786-0.10179 0.19605-0.17001 0.19605-0.04936 0-0.04953 0.01107-0.0012 0.07342 0.03134 0.04038 0.05111 0.11038 0.04396 0.15556-0.0086 0.05423 0.1258 0.2367 0.39556 0.53708 0.45127 0.50249 0.73995 0.87604 0.77917 1.0082 0.03309 0.11151 0.24477 0.22376 0.42198 0.22376 0.15587 0 0.16728 0.025715 0.07429 0.16771-0.03554 0.054274-0.05193 0.098688-0.03643 0.098688s0.0099 0.024975-0.01241 0.0555c-0.07433 0.10162-0.08391 0.24057-0.04657 0.67508 0.03918 0.45591 0.05049 0.53907 0.08784 0.64582 0.03568 0.10198 0.06623 0.2664 0.0495 0.2664-0.0489 0-0.22637-0.10904-0.22637-0.13909 0-0.070757-0.48275-0.18746-0.78866-0.19065-0.17122-0.00179-0.47476 0.02378-0.67452 0.056827-0.33668 0.0557-0.36319 0.067648-0.36319 0.16362 0 0.16687-0.07175 0.32149-0.16366 0.35269-0.08824 0.029958-0.11886 0.11181-0.04183 0.11181 0.02396 0 0.09763-0.029904 0.1637-0.066452 0.0894-0.049454 0.14796-0.055127 0.22894-0.022195 0.05984 0.024337 0.32945 0.044246 0.59914 0.044246 0.35391 0 0.53419 0.019604 0.648 0.070466 0.30958 0.13836 0.69386-0.036327 0.61381-0.27903-0.06809-0.20643 0.07189 0.046815 0.238 0.43057 0.10041 0.23199 0.19421 0.43179 0.20845 0.444s0.057428 0.088029 0.095974 0.16849c0.079592 0.16614 0.45013 0.58632 0.51705 0.58632 0.02429 0 0.064159 0.039953 0.088595 0.088793s0.071783 0.088803 0.10522 0.088803c0.033441 0 0.060806 0.029967 0.060806 0.066597 0 0.036631 0.023348 0.061605 0.051885 0.0555 0.028537-0.0061 0.046477 0.016262 0.039861 0.049702-0.0087 0.043957 0.02231 0.055405 0.11195 0.041332 0.073973-0.011613 0.11392-0.00204 0.099028 0.023741-0.024428 0.04228 0.56668 0.019708 0.98404-0.037577 0.10273-0.014103 0.24282-0.032594 0.31131-0.041085 0.5024-0.062285 1.5213-0.81628 1.76-1.3024 0.027227-0.05545 0.039402-0.1183 0.027062-0.13966-0.01234-0.021357 0.00681-0.050821 0.042538-0.065488 0.049647-0.020379 0.06347-0.086915 0.058623-0.28215-0.00349-0.14052-0.00482-0.27969-0.00295-0.30928 0.00187-0.029583 0.079855-0.075817 0.1733-0.10273 0.1442-0.041534 0.17741-0.03796 0.21951 0.023626 0.031252 0.045717 0.14884 0.086012 0.31782 0.1089 0.14752 0.019984 0.44576 0.087229 0.66276 0.14943 0.217 0.062198 0.44459 0.12279 0.50575 0.13466 0.061162 0.011864 0.17773 0.055339 0.25905 0.096614 0.16374 0.083114 0.34084 0.065801 0.61192-0.059825 0.09585-0.044419 0.1469-0.091634 0.15405-0.14898zm-0.61779-4.1878c0-0.02757-0.026388-0.08872-0.058634-0.13589-0.056969-0.08334-0.061613-0.08232-0.16405 0.03592-0.11346 0.13095-0.19168 0.14898-0.32221 0.07425-0.070691-0.04047-0.12052-0.0123-0.33972 0.19203-0.14128 0.1317-0.36311 0.30681-0.49296 0.38914-0.12985 0.08233-0.22681 0.16575-0.21547 0.18538 0.01134 0.01963-0.010422 0.03568-0.048365 0.03568-0.080679 0-0.63204 0.4899-0.72804 0.64689-0.085016 0.13903-0.08769 0.37432-0.00426 0.37432 0.14801 0 0.55367-0.20025 0.73933-0.36497 0.36361-0.32258 0.81991-0.68072 1.083-0.85002 0.24926-0.16039 0.55137-0.47968 0.55137-0.58272zm-1.301 3.9117c-8.34e-4 0.00531-0.00297 0.011143-0.0065 0.017248-0.014109 0.02442-0.033895 0.044391-0.043963 0.044391s-0.018297-0.019971-0.018297-0.044391 0.019776-0.044402 0.043953-0.044402c0.018132 0 0.027306 0.011232 0.024803 0.027154zm-0.94763 4.1611c0.00298-0.15038-0.11687-0.44476-0.40296-1.1207-0.22723-0.53684-0.38111-0.80318-0.46405-0.80318-0.016258 0-0.042105 0.089444-0.057431 0.19876s-0.042489 0.20845-0.06037 0.22027c-0.01788 0.011821-0.072229-0.03597-0.12077-0.1062-0.095639-0.13837-0.23981-0.14298-0.2678-0.00857-0.032863 0.15778 0.31523 0.99495 0.53059 1.2761 0.079384 0.10363 0.14433 0.22556 0.14433 0.27096 0 0.25047 0.25724 0.37339 0.53375 0.25504 0.10313-0.04414 0.16266-0.07962 0.1647-0.18251zm-0.12829-4.5963c-9.44e-4 0.0054-0.00355 0.00847-0.00816 0.00847-0.00905 0-0.045807-0.031396-0.081682-0.069771-0.076158-0.081463-0.086574-0.16724-0.017308-0.14254 0.038768 0.013823 0.11376 0.16601 0.10715 0.20384zm-0.23809 0.17802c0 0.025968-0.019925 0.060385-0.044274 0.076482-0.072285 0.047786-0.087592-0.00664-0.018995-0.067541 0.039449-0.03502 0.063269-0.038382 0.063269-0.00894zm-0.1673-0.90215c0 0.02442-0.01811 0.014435-0.04024-0.022196-0.022131-0.03663-0.04024-0.086589-0.04024-0.11101 0-0.02442 0.018109-0.014425 0.04024 0.022206 0.02213 0.03663 0.04024 0.086579 0.04024 0.111zm-0.076126 1.5396c-0.00184 0.00608-0.0083 0.0037-0.02076-0.011534-0.00832-0.010175-0.037366-0.068451-0.064548-0.1295-0.046599-0.10466-0.045741-0.10609 0.015126-0.02482 0.039732 0.053047 0.075707 0.1476 0.070182 0.16586zm-0.17165-1.9562c0 0.02442-0.01868 0.03205-0.04151 0.016958-0.02283-0.015093-0.04151-0.047415-0.04151-0.071835s0.01868-0.032051 0.04151-0.016958 0.04151 0.047415 0.04151 0.071835zm-0.12517 2.7783c3.5e-4 0.029084-0.01804 0.065227-0.04087 0.080319-0.051534 0.034068-0.051534 0.018701 0-0.066598 0.024177-0.040017 0.040488-0.045495 0.04087-0.013721zm-0.04087-2.5119c0 0.02442-0.01868 0.032051-0.04151 0.016958-0.022829-0.015092-0.04151-0.047415-0.04151-0.071835s0.018681-0.03205 0.04151-0.016958c0.02283 0.015092 0.04151 0.047415 0.04151 0.071835zm-0.093424-0.68558c7.96e-4 0.011546-0.012614 0.014334-0.039823 0.014334-0.034704 0-0.11232-0.041407-0.17247-0.092019-0.060153-0.050613-0.10936-0.12299-0.10936-0.16084 0-0.055214 0.011938-0.058218 0.060437-0.015163 0.033244 0.029512 0.07994 0.04077 0.10377 0.025017 0.02383-0.015753 0.043333-0.00406 0.043333 0.025981 0 0.030043 0.030915 0.091171 0.068698 0.13583 0.029623 0.035013 0.044621 0.055311 0.045418 0.066856zm-0.1692 3.3669c-0.00266 0.011593-0.020479 0.026317-0.046901 0.037162-0.073143 0.030022-0.086005 0.00444-0.01978-0.039341 0.024348-0.016096 0.053173-0.019749 0.064054-0.00811 0.00272 0.00291 0.00352 0.00642 0.00263 0.010289zm-0.87768-2.8006c-4.55e-4 0.041523-0.026547 0.069636-0.070356 0.069636-0.046355 0-0.044308-0.12154 0.00257-0.15253 0.020437-0.013511 0.047166 0.00334 0.059399 0.037442 0.00584 0.016276 0.00854 0.031608 0.00839 0.045449zm-0.31305 0.12753c-0.00231 0.016387-0.014403 0.035549-0.038087 0.051206-0.021253 0.01405-0.049166 0.00733-0.062028-0.014925-0.012861-0.02226 0.00453-0.051931 0.03864-0.065933 0.042031-0.017252 0.065332 0.00234 0.061475 0.029652zm-1.1774 2.8898c-3e-4 0.015922-0.015972 0.027153-0.041655 0.027153-0.034244 0-0.073807-0.019971-0.087917-0.044391-0.014109-0.02442 0.00237-0.044402 0.036613-0.044402 0.034245 0 0.073807 0.019982 0.087917 0.044402 0.00352 0.0061 0.00514 0.011931 0.00504 0.017238zm-0.17179 0.88225c5.25e-4 -0.10812-0.048394-0.18934-0.14097-0.26537-0.10825-0.088904-0.15324-0.065891-0.23079 0.11807-0.078155 0.18539-0.17414 0.25708-0.24407 0.18228-0.028717-0.030718-0.069781 0.00257-0.12795 0.1037-0.047118 0.081916-0.23874 0.36509-0.42582 0.62927-0.18708 0.26418-0.35644 0.55153-0.37635 0.63855-0.01991 0.087022-0.02402 0.20817-0.0091 0.26922 0.02723 0.11157 0.07891 0.12367 0.34736 0.08134 0.10998-0.01734 0.34049-0.28555 0.76646-0.89183 0.3022-0.43013 0.44039-0.68503 0.44126-0.86522zm-0.020042-1.0225c0 0.025988-0.026372 0.021675-0.06226-0.010185-0.034244-0.0304-0.06227-0.062189-0.06227-0.070642 0-0.00845 0.028026-0.00387 0.06227 0.010185 0.034245 0.014057 0.06226 0.045845 0.06226 0.070642zm-0.55387-2.4694c-8.35e-4 0.00531-0.00297 0.011133-0.0065 0.017238-0.014109 0.02442-0.033886 0.044402-0.043953 0.044402s-0.018307-0.019982-0.018307-0.044402 0.019786-0.044402 0.043964-0.044402c0.018132 0 0.027296 0.011242 0.024793 0.027164zm-1.8951-2.7594c0 0.03422-0.03924 0.07554-0.0872 0.09182s-0.10712 0.0083-0.13147-0.01776c-0.03135-0.03354-0.02407-0.05425 0.02494-0.071 0.03806-0.01301 0.09722-0.03302 0.13146-0.04446 0.03498-0.01169 0.06227 0.0064 0.062271 0.0414zm-0.47224 3.9025c-0.0017 0.021878-0.0079 0.038835-0.01811 0.045584-0.02042 0.013499-0.05783-0.024059-0.08314-0.083472-0.03124-0.073348-0.0323-0.11708-0.0033-0.13625 0.05146-0.034021 0.06045-0.024746 0.09598 0.099019 0.0076 0.026445 0.01031 0.053244 0.0086 0.075123z">
<animate attributeName="display" values="none;inline;none" keyTimes="0;0.5;1" dur="0.5s" begin="0s" repeatCount="indefinite" />
</path>
</g>
</svg>
