<svg width="54" height="54" version="1.1" viewBox="0 0 54 54" xmlns="http://www.w3.org/2000/svg">
<circle cx="27" cy="27" r="27" fill="#00fe19"/>
<path d="m52.084 49.177c-0.33406-0.28963-0.86385-0.71378-1.1773-0.94256-0.31347-0.22878-0.61666-0.45095-0.67376-0.49372-0.45192-0.33851-1.2558-0.83409-2.5635-1.5804-3.2099-1.8318-3.9595-2.3372-5.3169-3.5844l-0.90467-0.8312-0.36913 0.18314c-0.20302 0.10073-1.0474 0.63937-1.8765 1.197-1.2252 0.82407-1.5494 1.0934-1.732 1.439-0.56636 1.0718-2.6851 3.962-3.09 4.2152-0.18427 0.11524-0.37458 0.26821-0.42289 0.33992-0.17135 0.25432-1.7747 1.3391-2.293 1.5514-0.54478 0.22314-4.4746 0.85944-5.2071 0.84311-0.34747-0.0077-0.8098-0.05312-1.0274-0.10085-0.21759-0.04771-0.46148-0.09109-0.54197-0.09638-0.30098-0.01975-1.5354-0.44856-1.8905-0.65674-0.20266-0.11879-0.50275-0.27603-0.66685-0.34941-0.80883-0.36169-2.2706-2.1065-3.4854-4.1603-0.44949-0.7599-0.56862-0.89052-0.94511-1.0362-0.289-0.11184-0.48409-0.2725-0.59272-0.48812-0.08907-0.17677-0.22102-0.31624-0.29322-0.30993-0.0722 0.0064-0.3335 0.28358-0.58064 0.61615-0.41501 0.55846-0.9608 1.2228-1.5957 1.9422-1.0014 1.1347-3.3911 3.2702-5.2546 4.6956-0.32503 0.24862-0.65227 0.49973-0.7272 0.55803-0.30412 0.23664-2.036 1.3716-2.1017 1.3774-0.038894 0.0034-0.18111-0.21435-0.31602-0.4839-0.45971-0.91842-0.46686-0.8744 0.21851-1.345 0.33981-0.23333 0.93701-0.68234 1.3271-0.99779 0.39011-0.31545 0.73101-0.57545 0.75756-0.57777 0.026552-0.0023 0.33925-0.25823 0.69489-0.56868 0.81659-0.71284 0.95562-0.82764 1.2371-1.0216 0.1258-0.08667 0.26754-0.21278 0.31499-0.28026 0.12148-0.17277 0.73401-0.75934 0.79888-0.76501 0.0296-0.0026 0.14366-0.10426 0.25346-0.22594 0.1098-0.12168 0.61952-0.6607 1.1327-1.1978 0.93407-0.97764 3.2415-3.9836 3.2208-4.196-6e-3 -0.06204-0.22289-0.60312-0.48193-1.2024-0.42653-0.98675-1.147-3.1214-1.3808-4.0913-0.05051-0.20956-0.18519-0.45972-0.29928-0.5559-0.11408-0.09619-0.21127-0.21887-0.21598-0.27264-0.01324-0.15132-0.66741-0.99434-0.76496-0.98581-0.04765 0.0042-0.31778 0.26044-0.60028 0.5695-0.92451 1.0114-2.5003 2.486-2.9859 2.7941-0.075819 0.04809-0.24734 0.18131-0.38115 0.29601-0.13381 0.1147-0.97179 0.76477-1.8622 1.4446-1.9527 1.4909-3.5982 2.6124-3.8676 2.6359-0.10884 0.0095-0.19368 0.06538-0.18853 0.12418 0.00515 0.05877-0.029046 0.11023-0.075981 0.11434-0.046936 0.0041-0.1355-0.21834-0.1968-0.49432-0.061301-0.27598-0.2109-0.70096-0.33244-0.9444l-0.22098-0.44262 0.23384-0.12371c0.48278-0.25542 1.1955-0.67843 1.2818-0.76078 0.04924-0.04697 0.37737-0.28793 0.72917-0.53546 1.2817-0.90179 3.4168-2.5781 4.5141-3.5442 0.48209-0.42445 1.3222-1.2313 1.8668-1.793 0.54467-0.56168 1.1155-1.1412 1.2686-1.2879 0.28564-0.2737 0.84426-0.40031 0.96694-0.21916 0.03787 0.05591 0.12507 0.09677 0.19378 0.09076 0.0964-0.0084 0.09519-0.38351-0.0053-1.6418-0.07164-0.89699-0.13329-1.9214-0.13705-2.2764l-0.0069-0.64555-0.59325-0.40709c-0.3262-0.22391-0.94327-0.6665-1.3712-0.98353-0.4279-0.31704-1.1244-0.79388-1.5478-1.0597-0.42341-0.26577-0.92423-0.61995-1.1129-0.78706l-0.34309-0.30384-0.61077 0.40728c-0.33592 0.224-0.91892 0.66377-1.2956 0.97727-1.0088 0.8397-1.5679 1.2871-2.681 2.1456-0.54977 0.42402-1.0606 0.82173-1.1352 0.8838-0.074596 0.06207-0.57827 0.41704-1.1193 0.7888l-0.98364 0.67593-0.09675-1.1052c-0.09136-1.0437-0.085354-1.1104 0.10777-1.198 0.11249-0.05104 0.46225-0.30297 0.77725-0.55983 0.315-0.25686 0.5921-0.46871 0.61578-0.47078 0.045312-4e-3 1.4273-1.1046 2.3759-1.8924 0.3075-0.25533 1.0196-0.84718 1.5825-1.3152 1.4191-1.18 1.8952-1.5459 2.1559-1.6567 0.23503-0.0999 0.59253 0.0108 0.60806 0.18826 0.013213 0.15094 0.73095 0.7323 1.589 1.2871 1.0345 0.66883 2.001 1.366 2.5953 1.8722 0.27581 0.23487 0.55228 0.40301 0.61439 0.37364 0.06211-0.02936 0.12661-0.22022 0.14334-0.42412 0.1469-1.7906 0.25921-2.4408 0.6405-3.7086 0.13721-0.45622 0.38395-1.0836 0.54832-1.3941 0.16437-0.31052 0.53322-1.0455 0.81966-1.6332 0.28645-0.58773 0.69109-1.3032 0.89922-1.59 0.20812-0.28677 0.37303-0.5828 0.36646-0.65786-0.01761-0.20121-1.3893-3.5405-1.971-4.7981-0.27646-0.59774-0.99413-2.3091-1.5948-3.8031-0.6007-1.494-1.2653-3.0593-1.4768-3.4785-0.53752-1.0652-1.5408-3.3408-1.4979-3.3976 0.01955-0.025932 0.09534-0.00101 0.1684 0.055365 0.15859 0.12238 0.5044-0.15655 0.39478-0.31842-0.03767-0.055612 0.01572-0.13932 0.11864-0.18603 0.19871-0.090173 0.3876-0.030816 0.40134 0.12612 0.0046 0.052101 0.4235 0.92265 0.93098 1.9345 0.50748 1.0119 1.373 2.963 1.9233 4.3359 0.55036 1.3728 1.268 3.0775 1.5947 3.7882 0.32671 0.71066 0.80105 1.8313 1.0541 2.4903 0.64881 1.6898 0.82475 2.0817 0.93033 2.0725 0.05083-0.0045 0.30152-0.21622 0.55707-0.47062 0.77425-0.77076 1.7554-1.4008 3.4073-2.1881 1.9877-0.94735 3.0409-1.1967 4.9521-1.1724 0.75655 0.0096 1.2719-0.02444 1.286-0.08499 0.03759-0.1617 0.3654-0.14612 0.44001 0.02093 0.03744 0.08384 0.3676 0.27174 0.73366 0.41757 0.36606 0.14583 0.89088 0.44058 1.1663 0.65501 0.27538 0.21443 0.56215 0.3845 0.63727 0.37793 0.07512-0.0066 0.48857-0.49098 0.91878-1.0765 0.95125-1.2946 1.5993-2.4443 2.537-4.5006 0.23961-0.52547 0.4731-0.97483 0.51887-0.99858 0.04577-0.023746 0.07762-0.1073 0.07075-0.18567-0.0069-0.078374 0.02032-0.16152 0.0604-0.18477 0.04007-0.023245 0.18532-0.29441 0.32275-0.60257 0.13743-0.30817 0.51745-1.141 0.84449-1.8507 0.32704-0.70974 0.6336-1.3908 0.68125-1.5134 0.26202-0.6743 0.65682-1.5113 0.71527-1.5164 0.03701-0.003237 0.10439 0.090977 0.14973 0.20936 0.04535 0.11839 0.22663 0.36804 0.40287 0.55479l0.32043 0.33954-0.82969 1.9325c-0.45633 1.0629-1.0876 2.4961-1.4028 3.1849-0.31521 0.68881-0.92086 2.0172-1.3459 2.9519-0.77958 1.7145-1.7861 3.4735-2.3829 4.1646-0.17815 0.20626-0.31818 0.44042-0.31118 0.52035 7e-3 0.07992 0.32684 0.5744 0.71076 1.0988 0.87526 1.1956 1.1456 1.6402 1.7048 2.8039 0.24582 0.51157 0.53108 1.0924 0.63391 1.2907 0.17538 0.33822 1.3965 3.1897 1.8337 4.2819 0.22301 0.55712 0.32772 0.58844 0.68584 0.20513 0.1379-0.1476 0.87832-0.82831 1.6454-1.5127 1.5004-1.3386 2.1142-1.9165 2.3462-2.2087 0.19912-0.2508 0.76229-0.28327 1.1649-0.06714 0.18206 0.09774 0.70476 0.45774 1.1616 0.80002 1.0583 0.79301 3.1083 2.0366 4.8662 2.952 0.75467 0.39299 1.9371 1.0597 2.6276 1.4815l1.2555 0.76698 0.10574 1.2079 0.10573 1.2079-0.80072-0.55891c-0.72633-0.50699-2.7386-1.7259-2.8353-1.7174-0.02189 0.0019-0.4439-0.21005-0.93779-0.47103-0.4939-0.26098-1.1491-0.60003-1.4559-0.75345-0.90938-0.45463-1.9266-1.0719-2.9598-1.7961-1.3116-0.91928-1.4721-1.0121-1.7153-0.99147-0.11538 0.0098-0.26146 0.08633-0.32463 0.1701-0.06317 0.08377-0.72111 0.70679-1.4621 1.3845-2.2217 2.0319-2.6485 2.4871-2.5725 2.7437 0.27444 0.92634 0.36996 1.3733 0.57072 2.6703 0.48138 3.1101 0.66179 3.9657 0.83311 3.9507 0.17128-0.01497 1.6851-1.92 1.8301-2.3031 0.07029-0.18567 0.18003-0.24187 0.53252-0.27269 0.48413-0.04233 0.67738 0.07493 2.0806 1.2626 0.61945 0.52432 2.7654 2.1514 5.081 3.8524 0.49083 0.36056 0.97777 0.72043 1.0821 0.79972 0.8886 0.67532 2.834 2.0958 3.0401 2.2198 0.22359 0.13452 0.25578 0.21237 0.24594 0.59492-0.01599 0.62211-0.15884 1.4761-0.24821 1.4839-0.09491 0.0083-1.0344-0.59291-1.517-0.97073-0.20048-0.15696-0.8528-0.6275-1.4496-1.0456-1.802-1.2626-2.4657-1.7323-3.2944-2.3315-1.8757-1.3564-3.2286-2.3782-3.949-2.9825-0.42463-0.35621-0.80207-0.64504-0.83875-0.64183-0.03668 0.0032-0.26568 0.30188-0.50889 0.66372-0.4102 0.61028-1.0442 1.3096-1.9217 2.1196-0.34522 0.31867-0.36309 0.37153-0.43922 1.2995-0.04365 0.53203-0.22165 1.6503-0.39556 2.4851-0.17391 0.83477-0.29085 1.5414-0.25987 1.5703 0.03097 0.02887 0.42175-0.15949 0.86839-0.41859 0.44664-0.2591 0.93759-0.53318 1.091-0.60906 0.15342-0.07587 0.36987-0.1939 0.48102-0.26227 0.3112-0.19142 0.92024-0.09601 1.1057 0.17324 0.27066 0.39292 1.3914 1.3828 2.4247 2.1417 1.0642 0.78156 1.6938 1.1852 4.0596 2.6027 1.5325 0.91818 3.0083 1.951 3.926 2.7475l0.485 0.42097-0.17327 0.90136c-0.09531 0.49575-0.19149 0.90295-0.21376 0.9049-0.02226 2e-3 -0.3138-0.23343-0.64786-0.52307zm-21.573-0.32811c1.2801-0.26504 2.5348-1.183 3.7198-2.7215 1.2213-1.5856 2.1137-2.9374 2.2878-3.4656 0.06995-0.21221 0.15715-0.38846 0.19377-0.39166 0.08251-0.0072 0.29927-0.74649 0.63535-2.1669 0.62704-2.6502 0.80117-3.8655 0.63374-4.4234-0.09952-0.33154-0.09086-0.39422 0.06263-0.45372 0.12366-0.04792 0.16861-0.16162 0.14706-0.37191-0.01708-0.16658-0.01646-0.56168 0.0014-0.87798 0.02126-0.37734-0.04839-0.98229-0.20256-1.7592-0.12923-0.65125-0.33346-1.8539-0.45383-2.6726-0.25646-1.7443-0.41952-2.2787-0.68815-2.2552-0.18728 0.01637-0.52154-0.44068-0.54863-0.75016-0.0077-0.08881 0.07086-0.26627 0.17472-0.39438l0.18886-0.23293-0.25673-0.65378c-0.4997-1.2725-1.41-3.465-1.5654-3.7701-0.08661-0.17012-0.37716-0.77039-0.64567-1.3339-0.67421-1.4151-1.6912-3.0885-2.5348-4.1711-0.97352-0.82965-1.6177-1.4264-2.3914-2.1932-0.0069-0.05918-0.11112-0.16397-0.23169-0.23284-0.237-0.3773 0.03248-0.19879-0.44972-0.30084-0.04164-0.06148-0.17529-0.08833-0.29699-0.0596-0.12575 0.02966-0.3265-0.0369-0.46501-0.1542-0.18936-0.16036-0.46081-0.21364-1.2166-0.23881-2.0639-0.06873-3.5905 0.55559-6.7899 2.7767-0.81117 0.56315-2.5501 2.9638-3.3359 4.6054-1.0199 2.1305-1.2202 2.9439-1.5719 6.3835-0.23684 2.3165-0.24082 2.577-0.06917 4.5291 0.22195 2.5242 0.87558 5.5192 1.6605 7.6085 0.9954 2.6497 3.8302 7.3967 5.2773 8.8372 0.85205 0.84814 2.6482 1.6797 3.9383 1.8232 0.57031 0.06344 3.5288-0.25632 4.7929-0.51804z" stroke="#000" stroke-width="1"/>
</svg>
