<svg xmlns="http://www.w3.org/2000/svg" width="54" height="54" viewBox="0 0 54 54" fill="none"><path d="M46.6147 45.5545C41.6932 50.7554 34.7255 54 27 54C21.486 54 16.358 52.3471 12.0846 49.5098C13.2194 48.5171 14.2598 47.5288 14.8377 46.8739C15.4726 46.1545 16.0184 45.4902 16.4334 44.9317C16.6806 44.5991 16.9419 44.322 17.0141 44.3156C17.0863 44.3092 17.2182 44.4487 17.3073 44.6255C17.4159 44.8411 17.611 45.0018 17.9 45.1136C18.2765 45.2593 18.3956 45.3899 18.8451 46.1498C20.0599 48.2036 21.5217 49.9484 22.3305 50.3101C22.4946 50.3835 22.7947 50.5407 22.9974 50.6595C23.3525 50.8677 24.5869 51.2965 24.8879 51.3163C24.9684 51.3216 25.2123 51.3649 25.4298 51.4126C25.6474 51.4604 26.1098 51.5058 26.4573 51.5135C27.1898 51.5298 31.1196 50.8935 31.6644 50.6704C32.1827 50.4581 33.786 49.3733 33.9574 49.119C34.0057 49.0473 34.196 48.8943 34.3802 48.7791C34.7851 48.5259 36.9039 45.6357 37.4702 44.5639C37.6528 44.2183 37.977 43.9489 39.2022 43.1249C40.0313 42.5672 40.8757 42.0286 41.0787 41.9279L41.4479 41.7447L42.3525 42.5759C43.547 43.6734 44.2708 44.1965 46.6147 45.5545Z" fill="#00FE19"/><path d="M47.8202 44.1918C49.036 42.7211 50.0989 41.1195 50.9847 39.4112C50.7635 39.2527 50.52 39.08 50.2851 38.9155C48.4832 37.6529 47.8195 37.1832 46.9908 36.584C45.1151 35.2276 43.7621 34.2058 43.0417 33.6015C42.6171 33.2453 42.2397 32.9564 42.203 32.9596C42.1663 32.9628 41.9373 33.2615 41.6941 33.6234C41.2839 34.2336 40.6499 34.933 39.7724 35.743C39.4272 36.0616 39.4093 36.1145 39.3332 37.0425C39.2895 37.5745 39.1115 38.6928 38.9376 39.5276C38.7637 40.3623 38.6468 41.069 38.6778 41.0979C38.7087 41.1267 39.0995 40.9384 39.5462 40.6793C39.9928 40.4202 40.4837 40.1461 40.6372 40.0702C40.7906 39.9943 41.007 39.8763 41.1182 39.8079C41.4294 39.6165 42.0384 39.7119 42.2239 39.9812C42.4945 40.3741 43.6153 41.364 44.6486 42.1229C45.5655 42.7963 46.1599 43.1892 47.8202 44.1918Z" fill="#00FE19"/><path d="M51.761 37.7824C51.1995 37.371 50.6046 36.9301 50.2139 36.6332C50.1096 36.5539 49.6227 36.194 49.1318 35.8335C46.8162 34.1325 44.6703 32.5054 44.0508 31.9811C42.6476 30.7934 42.4543 30.6761 41.9702 30.7185C41.6177 30.7493 41.508 30.8055 41.4377 30.9911C41.2927 31.3742 39.7789 33.2793 39.6076 33.2942C39.4363 33.3092 39.2559 32.4536 38.7745 29.3435C38.5737 28.0465 38.4782 27.5996 38.2038 26.6732C38.1278 26.4166 38.5546 25.9614 40.7763 23.9295C41.5173 23.2518 42.1752 22.6288 42.2384 22.545C42.3015 22.4613 42.4476 22.3847 42.563 22.3749C42.8062 22.3543 42.9667 22.4471 44.2783 23.3664C45.3115 24.0906 46.3287 24.7079 47.2381 25.1625C47.5449 25.3159 48.2001 25.655 48.694 25.916C49.1879 26.1769 49.6099 26.3889 49.6318 26.387C49.7285 26.3785 51.7408 27.5974 52.4671 28.1044L53.2678 28.6633L53.0563 26.2475L51.8008 25.4805C51.1103 25.0587 49.9279 24.392 49.1732 23.999C47.4153 23.0836 45.3653 21.84 44.307 21.047C43.8502 20.7047 43.3275 20.3447 43.1454 20.247C42.7428 20.0309 42.1797 20.0633 41.9805 20.3141C41.7485 20.6063 41.1347 21.1842 39.6343 22.5228C38.8673 23.2072 38.1268 23.8879 37.9889 24.0355C37.6308 24.4189 37.5261 24.3875 37.3031 23.8304C36.8659 22.7382 35.6448 19.8867 35.4694 19.5485C35.3666 19.3502 35.0813 18.7694 34.8355 18.2578C34.2763 17.0941 34.006 16.6495 33.1307 15.4539C32.7468 14.9295 32.4269 14.435 32.4199 14.3551C32.4129 14.2752 32.553 14.041 32.7311 13.8348C33.3279 13.1437 34.3344 11.3847 35.114 9.67016C35.5391 8.73546 36.1447 7.40707 36.4599 6.71826C36.7751 6.02946 37.4064 4.59626 37.8627 3.53336L38.3156 2.47842C47.5753 6.75846 54 16.1289 54 27C54 30.8332 53.2012 34.4798 51.761 37.7824Z" fill="#00FE19"/><path d="M10.6761 48.5083C10.8012 48.4217 10.9413 48.2969 10.9884 48.2299C11.1098 48.0572 11.7224 47.4706 11.7872 47.4649C11.8168 47.4623 11.9309 47.3607 12.0407 47.239C12.1505 47.1173 12.6602 46.5783 13.1734 46.0412C14.1075 45.0636 16.4149 42.0576 16.3942 41.8452C16.3882 41.7831 16.1713 41.2421 15.9123 40.6428C15.4858 39.656 14.7653 37.5214 14.5315 36.5515C14.481 36.3419 14.3463 36.0918 14.2322 35.9956C14.1181 35.8994 14.0209 35.7767 14.0162 35.7229C14.003 35.5716 13.3488 34.7286 13.2513 34.7371C13.2036 34.7413 12.9335 34.9976 12.651 35.3066C11.7265 36.318 10.1507 37.7926 9.66508 38.1007C9.58926 38.1488 9.41774 38.2821 9.28393 38.3968C9.15012 38.5115 8.31214 39.1615 7.42173 39.8414C6.27113 40.7198 5.2272 41.4701 4.50859 41.943C6.18487 44.461 8.27272 46.6815 10.6761 48.5083Z" fill="#00FE19"/><path d="M3.49926 40.303C3.77761 40.1392 4.00828 39.9946 4.05504 39.9499C4.10428 39.903 4.43241 39.662 4.78421 39.4145C6.06591 38.5127 8.20101 36.8364 9.29831 35.8703C9.7804 35.4458 10.6205 34.639 11.1651 34.0773C11.7098 33.5156 12.2806 32.9361 12.4337 32.7894C12.7193 32.5157 13.278 32.3891 13.4006 32.5702C13.4385 32.6261 13.5257 32.667 13.5944 32.661C13.6908 32.6526 13.6896 32.2775 13.5891 31.0192C13.5175 30.1222 13.4558 29.0978 13.4521 28.7428L13.4452 28.0972L12.8519 27.6901C12.5257 27.4662 11.9087 27.0236 11.4807 26.7066C11.0528 26.3896 10.3563 25.9127 9.93293 25.6469C9.50952 25.3811 9.0087 25.027 8.82003 24.8598L8.47694 24.556L7.86617 24.9633C7.53025 25.1873 6.94725 25.6271 6.57057 25.9406C5.56177 26.7803 5.00267 27.2277 3.88957 28.0862C3.3398 28.5102 2.82897 28.9079 2.75437 28.97C2.67977 29.032 2.1761 29.387 1.63507 29.7588L0.651429 30.4347L0.554679 29.3295C0.463319 28.2858 0.469325 28.2191 0.662449 28.1315C0.774939 28.0805 1.1247 27.8285 1.4397 27.5717C1.7547 27.3148 2.0318 27.1029 2.05548 27.1009C2.10079 27.0969 3.48278 25.9963 4.43138 25.2085C4.73888 24.9532 5.45098 24.3613 6.01388 23.8933C7.43298 22.7133 7.90908 22.3474 8.16978 22.2366C8.40481 22.1367 8.76231 22.2474 8.77784 22.4248C8.79105 22.5758 9.50879 23.1571 10.3668 23.7119C11.4013 24.3808 12.3678 25.0779 12.9621 25.5841C13.2379 25.819 13.5144 25.9872 13.5765 25.9578C13.6386 25.9284 13.7031 25.7376 13.7199 25.5337C13.8668 23.7431 13.9791 23.0929 14.3604 21.8251C14.4976 21.3688 14.7443 20.7415 14.9087 20.431C15.0731 20.1204 15.4419 19.3855 15.7283 18.7978C16.0148 18.21 16.4194 17.4946 16.6276 17.2078C16.8357 16.921 17.0006 16.625 16.994 16.5499C16.9764 16.3487 15.6047 13.0094 15.023 11.7518C14.7466 11.1541 14.0289 9.4427 13.4282 7.9487C12.8616 6.53933 12.238 5.06651 11.9916 4.55225C4.76041 9.39657 0 17.6424 0 27C0 31.8368 1.27181 36.3765 3.49926 40.303Z" fill="#00FE19"/><path d="M13.0386 3.88519C13.4936 4.87812 14.0156 6.08358 14.391 7.02003C14.9413 8.39283 15.659 10.0975 15.9857 10.8082C16.3124 11.5189 16.7867 12.6395 17.0398 13.2985C17.6886 14.9883 17.8645 15.3802 17.9701 15.371C18.0209 15.3665 18.2716 15.1548 18.5272 14.9004C19.3014 14.1297 20.2826 13.4996 21.9345 12.7123C23.9222 11.765 24.9754 11.5156 26.8866 11.5399C27.6431 11.5495 28.1585 11.5155 28.1726 11.4549C28.2102 11.2932 28.538 11.3088 28.6126 11.4759C28.65 11.5597 28.9802 11.7476 29.3462 11.8934C29.7123 12.0393 30.2371 12.334 30.5125 12.5484C30.7879 12.7629 31.0747 12.9329 31.1498 12.9264C31.2249 12.9198 31.6384 12.4354 32.0686 11.8499C33.0198 10.5553 33.6679 9.40556 34.6056 7.34926C34.8452 6.82379 35.0787 6.37443 35.1245 6.35068C35.1702 6.32694 35.2021 6.24338 35.1952 6.16501C35.1883 6.08664 35.2155 6.00349 35.2556 5.98024C35.2957 5.957 35.4409 5.68583 35.5784 5.37767C35.7158 5.0695 36.0958 4.23667 36.4229 3.52697C36.7499 2.81723 37.0564 2.13617 37.1041 2.01357C37.1107 1.99658 37.1174 1.97947 37.1242 1.96228C33.9977 0.696838 30.5802 0 27 0C21.8904 0 17.1124 1.41931 13.0386 3.88519Z" fill="#00FE19"/><path d="M34.2308 46.1274C33.0458 47.6659 31.7911 48.5838 30.511 48.8489C29.2469 49.1106 26.2885 49.4304 25.7182 49.367C24.4281 49.2235 22.6319 48.3919 21.7799 47.5438C20.3328 46.1033 17.498 41.3563 16.5026 38.7066C15.7177 36.6173 15.064 33.6223 14.8421 31.0981C14.6704 29.146 14.6744 28.8855 14.9113 26.569C15.2629 23.1294 15.4633 22.316 16.4832 20.1855C17.269 18.5439 19.0079 16.1432 19.819 15.5801C23.0184 13.359 24.545 12.7346 26.6089 12.8034C27.3647 12.8285 27.6362 12.8818 27.8256 13.0422C27.9641 13.1595 28.1648 13.226 28.2906 13.1964C28.4123 13.1677 28.5459 13.1945 28.5875 13.256C28.8329 13.3079 28.8836 13.2872 28.9055 13.304C28.9266 13.3203 28.9209 13.3715 29.0373 13.5568C29.1578 13.6257 29.2621 13.7305 29.269 13.7897C30.0427 14.5565 30.6868 15.1532 31.6604 15.9829C32.504 17.0655 33.521 18.7389 34.1952 20.154C34.4637 20.7175 34.7542 21.3177 34.8408 21.4879C34.9962 21.793 35.9065 23.9855 36.4062 25.258L36.663 25.9118L36.4741 26.1447C36.3702 26.2728 36.2917 26.4503 36.2994 26.5391C36.3265 26.8485 36.6607 27.3056 36.848 27.2892C37.1166 27.2657 37.2797 27.8001 37.5362 29.5444C37.6565 30.3631 37.8608 31.5658 37.99 32.217C38.1442 32.9939 38.2138 33.5989 38.1926 33.9762C38.1747 34.2925 38.1741 34.6876 38.1912 34.8542C38.2127 35.0645 38.1678 35.1782 38.0441 35.2261C37.8906 35.2856 37.8819 35.3483 37.9815 35.6798C38.1489 36.2377 37.9748 37.453 37.3477 40.1032C37.0116 41.5236 36.7949 42.2629 36.7124 42.2701C36.6758 42.2733 36.5886 42.4496 36.5186 42.6618C36.3445 43.19 35.4521 44.5418 34.2308 46.1274Z" fill="#00FE19"/></svg>
