<svg version="1.1" viewBox="0 0 10 10" xmlns="http://www.w3.org/2000/svg"><g transform="translate(-.26114 7.9829)"><path fill="#fff" d="m4.9153-7.9829c-0.18674 0-0.428 0.32447-1.0723 1.4531-0.59747 1.0467-0.83621 1.3844-1.0898 1.5449-0.09019 0.05706-0.46893 0.10352-0.8457 0.10352-0.43055 0-0.66553 0.03266-0.63672 0.08789 0.041612 0.07978-0.50874 0.04626-0.76562-0.04687-0.050814-0.01842-0.12619 0.04227-0.16797 0.13477-0.10011 0.22163-0.10191 1.1845-0.001953 1.1113 0.098465-0.07211 0.09713 0.0701-0.001953 0.1875-0.10903 0.12918-0.062638 2.122 0.048828 2.0977 0.047947-0.010464 0.079259 0.095413 0.074219 0.24805l-0.007813 0.26758 1.123 0.027344c1.3183 0.033895 1.5168 0.10755 1.9453 0.71875 0.30294 0.43206 0.82389 1.1339 1.1621 1.5645 0.10169 0.12945 0.23003 0.30047 0.28516 0.38086 0.055121 0.080395 0.13472 0.13222 0.17773 0.11523 0.14414-0.056929 0.16389-5.1177 0.027344-6.9375-0.065808-0.87697-0.11914-1.9232-0.11914-2.3262 0-0.64843-0.014726-0.73242-0.13477-0.73242zm1.1426 3c-0.00449-0.0032-0.00444-1e-3 -0.00391 0.0059 4e-4 0.0051 0.00232 0.0073 0.00391 0.0059s0.00499 0.0011 0.00781 0.0039c0.00291 0.0029-7.625e-4 2e-3 -0.00781 0-0.00684-0.0019-0.016201-0.0045-0.019531-0.0078-0.00431-0.0043-0.00578-0.0041-0.00781 2e-3 -0.00157 0.0047-0.012167 0.01258-0.023437 0.01758-0.016498 0.0073-0.025797 0.01534-0.046875 0.04492-0.02763 0.03877-0.061599 0.08397-0.097656 0.12891-0.018369 0.02289-0.020472 0.0286-0.013672 0.0332 0.00823 0.0055 0.00923 0.0045-0.013672 0.0098-0.00393 9e-4 -0.0063 0.0035-0.00391 0.0059 0.00238 0.0023 0.00135 0.0057-0.00195 0.0078s-0.00863 0.01334-0.011719 0.02344c-0.00398 0.01302-0.01135 0.02441-0.029297 0.03906-0.013927 0.01136-0.026984 0.02259-0.027344 0.02539-3.9e-4 0.0031 0.0045 0.0064 0.00977 0.0098 0.018172 0.01173 0.087584 0.07331 0.15625 0.13672 0.039048 0.03606 0.10336 0.09485 0.14258 0.13086 0.059639 0.05476 0.080305 0.07716 0.13477 0.13672 0.035815 0.03917 0.094737 0.09719 0.12891 0.13086 0.063804 0.06287 0.086973 0.08653 0.22461 0.20703 0.077419 0.06778 0.2101 0.18852 0.26953 0.24609 0.015999 0.0155 0.032136 0.02874 0.035156 0.0293 0.00351 6e-4 0.00355 0.0022 0.00195 0.0039-0.00183 0.0019 0.0124 0.01635 0.052734 0.05469 0.064512 0.06133 0.18169 0.17562 0.19336 0.18945 0.00443 0.0052 0.0097 0.01002 0.013672 0.01172 0.00397 0.0017 0.028506 0.0242 0.052734 0.04883 0.024229 0.02463 0.043952 0.04392 0.044922 0.04297 9.67e-4 -9.6e-4 0.027872 0.02586 0.060547 0.05859 0.032674 0.03273 0.059614 0.05955 0.058594 0.06055-0.00103 1e-3 0.00279 0.0067 0.00781 0.01172 0.00502 0.0049 0.00811 0.0066 0.00781 0.0039-3e-4 -0.0026 0.00133-0.0045 0.00391-2e-3 0.00259 0.0026 0.00313 0.0066 0.00195 0.0078-0.00137 0.0014 0.00341 0.0061 0.011719 0.01172 0.00715 0.0048 0.013427 0.0095 0.013672 0.01172 3.799e-4 0.0034 0.055671 0.05683 0.11523 0.11523-0.038093 0.0387-0.078131 0.07737-0.091797 0.08984-0.058363 0.05327-0.13684 0.13037-0.17188 0.16797-0.00468 5e-3 -0.011945 0.01202-0.015625 0.01563-0.01013 0.0099-0.066459 0.07115-0.089844 0.09766-0.011359 0.01288-0.032964 0.03561-0.046875 0.05078-0.013911 0.01516-0.029856 0.03422-0.035156 0.04102-0.016476 0.02122-0.295 0.3045-0.33398 0.33984-0.020324 0.01842-0.046661 0.04191-0.058594 0.05273s-0.032214 0.02852-0.044922 0.03906c-0.012707 0.01054-0.030003 0.0252-0.039063 0.0332s-0.031544 0.02713-0.048828 0.04101c-0.017283 0.01388-0.030696 0.02564-0.03125 0.02734-0.0017 0.0051 0.0029 0.0034 0.052734-0.03711 0.026488-0.02155 0.049001-0.04041 0.050781-0.04102-0.00243 0.0043-0.01771 0.02072-0.058594 0.05469-0.11456 0.09518-0.14168 0.11896-0.20117 0.17774-0.032901 0.03251-0.076263 0.0759-0.095703 0.09766-0.045158 0.05055-0.082469 0.091423-0.21875 0.22656-0.090787 0.090026-0.11381 0.11395-0.13086 0.13672-0.011422 0.015252-0.030828 0.037204-0.041016 0.048828-0.023638 0.026969-0.041552 0.054111-0.039063 0.056641 0.00522 0.00529-0.014547 0.011883-0.023437 0.00781-0.0083-0.0038-0.012764-0.00298-0.021484 0.00586-0.00338 0.00342-0.00495 0.00606-0.00586 0.00781v0.00195c0.00298-3.3e-4 0.00409 0.00372 0.00195 0.00781-0.00395 0.00755 0.00661 0.020526 0.015625 0.019531 0.00272-3e-4 0.013033-0.00899 0.023437-0.019531 0.021671-0.021959 0.025768-0.023036 0.039063-0.00391 0.00518 0.00744 0.00513 0.014801 0.00195 0.019531-0.00288 0.0043-0.0042 0.00664-0.00391 0.00391 2.8e-4 -0.00268-8.031e-4 -0.00507-0.00195-0.00391-0.00115 0.00116-0.00543 0.00482-0.00977 0.00781-0.0068 0.00469-0.00244 0.011199 0.027344 0.044922 0.019009 0.021522 0.038129 0.047745 0.042969 0.058594 0.00706 0.015837 0.035798 0.052992 0.068359 0.087891 0.00233 0.00249 0.013409 0.00759 0.025391 0.011719 0.015647 0.00539 0.02433 0.0051 0.03125 0 0.010016-0.00739 0.017416-0.0058 0.00977 0.00195-0.00241 0.00244-0.00466 0.00316-0.00586 0.00195-0.00119-0.00121-0.00372-2.169e-4 -0.00586 0.00195-0.00214 0.00216 0.00434 0.00801 0.015625 0.011719 0.017478 0.00575 0.019578 0.00541 0.017578-0.00195-0.00129-0.00475 1.431e-4 -0.00915 0.00195-0.00781 0.00181 0.00134 0.00443 7.769e-4 0.00586-0.00195 0.00143-0.00273 0.00404-0.00219 0.00586 0.00195 0.00185 0.00424 0.00516 0.00659 0.00781 0.00391 0.00259-0.00262 0.010008-0.00385 0.017578-0.00195 0.011816 0.00297 0.032334-0.00276 0.027344-0.00781-9.34e-4 -9.461e-4 0.010116-0.014292 0.025391-0.029297 0.015271-0.015 0.089897-0.089516 0.16602-0.16602 0.076119-0.0765 0.17429-0.17109 0.2168-0.21094 0.042506-0.039843 0.097999-0.094804 0.125-0.12109 0.027001-0.02629 0.051324-0.047818 0.052734-0.048828s0.082739-0.083844 0.18164-0.18359c0.098902-0.09975 0.18672-0.18821 0.19531-0.19531 0.012644-0.01056 0.016422-0.01233 0.013672-0.01563-0.00287-0.0034-0.00339-0.0042 0.00195-0.0039 0.00489 2.8e-4 0.011458-0.0061 0.03125-0.02734 0.062471-0.06692 0.10715-0.11352 0.16797-0.17578 0.043264-0.04429 0.065911-0.06846 0.066406-0.07226 5e-4 -0.0039 0.00164-0.0041 0.00391-2e-3 0.00284 0.0027 0.00321 2e-3 0.00391-0.0039 5.48e-4 -0.0046 0.00526-0.0095 0.011719-0.01367 0.015529-0.0102 0.021671-0.01733 0.019531-0.01953-0.00109-0.0011 0.01456-0.01819 0.035156-0.03906 0.023851-0.02421 0.037447-0.0363 0.037109-0.0332-3e-4 0.0027 0.00136 0.0026 0.00391 0s0.00509-0.0066 0.00391-0.0078c-0.00133-0.0013 0.00703-0.01051 0.023438-0.02539 0.014603-0.01324 0.037086-0.03439 0.048828-0.04687 0.035767-0.03804 0.092786-0.09711 0.13477-0.13867 0.02191-0.02169 0.057017-0.05921 0.080078-0.08399 0.01092-0.01174 0.018651-0.01863 0.025391-0.02539 0.021012 0.02099 0.050616 0.04985 0.058594 0.05859 0.053274 0.05836 0.13037 0.13684 0.16797 0.17188 0.00502 0.0047 0.012045 0.01192 0.015625 0.01563 0.00985 0.01013 0.071145 0.06645 0.097656 0.08984 0.012877 0.01136 0.035614 0.03297 0.050781 0.04687 0.015168 0.01391 0.034196 0.02986 0.041016 0.03516 0.021216 0.01648 0.30451 0.295 0.33984 0.33398 0.018424 0.02033 0.041913 0.04666 0.052734 0.05859 0.010822 0.01193 0.028518 0.03221 0.039063 0.04492 0.010544 0.0127 0.025217 0.02996 0.033203 0.03906 0.00799 0.0091 0.027137 0.0296 0.041016 0.04687 0.013878 0.01728 0.025668 0.03265 0.027344 0.0332 0.00513 0.0017 0.00149-0.0029-0.039063-0.05273-0.021555-0.02649-0.038456-0.04898-0.039063-0.05078 0.00504 0.0036 0.022137 0.01941 0.054687 0.05859 0.095174 0.11456 0.11896 0.14168 0.17773 0.20117 0.032507 0.032901 0.075897 0.076264 0.097656 0.095703 0.050547 0.045158 0.08947 0.082469 0.22461 0.21875 0.090026 0.090787 0.1159 0.11381 0.13867 0.13086 0.015252 0.011422 0.037204 0.030828 0.048828 0.041016 0.02697 0.023638 0.054113 0.041552 0.056641 0.039063 0.00529-0.00522 0.011881 0.014548 0.00781 0.023437-0.0038 0.0083-0.00298 0.012764 0.00586 0.021484 0.00342 0.00338 0.00606 0.00495 0.00781 0.00586h0.00195c-3.29e-4 -0.00298 0.00372-0.00409 0.00781-0.00195 0.00755 0.00395 0.020526-0.00661 0.019531-0.015625-3.001e-4 -0.00272-0.00898-0.013032-0.019531-0.023438-0.021964-0.021671-0.023037-0.025768-0.00391-0.039062 0.00744-0.00518 0.014796-0.00709 0.019531-0.00391 0.0043 0.00288 0.00664 0.00615 0.00391 0.00586-0.00268-2.8e-4 -0.00507 8.031e-4 -0.00391 0.00195 0.00116 0.00115 0.00482 0.00543 0.00781 0.00977 0.00468 0.0068 0.011199 0.00244 0.044922-0.027344 0.021523-0.019009 0.047745-0.038129 0.058594-0.042969 0.015838-0.00706 0.052991-0.035798 0.087891-0.068359 0.00249-0.00233 0.00759-0.013409 0.011719-0.025391 0.00539-0.015647 0.0051-0.02433 0-0.03125-0.00738-0.010015-0.0058-0.017416 0.00195-0.00977 0.00244 0.00241 0.00317 0.00466 0.00195 0.00586-0.00121 0.00119-2.129e-4 0.00372 0.00195 0.00586 0.00217 0.00214 0.00606-0.00434 0.00977-0.015625 0.00575-0.017478 0.0054-0.021531-0.00195-0.019531-0.00475 0.00129-0.0072 0.00181-0.00586 0s7.739e-4 -0.00443-0.00195-0.00586c-0.00273-0.00143-0.00219-0.00404 0.00195-0.00586 0.00424-0.00185 0.00659-0.00516 0.00391-0.00781-0.00263-0.00259-0.00385-0.011961-0.00195-0.019531 0.00297-0.011816-0.00276-0.030381-0.00781-0.025391-9.466e-4 9.34e-4 -0.014292-0.010115-0.029297-0.025391-0.015-0.015271-0.089516-0.089897-0.16602-0.16602-0.0765-0.076118-0.17305-0.17429-0.21289-0.2168-0.039843-0.04251-0.09285-0.09995-0.11914-0.12695-0.02629-0.027-0.049772-0.04938-0.050781-0.05078-0.00101-0.0014-0.081892-0.08274-0.18164-0.18164-0.099749-0.0989-0.18816-0.18671-0.19531-0.19531-0.010525-0.01264-0.014294-0.01647-0.017578-0.01367 0 0-0.00195-2e-3 -0.00195-2e-3 2.775e-4 -0.0049-0.00614-0.01146-0.027344-0.03125-0.066922-0.06247-0.11352-0.10716-0.17578-0.16797-0.044292-0.04326-0.068451-0.06591-0.072266-0.06641-0.00386-5e-4 -0.00603-0.0016-0.00391-0.0039 0.00265-0.0028 0.00195-0.0032-0.00391-0.0039-0.0046-5.4e-4 -0.00943-0.0052-0.013672-0.01172-0.010193-0.01552-0.015407-0.02163-0.017578-0.01953-0.0011 0.0011-0.02014-0.01456-0.041016-0.03516-0.024174-0.02385-0.034399-0.03745-0.03125-0.03711 0.00272 3e-4 0.00258-0.0014 0-0.0039-0.00258-0.0026-0.00661-0.0051-0.00781-0.0039-0.00134 0.0013-0.010511-7e-3 -0.025391-0.02344-0.013247-0.0146-0.034386-0.03709-0.046875-0.04883-0.038042-0.03576-0.097108-0.09279-0.13867-0.13477-0.018121-0.0183-0.046639-0.04597-0.070312-0.06836 0.11909-0.11838 0.2432-0.23861 0.32031-0.3125 0.2067-0.19806 0.52004-0.51263 0.60547-0.60742 0.12783-0.14183 0.48455-0.50721 0.65625-0.67188 0.0578-0.05543 0.090402-0.09506 0.083984-0.10156-0.00207-0.0021-0.00233-0.0065 0-0.0098 0.00317-0.0045 0.00296-0.0064-0.00391-0.0059-0.00504 4e-4 -0.00728 0.0023-0.00586 0.0039s-0.00113 5e-3 -0.00391 0.0078c-0.00287 0.0029-0.00202-7.12e-4 0-0.0078 0.00197-0.0068 0.00453-0.01428 0.00781-0.01758 0.00425-0.0043 0.00415-0.0078-0.00195-0.0098-0.00471-0.0016-0.01258-0.01217-0.017578-0.02344-0.00732-0.0165-0.015346-0.0258-0.044922-0.04687-0.03877-0.02763-0.083971-0.0616-0.12891-0.09766-0.022893-0.01839-0.02864-0.02047-0.033203-0.01367-0.00552 0.0082-0.00448 0.0092-0.00977-0.01367-9.07e-4 -0.0039-0.0035-0.0044-0.00586-2e-3s-0.00569 0.0013-0.00781-2e-3 -0.013332-0.0086-0.023437-0.01172c-0.013022-4e-3 -0.024417-0.0133-0.039063-0.03125-0.011366-0.01392-0.022598-0.02503-0.025391-0.02539-0.00303-4e-4 -0.00636 0.0025-0.00977 0.0078-0.011735 0.01817-0.073307 0.08758-0.13672 0.15625-0.03606 0.03905-0.094851 0.10337-0.13086 0.14258-0.054763 0.05964-0.077156 0.08226-0.13672 0.13672-0.039169 0.03582-0.099147 0.09278-0.13281 0.12695-0.062866 0.0638-0.084582 0.08893-0.20508 0.22656-0.067778 0.07742-0.18852 0.20815-0.24609 0.26758-0.015498 0.016-0.028736 0.03216-0.029297 0.03516-6.53e-4 0.0035-0.00224 0.0055-0.00391 0.0039-0.0019-0.0018-0.016343 0.0124-0.054688 0.05273-0.061329 0.06451-0.17562 0.17974-0.18945 0.19141-0.00525 0.0044-0.011972 0.01163-0.013672 0.01563s-0.022245 0.02655-0.046875 0.05078-0.043925 0.04395-0.042969 0.04492c9.6e-4 9.7e-4 -0.02586 0.02983-0.058594 0.0625-0.032733 0.03267-0.059537 0.05764-0.060547 0.05664s-0.00676 0.0028-0.011719 0.0078c-0.00495 5e-3 -0.00659 0.0081-0.00391 0.0078s0.00255 0.0013 0 0.0039c-0.00255 0.0025-0.00469 0.0051-0.00586 0.0039-0.00136-0.0014-0.00613 0.0015-0.011719 0.0098-0.00481 0.0071-0.0095 0.01343-0.011719 0.01367-0.00238 2.64e-4 -0.04124 0.03733-0.078125 0.07422-0.12728-0.12771-0.26455-0.26687-0.3457-0.35156-0.19806-0.2067-0.51068-0.52004-0.60547-0.60547-0.14183-0.12782-0.50721-0.48455-0.67188-0.65625-0.055433-0.0578-0.097006-0.09038-0.10352-0.08398-0.00209 2e-3 -0.00647 3.47e-4 -0.00977-2e-3zm3.3809 0.0918c7.315e-4 -0.0022 0.0018-0.0025 0.00391 0 0.00232 0.0028 0.00118 0.0042-0.00195 0.0039-0.00283-3e-4 -0.00268-0.0017-0.00195-0.0039zm-3.5098 0.03906c0.00278-0.0024 0.00425-0.0011 0.00391 2e-3 -3.1e-4 0.0028-0.0017 0.0046-0.00391 0.0039-0.00221-8e-4 -0.00252-0.0038 0-0.0059zm3.6953 0.03516c7.32e-4 -0.0022 0.00376-0.0025 0.00586 0 0.00232 0.0028 0.00118 0.0062-0.00195 0.0059-0.00283-3e-4 -0.00464-0.0037-0.00391-0.0059zm-3.7695 0.15234c0.00278-0.0024 0.00425-0.0031 0.00391 0v2e-3c-3.1e-4 0.0028-0.0017 0.0027-0.00391 2e-3 -0.00221-8e-4 -0.00252-0.0018 0-0.0039zm1.0098 0.46289c0.0011-0.0011 0.00684 3e-3 0.011719 0.0078 0.00487 0.0048 0.00828 0.0093 0.00781 0.0098-4.651e-4 4e-4 -0.00621-0.0036-0.011719-0.0078-0.00551-0.0042-0.00891-0.0087-0.00781-0.0098zm2.1152 0.32031c0.00108 0.0011-3e-3 0.0068-0.00781 0.01172-0.00481 0.0049-0.00931 0.0083-0.00977 0.0078-4.58e-4 -4.7e-4 0.00362-0.0043 0.00781-0.0098s0.00868-0.01087 0.00977-0.0098zm-0.7793 0.19922c0.0052-5e-3 0.00671-0.0042 0.00391 0-0.00253 0.0038-0.00759 0.0071-0.00977 0.0078s0.00115-0.0032 0.00586-0.0078zm-0.6543 0.1582c0.00121-0.0012 0.00342-4.47e-4 0.00586 2e-3 0.00244 0.0024 0.00316 0.0047 0.00195 0.0059s-0.00342 4.47e-4 -0.00586-2e-3c-0.00244-0.0025-0.00316-0.0047-0.00195-0.0059zm-0.48438 0.09766c0.00383 0.0026 0.00902 0.0056 0.00977 0.0078 7.4e-4 0.0022-0.00323 7.94e-4 -0.00781-0.0039-0.00506-0.0052-0.00619-0.0067-0.00195-0.0039zm0.65625 0.07617c-2.9e-4 -0.0026 0.00133-0.0025 0.00391 0s0.00512 0.0066 0.00391 0.0078-0.00478 0.0011-0.00586 0c-0.00107-0.0011-0.00166-0.0051-0.00195-0.0078zm0.0625 0.06055c0.00272 3e-4 0.00478 0.0028 0.00586 0.0039 0.00107 0.0011 0.00121 0.0027 0 0.0039s-0.00328 5.47e-4 -0.00586-2e-3c-0.00258-0.0025-0.00272-0.0062 0-0.0059zm0.52148 0.08984c0.0012 0.0012 4.569e-4 0.0035-0.00195 0.0059-0.00241 0.0024-0.00466 0.0032-0.00586 2e-3s-4.569e-4 -0.0035 0.00195-0.0059c0.00241-0.0024 0.00466-0.0032 0.00586-2e-3zm-0.17383 0.17188c0.00268-3e-4 0.00255 0.0033 0 0.0059s-0.00661 0.0032-0.00781 2e-3c-0.0012-0.0013-0.00106-0.0028 0-0.0039s0.00513-0.0036 0.00781-0.0039zm0.66797 0.74609c0.00121-0.0012 0.00342-4.47e-4 0.00586 2e-3 0.00244 0.0025 0.00317 0.0047 0.00195 0.0059-0.00121 0.0012-0.00342 4.47e-4 -0.00586-2e-3 -0.00244-0.0024-0.00317-0.0047-0.00195-0.0059zm0.095703 0.09375c0.00427 4.6e-4 0.015762 0.01353 0.013672 0.01563-4.769e-4 4e-4 -0.00474-0.0028-0.00977-0.0078-0.00502-5e-3 -0.00651-0.0081-0.00391-0.0078zm-2.2031 0.05273c-0.00209 0.0021-0.00606 0.0068-0.011719 0.0098 0 0-0.00195-2e-3 -0.00195-2e-3 0.00405-0.0042 0.010992-0.0075 0.013672-0.0078zm-0.025391 0.02149c-0.00253 0.0038-0.00563 9e-3 -0.00781 0.0098-0.00218 7e-4 -8.037e-4 -0.0032 0.00391-0.0078 0.0052-5e-3 0.00671-0.0062 0.00391-2e-3zm-0.021484 0.01953-0.00977 0.0098c-0.00481 0.0049-0.011738 0.01182-0.017578 0.01563l-0.011719 0.0059 0.00977-0.0078c0.00481-0.0049 0.011738-0.01182 0.017578-0.01563zm0.00781 0.0059c0.00568-0.0031 0.00666-0.0033 0.00391 2e-3 -0.00199 0.0038-0.00617 0.0086-0.00977 0.0098-0.00854 0.0029-0.00389-0.0065 0.00586-0.01172zm0.41016 0.13867c0.0012 0.0012 4.569e-4 0.0054-0.00195 0.0078-0.00241 0.0024-0.00466 0.0032-0.00586 2e-3s-4.569e-4 -0.0054 0.00195-0.0078c0.00241-0.0024 0.00466-0.0032 0.00586-2e-3zm1.5488 0.03906c-6.801e-4 -0.0062 0.00582 3.98e-4 0.011719 0.01172 0.00389 0.0075 0.00259 0.0083-0.00391 2e-3 -0.00414-4e-3 -0.00752-0.01097-0.00781-0.01367zm0.58594 0.02734c0.00244 0.0024 0.00728 0.0069 0.00977 0.01172 0.00249 0.0048 0.00244 0.0063 0 0.0039s-0.00728-0.0069-0.00977-0.01172c-0.00249-0.0048-0.00244-0.0063 0-0.0039zm-0.53516 0.0078c0.0038 2e-3 0.00659 0.0062 0.00781 0.0098 0.00291 0.0085-0.00648 0.0039-0.011719-0.0059-0.00305-0.0057-0.00135-0.0066 0.00391-0.0039zm-0.00781 0.01172 0.00781 0.0078c0.00488 0.0048 0.011788 0.01373 0.015625 0.01953l0.00781 0.01172-0.00977-0.0098c-0.00488-0.0048-0.011788-0.01373-0.015625-0.01953zm-1.6855 0.0098c-4.57e-4 0.0043-0.013565 0.01577-0.015625 0.01367-4.7e-4 -5e-4 0.00285-0.0048 0.00781-0.0098 0.00495-5e-3 0.00809-0.0065 0.00781-0.0039zm-0.30859 0.30462c0.00477-0.00248 0.00632-0.00244 0.00391 0s-0.00695 0.00533-0.011719 0.00781c-0.00477 0.00248-0.00827 0.00244-0.00586 0s0.0089-0.00533 0.013672-0.00781zm-0.74805 0.17188c0.00116 0.00118-2.963e-4 0.00415-0.00391 0.00781-0.00361 0.00366-0.00734 0.00634-0.00781 0.00586s9.863e-4 -0.00345 0.00391-0.00781c0.00292-0.00436 0.00665-0.00703 0.00781-0.00586zm-0.070312 0.18164c7.3e-4 -0.00221 0.00376-5.569e-4 0.00586 0.00195 0.00232 0.00278 0.00118 0.00425-0.00195 0.00391-0.00284-3.1e-4 -0.00464-0.00365-0.00391-0.00586zm0.021484 0.00781c0.00119 0.00121-2.831e-4 0.00462-0.00195 0.00781-0.00167 0.00318-0.00271 0.00512-0.00391 0.00391-0.00119-0.00121-0.00167-0.00462 0-0.00781 0.00167-0.00318 0.00466-0.00512 0.00586-0.00391zm0 0.015625c7.301e-4 -0.00221 0.00376-0.00251 0.00586 0 0.00232 0.00278 0.00118 0.00425-0.00195 0.00391-0.00284-3.1e-4 -0.00464-0.0017-0.00391-0.00391zm3.5078 0.041016c0.00117-0.00116 0.00415 2.962e-4 0.00781 0.00391 0.00366 0.00361 0.00634 0.00734 0.00586 0.00781-4.762e-4 4.7e-4 -0.00346-9.862e-4 -0.00781-0.00391-0.00436-0.00292-0.00703-0.00665-0.00586-0.00781zm0.20508 0.042969c0.00278-0.00232 0.00425-0.00118 0.00391 0.00195-3.02e-4 0.00284-0.00365 0.00464-0.00586 0.00391s-5.619e-4 -0.00376 0.00195-0.00586zm-0.015625 0.00586c0.00121-0.00119 0.00462-0.00167 0.00781 0s0.00512 0.00466 0.00391 0.00586c-0.00121 0.00119-0.00462 0.00167-0.00781 0s-0.00512-0.00466-0.00391-0.00586zm-0.00781 0.015625c0.00278-0.00232 0.00425-0.00118 0.00391 0.00195-3.02e-4 0.00284-0.0017 0.00464-0.00391 0.00391s-0.00252-0.00376 0-0.00586z"><animate attributeName="display" values="inline;none;none" keyTimes="0;0.5;1" dur="0.5s" begin="0s" repeatCount="indefinite" /></path><path fill="#fff" d="m4.6525-7.9829c-0.031674-7.59e-4 -0.088093 0.10072-0.12695 0.22461-0.038857 0.12389-0.12075 0.22461-0.18164 0.22461-0.060894 0-0.14942 0.08889-0.19726 0.19726-0.047848 0.10838-0.14979 0.27765-0.22461 0.375-0.07481 0.09735-0.11518 0.21787-0.089844 0.26758 0.02534 0.0497 0.013117 0.06547-0.027343 0.03516-0.040461-0.03031-0.26992 0.29473-0.51172 0.72266-0.73681 1.304-0.67749 1.2573-1.709 1.3262-1.0531 0.07036-1.196 0.10076-1.2012 0.25195-0.00218 0.06307-0.022855 0.23692-0.046875 0.38672-0.02402 0.1498-0.018188 0.39075 0.013672 0.53516 0.03451 0.15643 0.020704 0.43817-0.035156 0.69922-0.06012 0.28098-0.069884 0.51475-0.027344 0.65039 0.03651 0.11633 0.0498 0.22946 0.03125 0.25195s0.013932 0.25979 0.070312 0.52734l0.10156 0.48633 1.0449 0.04492c0.98297 0.04237 1.0585 0.05964 1.2559 0.27148 0.11544 0.12389 0.23673 0.27594 0.26953 0.33789 0.032797 0.06195 0.099368 0.11384 0.14844 0.11524 0.049069 0.0013 0.48902 0.4666 0.97852 1.0352 0.4895 0.56855 0.93811 1.0332 0.99609 1.0332 0.08828 0 0.096575-0.16482 0.046875-1.0137-0.03264-0.55751-0.053422-1.9461-0.044922-3.0859 0.011145-1.4964-0.016872-2.3468-0.10156-3.0625-0.064511-0.54512-0.13379-1.375-0.1543-1.8438-0.034609-0.79099-0.090562-0.98964-0.27734-0.99414zm1.3633 3.002-0.00195 2e-3c4e-4 3e-3 -0.00176 0.0042-0.00586 2e-3 -0.0076-0.0039-0.020532 0.0046-0.019532 0.01367 3e-4 0.0027 9e-3 0.01499 0.019532 0.02539 0.02193 0.02167 0.021133 0.02381 0.00195 0.03711-0.0074 0.0052-0.014831 0.0071-0.019531 0.0039-0.0043-0.0029-0.00455-0.0042-0.00195-0.0039l0.00195-2e-3c-0.0012-0.0012-0.00481-0.0054-0.00781-0.0098-0.0047-0.0068-0.011202-0.0044-0.044922 0.02539-0.02152 0.01901-0.047743 0.04008-0.058593 0.04492-0.015841 0.0071-0.051038 0.0358-0.085938 0.06836-0.0025 0.0023-0.0096 0.01341-0.013672 0.02539-0.0054 0.01565-0.0051 0.02433 0 0.03125 0.0074 0.01002 0.0077 0.01739 0 0.0098-0.0024-0.0024-0.00511-0.0066-0.00391-0.0078s0.0022-0.0037 0-0.0059c-0.0022-0.0021-8e-3 0.0063-0.011719 0.01758-0.0057 0.01748-0.00545 0.01958 0.00195 0.01758 0.0048-0.0013 0.00716-0.0018 0.00586 0-0.0014 0.0018-7.94e-4 0.0063 0.00195 0.0078 0.0027 0.0014 0.00215 4e-3 -0.00195 0.0059-0.0043 0.0019-0.00455 0.0052-0.00195 0.0078s0.0019 0.01001 0 0.01758c-3e-3 0.01182 0.00271 0.03233 0.00781 0.02734 9.4e-4 -9.34e-4 0.014297 0.01011 0.029297 0.02539 0.015 0.01527 0.08952 0.0899 0.16602 0.16602 0.076499 0.07612 0.17306 0.17234 0.21289 0.21484 0.03984 0.04251 0.09285 0.09995 0.11914 0.12695 0.02629 0.027 0.049781 0.05133 0.050781 0.05274 1e-3 0.0014 0.083851 0.08274 0.18359 0.18164 0.09975 0.0989 0.18626 0.18672 0.19336 0.19531 0.01056 0.01264 0.014278 0.01447 0.017578 0.01172 0.0034-0.0029 0.00421-0.0014 0.00391 0.0039-2.81e-4 0.0049 0.0061 0.01146 0.027343 0.03125 0.06692 0.06247 0.11352 0.10716 0.17578 0.16797 0.044291 0.04326 0.068466 0.06591 0.072266 0.06641 0.0039 4.99e-4 0.00395 0.0016 0.00195 0.0039-0.0027 0.0028-0.00199 0.0032 0.00391 0.0039 0.0046 5.48e-4 0.0095 0.0053 0.013671 0.01172 0.0102 0.01553 0.015378 0.02167 0.017579 0.01953 0.0011-0.0011 0.020135 0.01456 0.041015 0.03516 0.02421 0.02385 0.036303 0.03745 0.033203 0.03711-0.0028-2.9e-4 -0.0026 0.0014 0 0.0039s0.00466 0.0031 0.00586 2e-3c0.0013-0.0013 0.012463 9e-3 0.027343 0.02539 0.01325 0.0146 0.032432 0.03514 0.044922 0.04687 0.03804 0.03577 0.09711 0.09279 0.13867 0.13477 0.02169 0.02191 0.059205 0.05897 0.083985 0.08203 0.0035 0.0033 0.00471 0.0049 0.00781 0.0078-0.07714 0.07419-0.14102 0.13703-0.16797 0.16406-0.01919 0.01924-0.061736 0.06422-0.097656 0.09961-0.03591 0.03541-0.067989 0.06453-0.068359 0.06641-3.56e-4 0.0019-0.00381 0.0077-0.00781 0.01172-0.0059 0.0057-6e-3 4e-3 0-0.0039 0.0042-0.0055-0.013919 0.01438-0.042969 0.04297-0.04461 0.04391-0.10026 0.10086-0.13867 0.14062 0.0069-0.0073 0.012982-0.01243 0.013672-0.01172 0.0018 0.0019-0.017054 0.02253-0.021484 0.02344-2e-3 4.2e-4 8.94e-4 -0.0044 0.00781-0.01172-0.0047 0.0049-0.0096 0.01154-0.015624 0.01758 9.75e-4 9.95e-4 -4.7e-4 0.0043-0.00391 0.0078-0.0035 0.0035-0.00727 0.0073-0.00976 0.0078-0.0024 5.03e-4 -9.94e-4 -0.0028 0.00391-0.0078-3e-3 0.0033-0.030394 0.0282-0.027344 0.02539 0.0081-0.0075 0.014905-0.01245 0.015625-0.01172 1e-3 1e-3 -0.1304 0.13806-0.14062 0.14648-0.0013 0.0011-2.1e-5 -0.0021 0.00391-0.0078 0.0058-0.0085 0.00459-0.0087-0.00781 0.0039-0.0049 5e-3 -0.00827 0.0099-0.00977 0.01172h0.00195c0.0093-0.0056-0.0062 0.01237-0.042968 0.05078-0.01836 0.01919-0.026051 0.02674-0.025391 0.02344 5.39e-4 -0.0027 0.00181-0.0066 0.00391-0.0078-6e-3 0.0063-0.011302 0.01321-0.013672 0.01563 0.0036 1.23e-4 -0.010436 0.01481-0.060546 0.06641-0.03487 0.03585-0.062574 0.06665-0.064454 0.06836-0.0019 0.0017-0.00295 0.0029-0.00195 0.0039 0.0011 0.0011-0.00206 0.0061-0.00976 0.01172-0.0066 0.0049-0.012832 0.0096-0.013672 0.01172-8.44e-4 0.0021-0.00406 0.0018-0.00586 0-0.0024-0.0025-0.00286 0.0017-0.00586 0.0078-0.0021 0.0044-0.00747 0.0069-0.00977 0.0078-0.0022 9.44e-4 -0.00285 0.0029-0.00195 0.0039 9.75e-4 9.96e-4 -0.01002 0.01525-0.02539 0.03125-0.01683 0.01748-0.027864 0.02605-0.027344 0.02344 4.68e-4 -0.0024-0.00141-0.0026-0.00391 0s-0.00305 0.0083-0.00195 0.0098c0.0013 0.0019-5.38e-4 2e-3 -0.00391 2e-3 -0.0041-7.2e-5 -0.00466 5.14e-4 -0.00586 0.0059-9.57e-4 0.0046-0.00231 0.0055-0.00391 0.0039-0.0012-0.0012-0.00557 0.0016-0.00977 0.0059l0.00195 2e-3c0.0066-0.0039 0.00585-0.0022-0.00195 0.0059-0.0053 0.0055-0.010619 0.0089-0.011719 0.0078-0.0014-0.0015-0.00511 8.3e-5 -0.00781 0.0059-2e-3 0.0043-0.020399 0.02833-0.042969 0.05273-0.03285 0.03551-0.041835 0.04382-0.046875 0.04492-0.0042 8.93e-4 -0.00531 4.21e-4 -0.00391 2e-3 0.0014 0.0016-0.010526 0.01572-0.035156 0.04102-0.01954 0.02011-0.037466 0.03735-0.041016 0.04101-0.02613 0.02692-0.061649 0.06338-0.074219 0.07617-0.0082 0.0084-0.017191 0.02061-0.019531 0.02539l-0.00195 2e-3c5.59e-4 -0.0031-0.00141-0.0026-0.00391 0s-0.00491 0.0048-0.00391 0.0059c0.0013 0.0013-8.03e-4 0.0032-0.00781 0.0078-0.0063 0.0041-0.0098 0.0078-0.011719 0.0098l0.00195 2e-3c0.0023-4.61e-4 -0.00106 0.0032-0.00586 0.0078s-0.00821 0.0059-0.00781 0.0039c-0.0027 0.0033-9e-3 0.01142-0.015625 0.02149-0.0081 0.0124-0.015311 0.01969-0.019531 0.02148-0.0038 0.0016-0.011461 0.0076-0.019531 0.01758-0.0092 0.0113-0.013995 0.0168-0.015625 0.01563l-0.00195 2e-3c2.4e-5 0.0025-6e-3 0.01171-0.011719 0.01758-0.0057 0.0059-0.00901 0.01044-0.00781 0.01172 0.0013 0.0014 0.00125 3e-3 -0.00195 0.0039-0.0067 0.0019-0.017755 0.01148-0.015625 0.01367 9.5e-4 9.72e-4 -0.0043 0.0067-0.011719 0.01367-0.0074 0.0069-0.012558 0.01281-0.011718 0.01367 8.44e-4 8.66e-4 -0.00141 0.0033-0.00391 0.0059s-0.00441 0.0025-0.00391 0c4.88e-4 -0.0025-0.00206-0.0018-0.00586 2e-3 -0.0037 0.0038-0.00571 0.0072-0.00391 0.0078 0.0019 6.69e-4 9.93e-4 0.0073-0.00391 0.01172-0.0057 0.0051-0.00761 0.0066-0.00391 0.0059v2e-3c-0.0034 0.0021-0.010372 0.0084-0.013672 0.01367-0.0042 0.0067-0.00809 0.01149-0.015625 0.01563-0.01422 0.0078-0.058229 0.05109-0.074218 0.07422-0.0068 0.0099-0.012752 0.01656-0.013672 0.01563-9.26e-4 -9.5e-4 -0.00336 0.0014-0.00586 0.0039-0.0025 0.0026-0.00225 0.0048 0.00195 0.0059 0.0062 0.0015 0.00619 0.0055-0.00391 0.01758-0.01288 0.01552-0.019442 0.0353-0.00781 0.02344 0.0036-0.0037 0.00681-5e-3 0.00781-0.0039s-0.00111 0.0022-0.00391 0.0039-0.00506 0.0068-0.00586 0.01172c-8.52e-4 0.0068-0.0035 0.01231-0.013672 0.02148-0.01281 0.01161-0.016087 0.02312-0.00391 0.01367 0.0037-0.0028 0.00556-8.95e-4 0.00586 0.0059 2.03e-4 0.0053 0.0082 0.01934 0.019531 0.0332 0.01135 0.01385 0.021424 0.02446 0.021484 0.02539 7.1e-5 9.22e-4 7.53e-4 0.0034 0.00195 0.0039 0.0012 4.83e-4 0.0013 0.0056 0 0.0098-0.0014 0.0043-2.76e-4 0.0087 0.00391 0.0098 0.0043 0.0011 0.00485 0.0022 0.00195 0.0039-0.0028 0.0018 0.00326 0.0064 0.00976 0.01172 0.0062 0.0051 0.018154 0.01682 0.027344 0.02539 0.02258 0.02105 0.040278 0.02984 0.085938 0.03906 0.04426 0.0089 0.09455 4e-3 0.11523-0.0098 0.01-0.0066 0.04506-0.04075 0.13086-0.12695 0.15536-0.15608 0.2291-0.22501 0.25195-0.24023 0.01571-0.01043 0.0302-0.0277 0.12695-0.12695 0.07288-0.07474 0.11388-0.11248 0.12109-0.11719 6e-3 -0.0039 0.023575-0.02277 0.041015-0.03906 0.01745-0.01629 0.045257-0.04118 0.060547-0.05469 0.03964-0.03499 0.07899-0.0734 0.11133-0.11328 0.02286-0.02818 0.029449-0.03859 0.042969-0.04883 0.0092-0.0069 0.035531-0.02811 0.056641-0.04883 0.0211-0.02072 0.06078-0.05828 0.08789-0.08399s0.084539-0.08245 0.12891-0.12695c0.04436-0.0445 0.12399-0.12387 0.17774-0.17578 0.10891-0.10518 0.23092-0.22708 0.35742-0.35352 0.11919 0.11989 0.24191 0.24452 0.31641 0.32227 0.19806 0.2067 0.51068 0.51809 0.60547 0.60352 0.14183 0.12782 0.50725 0.48455 0.67188 0.65625 0.05543 0.0578 0.09701 0.09236 0.10352 0.08594 0.0021-0.0021 0.00647-0.0023 0.00977 0 0.0045 0.0032 0.00636 3e-3 0.00586-0.0039-4e-4 -0.0051-0.00231-0.0092-0.00391-0.0078s-0.00501 8.74e-4 -0.00781-2e-3c-0.0029-0.0029-0.00114-4e-3 0.00586-2e-3 0.0068 2e-3 0.016231 0.0065 0.019531 0.0098 0.0043 0.0043 0.00581 0.0041 0.00781-2e-3 0.0016-0.0047 0.012167-0.01258 0.023437-0.01758 0.0165-0.0073 0.025805-0.01731 0.046875-0.04687 0.02763-0.03877 0.061596-0.08202 0.097656-0.12695 0.01839-0.02289 0.020472-0.02864 0.013672-0.0332-0.0082-0.0055-0.00731-0.0045 0.015625-0.0098 0.0039-9e-4 0.00435-0.0035 0.00195-0.0059s-0.00135-0.0076 0.00195-0.0098c0.0033-0.0021 0.0086-0.01138 0.011718-0.02148 4e-3 -0.01302 0.0133-0.02442 0.03125-0.03906 0.01392-0.01137 0.025031-0.0226 0.025391-0.02539 4e-4 -3e-3 -0.00251-0.0083-0.00781-0.01172-0.01817-0.01174-0.087579-0.07136-0.15625-0.13476-0.03905-0.03606-0.10337-0.09485-0.14258-0.13086-0.05964-0.05476-0.08226-0.07716-0.13672-0.13672-0.035821-0.03917-0.092781-0.09915-0.12695-0.13281-0.06381-0.06287-0.088929-0.08458-0.22656-0.20508-0.07742-0.06778-0.2101-0.18852-0.26953-0.24609-0.016-0.0155-0.030203-0.02874-0.033203-0.0293-0.0035-6.6e-4 -0.00551-0.0022-0.00391-0.0039 0.0018-0.0019-0.012404-0.01634-0.052734-0.05469-0.06451-0.06133-0.17974-0.17562-0.19141-0.18945-0.0044-0.0053-0.011625-0.01197-0.015625-0.01367s-0.026552-0.02225-0.050782-0.04687c-0.02423-0.02463-0.045895-0.04393-0.046875-0.04297-9.7e-4 9.6e-4 -0.027876-0.02586-0.060547-0.05859-0.032669-0.03273-0.059593-0.05954-0.058593-0.06055 1e-3 -1e-3 -8.19e-4 -0.0068-0.00586-0.01172-5e-3 -5e-3 -0.010025-0.0066-0.00976-0.0039 3e-4 0.0027-0.00131 0.0026-0.00391 0-0.0025-0.0025-0.00315-0.0047-0.00195-0.0059 0.0014-0.0014-0.0034-0.0061-0.011718-0.01172-0.0071-0.0048-0.013432-0.0095-0.013672-0.01172-2.81e-4 -0.0025-0.037805-0.04185-0.078125-0.08203 0.24042-0.24514 0.47815-0.49254 0.66406-0.69336 0.08355-0.09025 0.43468-0.44666 0.51953-0.52734 0.08916-0.08479 0.16925-0.15897 0.21289-0.19727 0.11073-0.09718 0.25434-0.22349 0.27539-0.24023 0.02813-0.02237 0.03759-0.02865 0.03125-0.02734-0.0025 5.23e-4 -0.00345-0.0033-0.00195-0.0078 0.0014-0.0045 4.46e-4 -0.0069-0.00195-0.0059-0.0023 9.95e-4 -0.00516 0.0043-0.00586 0.0078-1e-3 0.0052-0.0031 0.0082-0.013672 0.01563-0.01394 0.0098-0.020519 0.0096-0.011718 0 0.02147-0.0233 0.04772-0.05395 0.03125-0.03711-0.0027 0.0028-0.00681 0.0032-0.00781 2e-3 -0.0011-0.0011 0.00186-0.0049 0.00586-0.0078 0.01017-0.0076 0.0013-0.04443-0.013672-0.05859-0.04409-0.04149-0.067965-0.06816-0.072265-0.08008-0.0034-0.0093-0.00627-0.01235-0.00977-0.0098-0.0027 0.0021-0.00631 0.0036-0.00781 2e-3s-2.25e-4 -3e-3 0.00195-0.0039c0.0078-0.0033 0.0069-0.02122 0-0.03711-0.01194-0.02726-0.049006-0.08153-0.072266-0.10547-0.01878-0.01933-0.024327-0.02178-0.029297-0.01563-0.0033 4e-3 -0.00971 0.01149-0.015625 0.01758-0.0059 0.0061-0.010818 0.01243-0.011718 0.01563h-0.00195c-3.77e-4 -0.0033-0.00301-0.0069-0.00391-0.0078-8.95e-4 -9.2e-4 0.00251-0.0043 0.00781-0.0098 0.01483-0.01524 0.017915-0.02189 0.00976-0.01758-0.0027 0.0014-0.0065 0.0039-0.011718 0.0078-0.01274 0.0094-0.019565 0.01368-0.021485 0.01172-0.0017-0.0017-0.0082-1e-3 -0.013672 2e-3 -0.0091 0.0049-0.0094 0.0039 0-0.0039 0.02015-0.01673 0.012608-0.01669-0.00781 0-0.0325 0.02648-0.09308 0.08307-0.20508 0.19727-0.0647 0.06598-0.12597 0.12868-0.16406 0.16406-0.10833 0.10063-0.1474 0.13545-0.24609 0.23242-0.053299 0.05237-0.10286 0.1018-0.11133 0.10938-0.02068 0.01849-0.21045 0.2113-0.22656 0.23047-0.01607 0.01911-0.37558 0.3803-0.45898 0.46094-0.034191 0.03305-0.11799 0.11574-0.1875 0.18555-0.042461 0.04264-0.08677 0.08539-0.13281 0.13086-0.03351-0.0331-0.070861-0.0698-0.082031-0.08203-0.05327-0.05836-0.12842-0.13684-0.16602-0.17188-5e-3 -0.0047-0.012015-0.01-0.015625-0.01367-0.0098-0.01013-0.073099-0.06841-0.099609-0.0918-0.01288-0.01136-0.035612-0.03101-0.050782-0.04492-0.015169-0.01391-0.032262-0.02986-0.039062-0.03516-0.02122-0.01648-0.30646-0.295-0.3418-0.33398-0.01842-0.02032-0.041914-0.04666-0.052734-0.05859-0.01083-0.01193-0.028523-0.03221-0.039063-0.04492s-0.025203-0.03-0.033203-0.03906c-8e-3 -0.0091-0.025182-0.03154-0.039062-0.04883-0.01388-0.01728-0.027597-0.0307-0.029297-0.03125-0.0051-0.0017-0.0015 9.49e-4 0.039062 0.05078 0.02155 0.02649 0.040406 0.05096 0.041016 0.05274-0.0043-0.0024-0.020718-0.01771-0.054688-0.05859-0.09518-0.11456-0.11895-0.14168-0.17773-0.20117-0.0325-0.0329-0.077849-0.07626-0.099609-0.0957-0.05055-0.04516-0.08947-0.08442-0.22461-0.2207-0.09002-0.09079-0.11395-0.11381-0.13672-0.13086-0.015259-0.01142-0.037208-0.02887-0.048828-0.03906-0.02697-0.02364-0.05414-0.04351-0.05664-0.04102-0.0053 0.0052-0.011923-0.01455-0.00781-0.02344 0.0038-0.0083 9.76e-4 -0.01081-0.00781-0.01953-0.00298-3e-3 -0.00611-0.0045-0.00781-0.0059zm-0.044922 0.07813c0.0022 7.3e-4 0.0025 0.0018 0 0.0039-0.0028 0.0023-0.00431 0.0031-0.00391 0 3e-4 -0.0028 0.00171-0.0046 0.00391-0.0039zm-0.019531 0.01367c0.0012-0.0012 0.00657 2.36e-4 0.00977 2e-3 0.0032 0.0017 0.00315 0.0047 0.00195 0.0059s-0.00461-2.36e-4 -0.00781-2e-3c-0.0032-0.0017-0.00511-0.0047-0.00391-0.0059zm-0.00195 0.0078c0.0022 7.3e-4 0.0025 0.0018 0 0.0039-0.0028 0.0023-0.00431 0.0031-0.00391 0 3e-4 -0.0028 0.00171-0.0046 0.00391-0.0039zm0.15625 0.0078c0.00185 1e-3 0.00552 0.0055 0.00977 0.0098 0.0043 0.0042 0.00486 0.0079 0.00586 0.0098-0.0048-0.0037-0.011915-0.01085-0.015625-0.01563h-0.00195c-0.00185-0.0024 1.03e-4 -0.0049 0.00195-0.0039zm0.041016 0.0332c0.00128 5.99e-4 0.00259-8.74e-4 0.00391 0 0.0044 0.0029 0.00706 0.0048 0.00586 0.0059-0.0012 0.0012-0.00607-0.0023-0.00976-0.0059zm3.4883 0.08984c2e-3 -0.0035 0.00416-0.0018 0.00586 0s0.00295 0.0051 0.00195 0.0098c-0.0012 0.0055-0.00196 0.0038-0.00586 0-0.0026-0.0026-0.00375-0.0067-0.00195-0.0098zm0.00977 0.01563c8.45e-4 -0.0021 0.00211-0.0021 0.00391 0 0.0018 0.0023 9.04e-4 0.0039-0.00195 0.0039-0.0025-3.1e-5 -0.00265-0.0018-0.00195-0.0039zm0.042969 0.14453c0.0016 0.0017-0.021102 0.0219-0.039062 0.03516-9e-3 0.0066-0.0098 0.0057 0-0.0039 0.02054-0.02042 0.037442-0.0329 0.039062-0.03125zm-0.54688 0.01367c9.76e-4 9.96e-4 4.76e-4 0.0034-0.00195 0.0059-0.0023 0.0024-0.00486 0.0049-0.00586 0.0039-9.76e-4 -9.95e-4 -4.77e-4 -0.0034 0.00195-0.0059 0.0023-0.0024 0.00486-0.0049 0.00586-0.0039zm0.41406 0.09766c9.76e-4 9.96e-4 4.77e-4 0.0034-0.00195 0.0059-0.0023 0.0024-0.00486 0.0049-0.00586 0.0039-9.76e-4 -9.95e-4 -4.86e-4 -0.0034 0.00195-0.0059 0.0023-0.0024 0.00486-0.0049 0.00586-0.0039zm-0.019531 0.01758c-0.0016 0.0019-6e-3 0.0087-0.011719 0.01367-0.10056 0.08788-0.1447 0.12974-0.18945 0.17188-0.02913 0.02743-0.056707 0.05212-0.060547 0.05469-0.0075 5e-3 0.023138-0.02875 0.048828-0.05274 0.08012-0.07482 0.20324-0.18366 0.21289-0.1875zm-0.2793 0.25586c0.0036-7.1e-4 -0.0055 0.0055-0.027344 0.02734-0.02201 0.02197-0.031553 0.03099-0.033203 0.0293-0.0013-0.0013-0.00245-0.0034-0.00195-0.0039 6.63e-4 -5.34e-4 0.0062-0.0037 0.011718-0.0078 0.0055-0.0041 0.018004-0.01491 0.027344-0.02539 0.01007-0.01134 0.020468-0.01892 0.023438-0.01953zm-2.418 0.06641 0.011719 0.0078c0.0049 0.0048 0.011815 0.01369 0.015625 0.01953l0.00781 0.01172-0.011719-0.01172c-0.0049-0.0048-0.011825-0.01369-0.015625-0.01953zm2.3457 0c0.02005-0.0149 0.0058 7.72e-4 -0.042969 0.04883-0.0291 0.02863-0.08069 0.084-0.12891 0.13281-0.0068 0.0068-0.011748 0.01366-0.017578 0.01953-0.0025 0.0064-0.019875 0.02508-0.021484 0.02344-7.62e-4 -7.74e-4 0.0055-0.0089 0.011718-0.01563h-0.00195c-0.07436 0.07547-0.14322 0.14369-0.14062 0.14258 0.0022-9.5e-4 0.025901-0.02043 0.050781-0.04492 0.02489-0.02449 0.045515-0.04626 0.046875-0.04687 0.0014-6.14e-4 -0.019928 0.02319-0.048828 0.05273-0.04383 0.04481-0.05442 0.05305-0.05664 0.05078-0.0024-0.0025-0.0092 0.0046-0.023438 0.01953-3e-3 0.0031-0.00496 0.0048-0.00586 0.0039-8.41e-4 -8.59e-4 0.029739-0.03478 0.068359-0.07422 0.03862-0.03945 0.10024-0.10263 0.13672-0.14062 0.06552-0.06821 0.15955-0.16126 0.17383-0.17188zm-2.3262 0.03906c0.00265 0.0017 0.00764 0.0038 0.00977 0.0078 0.0031 0.0057 0.00139 0.0067-0.00391 0.0039-0.0039-2e-3 -0.00661-0.0062-0.00781-0.0098 0 0 0.00195-2e-3 0.00195-2e-3zm-0.54102 2e-3c0.0024 0.0024 0.00922 0.0089 0.011718 0.01367 0.0025 0.0048 0.0024 0.0063 0 0.0039-0.0025-0.0024-0.00922-0.0089-0.011718-0.01367-0.0025-0.0048-0.0024-0.0063 0-0.0039zm0.56445 0.01172c-7e-4 -0.0022 0.00321-7.97e-4 0.00781 0.0039 5e-3 0.0052 0.0042 0.0067 0 0.0039-0.0038-0.0025-0.00711-0.0056-0.00781-0.0078zm0.019531 0.01953c-0.0039-0.0075-0.00259-0.0064 0.00391 0 0.0042 0.0041 0.00751 9e-3 0.00781 0.01172h-0.00195c-0.00228-0.0018-0.00681-0.0061-0.00977-0.01172zm1.541 0.16016c-1e-3 0.0023-0.00256 0.0065-0.00586 0.0098-0.0064 0.0066-0.014182 0.0084-0.013672 0.0059 4.9e-4 -0.0025 0.00657-0.0064 0.00977-0.0098 0.00267-0.0027 0.00735-0.0045 0.00977-0.0059zm-0.027344 0.02539c4e-3 -0.0023-0.05526 0.05984-0.13477 0.14062-0.09063 0.09206-0.1413 0.14365-0.14453 0.14453-0.0034 8.83e-4 -0.00521 4.84e-4 -0.00391 2e-3 0.01726-0.01948 0.045408-0.05324 0.048828-0.05469 0.0016-7.07e-4 0.05395-0.05113 0.11523-0.11328 0.06127-0.06217 0.11525-0.11688 0.11914-0.11914zm-1.7969 0.08984c0.00149 7.44e-4 0.00573 0.0019 0.00976 0.0059 5e-3 5e-3 0.00846 0.01 0.00586 0.0098-0.00387-4.12e-4 -0.014936-0.01168-0.015625-0.01563zm2.1621 0.06055c0.00153-0.0016 0.00267 3e-5 0.00391 0 9.77e-4 9.95e-4 0.00233 0.0034 0 0.0059-0.0023 0.0024-0.00681 0.0031-0.00781 2e-3 -9.77e-4 -9.95e-4 0.00148-0.0053 0.00391-0.0078zm-2.0625 0.03906c0.0012-0.0012 0.00541 0.0015 0.00781 0.0039s0.0012 0.0047 0 0.0059-0.00346 5.04e-4 -0.00586-2e-3c-0.0024-0.0024-0.00315-0.0066-0.00195-0.0078zm1.4141 0.09961c-9.25e-4 0.0017-0.00311 0.0056-0.00586 0.0078-0.0052 0.0043-0.00999 0.0076-0.00976 0.0059 1.56e-4 -7.85e-4 0.01014-0.0078 0.015625-0.01367zm0.00391 0.08789h0.00195c-4.88e-4 0.0025-0.00151 0.0073-0.00391 0.0098-0.0023 0.0024-0.00441 0.0025-0.00391 0 4.88e-4 -0.0025 0.00346-0.0073 0.00586-0.0098zm0.087891 0.35742c7.73e-4 7.9e-4 -0.00311 0.0049-0.00781 0.0098-0.0048 0.0049-0.00897 0.0086-0.00977 0.0078-7.73e-4 -7.9e-4 0.00311-0.0049 0.00781-0.0098 0.0048-0.0049 0.00897-0.0086 0.00977-0.0078zm-0.044922 0.04297c-0.0048 0.0053-0.0092 0.01222-0.013672 0.01563-0.0075 0.0056-0.00449 0.0011 0.00781-0.01172 0.00281-0.0029 0.00427-0.0029 0.00586-0.0039zm-0.44531 0.43555c9.26e-4 9.44e-4 0.0017 0.0048 0 0.0078-0.0018 0.0031-0.00576 0.0031-0.00586 0-2.04e-4 -0.0061 0.00326-0.01045 0.00586-0.0078zm0.00977 2e-3 0.00195 2e-3c-0.00281 0.0039-0.02606 0.0239-0.03711 0.03516-0.00567 0.0058-0.00801 0.0099-0.017578 0.01953-0.00756 0.0076-0.00303 5e-3 -0.013672 0.01563-0.030379 0.03049-0.044511 0.04399-0.050781 0.05078l0.00195 0.0039c0.01444-0.0087 4e-3 0.0047-0.023437 0.0293l-0.027344 0.02344 0.021485-0.02149c0.0086-0.0091 0.013125-0.01442 0.015624-0.01758-0.0055 4e-3 -0.020555 0.01473-0.041015 0.03516-0.02124 0.0212-0.040452 0.04336-0.044922 0.04687-0.0045 0.0035-0.00927 0.0074-0.00977 0.0098-4.93e-4 0.0025 0.012277-0.0075 0.029297-0.02344-0.01824 0.01838-0.040114 0.04275-0.083984 0.08594-0.1469 0.1446-0.16389 0.16233-0.16797 0.16406-0.0019 8.21e-4 0.016466-0.01983 0.041016-0.04492s0.042695-0.04368 0.041015-0.04297c-0.0016 7.12e-4 -0.018522 0.01527-0.039062 0.03516-0.01949 0.01886-0.036029 0.03393-0.042969 0.03906 0.0019-0.0025 0.0051-0.0088 0.011719-0.01563 0.0169-0.0174 0.015253-0.01622 0.00195-0.0078-0.01283 0.0082-0.012094 0.0068 0.00977-0.01563 0.02102-0.02161 0.031944-0.02861 0.021484-0.01367h0.00195c0.0041-4e-3 0.00646-0.0088 0.00586-0.01172-1e-3 -0.0046 0.00581-0.0062 0.00781-2e-3 0.0012 0.0027 0.08513-0.07593 0.09375-0.08789 0.0025-0.0035 0.0015-0.0099 0-0.01172-0.0019-0.0024-0.00149-4e-3 0.00391-0.0039 0.0052 4.6e-5 0.011795-4e-3 0.021485-0.01367 0.01217-0.01215 0.011446-0.01229 0.00391-0.0098-0.0067 0.0023-0.00439 0.0013 0.00781-0.0059 0.011899-0.0071 0.044383-0.03909 0.09375-0.08789-0.0031 0.0018-0.00626 3.19e-4 -0.00586-2e-3 0.0012-0.0063 0.00276-0.0071 0.00586-0.0039 0.0015 0.0015 3e-3 4e-3 0 0.0059 0.018552-0.01834 0.03215-0.02983 0.058594-0.05664 0.02542-0.02577 0.045282-0.04485 0.044922-0.04297-5.5e-4 0.0029 0.00279 0.0021 0.00586-2e-3 0.00307-4e-3 0.00588-0.01123 0.00781-0.01563 0.0027-0.0062 0.00451-0.0079 0.00391-0.0039-3.1e-4 2e-3 0.00188 0.0032 0.00586 0s0.00974-0.01097 0.019532-0.02149c0.0076-0.0082 0.011645-0.01174 0.015625-0.01563zm0.05664 0.04492c0.0013-0.0012 0.00281-0.0011 0.00391 0s0.00165 0.0032 0.00195 0.0059-0.00131 0.0046-0.00391 2e-3c-0.0026-0.0025-0.00315-0.0066-0.00195-0.0078zm-0.14453 0.05859v2e-3c0.0024-5.03e-4 0.0025 0.0013 0 0.0039s-0.00681 0.0011-0.00781 0c-9.82e-4 -1e-3 -1e-3 -0.0028 0-0.0039s0.00541-0.0015 0.00781-2e-3zm-0.16797 0.01953c9.77e-4 9.95e-4 -0.00151 0.0034-0.00391 0.0059-0.0023 0.0024-0.00681 0.0069-0.00781 0.0059-9.76e-4 -9.96e-4 0.00151-0.0073 0.00391-0.0098 0.0023-0.0024 0.00681-3e-3 0.00781-2e-3zm0.10352 0.01367h0.00195c0.0025-0.0026 0.00441-0.0025 0.00391 0-4.89e-4 0.0025-0.0028 0.0048-0.00391 0.0059-1e-3 0.0011-0.00291 1e-3 -0.00391 0-9.77e-4 -1e-3 -5.21e-4 -0.0033 0.00195-0.0059zm-0.072266 0.07422c7e-3 -0.0042 0.0064-0.0027 0 0.0039-0.0042 0.0043-0.00496 0.0069-0.00586 0.0059-0.0021-0.0022-0.00434-0.0037 0.00586-0.0098zm0.45117 0.0078c0.00127-2.28e-4 0.00402 7.4e-5 0.00586 2e-3 0.0024 0.0024 0.00511 0.0047 0.00391 0.0059s-0.00541 4.04e-4 -0.00781-2e-3c-0.0024-0.0024-0.00315-0.0047-0.00195-0.0059zm-0.53906 0.07813c0.0034 0.0035-0.015081 0.02316-0.025391 0.02734-0.0095 0.0038-0.00885 0.0032 0.00195-0.0039 0.0075-5e-3 0.011129-0.0087 0.011719-0.01172 0.0011-0.0058 0.0095-0.01398 0.011719-0.01172zm-0.55859 0.01758c-0.0084 0.01153-0.16866 0.17542-0.16797 0.17188 4.1e-4 -0.0021 0.039078-0.0421 0.085938-0.08984s0.084071-0.08481 0.082031-0.08203zm-0.20508 0.21094v2e-3c-0.0037 0.0047-0.0091 0.01183-0.013672 0.01563h-0.00195c1e-3 -0.0019 0.00371-0.0074 0.00781-0.01172 0.0083-0.0085 0.011583-0.01053 0.00781-0.0059zm-0.097656 0.10156c6.2e-5 8.15e-4 0.00188 0.0011 0 0.0039-0.0099 0.01443-0.021308 0.0256-0.023438 0.02344-9.78e-4 -9.99e-4 0.0048-0.0085 0.013672-0.01758 0.00542-0.0055 0.00792-0.0081 0.00977-0.0098zm-0.029297 0.03125c8.43e-4 8.63e-4 -0.0077 0.01321-0.019532 0.02539-0.011839 0.01218-0.022767 0.02022-0.023437 0.01953-6.74e-4 -6.91e-4 0.0079-0.01109 0.019531-0.02344 0.01167-0.01235 0.022588-0.02235 0.023438-0.02149zm-0.13281 0.13672c3.76e-4 3.9e-4 -0.00276 0.0055-0.00586 0.0098-0.0015 0.0021-0.00294 8.9e-4 -0.00391 2e-3 6.49e-4 -0.0019 1.77e-4 -4e-3 0.00195-0.0059 0.0036-0.0036 0.00741-0.0063 0.00781-0.0059zm-0.017578 0.01758c3.76e-4 3.9e-4 -9.15e-4 0.0055-0.00391 0.0098-3e-3 0.0042-0.00691 0.0068-0.00781 0.0059-9.46e-4 -9.64e-4 3.56e-4 -0.0061 0.00391-0.0098 0.0036-0.0036 0.00741-0.0062 0.00781-0.0059zm-0.023437 0.02344c0.0025-0.0026 0.00441-0.0025 0.00391 0-4.89e-4 0.0025-0.00291 0.0048-0.00391 0.0059h-0.00195c-9.77e-4 -1e-3 -6.49e-4 -0.0033 0.00195-0.0059zm-0.023438 0.02734c9.46e-4 9.65e-4 -0.00226 0.0042-0.00586 0.0078s-0.00546 0.0062-0.00586 0.0059c-3.76e-4 -3.9e-4 9.16e-4 -0.0036 0.00391-0.0078 0.0031-0.0042 0.00691-0.0068 0.00781-0.0059zm0.48438 0.01563c4e-3 -4e-3 0.010919-0.0039 0.011719 0 9.49e-4 0.0044-0.0037 0.01136-0.013672 0.02148-0.0074 0.0076-0.016974 0.0149-0.021484 0.01758h-0.00391c0.0012-0.0019 0.00572-0.0056 0.011719-0.01172 0.0089-0.0091 0.014652-0.01853 0.013672-0.01953-9.87e-4 -9.95e-4 -0.0014-0.0044 0.00195-0.0078zm1.8105 0.0078c4.7e-4 -4.58e-4 0.0062 0.0017 0.011719 0.0059 0.0055 0.0042 0.00891 0.0087 0.00781 0.0098s-0.0068-0.0011-0.011719-0.0059c-0.0049-0.0048-0.00831-0.0093-0.00781-0.0098zm-2.334 0.01758c8.85e-4 9.05e-4 -0.00106 0.0049-0.00586 0.0098s-0.00936 0.0082-0.00976 0.0078c-3.77e-4 -3.81e-4 0.00351-0.0063 0.00781-0.01172 0.0043-0.0054 0.00691-0.0068 0.00781-0.0059zm0.4375 0.06055c0.0024-5.03e-4 0.00185 0.0019-0.00195 0.0059-0.0039 0.0039-0.00831 0.0064-0.00781 0.0039 4.88e-4 -0.0025 0.00301-0.0069 0.00391-0.0078 9.05e-4 -9.23e-4 0.00346-0.0016 0.00586-2e-3zm-0.52344 0.02539v2e-3c1e-3 0.0011-9.36e-4 4e-3 -0.00391 0.0059-3e-3 0.0018-0.00526 5e-4 -0.00586 0-4.27e-4 -4.41e-4 0.00161-0.0034 0.00391-0.0059 0.0023-0.0024 0.00466-3e-3 0.00586-2e-3zm-0.035156 0.0332h0.00195c-4.88e-4 0.0025 0.00104 0.0049 0 0.0059-1e-3 0.0011-0.00291 1e-3 -0.00391 0-9.77e-4 -1e-3 -6.5e-4 -0.0033 0.00195-0.0059zm0.35156 0.14453h0.00195c9.77e-4 1e-3 0.00247 0.0033 0 0.0059-0.0025 0.0026-0.00441 0.0025-0.00391 0 4.88e-4 -0.0025 8.45e-4 -0.0048 0.00195-0.0059zm3.1328 0.19336c0.0022 7.3e-4 0.0025 0.0038 0 0.0059-0.0028 0.0023-0.00431 0.0011-0.00391-2e-3 3e-4 -0.0028 0.00171-0.0046 0.00391-0.0039zm-3.8594 0.15234c0.00249-0.0012 0.00323-7e-4 0.00391 0 0.0026 0.0027-6e-3 0.01-0.011719 0.0098-0.0029-1.07e-4 -0.00451-0.0016-0.00391-2e-3 5e-3 -0.0038 0.00923-0.0066 0.011719-0.0078zm0.044922 0.02734c1e-3 -0.0011 0.00291-1e-3 0.00391 0 9.77e-4 9.99e-4 6.5e-4 0.0033-0.00195 0.0059-0.0025 0.0026-0.00441 0.0025-0.00391 0 4.88e-4 -0.0025 9.05e-4 -0.0048 0.00195-0.0059zm3.7402 0.0059c0.0022 7.3e-4 0.0025 0.0057 0 0.0078-0.0028 0.0023-0.00421-7.07e-4 -0.00391-0.0039 3e-4 -0.0028 0.00171-0.0046 0.00391-0.0039zm-3.75 0.01758c0.0024-5.02e-4 0.0025 0.0013 0 0.0039s-0.00476 0.0031-0.00586 2e-3c-9.81e-4 -1e-3 -1e-3 -0.0028 0-0.0039s0.00336-0.0016 0.00586-2e-3zm0.011719 2e-3c-4.11e-4 0.0013 1.26e-4 0.0045-0.00195 0.0059-3e-3 0.0018-0.00526 0.0024-0.00586 2e-3 -4.27e-4 -4.41e-4 0.00161-0.0015 0.00391-0.0039 0.00177-0.0018 0.00261-0.0036 0.00391-0.0039zm0.00976 0.01367v2e-3c0.0021 0.0021-6.12e-4 0.0024-0.00781 0.0059-0.0048 0.0024-0.00957 0.0041-0.00977 0.0039-2.03e-4 -2.12e-4 0.00226-0.0022 0.00586-0.0059 0.0036-0.0036 0.010318-0.0073 0.011718-0.0059zm0.013672 0.01172c0.0022 7.53e-4 0.00366 0.0039 0.00586 0.0059 0.0044 4e-3 0.0099 0.0081 0.011718 0.0098 0.0018 0.0016 0.00436 0.0038 0.00586 0.0059 0.0014 2e-3 0.00441 4e-3 0.00781 0.0039 0.0046-1.02e-4 5e-3 7.41e-4 0 0.0059-0.0067 0.0069-0.0088 0.0076-0.02539-0.0059-0.0027-0.0023-0.00551-0.0044-0.00781-0.0039-0.0042 8.4e-4 -0.016071-0.0044-0.019531-0.0098-0.0025-0.0039 0.00647-0.01301 0.00977-0.0098 0.0014 0.0015 0.00376 2e-3 0.00586 0 9.65e-4 -9.96e-4 0.00366-0.0028 0.00586-2e-3zm0.050782 0.02734c0.0045 0.0017 0.00621 6e-3 0.00391 0.01172-0.0021 0.0052-0.00165 9e-3 0.00195 0.0098 0.0034 7.22e-4 0.00797 0.0022 0.00977 0.0039 0.0017 0.0017 0.00346 0.0023 0.00586 0 0.0023-0.0023 0.0029-0.0058 0-0.0059-0.0029-1.03e-4 -0.0025-0.0013 0-0.0039 0.0055-0.0056 0.018125-0.0061 0.015625 0-9.36e-4 0.0023-0.00411 7e-3 -0.00781 0.0078-0.0052 0.0011-0.00525 0.0022-0.00195 0.0059 0.0031 0.0036 0.00285 0.0052-0.00195 0.0059-0.0066 9.99e-4 -0.042355-0.01343-0.046875-0.01953-3e-3 -0.0041 0.00431-0.01123 0.00781-0.0078 0.0017 0.0016 0.00486 6.95e-4 0.00586-0.0039 9.36e-4 -0.0045 0.00261-0.0059 0.00781-0.0039zm0.015625 0.0098c0.0015 0.0015-8.85e-4 4e-3 -0.00391 0.0059-3e-3 0.0018-0.00441 3.2e-4 -0.00391-2e-3 0.0012-0.0063 0.00461-0.0071 0.00781-0.0039zm0.03125 0.0059c0.0041-0.0024 0.00636-8.23e-4 0.00586 2e-3 -5.29e-4 0.0027 0.00457 0.0028 0.00977 2e-3 0.01218-0.0018 0.016668 7.53e-4 0.011718 0.0059-0.0021 0.0022-0.00476 3e-3 -0.00586 2e-3 -9.77e-4 -1e-3 -0.00537 0.0014-0.00977 0.0059-0.0053 0.0054-0.012291 0.0089-0.019531 0.0078-0.0064-9.49e-4 -0.010112-0.0034-0.00781-0.0059 0.0022-0.0023 0.0074-0.0036 0.011718-2e-3 0.0044 0.0015 0.010319 5.48e-4 0.011719-2e-3 0.0014-0.0024-0.00247-0.0049-0.00781-0.0059-0.01094-2e-3 -0.01016-0.0036 0-0.0098zm0.039062 0.0039c9.26e-4 9.4e-4 -0.00205 0.0048-0.00391 0.0078-0.0017 3e-3 -0.00426 0.0035-0.00586 2e-3 -0.0015-0.0016-5.07e-4 -0.0034 0.00195-0.0059 0.0023-0.0024 0.00681-0.0049 0.00781-0.0039zm0.00977 0.0078c0.0024 9.32e-4 0.00521 2e-3 0.00391 0.0059-0.0014 0.0044 0.00101 0.0077 0.00391 0.0078 0.0029 9.6e-5 0.00395 0.0038 0.00195 0.0059s-0.010055 0.0044-0.015625 0.0039c-0.0084-7.1e-4 -0.00981-0.0015-0.00391-0.0059 0.0046-0.0034 0.00726-0.01002 0.00586-0.01367-0.0014-0.0034 0.00231-0.0032 0.00391-0.0039zm0.021484 0.01367c9.77e-4 1e-3 -0.00161 0.0054-0.00391 0.0078s-0.00476 3e-3 -0.00586 2e-3c-9.78e-4 -1e-3 0.00161-0.0034 0.00391-0.0059 0.0023-0.0024 0.00486-0.0049 0.00586-0.0039z"><animate attributeName="display" values="none;inline;none" keyTimes="0;0.5;1" dur="0.5s" begin="0s" repeatCount="indefinite" /></path></g></svg>
