<svg version="1.1" viewBox="0 0 7.9998 10" xmlns="http://www.w3.org/2000/svg">
 <g fill="#fff">
  <path d="m0.015833 0.11134c0.01395-0.0033 0.11639-0.0033 0.22766-1.55e-4 0.14338 0.0041 0.23315 7.82e-4 0.30825-0.01144 0.058278-0.0095 0.12547-0.01599 0.14931-0.01445 0.023844 0.0015 0.04335-0.0024 0.04335-0.0087s0.01734-0.0082 0.038532-0.0043c0.12356 0.02324 0.12235 0.02318 0.11082 0.0049-0.009528-0.01514 0.022086-0.01909 0.20386-0.0255 0.35679-0.01257 0.70066-0.02741 0.9933-0.04287 0.22323-0.01179 0.30256-0.01173 0.40712 3.09e-4 0.071424 0.0082 0.15256 0.01147 0.18031 0.0072 0.035946-0.0055 0.050442-0.0031 0.050442 0.0083 0 0.0088 0.01734 0.0256 0.038532 0.0373 0.021852 0.01206 0.038532 0.01539 0.038532 0.0077 0-0.0075-0.010836-0.01373-0.024084-0.01393s-0.00721-0.0063 0.013422-0.01363c0.028074-0.0099 0.039378-0.0098 0.044952 3.64e-4 0.00408 0.0075 0.022428 0.01363 0.040734 0.01363 0.056886 0 0.085325 0.09966 0.071548 0.25073-0.040926 0.44877-0.02577 1.4109 0.0279 1.7705 0.035862 0.24031 0.0207 1.0758-0.029322 1.6158-0.030012 0.32402-0.05796 1.0178-0.055254 1.3717 0.00108 0.14079-0.0051 0.21757-0.017166 0.21303-0.012084-0.0046-0.014832 0.03453-0.00766 0.1089 0.00616 0.0638 0.00935 0.1636 0.0071 0.22177-0.00432 0.11145-0.00174 0.26585 0.00611 0.36429 0.00258 0.03232-9e-4 0.08916-0.00767 0.12632-0.00763 0.04174-0.0051 0.06757 0.00668 0.06757 0.01047 0 0.019032 0.0056 0.019032 0.01245 0 0.0068-0.00867 0.0092-0.019266 0.0052-0.01227-0.0046-0.019266 0.02926-0.019266 0.09332 0 0.05532 0.0079 0.10058 0.017562 0.10058 0.01899 0 0.016422 0.01677-0.00782 0.05113-0.010092 0.0143-0.00614 0.02531 0.011538 0.03214 0.022506 0.0087 0.022182 0.01044-0.00198 0.01075-0.01938 2.37e-4 -0.021696 0.0032-0.00703 9e-3 0.01449 0.0057 0.022854 0.06812 0.024792 0.1849 0.0027 0.16416 0.00939 0.28572 0.025152 0.4583 0.00498 0.05467-1.836e-4 0.0723-0.023052 0.0785-0.024996 0.0068-0.024492 0.0081 0.0033 0.0088 0.026562 6.55e-4 0.030444 0.0081 0.02043 0.03902-0.0068 0.02101-0.01413 0.255-0.01629 0.51999s-0.0054 0.48444-0.00726 0.48767c-0.00186 0.0032-0.00719 0.06404-0.011898 0.13514-0.00468 0.07109-0.020148 0.21916-0.034308 0.32903-0.01416 0.10987-0.028074 0.36634-0.030918 0.56993-0.00282 0.20359-0.00688 0.40321-0.00897 0.44361-0.0021 0.04039 3e-3 0.07344 0.01125 0.07344 0.044196 0-0.015744 0.03386-0.081077 0.0458-0.041832 0.0076-0.076056 0.01959-0.076056 0.02655 0 0.0071-0.02082 0.01022-0.04758 0.0071-0.026172-3e-3 -0.042996-1e-3 -0.037392 0.0045 0.00558 0.0055-0.00114 0.01058-0.01503 0.01123-0.013872 6.55e-4 -0.00354 0.0049 0.022944 0.0095 0.04104 0.0071 0.030348 0.01104-0.072247 0.02689-0.066226 0.01024-0.12041 0.01391-0.12041 0.0082 0-0.0057 0.00867-0.01044 0.019266-0.01044s0.019266-0.0053 0.019266-0.01175c0-0.02054-0.035472-0.01264-0.047562 0.01059-0.00835 0.01605-0.048078 0.02778-0.14098 0.04166-0.071143 0.01062-0.14669 0.01917-0.16788 0.01899-0.29689-0.0025-0.5834-0.01261-0.68394-0.02411-0.068876-0.0079-0.27115-0.01677-0.4495-0.01976-0.27944-0.0047-0.32272-0.0079-0.31307-0.02324 0.006162-0.0098 0.011202-0.02033 0.011202-0.02341 0-0.0031 0.008568-0.0024 0.019044 0.0016 0.010656 4e-3 0.014298-3.64e-4 0.008274-0.0099-0.00663-0.01054-0.045444-0.01894-0.10093-0.02186-0.14257-0.0075-0.15759-0.0021-0.15759 0.05606 0 0.02795-0.008784 0.05413-0.019524 0.05818-0.035628 0.01343-0.13803 0.0097-0.15355-0.0057-0.0084-0.0083-0.024918-0.01144-0.036696-7e-3 -0.013488 0.0051-0.02142-0.0026-0.02142-0.02069 0-0.02341 0.012198-0.03016 0.06557-0.03627 0.057168-0.0065 0.11645-0.04212 0.070181-0.04212-0.022104 0-0.054402-0.06178-0.067565-0.12926-0.0057-0.02908-0.023466-0.08196-0.03954-0.11751-0.023994-0.05306-0.027324-0.11722-0.018618-0.35841 0.013068-0.36208 0.011406-0.46582-0.00948-0.59343-0.008994-0.05494-0.013344-0.17127-0.009666-0.25853 0.006642-0.15777 0.021726-0.22499 0.11327-0.50495 0.04356-0.13321 0.048414-0.16783 0.021198-0.15123-0.00522 0.0032-0.028452 0.05828-0.051594 0.12241-0.043536 0.12065-0.048462 0.13007-0.06334 0.121-0.00486-3e-3 0.00414-0.03943 0.020076-0.08103 0.015912-0.0416 0.033216-0.09425 0.03846-0.11701 0.00522-0.02275 0.017892-0.06677 0.028104-0.0978 0.010212-0.03104 0.023124-0.08127 0.028692-0.11164 0.00558-0.03036 0.017904-0.09751 0.02742-0.14922 0.018246-0.09917 0.010698-0.84872-0.009054-0.89896-0.006354-0.01616-0.015372-0.06111-0.02004-0.09988-0.00468-0.03878-0.013374-0.09695-0.019338-0.12926-0.012282-0.06653-0.030186-0.22601-0.028362-0.25265 6.5999e-4 -0.0097 2.1179e-4 -0.0282-0.00102-0.04113-0.009114-0.09688 0.00486-0.30346 0.03054-0.45242 0.014886-0.08626 0.008136-0.50525-0.010206-0.63296-0.022494-0.15666-0.0207-0.59875 0.00246-0.60748 0.008778-0.0033 0.007836-0.01905-0.0021-0.03498-0.011538-0.01851-0.011274-0.02896 7.2e-4 -0.02896 0.010332 0 0.018792-0.0056 0.018792-0.01245 0-0.0068-0.00867-0.0092-0.019266-0.0052s-0.019266-0.0036-0.019266-0.01694c0-0.01331 0.007308-0.0242 0.016242-0.0242s0.018036-0.07139 0.020232-0.15864c0.00222-0.08725-0.00294-0.15864-0.011424-0.15863-0.008478 0-0.012786-0.05331-0.009576-0.11849 0.00324-0.06518-0.00216-0.12468-0.011976-0.13221-0.009798-0.0075-0.014628-0.02428-0.010734-0.03721 0.01026-0.03403 0.010224-0.34039-5.76e-5 -0.50824-0.006426-0.10494-0.0027-0.144 0.013686-0.14413 0.0144-1.18e-4 0.015498-0.0033 0.00306-0.0088-0.010698-0.0047-0.02049-0.04301-0.021762-0.08502-0.00474-0.15606-0.046122-0.49384-0.084266-0.68744-0.067807-0.34419-0.076131-0.40683-0.076513-0.57581-2.04e-4 -0.09048 0.013524-0.24637 0.03051-0.34641 0.025836-0.15215 0.027354-0.21172 0.009282-0.36429-0.011886-0.10032-0.030552-0.26436-0.041484-0.36453-0.019218-0.17614-0.056718-0.34965-0.08417-0.38949-0.007956-0.01155-0.00312-0.02172 0.012048-0.02528zm0.23935 9.5219c0.00414 0 0.007572-0.0079 0.007572-0.01763 0-0.0097-0.0084-0.01763-0.01866-0.01763-0.010266 0-0.013668 0.0079-0.007572 0.01763 0.006096 0.0097 0.014496 0.01763 0.01866 0.01763zm0.040116 0.07932c0.00486-0.01131 0.00486-0.02982 0-0.04113s-0.008814-0.0021-0.008814 0.02056c0 0.02262 0.00396 0.03188 0.008814 0.02057zm0.036888-6.2284c0.006402-0.0039 0.007086-0.01404 0.0015-0.02252-0.00615-0.0094-0.010716-0.0066-0.01164 0.0071-8.4e-4 0.01239 0.00372 0.01933 0.010116 0.01542zm0.007626 4.2512c0.009108-0.01293 0.01656-0.03408 0.01656-0.047v-0.0235l-0.01656 0.0235c-0.009108 0.01293-0.01656 0.03408-0.01656 0.047v0.0235zm0.038532-0.15864c0.024384-0.02301 0.024384-0.03857 0-0.02938-0.010596 4e-3 -0.019134 0.01621-0.018972 0.02713 2.544e-4 0.01713 0.00288 0.01743 0.018972 0.0023zm-0.007626 0.05557c0.006402-0.0039 0.007086-0.01404 0.0015-0.02252-0.00615-0.0094-0.010716-0.0066-0.01164 0.0071-8.4e-4 0.01239 0.00372 0.01933 0.010116 0.01542zm0.069773 0.05223c0.010596-0.0065 0.01287-0.01806 0.00504-0.02578-0.0108-0.01066-0.017958-0.01033-0.029802 0.0013-0.02031 0.02004-3.564e-4 0.03974 0.02475 0.02443zm0.11486-7.4795c0.015366-0.0038 0.010806-0.0065-0.01164-0.0071-0.02031-5.09e-4 -0.031686 0.0023-0.025284 0.0062s0.023022 0.0043 0.036924 9.27e-4zm0.21192 9.73c0.015372-0.0038 0.010806-0.0065-0.01164-0.0071-0.02031-5.09e-4 -0.031686 0.0023-0.025284 0.0062 0.006402 0.0039 0.023022 0.0043 0.036924 9.09e-4zm0.11426 0.0037c0.010596 0 0.013908-0.0053 0.007356-0.01175-0.006552-0.0065-0.020574-0.01175-0.03117-0.01175-0.010596 0-0.013908 0.0053-0.007362 0.01175 0.006552 0.0065 0.020574 0.01175 0.03117 0.01175zm0.078402-0.0037c0.015372-0.0038 0.010806-0.0065-0.01164-0.0071-0.02031-5.09e-4 -0.031686 0.0023-0.025284 0.0062s0.023016 0.0043 0.036924 9.09e-4zm0.75137-9.8827c0.015372-0.0038 0.010806-0.0065-0.01164-0.0071-0.02031-5.09e-4 -0.031686 0.0023-0.025284 0.0062 0.0064 0.0039 0.023016 0.0043 0.036924 9.28e-4zm1.0945 8.3353c0.010272-0.0097 0.018678-0.02291 0.018678-0.02938 0-0.0065-0.00841-0.0038-0.018678 0.0059-0.010272 0.0097-0.018678 0.02291-0.018678 0.02938 0 0.0065 0.00841 0.0038 0.018678-0.0059zm0.038532-1.0694c0.010596 0 0.019266-0.0053 0.019266-0.01175 0-0.0065-0.00867-0.01175-0.019266-0.01175s-0.019266 0.0053-0.019266 0.01175c0 0.0065 0.00867 0.01175 0.019266 0.01175zm-0.011694 0.27028c0.018276 0 0.027486-0.03517 0.010854-0.04145-0.010134-0.0038-0.018426 0.0039-0.018426 0.01725 0 0.01331 0.00342 0.0242 0.00757 0.0242zm0.03096-3.1376c0.010596 0 0.019266-0.0056 0.019266-0.01245 0-0.0068-0.00867-0.0092-0.019266-0.0052s-0.019266 0.0096-0.019266 0.01245c0 0.0029 0.00867 0.0052 0.019266 0.0052zm0 0.16452c0.010596 0 0.019266-0.0023 0.019266-0.0052s-0.00867-0.0085-0.019266-0.01245c-0.010596-4e-3 -0.019266-0.0017-0.019266 0.0052 0 0.0068 0.00867 0.01245 0.019266 0.01245zm0.019266-0.62281c0.010596 0 0.019266-0.0053 0.019266-0.01175 0-0.0065-0.00867-0.01175-0.019266-0.01175s-0.019266 0.0053-0.019266 0.01175c0 0.0065 0.00867 0.01175 0.019266 0.01175zm0.031146-1.7862c0.00408 0 0.00739-0.01058 0.00739-0.0235s-0.00786-0.0235-0.01746-0.0235c-0.00961 0-0.01293 0.01058-0.00739 0.0235 0.00552 0.01293 0.013398 0.0235 0.01746 0.0235z"/>
  <path d="m5.0129 6.3965c0.0047-0.07526 0.0129-0.12656 0.0183-0.11402 0.0078 0.018 0.01017 0.0188 0.01161 0.0036 9e-4 -0.0106-0.0034-0.02166-0.0098-0.02454-0.0064-0.0028-7e-3 -0.08146-0.0015-0.17456 0.0056-0.0931 0.01152-0.21034 0.01311-0.26051 0.0027-0.08664 0.01617-0.23728 0.0472-0.53022 0.0077-0.07212 0.01383-0.14982 0.01374-0.17266-9.3e-5 -0.02284 0.01011-0.14598 0.02268-0.27366 0.01257-0.12768 0.02715-0.38094 0.03242-0.56281 0.0053-0.18186 0.01617-0.40251 0.02424-0.49031 0.01968-0.21421 0.04937-1.1536 0.0379-1.1995-0.01149-0.046-0.01281-0.54704-0.0015-0.59821 0.0046-0.02096 0.01572-0.15098 0.02472-0.28896 0.01668-0.25548 0.02718-0.34853 0.07024-0.62144 0.01515-0.09598 0.02467-0.25699 0.02533-0.4276 0.0012-0.29527 0.01356-0.45064 0.04227-0.52772 0.01809-0.04858 0.05852-0.05796 0.04207-0.0098-0.0076 0.02236-0.0066 0.02272 0.01197 0.0044 0.01116-0.011 0.03226-0.02 0.04691-0.02 0.01674 0 0.03575-0.0172 0.05118-0.04606 0.02544-0.0477 0.04962-0.04336 0.05011 9e-3 1.26e-4 0.0142 0.0066 0.02566 0.01446 0.02566 0.0078 0 0.02697 3e-3 0.04257 0.0068 0.01725 0.0042 0.02151 3e-3 0.01083-0.0028-0.0096-0.0052-0.01761-0.02246-0.01773-0.03814-1.08e-4 -0.0156-0.0027-0.0362-0.0057-0.0456-0.0047-0.0146 0.0238-0.017 0.18799-0.0168 0.20333 2.18e-4 0.60431 0.02144 0.77251 0.04086 0.09805 0.0114 0.16561 0.03372 0.14579 0.04832-0.0056 0.0042 9e-4 0.0076 0.01428 0.0076 0.01347 0 0.02688-0.0052 0.02976-0.0116 0.0035-0.0078 0.03141-8e-3 0.08546-4.38e-4 0.06953 0.0098 0.286 0.0122 0.65482 0.0076 0.12592-0.0016 0.31122 0.03362 0.29914 0.05682-0.0046 0.0088-6e-4 0.016 0.0088 0.016s0.01713-6e-3 0.01713-0.0134c0-0.04348 0.02896 0.03184 0.03471 0.09026 0.0024 0.02394 0.02683 0.016 0.046-0.015 0.01461-0.02362 0.01389-0.03126-0.0038-0.03928-0.01203-0.0054-0.01704-0.0136-0.0111-0.018 0.0059-0.0044 0.02109-0.0016 0.0337 6e-3 0.0126 0.0078 0.03018 0.0106 0.03907 0.0066 0.02208-0.01 0.02004 0.0122-0.0071 0.07828-0.02034 0.0494-0.1161 0.39665-0.18428 0.66828-0.02688 0.10704-0.06036 0.31447-0.08746 0.54163-0.02577 0.21616-0.03639 1.1358-0.01572 1.3626 0.09001 0.98745 0.08638 2.4695-0.0085 3.4835-0.0129 0.13796-0.0264 0.34578-0.03001 0.46181-0.0036 0.11602-0.0135 0.26739-0.02202 0.33638-0.0085 0.06898-0.01845 0.1701-0.02208 0.22471-0.0036 0.0546-0.01497 0.1164-0.02523 0.13734-0.01524 0.03106-0.01404 0.05306 0.0065 0.11962 0.02908 0.0942 0.03203 0.1962 0.0085 0.2937-0.0091 0.03762-0.0219 0.10446-0.02847 0.14854-0.0066 0.04406-0.01965 0.09072-0.02905 0.10368-0.01134 0.0156-0.01656 0.12162-0.01551 0.31431 0.0015 0.25586-0.0015 0.29542-0.02547 0.32963-0.03468 0.04982-0.05363 0.23663-0.06523 0.64321-0.0064 0.22455-0.0144 0.31594-0.02958 0.3377-0.03143 0.04506-0.2324 0.11552-0.46329 0.16238-0.23811 0.04834-0.35372 0.06216-0.54175 0.0648-0.07662 0.0011-0.17925 0.0034-0.22808 5e-3 -0.05121 0.0018-0.08505-0.0013-0.07997-0.0074 0.0051-6e-3 -0.0083-0.0074-0.03139-3e-3 -0.02268 0.0042-0.04951 0.0017-0.06158-0.0056-0.01176-0.0072-0.02734-0.0122-0.03463-0.0114-0.0073 9.62e-4 -0.01671 8.72e-4 -0.02097-2.18e-4 -0.0043-0.0011-0.09646-0.0044-0.20489-0.0072-0.10844-3e-3 -0.21625-0.0106-0.2396-0.0172-0.02974-0.0084-0.04408-0.0082-0.04792 2.18e-4 -0.01278 0.02826-0.04372 0.0108-0.03736-0.02108 5e-3 -0.02522-0.0012-0.03632-0.02635-0.04618-0.01812-0.0072-0.02886-0.0178-0.02385-0.02382 5e-3 -6e-3 0.0018-0.0108-0.0073-0.0108-9e-3 0-0.01638 0.0078-0.01638 0.0172 0 0.03064-0.05819-0.0064-0.06825-0.04336-0.0078-0.02888-0.01422-0.03238-0.04779-0.02618-0.02235 0.0042-0.03874 0.0022-0.03874-0.0044 0-0.0064 0.0066-0.0116 0.0147-0.0116s0.0046-0.0178-0.0077-0.03954c-0.02893-0.05096-0.02929-0.16584-6e-4 -0.19472 0.01518-0.0152 0.01731-0.02816 7e-3 -0.04232-0.0081-0.0112-0.0099-0.02618-0.0039-0.03328 0.0069-0.0082 0.0039-0.0098-0.0081-0.0044-0.01272 0.0058-0.01731 0.0017-0.01401-0.0124 0.0027-0.0122-0.0033-0.0198-0.01443-0.0182-0.01065 0.0016-0.01935-0.0052-0.01935-0.015s7e-3 -0.0146 0.01548-0.0108c0.0085 0.0038 0.01548 0.0016 0.01548-5e-3s-0.0061-0.012-0.01344-0.012c-0.0074 0-0.01101-0.0154-8e-3 -0.0342 3e-3 -0.0188-0.0015-0.0342-0.0098-0.0342-0.01866 0-0.01311-0.02544 8e-3 -0.03688 0.0096-0.0052 0.0081-0.0084-0.0038-0.0086-0.01065-9.2e-5 -0.01935-0.0126-0.01935-0.02772 0-0.0152-0.0087-0.03014-0.01935-0.0333-0.01266-0.0038-0.01323-6e-3 -0.0015-0.0066 0.01212-6.36e-4 0.01395-0.0132 0.0058-0.03992-0.0072-0.0235-0.0057-0.04366 0.0038-0.05064 0.01071-0.0078 0.0076-0.02428-0.0096-0.05106-0.02803-0.0435-0.03174-0.05734-0.01314-0.04886 0.0068 3e-3 0.01329-0.0044 0.01455-0.0166 0.0012-0.0122-0.0043-0.0192-0.01227-0.0156-0.01899 0.0086-0.01845-0.0022 0.0015-0.02968 0.01104-0.0152 0.01104-0.02206 0-0.02206-0.0088 0-0.01602-0.0054-0.01602-0.012s0.0087-0.0082 0.01935-0.0036c0.01518 0.0068 0.01536 5e-3 9e-4 -0.0082-0.01017-0.0092-0.01836-0.03462-0.01821-0.05636 2.34e-4 -0.03312-3e-4 -0.12418-0.0012-0.19344-1.23e-4 -0.0094-6e-4 -0.05944-0.0012-0.11118-6e-4 -0.06514-0.0068-0.09412-0.01965-0.09424-0.0123-1.14e-4 -0.01128-0.0036 0.0031-0.0102 0.01731-8e-3 0.01956-0.03232 0.01128-0.12152-0.0057-0.06128-0.018-0.11824-0.0274-0.12656-0.01245-0.011-0.01236-0.0152 3e-4 -0.0152 0.0095 0 0.01725-0.0116 0.01713-0.02566-1.92e-4 -0.02074-0.0031-0.02238-0.01524-0.0086-0.01281 0.0146-0.01503 0.0142-0.01524-0.0028-1.23e-4 -0.011 0.0085-0.02004 0.01911-0.02014 0.01416-1.28e-4 0.01371-0.0028-0.0018-0.01-0.01782-0.0084-0.01782-0.0108 0-0.016 0.01497-0.0044 0.01548-0.0064 0.0018-7e-3 -0.01065-4.9e-4 -0.01935-0.0064-0.01935-0.013s0.0067-9e-3 0.01479-0.0054c0.0089 4e-3 0.01401-0.02294 0.01284-0.06774-0.0012-0.04096-0.0089-0.07448-0.01737-0.07448-0.0085 0-0.01083-0.0034-0.0052-0.0076 0.0056-0.0042 0.0024-0.0144-0.0071-0.0228-0.01332-0.0118-0.01095-0.0154 0.01044-0.0154 0.01524 0 0.02349-3e-3 0.01836-0.0068-0.0052-0.0038-3e-3 -0.0192 0.0048-0.0342 0.0089-0.0172 0.0086-0.02734-9e-4 -0.02734-0.0083 0-0.01428-0.0038-0.01326-0.0086 9.01e-4 -0.0048 9.01e-4 -0.08408 0-0.17638-0.0015-0.13278-0.0061-0.16664-0.02199-0.16212-0.01443 4e-3 -0.02085-0.0082-0.02256-0.04312-0.0018-0.03552 0.0012-0.0426 0.0105-0.026 0.0071 0.0126 0.01017 0.0263 0.0068 0.03056-0.0034 0.0042 0.0015 0.0112 0.01053 0.0154 0.01125 0.0052 0.01569-0.0158 0.0138-0.06478-0.0038-0.09804-0.01506-0.14118-0.03183-0.12172-0.0085 0.0098-0.01275 0.0011-0.01221-0.02474 6e-4 -0.0326 0.0033-0.03574 0.01416-0.0172 0.0073 0.0126 0.01422 0.02024 0.01533 0.0172 0.0087-0.02436 0.0068-0.37629-0.0021-0.37629-0.0062 0-0.01413 0.0166-0.01755 0.03706-0.0092 0.05442-0.0064-0.33923 0.0035-0.49886zm0.01833 0.38673c0.01539-7e-3 0.01146-0.06176-0.0044-0.06176-0.0061 0-0.01047 0.0152-0.0098 0.03382 6e-4 0.0186 0.0071 0.03118 0.01419 0.02794zm-0.0021 0.05798c0.0085-0.0038 0.01548-0.0144 0.01548-0.02348 0-9e-3 -7e-3 -0.0164-0.01548-0.0164-0.0085 0-0.01548 0.0106-0.01548 0.02348 0 0.013 7e-3 0.0203 0.01548 0.0164zm0.12148 0.54626c0.01203 0.0054 7e-3 -0.41759-0.0053-0.44363-3e-3 -0.0062-0.0059 0.08964-0.0066 0.21312-6e-4 0.12348 0.0047 0.22722 0.01191 0.23051zm0.01302 0.14074c0.0039-0.011 0.0039-0.02894 0-0.0399-0.0039-0.011-0.0071-2e-3 -0.0071 0.02 0 0.02196 0.0032 0.03092 0.0071 0.02zm2.46e-4 0.09692c0.0037-0.0142 0.0037-0.0372 0-0.05132-0.0037-0.0142-0.0067-0.0026-0.0067 0.02566 0 0.02822 0.0031 0.03976 0.0067 0.02566zm0.0046 0.191c0.01848 0 0.01848-0.03102 0-0.06272-0.01068-0.0182-0.01353-0.0144-0.0144 0.02-6e-4 0.02352 0.0059 0.04276 0.0144 0.04276zm3e-3 0.12542c0.0059 2e-6 0.01044-0.02564 0.01011-0.057-3e-4 -0.03136-0.0066-0.057-0.01398-0.057-0.0073 0-0.01191 0.02566-0.01011 0.057 0.0018 0.03136 0.0081 0.057 0.01398 0.05702zm0.0077 0.11118c0.0039-0.011 0.0039-0.02894 0-0.0399-0.0039-0.011-0.0071-2e-3 -0.0071 0.02 0 0.02194 0.0032 0.03092 0.0071 0.02zm-6e-4 0.07434c0.0043-0.0078 0.0045-0.02312 6e-4 -0.0342-4e-3 -0.011-0.0074-0.0048-0.0077 0.014s3e-3 0.02788 0.0071 0.02018zm0.0049 0.08816c0.0083 0 0.01098-0.0076 0.0061-0.0172-0.0049-0.0094-0.01164-0.0172-0.015-0.0172-0.0034 0-0.0061 0.0078-0.0061 0.0172s0.0068 0.0172 0.015 0.0172zm0 0.0456c0.0083 0 0.01098-0.0076 0.0061-0.0172-0.0049-0.0094-0.01164-0.0172-0.015-0.0172-0.0034 0-0.0061 0.0076-0.0061 0.0172 0 0.0094 0.0068 0.0172 0.015 0.0172zm6e-4 0.0342c0.0085 0 0.01548-0.0022 0.01548-5e-3s-7e-3 -0.0082-0.01548-0.012c-0.0085-0.0038-0.01548-0.0016-0.01548 5e-3s7e-3 0.012 0.01548 0.012zm0.0094 0.09122c0.0034 0 0.0061-0.0076 0.0061-0.0172 0-0.0094-0.0068-0.0172-0.015-0.0172-0.0083 0-0.01098 0.0076-0.0061 0.0172 0.0049 0.0094 0.01164 0.0172 0.015 0.0172zm1.56e-4 0.11402c0.0033 0 0.0059-0.0102 0.0059-0.0228s-0.0063-0.0228-0.01404-0.0228c-0.0077 0-0.01038 0.0102-0.0059 0.0228 0.0044 0.0126 0.01077 0.0228 0.01404 0.0228zm-0.01821 0.20525c0.0038 0 0.01113-0.0052 0.01638-0.0114 0.0053-0.0062 0.0021-0.0114-0.0068-0.0114-9e-3 0-0.01638 0.0052-0.01638 0.0114s0.0031 0.0114 0.0068 0.0114zm0.0086 0.07982c0.0085 0 0.01548-0.0022 0.01548-5e-3s-7e-3 -0.0082-0.01548-0.012c-0.0085-0.0038-0.01548-0.0016-0.01548 5e-3s7e-3 0.012 0.01548 0.012zm0.02484 0.43021c0.0052-0.0038 0.0057-0.0136 0.0012-0.02186-5e-3 -9e-3 -0.0086-0.0064-0.0094 0.0068-6e-4 0.012 3e-3 0.0188 0.0081 0.015zm0.05256-3.965c0.0085 0 0.01548-0.0052 0.01548-0.0114s-7e-3 -0.0114-0.01548-0.0114c-0.0085 0-0.01548 0.0052-0.01548 0.0114s7e-3 0.0114 0.01548 0.0114zm-0.0095 0.07982c0.0033 0 0.0093-0.0128 0.01332-0.0285 0.0041-0.0156 0.0015-0.0285-0.0059-0.0285-0.0073 0-0.01332 0.0128-0.01332 0.0285 0 0.0156 0.0027 0.0285 0.0059 0.0285zm0.08849-1.6128c0.0058 0.0026 0.01401-0.0054 0.01845-0.018 0.0046-0.013 3e-4 -0.02276-0.0098-0.02284-0.01179-1.14e-4 -0.01245-3e-3 -0.0018-0.0086 0.01029-0.0054 0.01734-0.14046 0.0198-0.37896 0.0021-0.20925-0.0021-0.36422-0.0095-0.35595-0.0073 8e-3 -0.01491 0.14648-0.01689 0.30763-0.0021 0.16114-7e-3 0.29555-0.01128 0.29866-0.01134 0.0084-9e-4 0.1724 0.01119 0.17796zm0.01392-0.8103c0.0088 4e-3 0.01548-0.0058 0.01548-0.0228s-0.0067-0.02682-0.01548-0.0228c-0.0085 0.0038-0.01548 0.0142-0.01548 0.0228s7e-3 0.019 0.01548 0.0228zm0.20118-1.8073c0.0085 0 0.01548-0.0052 0.01548-0.0114s-7e-3 -0.0114-0.01548-0.0114c-0.0085 0-0.01548 0.0052-0.01548 0.0114s7e-3 0.0114 0.01548 0.0114zm0.06965 8.8184c0.02529-0.0072 0.03193-0.02694 9e-3 -0.02694-0.01173 0-0.01974 8e-3 -0.03102 0.031-6e-4 0.0014 0.0092-4.74e-4 0.02199-4e-3zm0.13157-6.1102c0.0085 0.0038 0.01548 0.0019 0.01548-0.0044 0-0.0062-7e-3 -0.0146-0.01548-0.0184-0.0085-0.0038-0.01548-0.0019-0.01548 0.0044 0 0.0062 7e-3 0.0146 0.01548 0.0184zm0.20122 6.0776c0.0085 0.0038 0.01548 0.0016 0.01548-5e-3s-7e-3 -0.012-0.01548-0.012c-0.0085 0-0.01548 0.0022-0.01548 5e-3s7e-3 0.0082 0.01548 0.012zm0.04644 0.05132c0.0085 0 0.01548-0.0054 0.01548-0.012s-7e-3 -9e-3 -0.01548-5e-3c-0.0085 0.0038-0.01548 0.0094-0.01548 0.012 0 0.0028 7e-3 5e-3 0.01548 5e-3zm0.05326-0.0114c0.0038 0 0.01113-0.0052 0.01638-0.0114 0.0053-0.0062 0.0021-0.0114-0.0068-0.0114-9e-3 0-0.01638 0.0052-0.01638 0.0114s0.0031 0.0114 0.0068 0.0114zm0.07899 0.0228c0.0018 0 0.01194-0.0076 0.02253-0.0172 0.01563-0.0138 0.015-0.0172-0.0033-0.0172-0.01239 0-0.02253 0.0076-0.02253 0.0172 0 0.0094 0.0015 0.0172 0.0033 0.0172zm0.07284 0.0012c0.03799 0.0024 0.11247-0.0036 0.12699-0.0102 0.0081-0.0036 0.0325-0.0072 0.05418-8e-3 0.1296-0.0046 0.14002-0.0062 0.14002-0.02414 0-0.0132-0.0077-0.0158-0.02709-0.0098-0.01488 0.0048-0.03928 8e-3 -0.05417 0.0072-0.01488-7.64e-4 -0.03928-0.0011-0.05418-8.36e-4 -0.01488 2.92e-4 -0.05669 0.0011-0.09287 0.0018-0.03618 6.9e-4 -0.06578 0.0054-0.06578 0.0106s-0.01044 0.0094-0.02322 0.0094c-0.0279 0-0.0315 0.02228-0.0039 0.02402zm0.35601-0.04698c-0.02998 2.74e-4 -0.0228 0.019 0.0077 0.0203 0.04569 0.0019 0.25785-0.02272 0.28248-0.03276 0.0174-0.0072 0.01353-0.0096-0.01548-0.01-0.02998-4e-4 -0.03357-0.0028-0.01593-0.0112 0.01251-0.0058 0.01806-0.014 0.01233-0.0182-0.01527-0.0112-0.08927 0.0048-0.08927 0.0192 0 0.0068 0.01044 0.0094 0.02322 0.0058s0.02322-0.0016 0.02322 0.0044-0.01218 0.0112-0.0271 0.0112c-0.01488 9.2e-5 -0.04172 3e-3 -0.05961 0.0066-0.0186 0.0036-0.04228-7.64e-4 -0.05531-0.0104-0.01416-0.0104-0.03901-0.0146-0.06564-0.0108-0.03098 0.0044-0.03709 0.0088-0.02208 0.0158 0.01545 0.0072 0.01581 0.0098 0.0015 0.0098zm0.11889-0.0174c0.0079 0.0036 0.01878 0.0013 0.02412-5e-3 0.0053-0.0064-0.0012-0.0116-0.0144-0.0116-0.02718 0-0.03119 0.0068-0.0097 0.0166zm0.23019-0.03878c0.02701-0.0058 0.05253-0.0062 0.05677-0.0012 0.0043 5e-3 -0.01308 0.0122-0.03849 0.016-0.02542 0.0038-0.04618 0.0116-0.04618 0.0174 0 0.0062 0.02229 0.0056 0.05418-0.0016 0.03615-0.0082 0.05417-0.0192 0.05417-0.03314 0-0.0114 7e-3 -0.0209 0.01548-0.0209 0.0085 0 0.01548-0.0046 0.01548-0.0104 0-0.013-0.02844-0.0098-0.07385 0.0086-0.01932 0.0078-0.04275 0.0108-0.05204 0.0066-0.0093-0.0042-0.02268-7.64e-4 -0.0298 0.0076-0.01794 0.02136-0.01191 0.02286 0.04427 0.011zm0.10845-9.636c0.03258-1.36e-4 0.0366-0.0026 0.01842-0.0112-0.03058-0.0146-0.08187-0.0146-0.06965 0 0.0053 0.0062 0.0283 0.0114 0.05122 0.0112zm-0.01251 5.7015c0.0085 0 0.01548-0.0052 0.01548-0.0114s-7e-3 -0.0114-0.01548-0.0114c-0.0085 0-0.01548 0.0052-0.01548 0.0114s7e-3 0.0114 0.01548 0.0114zm0.05509 3.8997c0.01326 0 0.01983-0.0052 0.01455-0.0114-0.0053-0.0062-0.01611-0.0114-0.02413-0.0114-8e-3 0-0.01455 0.0052-0.01455 0.0114s0.01086 0.0114 0.02412 0.0114zm0.04067-9.6046c0.01236-0.0036 0.0087-0.0064-0.0094-0.0068-0.01632-4.9e-4 -0.02547 0.0022-0.02031 6e-3 0.0052 0.0038 0.01848 0.0042 0.02968 9.08e-4zm0.04886 9.6109c-7e-3 0.0134-1.59e-4 0.014 0.03955 0.0038 0.0264-0.0068 0.04799-0.0168 0.04799-0.02226 0-0.0054-0.01053-7e-3 -0.0234-0.0034s-0.03369 3.26e-4 -0.04624-0.0074c-0.01359-0.0084-0.03386-0.0104-0.05011-5e-3 -0.02424 8e-3 -0.02352 0.0094 0.0067 0.0134 0.02178 0.0028 0.03094 0.0102 0.02553 0.0206zm0.1185-0.0176c0.0085 0 0.01548-0.0052 0.01548-0.0114s-7e-3 -0.0114-0.01548-0.0114c-0.0085 0-0.01548 0.0052-0.01548 0.0114s7e-3 0.0114 0.01548 0.0114zm0.04644-1.2942c0.0085 0.0038 0.01548 0.0016 0.01548-5e-3s-7e-3 -0.012-0.01548-0.012c-0.0085 0-0.01548 0.0022-0.01548 5e-3s7e-3 0.0082 0.01548 0.012zm0.03096-0.52452c0.0085 0.0038 0.01548-0.0013 0.01548-0.0114 0-0.0102-7e-3 -0.0152-0.01548-0.0114-0.0085 0.0038-0.01548 9e-3 -0.01548 0.0114s7e-3 0.0076 0.01548 0.0114zm0.03096-0.23375c0.0085 0 0.01557 0.0192 0.01572 0.04276 1.77e-4 0.0318 0.0041 0.03838 0.01524 0.02566 0.0083-0.0094 0.01512-0.03318 0.01524-0.05284 1.74e-4 -0.02622-8e-3 -0.03732-0.03072-0.0417-0.0201-0.0038-0.03096-3.28e-4 -0.03096 0.01 0 0.0088 7e-3 0.016 0.01548 0.016zm0.12387-1.5336c0.01023 0.0046 0.0096 0.0156-0.0018 0.03202-0.01623 0.02336-0.01563 0.02376 0.0093 0.0062 0.0271-0.019 0.02097-0.06684-0.0085-0.06684-0.0192 0-0.01845 0.0196 0.0012 0.02852zm0.02971 0.20892c-9e-4 0.0118-0.0042 0.0138-9e-3 0.0048-0.01812-0.0331-0.03615-0.01-0.03564 0.04562 6e-4 0.05766 0.0015 0.05882 0.02268 0.03136 0.02199-0.02836 0.02211-0.02826 0.02268 0.0166 9e-4 0.08122 0.02934 0.02754 0.03837-0.0726 0.0047-0.05278 0.01212-0.09854 0.01638-0.10168 0.0043-0.0032 0.0077 0.04734 0.0077 0.11214 0 0.0648 4e-3 0.11488 0.0089 0.11128 0.01035-0.0076 0.0144-0.05372 0.03807-0.43434 0.01725-0.27703 0.01407-0.36816-0.0076-0.21899-0.0062 0.04304-0.01716 0.07186-0.02571 0.06798-0.0082-0.0038-0.01122-0.0154-0.0068-0.02576 0.0044-0.0104 0.0098-0.06432 0.01197-0.11974 0.0041-0.10676 0.02637-0.14944 0.02953-0.05672l0.0018 0.05484 0.01455-0.06676c0.01482-0.06796 7e-3 -0.09428-0.0189-0.06404-0.018 0.02096-0.01791 0.02178-0.01314-0.13716 0.0052-0.17182 0.0044-0.1825-0.01365-0.1958-0.0114-0.0084-0.01449 9e-3 -0.01032 0.05818 0.0045 0.05296 0.0012 0.06824-0.01296 0.06232-0.01425-6e-3 -0.01416-4e-3 3e-4 0.0074 0.02073 0.0164 0.02703 0.04986 0.0077 0.04106-0.0064-0.0028-0.01233 0.04938-0.01323 0.1162-0.0034 0.25452-0.0147 0.35151-0.04482 0.38559-0.02241 0.02538-0.02322 0.02912-0.0037 0.0174 0.02199-0.0132 0.02475-0.0108 0.02352 0.02098-9e-4 0.02528-0.01104 0.03888-0.03382 0.04566-0.02391 0.0072-0.02574 0.0098-7e-3 0.0104 0.01398 4e-4 0.02865 0.0072 0.03257 0.015 0.01344 0.02682-0.01515 0.23673-0.03198 0.23499-0.02689-0.0028-0.03848 0.0048-0.0144 0.0094 0.01491 0.0028 0.02655 0.0138 0.02586 0.02432zm-0.01425-0.44269c0.0085 0 0.01536-9e-3 0.01524-0.02-2.04e-4 -0.017-0.0024-0.0174-0.01524-0.0028-0.01887 0.02152-0.01887 0.0228 0 0.0228zm0.01548-0.20525c0.0085 0 0.01548-0.0022 0.01548-5e-3s-7e-3 -0.0082-0.01548-0.012c-0.0085-0.0038-0.01548-0.0016-0.01548 5e-3s7e-3 0.012 0.01548 0.012zm-0.0012 0.03942c0.0079 0.0036 0.01878 0.0013 0.02412-5e-3 0.0053-0.0064-0.0012-0.0116-0.0144-0.0116-0.02718 0-0.03119 0.0068-0.0097 0.0166zm0.01656-0.78059c0.0085 0 0.01536-9e-3 0.01524-0.02-2.01e-4 -0.017-0.0024-0.0174-0.01524-0.0028-0.01887 0.02152-0.01887 0.0228 0 0.0228zm0 0.12542c0.0085 0 0.01548-0.0106 0.01548-0.02348 0-0.013-7e-3 -0.0203-0.01548-0.0164-0.0085 0.0038-0.01548 0.0144-0.01548 0.02348 0 9e-3 7e-3 0.0164 0.01548 0.0164zm0 0.08552c0.0088 4e-3 0.01548-0.0056 0.01548-0.02214 0-0.016-7e-3 -0.02918-0.01548-0.02918-0.0085 0-0.01548 0.01-0.01548 0.02212 0 0.0122 7e-3 0.0253 0.01548 0.02918zm0 0.13112c0.01956-0.0223 0.01956-0.0456 0-0.0456-0.0085 0-0.01536 0.0142-0.01524 0.03136 1.86e-4 0.02444 0.0035 0.02758 0.01524 0.0142zm0.0086 0.03856c0.01377 0.0038 0.01998 2e-3 0.01455-0.0044-0.0052-0.0062-0.01602-0.0112-0.02403-0.0112-0.02226 0-0.01737 0.0082 0.0095 0.0158zm0.0018-0.73127c0.0043-0.0078 0.0043-0.02066 0-0.0285-0.0043-0.0078-0.0078-0.0014-0.0078 0.0142s0.0035 0.02208 0.0078 0.0142zm3e-4 0.23376c0.0039-0.011 0.0039-0.02894 0-0.03992-0.0039-0.011-0.0071-2e-3 -0.0071 0.02 0 0.02194 0.0032 0.03092 0.0071 0.02zm0.02136-2.52c-1.53e-4 0.1019 0.0058 0.18528 0.01308 0.18528 0.0073 0 0.01305-0.0064 0.01266-0.0142-0.0018-0.03812 0.0062-0.05416 0.02737-0.05416 0.01935 0 0.02322-0.02302 0.02322-0.13872 0-0.0763-0.0027-0.1366-0.0061-0.13398-0.0034 0.0026-0.0094 0.0575-0.01338 0.12198-4e-3 0.06448-0.01191 0.12064-0.01758 0.1248-0.01179 0.0086-8e-3 -0.57139 0.0051-0.78083 0.0079-0.1265-3.01e-4 -0.1686-0.02419-0.12288-0.01695 0.03256-0.03064 0.27619-0.02532 0.45074 3e-3 0.0972 0.0053 0.26012 0.0052 0.36203zm0.01443 0.26511c0.0085 0 0.01548-0.0052 0.01548-0.0114s-7e-3 -0.0114-0.01548-0.0114c-0.0085 0-0.01548 0.0052-0.01548 0.0114s7e-3 0.0114 0.01548 0.0114zm0.02019-1.1061c0.0144 0 0.02106-0.02312 0.02331-0.08052 0.0021-0.05706-0.0018-0.07822-0.01422-0.07264-0.01032 0.0048-0.01443 0.02692-0.01014 0.05492 4e-3 0.02586 0.0018 0.05726-0.0049 0.06978-0.0066 0.0126-0.01254 0.02404-0.01314 0.02562-6e-4 0.0016 8e-3 0.0028 0.01908 0.0028zm0.01242 3.4664c0.0076 0 0.01383-0.03336 0.01383-0.07412 0-0.04414-0.0066-0.07412-0.01626-0.07412-0.01014 0-0.0132 0.0192-0.0081 0.05082 0.0045 0.02794 0.0015 0.05378-0.0063 0.05738-0.01692 0.0078-0.0033 0.04004 0.01686 0.04004zm-0.01668 0.13682c0.0015 0.0032 0.0018 0.0172 1.5e-4 0.03136-0.0015 0.0142 0.0047 0.02566 0.01377 0.02566 0.0102 0 0.01659-0.03066 0.01659-0.07982 0-0.05076-0.0062-0.07982-0.01713-0.07982-0.0094 0-0.01311 0.0076-0.0082 0.0172 0.0049 0.0094 0.0037 0.0172-0.0027 0.0172-0.0099 0-0.01164 0.0507-0.0024 0.06842zm-0.0043 0.15106c-0.01179 3e-3 -0.01173 0.0106 2.82e-4 0.02628 0.0138 0.0182 0.01842 0.019 0.02514 5e-3 0.01389-0.0289 0.0027-0.0948-0.01695-0.0996-0.01359-0.0034-0.01497 0.0046-0.0052 0.0298 0.0088 0.02266 0.0077 0.03572-0.0033 0.03842zm0.02869-0.57296c0.0034 0 0.0061-0.0106 0.0061-0.02348 0-0.013-0.0067-0.02044-0.01479-0.0168-0.01335 6e-3 -6e-3 0.04022 0.0087 0.04022zm-0.0065 0.11402c7e-3 0 0.01263-0.0234 0.01263-0.05198 0-0.0286-0.0052-0.0496-0.01161-0.04668-0.01587 0.0072-0.0168 0.09866-9e-4 0.09866zm0.01269-3.4911c0.0058-0.0084 0.01872-0.07568 0.02872-0.14952 0.01536-0.11346 0.04083-0.22954 0.10433-0.47576 0.0073-0.0281 0.0054-0.03654-0.0062-0.0285-0.02566 0.0176-0.10144 0.31646-0.13158 0.51882-0.0097 0.06488-0.0066 0.15144 0.0048 0.13496zm-0.0049 0.70597c0.0039-0.011 0.0039-0.02894 0-0.0399-0.0039-0.011-0.0071-2e-3 -0.0071 0.02 0 0.02194 0.0032 0.03092 0.0071 0.02zm0.0081 0.08266c0.01401 0 0.0077-0.04132-0.0081-0.05294-0.0059-0.0044-0.0092 0.0058-0.0074 0.0225 0.0018 0.0168 0.0088 0.03044 0.01542 0.03044zm-0.0066 2.0297c0.0067 0 0.01215-0.0102 0.01215-0.0228s-0.0055-0.0228-0.01215-0.0228c-0.0067 0-0.01215 0.0102-0.01215 0.0228s0.0055 0.0228 0.01215 0.0228zm0.0021 0.1085c0.01107-0.02086 0.0056-0.0629-0.0083-0.0629-0.0033 0-0.0055 0.0192-0.0049 0.04276 9e-4 0.03256 4e-3 0.03736 0.01308 0.02014zm-4e-3 0.1338c0.0043-0.0078 0.0043-0.02066 0-0.0285-0.0043-0.0078-0.0078-0.0014-0.0078 0.0142s0.0035 0.02208 0.0078 0.0142zm6e-4 0.12558c0.0037-0.014 0.0038-0.03968 2.1e-4 -0.05702-0.0035-0.0174-0.0066-0.0058-0.0067 0.0255-1.17e-4 0.03136 0.0027 0.04554 0.0065 0.03152zm-0.0015 0.13074c0.0052-0.0038 0.0057-0.0136 0.0012-0.02186-0.0049-9e-3 -0.0086-0.0064-0.0094 0.0068-6e-4 0.012 3e-3 0.0188 0.0081 0.015zm0.0216 0.98372c0.0085 0 0.01548-0.0054 0.01548-0.012s-7e-3 -9e-3 -0.01548-5e-3c-0.0085 0.0038-0.01548 0.0094-0.01548 0.012 0 0.0028 7e-3 5e-3 0.01548 5e-3zm0.01548-0.4504c0.0092 0.0042 0.01485-0.0082 0.01392-0.03068-0.0015-0.03548-0.0024-0.03602-0.01392-0.0092-0.0068 0.0156-0.01308 0.02948-0.01392 0.03068-9e-4 0.0012 0.0055 0.0054 0.01392 0.0092zm0.0018 0.10832c0.0074 0 0.01353-0.0128 0.01353-0.0285 0-0.0156-0.0061-0.0285-0.01353-0.0285-0.0074 0-0.01353 0.0128-0.01353 0.0285 0 0.0156 0.0061 0.0285 0.01353 0.0285zm-0.01101 0.2043c0.01149-0.0086 0.01524-0.12374 0.0043-0.13182-0.0059-0.0044-0.01068 0.02462-0.01068 0.06434s3e-3 0.07008 0.0064 0.06746zm0.0038 0.06104c0.0042-0.0078 0.0045-0.02312 6e-4 -0.0342-4e-3 -0.011-0.0074-0.0048-0.0077 0.014s3e-3 0.02788 0.0071 0.02018zm0.01467-0.73592c0.0052-0.0038 0.0057-0.0136 0.0012-0.02186-5e-3 -9e-3 -0.0086-0.0064-0.0094 0.0068-6.01e-4 0.012 3e-3 0.0188 0.0081 0.015zm0 0.10262c0.0052-0.0038 0.0057-0.0136 0.0012-0.02186-5e-3 -9e-3 -0.0086-0.0064-0.0094 0.0068-6.01e-4 0.012 3e-3 0.0188 0.0081 0.015zm0 0.18244c0.0052-0.0038 0.0057-0.0136 0.0012-0.02186-5e-3 -9e-3 -0.0086-0.0064-0.0094 0.0068-6.01e-4 0.012 3e-3 0.0188 0.0081 0.015zm0.09915-4.4553c0.0085 0 0.01548-0.0052 0.01548-0.0114s-7e-3 -0.0114-0.01548-0.0114c-0.0085 0-0.01548 0.0052-0.01548 0.0114s7e-3 0.0114 0.01548 0.0114zm0.07604-0.24516c0.02175-0.04082 0.03188-0.09692 0.01746-0.09692-0.01407 0-0.02581 0.03774-0.0283 0.09122-0.0012 0.02528 3.6e-5 0.02592 0.01083 0.0058z"/>
  <animate attributeName="display" begin="0s" dur="0.5s" keyTimes="0;0.5;1" repeatCount="indefinite" values="none;inline;none"/>
 </g>
 <g fill="#fff" transform="rotate(180 3.9999 5.0001)">
  <path d="m0.015833 0.11134c0.01395-0.0033 0.11639-0.0033 0.22766-1.55e-4 0.14338 0.0041 0.23315 7.82e-4 0.30825-0.01144 0.058278-0.0095 0.12547-0.01599 0.14931-0.01445 0.023844 0.0015 0.04335-0.0024 0.04335-0.0087s0.01734-0.0082 0.038532-0.0043c0.12356 0.02324 0.12235 0.02318 0.11082 0.0049-0.009528-0.01514 0.022086-0.01909 0.20386-0.0255 0.35679-0.01257 0.70066-0.02741 0.9933-0.04287 0.22323-0.01179 0.30256-0.01173 0.40712 3.09e-4 0.071424 0.0082 0.15256 0.01147 0.18031 0.0072 0.035946-0.0055 0.050442-0.0031 0.050442 0.0083 0 0.0088 0.01734 0.0256 0.038532 0.0373 0.021852 0.01206 0.038532 0.01539 0.038532 0.0077 0-0.0075-0.010836-0.01373-0.024084-0.01393s-0.00721-0.0063 0.013422-0.01363c0.028074-0.0099 0.039378-0.0098 0.044952 3.64e-4 0.00408 0.0075 0.022428 0.01363 0.040734 0.01363 0.056886 0 0.085325 0.09966 0.071548 0.25073-0.040926 0.44877-0.02577 1.4109 0.0279 1.7705 0.035862 0.24031 0.0207 1.0758-0.029322 1.6158-0.030012 0.32402-0.05796 1.0178-0.055254 1.3717 0.00108 0.14079-0.0051 0.21757-0.017166 0.21303-0.012084-0.0046-0.014832 0.03453-0.00766 0.1089 0.00616 0.0638 0.00935 0.1636 0.0071 0.22177-0.00432 0.11145-0.00174 0.26585 0.00611 0.36429 0.00258 0.03232-9e-4 0.08916-0.00767 0.12632-0.00763 0.04174-0.0051 0.06757 0.00668 0.06757 0.01047 0 0.019032 0.0056 0.019032 0.01245 0 0.0068-0.00867 0.0092-0.019266 0.0052-0.01227-0.0046-0.019266 0.02926-0.019266 0.09332 0 0.05532 0.0079 0.10058 0.017562 0.10058 0.01899 0 0.016422 0.01677-0.00782 0.05113-0.010092 0.0143-0.00614 0.02531 0.011538 0.03214 0.022506 0.0087 0.022182 0.01044-0.00198 0.01075-0.01938 2.37e-4 -0.021696 0.0032-0.00703 9e-3 0.01449 0.0057 0.022854 0.06812 0.024792 0.1849 0.0027 0.16416 0.00939 0.28572 0.025152 0.4583 0.00498 0.05467-1.836e-4 0.0723-0.023052 0.0785-0.024996 0.0068-0.024492 0.0081 0.0033 0.0088 0.026562 6.55e-4 0.030444 0.0081 0.02043 0.03902-0.0068 0.02101-0.01413 0.255-0.01629 0.51999s-0.0054 0.48444-0.00726 0.48767c-0.00186 0.0032-0.00719 0.06404-0.011898 0.13514-0.00468 0.07109-0.020148 0.21916-0.034308 0.32903-0.01416 0.10987-0.028074 0.36634-0.030918 0.56993-0.00282 0.20359-0.00688 0.40321-0.00897 0.44361-0.0021 0.04039 3e-3 0.07344 0.01125 0.07344 0.044196 0-0.015744 0.03386-0.081077 0.0458-0.041832 0.0076-0.076056 0.01959-0.076056 0.02655 0 0.0071-0.02082 0.01022-0.04758 0.0071-0.026172-3e-3 -0.042996-1e-3 -0.037392 0.0045 0.00558 0.0055-0.00114 0.01058-0.01503 0.01123-0.013872 6.55e-4 -0.00354 0.0049 0.022944 0.0095 0.04104 0.0071 0.030348 0.01104-0.072247 0.02689-0.066226 0.01024-0.12041 0.01391-0.12041 0.0082 0-0.0057 0.00867-0.01044 0.019266-0.01044s0.019266-0.0053 0.019266-0.01175c0-0.02054-0.035472-0.01264-0.047562 0.01059-0.00835 0.01605-0.048078 0.02778-0.14098 0.04166-0.071143 0.01062-0.14669 0.01917-0.16788 0.01899-0.29689-0.0025-0.5834-0.01261-0.68394-0.02411-0.068876-0.0079-0.27115-0.01677-0.4495-0.01976-0.27944-0.0047-0.32272-0.0079-0.31307-0.02324 0.006162-0.0098 0.011202-0.02033 0.011202-0.02341 0-0.0031 0.008568-0.0024 0.019044 0.0016 0.010656 4e-3 0.014298-3.64e-4 0.008274-0.0099-0.00663-0.01054-0.045444-0.01894-0.10093-0.02186-0.14257-0.0075-0.15759-0.0021-0.15759 0.05606 0 0.02795-0.008784 0.05413-0.019524 0.05818-0.035628 0.01343-0.13803 0.0097-0.15355-0.0057-0.0084-0.0083-0.024918-0.01144-0.036696-7e-3 -0.013488 0.0051-0.02142-0.0026-0.02142-0.02069 0-0.02341 0.012198-0.03016 0.06557-0.03627 0.057168-0.0065 0.11645-0.04212 0.070181-0.04212-0.022104 0-0.054402-0.06178-0.067565-0.12926-0.0057-0.02908-0.023466-0.08196-0.03954-0.11751-0.023994-0.05306-0.027324-0.11722-0.018618-0.35841 0.013068-0.36208 0.011406-0.46582-0.00948-0.59343-0.008994-0.05494-0.013344-0.17127-0.009666-0.25853 0.006642-0.15777 0.021726-0.22499 0.11327-0.50495 0.04356-0.13321 0.048414-0.16783 0.021198-0.15123-0.00522 0.0032-0.028452 0.05828-0.051594 0.12241-0.043536 0.12065-0.048462 0.13007-0.06334 0.121-0.00486-3e-3 0.00414-0.03943 0.020076-0.08103 0.015912-0.0416 0.033216-0.09425 0.03846-0.11701 0.00522-0.02275 0.017892-0.06677 0.028104-0.0978 0.010212-0.03104 0.023124-0.08127 0.028692-0.11164 0.00558-0.03036 0.017904-0.09751 0.02742-0.14922 0.018246-0.09917 0.010698-0.84872-0.009054-0.89896-0.006354-0.01616-0.015372-0.06111-0.02004-0.09988-0.00468-0.03878-0.013374-0.09695-0.019338-0.12926-0.012282-0.06653-0.030186-0.22601-0.028362-0.25265 6.5999e-4 -0.0097 2.1179e-4 -0.0282-0.00102-0.04113-0.009114-0.09688 0.00486-0.30346 0.03054-0.45242 0.014886-0.08626 0.008136-0.50525-0.010206-0.63296-0.022494-0.15666-0.0207-0.59875 0.00246-0.60748 0.008778-0.0033 0.007836-0.01905-0.0021-0.03498-0.011538-0.01851-0.011274-0.02896 7.2e-4 -0.02896 0.010332 0 0.018792-0.0056 0.018792-0.01245 0-0.0068-0.00867-0.0092-0.019266-0.0052s-0.019266-0.0036-0.019266-0.01694c0-0.01331 0.007308-0.0242 0.016242-0.0242s0.018036-0.07139 0.020232-0.15864c0.00222-0.08725-0.00294-0.15864-0.011424-0.15863-0.008478 0-0.012786-0.05331-0.009576-0.11849 0.00324-0.06518-0.00216-0.12468-0.011976-0.13221-0.009798-0.0075-0.014628-0.02428-0.010734-0.03721 0.01026-0.03403 0.010224-0.34039-5.76e-5 -0.50824-0.006426-0.10494-0.0027-0.144 0.013686-0.14413 0.0144-1.18e-4 0.015498-0.0033 0.00306-0.0088-0.010698-0.0047-0.02049-0.04301-0.021762-0.08502-0.00474-0.15606-0.046122-0.49384-0.084266-0.68744-0.067807-0.34419-0.076131-0.40683-0.076513-0.57581-2.04e-4 -0.09048 0.013524-0.24637 0.03051-0.34641 0.025836-0.15215 0.027354-0.21172 0.009282-0.36429-0.011886-0.10032-0.030552-0.26436-0.041484-0.36453-0.019218-0.17614-0.056718-0.34965-0.08417-0.38949-0.007956-0.01155-0.00312-0.02172 0.012048-0.02528zm0.23935 9.5219c0.00414 0 0.007572-0.0079 0.007572-0.01763 0-0.0097-0.0084-0.01763-0.01866-0.01763-0.010266 0-0.013668 0.0079-0.007572 0.01763 0.006096 0.0097 0.014496 0.01763 0.01866 0.01763zm0.040116 0.07932c0.00486-0.01131 0.00486-0.02982 0-0.04113s-0.008814-0.0021-0.008814 0.02056c0 0.02262 0.00396 0.03188 0.008814 0.02057zm0.036888-6.2284c0.006402-0.0039 0.007086-0.01404 0.0015-0.02252-0.00615-0.0094-0.010716-0.0066-0.01164 0.0071-8.4e-4 0.01239 0.00372 0.01933 0.010116 0.01542zm0.007626 4.2512c0.009108-0.01293 0.01656-0.03408 0.01656-0.047v-0.0235l-0.01656 0.0235c-0.009108 0.01293-0.01656 0.03408-0.01656 0.047v0.0235zm0.038532-0.15864c0.024384-0.02301 0.024384-0.03857 0-0.02938-0.010596 4e-3 -0.019134 0.01621-0.018972 0.02713 2.544e-4 0.01713 0.00288 0.01743 0.018972 0.0023zm-0.007626 0.05557c0.006402-0.0039 0.007086-0.01404 0.0015-0.02252-0.00615-0.0094-0.010716-0.0066-0.01164 0.0071-8.4e-4 0.01239 0.00372 0.01933 0.010116 0.01542zm0.069773 0.05223c0.010596-0.0065 0.01287-0.01806 0.00504-0.02578-0.0108-0.01066-0.017958-0.01033-0.029802 0.0013-0.02031 0.02004-3.564e-4 0.03974 0.02475 0.02443zm0.11486-7.4795c0.015366-0.0038 0.010806-0.0065-0.01164-0.0071-0.02031-5.09e-4 -0.031686 0.0023-0.025284 0.0062s0.023022 0.0043 0.036924 9.27e-4zm0.21192 9.73c0.015372-0.0038 0.010806-0.0065-0.01164-0.0071-0.02031-5.09e-4 -0.031686 0.0023-0.025284 0.0062 0.006402 0.0039 0.023022 0.0043 0.036924 9.09e-4zm0.11426 0.0037c0.010596 0 0.013908-0.0053 0.007356-0.01175-0.006552-0.0065-0.020574-0.01175-0.03117-0.01175-0.010596 0-0.013908 0.0053-0.007362 0.01175 0.006552 0.0065 0.020574 0.01175 0.03117 0.01175zm0.078402-0.0037c0.015372-0.0038 0.010806-0.0065-0.01164-0.0071-0.02031-5.09e-4 -0.031686 0.0023-0.025284 0.0062s0.023016 0.0043 0.036924 9.09e-4zm0.75137-9.8827c0.015372-0.0038 0.010806-0.0065-0.01164-0.0071-0.02031-5.09e-4 -0.031686 0.0023-0.025284 0.0062 0.0064 0.0039 0.023016 0.0043 0.036924 9.28e-4zm1.0945 8.3353c0.010272-0.0097 0.018678-0.02291 0.018678-0.02938 0-0.0065-0.00841-0.0038-0.018678 0.0059-0.010272 0.0097-0.018678 0.02291-0.018678 0.02938 0 0.0065 0.00841 0.0038 0.018678-0.0059zm0.038532-1.0694c0.010596 0 0.019266-0.0053 0.019266-0.01175 0-0.0065-0.00867-0.01175-0.019266-0.01175s-0.019266 0.0053-0.019266 0.01175c0 0.0065 0.00867 0.01175 0.019266 0.01175zm-0.011694 0.27028c0.018276 0 0.027486-0.03517 0.010854-0.04145-0.010134-0.0038-0.018426 0.0039-0.018426 0.01725 0 0.01331 0.00342 0.0242 0.00757 0.0242zm0.03096-3.1376c0.010596 0 0.019266-0.0056 0.019266-0.01245 0-0.0068-0.00867-0.0092-0.019266-0.0052s-0.019266 0.0096-0.019266 0.01245c0 0.0029 0.00867 0.0052 0.019266 0.0052zm0 0.16452c0.010596 0 0.019266-0.0023 0.019266-0.0052s-0.00867-0.0085-0.019266-0.01245c-0.010596-4e-3 -0.019266-0.0017-0.019266 0.0052 0 0.0068 0.00867 0.01245 0.019266 0.01245zm0.019266-0.62281c0.010596 0 0.019266-0.0053 0.019266-0.01175 0-0.0065-0.00867-0.01175-0.019266-0.01175s-0.019266 0.0053-0.019266 0.01175c0 0.0065 0.00867 0.01175 0.019266 0.01175zm0.031146-1.7862c0.00408 0 0.00739-0.01058 0.00739-0.0235s-0.00786-0.0235-0.01746-0.0235c-0.00961 0-0.01293 0.01058-0.00739 0.0235 0.00552 0.01293 0.013398 0.0235 0.01746 0.0235z"/>
  <path d="m5.0129 6.3965c0.0047-0.07526 0.0129-0.12656 0.0183-0.11402 0.0078 0.018 0.01017 0.0188 0.01161 0.0036 9e-4 -0.0106-0.0034-0.02166-0.0098-0.02454-0.0064-0.0028-7e-3 -0.08146-0.0015-0.17456 0.0056-0.0931 0.01152-0.21034 0.01311-0.26051 0.0027-0.08664 0.01617-0.23728 0.0472-0.53022 0.0077-0.07212 0.01383-0.14982 0.01374-0.17266-9.3e-5 -0.02284 0.01011-0.14598 0.02268-0.27366 0.01257-0.12768 0.02715-0.38094 0.03242-0.56281 0.0053-0.18186 0.01617-0.40251 0.02424-0.49031 0.01968-0.21421 0.04937-1.1536 0.0379-1.1995-0.01149-0.046-0.01281-0.54704-0.0015-0.59821 0.0046-0.02096 0.01572-0.15098 0.02472-0.28896 0.01668-0.25548 0.02718-0.34853 0.07024-0.62144 0.01515-0.09598 0.02467-0.25699 0.02533-0.4276 0.0012-0.29527 0.01356-0.45064 0.04227-0.52772 0.01809-0.04858 0.05852-0.05796 0.04207-0.0098-0.0076 0.02236-0.0066 0.02272 0.01197 0.0044 0.01116-0.011 0.03226-0.02 0.04691-0.02 0.01674 0 0.03575-0.0172 0.05118-0.04606 0.02544-0.0477 0.04962-0.04336 0.05011 9e-3 1.26e-4 0.0142 0.0066 0.02566 0.01446 0.02566 0.0078 0 0.02697 3e-3 0.04257 0.0068 0.01725 0.0042 0.02151 3e-3 0.01083-0.0028-0.0096-0.0052-0.01761-0.02246-0.01773-0.03814-1.08e-4 -0.0156-0.0027-0.0362-0.0057-0.0456-0.0047-0.0146 0.0238-0.017 0.18799-0.0168 0.20333 2.18e-4 0.60431 0.02144 0.77251 0.04086 0.09805 0.0114 0.16561 0.03372 0.14579 0.04832-0.0056 0.0042 9e-4 0.0076 0.01428 0.0076 0.01347 0 0.02688-0.0052 0.02976-0.0116 0.0035-0.0078 0.03141-8e-3 0.08546-4.38e-4 0.06953 0.0098 0.286 0.0122 0.65482 0.0076 0.12592-0.0016 0.31122 0.03362 0.29914 0.05682-0.0046 0.0088-6e-4 0.016 0.0088 0.016s0.01713-6e-3 0.01713-0.0134c0-0.04348 0.02896 0.03184 0.03471 0.09026 0.0024 0.02394 0.02683 0.016 0.046-0.015 0.01461-0.02362 0.01389-0.03126-0.0038-0.03928-0.01203-0.0054-0.01704-0.0136-0.0111-0.018 0.0059-0.0044 0.02109-0.0016 0.0337 6e-3 0.0126 0.0078 0.03018 0.0106 0.03907 0.0066 0.02208-0.01 0.02004 0.0122-0.0071 0.07828-0.02034 0.0494-0.1161 0.39665-0.18428 0.66828-0.02688 0.10704-0.06036 0.31447-0.08746 0.54163-0.02577 0.21616-0.03639 1.1358-0.01572 1.3626 0.09001 0.98745 0.08638 2.4695-0.0085 3.4835-0.0129 0.13796-0.0264 0.34578-0.03001 0.46181-0.0036 0.11602-0.0135 0.26739-0.02202 0.33638-0.0085 0.06898-0.01845 0.1701-0.02208 0.22471-0.0036 0.0546-0.01497 0.1164-0.02523 0.13734-0.01524 0.03106-0.01404 0.05306 0.0065 0.11962 0.02908 0.0942 0.03203 0.1962 0.0085 0.2937-0.0091 0.03762-0.0219 0.10446-0.02847 0.14854-0.0066 0.04406-0.01965 0.09072-0.02905 0.10368-0.01134 0.0156-0.01656 0.12162-0.01551 0.31431 0.0015 0.25586-0.0015 0.29542-0.02547 0.32963-0.03468 0.04982-0.05363 0.23663-0.06523 0.64321-0.0064 0.22455-0.0144 0.31594-0.02958 0.3377-0.03143 0.04506-0.2324 0.11552-0.46329 0.16238-0.23811 0.04834-0.35372 0.06216-0.54175 0.0648-0.07662 0.0011-0.17925 0.0034-0.22808 5e-3 -0.05121 0.0018-0.08505-0.0013-0.07997-0.0074 0.0051-6e-3 -0.0083-0.0074-0.03139-3e-3 -0.02268 0.0042-0.04951 0.0017-0.06158-0.0056-0.01176-0.0072-0.02734-0.0122-0.03463-0.0114-0.0073 9.62e-4 -0.01671 8.72e-4 -0.02097-2.18e-4 -0.0043-0.0011-0.09646-0.0044-0.20489-0.0072-0.10844-3e-3 -0.21625-0.0106-0.2396-0.0172-0.02974-0.0084-0.04408-0.0082-0.04792 2.18e-4 -0.01278 0.02826-0.04372 0.0108-0.03736-0.02108 5e-3 -0.02522-0.0012-0.03632-0.02635-0.04618-0.01812-0.0072-0.02886-0.0178-0.02385-0.02382 5e-3 -6e-3 0.0018-0.0108-0.0073-0.0108-9e-3 0-0.01638 0.0078-0.01638 0.0172 0 0.03064-0.05819-0.0064-0.06825-0.04336-0.0078-0.02888-0.01422-0.03238-0.04779-0.02618-0.02235 0.0042-0.03874 0.0022-0.03874-0.0044 0-0.0064 0.0066-0.0116 0.0147-0.0116s0.0046-0.0178-0.0077-0.03954c-0.02893-0.05096-0.02929-0.16584-6e-4 -0.19472 0.01518-0.0152 0.01731-0.02816 7e-3 -0.04232-0.0081-0.0112-0.0099-0.02618-0.0039-0.03328 0.0069-0.0082 0.0039-0.0098-0.0081-0.0044-0.01272 0.0058-0.01731 0.0017-0.01401-0.0124 0.0027-0.0122-0.0033-0.0198-0.01443-0.0182-0.01065 0.0016-0.01935-0.0052-0.01935-0.015s7e-3 -0.0146 0.01548-0.0108c0.0085 0.0038 0.01548 0.0016 0.01548-5e-3s-0.0061-0.012-0.01344-0.012c-0.0074 0-0.01101-0.0154-8e-3 -0.0342 3e-3 -0.0188-0.0015-0.0342-0.0098-0.0342-0.01866 0-0.01311-0.02544 8e-3 -0.03688 0.0096-0.0052 0.0081-0.0084-0.0038-0.0086-0.01065-9.2e-5 -0.01935-0.0126-0.01935-0.02772 0-0.0152-0.0087-0.03014-0.01935-0.0333-0.01266-0.0038-0.01323-6e-3 -0.0015-0.0066 0.01212-6.36e-4 0.01395-0.0132 0.0058-0.03992-0.0072-0.0235-0.0057-0.04366 0.0038-0.05064 0.01071-0.0078 0.0076-0.02428-0.0096-0.05106-0.02803-0.0435-0.03174-0.05734-0.01314-0.04886 0.0068 3e-3 0.01329-0.0044 0.01455-0.0166 0.0012-0.0122-0.0043-0.0192-0.01227-0.0156-0.01899 0.0086-0.01845-0.0022 0.0015-0.02968 0.01104-0.0152 0.01104-0.02206 0-0.02206-0.0088 0-0.01602-0.0054-0.01602-0.012s0.0087-0.0082 0.01935-0.0036c0.01518 0.0068 0.01536 5e-3 9e-4 -0.0082-0.01017-0.0092-0.01836-0.03462-0.01821-0.05636 2.34e-4 -0.03312-3e-4 -0.12418-0.0012-0.19344-1.23e-4 -0.0094-6e-4 -0.05944-0.0012-0.11118-6e-4 -0.06514-0.0068-0.09412-0.01965-0.09424-0.0123-1.14e-4 -0.01128-0.0036 0.0031-0.0102 0.01731-8e-3 0.01956-0.03232 0.01128-0.12152-0.0057-0.06128-0.018-0.11824-0.0274-0.12656-0.01245-0.011-0.01236-0.0152 3e-4 -0.0152 0.0095 0 0.01725-0.0116 0.01713-0.02566-1.92e-4 -0.02074-0.0031-0.02238-0.01524-0.0086-0.01281 0.0146-0.01503 0.0142-0.01524-0.0028-1.23e-4 -0.011 0.0085-0.02004 0.01911-0.02014 0.01416-1.28e-4 0.01371-0.0028-0.0018-0.01-0.01782-0.0084-0.01782-0.0108 0-0.016 0.01497-0.0044 0.01548-0.0064 0.0018-7e-3 -0.01065-4.9e-4 -0.01935-0.0064-0.01935-0.013s0.0067-9e-3 0.01479-0.0054c0.0089 4e-3 0.01401-0.02294 0.01284-0.06774-0.0012-0.04096-0.0089-0.07448-0.01737-0.07448-0.0085 0-0.01083-0.0034-0.0052-0.0076 0.0056-0.0042 0.0024-0.0144-0.0071-0.0228-0.01332-0.0118-0.01095-0.0154 0.01044-0.0154 0.01524 0 0.02349-3e-3 0.01836-0.0068-0.0052-0.0038-3e-3 -0.0192 0.0048-0.0342 0.0089-0.0172 0.0086-0.02734-9e-4 -0.02734-0.0083 0-0.01428-0.0038-0.01326-0.0086 9.01e-4 -0.0048 9.01e-4 -0.08408 0-0.17638-0.0015-0.13278-0.0061-0.16664-0.02199-0.16212-0.01443 4e-3 -0.02085-0.0082-0.02256-0.04312-0.0018-0.03552 0.0012-0.0426 0.0105-0.026 0.0071 0.0126 0.01017 0.0263 0.0068 0.03056-0.0034 0.0042 0.0015 0.0112 0.01053 0.0154 0.01125 0.0052 0.01569-0.0158 0.0138-0.06478-0.0038-0.09804-0.01506-0.14118-0.03183-0.12172-0.0085 0.0098-0.01275 0.0011-0.01221-0.02474 6e-4 -0.0326 0.0033-0.03574 0.01416-0.0172 0.0073 0.0126 0.01422 0.02024 0.01533 0.0172 0.0087-0.02436 0.0068-0.37629-0.0021-0.37629-0.0062 0-0.01413 0.0166-0.01755 0.03706-0.0092 0.05442-0.0064-0.33923 0.0035-0.49886zm0.01833 0.38673c0.01539-7e-3 0.01146-0.06176-0.0044-0.06176-0.0061 0-0.01047 0.0152-0.0098 0.03382 6e-4 0.0186 0.0071 0.03118 0.01419 0.02794zm-0.0021 0.05798c0.0085-0.0038 0.01548-0.0144 0.01548-0.02348 0-9e-3 -7e-3 -0.0164-0.01548-0.0164-0.0085 0-0.01548 0.0106-0.01548 0.02348 0 0.013 7e-3 0.0203 0.01548 0.0164zm0.12148 0.54626c0.01203 0.0054 7e-3 -0.41759-0.0053-0.44363-3e-3 -0.0062-0.0059 0.08964-0.0066 0.21312-6e-4 0.12348 0.0047 0.22722 0.01191 0.23051zm0.01302 0.14074c0.0039-0.011 0.0039-0.02894 0-0.0399-0.0039-0.011-0.0071-2e-3 -0.0071 0.02 0 0.02196 0.0032 0.03092 0.0071 0.02zm2.46e-4 0.09692c0.0037-0.0142 0.0037-0.0372 0-0.05132-0.0037-0.0142-0.0067-0.0026-0.0067 0.02566 0 0.02822 0.0031 0.03976 0.0067 0.02566zm0.0046 0.191c0.01848 0 0.01848-0.03102 0-0.06272-0.01068-0.0182-0.01353-0.0144-0.0144 0.02-6e-4 0.02352 0.0059 0.04276 0.0144 0.04276zm3e-3 0.12542c0.0059 2e-6 0.01044-0.02564 0.01011-0.057-3e-4 -0.03136-0.0066-0.057-0.01398-0.057-0.0073 0-0.01191 0.02566-0.01011 0.057 0.0018 0.03136 0.0081 0.057 0.01398 0.05702zm0.0077 0.11118c0.0039-0.011 0.0039-0.02894 0-0.0399-0.0039-0.011-0.0071-2e-3 -0.0071 0.02 0 0.02194 0.0032 0.03092 0.0071 0.02zm-6e-4 0.07434c0.0043-0.0078 0.0045-0.02312 6e-4 -0.0342-4e-3 -0.011-0.0074-0.0048-0.0077 0.014s3e-3 0.02788 0.0071 0.02018zm0.0049 0.08816c0.0083 0 0.01098-0.0076 0.0061-0.0172-0.0049-0.0094-0.01164-0.0172-0.015-0.0172-0.0034 0-0.0061 0.0078-0.0061 0.0172s0.0068 0.0172 0.015 0.0172zm0 0.0456c0.0083 0 0.01098-0.0076 0.0061-0.0172-0.0049-0.0094-0.01164-0.0172-0.015-0.0172-0.0034 0-0.0061 0.0076-0.0061 0.0172 0 0.0094 0.0068 0.0172 0.015 0.0172zm6e-4 0.0342c0.0085 0 0.01548-0.0022 0.01548-5e-3s-7e-3 -0.0082-0.01548-0.012c-0.0085-0.0038-0.01548-0.0016-0.01548 5e-3s7e-3 0.012 0.01548 0.012zm0.0094 0.09122c0.0034 0 0.0061-0.0076 0.0061-0.0172 0-0.0094-0.0068-0.0172-0.015-0.0172-0.0083 0-0.01098 0.0076-0.0061 0.0172 0.0049 0.0094 0.01164 0.0172 0.015 0.0172zm1.56e-4 0.11402c0.0033 0 0.0059-0.0102 0.0059-0.0228s-0.0063-0.0228-0.01404-0.0228c-0.0077 0-0.01038 0.0102-0.0059 0.0228 0.0044 0.0126 0.01077 0.0228 0.01404 0.0228zm-0.01821 0.20525c0.0038 0 0.01113-0.0052 0.01638-0.0114 0.0053-0.0062 0.0021-0.0114-0.0068-0.0114-9e-3 0-0.01638 0.0052-0.01638 0.0114s0.0031 0.0114 0.0068 0.0114zm0.0086 0.07982c0.0085 0 0.01548-0.0022 0.01548-5e-3s-7e-3 -0.0082-0.01548-0.012c-0.0085-0.0038-0.01548-0.0016-0.01548 5e-3s7e-3 0.012 0.01548 0.012zm0.02484 0.43021c0.0052-0.0038 0.0057-0.0136 0.0012-0.02186-5e-3 -9e-3 -0.0086-0.0064-0.0094 0.0068-6e-4 0.012 3e-3 0.0188 0.0081 0.015zm0.05256-3.965c0.0085 0 0.01548-0.0052 0.01548-0.0114s-7e-3 -0.0114-0.01548-0.0114c-0.0085 0-0.01548 0.0052-0.01548 0.0114s7e-3 0.0114 0.01548 0.0114zm-0.0095 0.07982c0.0033 0 0.0093-0.0128 0.01332-0.0285 0.0041-0.0156 0.0015-0.0285-0.0059-0.0285-0.0073 0-0.01332 0.0128-0.01332 0.0285 0 0.0156 0.0027 0.0285 0.0059 0.0285zm0.08849-1.6128c0.0058 0.0026 0.01401-0.0054 0.01845-0.018 0.0046-0.013 3e-4 -0.02276-0.0098-0.02284-0.01179-1.14e-4 -0.01245-3e-3 -0.0018-0.0086 0.01029-0.0054 0.01734-0.14046 0.0198-0.37896 0.0021-0.20925-0.0021-0.36422-0.0095-0.35595-0.0073 8e-3 -0.01491 0.14648-0.01689 0.30763-0.0021 0.16114-7e-3 0.29555-0.01128 0.29866-0.01134 0.0084-9e-4 0.1724 0.01119 0.17796zm0.01392-0.8103c0.0088 4e-3 0.01548-0.0058 0.01548-0.0228s-0.0067-0.02682-0.01548-0.0228c-0.0085 0.0038-0.01548 0.0142-0.01548 0.0228s7e-3 0.019 0.01548 0.0228zm0.20118-1.8073c0.0085 0 0.01548-0.0052 0.01548-0.0114s-7e-3 -0.0114-0.01548-0.0114c-0.0085 0-0.01548 0.0052-0.01548 0.0114s7e-3 0.0114 0.01548 0.0114zm0.06965 8.8184c0.02529-0.0072 0.03193-0.02694 9e-3 -0.02694-0.01173 0-0.01974 8e-3 -0.03102 0.031-6e-4 0.0014 0.0092-4.74e-4 0.02199-4e-3zm0.13157-6.1102c0.0085 0.0038 0.01548 0.0019 0.01548-0.0044 0-0.0062-7e-3 -0.0146-0.01548-0.0184-0.0085-0.0038-0.01548-0.0019-0.01548 0.0044 0 0.0062 7e-3 0.0146 0.01548 0.0184zm0.20122 6.0776c0.0085 0.0038 0.01548 0.0016 0.01548-5e-3s-7e-3 -0.012-0.01548-0.012c-0.0085 0-0.01548 0.0022-0.01548 5e-3s7e-3 0.0082 0.01548 0.012zm0.04644 0.05132c0.0085 0 0.01548-0.0054 0.01548-0.012s-7e-3 -9e-3 -0.01548-5e-3c-0.0085 0.0038-0.01548 0.0094-0.01548 0.012 0 0.0028 7e-3 5e-3 0.01548 5e-3zm0.05326-0.0114c0.0038 0 0.01113-0.0052 0.01638-0.0114 0.0053-0.0062 0.0021-0.0114-0.0068-0.0114-9e-3 0-0.01638 0.0052-0.01638 0.0114s0.0031 0.0114 0.0068 0.0114zm0.07899 0.0228c0.0018 0 0.01194-0.0076 0.02253-0.0172 0.01563-0.0138 0.015-0.0172-0.0033-0.0172-0.01239 0-0.02253 0.0076-0.02253 0.0172 0 0.0094 0.0015 0.0172 0.0033 0.0172zm0.07284 0.0012c0.03799 0.0024 0.11247-0.0036 0.12699-0.0102 0.0081-0.0036 0.0325-0.0072 0.05418-8e-3 0.1296-0.0046 0.14002-0.0062 0.14002-0.02414 0-0.0132-0.0077-0.0158-0.02709-0.0098-0.01488 0.0048-0.03928 8e-3 -0.05417 0.0072-0.01488-7.64e-4 -0.03928-0.0011-0.05418-8.36e-4 -0.01488 2.92e-4 -0.05669 0.0011-0.09287 0.0018-0.03618 6.9e-4 -0.06578 0.0054-0.06578 0.0106s-0.01044 0.0094-0.02322 0.0094c-0.0279 0-0.0315 0.02228-0.0039 0.02402zm0.35601-0.04698c-0.02998 2.74e-4 -0.0228 0.019 0.0077 0.0203 0.04569 0.0019 0.25785-0.02272 0.28248-0.03276 0.0174-0.0072 0.01353-0.0096-0.01548-0.01-0.02998-4e-4 -0.03357-0.0028-0.01593-0.0112 0.01251-0.0058 0.01806-0.014 0.01233-0.0182-0.01527-0.0112-0.08927 0.0048-0.08927 0.0192 0 0.0068 0.01044 0.0094 0.02322 0.0058s0.02322-0.0016 0.02322 0.0044-0.01218 0.0112-0.0271 0.0112c-0.01488 9.2e-5 -0.04172 3e-3 -0.05961 0.0066-0.0186 0.0036-0.04228-7.64e-4 -0.05531-0.0104-0.01416-0.0104-0.03901-0.0146-0.06564-0.0108-0.03098 0.0044-0.03709 0.0088-0.02208 0.0158 0.01545 0.0072 0.01581 0.0098 0.0015 0.0098zm0.11889-0.0174c0.0079 0.0036 0.01878 0.0013 0.02412-5e-3 0.0053-0.0064-0.0012-0.0116-0.0144-0.0116-0.02718 0-0.03119 0.0068-0.0097 0.0166zm0.23019-0.03878c0.02701-0.0058 0.05253-0.0062 0.05677-0.0012 0.0043 5e-3 -0.01308 0.0122-0.03849 0.016-0.02542 0.0038-0.04618 0.0116-0.04618 0.0174 0 0.0062 0.02229 0.0056 0.05418-0.0016 0.03615-0.0082 0.05417-0.0192 0.05417-0.03314 0-0.0114 7e-3 -0.0209 0.01548-0.0209 0.0085 0 0.01548-0.0046 0.01548-0.0104 0-0.013-0.02844-0.0098-0.07385 0.0086-0.01932 0.0078-0.04275 0.0108-0.05204 0.0066-0.0093-0.0042-0.02268-7.64e-4 -0.0298 0.0076-0.01794 0.02136-0.01191 0.02286 0.04427 0.011zm0.10845-9.636c0.03258-1.36e-4 0.0366-0.0026 0.01842-0.0112-0.03058-0.0146-0.08187-0.0146-0.06965 0 0.0053 0.0062 0.0283 0.0114 0.05122 0.0112zm-0.01251 5.7015c0.0085 0 0.01548-0.0052 0.01548-0.0114s-7e-3 -0.0114-0.01548-0.0114c-0.0085 0-0.01548 0.0052-0.01548 0.0114s7e-3 0.0114 0.01548 0.0114zm0.05509 3.8997c0.01326 0 0.01983-0.0052 0.01455-0.0114-0.0053-0.0062-0.01611-0.0114-0.02413-0.0114-8e-3 0-0.01455 0.0052-0.01455 0.0114s0.01086 0.0114 0.02412 0.0114zm0.04067-9.6046c0.01236-0.0036 0.0087-0.0064-0.0094-0.0068-0.01632-4.9e-4 -0.02547 0.0022-0.02031 6e-3 0.0052 0.0038 0.01848 0.0042 0.02968 9.08e-4zm0.04886 9.6109c-7e-3 0.0134-1.59e-4 0.014 0.03955 0.0038 0.0264-0.0068 0.04799-0.0168 0.04799-0.02226 0-0.0054-0.01053-7e-3 -0.0234-0.0034s-0.03369 3.26e-4 -0.04624-0.0074c-0.01359-0.0084-0.03386-0.0104-0.05011-5e-3 -0.02424 8e-3 -0.02352 0.0094 0.0067 0.0134 0.02178 0.0028 0.03094 0.0102 0.02553 0.0206zm0.1185-0.0176c0.0085 0 0.01548-0.0052 0.01548-0.0114s-7e-3 -0.0114-0.01548-0.0114c-0.0085 0-0.01548 0.0052-0.01548 0.0114s7e-3 0.0114 0.01548 0.0114zm0.04644-1.2942c0.0085 0.0038 0.01548 0.0016 0.01548-5e-3s-7e-3 -0.012-0.01548-0.012c-0.0085 0-0.01548 0.0022-0.01548 5e-3s7e-3 0.0082 0.01548 0.012zm0.03096-0.52452c0.0085 0.0038 0.01548-0.0013 0.01548-0.0114 0-0.0102-7e-3 -0.0152-0.01548-0.0114-0.0085 0.0038-0.01548 9e-3 -0.01548 0.0114s7e-3 0.0076 0.01548 0.0114zm0.03096-0.23375c0.0085 0 0.01557 0.0192 0.01572 0.04276 1.77e-4 0.0318 0.0041 0.03838 0.01524 0.02566 0.0083-0.0094 0.01512-0.03318 0.01524-0.05284 1.74e-4 -0.02622-8e-3 -0.03732-0.03072-0.0417-0.0201-0.0038-0.03096-3.28e-4 -0.03096 0.01 0 0.0088 7e-3 0.016 0.01548 0.016zm0.12387-1.5336c0.01023 0.0046 0.0096 0.0156-0.0018 0.03202-0.01623 0.02336-0.01563 0.02376 0.0093 0.0062 0.0271-0.019 0.02097-0.06684-0.0085-0.06684-0.0192 0-0.01845 0.0196 0.0012 0.02852zm0.02971 0.20892c-9e-4 0.0118-0.0042 0.0138-9e-3 0.0048-0.01812-0.0331-0.03615-0.01-0.03564 0.04562 6e-4 0.05766 0.0015 0.05882 0.02268 0.03136 0.02199-0.02836 0.02211-0.02826 0.02268 0.0166 9e-4 0.08122 0.02934 0.02754 0.03837-0.0726 0.0047-0.05278 0.01212-0.09854 0.01638-0.10168 0.0043-0.0032 0.0077 0.04734 0.0077 0.11214 0 0.0648 4e-3 0.11488 0.0089 0.11128 0.01035-0.0076 0.0144-0.05372 0.03807-0.43434 0.01725-0.27703 0.01407-0.36816-0.0076-0.21899-0.0062 0.04304-0.01716 0.07186-0.02571 0.06798-0.0082-0.0038-0.01122-0.0154-0.0068-0.02576 0.0044-0.0104 0.0098-0.06432 0.01197-0.11974 0.0041-0.10676 0.02637-0.14944 0.02953-0.05672l0.0018 0.05484 0.01455-0.06676c0.01482-0.06796 7e-3 -0.09428-0.0189-0.06404-0.018 0.02096-0.01791 0.02178-0.01314-0.13716 0.0052-0.17182 0.0044-0.1825-0.01365-0.1958-0.0114-0.0084-0.01449 9e-3 -0.01032 0.05818 0.0045 0.05296 0.0012 0.06824-0.01296 0.06232-0.01425-6e-3 -0.01416-4e-3 3e-4 0.0074 0.02073 0.0164 0.02703 0.04986 0.0077 0.04106-0.0064-0.0028-0.01233 0.04938-0.01323 0.1162-0.0034 0.25452-0.0147 0.35151-0.04482 0.38559-0.02241 0.02538-0.02322 0.02912-0.0037 0.0174 0.02199-0.0132 0.02475-0.0108 0.02352 0.02098-9e-4 0.02528-0.01104 0.03888-0.03382 0.04566-0.02391 0.0072-0.02574 0.0098-7e-3 0.0104 0.01398 4e-4 0.02865 0.0072 0.03257 0.015 0.01344 0.02682-0.01515 0.23673-0.03198 0.23499-0.02689-0.0028-0.03848 0.0048-0.0144 0.0094 0.01491 0.0028 0.02655 0.0138 0.02586 0.02432zm-0.01425-0.44269c0.0085 0 0.01536-9e-3 0.01524-0.02-2.04e-4 -0.017-0.0024-0.0174-0.01524-0.0028-0.01887 0.02152-0.01887 0.0228 0 0.0228zm0.01548-0.20525c0.0085 0 0.01548-0.0022 0.01548-5e-3s-7e-3 -0.0082-0.01548-0.012c-0.0085-0.0038-0.01548-0.0016-0.01548 5e-3s7e-3 0.012 0.01548 0.012zm-0.0012 0.03942c0.0079 0.0036 0.01878 0.0013 0.02412-5e-3 0.0053-0.0064-0.0012-0.0116-0.0144-0.0116-0.02718 0-0.03119 0.0068-0.0097 0.0166zm0.01656-0.78059c0.0085 0 0.01536-9e-3 0.01524-0.02-2.01e-4 -0.017-0.0024-0.0174-0.01524-0.0028-0.01887 0.02152-0.01887 0.0228 0 0.0228zm0 0.12542c0.0085 0 0.01548-0.0106 0.01548-0.02348 0-0.013-7e-3 -0.0203-0.01548-0.0164-0.0085 0.0038-0.01548 0.0144-0.01548 0.02348 0 9e-3 7e-3 0.0164 0.01548 0.0164zm0 0.08552c0.0088 4e-3 0.01548-0.0056 0.01548-0.02214 0-0.016-7e-3 -0.02918-0.01548-0.02918-0.0085 0-0.01548 0.01-0.01548 0.02212 0 0.0122 7e-3 0.0253 0.01548 0.02918zm0 0.13112c0.01956-0.0223 0.01956-0.0456 0-0.0456-0.0085 0-0.01536 0.0142-0.01524 0.03136 1.86e-4 0.02444 0.0035 0.02758 0.01524 0.0142zm0.0086 0.03856c0.01377 0.0038 0.01998 2e-3 0.01455-0.0044-0.0052-0.0062-0.01602-0.0112-0.02403-0.0112-0.02226 0-0.01737 0.0082 0.0095 0.0158zm0.0018-0.73127c0.0043-0.0078 0.0043-0.02066 0-0.0285-0.0043-0.0078-0.0078-0.0014-0.0078 0.0142s0.0035 0.02208 0.0078 0.0142zm3e-4 0.23376c0.0039-0.011 0.0039-0.02894 0-0.03992-0.0039-0.011-0.0071-2e-3 -0.0071 0.02 0 0.02194 0.0032 0.03092 0.0071 0.02zm0.02136-2.52c-1.53e-4 0.1019 0.0058 0.18528 0.01308 0.18528 0.0073 0 0.01305-0.0064 0.01266-0.0142-0.0018-0.03812 0.0062-0.05416 0.02737-0.05416 0.01935 0 0.02322-0.02302 0.02322-0.13872 0-0.0763-0.0027-0.1366-0.0061-0.13398-0.0034 0.0026-0.0094 0.0575-0.01338 0.12198-4e-3 0.06448-0.01191 0.12064-0.01758 0.1248-0.01179 0.0086-8e-3 -0.57139 0.0051-0.78083 0.0079-0.1265-3.01e-4 -0.1686-0.02419-0.12288-0.01695 0.03256-0.03064 0.27619-0.02532 0.45074 3e-3 0.0972 0.0053 0.26012 0.0052 0.36203zm0.01443 0.26511c0.0085 0 0.01548-0.0052 0.01548-0.0114s-7e-3 -0.0114-0.01548-0.0114c-0.0085 0-0.01548 0.0052-0.01548 0.0114s7e-3 0.0114 0.01548 0.0114zm0.02019-1.1061c0.0144 0 0.02106-0.02312 0.02331-0.08052 0.0021-0.05706-0.0018-0.07822-0.01422-0.07264-0.01032 0.0048-0.01443 0.02692-0.01014 0.05492 4e-3 0.02586 0.0018 0.05726-0.0049 0.06978-0.0066 0.0126-0.01254 0.02404-0.01314 0.02562-6e-4 0.0016 8e-3 0.0028 0.01908 0.0028zm0.01242 3.4664c0.0076 0 0.01383-0.03336 0.01383-0.07412 0-0.04414-0.0066-0.07412-0.01626-0.07412-0.01014 0-0.0132 0.0192-0.0081 0.05082 0.0045 0.02794 0.0015 0.05378-0.0063 0.05738-0.01692 0.0078-0.0033 0.04004 0.01686 0.04004zm-0.01668 0.13682c0.0015 0.0032 0.0018 0.0172 1.5e-4 0.03136-0.0015 0.0142 0.0047 0.02566 0.01377 0.02566 0.0102 0 0.01659-0.03066 0.01659-0.07982 0-0.05076-0.0062-0.07982-0.01713-0.07982-0.0094 0-0.01311 0.0076-0.0082 0.0172 0.0049 0.0094 0.0037 0.0172-0.0027 0.0172-0.0099 0-0.01164 0.0507-0.0024 0.06842zm-0.0043 0.15106c-0.01179 3e-3 -0.01173 0.0106 2.82e-4 0.02628 0.0138 0.0182 0.01842 0.019 0.02514 5e-3 0.01389-0.0289 0.0027-0.0948-0.01695-0.0996-0.01359-0.0034-0.01497 0.0046-0.0052 0.0298 0.0088 0.02266 0.0077 0.03572-0.0033 0.03842zm0.02869-0.57296c0.0034 0 0.0061-0.0106 0.0061-0.02348 0-0.013-0.0067-0.02044-0.01479-0.0168-0.01335 6e-3 -6e-3 0.04022 0.0087 0.04022zm-0.0065 0.11402c7e-3 0 0.01263-0.0234 0.01263-0.05198 0-0.0286-0.0052-0.0496-0.01161-0.04668-0.01587 0.0072-0.0168 0.09866-9e-4 0.09866zm0.01269-3.4911c0.0058-0.0084 0.01872-0.07568 0.02872-0.14952 0.01536-0.11346 0.04083-0.22954 0.10433-0.47576 0.0073-0.0281 0.0054-0.03654-0.0062-0.0285-0.02566 0.0176-0.10144 0.31646-0.13158 0.51882-0.0097 0.06488-0.0066 0.15144 0.0048 0.13496zm-0.0049 0.70597c0.0039-0.011 0.0039-0.02894 0-0.0399-0.0039-0.011-0.0071-2e-3 -0.0071 0.02 0 0.02194 0.0032 0.03092 0.0071 0.02zm0.0081 0.08266c0.01401 0 0.0077-0.04132-0.0081-0.05294-0.0059-0.0044-0.0092 0.0058-0.0074 0.0225 0.0018 0.0168 0.0088 0.03044 0.01542 0.03044zm-0.0066 2.0297c0.0067 0 0.01215-0.0102 0.01215-0.0228s-0.0055-0.0228-0.01215-0.0228c-0.0067 0-0.01215 0.0102-0.01215 0.0228s0.0055 0.0228 0.01215 0.0228zm0.0021 0.1085c0.01107-0.02086 0.0056-0.0629-0.0083-0.0629-0.0033 0-0.0055 0.0192-0.0049 0.04276 9e-4 0.03256 4e-3 0.03736 0.01308 0.02014zm-4e-3 0.1338c0.0043-0.0078 0.0043-0.02066 0-0.0285-0.0043-0.0078-0.0078-0.0014-0.0078 0.0142s0.0035 0.02208 0.0078 0.0142zm6e-4 0.12558c0.0037-0.014 0.0038-0.03968 2.1e-4 -0.05702-0.0035-0.0174-0.0066-0.0058-0.0067 0.0255-1.17e-4 0.03136 0.0027 0.04554 0.0065 0.03152zm-0.0015 0.13074c0.0052-0.0038 0.0057-0.0136 0.0012-0.02186-0.0049-9e-3 -0.0086-0.0064-0.0094 0.0068-6e-4 0.012 3e-3 0.0188 0.0081 0.015zm0.0216 0.98372c0.0085 0 0.01548-0.0054 0.01548-0.012s-7e-3 -9e-3 -0.01548-5e-3c-0.0085 0.0038-0.01548 0.0094-0.01548 0.012 0 0.0028 7e-3 5e-3 0.01548 5e-3zm0.01548-0.4504c0.0092 0.0042 0.01485-0.0082 0.01392-0.03068-0.0015-0.03548-0.0024-0.03602-0.01392-0.0092-0.0068 0.0156-0.01308 0.02948-0.01392 0.03068-9e-4 0.0012 0.0055 0.0054 0.01392 0.0092zm0.0018 0.10832c0.0074 0 0.01353-0.0128 0.01353-0.0285 0-0.0156-0.0061-0.0285-0.01353-0.0285-0.0074 0-0.01353 0.0128-0.01353 0.0285 0 0.0156 0.0061 0.0285 0.01353 0.0285zm-0.01101 0.2043c0.01149-0.0086 0.01524-0.12374 0.0043-0.13182-0.0059-0.0044-0.01068 0.02462-0.01068 0.06434s3e-3 0.07008 0.0064 0.06746zm0.0038 0.06104c0.0042-0.0078 0.0045-0.02312 6e-4 -0.0342-4e-3 -0.011-0.0074-0.0048-0.0077 0.014s3e-3 0.02788 0.0071 0.02018zm0.01467-0.73592c0.0052-0.0038 0.0057-0.0136 0.0012-0.02186-5e-3 -9e-3 -0.0086-0.0064-0.0094 0.0068-6.01e-4 0.012 3e-3 0.0188 0.0081 0.015zm0 0.10262c0.0052-0.0038 0.0057-0.0136 0.0012-0.02186-5e-3 -9e-3 -0.0086-0.0064-0.0094 0.0068-6.01e-4 0.012 3e-3 0.0188 0.0081 0.015zm0 0.18244c0.0052-0.0038 0.0057-0.0136 0.0012-0.02186-5e-3 -9e-3 -0.0086-0.0064-0.0094 0.0068-6.01e-4 0.012 3e-3 0.0188 0.0081 0.015zm0.09915-4.4553c0.0085 0 0.01548-0.0052 0.01548-0.0114s-7e-3 -0.0114-0.01548-0.0114c-0.0085 0-0.01548 0.0052-0.01548 0.0114s7e-3 0.0114 0.01548 0.0114zm0.07604-0.24516c0.02175-0.04082 0.03188-0.09692 0.01746-0.09692-0.01407 0-0.02581 0.03774-0.0283 0.09122-0.0012 0.02528 3.6e-5 0.02592 0.01083 0.0058z"/>
  <animate attributeName="display" begin="0s" dur="0.5s" keyTimes="0;0.5;1" repeatCount="indefinite" values="inline;none;none"/>
 </g>
</svg>
