<svg version="1.1" viewBox="0 0 10 10" xmlns="http://www.w3.org/2000/svg"><path fill="#fff" d="m1.2446 8.9405c0.10322-1.8485 0.09209-3.5286 0.2284-3.8264-0.031614-0.86971-0.20604-1.7318-0.242-2.6022-0.29263-0.99721-0.19914-1.762-0.092183-2.4607 0.41735-0.093658 0.89381 0.2606 1.2776 0.43928 1.48 0.83135 2.8502 1.7861 4.245 2.7093 0.67065 0.63118 3.2733 1.5856 1.9199 2.2193-1.8192 1.3452-3.0938 2.2409-4.8935 3.6042-0.98271 0.91167-2.3467 1.5944-2.4433-0.082668z"><animate attributeName="display" values="inline;none;none" keyTimes="0;0.5;1" dur="0.5s" begin="0s" repeatCount="indefinite" /></path><path fill="#fff" d="m1.297 9.6897c-0.4361-0.60712-0.19844-1.5729-0.18399-2.3642 0.27291-2.0423 0.3148-4.1124 0.15718-6.1647 0.032539-0.36832-0.28002-0.8635 0.097143-1.1247 0.39448 0.033571 0.78031 0.46902 1.1929 0.63738 0.77587 0.5319 1.5061 1.1215 2.3002 1.6316 1.0597 0.68505 2.004 1.5069 3.0132 2.2522 0.33445 0.24985 0.69318 0.46807 1.0551 0.68075-0.6245 0.53755-1.3967 0.8848-2.0775 1.3518-0.71748 0.43812-1.4494 0.85804-2.1044 1.3774-0.89652 0.61856-1.7798 1.2547-2.6654 1.8858-0.28104 0.22097-0.59178 0.08716-0.78438-0.16337z"><animate attributeName="display" values="none;inline;none" keyTimes="0;0.5;1" dur="0.5s" begin="0s" repeatCount="indefinite" /></path></svg>
