<svg version="1.1" viewBox="0 0 55 55" xmlns="http://www.w3.org/2000/svg"><g transform="matrix(.077283 0 0 .088476 3.8706 41.761)"><g transform="matrix(.075402 0 0 .094631 650.5 76.675)"><g transform="matrix(.14305 0 0 .15756 -4238.5 -2889.6)"><g transform="matrix(.14521 0 0 .16472 -51657 4266.3)"><path d="m541462 105350c-193.95-112.69-3018.6-354.5-6277-537.36-3258.4-182.85-7067-436.19-8463.4-563-4147-376.53-32214-1301.4-43164-1422.4-5585.9-61.69-12632-161.43-15657-221.62-3025.7-60.21-15178-167.08-27005-237.5-11827-70.41-26871-338.49-33431-595.73-12377-485.38-32675-1820.7-35624-2343.6-930.98-165.04-5120.4-533.66-9309.8-819.09-4189.4-285.45-10664-752.38-14388-1037.6-3723.9-285.23-10362-667.69-14751-849.9-4389-182.21-8203.3-418.69-8476.3-525.5-273.01-106.83-7155.2-358.41-15294-559.09-8138.5-200.68-15178-519.56-15644-708.66-465.97-189.09-21033-377.51-45703-418.69-24671-41.212-54092-261.18-65380-488.86l-20524-413.95v1375.5c0 1925.3-822.96 3070.5-2206.4 3070.5-648.43 0-1179 213.01-1179 473.35s-972.2 591.01-2160.4 734.81c-1815.7 219.74-2389.7-42.004-3597-1640.3-1710.1-2264-3485.2-2793.3-4130.2-1231.8-624.75 1512.5-1961.2 1438.2-1961.2-109.03 0-2442.5-1954.5-3313.2-7552.8-3364.7-2833.1-26.094-5403-206.92-5710.9-401.87-307.93-194.94-2686.3-365.08-5285.3-378.08-2599-13.022-6578.2-332.8-8842.6-710.65-6251.3-1043.1-9481.1-4385.8-5530.9-5724.2 1532.9-519.38 1702.7-918.13 1233.9-2897.4-457.16-1930-302.33-2333.6 973.1-2536.9 834.22-132.98 6982 93.449 13662 503.14 6679.8 409.69 12266 668.32 12414 574.72 147.83-93.597 730.45-3183.9 1294.7-6867.3 1062.4-6934.9 610.31-21424-939.32-30108-1681.3-9422-1764.4-16311-406.09-33653 984.35-12568 1368.5-26384 1281.3-46080-68.54-15472 282.41-32350 779.89-37507 106.6-20403-1447.8-25760-723.28-35096-2274.6-10672-2211.8-12978 469.38-17221 1408.3-2228.6 2004.3-3953.1 1663.4-4812.8-394.9-996.1-54.18-1584.4 1328-2293 1675.7-859.05 1772.3-1169.8 978.53-3149.5-648.53-1617.6-622.55-2259.1 98.57-2434.3 880.74-213.96 4372.4-60.6 21243 933.06 15099 889.3 58410 946.17 79643 104.57 15900-630.23 23846-731.57 28352-361.61 3443.6 282.72 8927.2 630.47 12186 772.78 9614.2-343.31 11305 6015.3 15135 9934.4 1677.2 1211.9 2891.3 5753.5 4881.2 18260 2247.5 14125 2319.6 39637 149.14 52778-1558 9432.6-1680.2 15091-1261 58404 184.37 19052-43.51 31351-644.53 34792-511.36 2927.3-906.73 11161-878.59 18296 215.68 19159-1824 23466-877.92 28048 0 711.16 3414.3 1038.8 14388 1380.7 5353.1 166.8 12970 530.01 16927 807.14 3956.7 277.14 9098.2 622.24 11426 766.88 5098.9 316.89 8299.7 580.25 23698 1949.8 6516.8 579.62 15086 1264.6 19043 1522.1 8291.6 539.71 6819.7 1148.9 15409-6377.5 4999.6-4380.7 8000.4-8649 6884.3-9792.2-675.8-692.28-14160-176.81-27015 1032.8-8783.7 826.45-9559.1 824.63-12260-28.503-1794.5-566.76-2994.6-700.02-3177.4-352.82-496.39 942.77-1700.1 620.14-2323.2-622.7-928.86-1852.8-2542.8-2570.1-5782.8-2570.1-2399.4 0-2892.6-170.82-2476.2-857.79 286.34-472.41-10.76-1065.6-661.32-1320.4-1606.4-629.1-1281.5-17108 596.08-30239 1026.1-7175.7 1230.2-12138 797.34-19383-319.97-5355.9-318.34-10850 3.4-12209 506.91-2140.1 958.29-2569.8 3369-3207.5 1531-404.99 5373.5-911.93 8538.9-1126.5 3385.6-229.54 7302.6-911.1 9513.6-1655.4 3788.5-1275.3 9754.5-1698.2 10674-756.55 298.87 306.17 5624.7 391.1 13380 213.36 12881-295.22 14162-227.53 41236 2179.7 14035 1247.8 14400 1265.2 41079 1948.5 25641 656.73 27802 864.32 30247 2906.8 1016.6 849.05 460.27 12076-717.46 14479-4166 8502.3-5721.1 14605-6211.9 24380-273.75 5451.9-369.77 11685-213.38 13851l284.36 3938.3 2254.7-366.05c3031.4-492.16 8831.6-346.22 9766.6 245.77 442.19 279.93-171.3 1478.3-1481.2 2893.4-1842.2 1990.1-3315.5 2745.5-8365.1 4289.2-9177.4 2805.5-14256 3232.8-38713 3257.2l-21582 21.588-269.44 1339.5c-148.19 736.74-1005.1 3301.4-1904.3 5699.3-1663 4434.9-2149.4 9046.1-1000.1 9479.8 349.12 131.76 12060 391.67 26025 577.59 24232 322.61 40191 731.86 45703 1172 1396.5 111.52 5014.6 335.44 8040.3 497.61 9814.3 526.03 13936 823.38 15447 1114.3 1692.9 326.03 3745.3 2356.1 2382.1 2356.1-467.7 0-812.05 783.64-765.26 1741.4 128.9 2637.8-2689.1 6295.8-4850.1 6295.8-976.33 0-1933.8-92.2-2127.8-204.89zm-103727-14907c286.3-676.67 525.75-2349 532.11-3716.2 6.75-1367.3 607.3-4474.2 1335.5-6904.4 728.15-2430.1 1013.8-4606.1 634.74-4835.5-579.92-350.95-9780.1-769.29-12552-570.74-473.25 33.917-873.61 1448-889.73 3142.6-31.65 3334.9-2316.1 7252.9-5456.1 9357.8-1004.6 673.48-2561.9 1870.3-3460.6 2659.5l-1633.9 1435 1918.6 202.16c1055.3 111.19 5773.4 260.19 10485 331.08 8298 124.89 8582.4 90.412 9086.6-1101.4zm-148009-8463.8c264.7-1031.4 670.34-11520 901.42-23308 231.07-11788 772.26-23603 1202.6-26255s596.93-15552 370.16-28666c-701-40538-590.04-46756 1018.2-57064 2987.3-19147 1916.1-52557-2155.6-67229l-1408.2-5074.1-2917-437.56c-2955.5-443.32-35911-627.13-37016-206.46-2628.1 999.68-56881 1280.2-75502 390.37-7447.6-355.9-9284.1-285.59-11341 434.2-4900.1 1714.4-5404 5689.1-2094.9 16523 471.21 1542.7 607.49 3060.3 302.86 3372.3s-160.94 867.11 319.32 1233.5c1226 935.19 1237 3371.2 95.38 20987-553.86 8546.2-1110.8 30849-1237.8 49563-126.92 18713-668.05 38967-1202.5 45008-1315.3 14867-1392.5 25708-217.67 30541 1049.9 4319.6 2709.8 24062 2319.9 27594-130.12 1178.8-535.84 4573.6-901.61 7543.9l-665.05 5400.6 27412 656.78c35671 854.64 36588 865.68 72018 865.68h30218zm100311-15740c10530-1040.7 25789-1174.9 43587-383.3 7913.3 351.93 18768 834.82 24121 1073.1 5353.1 238.26 16545 406.75 24870 374.44l15137-58.74 1059.8-2679.1c598.6-1513.2 1323.1-8508.4 1664.9-16074 566.46-12540 788.3-13909 3474.3-21433 3051.7-8548.5 3570.9-12003 1823.9-12137-2200.7-168.26-6650.3-291.55-23909-662.49-20753-446.02-35540-1182-44433-2211.6-3491.2-404.17-10133-1025.2-14761-1380.1-13432-1030.2-41234 75.614-47022 1870.2-2063.3 639.66-2105.4 768.24-1692.7 5177.1 705.98 7542.8 414.24 18106-679.82 24614-1603.4 9538.4-2511.8 23170-1620.3 24315 883.07 1134 3360.4 1079.4 18381-405.04z"/><path d="m262212-13262c-53.25-1855.2-3989.5-3884.6-7534.5-3884.6-2501.7 0-2189.8-539.08 1627.6-2813 5297.5-3155.6 11858-2640.4 11858 931.32 0 2699.5-3111.7 6704-5209.2 6704-393.35 0-727.28-421.95-742.09-937.68z"/><path d="m216537-12611c0-890.16-2385.4-3487.4-3789-4125.5-476.24-216.51-1913.2-397.35-3193.3-401.86-3944.5-13.906-2643-1411.1 2539-2725.7 2676.6-678.99 5056.9-1399.6 5289.6-1601.5 339.9-294.74 8285.3-1575 9774.6-1575 834.34 0 287.51 4143.2-810.44 6140.5-641.55 1167-2355.7 2794.6-3809.2 3616.7-2886.7 1632.9-6001.4 1981.8-6001.4 672.31z"/><path d="m183529-16379c-2748.1-648.08-2824.6-724.93-1057.9-1063.4 3398.9-651.23 1688.4-3978.9-2055.4-3998.8-2233-11.877-3665.4-724.13-2943.4-1463.6 819.67-839.64 7327.4-2278.8 10304-2278.8 1354.9 0 2558.6 357.23 2855.8 847.54 1444.7 2383.5-230.3 7380.8-2749.1 8201.9-838.52 273.36-2570 176.03-4354.3-244.76z"/><path d="m172104-33609c-3166.2-492.71-4002.9-1267.3-2502.6-2316.8 1143.6-799.98 1179-1119.3 232.94-2099.4-613.65-635.74-2138.7-1288.7-3389.1-1451-1250.3-162.3-2465.5-612.08-2700.3-999.51-855.93-1412.1 2715-2244.2 11610-2705.3 2867-148.61 7391.3-509.5 10054-801.98 6225.9-683.86 25978-692.77 35783-16.142 4189.4 289.09 17138 691.32 28776 893.84 26098 454.18 26907 595.53 24475 4279.1-1886.4 2858.2-3120 3456.1-8164.1 3956.9-5682 564.08-35417 289.79-51504-475.11-13008-618.52-22992-220.88-33625 1339.3-5521.9 810.19-6195.2 839.68-9045.7 396.11z"/><path d="m177605-69551-2962.2-878.39 2750.6-183.48c1754.1-117.01 2750.6-475.12 2750.6-988.48 0-1365.4-1678.4-2877.4-3203.6-2886-2247.9-12.7-3676.3-795.82-3121.4-1711.3 308.61-509.15 2037.7-957.94 4472-1160.7 14531-1210.3 15017-1122.2 14651 2650.7-302.54 3114.6-1919.9 4787.7-5362.8 5547.6-3516.2 776.02-6425.7 662.29-9974-389.9z"/><path d="m212305-73615c0-2387.3-2858.3-4278.7-5767.6-3816.4-1678.4 266.69-1934.3 132.47-1701-892.05 310-1361.2 4490.6-2185.2 8507.3-1676.7 1838 232.69 2422.4 677.57 2868.7 2183.8 749.41 2529-546.62 5689.1-2426.3 5916.2-1184.5 143.1-1481.1-200.29-1481.1-1714.8z"/><path d="m236849-71369-2962.2-1172.5 2991-329.75c3199.8-352.78 5053.4-906.12 5042.7-1505.4-8.32-465.79-4171.6-1709.8-5722.2-1709.8-711.95 0-1055.2-454.14-889.2-1176.3 227.6-989.94 1142.1-1280.1 5771.7-1831.7 3025.7-360.44 6834.2-1090.7 8463.4-1622.7 3093-1010.1 6996.3-1390.1 9521.4-926.91 2173.4 398.66 1982.9 4422.1-326.8 6900.4-3797.6 4074.9-15545 5885.9-21890 3374.6z"/><path d="m180883 13644c-5273.5-861.84-5663.9-1063.2-6313.9-3256.9-407.98-1376.8-1173.2-2050.2-2783.4-2449.6-5645.3-1400.1-6478.3-2294.3-2932.6-3147.7 1647.6-396.57 5276.9-418.31 11706-70.138 5130.8 277.87 11790 309.88 14819 71.237 10634-837.77 42764-2557 44856-2400.2 1163.7 87.22 9352.1 330.73 18196 541.14 8844.3 210.41 16414 583.54 16822 829.18 408.03 245.64 810.31 1453.3 893.97 2683.7 121.33 1784.3-323.43 2559.3-2197.7 3829.6l-2349.8 1592.5-18847-266.45c-14990-211.92-21706-61.9-32821 733.14-28453 2035.2-33565 2206.8-39049 1310.5z"/><path d="m243825 43409c-578.22-586.16-1051.3-1665.8-1051.3-2399.2 0-1057.7-776.87-1557.5-3757.2-2417-2066.5-595.98-3956.4-1287.7-4200-1537.1-684.78-701.47 464.32-4386.3 1269.6-4071.2 392.41 153.54 1779.7-69.888 3082.8-496.51 1303.1-426.62 4075.5-858.43 6160.8-959.57l3791.6-183.9 191.76 3750.7c192.96 3774.4-1781.5 8848.1-3583.8 9208.8-469.13 93.899-1326-308.86-1904.3-895.03z"/><path d="m204443 36971c307.85-745.28 25.97-1071.6-925.57-1071.6-752.52 0-1368.2-273.12-1368.2-606.92 0-1011.5-3510.3-2608-5734.4-2608-1773.1 0-1928.3-123.36-1023.4-813.61 2076.8-1584.2 14381-4583.3 17015-4147.2 1587.6 262.84 1729.6 562.93 1270.5 2683.9-715.21 3303.5-2155.7 4977-5517 6409.5-3531 1504.8-4288 1536.2-3717 153.96z"/><path d="m183318 37612c-2521.2-191.47-3100.2-1023.1-1057.9-1519.3 698.23-169.63 1269.5-676.29 1269.5-1125.9 0-1073.5-3224.1-2818.5-5207.6-2818.5-2360.9 0-1878.4-1344.3 1040.8-2899.3 2086.8-1111.7 3497.6-1387.2 7103.4-1387.2 4964.3 0 5526.8 359.74 5526.8 3534.1 0 1886.4-2735.1 5097.1-5049.1 5927.1-714.18 256.18-2345.8 386.23-3625.9 289.01z"/><path d="m213151 67757c-698.24-84.635-5225.2-446.94-10060-805.11-4834.8-358.16-9785.9-980.04-11002-1381.9-1216.6-401.9-2783.3-739.88-3481.5-751.07-2219.7-35.567-4231.7-1396.3-4231.7-2861.9 0-808.87-817.99-1859.3-1904.3-2445.3-1047.4-565.05-2856.4-1536.9-4020.1-2159.6l-2115.8-1132.2 7193.9 224.92c3956.7 123.72 9859.8 614.88 13118 1091.5 7269 1063.3 46896 1238.6 56358 249.37 7969.1-833.2 10038-200.17 9665.6 2957.9-176.05 1494.4-1043.3 2788.5-2673.5 3989.2-2803.7 2065.1-1846.4 1973.6-26110 2494.9-9309.8 200.02-17498 435.54-18196 523.38-698.24 87.853-1840.8 90.477-2539 5.826z"/><path d="m391112 63407c-5627.2-1463.9-4106.8-5491.9 2518.3-6672.1 1980.2-352.78 4651.2-1316.5 5935.5-2141.6 3441.8-2211.1 7016.1-2675.4 24325-3160 9487.2-265.59 17992-796.74 21582-1347.8 3258.4-500.23 8590.4-907.46 11849-904.97 6159.6 4.702 17019 744.89 17534 1195.1 790.81 692.08 2303 3028.2 2422 3741.5 291.13 1746.2-159.12 2143.3-2430 2143.3-2080.1 0-2483.6 284.29-3365.2 2371-1044.8 2473.1-3687.1 3670.2-5528.3 2504.6-511.73-323.97-1499.9-589.03-2195.9-589.03-696.03 0-2320-639.57-3608.7-1421.3-2329.4-1412.9-2379.4-1417.5-8481-779.52-3375.8 352.95-11483 753.79-18015 890.78-26697 559.78-30359 918.89-34717 3404.9-2398.1 1367.8-4657.2 1588.9-7822.9 765.3z"/><path d="m444418 43534c-1108.1-1795.7-195.19-17530 1059.1-18253 463.21-267.27 2442.6-731.82 4398.7-1032.3 5618.8-863.2 6520.9 141.58 6899.1 7684.5 168.41 3358.7 8.99 6529.2-354.24 7045.6-363.25 516.38-766.86 1518.4-896.9 2226.7-467.73 2547.3-988.09 2842.4-2889.8 1638.4-2177.9-1378.8-4531.7-1172.8-4892.5 428.12-320.93 1424.1-2500.4 1596.2-3323.5 262.43z"/><path d="m415136 40069c-1545-1559-2005.4-3353.2-3093.3-12056-1279.4-10235 417.8-13534 7477.6-14539 5044.6-717.57 6429.3 409.23 5621.5 4574.3-1095.4 5647.7-644.27 15025 811.62 16873 1385.8 1758.6 1674.1 3524.5 808.6 4952.4-650.89 1073.9-2771.1 1101.1-3411.9 43.823-267.94-442.05-985.96-803.72-1595.6-803.72s-1268.7-301.39-1464.5-669.77c-275.61-518.42-682.75-499.02-1801.7 85.847-795.11 415.59-1254.5 1070.9-1020.9 1456.3 767.68 1266.5-1092.7 1332.2-2331.4 82.342z"/></g></g></g><animate attributeName="display" values="inline;none;none" keyTimes="0;0.5;1" dur="0.5s" begin="0s" repeatCount="indefinite" /></g><g transform="matrix(.077283 0 0 .088476 3.8706 41.761)"><g transform="matrix(.075402 0 0 .094631 650.5 76.675)"><g transform="matrix(.14305 0 0 .15756 -4238.5 -2889.6)"><g transform="matrix(.14521 0 0 .16472 -51657 4266.3)"><path d="m275497-48198c0-1405.9 377.66-1981.1 839.25-1278.1 461.56 702.96 461.56 1853.3 0 2556.2-461.59 702.96-839.25 127.81-839.25-1278.1z"/><path d="m543325 105537c-110.09-67.65-5887.6-459.06-12839-869.79-6951.3-410.73-13830-918.45-15286-1128.3-7022.9-1012.1-11003-1635.6-19412-3041-5014.9-838.11-10442-1708.8-12059-1935-2839-396.84-20118-1699.9-27554-2077.9-6565.4-333.76-30634-464.29-33151-179.78-1357.1 153.38-2680.6 154.04-2941.3 1.527-260.62-152.58-3782.8-373.85-7827.1-491.69-4044.2-117.86-14898-533.39-24118-923.41-9220.9-390.01-19677-806.7-23236-925.96-3559-119.29-8191.5-387.99-10294-597.15-2103-209.16-4485.4-427.47-5294.3-485.15-4306.8-307.09-10441-880.37-11196-1046.4-1440.6-316.7-15296-1207-19688-1265.1-2264.8-29.968-8750.3-195.19-14412-367.17-6487.1-197.05-10512-184.64-10883 33.59-324.71 191.13-588.22 2189.7-588.22 4461 0 4423.2-227.86 4783.2-3764 5946.2-1617 531.83-1764.2 458.46-2044.2-1019.2-120.8-637.57-366.55-1249.5-546.1-1359.9-493.92-303.52-3940.1 238.67-3940.1 619.89 0 600.98-1678.5 347.52-1985.8-299.85-475.43-1001.7-640.46-3139.1-272.54-3529.8 775.75-823.9 508.84-4417.3-361.12-4860.9-679.21-346.42-3391.5-378.46-11924-140.91-13692 381.19-35418 395.01-46341 29.511-4529.5-151.59-11147-363.66-14706-471.28-3558.9-107.6-6867.9-262.34-7353.2-343.83-4783.8-803.29-57509-760.37-65002 52.897-6039 655.48-14095 1221-17394 1221-3661.2 0-5160-924.15-4085.2-2518.8 404.54-600.17 600.43-1408.6 435.35-1796.6-337.53-793.22 240.15-907.33 6631.6-1310 2103-132.5 4088.4-339.83 4411.9-460.74 769.07-287.39 492.32-260.28 10076-987.38 1804.6-136.91 3164.2-82.785 3382.9 134.66 240.88 239.52 877.26 221.03 1865.2-54.188 1210.8-337.31 141.94-1954.8-150.67-2684.5-2597.8-6478.9-1661.3-8223.1-1389.1-22315 66.76-3456.2-284.03-5356.5-1568.1-8495.3-800.3-1956.2-939.49-4166.3-830.94-13195 79.53-6613.8 444.86-12325 936.44-14639 443.3-2086.4 696.24-3902.6 562.11-4036-134.12-133.38 88.64-325.37 495.07-426.62 478.5-119.2 531.63-289.39 150.74-482.75-880.13-446.82-1122.7-9445.7-271.61-10076 488.01-361.35 575.72-1645.2 300.87-4404-213.36-2141.7-496.19-9912.9-628.51-17270-252.2-14020-421.16-16876-1400.9-23678-783.11-5437-1721.5-14204-2137.8-19973 595.02-3922.9 473.54-6683.7 82.83-10393-297.75-2873.9-1309.6-7905.3-2690-13376-326.11-1292.4-995.72-5521.9-1488-9399.1-974.94-7678.1-2219.7-13289-3558.1-16038-470.91-967.25-856.19-2066.7-856.19-2443.2 0-569.86 178.23-616.16 1063.6-276.34 23405 26713 10640 45895 14872 70633 256.41 1391.8 615.11 10014 797.1 19160 370.42 18615 754.16 24476 1624.1 24808 361.84 137.95 377.07 307.83 39.07 436.2-304.5 115.64-585.11 1234-623.61 2485.3-38.49 1251.3 72.62 2070.7 246.91 1820.9 174.32-249.77 492.89-387.3 707.95-305.62-228.28 11399-2746.8 22781-2347.9 34199 79.46 1690 664.55 5542.7 1300.1 8561.5 758.01 3600.2 1169.2 7767 1195 12110 363.2 6017.8-1741.2 15040 201.66 19300 12278-133.12 25486-1014.3 38253-785.02 25895 1569 47998 1582.6 78263 819.85 5823.7-162.96 12802-345.06 15507-404.68l4918.1-108.41 219.88-2123.6c120.9-1167.9 514.77-4645 875.24-7726.8 959.72-8205.1 44.52-31089-1243.4-31089-257.56 0-279.18-434.51-48.07-965.56 231.12-531.05 223.7-1873.1-16.55-2982.4-1165.3-5382.1-1613.5-8917.9-1672.6-13195-35.47-2569.1-169.13-4775.1-297-4902.2-462.59-459.98-1208.8-14086-1772.3-32361-165.53-5368.3-421.83-10411-569.6-11207-664.9-3578.7-958.66-22529-352.79-22759 760.99-289.03 829.82-2177.7 110.1-3021.7-285.55-334.89-693.53-7359.9-906.63-15611-404.99-15681-448.17-16558-1218.3-24763-645.56-6877.1-555.41-17265 208.6-24040 347.58-3081.8 706.86-7962.1 798.43-10845l166.47-5241.8-3823.6 127.17c-2103 69.95-3973.8 183.18-4157.3 251.62-183.49 68.44-1507.1-125.15-2941.2-430.21-2997.6-637.57-6699.1-556.27-20255 444.87-10671 788.06-35719 889.6-53237 215.82-24811-2118-41224 2546.9-61392 474.24-379.05-607.05-3933.8-612.6-5434.1-8.47-1821.4 733.43-3709.6 699.08-4193.7-76.3-215.7-345.41-1162.9-1060.6-2104.9-1589.3-1688.4-932.13-1736.5-1192.9 641.23-1513.8 1094.4-147.73 2395.1-524.67 3415.2-1209.1 1715.9-1151.2 2170.8-1252 7067.8-1565 5341.5-341.42 34607-1170.1 45235-1280.9 7483.9-77.99 16839 406.26 17333 897.21 539.65 536.58 26604 1020.9 36564 679.37 4475.3-153.46 9797.5-458.62 11827-678.14 2029.6-219.52 5013.8-479.94 6631.5-578.71 4082.5-249.27 5033.7-481.47 3529.5-861.55-1174.6-296.81 4074.3-555.17 9412.1-463.28 10718 184.5 13421 140.04 16492-271.29 1929.6-258.43 3773.1-420.25 4096.7-359.63 323.52 60.65 1596.6 91.44 2829 68.43 2219.9-41.43 5594.2 767.85 6427 1541.5 632.83 587.83 517.58 3409.5-215.75 5281.7-350.45 894.73-640.33 2971.6-644.17 4615.4-4.06 1820.6-266.93 3092.2-672.01 3253.5-365.77 145.71-705.73 752.94-755.5 1349.4-356.66 4274.9-922.47 8797.9-1447.1 11568-827.77 4370.9-745.34 13497 127.74 14144 498.43 369.06 499.55 497.22 4.05 497.22-469.51 0-571.28 883.3-343.65 2982.4 177.91 1640.3 415.48 4181.4 527.96 5646.8 112.47 1465.4 466.2 2766.9 786.07 2892 371.92 145.54 611.57 8568.2 664.77 23364 45.78 12725 208.05 25332 360.62 28016 416.1 7319.3 816.72 16449 1181.8 26932 690.73 19834 1717.4 32042 3815.1 45369 1859.9 11816 2745 30366 1630 34162-233.63 795.3-603.15 3194.8-821.11 5332.2-372.68 3654.3-329.61 3888.5 721.57 3925.8 614.86 21.795 1912 80.455 2882.7 130.36 970.61 49.904 6397.3 206.97 12059 349.05 5662 142.06 12015 403.77 14118 581.58 6211.5 525.15 15174 1338.2 21471 1947.8 3235.4 313.2 12103 831.13 19707 1150.9 7603.2 319.82 14618 637.15 15589 705.18 5377.4 376.87 35013 1315.5 35786 1133.3 502.9-118.6 1235.8-874.92 1628.7-1680.7 392.86-805.82 1073.6-1465.1 1512.9-1465.1 510.73 0 753.75-361.72 674.19-1003.5-72.34-583.56 449.24-1480.3 1246.4-2142.9 768.42-638.71 1214.9-1389.2 1015.9-1707.8-194.94-312.61-67.36-568.36 283.77-568.36 351.11 0 499.79-325.74 330.37-723.86-186.47-438.16 54.52-848.53 610.54-1039.8 552.62-190.06 769.09-555.2 543.45-916.59-228.05-365.2-33.08-681.35 497.37-806.44 479.87-113.16 872.49-432.35 872.49-709.32 0-276.95 293.03-503.58 651.19-503.58 366.61 0 486.42-263.82 274.19-603.72-943.83-1511.5 3012.3-1571.4 7163.1-108.58 4193.1 1477.8 4149.7 1796.7-1348.7 9930.6-403.2 596.49-910.38 1601.9-1127.1 2234.3-540.16 1576.5 397.09 1814.1 8069.4 2045.7 5898.4 178.01 6361.2 142.28 6952.4-536.49 348.29-399.94 489.79-956.95 314.43-1237.8-1187.8-1902.2-2012.1-11769-1194.6-14298 409.07-1265.4-274.73-1343.4-8871.7-1012.2-10019 385.99-30368 771.9-39707 753.05-10926-22.047-18171-373.39-24413-1183.8-4223.4-548.38-5512.5-869.76-6372.8-1588.8-593.19-495.75-1437.9-901.38-1877.1-901.38-1192.7 0-1687.4-711.48-1542.7-2218.7 71.28-742.45-292.01-2458.4-807.37-3813.3-1196.9-3146.8-2509.6-7450.1-2874.9-9424.7-156.58-846.37-487.74-1740.8-735.91-1987.6-248.2-246.8-502.93-1066.3-566.05-1821.1-63.16-754.82-260.9-2463.2-439.45-3796.5-178.55-1333.2-476.3-3888.2-661.67-5677.6-185.39-1789.4-470.51-4310.9-633.63-5603.3-163.11-1292.4-505.83-9588.9-761.55-18437-255.72-8847.8-650.05-16337-876.25-16643-267.89-362.39 265.83-1024.1 1530.8-1897.9 1068.2-737.83 2121.9-1341.5 2341.7-1341.5s574.75 573.77 788.82 1275.1c224.81 736.41 894.1 1441.1 1584.3 1668.1 1102.3 362.54 1167.9 309.79 845.77-680.08-665.36-2044.4 2825.4-2723.7 4198.8-817.05 915.07 1270.4 2394.6 1396 3956 335.67 1008.8-685.01 1530.5-729.28 6120.8-519.37 2759.9 126.21 6341.6 375.02 7959.3 552.92 3311 364.12 10568 1013.3 14118 1263 1294.2 91.007 7912 416.28 14706 722.83 6794.4 306.55 12750 628.81 13236 716.13 485.29 87.32 6044.3 415.6 12353 729.52 6309 313.92 11868 637.11 12353 718.21 485.31 81.103 5117.8 239.7 10294 352.43 12975 282.56 26899 862.72 31472 1311.3 13396 1314 27101 4062.2 28898 5794.7 1224.8 1180.9 3424.4 4626.8 3783.4 5927.1 163.2 590.98 674.78 1671 1136.8 2399.9 1323.2 2087.6 4309.4 13650 4661.3 18049 88.95 1112 351.7 2210.7 583.89 2441.6 776.16 771.78 410.22 14194-489.4 17950-476.23 1988.3-1033.6 4835.1-1238.6 6326.3-485.51 3531.8-1189.9 4872.7-2792.3 5315.7-837.71 231.57-3839.6 252.4-8365.6 58.061-8325.2-357.49-15113-173-29119 791.41-5662 389.86-14530 960.59-19707 1268.3-9820.2 583.68-10883 820.89-10883 2429.6 0 377.99-517.56 1091.6-1150.1 1585.8-1243.5 971.46-1239.4 2134.1 31.21 8795.3 1090.3 5717.3 1076 5685.6 2779.4 6116.3 866.3 219.05 6018.9 799.92 11450 1290.8 10121 914.72 22033 2424.7 25708 3258.8 3556.3 807.19 15994 2492.9 22360 3030.5 8782.9 741.71 18723 1219.1 20305 975.2 2061.3-317.93 7522.7 1312.4 9176 2739.3 1153.1 995.17 1152.8 1001-116.76 2547.9-699.88 852.79-1336.4 1596.2-1414.4 1652.1-272.84 195.17-3744.5 735.05-3942.8 613.15zm-61067-43239c2103-208.62 5014.9-444.19 6470.8-523.5 1455.9-79.305 3573.6-251.19 4706-381.97 1132.4-130.77 6395.7-272.58 11696-315.13 8421.3-67.604 9708.8-155.82 10204-699.12 311.41-341.96 958.19-2845.2 1437.3-5562.9 1422.3-8067.9 408.11-19660-2512.3-28716-498-1544.2-1030.9-3252.3-1184.1-3795.8-153.26-543.48-995.27-2354.5-1871.1-4024.5-1351-2575.9-1904.7-3161.5-3651.4-3861.7-3409.1-1366.6-10481-2574.8-18824-3215.9-1455.9-111.89-3573.6-277.14-4706-367.21-1132.4-90.083-4706-253.87-7941.4-363.98-3235.4-110.1-7867.9-274.88-10294-366.18-2426.6-91.297-8117.9-257.89-12648-370.21-4529.6-112.32-9691.5-346.7-11471-520.85-1779.5-174.15-5088.4-416.08-7353.2-537.63-2264.8-121.55-5970.8-369.66-8235.6-551.34-2264.8-181.69-5838.4-431.47-7941.4-555.06-2103-123.59-4617.8-276.36-5588.4-339.49-970.64-63.124-3617.8-213-5882.6-333.05-2264.8-120.05-5441.4-307.8-7059.1-417.21-1617.7-109.41-4000.1-261.58-5294.3-338.15-1294.2-76.574-4597-310.3-7339.6-519.39-2742.6-209.09-6316.2-286.97-7941.4-173.07-2393.8 167.76-3558 33.944-6130.7-704.68-1746.7-501.47-3386.8-1121.6-3644.6-1378-257.88-256.42-613.12-377.57-789.41-269.23-409.36 251.55-424.21 23663-17.78 27979 895.86 9513.6 1960.8 17126 2705.5 19340 300.93 894.72 695.21 2196.1 876.15 2892 180.95 695.89 1078.3 2973.4 1994.2 5061 915.91 2087.7 1835.4 4313.2 2043.3 4945.7 207.93 632.44 734.01 1331.5 1169.1 1553.4 484.3 247 5146.2 488.92 12021 623.8 33650 584.1 53741 488.43 92998-3194.4z"/><path d="m170156 44667c6062.8-512.48 12146-765.56 18209-1274.7 4254.3-478.07 8562.7-185.54 12838-160.63 2852 542.94 14580-108.28 13582 583.92 1751.8-1413.5 8672.8-1196.5 6550.8-883.01 5908.9-101.73 11843-151.33 17722-708.81 2129 1003.1 4595.3 427.94 6874.2 741.46 2942.5-343.47 5309.6 2043.3 4627.2 1576.5 2370.3 444.53-2788.8 2998.8-2013 2508-2995.5 1281.2-6358.3 1258.2-9542.6 1733.6-10371 1223.4-20835 846.14-31254 916.12-2112.7 368.53-7529.8-789.58-5487.3-836.98-13254 1026.3-18395-490.62-23821 1261.3-5931.5 3575.4-9355.1-7586.9-8285.3-5456.7z"/><path d="m166080-5011.5c4945.1 21.027 6576-142.95 9827.5 238.98-73.47 1414.4 13803-328.4 12064-348.49 19470-1798 32862-612.13 52392-1030.8 117.99-149.93 4261.5-4103.9 4707.6-1514.1 2221.3-21.726 8171.4-3615.3 7007.9-1419 2832-707.91 11658-203.5 8716.1 221.05 1220.4-11.23 2882.4 3505.2 3573.6 1671.5-1680-652.21-4208.3 2062.3-2016.2 2164.6-2991.2 1414.1-6167.1 2385.8-9429.2 2905.1-9192.8 2469.8-18820 1918.2-28245 2208.5-14835 464.73-70925 340.41-58599-5097.3z"/><path d="m423597 41371c-1563-307.76-4902.9-3075.7-3397.7-2625.6-823.25-378.27-1685.8-662.64-2528.2-995.07-426.97-5309.4-1132.7-10699-4.29-15973 383.83-1971.1 1213.7-4027.1 3051.7-5063.2 1736.8-1149.2 3927.4-1504.2 5939.5-978.52 1889.3 224.1 4049.6 454.46 5334.5 2042.3 678.4 1143.9 1078.6 2632.9 637.17 3927.1-967.41 752.01-1314.8 4374.6-1096.8 3257.9-543.52 4018.6-563.62 8088-1093 12106-30.07 1150.4-3312.6 1463-2025.7 1894.2-1179.8 820.16-479.83 1732-45.31 1669.4-1208.8 870.25-2813.1 1334-4278.3 855.54-164.95-37.418-329.39-77.046-493.59-117.63z"/><path d="m448795 34905c-1122-350.7-737.34-2730.9-401.63-2086.9-994.35-497.88-3678.3 665.59-2735.8 600.22-1235.6 167.74 156.53-2337.5-114.83-1784.6 382.83-645.24 61.35-2666.7 273.9-2061.5 1031.7-1443.2 2578.6-2394.3 3844.2-3614.1 1149.5-1007.8 2191-2127.1 3246.3-3229.4 614.6-668.09 1561.6-823.48 2423.8-684.04 2617.3 258.04 5264.8 678.85 7695.5 1722.3 742.04 284.8 1565.5 2507 1469.3 1680.9 208.22 964.98 673.6 1962.3 432.94 2960.8-455.29 1047.7-1510.9 1650.2-2318.7 2402.8-1105.7 964.4-2343.5 1808.6-3773.6 2203.5-1227.5 410.3-2504.8 735.04-3616.6 1413.6-1723.2 632.74-3602.4 813.79-5426.6 687.16-338.26-36.392-678.74-89.593-998.17-210.78z"/><path d="m461419 61242c-1827.4-1111.5-4335.5-332.5-5913.1-2003.6-96.03-3976-2728.9-6153.9-2170.9-5653.5-4365.2-1772.1-9029.9-3088.5-13784-2942.8-8968.3-196.27-18035 312.35-26715 2732.8-4480.4 1132.4-8778.1 2855.1-13161 4285.9-2111.7 410.55-6849-2412-4858.4-2441.9 308.8-1232-1184.7-4143.2-453.65-3253.1 1418.2-2021.8 3913.5-2920.3 6066.4-3975.2 7834.7-3285.5 16391-4344 24802-4930.4 8946.4-492.44 18029-205.92 26745 2038.2 5081.3 975.63 9706.5 3491.5 14023 6250.3 2371.6 1318 2836 4715.6 1147.6 6764.3-1819.2 3171-6642.2 3321.1-5353.8 3356.2z"/><path d="m235485-26580c-2203.9-823.18-8864.9-2875-6632.2-2475.2-855.76-2174.3-1719.2-257.52-1705.1-2686.3-275.86-3487.6 5735.9-4466.6 3202.2-3947.6 7639.3 1145.2 8924 1560.6 13488 3501.5-2000.2 1148.5-299.05 1894.8-264.24 2867.3-1121.4 176.5 580.12 2493.9-1699.7 2528.9-2062.2 555.69-4296 693.57-6388.8 211.56z"/><path d="m190812-24121c3372.1-6936.2-3859.7-286.25-3452.4-2706.8-1887.2 1455.8 890.97-4289.5-982.48-3370.8 1075.4-1854.8 6953.4-1448.2 4765-2184.9 2791.5 239.58 1926.4-469.5 2758.2 1100.4 1717.9-1406.4 5962 4001.7 5272.5 2060.2 867.17 3101-6381.4 3946.4-4686.8 3104.3-2882.7 2473.3 2768.7 1523.2-2413.4 2633.9-426.95-11.049-1897.2 282.12-1260.6-636.36z"/><path d="m162557-34769c1726-413.88 6810-1246.1 5264.9-1033.7 714.62 1252.4 2995.9-199.18 3287 341.5 4992.7 752.58-4252.2 11265-3606.1 8406.8-9370.8 1588.4-1542.3-7900.7-4945.8-7714.6z"/><path d="m177016 19037c153.27-4768.9 288.59-6184.5 1410.6-7706.9 1211-782.17 5646 936.65 4301 634.97 1297.8 84.818 240.55 3723 1873.1 2842.8-974.86-43.399-2813.3 993.57-1532.5 1462.3-1432.4 465.67-2842 1318.8-3723.6 2554.8-46.47 1287-1790.4 898.35-2328.6 212.1z"/><path d="m210484 20268c-1110.7-942.98-5706.6-959.14-4325-536.71-837.67-906.78-4823.4-1090.1-3533-1133.2-6638.2 522.09-1678.2-1908-1033.4-2761.7 2906.4-113.16 5899.9 149.02 8641.9 1166.1 1190.5 424.9-467.84 3746.1 335.8 3621.9l-63.19-160.45zm-1764.8-1664.4c-808.08-1128.5 1206.7-90.5-76.21 255.31z"/><path d="m225332 20024c-1646.6-1206.2-3916-1124.2-5445-2515.4-1490.5-3038.2 2135.8-5150.3 1694.5-4830.8 1242-605.55 3737 1533.3 3001.4 785.35 2313.7 284.56 4780.6-412.61 6997.4 472.71 904.93 599.25 2979 1794.6 1171 2148.4 1016.5-244.73-927.63 1415 1250.9 1545.4-1639-698.46-5455.1 2846.9-4489.7 1216.2-839.72 1475.6 3632.4 1079.1 1033.7 1647.2-1707.7 330.95-3673.9 483.88-5214.2-469.07z"/><path d="m231367-48086c-23648 2646.2-92426-10587-68629-12780 7861.8-3135.3 10043 769.97 14416 776.94 11095 1329.4 22171 2834.9 33278 4065.9 9876.2 785.21 19730 2067.2 29647 2189.7 2553.7-694.36 10191 1165.9 7634.9 329.13 2861.4 495.41 5792.1 239.72 8656.1 605.7-346.39 1191.9-2246.2 5359.8 364.74 4162-2408.3 1344.6-5328.9 849.8-7982.3 1074-5797.3 87.042-11598-68.786-17385-423.03z"/><path d="m162342-77840c-3405-676.54-1203.3-6645.1 713.97-4987.7-1025.6-497.15-3417.2-2023.2-3898.1-798.46 3342.2-1594.5 7187.9-1202.2 10786-1141.2 2189.2-132.02 2284.2 6918.2 4388.6 3968-1526.1 1755-8391.6 2851.6-6314.7 2176.3-1875.7 338.27-3763.5 761.47-5675.9 782.98zm7866.9-2107.2c1655-200.26-1966.8-1002.2-108.61-1537.1-2002.8-522.6 2195.8 683.8-804.97 1862.9 308.51-96.949 613.5-205.25 913.58-325.84z"/><path d="m199316-88507-4319.6-482.06s-3656.8-0.286-3078.9-136.12c-598.92 334.66-4057.7-2836.6-3293.4-1045.9 351.33-837.99 1156.1-2179.3 1687-2027.3 1705.8-344.22 1273.2-2152 2012.3-1850.8 2938.2-404.98 6112.4-594.94 8928.9 503.11 2098.6 544.33-1311.5 1936.4 1682.9 2492.1 1016 3229.1 2186.2 3623.8-3619.2 2547z"/><path d="m230314-89847c55.05-1824.2-2045.3-2691.6-1889.5-904.37-3022.3-676.66-210.13-5744.1-341.55-5141.3 2212-823.25 4695.3-290.64 6995.4-101.06 1728.3 495.87 5417.9 4842.4 5191.9 2468.9-129.66 1556.8-4052.1 85.138-2825.8 2253.6-1617.8-740.64-4581 3845-4782.9 1654.7 47.63 560.17 7337.7-252.63 276.05 430.04-613.95-211.32-2990 584.63-2623.6-660.4zm1079.5-2547.6c5360.6-1890.7-8508.6-1449.1-1022.2-1400.2-2086.7-52.897 2332 487.42-146.69 2078.9 402.44-203.32 789.33-435.92 1168.9-678.77z"/></g></g></g><animate attributeName="display" values="none;inline;none" keyTimes="0;0.5;1" dur="0.5s" begin="0s" repeatCount="indefinite" /></g></svg>
