<svg version="1.1" viewBox="0 0 55 55" xmlns="http://www.w3.org/2000/svg"><g transform="matrix(.077283 0 0 .088476 3.8706 41.761)"><g transform="matrix(.075402 0 0 .094631 650.5 76.675)"><g transform="matrix(.14305 0 0 .15756 -4238.5 -2889.6)"><g transform="matrix(.14521 0 0 .16472 -51657 4266.3)"><path d="m541462 105350c-193.95-112.69-3018.6-354.5-6277-537.36-3258.4-182.85-7067-436.19-8463.4-563-4147-376.53-32214-1301.4-43164-1422.4-5585.9-61.69-12632-161.43-15657-221.62-3025.7-60.21-15178-167.08-27005-237.5-11827-70.41-26871-338.49-33431-595.73-12377-485.38-32675-1820.7-35624-2343.6-930.98-165.04-5120.4-533.66-9309.8-819.09-4189.4-285.45-10664-752.38-14388-1037.6-3723.9-285.23-10362-667.69-14751-849.9-4389-182.21-8203.3-418.69-8476.3-525.5-273.01-106.83-7155.2-358.41-15294-559.09-8138.5-200.68-15178-519.56-15644-708.66-465.97-189.09-21033-377.51-45703-418.69-24671-41.212-54092-261.18-65380-488.86l-20524-413.95v1375.5c0 1925.3-822.96 3070.5-2206.4 3070.5-648.43 0-1179 213.01-1179 473.35s-972.2 591.01-2160.4 734.81c-1815.7 219.74-2389.7-42.004-3597-1640.3-1710.1-2264-3485.2-2793.3-4130.2-1231.8-624.75 1512.5-1961.2 1438.2-1961.2-109.03 0-2442.5-1954.5-3313.2-7552.8-3364.7-2833.1-26.094-5403-206.92-5710.9-401.87-307.93-194.94-2686.3-365.08-5285.3-378.08-2599-13.022-6578.2-332.8-8842.6-710.65-6251.3-1043.1-9481.1-4385.8-5530.9-5724.2 1532.9-519.38 1702.7-918.13 1233.9-2897.4-457.16-1930-302.33-2333.6 973.1-2536.9 834.22-132.98 6982 93.449 13662 503.14 6679.8 409.69 12266 668.32 12414 574.72 147.83-93.597 730.45-3183.9 1294.7-6867.3 1062.4-6934.9 610.31-21424-939.32-30108-1681.3-9422-1764.4-16311-406.09-33653 984.35-12568 1368.5-26384 1281.3-46080-68.54-15472 282.41-32350 779.89-37507 106.6-20403-1447.8-25760-723.28-35096-2274.6-10672-2211.8-12978 469.38-17221 1408.3-2228.6 2004.3-3953.1 1663.4-4812.8-394.9-996.1-54.18-1584.4 1328-2293 1675.7-859.05 1772.3-1169.8 978.53-3149.5-648.53-1617.6-622.55-2259.1 98.57-2434.3 880.74-213.96 4372.4-60.6 21243 933.06 15099 889.3 58410 946.17 79643 104.57 15900-630.23 23846-731.57 28352-361.61 3443.6 282.72 8927.2 630.47 12186 772.78 9614.2-343.31 11305 6015.3 15135 9934.4 1677.2 1211.9 2891.3 5753.5 4881.2 18260 2247.5 14125 2319.6 39637 149.14 52778-1558 9432.6-1680.2 15091-1261 58404 184.37 19052-43.51 31351-644.53 34792-511.36 2927.3-906.73 11161-878.59 18296 215.68 19159-1824 23466-877.92 28048 0 711.16 3414.3 1038.8 14388 1380.7 5353.1 166.8 12970 530.01 16927 807.14 3956.7 277.14 9098.2 622.24 11426 766.88 5098.9 316.89 8299.7 580.25 23698 1949.8 6516.8 579.62 15086 1264.6 19043 1522.1 8291.6 539.71 6819.7 1148.9 15409-6377.5 4999.6-4380.7 8000.4-8649 6884.3-9792.2-675.8-692.28-14160-176.81-27015 1032.8-8783.7 826.45-9559.1 824.63-12260-28.503-1794.5-566.76-2994.6-700.02-3177.4-352.82-496.39 942.77-1700.1 620.14-2323.2-622.7-928.86-1852.8-2542.8-2570.1-5782.8-2570.1-2399.4 0-2892.6-170.82-2476.2-857.79 286.34-472.41-10.76-1065.6-661.32-1320.4-1606.4-629.1-1281.5-17108 596.08-30239 1026.1-7175.7 1230.2-12138 797.34-19383-319.97-5355.9-318.34-10850 3.4-12209 506.91-2140.1 958.29-2569.8 3369-3207.5 1531-404.99 5373.5-911.93 8538.9-1126.5 3385.6-229.54 7302.6-911.1 9513.6-1655.4 3788.5-1275.3 9754.5-1698.2 10674-756.55 298.87 306.17 5624.7 391.1 13380 213.36 12881-295.22 14162-227.53 41236 2179.7 14035 1247.8 14400 1265.2 41079 1948.5 25641 656.73 27802 864.32 30247 2906.8 1016.6 849.05 460.27 12076-717.46 14479-4166 8502.3-5721.1 14605-6211.9 24380-273.75 5451.9-369.77 11685-213.38 13851l284.36 3938.3 2254.7-366.05c3031.4-492.16 8831.6-346.22 9766.6 245.77 442.19 279.93-171.3 1478.3-1481.2 2893.4-1842.2 1990.1-3315.5 2745.5-8365.1 4289.2-9177.4 2805.5-14256 3232.8-38713 3257.2l-21582 21.588-269.44 1339.5c-148.19 736.74-1005.1 3301.4-1904.3 5699.3-1663 4434.9-2149.4 9046.1-1000.1 9479.8 349.12 131.76 12060 391.67 26025 577.59 24232 322.61 40191 731.86 45703 1172 1396.5 111.52 5014.6 335.44 8040.3 497.61 9814.3 526.03 13936 823.38 15447 1114.3 1692.9 326.03 3745.3 2356.1 2382.1 2356.1-467.7 0-812.05 783.64-765.26 1741.4 128.9 2637.8-2689.1 6295.8-4850.1 6295.8-976.33 0-1933.8-92.2-2127.8-204.89zm-103727-14907c286.3-676.67 525.75-2349 532.11-3716.2 6.75-1367.3 607.3-4474.2 1335.5-6904.4 728.15-2430.1 1013.8-4606.1 634.74-4835.5-579.92-350.95-9780.1-769.29-12552-570.74-473.25 33.917-873.61 1448-889.73 3142.6-31.65 3334.9-2316.1 7252.9-5456.1 9357.8-1004.6 673.48-2561.9 1870.3-3460.6 2659.5l-1633.9 1435 1918.6 202.16c1055.3 111.19 5773.4 260.19 10485 331.08 8298 124.89 8582.4 90.412 9086.6-1101.4zm-148009-8463.8c264.7-1031.4 670.34-11520 901.42-23308 231.07-11788 772.26-23603 1202.6-26255s596.93-15552 370.16-28666c-701-40538-590.04-46756 1018.2-57064 2987.3-19147 1916.1-52557-2155.6-67229l-1408.2-5074.1-2917-437.56c-2955.5-443.32-35911-627.13-37016-206.46-2628.1 999.68-56881 1280.2-75502 390.37-7447.6-355.9-9284.1-285.59-11341 434.2-4900.1 1714.4-5404 5689.1-2094.9 16523 471.21 1542.7 607.49 3060.3 302.86 3372.3s-160.94 867.11 319.32 1233.5c1226 935.19 1237 3371.2 95.38 20987-553.86 8546.2-1110.8 30849-1237.8 49563-126.92 18713-668.05 38967-1202.5 45008-1315.3 14867-1392.5 25708-217.67 30541 1049.9 4319.6 2709.8 24062 2319.9 27594-130.12 1178.8-535.84 4573.6-901.61 7543.9l-665.05 5400.6 27412 656.78c35671 854.64 36588 865.68 72018 865.68h30218zm100311-15740c10530-1040.7 25789-1174.9 43587-383.3 7913.3 351.93 18768 834.82 24121 1073.1 5353.1 238.26 16545 406.75 24870 374.44l15137-58.74 1059.8-2679.1c598.6-1513.2 1323.1-8508.4 1664.9-16074 566.46-12540 788.3-13909 3474.3-21433 3051.7-8548.5 3570.9-12003 1823.9-12137-2200.7-168.26-6650.3-291.55-23909-662.49-20753-446.02-35540-1182-44433-2211.6-3491.2-404.17-10133-1025.2-14761-1380.1-13432-1030.2-41234 75.614-47022 1870.2-2063.3 639.66-2105.4 768.24-1692.7 5177.1 705.98 7542.8 414.24 18106-679.82 24614-1603.4 9538.4-2511.8 23170-1620.3 24315 883.07 1134 3360.4 1079.4 18381-405.04z"/><path d="m262212-13262c-53.25-1855.2-3989.5-3884.6-7534.5-3884.6-2501.7 0-2189.8-539.08 1627.6-2813 5297.5-3155.6 11858-2640.4 11858 931.32 0 2699.5-3111.7 6704-5209.2 6704-393.35 0-727.28-421.95-742.09-937.68z"/><path d="m216537-12611c0-890.16-2385.4-3487.4-3789-4125.5-476.24-216.51-1913.2-397.35-3193.3-401.86-3944.5-13.906-2643-1411.1 2539-2725.7 2676.6-678.99 5056.9-1399.6 5289.6-1601.5 339.9-294.74 8285.3-1575 9774.6-1575 834.34 0 287.51 4143.2-810.44 6140.5-641.55 1167-2355.7 2794.6-3809.2 3616.7-2886.7 1632.9-6001.4 1981.8-6001.4 672.31z"/><path d="m183529-16379c-2748.1-648.08-2824.6-724.93-1057.9-1063.4 3398.9-651.23 1688.4-3978.9-2055.4-3998.8-2233-11.877-3665.4-724.13-2943.4-1463.6 819.67-839.64 7327.4-2278.8 10304-2278.8 1354.9 0 2558.6 357.23 2855.8 847.54 1444.7 2383.5-230.3 7380.8-2749.1 8201.9-838.52 273.36-2570 176.03-4354.3-244.76z"/><path d="m172104-33609c-3166.2-492.71-4002.9-1267.3-2502.6-2316.8 1143.6-799.98 1179-1119.3 232.94-2099.4-613.65-635.74-2138.7-1288.7-3389.1-1451-1250.3-162.3-2465.5-612.08-2700.3-999.51-855.93-1412.1 2715-2244.2 11610-2705.3 2867-148.61 7391.3-509.5 10054-801.98 6225.9-683.86 25978-692.77 35783-16.142 4189.4 289.09 17138 691.32 28776 893.84 26098 454.18 26907 595.53 24475 4279.1-1886.4 2858.2-3120 3456.1-8164.1 3956.9-5682 564.08-35417 289.79-51504-475.11-13008-618.52-22992-220.88-33625 1339.3-5521.9 810.19-6195.2 839.68-9045.7 396.11z"/><path d="m177605-69551-2962.2-878.39 2750.6-183.48c1754.1-117.01 2750.6-475.12 2750.6-988.48 0-1365.4-1678.4-2877.4-3203.6-2886-2247.9-12.7-3676.3-795.82-3121.4-1711.3 308.61-509.15 2037.7-957.94 4472-1160.7 14531-1210.3 15017-1122.2 14651 2650.7-302.54 3114.6-1919.9 4787.7-5362.8 5547.6-3516.2 776.02-6425.7 662.29-9974-389.9z"/><path d="m212305-73615c0-2387.3-2858.3-4278.7-5767.6-3816.4-1678.4 266.69-1934.3 132.47-1701-892.05 310-1361.2 4490.6-2185.2 8507.3-1676.7 1838 232.69 2422.4 677.57 2868.7 2183.8 749.41 2529-546.62 5689.1-2426.3 5916.2-1184.5 143.1-1481.1-200.29-1481.1-1714.8z"/><path d="m236849-71369-2962.2-1172.5 2991-329.75c3199.8-352.78 5053.4-906.12 5042.7-1505.4-8.32-465.79-4171.6-1709.8-5722.2-1709.8-711.95 0-1055.2-454.14-889.2-1176.3 227.6-989.94 1142.1-1280.1 5771.7-1831.7 3025.7-360.44 6834.2-1090.7 8463.4-1622.7 3093-1010.1 6996.3-1390.1 9521.4-926.91 2173.4 398.66 1982.9 4422.1-326.8 6900.4-3797.6 4074.9-15545 5885.9-21890 3374.6z"/><path d="m180883 13644c-5273.5-861.84-5663.9-1063.2-6313.9-3256.9-407.98-1376.8-1173.2-2050.2-2783.4-2449.6-5645.3-1400.1-6478.3-2294.3-2932.6-3147.7 1647.6-396.57 5276.9-418.31 11706-70.138 5130.8 277.87 11790 309.88 14819 71.237 10634-837.77 42764-2557 44856-2400.2 1163.7 87.22 9352.1 330.73 18196 541.14 8844.3 210.41 16414 583.54 16822 829.18 408.03 245.64 810.31 1453.3 893.97 2683.7 121.33 1784.3-323.43 2559.3-2197.7 3829.6l-2349.8 1592.5-18847-266.45c-14990-211.92-21706-61.9-32821 733.14-28453 2035.2-33565 2206.8-39049 1310.5z"/><path d="m243825 43409c-578.22-586.16-1051.3-1665.8-1051.3-2399.2 0-1057.7-776.87-1557.5-3757.2-2417-2066.5-595.98-3956.4-1287.7-4200-1537.1-684.78-701.47 464.32-4386.3 1269.6-4071.2 392.41 153.54 1779.7-69.888 3082.8-496.51 1303.1-426.62 4075.5-858.43 6160.8-959.57l3791.6-183.9 191.76 3750.7c192.96 3774.4-1781.5 8848.1-3583.8 9208.8-469.13 93.899-1326-308.86-1904.3-895.03z"/><path d="m204443 36971c307.85-745.28 25.97-1071.6-925.57-1071.6-752.52 0-1368.2-273.12-1368.2-606.92 0-1011.5-3510.3-2608-5734.4-2608-1773.1 0-1928.3-123.36-1023.4-813.61 2076.8-1584.2 14381-4583.3 17015-4147.2 1587.6 262.84 1729.6 562.93 1270.5 2683.9-715.21 3303.5-2155.7 4977-5517 6409.5-3531 1504.8-4288 1536.2-3717 153.96z"/><path d="m183318 37612c-2521.2-191.47-3100.2-1023.1-1057.9-1519.3 698.23-169.63 1269.5-676.29 1269.5-1125.9 0-1073.5-3224.1-2818.5-5207.6-2818.5-2360.9 0-1878.4-1344.3 1040.8-2899.3 2086.8-1111.7 3497.6-1387.2 7103.4-1387.2 4964.3 0 5526.8 359.74 5526.8 3534.1 0 1886.4-2735.1 5097.1-5049.1 5927.1-714.18 256.18-2345.8 386.23-3625.9 289.01z"/><path d="m213151 67757c-698.24-84.635-5225.2-446.94-10060-805.11-4834.8-358.16-9785.9-980.04-11002-1381.9-1216.6-401.9-2783.3-739.88-3481.5-751.07-2219.7-35.567-4231.7-1396.3-4231.7-2861.9 0-808.87-817.99-1859.3-1904.3-2445.3-1047.4-565.05-2856.4-1536.9-4020.1-2159.6l-2115.8-1132.2 7193.9 224.92c3956.7 123.72 9859.8 614.88 13118 1091.5 7269 1063.3 46896 1238.6 56358 249.37 7969.1-833.2 10038-200.17 9665.6 2957.9-176.05 1494.4-1043.3 2788.5-2673.5 3989.2-2803.7 2065.1-1846.4 1973.6-26110 2494.9-9309.8 200.02-17498 435.54-18196 523.38-698.24 87.853-1840.8 90.477-2539 5.826z"/><path d="m467887 10853c-2209.3-2059.1-1922.2-3480.4 792.5-3922.3 1903.2-309.82 10697-5709.9 13540-8314.5 5045.3-4622.4 9945.7-11958 7988.2-11958-325.7 0-2555.6 850.86-4955.3 1890.8-2685.6 1163.9-4752.7 1728.8-5376.6 1469.5-1107.1-460.21 1388.4-9464.2 3233.2-11665 904.1-1078.8 673.9-1510.6-1369-2567.5-1350.8-698.82-3842.3-1986.2-5536.8-2860.9-1694.4-874.68-4902.5-1957.4-7128.9-2406.1-2882.4-580.84-4837.6-1466.7-6790-3076.4-2480.4-2045.1-2730.5-2760.4-2622.8-7501.1 110.3-4849.6 368-5456.5 3456.3-8138.6 1835.4-1594 3578.8-3213.2 3874.3-3598.2 343.7-447.89 2081.5-737.51 4825.4-804.26 4205.8-102.3 4290.3-73.69 4397.9 1491.2 60.3 877.53-417.3 1595.5-1061.3 1595.5-644.1 0-875.4 121.87-514.1 270.84 361.4 148.96-340.2 1059.6-1559.1 2023.6-4091.8 3236.3-2634.1 9977.8 2882.1 13329 1437.9 873.53 2928.5 2177.8 3312.4 2898.4 901.7 1692.5 3327.2 2565.6 5275.3 1899.1 1710.1-585.07 5472.6-232.26 10462 981 3499.2 850.95 3631.5 979.99 2943.9 2870.3-682 1874.9-465.4 2096 4104.8 4191.6 2653.6 1216.7 4901.6 2584 4995.6 3038.4 530.4 2564.5-21.2 3813.3-3527.2 7984.9-2124.9 2528.3-4109.5 5105.6-4410.4 5727.3-2313.4 4780.6-13466 12208-18330 12208-1057.9 0-2243.4 213.34-2634.3 474.1-485.9 324.09-1200.4 306.58-2258.2-55.368-2081.7-712.22-2057.4 210.75 28.1 1070.5 1369.7 564.66 1096.4 841.07-2091 2114.7l-3666.6 1465.1z"/><path d="m450768-49430c-16776-3919.1-20472-5230.5-22972-8152-2081.5-2432.1-5755.8-4591.7-7812.2-4591.7-1962.4 0-2095.9-2275.6-256.6-4372.6 1026.7-1170.5 2103.7-1559 4928.2-1777.4 1987.9-153.74 4728.1-164.23 6089.3-23.31 2879.8 298.15 6441.6 2780.2 6853.5 4776 303.5 1470.2 3228.5 3658 4890.8 3658 546.2 0 1697.3 290.27 2557.8 645.05 860.6 354.78 3004.4 1016 4764 1469.5 6809.5 1754.7 15763 4803.8 15763 5368 0 940.99-7179.5 3823.7-9452 3795.1-1135.2-14.273-3544.6-371.85-5354.2-794.61z"/><path d="m404001 12406c-2196.4-216.86-6536.6-1012.5-9644.9-1768-3108.3-755.54-6123.3-1373.7-6699.9-1373.7-576.7 0-1048.5-324.65-1048.5-721.45 0-396.81-923.8-1261.5-2052.9-1921.6-6651.9-3888.9-10340-8785.1-13276-17626-1663.7-5009.2-1600.9-12593 130.8-15790 774.5-1429.6 1426.2-2802.7 1448.4-3051.4 22.2-248.68 922-815.63 1999.6-1259.9 1077.7-444.26 1674.1-998.04 1325.4-1230.6-348.7-232.58 138-908.62 1081.6-1502.3 943.6-593.68 1433.7-1382.3 1089.1-1752.5-464-498.55 571.4-778.83 3993.5-1081 3929.8-347.03 4808.2-639.08 5880-1954.9 1201.6-1475.2 3493.1-2195.1 7208.5-2264.6 1840.4-34.424 4333.2 2289.8 4333.2 4040.2 0 1238.8 7120.8 7202.9 9541.7 7991.8 4100.3 1336.1 7052.4-889.98 5735.3-4324.9-505.5-1318.2-1360.8-2632.3-1900.7-2920.1-540-287.83-3359-1742.7-6264.6-3233-8126.5-4168.2-11918-7878.2-11753-11500 156.6-3436.2 2063.2-6750.1 6231.6-10831 4139.4-4053 10904-7962.2 12898-7454 558.3 142.24 311.5 590.34-552.5 1003.4-1963.7 938.74-3995.6 3370.5-4779.4 5719.9-331.8 994.71-948.2 2622.4-1369.8 3617.1-421.5 994.71-638.7 3126.3-482.7 4736.9 344.7 3557.5 2738.3 5634.8 11357 9855.9 8143.1 3988.1 10270 5702.2 9317.4 7509-408.8 775.31-836.5 2871.6-950.4 4658.5-169.6 2660-620.5 3397.5-2487.9 4069.3-1254.4 451.26-3084 1430.9-4065.8 2176.9-3850.7 2925.9-8179.5 4295.4-13578 4295.4-4353.6 0-7222.3-959.06-11135-3722.6-4813.6-3400.1-8409.9-5046.1-10354-4738.6-3212.9 508.27-3685.4 9289.1-905.4 16826 3138.7 8509.1 12548 15494 24494 18183 3301.7 743.11 5665.8 1571.9 5477 1920.2-182.6 336.99 310.9 782.14 1096.8 989.22 1120.3 295.22 811.2 841.06-1431.8 2528.2-3108.5 2338.1-3918.5 2493.6-9906.9 1902.4zm-23974-44739c0-248.68-522.6-452.14-1161.5-452.14-638.8 0-856.4 203.46-483.6 452.14 372.8 248.68 895.5 452.14 1161.5 452.14s483.6-203.46 483.6-452.14zm2193.5-2260.7c0-248.68-522.6-452.14-1161.4-452.14-638.9 0-856.5 203.46-483.7 452.14 372.8 248.68 895.5 452.14 1161.5 452.14s483.6-203.46 483.6-452.14z"/><path d="m450410 63105c-2352.7-3467.4-3718.2-4824.4-6503.6-6463.3-2692.7-1584.4-3782.2-1955.5-7478.2-2547.5-5425.7-868.95-6084.3-866.24-9650.3 39.778-2286.5 580.93-3375.6 1173.3-5103.9 2776-1645.6 1526.1-2639.4 2085-3959.6 2227-2190.7 235.62-2360.7 862.44-176.22 649.42 872.58-85.094 1751.8-10.818 1954 165.02 202.12 175.86 56.88 319.74-322.68 319.74-379.57 0-989.17 352.95-1354.7 784.34-974.69 1150.4-3913.8 2078.7-6677.2 2108.9-2051.5 22.427-2584.3-130.9-3488.8-1004-1663.9-1606.1-1078.3-2491.8 4673.2-7068.2 2041.3-1624.2 6049.6-2843.5 12970-3945.3 7978.8-1270.3 18736-1096.2 23945 387.48 916.8 261.18 1804.8 400.69 1973.4 310.05 168.5-90.631 828.28 145.3 1466.1 524.3 637.75 379 1654.8 689.08 2259.9 689.08 1505.3 0 2891.6 898.05 1762.4 1141.7-532.73 114.93-436.07 187.64 272.65 205.15 668.66 16.525 963.57 215.14 754.48 508.13-222.76 312.18 64.51 462.89 818.47 429.37 812.51-36.116 1147.5 175.54 1114.4 704.14-25.96 415.68 190.11 676.87 480.3 580.44 714.76-237.57 1548.7 1037.7 2102.5 3215.1 324.36 1275.3 243.06 1803.3-277.67 1803.3-405.03 0-577.39-138.37-382.99-307.5 194.33-169.12-110.76-403.27-678.04-520.35-808.07-166.75-953.08-51.84-669.81 530.67 598.77 1231.4-2861.8 2701.6-6359 2701.6-2498 0-2896.3-108.63-3463.6-944.61zm-21886-11486c-203.93-274.02-355.27-192.63-385.89 207.53-27.71 362.1 123.2 564.98 335.49 450.83 212.21-114.13 234.91-410.4 50.4-658.36z"/><path d="m449167 43492c-2804.7-211.64-2885.7-809.67-936.8-6921.1 512.08-1605.8 1004.2-3692.6 1093.6-4637.2 162.11-1713 171.64-1719.8 3622.8-2624.2 2784.2-729.54 3802.3-842.58 5210.9-578.52 2801.8 525.25 2875.8 1259.5 847.84 8417.8-545.01 1923.7-923.92 3778.6-841.96 4121.9 81.89 343.33-53.52 1010.7-300.94 1483-406.04 775-774.11 858.74-3774.3 858.74-1828.4 0-4043-54.231-4921.2-120.51z"/><path d="m421178 42366c-1189.2-236.57-1394.6-542.97-1402.3-2091.6-5.02-997.91 748.94-3760 1675.4-6137.9l1684.4-4323.5 3779-1117.2c3600.1-1064.3 3853.4-1091 5350.8-563.4 1880.8 662.71 1993.2 1677.9 573.38 5175.1-536.87 1322.5-1372.3 3563.8-1856.4 4980.7-1409.8 4126-1530 4224.7-5226.1 4294.6-1751.7 33.147-3811.8-64.462-4578.1-216.9z"/><path d="m400696 30076c-486.84-165.8-2570.7-219.24-4630.9-118.78-2298.9 112.11-3745.8 49.911-3745.8-161.01 0-373.69 10499-5621.8 15649-7822.8 1756.6-750.62 3768.6-1657.5 4471.2-2015.3 2599.8-1323.8 10751-3996.9 12188-3996.9 816.73 0 2208.4-177.3 3092.9-394 1232.3-301.95 1829.7-295.04 2557 29.574 521.97 232.96 1216.2 334.77 1542.8 226.25 326.47-108.52 736.73 205.31 911.7 697.4 304 855.28-1290.6 2188.7-2617.4 2188.7-652.65 0-13515 5518.4-19591 8405.3-6863.6 3261.1-7969.4 3594.3-9827.4 2961.5z"/><path d="m478229 35524c-702.63-144.18-1929.8-182.02-2727-84.106-3075.9 377.74-4943.1-484.2-8302.3-3832.5-1765.2-1759.4-4407.2-4554.7-5871.1-6211.7-2975.1-3367.6-3117.2-3105.8 2425.3-4465.3l3409.5-836.31 2019.7 830.71c1833.3 754.04 3929.7 2884.3 8467.2 8604.3 1509.7 1903 2278.3 3769.3 2066.4 5017.8-183.2 1080-374.47 1205.7-1487.7 977.24z"/></g></g></g><animate attributeName="display" values="inline;none;none" keyTimes="0;0.5;1" dur="0.5s" begin="0s" repeatCount="indefinite" /></g><g transform="matrix(.077283 0 0 .088476 3.8706 41.761)"><g transform="matrix(.075402 0 0 .094631 650.5 76.675)"><g transform="matrix(.14305 0 0 .15756 -4238.5 -2889.6)"><path d="m-10553-18438c-3539.2-62.51-6927 577.74-10483 492.21-3125.2-133.62-6234.9-414.9-9371.5-136.87-1484.3-355.25-6284.2 752.43-2958.7 1032.5 5393.7 86.665 10880-1085.7 16205-46.918 1838.9-139.77 3695.8-99.624 5544.2-122.22-470.36 6423.8 62.656 12855 210.4 19280-63 4611.4 867.93 9202.5 768.43 13811 259.5 1504.4-22.577 2529.7-2712.1 2090-3844.1 6.195-7717.2 144.67-11523-170.71-2344.1-360.5-7233.4 1315-5868-1378.9-100.13-3118.1-688.28-6227.1-269.34-9348.8 311.51-3784.4-352.8-7577.9-273.61-11354 169.93-823.74-18.816-2613.2-97.515-3957.6-246.01-1885.4-1134.6-3906.2-2030.8-5576.3 631.4 3425.4 1197.2 6857.1 1282.5 10309 386.85 3613.5 439.62 7259.1 324.76 10860-416.88 2345.9-106.16 4702.7 140.59 7043-833.21 1075.7 1735.2 3776.6-571.68 3644.5-1513.7-308.48-4786.3 984.62-1919.1 1085.5 5094.8-461.01 10233-171.47 15343-38.603 2608.6 22.624 5217.5 17.841 7826.2 25.081-387.74 1040.9 727.08 2162.8 1751.6 1336.7-239.39-1036.5 77.244-1613.9 1819.3-1313.2 4569.7 77.133 9052.3 761.57 13632 831.92 5247.8 229.24 10661-91.305 15681 1128.2 1501.2 76.925 6954.3 1375.7 5800.7-415.58-2849.9-507.05-6016.6-549.23-8896.2-1198.1-2555.7-45.45-4849.9-512.53-4183.4-2431.6 605.23-2063 5519.2-1100.2 8083.2-1559.5 3735.4 759.3 2438.3-2490.7 2789.4-3843.5-192.08-1960.5-267.54-4048.7-1651.6-5836.5-4416.3-1451.8-9600.5-851.58-14354-1396.2-3161.4-218.45-6321.9-465.92-9492.3-503.31-412.9 2683.4 36.924 5424.8 159.85 8127.3 601.88 1652.4-10.96 4510.7 3984.5 4163.2 2959.4 100.66 5921.3-23.547 8879.5-88.572-115.8 1159.4 772.69 3893.7-2088.8 2531.6 1191.2-716.13 521.87-3082.7-934.09-1672.1-495.31 956.39-656 2384.8-2741 1903.8-5466.1-67.71-10857-685.48-16286-991.07 567.62-5016.8-812.85-10013-682.5-15034-346.09-4929.5-31.294-9873-545.49-14792-264.13-2109.5 784.38-4247.5 492.74-6314.8l-318.96-106.22zm12305 23184c2336.9 699.3 5151.1 455.62 7696.8 766.85 4003.6 504.74 8205.7 170.77 12123 926.77 2186 1180.8 1619.8 3530.2 1930.7 5236.8-344.65 817.62 811.82 2946.7-1384.5 2663.8-6325.5 227.23-12650 1217-19008 609.06-1631.9-3301.6-1176-6793.7-1358.9-10203z"/><path d="m-26618 4465.2c-990.04 48.296-103.41-688.52-1100-923.93 829.23-308.91 2315.3 344.09 3442.9-24.766 2677.9-206.08 5384.9-167.13 8059-365.35-4.321-260.24 1096-101.14 1196.5-415.06 323.96-22.056 1369.2-17.338 1632.1 168.01-99.302 890.46-1730.8 1025.5-2722.5 1218.6-1560.7 127.16-3145.2-4.2674-4701.2 125.84-1036.8-42.659-2606.7-91.082-3816.2 158.14-645.84 5.7489-1349.7 118.4-1990.6 58.49z"/><path d="m-24043 164.72c470.51-744.3-325.23-391.92-679.37-423.56-274.53-1059 1951.5-1013.9 1913.4-119.43-561.84 58.925-803.62 1048.5-1234.1 542.98z"/><path d="m-27995-388.63c281.77-398.37 247.7-650.49-352.36-690.11 306.61-672.19 1029.1-555.73 1621.7-457.31 762.68 459.73-520.04 1248.2-1119.8 1374-151.54-15.497-149.9-151.21-149.57-226.55z"/><path d="m-17754-279.09c-1258.9-110.17-1109.5-1685.5 229.48-1304.8 985.39 66.884 1822.1 1182 438.65 1503.5-253.93-5.9243-465-106.9-668.13-198.71z"/><path d="m-19037-3775.9c-2652.5 12.451-5028.6-1037.5-7687.4-1012.5-968.62 72.034-1292.1-236.47-1075.2-829.09-1195.7-530.83 1141.2-233.19 1514.7-66.243 3070.7 408.42 6132.7 951.99 9266.8 1039.7 843.38-35.255 3333.7 45.872 2467.9 928.62-1454.3 204.39-3020.1 40.338-4486.8-60.506z"/><path d="m-28359-8646.8c418.29-349.3 517.66-855.02-227.53-861.26 819.41-677.87 3412.5 93.974 1650.8 698.14-410.92 63.866-1047.2 347.43-1423.2 163.12z"/><path transform="matrix(45.404 0 0 31.601 -9291.3 -5798.1)" d="m-205.84-174.19c2.1589-3.4932 2.4488-4.949 1.2684-6.3712-0.84144-1.0139-1.0498-2.1402-0.46291-2.5028 3.1338-1.9368 25.93-0.57497 29.059 1.7359 0.73324 0.54166 2.833 1.3452 4.6661 1.7857 5.2592 1.2638 6.7529 5.0082 5.7657 14.453-0.67445 6.4528-1.6074 8.9928-4.1783 11.375-5.7618-0.73377-49.154 15.27-36.118-20.476zm8.7993 3.4587c-250.86-153.28-125.43-76.641 0 0z"/><path d="m-22358-10453c-568.98-463.39-2110.7 564.75-1635.7-403.42-7.826-322.43 379.2-631.97 1211.8-432.2 512.84-71.623 880.97 997.09 423.92 835.62z"/><path d="m-26500 12540c-881.46-7.221 489.27-859.36-588.29-894.83 2206.7-486.78 4529.2-308.88 6788-165.3 1286.9 182.42 2593.7-397.22 3792-170.62 949.38 37.855 1933.5 146.05 891.93 686.07-891.52 576.33-2385.5 58.049-3520.5 171.21-2473.5-66.437-4897.8 408.35-7363.1 373.48z"/><path d="m-25961 7445.2c-405.27-694.73 585.87-1990.2 1130.3-857.12 43.519 232.75-1204.9 746.13-663.19 921.27-158.2 9.4486-333.72 4.1108-467.14-64.146z"/><path d="m-22124 8029.7c-90.037-341.39-1.828-844.68-696.11-656.72-317.8-621.45 1338.3-724.77 1774.8-149.94 70.544 542.58 13.991 539.01-528.09 314.65-566.01 22.9-103.88 569.37-550.58 492z"/><path d="m-18867 7638c-1180.9-168.42-1368-1771.2 193.32-1231.7 633.65 345.69 1798.7 767.84 432.58 849.47-332.08 332.64 824.16 279.91-182.12 395.84l-250.13 7.5183z"/><path d="m8499.8 5501.4c-841.7 48.662-2911.6-1139.2-2181.4-860.67-1254.6-193.92-1978.1-1487-1769.8-1259.7-515.28-774.46-1065.7-1629.7-965.24-2605.5-15.75-904.68 92.845-2144.9 1131.5-2446.5 616.36-216.22 2435.9-561.51 2017-298.23 1001.1-585.92 458.82-2178.9 492.07-1774.7-321.8-587.58-1144.9-2005.9 113.49-2025.5 697.12-154.04 2926.5-264.35 2162.7-585.84 870.14-20.609 3362.4 744.36 2547.1 370.22 458.83 24.696-219.15-2640.8 12.53-1591.3-78.72-309.37 278.87-1445.2 299.85-544.24 771.11 1226.4 1080.9-2481.3 1191.9-1159.7 649.75-655.22 236.31-1731.7 1131.3-2205.1 225.96-357.04 1837.5-808.57 1162.7-61.136-335.8 102.4-1715.8 607.71-599.75 500.52 471.63-19.796 594.21 816.94 204.5 596.09 190.34 1515.2-803.03 71.435-87.13 524.49-296.21 325.38-471.22 105.83-249.43 335.6-600.48 125.6-575.4 1346.9-215.89 875.17-343.77 1104 406.82 2131.3 958.58 3020.3 161.17 726.81-2008.6 1773.9-1493.6 1429-776.19 304.29-3285.9 620.33-2442.9 701.29-579.02 70.192-1717.2-990.89-1683.2 97.873 324.93 1574.7-1639.1 2211.2-1230.1 1946.9-791.73 280.06-1637.1 301.25-2466 359.1 18.42 1055.6-247.45 2205.4 390.47 3139.9 461.64 1001.9 1230.9 1840 2211.8 2351.7 584.05 148 1492.7 1005.4 405.05 1157-346.33 57.543-699.76 38.871-1048 12.973zm-4121.4-4919.8c14.857-788.02 119.91-1849.9 1033.1-2084.7-459.24-280.34-1178.5 2024.9-1317.1 1257.9-28.661 417.17 644.09 1561.4 174.74 1518.8 84.431-220.22 97.299-459.08 109.28-691.99zm4736.9-4648.4c-644.89-514.38-410.34 446.44 0 0z"/><path d="m18228-3479.6c54.31-153.25-217.98-265.25-142.63-211.41 90.813-321.66 390.49-546.73 439.42-890.14 172.32-706.47 40.7-1521.7-479.78-2056.6-371.13-429.48-810.98-795.59-1286.2-1103.9-262.37-232.37-516.72-523.63-578.48-878.73 226.96-117.32 631.93-39.19 671.77-418.78 103.39-270.15 421.43-266.5 544.76-508.07 179.63-174.39 434.68-83.526 370.51 184.27-12.97 295.25-0.53 647.4 299.34 803.72 362.05 255.29 759.18 456.74 1139.6 678.82 298.9 239.38 611.03 483.82 803.68 820.76 172.54 239.56 155.5 561.72 197.06 845.09 72.77 629.7-126.99 1287.7-572.7 1744.7-371.97 379.26-802.64 705.27-1264 967.92-38.14 9.067-107.98 65.863-142.39 22.377zm-1001.2-4657.8c86.14-99.382-280.56 24.912-287.54-168.29-4.24-300.39-633.17-365.89-354.02-21.015 127.24 219.38 417.83 374.23 641.56 189.3z"/><path d="m17027 5814.3c342.06-252.15 652.69-554.26 1046.1-747.64 733.65-453.07 1529-864.1 2052.7-1573.8 169.18-291 675.05-689.93 416.99-1027.7-432.87-12.396-715.55 413.59-969.66 709.48-194.26-184.35-1001.9 1645.7-239.49-155.44-181.48-235.3-724.37-173.31-708.78-638.89-83.11-388.52-162.27-875.1 116.23-1201.6 283.81-87.152 323.29 344.42 697.93 329.14 91.13 5.946 240.8-71.405 329.16 60.733-148.18-284.92-415.97-504.79-749.31-517.51-137.82-97.175 97.76-266.58 75.88-280.84 244.19-14.667 490.86 121.3 239.99-168.66-176.32-569.37 122.79-1275.2-348.15-1742.5-451.06-516.71-1025.7-896.06-1586.5-1279-417.71-428.33-89.33-385.01-21.88-486.41 39.55-329.83 1313.8-319.44 1010.8-293.82 487.43 29.855 927.54 285.94 1363.6 484.7 324.38 230.35 601.5 502.68 714.79 874.43 482.07 171.62 748.41 743.85 595.99 1231.4-83.97 451.9-449.53 783.35-559.96 1221.2 505.14 114.51 683.11 68.405 746.37 260.44 425.46-119.66 705.17 343.06 1097.9 448.47 417.04 136.47 758.91 578.79 390.33 973.46-591.16 901.01-1485 1547-2360 2151.5-1060.7 689.76-2207.7 1327.8-3480.2 1497.9-130.85-10.309 108.18-111.97 129.26-128.96z"/><path d="m16837 7989.6c-916.4-313.31-1878.8-446.4-2836.2-540.12-650.58-20.743 631.37-745.04 184.73-754.45 681.58-335.73 2005.1 22.541 1508.2-29.797 981.91 147.79 1954.1 371.66 2907.7 649.16 134.71 483.58-796.72 897.57-704.46 831.34-360.03 30.918-720.22-36.538-1060-156.15z"/><path d="m13726 10881c-334.24-485.71-219.45-1170.9-576.53-1657.7-614.05-452.98 1242.6-1493.9 711.8-1036.9 878.51-116.5 1250.7 1929.8 999.65 1111.5 143.04 499.07 155.34 1072.9-439.73 1242.4-222.31 156.25-365.96 505.09-695.19 340.71z"/><path d="m10109 10668c-35.14-325.4-251.21-948.98-431.88-525.53 53.68-546.82-59.51-1141.8 169.99-1652.2 348.6-489.74 1024.7-407.03 1423.8-8.106 372.67 478.92 402.04 1273.3-108.54 1669.3-314.06 102.35-773.22 1039.6-1053.4 516.52z"/><path d="m6053.5 8885.1c-545.11-284.1 752.38-1112.5 461.74-934.94 746.78-467.06 1557.4-857.17 2165.6-1518.6 223.73-165.35 834.84-604.86 879.07-119.79-394.32 427.51-728.46 926.23-1211.9 1261.4-447.66 482.99-1024.9 825.79-1566.4 1189.6-201.9 104.78-524.94 264.86-728.13 122.36z"/><path d="m13481 14022c-457.75-328.6-673.15-906.29-1148.7-1222.3-707.82-599.69-1669.8-475-2513.5-367.99-399.81 75.894-1531.7 575.27-1199.6 307 111.5 667.52 312.62 200.25 15.18 532.2-128.83 640.83-798.78 745.42-1205.2 288.02-250.41-531.73 1243-1621.4 828.34-1352.3 638.06-448.66 1397-659.9 2163.5-708.77 1104.7-135.19 2368.8-153.18 3252 650.92 285.81 314.89 561.88 1638.9 760 1201-375.32 121.07-1061.6 874.07-781.21 749.17l-90.42-36.95z"/></g></g><animate attributeName="display" values="none;inline;none" keyTimes="0;0.5;1" dur="0.5s" begin="0s" repeatCount="indefinite" /></g></svg>
