<svg version="1.1" viewBox="0 0 55 55" xmlns="http://www.w3.org/2000/svg">
<g transform="matrix(.077283 0 0 .088476 3.8706 41.761)">
<g transform="matrix(.075402 0 0 .094631 650.5 76.675)">
<g transform="matrix(.14305 0 0 .15756 -4238.5 -2889.6)">
<g>
<path d="m-10553-18438c-3539.2-62.51-6927 577.74-10483 492.21-3125.2-133.62-6234.9-414.9-9371.5-136.87-1484.3-355.25-6284.2 752.43-2958.7 1032.5 5393.7 86.665 10880-1085.7 16205-46.918 1838.9-139.77 3695.8-99.624 5544.2-122.22-470.36 6423.8 62.656 12855 210.4 19280-63 4611.4 867.93 9202.5 768.43 13811 259.5 1504.4-22.577 2529.7-2712.1 2090-3844.1 6.195-7717.2 144.67-11523-170.71-2344.1-360.5-7233.4 1315-5868-1378.9-100.13-3118.1-688.28-6227.1-269.34-9348.8 311.51-3784.4-352.8-7577.9-273.61-11354 169.93-823.74-18.816-2613.2-97.515-3957.6-246.01-1885.4-1134.6-3906.2-2030.8-5576.3 631.4 3425.4 1197.2 6857.1 1282.5 10309 386.85 3613.5 439.62 7259.1 324.76 10860-416.88 2345.9-106.16 4702.7 140.59 7043-833.21 1075.7 1735.2 3776.6-571.68 3644.5-1513.7-308.48-4786.3 984.62-1919.1 1085.5 5094.8-461.01 10233-171.47 15343-38.603 2608.6 22.624 5217.5 17.841 7826.2 25.081-387.74 1040.9 727.08 2162.8 1751.6 1336.7-239.39-1036.5 77.244-1613.9 1819.3-1313.2 4569.7 77.133 9052.3 761.57 13632 831.92 5247.8 229.24 10661-91.305 15681 1128.2 1501.2 76.925 6954.3 1375.7 5800.7-415.58-2849.9-507.05-6016.6-549.23-8896.2-1198.1-2555.7-45.45-4849.9-512.53-4183.4-2431.6 605.23-2063 5519.2-1100.2 8083.2-1559.5 3735.4 759.3 2438.3-2490.7 2789.4-3843.5-192.08-1960.5-267.54-4048.7-1651.6-5836.5-4416.3-1451.8-9600.5-851.58-14354-1396.2-3161.4-218.45-6321.9-465.92-9492.3-503.31-412.9 2683.4 36.924 5424.8 159.85 8127.3 601.88 1652.4-10.96 4510.7 3984.5 4163.2 2959.4 100.66 5921.3-23.547 8879.5-88.572-115.8 1159.4 772.69 3893.7-2088.8 2531.6 1191.2-716.13 521.87-3082.7-934.09-1672.1-495.31 956.39-656 2384.8-2741 1903.8-5466.1-67.71-10857-685.48-16286-991.07 567.62-5016.8-812.85-10013-682.5-15034-346.09-4929.5-31.294-9873-545.49-14792-264.13-2109.5 784.38-4247.5 492.74-6314.8l-318.96-106.22zm12305 23184c2336.9 699.3 5151.1 455.62 7696.8 766.85 4003.6 504.74 8205.7 170.77 12123 926.77 2186 1180.8 1619.8 3530.2 1930.7 5236.8-344.65 817.62 811.82 2946.7-1384.5 2663.8-6325.5 227.23-12650 1217-19008 609.06-1631.9-3301.6-1176-6793.7-1358.9-10203z"/>
<path d="m-26618 4465.2c-990.04 48.296-103.41-688.52-1100-923.93 829.23-308.91 2315.3 344.09 3442.9-24.766 2677.9-206.08 5384.9-167.13 8059-365.35-4.321-260.24 1096-101.14 1196.5-415.06 323.96-22.056 1369.2-17.338 1632.1 168.01-99.302 890.46-1730.8 1025.5-2722.5 1218.6-1560.7 127.16-3145.2-4.2674-4701.2 125.84-1036.8-42.659-2606.7-91.082-3816.2 158.14-645.84 5.7489-1349.7 118.4-1990.6 58.49z"/>
<path d="m-24043 164.72c470.51-744.3-325.23-391.92-679.37-423.56-274.53-1059 1951.5-1013.9 1913.4-119.43-561.84 58.925-803.62 1048.5-1234.1 542.98z"/>
<path d="m-27995-388.63c281.77-398.37 247.7-650.49-352.36-690.11 306.61-672.19 1029.1-555.73 1621.7-457.31 762.68 459.73-520.04 1248.2-1119.8 1374-151.54-15.497-149.9-151.21-149.57-226.55z"/>
<path d="m-17754-279.09c-1258.9-110.17-1109.5-1685.5 229.48-1304.8 985.39 66.884 1822.1 1182 438.65 1503.5-253.93-5.9243-465-106.9-668.13-198.71z"/>
<path d="m-19037-3775.9c-2652.5 12.451-5028.6-1037.5-7687.4-1012.5-968.62 72.034-1292.1-236.47-1075.2-829.09-1195.7-530.83 1141.2-233.19 1514.7-66.243 3070.7 408.42 6132.7 951.99 9266.8 1039.7 843.38-35.255 3333.7 45.872 2467.9 928.62-1454.3 204.39-3020.1 40.338-4486.8-60.506z"/>
<path d="m-28359-8646.8c418.29-349.3 517.66-855.02-227.53-861.26 819.41-677.87 3412.5 93.974 1650.8 698.14-410.92 63.866-1047.2 347.43-1423.2 163.12z"/>
</g>
<path transform="matrix(45.404 0 0 31.601 -9291.3 -5798.1)" d="m-205.84-174.19c2.1589-3.4932 2.4488-4.949 1.2684-6.3712-0.84144-1.0139-1.0498-2.1402-0.46291-2.5028 3.1338-1.9368 25.93-0.57497 29.059 1.7359 0.73324 0.54166 2.833 1.3452 4.6661 1.7857 5.2592 1.2638 6.7529 5.0082 5.7657 14.453-0.67445 6.4528-1.6074 8.9928-4.1783 11.375-5.7618-0.73377-49.154 15.27-36.118-20.476zm8.7993 3.4587c-250.86-153.28-125.43-76.641 0 0z" stroke-width="1.3332"/>
<path d="m-22358-10453c-568.98-463.39-2110.7 564.75-1635.7-403.42-7.826-322.43 379.2-631.97 1211.8-432.2 512.84-71.623 880.97 997.09 423.92 835.62z"/>
<path d="m-26500 12540c-881.46-7.221 489.27-859.36-588.29-894.83 2206.7-486.78 4529.2-308.88 6788-165.3 1286.9 182.42 2593.7-397.22 3792-170.62 949.38 37.855 1933.5 146.05 891.93 686.07-891.52 576.33-2385.5 58.049-3520.5 171.21-2473.5-66.437-4897.8 408.35-7363.1 373.48z"/>
<g stroke-width="50.499">
<path d="m-25961 7445.2c-405.27-694.73 585.87-1990.2 1130.3-857.12 43.519 232.75-1204.9 746.13-663.19 921.27-158.2 9.4486-333.72 4.1108-467.14-64.146z"/>
<path d="m10864 14430c-645.44-54.234-1307.8-45.28-1946-153.55-940.67-130.87-1871.7-379.26-2570.4-851.51-415.34-253.48-978.82-525.5-907.55-962.48-46.721-379.19 152.23-738.25 489.34-1024 190.13-195.98 389.32-188.81 613.47-31.523 679.6 1.929 969.18 427.42 757.65 837.3 104.62 406.71 704.19 578.02 1188.1 715.23 728.1 186.92 1534.7 153.96 2300.3 146.53 1053.2-56.976 2091.7-261.94 3056.8-556.81 422.25-189.91 893.55-324.63 1313.8-520.11 566.53-361.78 561.04 430.95 1136.3 254.57-37.999 71.642-337.91 376.53-112.43 564.92-70.078 397.88-659.42 555-1011 798.36-481.72 142.42-953.91 339.51-1466.8 450.35-759.84 146.62-1536.2 290.69-2331 300.18-170.21 10.15-338.82 53.921-510.74 32.565z"/>
<path d="m9881.9 11095c-439.64-314.86-955.11-675-914.74-1150.5-25.823-773.54-103.89-1556 66.028-2323.7 119.2-352.82 357.09-720.35 886.77-847.96 445.05 58.438 1116.6 110.01 1245.7 471.5 199.06 362.65-72.496 704.72-111.58 1063.8-97.451 800.31-60.25 1619.3-376.48 2398.4-108.56 218.95-393.69 601.48-795.73 388.54z"/>
<path d="m-22124 8029.7c-90.037-341.39-1.828-844.68-696.11-656.72-317.8-621.45 1338.3-724.77 1774.8-149.94 70.544 542.58 13.991 539.01-528.09 314.65-566.01 22.9-103.88 569.37-550.58 492z"/>
<path d="m-18867 7638c-1180.9-168.42-1368-1771.2 193.32-1231.7 633.65 345.69 1798.7 767.84 432.58 849.47-332.08 332.64 824.16 279.91-182.12 395.84l-250.13 7.5183z"/>
<path d="m13854 10065c-564.94-64.865-1060.4-534.76-756.34-926.22 201.16-364 658.28-619.12 861.92-983.07 153.09-160.47 261.49-344.7 562.38-299.4 1.294-133.69 401.5 127.08 624.46 115.76 564.44 108.17 780.66 504.65 752.82 879.89-17.211 333.46-424.67 563.23-745.11 778.54-416.74 141.04-820.38 468.31-1300.1 434.51z"/>
</g>
</g>
</g>
<animate attributeName="display" values="inline;none;none" keyTimes="0;0.5;1" dur="0.5s" begin="0s" repeatCount="indefinite" />
</g>

<g transform="matrix(.077283 0 0 .088476 3.8706 41.761)">
<g transform="matrix(.075402 0 0 .094631 650.5 76.675)">
<g transform="matrix(.14305 0 0 .15756 -4238.5 -2889.6)">
<g transform="matrix(.14521 0 0 .16472 -51657 4266.3)">
<path d="m542290 105118c-698.21-251.39-5649.2-612.32-11002-802.06-5353-189.75-11256-462.29-13118-605.66-7486.3-576.46-14825-747.93-44009-1028.3-34462-331.04-58536-737.99-66013-1115.9-7189.3-363.37-23234-1321.9-26168-1563.4-1359.4-111.85-5358.2-369.68-8886.4-572.95-3528.2-203.27-6795.7-519.17-7261.1-701.99-465.47-182.83-1608-353.98-2539-380.35-1785.5-50.59-12621-734.48-16926-1068.3-3309.6-256.65-21202-1219-28775-1547.6-25272-1096.8-39124-1344-76592-1366.8-23507-14.381-45492-197.83-48858-407.71-3365.2-209.88-11170-381.6-17345-381.6h-11226l-851.26 1612.3c-1084.8 2054.5-4171.1 4002.8-6341 4002.8-1121.5 0-2093.4-623.17-2918.9-1871.7-1409.4-2131.4-3394.7-2444.8-4234.1-668.46l-568.58 1203.2-892.22-1336.9c-490.72-735.31-1223.2-1878.4-1627.8-2540.2-635.85-1040.1-1349.9-1203.2-5267.3-1203.2-2492.5 0-6594.7-233.26-9116.1-518.34-2521.4-285.09-6826.7-667.52-9567.3-849.84-4153.2-276.3-5386.3-610.55-7405.3-2007.3-2914.2-2016.1-3009.8-2664.8-545-3698.9 1456.4-611.02 1883.4-1315.1 1904.2-3140.1l26.88-2352.5 4231.6 46.58c2327.4 25.614 8304.2 241.85 13282 480.5l9050.3 433.91 446.52-1282.7c2268.5-6516.3 2051.5-26618-412.34-38193-1126.8-5293.5-572.2-29795 1010.3-44636 486.5-4562.3 798.13-20207 692.51-34766-105.62-14559 106.07-33630 470.43-42380-2314.3-16317 2107.2-12795-1051.7-29166-1779.3-4374.2 3411.4-29412 7526.6-28527 1154.5 277.36 6454.7 640.6 11778 807.21 5323.5 166.6 18499 590.39 29279 941.76 15875 517.44 23434 500.16 39777-90.93 23053-833.76 44675-975.2 55640-363.95 29420 1968.4 23939 58008 23800 62415-303.24 7794.3-1134.9 17420-1848.1 21391-1069.8 5955.7-1254.3 13772-1053.9 44653 133.57 20589-76.84 46398-467.54 57354-653.59 18327-598.86 19920 684.37 19920 1955.8 0 1745.2 1462-268.78 1865.9-1921.1 9172.7-2300.8 12829-2313.8 13017 558.4 291.59 7108.8 798.81 14556 1127.1 20302 895.05 34439 1880.8 57901 4037.4 15224 1399.4 22077 1671.2 22077 875.76 0-257.29 2881.5-3038.1 6403.4-6179.7 5293.6-4721.9 6430.4-6100.6 6559-7954.8l155.55-2243h-5077.9c-4808.4 0-25840 1594-28171 2135.1-8708.8-198.84-16890-3078.4-20552-6680.6-1175 0-416.57-21177 1091.7-30482 595.93-3676.5 996.71-9452 890.62-12834-669.7-21354-723.27-21048 3782.7-21579 1283.9-151.2 5000.3-565.68 8258.7-921.08 3258.3-355.4 7447.6-1063.7 9309.5-1574 2965.8-812.87 5849.8-905.37 23274-746.46 16166 147.43 22423 435.7 33430 1540 7447.6 747.26 20206 1593.2 28352 1879.9s18238 680.1 22427 874.24c4189.3 194.13 11269 387.07 15733 428.74 9442.3 88.152 11900 791.21 13505 3862.7 1573.1 3011.9 461.15 9456.9-3322.7 19259-3291.9 8527.7-3343 8817.4-3951.8 22403l-616.81 13764 2444.8-391.24c1344.6-215.18 4060.7-514.36 6035.7-664.84 4693.7-357.62 5345.7 644.53 2450.4 3766.3-2581.2 2783-10366 5592.1-16841 6076.7-2233 167.11-4261.8 510.13-4508.4 762.26-246.62 252.14-10899 458.43-23672 458.43s-23224 60.552-23224 134.56c0 74.006-952.11 3094.4-2115.8 6711.9-2560.7 7960.4-2674.9 9718-634.74 9766.8 7209.4 172.64 25350 493.22 42441 750.01 11356 170.64 23162 530.87 26236 800.53 3073.4 269.66 9396.5 638.46 14051 819.57s9667.3 567.84 11139 859.41c2812.7 557.27 4113.2 1755 3039.7 2799.4-350.61 341.11-654.84 981.17-676.05 1422.4-74.13 1542.1-2260.8 5618.5-3222.7 6008-1216.1 492.4-1517.2 484.56-3086.1-80.33zm-103675-18630c315.71-2572.5 1119-6216.6 1785-8098.1 666.05-1881.5 1037.2-3530.7 824.78-3664.9-212.41-134.22-3415.5-369.51-7117.9-522.86l-6731.7-278.81-73.88 3315c-74.56 3347.8-2437.8 7089.6-6006 9509.7-788.77 534.98-2111.4 1625.8-2939.2 2424.1-1209.4 1166.3-1279.3 1503.5-355.48 1716.2 1211.2 278.99 18521 645.57 19481 412.56 307.47-74.626 817.34-2240.4 1133-4812.9zm-148993-4320.8c1141.6-3355.8 2582.1-53137 2602.3-89930 17.78-32310 256.68-40800 1264.2-44921 952.49-3895 1243.6-10633 1247.6-28878 5.08-24213-732.81-31653-4088.2-41206-1021-2907.2-1029.3-2912.8-4812.1-3285.5-4385.6-432.1-31644-142-45259 481.67-12148 556.47-47519 546.47-62845-17.75-13811-508.45-16300-148.17-17865 2586.4-1286.9 2248.8-1207.2 4982.6 303.4 10407 693.49 2490 1487.9 5855.9 1765.5 7479.8s645.44 3096.5 817.6 3272.6c266.14 272.11-1213.1 23697-2741.8 43419-283.9 3662.6-121.79 6003.1 445.75 6435.2 536.03 408.11 595.83 981.81 149.87 1437.8-408.14 417.28-513.65 992.23-234.46 1277.7 580.95 593.97 418.11 43468-182.05 47929-605.92 4503.3-2082.8 34814-1784.9 36632 3058 18662 3852 32950 2250.5 40498-669.65 3156.2-935.24 5916.8-590.2 6134.9 1108.3 700.32 32738 1274.3 79905 1450.1 25268 94.163 46156 306.89 46419 472.73 985.02 622.41 2764.5-299.63 3232.3-1674.8zm98215-15955c9529.3-1111.8 35493-1207.6 52472-193.46 6516.6 389.23 22313 732.56 35103 762.95l23254 55.251 688.43-2139.1c378.64-1176.5 844.87-6350.4 1036.1-11498 483.18-13006 1092.8-18422 2528.4-22460 679.58-1911.8 2008.8-5629.6 2953.8-8261.8 2812.4-7833.4 2630.8-8037.9-7168.1-8072.7-27892-99.2-46728-916.19-66436-2881.6-14408-1436.9-20502-1759.3-27145-1436.2-13097 636.96-26320 1518.1-28586 1904.8l-2241.7 382.67 256.36 10653c141 5859.2-126.55 12819-594.55 15466-1232.2 6969.3-2890.8 26865-2318.2 27807 655.07 1078.7 6460.7 1046.6 16198-89.44z"/>
<path d="m240154-70578c-5284.4-992.75-5760.1-1483.6-2071.9-2137.4 4473.1-793.01 4923.1-2244 845.82-2727.3-6031.6-715-4781.4-2552.2 2336.2-3433 2880.5-356.46 5618.1-822.8 6083.6-1036.3 1777.7-815.36 7775.4-1736.4 10182-1563.5 2359 169.47 2529.2 339.7 2774.6 2775.3 298.67 2963.8-1850 5485.7-5990.7 7031.2-3268.7 1220.1-10505 1777.7-14159 1091.2z"/>
<path d="m213629-71763c-306.28-193.53-556.87-988.33-556.87-1766.2 0-1802.5-2851.6-3755.1-5484.1-3755.1-2308.5 0-3575.1-906.85-2348.9-1681.7 451.71-285.42 2888.6-653.77 5415.3-818.55 4340.4-283.06 4649.9-222.2 5605 1102.4 1745 2420-481.7 8276.9-2630.5 6919.1z"/>
<path d="m177315-69568c-2843.8-974.87-3005.4-1426.3-360.36-1006.9 1246.9 197.74 2368 6.672 3062.2-521.9 906.04-689.83 847.76-1072.5-337.38-2215.4-787.92-759.85-1938.5-1258.9-2556.8-1108.9s-1745.6-14.517-2505.1-365.43c-1176.8-543.73-1213-783.15-244.59-1619.9 937.22-809.89 2721.6-1033 10185-1273.7l9048.7-291.81v2631.7c0 2585.4-1345.7 4539.4-4094 5944.6-1784 912.12-9345.9 805.38-12198-172.18z"/>
<path d="m170967-33984c-2132.1-541.51-2375.6-1075.9-911.6-2001 1649.1-1042-492.5-3330.1-3116.8-3330.1-1188.3 0-2391-379.63-2672.8-843.62-990.03-1630.2 1757.7-2414.9 10380-2964.1 25812-1644.2 22169-1630.6 68047-252.63 22781 684.26 31191 1112.9 32036 1632.8 1557.8 958.57 601.93 3449.5-2005.7 5226.5-2998.5 2043.3-6951 2243.8-33416 1694.7-33766-700.58-48256-573.61-56159 492.1-7392.9 996.95-9392.1 1053.6-12181 345.27z"/>
<path d="m184297-16152c-4014.5-418.91-4790.2-853.92-2126.1-1192.3 4758.4-604.41 3521.6-3474.7-1767.3-4101.7-2973.7-352.5-3691.2-1268.5-1779-2271.2 1556.6-816.27 11000-1701.8 11960-1121.6 1030.5 622.37 646.12 5716.6-538.83 7140.3-921.48 1107.2-2406.6 1954.7-3210.1 1831.9-232.73-35.55-1375.3-163.99-2539-285.42z"/>
<path d="m216703-12176c473.71-817.05-2746.4-4648.4-3999.2-4758.4-496.13-43.546-1663.7-103.71-2594.7-133.69-1981.2-63.808-2262-1358.7-423.16-1951.6 4176.8-1346.9 12314-3298.2 14831-3556.2l2942-301.68v2493.6c0 3338.1-1659.8 5652-5319.6 7415.9-3152.6 1519.4-6107.3 1950-5436 792.17z"/>
<path d="m263004-13241c0-1009.3-3174.3-2747.7-6559-3592.1-1512.8-377.41-2750.5-857.37-2750.5-1066.6s1515.1-1149.7 3366.8-2090c3507.9-1781.3 8522.1-2401.1 10306-1273.9 1416.6 895.15 992.65 4811.4-721.74 6666.2-1683.6 1821.5-3641.5 2550.8-3641.5 1356.4z"/>
<path d="m180912 13669c0-270.75-1130.4-649.17-2512.1-840.92-2022.6-280.7-2617.1-702.12-3050.6-2162.5-606.84-2044-1385.6-2555.5-5016.2-3295.1-1396.4-284.46-2661.9-917.68-2812.1-1407.2-474.6-1546.3 3180.5-1929.5 12302-1289.9 8131 570.19 14694 321.01 37481-1423.1 9857.6-754.49 19432-898.01 37005-554.73 15428 301.39 20085 556.45 21027 1151.7 1807 1141.8 1508.4 4582.3-540.41 6228.2l-1750.4 1406.1-21288-24.391c-11708-13.418-24536 233.13-28506 547.89-28023 2222-42340 2784.7-42340 1664z"/>
<path d="m243382 41643c-919.65-2057.5-1602.2-2625.2-3660.1-3044.5-3549-723.2-4645.5-1384.1-4645.5-2800.1 0-1877 878.51-2919.5 2460.2-2919.5 788.06 0 1830.7-251.43 2317.1-558.73 486.33-307.3 2847.6-663.02 5247.2-790.48 4034.2-214.28 4370.9-141.96 4468.6 959.81 521.23 5875.5-1201.8 11205-3723.5 11517-949.29 117.6-1659.3-563.57-2464-2363.8z"/>
<path d="m204604 37023c-6.99-1153.2-5748.7-4679.2-7619.6-4679.2-4060 0 2618.6-2644.7 10335-4092.7 5749.1-1078.8 7185-693.26 6784.7 1821.8-452.43 2842.8-2370.3 5246.7-5202.5 6521-2778.8 1250.3-4292 1401.4-4297.9 429.09z"/>
<path d="m183027 37385c-2117.9-564.17-2293.3-737.37-1057.9-1044.3 1563.7-388.45 1948.5-2168 731.18-3381.8-398.18-397.02-2010.4-888.11-3582.7-1091.3l-2858.7-369.44 2778.5-1716.2c2967.6-1833 2993.3-1839.1 8357.9-1985.7 2968.4-81.124 3666.7 104.55 4443.2 1181.3 1853.5 2570.5 90.53 5986.5-4156.7 8053.9-1848.9 900.01-2436 944.61-4654.8 353.57z"/>
<path d="m204608 67101c-5318.3-445.52-10670-1291.7-15868-2508.9-3084.1-722.2-3596.8-1060.6-3596.8-2373.9 0-1590.2-1211.8-2594.3-5507.1-4563.1l-2530.2-1159.7 2376.3-376.87c2678.3-424.75 6750.5-127.42 15394 1123.9 8083.6 1170.4 50263 1607.5 57127 591.98 5423.2-802.4 9294.8-694.5 10280 286.5 1023 1019 871.74 3912.6-288.6 5521.7-1475.6 2046.4-5147.4 3001.5-12432 3233.8-14404 459.24-40590 590.07-44952 224.59z"/>
<path d="m450880 63339c-2996.4-947.84-13295-1766.5-27075-2152.2-16364-458.07-21269-1077.7-23645-2987-875.77-703.51-3373.6-1617.8-5550.6-2031.8-4410-838.64-6288.6-2040.9-6309.4-4037.9-18.19-1741.4 758.46-2431.3 3345.4-2971.6 2995.4-625.68 5101-319.77 7846.5 1140 4152.9 2208.1 8731.6 2641 33623 3178.8 7680.4 165.97 15678 521.89 17773 790.93 5745 737.91 7453.9 638.72 9320.9-541 937.23-592.22 3235.8-1464 5108-1937.4 3184.1-805.02 3511.3-799.2 5066.5 90.1 1009.1 577.05 1662.5 1640.4 1662.5 2705.6 0 1588 260.91 1770.9 2743.6 1922.5 3370.8 205.88 3809.7 1211 1743.1 3991.9-1500.2 2018.7-1643 2066.5-7451.3 2491.7-8825.3 646.19-16776 797.93-18201 347.35z"/>
<path d="m414964 39979c-1093.2-1800.2-3007-12718-3007-17154 0-5626.4 1871.5-8176.2 6747.3-9193 4529.3-944.53 6550-374.37 7169.2 2022.8 281.7 1090.7 122.06 2823.7-354.74 3851.2-1368 2948.1-1014.5 11688 573.38 14175 1497.3 2344.7 1729.6 5965.1 435.27 6782.9-531.14 335.61-1613.1 18.913-3061-895.96-2600.2-1643-5044.8-1582.4-5432.4 134.64-319.59 1415.4-2271.5 1591.4-3069.9 276.76z"/>
<path d="m445128 43967c-577.53-439.71-752.64-3747.9-499.99-9445.6 428.79-9669.7 515.05-9818 6121.3-10518 3226.9-402.75 4515.8 209.52 5867.7 2787.3 1072.4 2044.7 924.97 11401-196.97 12504-448.16 440.83-859.07 1162.8-913.14 1604.3s-163.45 1381.1-243.07 2087.8c-143.92 1277.6-153.35 1278.8-1625.8 210.19-814.59-591.18-2304.4-1239.1-3310.7-1439.8-1539.2-307.02-1919.3-106.93-2394.6 1260.4-608.69 1751.1-1399.4 2018.6-2804.7 948.67z"/>
</g>
</g>
</g>
<animate attributeName="display" values="none;inline;none" keyTimes="0;0.5;1" dur="0.5s" begin="0s" repeatCount="indefinite" />
</g>
</svg>
