<svg version="1.1" viewBox="0 0 55 55" xmlns="http://www.w3.org/2000/svg">
<g transform="translate(-.024588 -.022226)">
<g transform="matrix(.077283 0 0 .088476 3.8706 41.761)">
<g transform="matrix(.075402 0 0 .094631 650.5 76.675)">
<g transform="matrix(.14305 0 0 .15756 -4238.5 -2889.6)">
<path d="m-10553-18438c-3539.2-62.51-6927 577.74-10483 492.21-3125.2-133.62-6234.9-414.9-9371.5-136.87-1484.3-355.25-6284.2 752.43-2958.7 1032.5 5393.7 86.665 10880-1085.7 16205-46.918 1838.9-139.77 3695.8-99.624 5544.2-122.22-470.36 6423.8 62.656 12855 210.4 19280-63 4611.4 867.93 9202.5 768.43 13811 259.5 1504.4-22.577 2529.7-2712.1 2090-3844.1 6.195-7717.2 144.67-11523-170.71-2344.1-360.5-7233.4 1315-5868-1378.9-100.13-3118.1-688.28-6227.1-269.34-9348.8 311.51-3784.4-352.8-7577.9-273.61-11354 169.93-823.74-18.816-2613.2-97.515-3957.6-246.01-1885.4-1134.6-3906.2-2030.8-5576.3 631.4 3425.4 1197.2 6857.1 1282.5 10309 386.85 3613.5 439.62 7259.1 324.76 10860-416.88 2345.9-106.16 4702.7 140.59 7043-833.21 1075.7 1735.2 3776.6-571.68 3644.5-1513.7-308.48-4786.3 984.62-1919.1 1085.5 5094.8-461.01 10233-171.47 15343-38.603 2608.6 22.624 5217.5 17.841 7826.2 25.081-387.74 1040.9 727.08 2162.8 1751.6 1336.7-239.39-1036.5 77.244-1613.9 1819.3-1313.2 4569.7 77.133 9052.3 761.57 13632 831.92 5247.8 229.24 10661-91.305 15681 1128.2 1501.2 76.925 6954.3 1375.7 5800.7-415.58-2849.9-507.05-6016.6-549.23-8896.2-1198.1-2555.7-45.45-4849.9-512.53-4183.4-2431.6 605.23-2063 5519.2-1100.2 8083.2-1559.5 3735.4 759.3 2438.3-2490.7 2789.4-3843.5-192.08-1960.5-267.54-4048.7-1651.6-5836.5-4416.3-1451.8-9600.5-851.58-14354-1396.2-3161.4-218.45-6321.9-465.92-9492.3-503.31-412.9 2683.4 36.924 5424.8 159.85 8127.3 601.88 1652.4-10.96 4510.7 3984.5 4163.2 2959.4 100.66 5921.3-23.547 8879.5-88.572-115.8 1159.4 772.69 3893.7-2088.8 2531.6 1191.2-716.13 521.87-3082.7-934.09-1672.1-495.31 956.39-656 2384.8-2741 1903.8-5466.1-67.71-10857-685.48-16286-991.07 567.62-5016.8-812.85-10013-682.5-15034-346.09-4929.5-31.294-9873-545.49-14792-264.13-2109.5 784.38-4247.5 492.74-6314.8l-318.96-106.22zm12305 23184c2336.9 699.3 5151.1 455.62 7696.8 766.85 4003.6 504.74 8205.7 170.77 12123 926.77 2186 1180.8 1619.8 3530.2 1930.7 5236.8-344.65 817.62 811.82 2946.7-1384.5 2663.8-6325.5 227.23-12650 1217-19008 609.06-1631.9-3301.6-1176-6793.7-1358.9-10203z"/>
<path d="m-26618 4465.2c-990.04 48.296-103.41-688.52-1100-923.93 829.23-308.91 2315.3 344.09 3442.9-24.766 2677.9-206.08 5384.9-167.13 8059-365.35-4.321-260.24 1096-101.14 1196.5-415.06 323.96-22.056 1369.2-17.338 1632.1 168.01-99.302 890.46-1730.8 1025.5-2722.5 1218.6-1560.7 127.16-3145.2-4.2674-4701.2 125.84-1036.8-42.659-2606.7-91.082-3816.2 158.14-645.84 5.7489-1349.7 118.4-1990.6 58.49z"/>
<path d="m-24043 164.72c470.51-744.3-325.23-391.92-679.37-423.56-274.53-1059 1951.5-1013.9 1913.4-119.43-561.84 58.925-803.62 1048.5-1234.1 542.98z"/>
<path d="m-27995-388.63c281.77-398.37 247.7-650.49-352.36-690.11 306.61-672.19 1029.1-555.73 1621.7-457.31 762.68 459.73-520.04 1248.2-1119.8 1374-151.54-15.497-149.9-151.21-149.57-226.55z"/>
<path d="m-17754-279.09c-1258.9-110.17-1109.5-1685.5 229.48-1304.8 985.39 66.884 1822.1 1182 438.65 1503.5-253.93-5.9243-465-106.9-668.13-198.71z"/>
<path d="m-19037-3775.9c-2652.5 12.451-5028.6-1037.5-7687.4-1012.5-968.62 72.034-1292.1-236.47-1075.2-829.09-1195.7-530.83 1141.2-233.19 1514.7-66.243 3070.7 408.42 6132.7 951.99 9266.8 1039.7 843.38-35.255 3333.7 45.872 2467.9 928.62-1454.3 204.39-3020.1 40.338-4486.8-60.506z"/>
<path d="m-28359-8646.8c418.29-349.3 517.66-855.02-227.53-861.26 819.41-677.87 3412.5 93.974 1650.8 698.14-410.92 63.866-1047.2 347.43-1423.2 163.12z"/>
<path transform="matrix(45.404 0 0 31.601 -9291.3 -5798.1)" d="m-205.84-174.19c2.1589-3.4932 2.4488-4.949 1.2684-6.3712-0.84144-1.0139-1.0498-2.1402-0.46291-2.5028 3.1338-1.9368 25.93-0.57497 29.059 1.7359 0.73324 0.54166 2.833 1.3452 4.6661 1.7857 5.2592 1.2638 6.7529 5.0082 5.7657 14.453-0.67445 6.4528-1.6074 8.9928-4.1783 11.375-5.7618-0.73377-49.154 15.27-36.118-20.476zm8.7993 3.4587c-250.86-153.28-125.43-76.641 0 0z" stroke-width="1.3332"/>
<path d="m-22358-10453c-568.98-463.39-2110.7 564.75-1635.7-403.42-7.826-322.43 379.2-631.97 1211.8-432.2 512.84-71.623 880.97 997.09 423.92 835.62z"/>
<path d="m-26500 12540c-881.46-7.221 489.27-859.36-588.29-894.83 2206.7-486.78 4529.2-308.88 6788-165.3 1286.9 182.42 2593.7-397.22 3792-170.62 949.38 37.855 1933.5 146.05 891.93 686.07-891.52 576.33-2385.5 58.049-3520.5 171.21-2473.5-66.437-4897.8 408.35-7363.1 373.48z"/>
<path d="m-25961 7445.2c-405.27-694.73 585.87-1990.2 1130.3-857.12 43.519 232.75-1204.9 746.13-663.19 921.27-158.2 9.4486-333.72 4.1108-467.14-64.146z"/>
<path d="m-22124 8029.7c-90.037-341.39-1.828-844.68-696.11-656.72-317.8-621.45 1338.3-724.77 1774.8-149.94 70.544 542.58 13.991 539.01-528.09 314.65-566.01 22.9-103.88 569.37-550.58 492z"/>
<path d="m-18867 7638c-1180.9-168.42-1368-1771.2 193.32-1231.7 633.65 345.69 1798.7 767.84 432.58 849.47-332.08 332.64 824.16 279.91-182.12 395.84l-250.13 7.5183z"/>
<path d="m8499.8 5501.4c-841.7 48.662-2911.6-1139.2-2181.4-860.67-1254.6-193.92-1978.1-1487-1769.8-1259.7-515.28-774.46-1065.7-1629.7-965.24-2605.5-15.75-904.68 92.845-2144.9 1131.5-2446.5 616.36-216.22 2435.9-561.51 2017-298.23 1001.1-585.92 458.82-2178.9 492.07-1774.7-321.8-587.58-1144.9-2005.9 113.49-2025.5 697.12-154.04 2926.5-264.35 2162.7-585.84 870.14-20.609 3362.4 744.36 2547.1 370.22 458.83 24.696-219.15-2640.8 12.53-1591.3-78.72-309.37 278.87-1445.2 299.85-544.24 771.11 1226.4 1080.9-2481.3 1191.9-1159.7 649.75-655.22 236.31-1731.7 1131.3-2205.1 225.96-357.04 1837.5-808.57 1162.7-61.136-335.8 102.4-1715.8 607.71-599.75 500.52 471.63-19.796 594.21 816.94 204.5 596.09 190.34 1515.2-803.03 71.435-87.13 524.49-296.21 325.38-471.22 105.83-249.43 335.6-600.48 125.6-575.4 1346.9-215.89 875.17-343.77 1104 406.82 2131.3 958.58 3020.3 161.17 726.81-2008.6 1773.9-1493.6 1429-776.19 304.29-3285.9 620.33-2442.9 701.29-579.02 70.192-1717.2-990.89-1683.2 97.873 324.93 1574.7-1639.1 2211.2-1230.1 1946.9-791.73 280.06-1637.1 301.25-2466 359.1 18.42 1055.6-247.45 2205.4 390.47 3139.9 461.64 1001.9 1230.9 1840 2211.8 2351.7 584.05 148 1492.7 1005.4 405.05 1157-346.33 57.543-699.76 38.871-1048 12.973zm-4121.4-4919.8c14.857-788.02 119.91-1849.9 1033.1-2084.7-459.24-280.34-1178.5 2024.9-1317.1 1257.9-28.661 417.17 644.09 1561.4 174.74 1518.8 84.431-220.22 97.299-459.08 109.28-691.99zm4736.9-4648.4c-644.89-514.38-410.34 446.44 0 0z"/>
<path d="m18228-3479.6c54.31-153.25-217.98-265.25-142.63-211.41 90.813-321.66 390.49-546.73 439.42-890.14 172.32-706.47 40.7-1521.7-479.78-2056.6-371.13-429.48-810.98-795.59-1286.2-1103.9-262.37-232.37-516.72-523.63-578.48-878.73 226.96-117.32 631.93-39.19 671.77-418.78 103.39-270.15 421.43-266.5 544.76-508.07 179.63-174.39 434.68-83.526 370.51 184.27-12.97 295.25-0.53 647.4 299.34 803.72 362.05 255.29 759.18 456.74 1139.6 678.82 298.9 239.38 611.03 483.82 803.68 820.76 172.54 239.56 155.5 561.72 197.06 845.09 72.77 629.7-126.99 1287.7-572.7 1744.7-371.97 379.26-802.64 705.27-1264 967.92-38.14 9.067-107.98 65.863-142.39 22.377zm-1001.2-4657.8c86.14-99.382-280.56 24.912-287.54-168.29-4.24-300.39-633.17-365.89-354.02-21.015 127.24 219.38 417.83 374.23 641.56 189.3z"/>
<path d="m17027 5814.3c342.06-252.15 652.69-554.26 1046.1-747.64 733.65-453.07 1529-864.1 2052.7-1573.8 169.18-291 675.05-689.93 416.99-1027.7-432.87-12.396-715.55 413.59-969.66 709.48-194.26-184.35-1001.9 1645.7-239.49-155.44-181.48-235.3-724.37-173.31-708.78-638.89-83.11-388.52-162.27-875.1 116.23-1201.6 283.81-87.152 323.29 344.42 697.93 329.14 91.13 5.946 240.8-71.405 329.16 60.733-148.18-284.92-415.97-504.79-749.31-517.51-137.82-97.175 97.76-266.58 75.88-280.84 244.19-14.667 490.86 121.3 239.99-168.66-176.32-569.37 122.79-1275.2-348.15-1742.5-451.06-516.71-1025.7-896.06-1586.5-1279-417.71-428.33-89.33-385.01-21.88-486.41 39.55-329.83 1313.8-319.44 1010.8-293.82 487.43 29.855 927.54 285.94 1363.6 484.7 324.38 230.35 601.5 502.68 714.79 874.43 482.07 171.62 748.41 743.85 595.99 1231.4-83.97 451.9-449.53 783.35-559.96 1221.2 505.14 114.51 683.11 68.405 746.37 260.44 425.46-119.66 705.17 343.06 1097.9 448.47 417.04 136.47 758.91 578.79 390.33 973.46-591.16 901.01-1485 1547-2360 2151.5-1060.7 689.76-2207.7 1327.8-3480.2 1497.9-130.85-10.309 108.18-111.97 129.26-128.96z"/>
<path d="m10392 10375c-62.18-12.72-150.53-27.72-196.34-33.32-48.314-5.92-99.69-31.03-122.34-59.8-21.48-27.28-77.884-73.41-125.34-102.51-86.895-53.28-298.89-268.06-298.89-302.82 0-29.37-228.57-300.89-270.82-321.71-20.863-10.28-142.03-111.22-269.26-224.31-313.6-278.74-328.13-289.73-383.02-289.73-26.377 0-57.59 14.72-69.362 32.71-11.773 17.99-40.41 43.84-63.639 57.44-126.47 74.05-332.84 266.38-332.84 310.18 0 56.69-99.547 179.01-175.3 215.39-27.947 13.42-50.812 35.29-50.812 48.6 0 13.3-15.182 27.12-33.736 30.7-18.556 3.58-36.184 25.31-39.176 48.29-2.991 22.97-17.738 41.78-32.772 41.78-15.033 0-18.883 7.91-8.555 17.58 27.921 26.14 58.675 225.42 34.788 225.42-11.315 0-76.903-15.75-145.75-35l-125.18-35-19.233 44.35c-14.876 34.3-42.868 45.01-123.6 47.31-183.19 5.19-232.09-2.18-299-45.11-35.988-23.08-94.131-44.78-129.2-48.21-219.68-21.48-242.6-221.81-51.481-450.13 54.484-65.09 120.23-165.68 146.11-223.54 46.733-104.48 113.77-201.79 188.36-273.42 21.411-20.56 72.069-68.75 112.57-107.08s73.64-78.66 73.64-89.61 69.044-69.46 153.43-130.03c239.33-171.76 331.09-247.42 331.09-273.02 0-12.97-40.254-47.37-89.453-76.43-49.198-29.06-197.13-141.16-328.74-249.11-131.61-107.95-336.05-271.98-454.31-364.51-283.53-221.83-624.66-511.12-693.31-587.94-37.079-41.5-48.297-82.03-34.49-124.62 24.573-75.8 146.96-192.14 203.29-193.24 22.207-0.44 40.376-9.21 40.376-19.49s20.946-18.69 46.546-18.69c71.105 0 87.433-29.56 45.643-82.64-31.205-39.63-28.446-54.06 15.74-82.32 59.052-37.76 72.036-125.31 21.275-143.47-54.443-19.47-36.176-46.51 46.077-68.2 198.87-52.43 476.41 128.94 1531.7 1001 219.36 181.27 426.87 338.26 461.14 348.88 47.603 14.74 83.067 10.98 150.28-15.92 118.17-47.29 336.48-94.36 388.27-83.7 23.04 4.74 66.646-7.52 96.903-27.25 30.257-19.72 76.815-41.65 103.46-48.74 26.648-7.08 99.325-30.8 161.5-52.71 62.179-21.91 178.46-60.84 258.41-86.51 79.945-25.68 206.89-70.39 282.09-99.36 299.84-115.52 562.39-114.71 658.66 2.03 39.673 48.1 44.728 76.49 20.719 116.35-22.324 37.06-19.98 69.17 7.891 108.11 33.429 46.7 31.109 62.93-14.79 103.47-51.676 45.64-51.026 51.87 12.816 122.75 77.051 85.55 61.499 114.55-86.74 161.78-296.62 94.5-1000.8 379.89-1090.6 442.02-17.765 12.29-57.738 27.87-88.828 34.62-84.657 18.38-70.418 56.11 84.998 225.24 77.838 84.7 188.97 221.01 246.95 302.9 57.986 81.89 159.88 216.19 226.43 298.44 154.65 191.12 231.66 323.94 204.02 351.87-11.966 12.09-9.24 15.38 6.058 7.32 35.72-18.82 238.84 223.73 240.04 286.64 0.5 26.21-13.268 55.87-30.596 65.9-20.472 11.84-18.526 42.7 5.558 88.11 32.594 61.46 29.778 72.97-23.35 95.45-57.563 24.36-57.886 29.29-6.838 104.49l53.573 78.93-109.21-11.86c-77.689-8.44-112.28-4.64-119.85 13.14-8.704 20.46-31.15 20.8-123.69 1.86zm-101.41-331.01c44.873-31.29-11.844-77.96-116.63-95.97-87.235-15-89.929-4.61-17.261 66.58 62.096 60.84 82.401 65.29 133.89 29.39zm1.47-173.49c-47.252-32.95-70.187-23.29-42.792 18.03 11.162 16.83 34.013 25.7 50.78 19.7 18.175-6.5 14.95-21.73-7.988-37.73zm-35.095-161.25c-5.677-23.03-33.878-44.46-62.669-47.64-40.214-4.43-48.699 5.27-36.61 41.87 19.793 59.92 113.98 65.39 99.279 5.77z"/>
<path d="m13471 10317c-165.82-6.76-168.32-7.79-250.33-103.02-147.92-171.78-88.11-427.18 182.76-780.49 43.352-56.54 88.778-125.85 100.95-154.02 48.169-111.48 418.01-516.47 516.57-565.65 127.12-63.43 376.62-307.34 376.62-368.19 0-21.57-37.199-44.55-94.797-58.57-114.28-27.81-173.25-69.68-373-264.86-194.31-189.87-221.97-231.2-176.13-263.16 19.677-13.72 27.705-32.5 17.84-41.74-9.865-9.23 15.401-34.91 56.145-57.07 64.839-35.25 87.085-37.65 178.31-19.24 57.326 11.56 110.65 17.3 118.51 12.76 7.853-4.55-14.692-42.97-50.101-85.38-76.278-91.36-81.284-132.41-17.865-146.49 88.065-19.56 149.29-95.19 116.93-144.44-26.986-41.08-20.261-46.63 69.042-56.96 135.71-15.71 275.57 37.65 448.47 171.1 221.26 170.77 424.54 302.31 484.07 313.24 67.185 12.34 208.5-21.53 332.61-79.72 78.379-36.74 540.02-173.03 586.12-173.03 8.29 0 40.676-12.07 71.969-26.82 148.76-70.12 364.35-158.78 494.56-203.38 79.067-27.08 237.32-104.13 351.68-171.22 150.6-88.35 231.2-121.97 292.32-121.97 46.418 0 98.986-8.45 116.82-18.77 62.712-36.29 155.55 26.77 148.23 100.69-18.836 190.35-9.089 333.09 27.077 396.5 31.362 54.99 24.949 69.06-63.823 139.97-54.278 43.37-98.688 86.64-98.688 96.16 0 19.7-611.83 369.62-646.27 369.62-12.356 0-65.536 23.13-118.18 51.4-244.58 131.36-364.81 191.6-382.37 191.6-32.026 0-175.4 101.34-176.49 124.75-0.561 12.06 46.22 58.35 103.96 102.87s145.25 115.26 194.48 157.21c49.225 41.95 114.64 92.4 145.36 112.1 30.72 19.71 120.29 86.3 199.05 147.98s152.81 116.35 164.56 121.49c50.264 21.99 429.57 331.24 489.09 398.75 42.088 47.74 59.23 94.42 48.458 131.97-10.349 36.07 9.677 96.06 52.823 158.22l69.491 100.12-75.941 35.59c-76.181 35.7-78.285 55.47-18.664 175.41 15.772 31.73 2.452 37.74-88.051 39.75-183.44 4.07-420.56-32.25-670.45-102.71-307.79-86.77-569.25-238.83-1153.8-671.02-240.1-177.51-463.57-331.12-496.61-341.35-66.056-20.46-104.43 8.02-511.69 379.82-339.7 310.11-451.36 450.84-506.83 638.76-27.42 92.9-63.474 183.51-80.118 201.36-16.645 17.86-30.263 56.91-30.263 86.79 0 32.3-20.719 58.94-51.093 65.68-50.491 11.21-95.547 10.96-423.26-2.39zm3493.8-960.18c-30.036-79.14-109.76-120.85-217.31-113.69-114.52 7.63-114.19 34.63 0.601 49.22 57.718 7.33 104.49 31.06 131.91 66.91 56.495 73.85 113.14 72.23 84.799-2.44zm-209.24-149.82c0-9.08-14.847-16.51-32.993-16.51s-49.186-20.57-68.977-45.71c-42.564-54.06-120.92-75.85-169.91-47.26-25.211 14.71-19.194 16.93 21.552 7.96 32.753-7.22 56.526-3.75 56.526 8.24 0 11.38-25.437 21.66-56.526 22.86-51.343 1.97-51.125 2.97 2.371 10.98 38.05 5.69 51.954 19.28 39.282 38.39-10.789 16.27-3.649 35.3 15.867 42.28 45.939 16.43 192.81 0.26 192.81-21.23zm113.05-16.51c10.98-10.28 4.57-18.7-14.244-18.7s-34.208 8.42-34.208 18.7 6.41 18.69 14.244 18.69c7.835 0 23.228-8.41 34.208-18.69zm-360.26-208.1c-32.812-7.47-47.718-14.18-33.125-14.9 47.382-2.35-68.795-57.39-121.13-57.39-77.077 0-60.699 28.76 29.994 52.67 44.414 11.71 80.752 35.12 80.752 52.02 0 26.03 7.898 26.94 51.583 5.96 46.839-22.5 46.096-26.03-8.075-38.36z"/>
<path d="m6322.4 14449c-44.414-4.68-94.561-16.21-111.44-25.62s-56.339-17.11-87.691-17.11c-66.218 0-128.08-57.31-115.08-106.6 4.942-18.75 55.86-86.21 113.15-149.91s104.16-131.38 104.16-150.39c0-19.02 21.341-50.91 47.424-70.87 26.083-19.95 47.886-76.15 48.451-124.87 0.993-85.47 9.935-93.71 253.56-233.66 310.35-178.28 467.94-260.63 635.74-332.23 71.062-30.32 159.39-73.08 196.29-95.02 90.755-53.96 540.04-231.87 585.54-231.87 20.053 0 41.305-6.38 47.226-14.17 18.103-23.84 826.12-266.22 887.49-266.22 24.123 0 43.86-8.25 43.86-18.33 0-10.09 37.477-23.78 83.282-30.43 45.805-6.66 154.75-32.05 242.1-56.44 87.349-24.38 170.23-44.34 184.18-44.34 13.95 0 148.48-30.19 298.94-67.09 150.47-36.9 379.69-82.93 509.37-102.28 129.69-19.36 245.97-38.75 258.41-43.11 59.03-20.65 1035.2-125.5 1380.9-148.32 345.78-22.82 1087.3-25.7 1306.5-5.07 44.414 4.18 132.13 8.3 194.92 9.16 91.146 1.24 125.71 12.86 171.41 57.63 65.92 64.58 118.19 72.85 118.19 18.69 0-23.18 21.474-37.34 56.527-37.28 57.861 0.11 276.49 30.47 363.39 50.47 26.649 6.13 68.935 13.54 93.97 16.46 41.148 4.79 159.79 33.92 576.28 141.46 75.504 19.5 180.89 40.49 234.18 46.66s96.902 18.58 96.902 27.57c0 9 28.213 16.36 62.696 16.36s71.679 8.41 82.659 18.69c10.979 10.28 42.15 18.7 69.269 18.7 27.118 0 152.57 29.44 278.79 65.42 126.22 35.98 241.67 65.42 256.57 65.42s139.32 30.01 276.5 66.68c367.03 98.12 370.32 98.96 475.52 122.09 53.296 11.72 211.79 36.51 352.2 55.08 182.87 24.19 276.8 47.19 331.08 81.07 87.036 54.32 97.17 86.32 27.339 86.32-26.648 0-48.452 8.21-48.452 18.23 0 11.09 28.457 12.09 72.678 2.54 39.972-8.63 104.88-12.72 144.23-9.1 94.383 8.69 235.3-23.21 235.3-53.26 0-14.41 38.491-23.17 97.377-22.16 53.558 0.91 166.21-4.42 250.34-11.86 125.58-11.1 179.02-5.9 298.62 29.08 249.19 72.89 303.58 107.21 299.4 188.94-7.469 146.14-44.934 202.88-197.37 298.91-217.1 136.76-342.58 160.06-794.99 147.62-499.04-13.72-1116.7-110.13-1762.2-275.05-273.09-69.77-339.68-85.16-861.68-199.15-287.38-62.76-650.77-135.4-807.52-161.44-156.76-26.03-306.81-52.68-333.46-59.21-63.934-15.69-58.531-15.06-468.36-54.27-403.01-38.55-1098.5-42.34-1437.4-7.82-115.48 11.76-304.44 28.52-419.91 37.23-274.82 20.75-383 34.92-500.67 65.6-53.296 13.89-184.12 37.39-290.71 52.23-173 24.07-255.86 39.22-484.52 88.55-110.32 23.8-449.7 112.76-500.66 131.23-26.648 9.66-84.79 26.49-129.2 37.39-619.45 152.09-1672.2 511.66-2056.5 702.41-103.61 51.43-170.64 82.28-370.74 170.65-99.441 43.92-256.23 127.51-348.42 185.75-163.73 103.45-171.87 105.98-351.42 109.34-101.1 1.89-220.15-0.39-264.56-5.08zm5048.9-2172.4c-9.856-21.81-34.546-32.04-62.402-25.86-35.365 7.85-37.462 16.26-9.012 36.09 53.287 37.16 90.425 31.84 71.414-10.23z"/>
</g>
</g>
</g>
<animate attributeName="display" values="inline;none;none" keyTimes="0;0.5;1" dur="0.5s" begin="0s" repeatCount="indefinite" />
</g>

<g transform="matrix(.077283 0 0 .088476 3.8706 41.761)">
  <g transform="matrix(.075402 0 0 .094631 650.5 76.675)">
   <g transform="matrix(.14305 0 0 .15756 -4238.5 -2889.6)">
     <path d="m26970 21620c-28.164-18.563-438.35-58.395-911.51-88.516-473.17-30.12-1026.2-71.851-1229-92.739-602.2-62.023-4677.9-214.37-6267.9-234.3-811.14-10.162-1834.3-26.591-2273.7-36.506-439.37-9.918-2204.1-27.522-3921.5-39.122-1717.5-11.598-3902-55.757-4854.6-98.13-1797.4-79.954-4744.9-299.91-5173.1-386.04-135.19-27.187-743.55-87.906-1351.9-134.92-608.36-47.019-1548.5-123.93-2089.3-170.92-540.76-46.984-1504.7-109.98-2142-140-637.34-30.014-1191.2-68.967-1230.9-86.562-39.645-17.598-1039-59.039-2220.8-92.096-1181.8-33.056-2204.1-85.584-2271.8-116.73-67.665-31.147-3054.2-62.184-6636.8-68.967-3582.6-6.788-7854.9-43.023-9494.1-80.527l-2980.3-68.187v226.57c0 317.14-119.5 505.79-320.4 505.79-94.161 0-171.2 35.087-171.2 77.972 0 42.884-141.18 97.353-313.73 121.04-263.66 36.196-347.02-6.919-522.33-270.19-248.33-372.93-506.09-460.13-599.76-202.91-90.723 249.15-284.8 236.9-284.8-17.959 0-402.34-283.81-545.76-1096.8-554.25-411.4-4.299-784.58-34.084-829.3-66.197-44.716-32.111-390.09-60.138-767.5-62.28-377.41-2.145-955.24-54.819-1284.1-117.06-907.77-171.82-1376.8-722.44-803.17-942.91 222.6-85.554 247.25-151.24 179.17-477.28-66.386-317.92-43.902-384.4 141.31-417.89 121.14-21.904 1013.9 15.394 1983.9 82.879 970 67.486 1781.2 110.09 1802.7 94.67 21.467-15.417 106.07-524.46 188.01-1131.2 154.27-1142.3 88.625-3529-136.4-4959.5-244.15-1552-256.22-2686.7-58.97-5543.5 142.94-2070.2 198.73-4346.1 186.06-7590.5-9.953-2548.5 41.01-5328.8 113.25-6178.3 15.48-3360.9-210.24-4243.3-105.03-5781.1-330.31-1757.9-321.18-2137.9 68.16-2836.8 204.5-367.09 291.05-651.16 241.56-792.79-57.345-164.08-7.867-260.99 192.84-377.7 243.34-141.5 257.36-192.69 142.1-518.79-94.176-266.45-90.403-372.12 14.314-400.98 127.9-35.244 634.94-9.982 3084.8 153.7 2192.6 146.49 8481.9 155.86 11565 17.225 2308.9-103.81 3462.8-120.51 4117.2-59.565 500.06 46.57 1296.3 103.85 1769.5 127.3 1396.1-56.552 1641.7 990.86 2197.9 1636.4 243.56 199.63 419.86 947.73 708.82 3007.8 326.37 2326.7 336.84 6529.2 21.657 8693.7-226.25 1553.8-243.99 2485.8-183.12 9620.5 26.773 3138.4-6.3183 5164.3-93.595 5731.1-74.256 482.2-131.67 1838.4-127.58 3013.8 31.32 3156-264.87 3865.4-127.49 4620.2 0 117.14 495.8 171.12 2089.3 227.44 777.35 27.475 1883.5 87.305 2458 132.96 574.56 45.652 1321.2 102.5 1659.2 126.32 740.42 52.199 1205.2 95.581 3441.2 321.17 946.33 95.478 2190.7 208.3 2765.3 250.73 1204.1 88.904 990.32 189.25 2237.6-1050.5 726-721.6 1161.8-1424.7 999.7-1613-98.135-114.04-2056.2-29.126-3923 170.12-1275.5 136.14-1388.1 135.84-1780.4-4.695-260.59-93.359-434.85-115.31-461.39-58.117-72.083 155.3-246.88 102.15-337.35-102.57-134.88-305.19-369.26-423.36-839.74-423.36-348.43 0-420.04-28.138-359.57-141.3 41.581-77.817-1.5625-175.54-96.033-217.51-233.27-103.63-186.09-2818 86.559-4981 149-1182 178.64-1999.3 115.78-3192.8-46.464-882.24-46.227-1787.3 0.49373-2011.1 73.61-352.53 139.16-423.31 489.23-528.36 222.33-66.711 780.31-150.22 1240-185.57 491.63-37.81 1060.4-150.08 1381.5-272.68 550.15-210.07 1416.5-279.73 1550-124.62 43.4 50.433 816.79 64.423 1942.9 35.145 1870.5-48.629 2056.4-37.48 5988 359.04 2038.1 205.55 2091 208.4 5965.2 320.96 3723.5 108.18 4037.2 142.37 4392.3 478.82 147.62 139.86 66.838 1989.2-104.18 2385.1-604.97 1400.5-830.78 2405.9-902.05 4015.9-39.752 898.06-53.696 1924.8-30.986 2281.6l41.293 648.73 327.41-60.297c440.2-81.071 1282.5-57.03 1418.2 40.484 64.212 46.111-24.875 243.51-215.09 476.61-267.52 327.82-481.45 452.25-1214.7 706.52-1332.7 462.12-2070.2 532.51-5621.7 536.54l-3134 3.556-39.127 220.65c-21.519 121.36-145.96 543.82-276.53 938.8-241.49 730.53-312.13 1490.1-145.22 1561.5 50.697 21.704 1751.3 64.517 3779.2 95.143 3518.8 53.142 5836.2 120.56 6636.6 193.06 202.79 18.37 728.19 55.255 1167.6 81.968 1425.2 86.65 2023.7 135.63 2243.1 183.56 245.83 53.704 543.87 388.1 345.92 388.1-67.916 0-117.92 129.08-111.13 286.85 18.718 434.51-390.5 1037.1-704.3 1037.1-141.78 0-280.82-15.188-308.98-33.75zm-15063-2455.6c41.575-111.46 76.346-386.93 77.27-612.15 0.98-225.22 88.188-737.01 193.93-1137.3 105.74-400.3 147.22-758.73 92.173-796.52-84.212-57.81-1420.2-126.72-1822.7-94.014-68.723 5.586-126.86 238.53-129.2 517.65-4.596 549.33-336.33 1194.7-792.3 1541.5-145.89 110.94-372.02 308.08-502.52 438.09l-237.27 236.38 278.61 33.301c153.24 18.316 838.38 42.86 1522.5 54.537 1205 20.572 1246.3 14.893 1319.5-181.42zm-21493-1394.2c38.438-169.9 97.343-1897.6 130.9-3839.4 33.554-1941.7 112.14-3887.9 174.64-4324.8 62.493-436.89 86.682-2561.8 53.752-4722-101.79-6677.5-85.682-7701.9 147.85-9399.8 433.8-3154 278.24-8657.3-313.02-11074l-204.48-835.83-423.59-72.076c-429.18-73.025-5214.7-103.3-5375.3-34.009-381.63 164.67-8260 210.88-10964 64.303-1081.5-58.625-1348.2-47.043-1646.9 71.523-711.56 282.4-784.74 937.12-304.2 2721.8 68.426 254.12 88.216 504.1 43.98 555.5-44.237 51.402-23.371 142.83 46.369 203.18 178.02 154.05 179.63 555.31 13.851 3457.1-80.428 1407.8-161.31 5081.6-179.74 8164.1-18.431 3082.5-97.01 6418.8-174.62 7413.9-190.99 2448.9-202.21 4234.7-31.609 5030.9 152.46 711.54 393.49 3963.6 336.88 4545.4-18.895 194.17-77.812 753.37-130.93 1242.7l-96.575 889.61 3980.6 108.19c5179.9 140.78 5313.1 142.6 10458 142.6h4388.1zm14566-2592.8c1529.1-171.42 3744.9-193.53 6329.4-63.139 1149.1 57.971 2725.3 137.51 3502.7 176.76 777.35 39.247 2402.5 67.002 3611.5 61.679l2198.1-9.676 153.9-441.3c86.925-249.26 192.14-1401.5 241.77-2647.8 82.258-2065.6 114.47-2291.1 504.52-3530.4 443.15-1408.1 518.54-1977.2 264.85-1999.2-319.58-27.716-965.71-48.025-3471.9-109.13-3013.6-73.47-5160.9-194.71-6452.3-364.3-506.96-66.576-1471.5-168.88-2143.4-227.34-1950.5-169.69-5987.7 12.455-6828.3 308.07-299.62 105.37-305.73 126.55-245.8 852.8 102.52 1242.5 60.153 2982.4-98.719 4054.5-232.83 1571.2-364.74 3816.7-235.29 4005.2 128.23 186.79 487.98 177.8 2669.1-66.719z"/>
     <path d="m-13581 2081.7c-7.733-305.59-579.34-639.89-1094.1-639.89-363.28 0-317.99-88.8 236.34-463.37 769.27-519.81 1722-434.93 1722 153.41 0 444.66-451.86 1104.3-756.45 1104.3-57.12 0-105.61-69.506-107.76-154.46z"/>
     <path d="m-20213 2188.9c0-146.63-346.39-574.45-550.21-679.57-69.157-35.664-277.83-65.453-463.72-66.196-572.8-2.2907-383.8-232.45 368.7-448.99 388.67-111.85 734.33-230.55 768.13-263.8 49.358-48.551 1203.1-259.44 1419.4-259.44 121.16 0 41.751 682.49-117.69 1011.5-93.162 192.24-342.08 460.33-553.14 595.76-419.19 268.98-871.48 326.45-871.48 110.75z"/>
     <path d="m-25006 1568.2c-399.07-106.75-410.17-119.41-153.63-175.17 493.56-107.27 245.19-655.41-298.47-658.69-324.26-1.9564-532.26-119.28-427.43-241.1 119.03-138.31 1064-375.38 1496.3-375.38 196.75 0 371.54 58.844 414.7 139.61 209.79 392.61-33.443 1215.8-399.21 1351-121.76 45.028-373.2 28.996-632.3-40.317z"/>
     <path d="m-26666-1269.9c-459.77-81.161-581.27-208.75-363.41-381.64 166.06-131.78 171.2-184.37 33.826-345.82-89.11-104.72-310.57-212.28-492.14-239.01-181.57-26.735-358.02-100.82-392.12-164.64-124.29-232.61 394.26-369.68 1685.9-445.62 416.32-24.48 1073.3-83.927 1460-132.11 904.09-112.65 3772.3-114.12 5196.2-2.6589 608.36 47.62 2488.7 113.88 4178.6 147.24 3789.8 74.814 3907.2 98.098 3554.2 704.87-273.92 470.81-453.06 569.3-1185.5 651.79-825.1 92.918-5143 47.735-7479.1-78.262-1889-101.88-3338.7-36.383-4882.8 220.61-801.85 133.46-899.63 138.32-1313.6 65.248z"/>
     <path d="m-25867-7190.3-430.15-144.69 399.43-30.223c254.72-19.274 399.43-78.264 399.43-162.83 0-224.91-243.72-473.97-465.2-475.39-326.43-2.0919-533.84-131.09-453.26-281.89 44.815-83.868 295.91-157.79 649.39-191.19 2110-199.36 2180.7-184.86 2127.5 436.63-43.933 513.06-278.8 788.65-778.76 913.81-510.61 127.83-933.1 109.09-1448.4-64.226z"/>
     <path d="m-20828-7859.8c0-393.25-415.06-704.8-837.53-628.65-243.72 43.929-280.89 21.821-247.01-146.94 45.016-224.23 652.1-359.95 1235.4-276.19 266.9 38.329 351.77 111.61 416.58 359.72 108.82 416.58-79.376 937.13-352.34 974.54-172.01 23.572-215.08-32.993-215.08-282.47z"/>
     <path d="m-17264-7489.8-430.15-193.14 434.33-54.318c464.66-58.111 733.82-149.26 732.27-247.97-1.208-76.727-605.78-281.64-830.95-281.64-103.38 0-153.23-74.807-129.12-193.77 33.051-163.07 165.84-210.87 838.13-301.72 439.37-59.374 992.42-179.66 1229-267.3 449.15-166.38 1016-228.98 1382.6-152.68 315.61 65.669 287.94 728.43-47.456 1136.7-551.46 671.23-2257.4 969.55-3178.7 555.87z"/>
     <path d="m-25391 6513.7c-765.79-141.96-822.47-175.13-916.87-536.48-59.245-226.79-170.37-337.72-404.19-403.51-819.78-230.64-940.74-377.92-425.86-518.51 239.25-65.324 766.28-68.906 1699.9-11.553 745.06 45.771 1712.1 51.044 2152 11.734 1544.2-138 6209.9-421.19 6513.7-395.36 168.99 14.367 1358.1 54.479 2642.4 89.138 1284.3 34.659 2383.6 96.122 2442.8 136.58 59.252 40.462 117.67 239.39 129.82 442.06 17.619 293.92-46.966 421.58-319.13 630.82l-341.22 262.32-2736.8-43.89c-2176.8-34.908-3152-10.196-4766.1 120.77-4131.7 335.25-4874.1 363.51-5670.5 215.87z"/>
     <path d="m-16251 11417c-83.965-96.555-152.66-274.39-152.66-395.2 0-174.23-112.81-256.55-545.6-398.14-300.08-98.172-574.53-212.11-609.89-253.2-99.439-115.55 67.426-722.52 184.36-670.62 56.983 25.292 258.43-11.512 447.66-81.786 189.23-70.274 591.82-141.4 894.64-158.06l550.59-30.292 27.846 617.83c28.02 621.74-258.7 1457.5-520.41 1516.9-68.125 15.468-192.56-50.877-276.53-147.43z"/>
     <path d="m-21970 10356c44.704-122.76 3.771-176.52-134.41-176.52-109.28 0-198.69-44.989-198.69-99.975 0-166.61-509.75-429.59-832.71-429.59-257.48 0-280.01-20.321-148.62-134.02 301.58-260.96 2088.4-754.97 2470.8-683.14 230.54 43.296 251.17 92.728 184.49 442.09-103.86 544.16-313.04 819.83-801.14 1055.8-512.75 247.88-622.67 253.05-539.76 25.361z"/>
     <path d="m-25037 10462c-366.1-31.541-450.2-168.53-153.63-250.26 101.39-27.942 184.35-111.4 184.35-185.46 0-176.84-468.18-464.28-756.21-464.28-342.84 0-272.76-221.44 151.13-477.59 303.03-183.12 507.9-228.5 1031.5-228.5 720.88 0 802.58 59.257 802.58 582.15 0 310.73-397.17 839.61-733.2 976.33-103.71 42.198-340.65 63.621-526.54 47.607z"/>
     <path d="m-20705 15427c-101.39-13.941-758.77-73.622-1460.8-132.62-702.07-58.998-1421-161.44-1597.7-227.64-176.67-66.202-404.17-121.88-505.57-123.72-322.33-5.859-614.5-230-614.5-471.42 0-133.24-118.78-306.27-276.53-402.8-152.09-93.077-414.79-253.16-583.78-355.73l-307.25-186.5 1044.7 37.05c574.56 20.379 1431.8 101.28 1904.9 179.79 1055.6 175.14 6810 204.03 8183.9 41.076 1157.2-137.25 1457.6-32.972 1403.6 487.24-25.565 246.17-151.5 459.33-388.22 657.12-407.14 340.17-268.12 325.1-3791.6 410.97-1351.9 32.948-2541 71.744-2642.4 86.212-101.39 14.472-267.31 14.904-368.7 0.96z"/>
     <path d="m16286 6053.9c-320.82-339.18-279.13-573.3 115.08-646.09 276.37-51.035 1553.4-940.56 1966.2-1369.6 732.65-761.41 1444.3-1969.8 1160-1969.8-47.296 0-371.11 140.16-719.58 311.46-389.99 191.72-690.16 284.78-780.76 242.05-160.77-75.807 201.62-1559 469.5-1921.6 131.29-177.71 97.859-248.83-198.8-422.93-196.15-115.11-557.96-327.18-804.02-471.26-246.05-144.08-711.91-322.43-1035.2-396.33-418.56-95.678-702.49-241.6-986-506.76-360.19-336.88-396.51-454.71-380.87-1235.6 16.017-798.84 53.438-898.81 501.9-1340.6 266.52-262.57 519.69-529.29 562.6-592.7 49.91-73.777 302.26-121.48 700.72-132.48 610.74-16.851 623.01-12.138 638.64 245.64 8.757 144.55-60.597 262.82-154.12 262.82-93.532 0-127.12 20.076-74.654 44.613 52.48 24.537-49.402 174.54-226.4 333.33-594.19 533.09-382.51 1643.6 418.52 2195.6 208.8 143.89 425.26 358.74 481.01 477.43 130.94 278.79 483.16 422.62 766.05 312.82 248.33-96.375 794.7-38.259 1519.2 161.59 508.13 140.17 527.34 161.43 427.5 472.81-99.036 308.84-67.582 345.27 596.07 690.45 385.34 200.43 711.78 425.65 725.43 500.5 77.022 422.43-3.078 628.15-512.2 1315.3-308.56 416.47-596.76 841.01-640.45 943.42-335.94 787.48-1955.4 2010.9-2661.8 2010.9-153.62 0-325.77 35.143-382.54 78.095-70.56 53.386-174.32 50.501-327.92-9.1204-302.29-117.32-298.76 34.716 4.081 176.34 198.9 93.014 159.21 138.54-303.64 348.33l-532.44 241.33z"/>
     <path d="m13800-3876c-2436.1-645.57-2972.7-861.59-3335.8-1342.8-302.26-400.62-835.82-756.36-1134.4-756.36-284.97 0-304.35-374.85-37.262-720.27 149.09-192.81 305.49-256.8 715.64-292.78 288.67-25.324 686.58-27.052 884.25-3.8397 418.19 49.112 935.41 457.97 995.22 786.72 44.072 242.18 468.82 602.55 710.21 602.55 79.315 0 246.47 47.814 371.43 106.25 124.97 58.441 436.28 167.37 691.8 242.05 988.83 289.05 2289 791.3 2289 884.23 0 155-1042.6 629.85-1372.6 625.15-164.85-2.3511-514.72-61.252-777.5-130.89z"/>
     <path d="m7009.1 6309.9c-318.95-35.722-949.2-166.78-1400.6-291.23-451.37-124.46-889.19-226.28-972.92-226.28-83.745 0-152.26-53.477-152.26-118.84 0-65.363-134.15-207.8-298.11-316.53-965.95-640.59-1501.5-1447.1-1927.9-2903.4-241.59-825.13-232.47-2074.4 18.994-2600.9 112.47-235.48 207.1-461.67 210.33-502.63 3.2237-40.963 133.89-134.35 290.37-207.53 156.5-73.18 243.1-164.4 192.47-202.71-50.636-38.312 20.04-149.67 157.06-247.46 137.02-97.793 208.19-227.7 158.15-288.67-67.379-82.122 82.975-128.29 579.91-178.07 570.66-57.163 698.22-105.27 853.86-322.01 174.49-243 507.25-361.58 1046.8-373.03 267.25-5.6705 629.24 377.19 629.24 665.52 0 204.06 1034 1186.5 1385.6 1316.4 595.42 220.09 1024.1-146.6 832.84-712.42-73.406-217.14-197.61-433.6-276.01-481.01-78.415-47.412-487.77-287.06-909.71-532.56-1180.1-686.6-1730.7-1297.7-1706.7-1894.4 22.74-566.02 299.61-1111.9 904.91-1784.2 601.1-667.62 1583.4-1311.6 1873-1227.9 81.073 23.43 45.234 97.243-80.231 165.28-285.16 154.63-580.22 555.2-694.03 942.21-48.182 163.85-137.69 431.97-198.91 595.83-61.208 163.85-92.748 514.98-70.095 780.28 50.055 586.01 397.64 928.18 1649.2 1623.5 1182.5 656.94 1491.3 939.29 1353 1236.9-59.363 127.71-121.47 473.02-138.01 767.36-24.628 438.17-90.105 559.65-361.28 670.31-182.16 74.332-447.84 235.7-590.41 358.58-559.17 481.97-1187.8 707.54-1971.7 707.54-632.2 0-1048.8-157.98-1616.9-613.2-699-560.08-1221.2-831.21-1503.5-780.56-466.56 83.724-535.17 1530.1-131.48 2771.6 455.78 1401.6 1822.2 2552.3 3556.9 2995.1 479.45 122.41 822.75 258.93 795.34 316.29-26.516 55.51 45.147 128.84 159.27 162.95 162.68 48.629 117.8 138.54-207.92 416.46-451.4 385.14-569.02 410.76-1438.6 313.37zm-3481.3-7369.5c0-40.963-75.889-74.478-168.67-74.478-92.762 0-124.36 33.515-70.225 74.478 54.136 40.963 130.04 74.478 168.67 74.478 38.627 0 70.225-33.515 70.225-74.478zm318.53-372.39c0-40.963-75.889-74.478-168.65-74.478-92.777 0-124.38 33.515-70.24 74.478 54.136 40.963 130.04 74.478 168.67 74.478s70.225-33.515 70.225-74.478z"/>
     <path d="m6552.8 14750c-146.92-18.193-383.02-105.01-388.69-142.93-12.48-83.44 27.615-153.14 166.12-288.76 85.261-83.491 155.02-160.39 155.02-170.88 0-10.492 23.695-47.86 52.656-83.037 28.96-35.176 52.752-96.819 52.873-136.98 0.183-61.131 26.32-84.777 160.44-145.14 88.122-39.66 238.29-98.821 333.7-131.47 95.413-32.648 220.07-80.376 277.01-106.06 56.943-25.685 113.47-46.7 125.61-46.7 12.141 0 128.66-38.216 258.92-84.925 245.25-87.938 1073.1-316.89 1146.7-317.13 22.995-0.08 84.359-14.2 136.37-31.388 52.007-17.188 146.66-38.5 210.33-47.359 63.676-8.861 140.09-23.948 169.8-33.528 99.972-32.23 1097-176.97 1605-232.99 174.48-19.243 388.61-44.411 475.85-55.929 87.24-11.517 292.69-27.075 456.56-34.572 163.87-7.496 309.44-18.133 323.5-23.634 30.879-12.091 1505.7-10.925 1705 1.349 77.546 4.775 370.99 20.425 652.09 34.778 281.1 14.35 519.65 29.365 530.1 33.364 10.451 4 216.66 33.199 458.23 64.887 241.57 31.686 517.09 72.595 612.26 90.907 95.168 18.311 226.03 33.294 290.8 33.294 64.771 0 117.77 9.104 117.77 20.233s79.721 27.179 177.16 35.669c97.435 8.488 196.76 27.853 220.72 43.031 46.218 29.278 114.04 37.55 296.3 36.137 61.922-0.48 121.42 8.182 132.22 19.248 10.796 11.066 51.423 14.854 90.279 8.417s93.663 0.395 121.79 15.183c28.128 14.787 68.603 20.05 89.947 11.693 21.343-8.356 73.588-18.002 116.1-21.437 42.513-3.433 93.158-9.544 112.54-13.578 19.388-4.034 92.285-0.112 162 8.716 113.46 14.368 254.6 95.903 359.06 207.43 40.628 43.38-171.08 324-288.27 382.1-60.175 29.833-109.41 66.354-109.41 81.154 0 14.802-31.905 44.219-70.901 65.369-129.71 70.357-874.31 45.665-1617.7-53.644-389.36-52.018-326.93-45.281-990.31-106.87-281.11-26.097-574.55-56.836-652.09-68.309-276.1-40.849-2278.9-18.575-2770.2 30.808-698.67 70.226-1598.6 183.81-1685.8 212.77-30.66 10.18-123.73 25.644-206.81 34.364-347.71 36.495-1137.3 221-1681.8 393-311.5 98.391-1169.2 425.6-1216.1 463.91-80.165 65.556-370.36 86.893-672.66 49.456zm10639-1646.7c58.487-34.935 55.615-51.835-8.812-51.835-29.079 0-52.872 10.048-52.872 22.328 0 12.282-17.846 19.818-39.654 16.747-21.809-3.07-46.381 5.944-54.6 20.031-19.138 32.794 98 27.332 155.94-7.271zm185.05 15.151c0-12.28-15.863-22.328-35.247-22.328-19.388 0-35.251 10.048-35.251 22.328s15.863 22.328 35.251 22.328c19.384 0 35.247-10.048 35.247-22.328z"/>
     <path d="m6516.7 11087c-31.195-11.549-102.57-20.49-158.62-19.871-233.51 2.586-450.64-39.775-516-100.67-75.18-70.04 89.702-493.25 295.23-757.76 55.689-71.674 101.25-151.22 101.25-176.78 0-41.656 195.55-290.73 281.37-358.38 18.643-14.697 200.72-152.32 404.61-305.83 203.89-153.51 370.92-294.18 371.18-312.6 0.463-33.76-278.89-307.9-398.2-390.76-168.52-117.04-351.47-285.1-481.14-441.97-143.2-173.25-172.75-239.07-107.32-239.07 19.386 0 35.248-18.538 35.248-41.197 0-22.658 31.723-59.383 70.497-81.61 38.773-22.229 70.496-49.967 70.496-61.643 0-11.674 39.654-51.081 88.12-87.568 55.228-41.578 88.122-93.981 88.122-140.39 0-47.834 20.331-78.991 57.428-88.01 44.333-10.776 53.212-33.867 38.94-101.27-14.499-68.484-7.93-84.745 30.466-75.41 27.287 6.6318 60.755-6.4275 75.617-29.51 44.934-69.783 233.58-63.04 402.3 14.385 80.479 36.931 203.36 77.161 273.07 89.404 69.713 12.242 150.54 32.498 179.62 45.016 46.254 19.91 45.15 26.509-8.813 52.708-33.926 16.471-61.683 50.919-61.683 76.552 0 52.917 621.97 585.12 682.89 584.33 43.336-0.565 341.8-174.43 418.48-243.78 67.811-61.328 805.33-559 1119.3-755.28 145.4-90.901 343.67-190.61 440.6-221.58 96.933-30.965 223.83-84.094 281.99-118.07 85.997-50.232 129.65-59.819 233.77-51.336 144.02 11.732 246.2 93.306 181.58 144.95-41.879 33.472-90.63 275.67-83.868 416.66 4.086 85.23-16.092 113.76-157.91 223.29-175.41 135.47-531.53 392.51-702.3 506.9-58.161 38.96-169.19 118.75-246.74 177.32-77.547 58.567-166.05 122.62-196.68 142.35-30.627 19.724-133.6 111.22-228.83 203.33-95.233 92.107-181.21 172.49-191.05 178.63-9.847 6.1408-71.53 77.723-137.07 159.07l-119.17 147.91 65.322 108.88c147.57 245.96 312.32 397.27 703.38 646.01 285.16 181.37 406.14 275.47 452.01 351.55 36.384 60.351 50.465 115.81 33.601 132.33-15.969 15.642-30.606 159.06-32.53 318.72-3.728 309.5 1.476 301.85-181.56 266.77-56.892-10.903-79.308-6.019-79.308 17.279 0 28.23-41.74 28.563-319.16 2.548-446.01-41.826-646.89-113.07-1074-380.92-269.9-169.25-451.79-359.71-511.25-535.37-33.643-99.373-46.712-110.62-118.41-101.94-44.326 5.366-142.65 60.321-218.5 122.12-75.851 61.799-185.5 149.78-243.66 195.51-58.16 45.731-169.19 140.55-246.74 210.71-77.545 70.159-192.54 171.63-255.55 225.49-63.007 53.861-114.56 107.43-114.56 119.05 0 11.613-23.694 49.896-52.654 85.073-28.96 35.175-53.257 94.1-53.994 130.94-0.736 36.842-22.409 84.571-48.163 106.06-53.626 44.749-54.876 44.909-131.02 16.72zm1343.2-2997.6c-0.03-15.35-39.679-57.105-88.122-92.787-105.52-77.73-114.91-52.59-17.967 48.131 73.983 76.866 106.16 90.41 106.09 44.656zm-705.46-524.73c-0.296-9.2113-15.297-31.528-33.333-49.595-40.61-40.677-88.253-15.237-59.709 31.884 21.081 34.801 94.039 48.689 93.042 17.711z"/>
     <path d="m15961 10939c-64.384-26.007-135.61-42.828-158.28-37.379-93.965 22.583-400.91-151.62-490.16-278.18-28.145-39.914-65.591-72.569-83.214-72.569-17.625 0-51.181-37.68-74.571-83.733-23.389-46.054-63.243-108.85-88.563-139.56-81.19-98.45-403.1-576.81-403.1-599 0-50.241-124.33-50.017-187.95 0.338-35.859 28.383-107.38 82.371-158.93 119.97-100.92 73.614-148 117.22-239.52 221.91-79.948 91.442-493.59 425.44-633.46 511.49l-113.91 70.08-311.26-14.438c-556.18-25.799-673.62-120.71-470.44-380.2 61.277-78.255 132.05-157.35 157.28-175.77 64.15-46.846 140.57-198.59 142.31-282.58 1.505-72.594 124.41-195.95 342.2-343.46 64.134-43.438 203.85-143.92 310.48-223.29 106.63-79.372 201.88-149.34 211.69-155.48 9.803-6.1409 62.848-49.415 117.88-96.166 116.27-98.776 109.39-143.65-44.198-288.23-55.9-52.622-149.3-158.15-207.55-234.52-240.62-315.41-399.1-434.42-754.59-566.66-129.9-48.318-245.58-97.493-257.08-109.28-33.462-34.297 163.73-267.74 289.78-343.06 63.441-37.906 115.35-82.709 115.35-99.56 0-46.378 118.15-131.82 167.79-121.34 52.258 11.035 59.902-74.832 8.454-94.975-76.269-29.859-28.171-76.148 114.56-110.25 140.79-33.633 164.52-33.096 394.21 8.9149 227.04 41.528 478.18 150.46 478.18 207.4 0 10.537 47.581 51.27 105.74 90.517 58.155 39.247 212.49 196.76 342.98 350.03 130.48 153.27 265.31 296.45 299.62 318.19 143.71 91.034 250.71 46.559 956.34-397.49 196.54-123.69 463.22-281.19 592.63-350 129.4-68.813 268.19-145.97 308.42-171.45 40.233-25.488 86.443-46.34 102.69-46.34 16.245 0 115.02-49.01 219.5-108.91l189.96-108.91 115.36 55.739c63.448 30.657 115.93 62.084 116.62 69.836 18.893 211.15 18.289 270.88-2.744 270.88-26.317 0-43.543 128.43-36.476 271.94 5.195 105.51-134.92 305.95-289.39 414-66.382 46.427-205.63 144.7-309.43 218.39-103.81 73.686-250.14 174.17-325.18 223.29s-160.6 118.47-190.13 154.11c-29.529 35.636-127.38 111.97-217.45 169.64-355.51 227.61-408.93 274.29-408.16 356.69 0.396 43.314 41.83 149.09 92.068 235.05 50.237 85.967 126.66 226.64 169.82 312.6 43.162 85.966 117.44 206.54 165.06 267.95 94.417 121.74 314.61 279.11 390.54 279.11 26.22 0 86.097 53.173 133.06 118.16 76.752 106.2 81.976 131.62 51.612 251.2-18.581 73.172-33.346 163.18-32.813 200.03 1.163 80.675-33.135 261.4-51.866 273.27-18.404 11.658-219.58 29.26-397.39 34.773-99.387 3.081-185.37-10.814-264.36-42.717zm-64.191-365.8c0-12.28-15.862-22.329-35.249-22.329-19.385 0-35.248 10.049-35.248 22.329 0 12.282 15.863 22.328 35.248 22.328 19.387 0 35.249-10.046 35.249-22.328zm235.54-193.17c-12.622-7.998 3.663-26.868 36.192-41.936 54.548-25.267 54.702-30.208 1.971-63.611-31.446-19.92-84.204-36.218-117.24-36.218-33.037 0-90.883-22.507-128.55-50.018l-68.48-50.016 11.474 66.764c11.005 64.061 178.39 189.57 252.81 189.57 19.126 0 24.447-6.543 11.823-14.538zm-80.939-288.32c11.632-19.2 37.121-28.655 56.644-21.012 53.023 20.76 105.72-7.861 83.136-45.148-10.876-17.956-33.977-27.09-51.332-20.295-17.354 6.795-31.554 1.896-31.554-10.886 0-12.783-55.016-59.128-122.26-102.99s-126.72-96.796-132.18-117.63c-5.46-20.837-29.753-51.163-53.986-67.392-24.233-16.228-44.061-46.875-44.061-68.103s-16.275-48.906-36.164-61.505c-19.89-12.602-75.887-92.285-124.44-177.08-48.549-84.791-103.39-163.74-121.86-175.45-70.486-44.65-76.414 12.804-16.401 158.98 78.203 190.49 236.76 402.23 370.84 495.22 87.181 60.467 96.576 77.969 61.142 113.91-34.209 34.701-29.874 50.861 23.717 88.373 78.579 55.005 110.56 57.54 138.76 10.999zm-1423.5-1986.6c0-64.282-85.229-204.07-155.63-255.25-25.956-18.871-68.191-71.991-93.856-118.04-25.667-46.053-60.277-83.734-76.912-83.734-16.638 0-20.445-10.048-8.464-22.328 11.981-12.282 5.289-22.33-14.872-22.33-20.162 0-46.61-25.119-58.774-55.821-13.538-34.172-47.202-55.822-86.794-55.822-35.572 0-89.003-22.002-118.74-48.893-113.66-102.79-86.791-17.256 44.173 140.64 467.88 564.09 569.86 657.42 569.86 521.58z"/>
   </g>
  </g>
  <animate attributeName="display" values="none;inline;none" keyTimes="0;0.5;1" dur="0.5s" begin="0s" repeatCount="indefinite" />
 </g>
</svg>
